<?xml version="1.0" encoding="utf-8"?>
<!-- Generator: Adobe Illustrator 26.2.1, SVG Export Plug-In . SVG Version: 6.00 Build 0)  -->
<svg version="1.1" id="Layer_1" xmlns="http://www.w3.org/2000/svg" xmlns:xlink="http://www.w3.org/1999/xlink" x="0px" y="0px"
	 viewBox="0 0 841.9 595.3" style="enable-background:new 0 0 841.9 595.3;" xml:space="preserve">
<style type="text/css">
	.st0{fill:none;stroke:#000000;stroke-miterlimit:10;}
	.st1{font-family:'ArialMT';}
	.st2{font-size:20px;}
	.st3{fill:#009FE3;}
	.st4{fill:#D04544;}
	.st5{fill:none;stroke:#020203;stroke-width:3;stroke-miterlimit:10;}
	.st6{fill:#020203;}
	.st7{fill:none;stroke:#6CB533;stroke-width:6;stroke-linecap:round;stroke-miterlimit:10;}
	.st8{fill:none;stroke:#E8471A;stroke-width:5;stroke-linecap:round;stroke-miterlimit:10;}
</style>
<g>
	<g>
		<g>
			<line class="st0" x1="229.8" y1="524.1" x2="367.8" y2="524.1"/>
			<g>
				<path d="M373.9,524.1c-2.8,1.1-6.4,2.9-8.5,4.8l1.7-4.8l-1.7-4.8C367.5,521.3,371,523.1,373.9,524.1z"/>
			</g>
		</g>
	</g>
	<text transform="matrix(1 0 0 1 73.5673 503.9225)" class="st1 st2">David</text>
	<rect x="177.7" y="426.6" class="st0" width="539.8" height="144"/>
	<circle cx="220.5" cy="524.1" r="9.3"/>
	<circle cx="301.8" cy="524.1" r="9.3"/>
	<circle class="st3" cx="383.2" cy="524.1" r="9.3"/>
	<text transform="matrix(1 0 0 1 207.7153 500.4083)" class="st1 st2">C1</text>
	<text transform="matrix(1 0 0 1 289.0565 500.6078)" class="st1 st2">C2</text>
	<text transform="matrix(1 0 0 1 362.0579 500.4086)" class="st1 st2">C3.2</text>
	<text transform="matrix(1 0 0 1 187.5275 448.9056)" class="st1 st2">master</text>
</g>
<g>
	<g>
		<g>
			<line class="st0" x1="229.7" y1="330.1" x2="367.7" y2="330.1"/>
			<g>
				<path d="M373.7,330.1c-2.8,1.1-6.4,2.9-8.5,4.8l1.7-4.8l-1.7-4.8C367.4,327.3,370.9,329,373.7,330.1z"/>
			</g>
		</g>
	</g>
	<text transform="matrix(1 0 0 1 74.5502 309.9119)" class="st1 st2">Kevin</text>
	<rect x="177.5" y="232.6" class="st0" width="539.8" height="144"/>
	<circle cx="220.4" cy="330.1" r="9.3"/>
	<circle cx="301.7" cy="330.1" r="9.3"/>
	<circle class="st4" cx="383.1" cy="330.1" r="9.3"/>
	<text transform="matrix(1 0 0 1 207.5947 306.3976)" class="st1 st2">C1</text>
	<text transform="matrix(1 0 0 1 288.9359 306.5971)" class="st1 st2">C2</text>
	<text transform="matrix(1 0 0 1 361.9373 306.3979)" class="st1 st2">C3.1</text>
	<text transform="matrix(1 0 0 1 187.4068 254.8949)" class="st1 st2">master</text>
</g>
<g>
	<g>
		<g>
			<line class="st0" x1="229.7" y1="136.1" x2="286.4" y2="136.1"/>
			<g>
				<path d="M292.4,136.1c-2.8,1.1-6.4,2.9-8.5,4.8l1.7-4.8l-1.7-4.8C286,133.2,289.6,135,292.4,136.1z"/>
			</g>
		</g>
	</g>
	<text transform="matrix(1 0 0 1 62.3335 115.9012)" class="st1 st2">GitHub</text>
	<rect x="177.5" y="38.6" class="st0" width="539.8" height="144"/>
	<circle cx="220.4" cy="136.1" r="9.3"/>
	<circle cx="301.7" cy="136.1" r="9.3"/>
	<text transform="matrix(1 0 0 1 207.5948 112.387)" class="st1 st2">C1</text>
	<text transform="matrix(1 0 0 1 288.9359 112.5864)" class="st1 st2">C2</text>
	<text transform="matrix(1 0 0 1 187.4069 60.8842)" class="st1 st2">master</text>
</g>
<g>
	<g>
		<path class="st5" d="M734.1,333.7c3.8-2.5,63.3-42.6,62.2-116.2c-0.8-52-31.3-86.4-49.4-102.2"/>
		<g>
			<polygon class="st6" points="756.3,108.7 734.1,105.4 742.3,126.3 			"/>
		</g>
	</g>
</g>
<g>
	<g>
		<path class="st5" d="M744.2,534.5c11.8-21,23.8-45.9,34.3-74.7c19.2-53,26.3-101.1,28.7-138.3"/>
		<g>
			
				<rect x="805.5" y="311.8" transform="matrix(7.448485e-02 -0.9972 0.9972 7.448485e-02 426.2761 1102.3804)" class="st6" width="3" height="19.5"/>
		</g>
	</g>
</g>
<path class="st7" d="M767,96.3c0.5,0.6,1.1,1.6,1.8,2.8c0.7,1.3,1.2,2.5,2,4.7c1,2.8,1.7,5.2,2.1,6.9c2.6-6.7,7.8-16.9,18.5-23.3
	c1.4-0.8,2.7-1.5,4.1-2.1"/>
<g>
	<path class="st8" d="M796.2,279.2c7.3,9.3,14.7,18.7,22,28"/>
	<path class="st8" d="M818.2,279.2c-7.3,9.3-14.7,18.7-22,28"/>
</g>
</svg>
