<svg id="Layer_1" data-name="Layer 1" xmlns="http://www.w3.org/2000/svg" viewBox="0 0 659.7 239.96"><defs><style>.cls-1{fill:#fff;}.cls-1,.cls-2{stroke:#1d1d1b;stroke-miterlimit:10;}.cls-2{fill:none;}.cls-12,.cls-3,.cls-9{fill:#1d1d1b;}.cls-4,.cls-6,.cls-9{font-size:12px;}.cls-4{fill:#e30613;}.cls-12,.cls-4,.cls-6,.cls-9{font-family:MyriadPro-Regular, Myriad Pro;}.cls-5{letter-spacing:0.01em;}.cls-6{fill:#0b7e35;}.cls-7{letter-spacing:0em;}.cls-8{letter-spacing:0em;}.cls-10{letter-spacing:0em;}.cls-11{letter-spacing:-0.01em;}.cls-12{font-size:20px;}.cls-13{letter-spacing:-0.03em;}.cls-14{letter-spacing:-0.01em;}</style></defs><rect class="cls-1" x="148.82" y="13.83" width="371.41" height="187.32"/><line class="cls-2" x1="87.39" y1="109.9" x2="567.75" y2="109.54"/><path class="cls-3" d="M573.79,109.54a30.1,30.1,0,0,0-8.55,4.76l1.72-4.76-1.72-4.75A30.18,30.18,0,0,0,573.79,109.54Z"/><rect class="cls-1" x="172.55" y="49.03" width="132.31" height="123.74"/><text class="cls-4" transform="translate(180.75 69.22)">def fun<tspan class="cls-5" x="35.6" y="0">c</tspan><tspan x="41.14" y="0">tion</tspan></text><text class="cls-6" transform="translate(181.21 84.88)">def fun<tspan class="cls-5" x="35.6" y="0">c</tspan><tspan x="41.14" y="0">tion2</tspan></text><rect class="cls-1" x="269.31" y="56.11" width="132.31" height="123.74"/><text class="cls-4" transform="translate(277.52 76.31)">fun<tspan class="cls-5" x="16.78" y="0">c</tspan><tspan x="22.31" y="0">tion(a, </tspan><tspan class="cls-7" x="56.55" y="0">b</tspan><tspan x="63.35" y="0">)</tspan></text><text class="cls-6" transform="translate(277.97 91.97)">fun<tspan class="cls-5" x="16.78" y="0">c</tspan><tspan x="22.31" y="0">tion2(a, </tspan><tspan class="cls-8" x="62.71" y="0">b</tspan><tspan x="69.5" y="0">)</tspan></text><text class="cls-4" transform="translate(285.27 145.76)">fun<tspan class="cls-5" x="16.78" y="0">c</tspan><tspan x="22.31" y="0">tion(a, </tspan><tspan class="cls-7" x="56.55" y="0">b</tspan><tspan x="63.35" y="0">)</tspan></text><text class="cls-6" transform="translate(285.73 161.42)">fun<tspan class="cls-5" x="16.78" y="0">c</tspan><tspan x="22.31" y="0">tion2(a, </tspan><tspan class="cls-8" x="62.71" y="0">b</tspan><tspan x="69.5" y="0">)</tspan></text><rect class="cls-1" x="364.14" y="61.3" width="132.31" height="123.74"/><text class="cls-4" transform="translate(372.29 115.34)">fun<tspan class="cls-5" x="16.78" y="0">c</tspan><tspan x="22.31" y="0">tion(a, </tspan><tspan class="cls-7" x="56.55" y="0">b</tspan><tspan x="63.35" y="0">)</tspan></text><text class="cls-6" transform="translate(372.74 131)">fun<tspan class="cls-5" x="16.78" y="0">c</tspan><tspan x="22.31" y="0">tion2(a, </tspan><tspan class="cls-8" x="62.71" y="0">b</tspan><tspan x="69.5" y="0">)</tspan></text><rect class="cls-1" x="172.55" y="26.8" width="132.31" height="22.23"/><text class="cls-9" transform="translate(214.33 41.18)">sc<tspan class="cls-10" x="10.13" y="0">r</tspan><tspan x="14.1" y="0">ipt1.</tspan><tspan class="cls-11" x="36.35" y="0">p</tspan><tspan x="43.09" y="0">y</tspan></text><rect class="cls-1" x="269.31" y="33.88" width="132.31" height="22.23"/><text class="cls-9" transform="translate(311.09 48.26)">sc<tspan class="cls-10" x="10.13" y="0">r</tspan><tspan x="14.1" y="0">ipt2.</tspan><tspan class="cls-11" x="36.35" y="0">p</tspan><tspan x="43.09" y="0">y</tspan></text><rect class="cls-1" x="364.14" y="39.8" width="132.31" height="22.23"/><text class="cls-9" transform="translate(405.92 54.17)">sc<tspan class="cls-10" x="10.13" y="0">r</tspan><tspan x="14.1" y="0">ipt3.</tspan><tspan class="cls-11" x="36.35" y="0">p</tspan><tspan x="43.09" y="0">y</tspan></text><text class="cls-12" transform="translate(41.14 84.78)"><tspan class="cls-13">V</tspan><tspan x="10.5" y="0">ersion 1</tspan></text><text class="cls-12" transform="translate(543.79 84.74)"><tspan class="cls-13">V</tspan><tspan x="10.5" y="0">ersion 2</tspan></text><circle class="cls-3" cx="79.26" cy="109.9" r="8.13"/><circle class="cls-3" cx="581.91" cy="109.53" r="8.13"/><text class="cls-9" transform="translate(314.42 222.14)"><tspan class="cls-14">C</tspan><tspan x="6.83" y="0">ommit</tspan></text></svg>