<?xml version="1.0" encoding="utf-8"?>
<!-- Generator: Adobe Illustrator 26.2.1, SVG Export Plug-In . SVG Version: 6.00 Build 0)  -->
<svg version="1.1" id="Layer_1" xmlns="http://www.w3.org/2000/svg" xmlns:xlink="http://www.w3.org/1999/xlink" x="0px" y="0px"
	 viewBox="0 0 841.9 595.3" style="enable-background:new 0 0 841.9 595.3;" xml:space="preserve">
<style type="text/css">
	.st0{fill:none;stroke:#000000;stroke-miterlimit:10;}
	.st1{font-family:'ArialMT';}
	.st2{font-size:20px;}
	.st3{fill:#009FE3;}
	.st4{fill:#D04544;}
</style>
<g>
	<g>
		<g>
			<line class="st0" x1="229.8" y1="524.1" x2="367.8" y2="524.1"/>
			<g>
				<path d="M373.9,524.1c-2.8,1.1-6.4,2.9-8.5,4.8l1.7-4.8l-1.7-4.8C367.5,521.3,371,523.1,373.9,524.1z"/>
			</g>
		</g>
	</g>
	<text transform="matrix(1 0 0 1 73.5673 503.9225)" class="st1 st2">David</text>
	<rect x="177.7" y="426.6" class="st0" width="539.8" height="144"/>
	<circle cx="220.5" cy="524.1" r="9.3"/>
	<circle cx="301.8" cy="524.1" r="9.3"/>
	<circle class="st3" cx="383.2" cy="524.1" r="9.3"/>
	<text transform="matrix(1 0 0 1 207.7153 500.4083)" class="st1 st2">C1</text>
	<text transform="matrix(1 0 0 1 289.0565 500.6078)" class="st1 st2">C2</text>
	<text transform="matrix(1 0 0 1 362.0579 500.4086)" class="st1 st2">C3.2</text>
	<text transform="matrix(1 0 0 1 187.5275 448.9056)" class="st1 st2">master</text>
</g>
<g>
	<g>
		<g>
			<line class="st0" x1="229.7" y1="330.1" x2="367.7" y2="330.1"/>
			<g>
				<path d="M373.7,330.1c-2.8,1.1-6.4,2.9-8.5,4.8l1.7-4.8l-1.7-4.8C367.4,327.3,370.9,329,373.7,330.1z"/>
			</g>
		</g>
	</g>
	<text transform="matrix(1 0 0 1 74.5502 309.9119)" class="st1 st2">Kevin</text>
	<rect x="177.5" y="232.6" class="st0" width="539.8" height="144"/>
	<circle cx="220.4" cy="330.1" r="9.3"/>
	<circle cx="301.7" cy="330.1" r="9.3"/>
	<circle class="st4" cx="383.1" cy="330.1" r="9.3"/>
	<text transform="matrix(1 0 0 1 207.5947 306.3976)" class="st1 st2">C1</text>
	<text transform="matrix(1 0 0 1 288.9359 306.5971)" class="st1 st2">C2</text>
	<text transform="matrix(1 0 0 1 361.9373 306.3979)" class="st1 st2">C3.1</text>
	<text transform="matrix(1 0 0 1 187.4068 254.8949)" class="st1 st2">master</text>
</g>
<g>
	<g>
		<g>
			<line class="st0" x1="229.7" y1="136.1" x2="286.4" y2="136.1"/>
			<g>
				<path d="M292.4,136.1c-2.8,1.1-6.4,2.9-8.5,4.8l1.7-4.8l-1.7-4.8C286,133.2,289.6,135,292.4,136.1z"/>
			</g>
		</g>
	</g>
	<text transform="matrix(1 0 0 1 62.3335 115.9012)" class="st1 st2">GitHub</text>
	<rect x="177.5" y="38.6" class="st0" width="539.8" height="144"/>
	<circle cx="220.4" cy="136.1" r="9.3"/>
	<circle cx="301.7" cy="136.1" r="9.3"/>
	<text transform="matrix(1 0 0 1 207.5948 112.387)" class="st1 st2">C1</text>
	<text transform="matrix(1 0 0 1 288.9359 112.5864)" class="st1 st2">C2</text>
	<text transform="matrix(1 0 0 1 187.4069 60.8842)" class="st1 st2">master</text>
</g>
</svg>
