<svg id="Layer_1" data-name="Layer 1" xmlns="http://www.w3.org/2000/svg" viewBox="0 0 1212.68 595.28"><defs><style>.cls-1{font-size:20px;font-family:MyriadPro-Regular, Myriad Pro;}.cls-1,.cls-4{fill:#1d1d1b;}.cls-2{letter-spacing:-0.01em;}.cls-3,.cls-7{fill:none;stroke:#1d1d1b;stroke-miterlimit:10;}.cls-5{letter-spacing:-0.01em;}.cls-6{fill:#d04544;}.cls-7{stroke-dasharray:5.45 5.45;}.cls-8{letter-spacing:-0.01em;}.cls-9{letter-spacing:0.01em;}.cls-10{letter-spacing:-0.08em;}.cls-11{letter-spacing:0em;}.cls-12{letter-spacing:0em;}.cls-13{letter-spacing:-0.01em;}.cls-14{letter-spacing:-0.01em;}.cls-15{letter-spacing:0em;}.cls-16{letter-spacing:-0.02em;}.cls-17{letter-spacing:-0.09em;}.cls-18{letter-spacing:0em;}.cls-19{letter-spacing:-0.01em;}.cls-20{letter-spacing:-0.01em;}.cls-21{letter-spacing:0.02em;}.cls-22{letter-spacing:0.01em;}.cls-23{letter-spacing:0em;}.cls-24{letter-spacing:-0.01em;}.cls-25{letter-spacing:-0.03em;}.cls-26{letter-spacing:-0.01em;}.cls-27{letter-spacing:0em;}.cls-28{letter-spacing:-0.01em;}.cls-29{letter-spacing:0em;}.cls-30{letter-spacing:0em;}</style></defs><text class="cls-1" transform="translate(76.44 323.1)">Kevin</text><text class="cls-1" transform="translate(74.32 512.79)">D<tspan class="cls-2" x="13.32" y="0">a</tspan><tspan x="22.8" y="0">vid</tspan></text><text class="cls-1" transform="translate(63.04 116.59)">GitHub</text><rect class="cls-3" x="177.66" y="245.24" width="539.77" height="143.99"/><circle class="cls-4" cx="220.5" cy="342.76" r="9.31"/><text class="cls-1" transform="translate(209.57 319.05)">C1</text><text class="cls-1" transform="translate(185.35 266.55)">mas<tspan class="cls-5" x="34.24" y="0">t</tspan><tspan x="40.74" y="0">er</tspan></text><circle class="cls-6" cx="383.18" cy="343.25" r="9.31"/><line class="cls-3" x1="229.81" y1="343.25" x2="367.83" y2="343.25"/><path class="cls-4" d="M373.87,343.25a30.1,30.1,0,0,0-8.55,4.76l1.72-4.76-1.72-4.75A30.31,30.31,0,0,0,373.87,343.25Z"/><text class="cls-1" transform="translate(365.05 319.55)">C2.1</text><rect class="cls-3" x="177.66" y="34.92" width="539.77" height="143.99"/><circle class="cls-4" cx="220.5" cy="132.44" r="9.31"/><circle class="cls-4" cx="301.84" cy="132.44" r="9.31"/><line class="cls-3" x1="229.81" y1="132.44" x2="286.49" y2="132.44"/><path class="cls-4" d="M292.53,132.44A30,30,0,0,0,284,137.2l1.72-4.76L284,127.68A30,30,0,0,0,292.53,132.44Z"/><text class="cls-1" transform="translate(209.57 108.73)">C1</text><text class="cls-1" transform="translate(290.91 108.93)">C2</text><text class="cls-1" transform="translate(185.35 56.23)">mas<tspan class="cls-5" x="34.24" y="0">t</tspan><tspan x="40.74" y="0">er</tspan></text><rect class="cls-3" x="177.66" y="426.6" width="539.77" height="143.99"/><circle class="cls-4" cx="220.5" cy="524.11" r="9.31"/><circle class="cls-4" cx="301.84" cy="524.11" r="9.31"/><circle class="cls-6" cx="383.18" cy="524.11" r="9.31"/><line class="cls-3" x1="229.81" y1="524.11" x2="367.83" y2="524.11"/><path class="cls-4" d="M373.87,524.11a30.34,30.34,0,0,0-8.55,4.76l1.72-4.76-1.72-4.75A30.31,30.31,0,0,0,373.87,524.11Z"/><text class="cls-1" transform="translate(209.57 500.41)">C1</text><text class="cls-1" transform="translate(290.91 500.61)">C2</text><text class="cls-1" transform="translate(365.05 500.41)">C3.2</text><text class="cls-1" transform="translate(185.35 447.91)">mas<tspan class="cls-5" x="34.24" y="0">t</tspan><tspan x="40.74" y="0">er</tspan></text><line class="cls-3" x1="392.49" y1="524.11" x2="395.49" y2="524.11"/><line class="cls-7" x1="400.95" y1="524.11" x2="452.76" y2="524.11"/><line class="cls-3" x1="455.49" y1="524.11" x2="458.49" y2="524.11"/><path class="cls-4" d="M464.52,524.11a30.34,30.34,0,0,0-8.55,4.76l1.73-4.76L456,519.36A30.31,30.31,0,0,0,464.52,524.11Z"/><text class="cls-1" transform="translate(737.31 266.77)"><tspan class="cls-5">g</tspan><tspan x="11.06" y="0">it </tspan><tspan class="cls-8" x="26.6" y="0">r</tspan><tspan x="32.94" y="0">eset --so</tspan><tspan class="cls-9" x="102.94" y="0">f</tspan><tspan x="109" y="0">t C1</tspan><tspan class="cls-5" x="0" y="24">g</tspan><tspan x="11.06" y="24">it </tspan><tspan class="cls-5" x="26.6" y="24">c</tspan><tspan x="35.44" y="24">ommit -m</tspan><tspan class="cls-10" x="118.14" y="24"> </tspan><tspan x="120.72" y="24">“</tspan><tspan class="cls-11" x="127.8" y="24">R</tspan><tspan x="138.64" y="24">e</tspan><tspan class="cls-5" x="148.66" y="24">c</tspan><tspan class="cls-12" x="157.5" y="24">ommit C2 and </tspan><tspan class="cls-13" x="279.74" y="24">m</tspan><tspan x="296.16" y="24">y </tspan><tspan class="cls-8" x="309.82" y="24">r</tspan><tspan x="316.16" y="24">e</tspan><tspan class="cls-14" x="326.18" y="24">c</tspan><tspan x="335.02" y="24">e</tspan><tspan class="cls-15" x="345.04" y="24">n</tspan><tspan x="356.06" y="24">t change</tspan><tspan class="cls-16" x="428.92" y="24">s</tspan><tspan class="cls-17" x="436.5" y="24">”</tspan></text><text class="cls-1" transform="translate(738.07 346.83)"><tspan class="cls-5">g</tspan><tspan x="11.06" y="0">it </tspan><tspan class="cls-8" x="26.6" y="0">r</tspan><tspan x="32.94" y="0">eset --ha</tspan><tspan class="cls-8" x="104.78" y="0">r</tspan><tspan x="111.12" y="0">d C1</tspan><tspan x="0" y="24"># Nothing </tspan><tspan class="cls-5" x="87.24" y="24">t</tspan><tspan class="cls-12" x="93.74" y="24">o </tspan><tspan class="cls-5" x="108.96" y="24">c</tspan><tspan class="cls-12" x="117.8" y="24">ommi</tspan><tspan class="cls-18" x="166.82" y="24">t</tspan><tspan x="173.38" y="24">. </tspan><tspan class="cls-19" x="181.76" y="24">E</tspan><tspan class="cls-20" x="191.46" y="24">v</tspan><tspan class="cls-12" x="200.88" y="24">e</tspan><tspan class="cls-21" x="210.9" y="24">r</tspan><tspan x="217.94" y="24">ything is back </tspan><tspan class="cls-5" x="336.71" y="24">t</tspan><tspan x="343.21" y="24">o C1.</tspan></text><text class="cls-1" transform="translate(738.07 471.33)"><tspan class="cls-5">g</tspan><tspan x="11.06" y="0">it </tspan><tspan class="cls-8" x="26.6" y="0">r</tspan><tspan x="32.94" y="0">eset --ha</tspan><tspan class="cls-8" x="104.78" y="0">r</tspan><tspan x="111.12" y="0">d HEAD</tspan><tspan x="0" y="24"># </tspan><tspan class="cls-22" x="14.18" y="24">M</tspan><tspan x="30.4" y="24">y cu</tspan><tspan class="cls-23" x="64.04" y="24">r</tspan><tspan class="cls-24" x="70.66" y="24">r</tspan><tspan x="77" y="24">e</tspan><tspan class="cls-15" x="87.02" y="24">n</tspan><tspan x="98.04" y="24">t un</tspan><tspan class="cls-5" x="131.02" y="24">c</tspan><tspan class="cls-12" x="139.86" y="24">ommi</tspan><tspan class="cls-5" x="188.88" y="24">t</tspan><tspan x="195.38" y="24">ed changes do</tspan><tspan class="cls-25" x="317.34" y="24">n</tspan><tspan class="cls-26" x="327.78" y="24">’</tspan><tspan class="cls-27" x="331.7" y="24">t make sens</tspan><tspan class="cls-28" x="429.47" y="24">e</tspan><tspan x="439.25" y="24">.</tspan><tspan x="0" y="48"># </tspan><tspan class="cls-29" x="14.18" y="48">G</tspan><tspan class="cls-12" x="27.2" y="48">o back </tspan><tspan class="cls-5" x="86.02" y="48">t</tspan><tspan x="92.52" y="48">o </tspan><tspan class="cls-13" x="107.74" y="48">m</tspan><tspan x="124.16" y="48">y l</tspan><tspan class="cls-15" x="142.54" y="48">a</tspan><tspan class="cls-5" x="152.1" y="48">t</tspan><tspan x="158.6" y="48">est </tspan><tspan class="cls-5" x="187.4" y="48">c</tspan><tspan x="196.24" y="48">ommit on this b</tspan><tspan class="cls-30" x="328.38" y="48">r</tspan><tspan x="334.82" y="48">anch.</tspan></text></svg>