<?xml version="1.0" encoding="utf-8"?>
<!-- Generator: Adobe Illustrator 26.2.1, SVG Export Plug-In . SVG Version: 6.00 Build 0)  -->
<svg version="1.1" id="Layer_1" xmlns="http://www.w3.org/2000/svg" xmlns:xlink="http://www.w3.org/1999/xlink" x="0px" y="0px"
	 viewBox="0 0 800 541" style="enable-background:new 0 0 800 541;" xml:space="preserve">
<style type="text/css">
	.st0{fill:#B3E3FF;stroke:#404040;stroke-width:4;stroke-miterlimit:10;}
	.st1{fill:#FFFFFF;stroke:#404040;stroke-width:4;stroke-miterlimit:10;}
	.st2{fill:none;stroke:#404040;stroke-width:4;stroke-linecap:round;stroke-linejoin:round;stroke-miterlimit:10;}
	.st3{font-family:'ArialMT';}
	.st4{font-size:16px;}
</style>
<g id="git_x5F_clone_x5F_1">
	<path id="repo1_118_" class="st0" d="M337,173.6c0-12.4,28.2-22.4,63-22.4s63,10,63,22.4 M337,173.6v27.9c0,3,1.7,5.9,4.7,8.5
		c9.4,8.2,32,13.9,58.3,13.9c26.4,0,48.9-5.8,58.3-13.9c3-2.6,4.7-5.5,4.7-8.5v-27.9"/>
	<path class="st1" d="M463,173.6c0,12.4-28.2,22.4-63,22.4s-63-10-63-22.4s28.2-22.4,63-22.4S463,161.2,463,173.6z"/>
	<path id="repo1_117_" class="st0" d="M337,145.7c0-12.4,28.2-22.4,63-22.4s63,10,63,22.4 M337,145.7v27.9c0,3,1.7,5.9,4.7,8.5
		c9.4,8.2,32,13.9,58.3,13.9c26.4,0,48.9-5.8,58.3-13.9c3-2.6,4.7-5.5,4.7-8.5v-27.9"/>
	<path class="st1" d="M463,145.7c0,12.4-28.2,22.4-63,22.4s-63-10-63-22.4s28.2-22.4,63-22.4S463,133.3,463,145.7z"/>
	<path id="repo1_116_" class="st0" d="M337,117.8c0-12.4,28.2-22.4,63-22.4s63,10,63,22.4 M337,117.8v27.9c0,3,1.7,5.9,4.7,8.5
		c9.4,8.2,32,13.9,58.3,13.9c26.4,0,48.9-5.8,58.3-13.9c3-2.6,4.7-5.5,4.7-8.5v-27.9"/>
	<path class="st1" d="M463,117.8c0,12.4-28.2,22.4-63,22.4s-63-10-63-22.4s28.2-22.4,63-22.4S463,105.4,463,117.8z"/>
	<path id="repo1_115_" class="st0" d="M337,89.9c0-12.4,28.2-22.4,63-22.4s63,10,63,22.4 M337,89.9v27.9c0,3,1.7,5.9,4.7,8.5
		c9.4,8.2,32,13.9,58.3,13.9c26.4,0,48.9-5.8,58.3-13.9c3-2.6,4.7-5.5,4.7-8.5V89.9"/>
	<path class="st1" d="M463,89.9c0,12.4-28.2,22.4-63,22.4s-63-10-63-22.4s28.2-22.4,63-22.4S463,77.5,463,89.9z"/>
	<path id="repo1_122_" class="st0" d="M191,412.6c0-12.4,28.2-22.4,63-22.4s63,10,63,22.4 M191,412.6v27.9c0,3,1.7,5.9,4.7,8.5
		c9.4,8.2,32,13.9,58.3,13.9c26.4,0,48.9-5.8,58.3-13.9c3-2.6,4.7-5.5,4.7-8.5v-27.9"/>
	<path class="st1" d="M317,412.6c0,12.4-28.2,22.4-63,22.4s-63-10-63-22.4s28.2-22.4,63-22.4S317,400.2,317,412.6z"/>
	<path id="repo1_121_" class="st0" d="M191,384.7c0-12.4,28.2-22.4,63-22.4s63,10,63,22.4 M191,384.7v27.9c0,3,1.7,5.9,4.7,8.5
		c9.4,8.2,32,13.9,58.3,13.9c26.4,0,48.9-5.8,58.3-13.9c3-2.6,4.7-5.5,4.7-8.5v-27.9"/>
	<path class="st1" d="M317,384.7c0,12.4-28.2,22.4-63,22.4s-63-10-63-22.4s28.2-22.4,63-22.4S317,372.3,317,384.7z"/>
	<path id="repo1_120_" class="st0" d="M191,356.8c0-12.4,28.2-22.4,63-22.4s63,10,63,22.4 M191,356.8v27.9c0,3,1.7,5.9,4.7,8.5
		c9.4,8.2,32,13.9,58.3,13.9c26.4,0,48.9-5.8,58.3-13.9c3-2.6,4.7-5.5,4.7-8.5v-27.9"/>
	<path class="st1" d="M317,356.8c0,12.4-28.2,22.4-63,22.4s-63-10-63-22.4s28.2-22.4,63-22.4S317,344.4,317,356.8z"/>
	<path id="repo1_119_" class="st0" d="M191,328.9c0-12.4,28.2-22.4,63-22.4s63,10,63,22.4 M191,328.9v27.9c0,3,1.7,5.9,4.7,8.5
		c9.4,8.2,32,13.9,58.3,13.9c26.4,0,48.9-5.8,58.3-13.9c3-2.6,4.7-5.5,4.7-8.5v-27.9"/>
	<path class="st1" d="M317,328.9c0,12.4-28.2,22.4-63,22.4s-63-10-63-22.4s28.2-22.4,63-22.4S317,316.5,317,328.9z"/>
	<path id="repo1_126_" class="st0" d="M483,412.6c0-12.4,28.2-22.4,63-22.4s63,10,63,22.4 M483,412.6v27.9c0,3,1.7,5.9,4.7,8.5
		c9.4,8.2,32,13.9,58.3,13.9c26.4,0,48.9-5.8,58.3-13.9c3-2.6,4.7-5.5,4.7-8.5v-27.9"/>
	<path class="st1" d="M609,412.6c0,12.4-28.2,22.4-63,22.4s-63-10-63-22.4s28.2-22.4,63-22.4S609,400.2,609,412.6z"/>
	<path id="repo1_125_" class="st0" d="M483,384.7c0-12.4,28.2-22.4,63-22.4s63,10,63,22.4 M483,384.7v27.9c0,3,1.7,5.9,4.7,8.5
		c9.4,8.2,32,13.9,58.3,13.9c26.4,0,48.9-5.8,58.3-13.9c3-2.6,4.7-5.5,4.7-8.5v-27.9"/>
	<path class="st1" d="M609,384.7c0,12.4-28.2,22.4-63,22.4s-63-10-63-22.4s28.2-22.4,63-22.4S609,372.3,609,384.7z"/>
	<path id="repo1_124_" class="st0" d="M483,356.8c0-12.4,28.2-22.4,63-22.4s63,10,63,22.4 M483,356.8v27.9c0,3,1.7,5.9,4.7,8.5
		c9.4,8.2,32,13.9,58.3,13.9c26.4,0,48.9-5.8,58.3-13.9c3-2.6,4.7-5.5,4.7-8.5v-27.9"/>
	<path class="st1" d="M609,356.8c0,12.4-28.2,22.4-63,22.4s-63-10-63-22.4s28.2-22.4,63-22.4S609,344.4,609,356.8z"/>
	<path id="repo1_123_" class="st0" d="M483,328.9c0-12.4,28.2-22.4,63-22.4s63,10,63,22.4 M483,328.9v27.9c0,3,1.7,5.9,4.7,8.5
		c9.4,8.2,32,13.9,58.3,13.9c26.4,0,48.9-5.8,58.3-13.9c3-2.6,4.7-5.5,4.7-8.5v-27.9"/>
	<path class="st1" d="M609,328.9c0,12.4-28.2,22.4-63,22.4s-63-10-63-22.4s28.2-22.4,63-22.4S609,316.5,609,328.9z"/>
	<path class="st2" d="M332.7,246.1l-28.1,35.8 M317.9,282.6l-15.3,1.9l-1.8-15.3 M319.4,245.4l15.3-1.8l1.8,15.2 M466.8,246.1
		l28.1,35.8 M481.6,282.6l15.3,1.9l1.8-15.3 M480.1,245.4l-15.2-1.8l-1.9,15.2"/>
	<text transform="matrix(1 0 0 1 375.1015 255.7746)" class="st3 st4">GitHub</text>
	<text transform="matrix(1 0 0 1 233.9885 496.8857)" class="st3 st4">Kevin</text>
	<text transform="matrix(1 0 0 1 525.5467 497.1256)" class="st3 st4">David</text>
</g>
</svg>
