<?xml version="1.0" encoding="utf-8"?>
<!-- Generator: Adobe Illustrator 26.2.1, SVG Export Plug-In . SVG Version: 6.00 Build 0)  -->
<svg version="1.1" id="Layer_1" xmlns="http://www.w3.org/2000/svg" xmlns:xlink="http://www.w3.org/1999/xlink" x="0px" y="0px"
	 viewBox="0 0 841.9 726" style="enable-background:new 0 0 841.9 726;" xml:space="preserve">
<style type="text/css">
	.st0{fill:none;stroke:#000000;stroke-miterlimit:10;}
	.st1{font-family:'ArialMT';}
	.st2{font-size:20px;}
	.st3{fill:#D04544;}
	.st4{fill:#1B9DD9;}
</style>
<g>
	<g>
		<line class="st0" x1="302.7" y1="380.7" x2="375.1" y2="422.3"/>
		<g>
			<path d="M380.4,425.4c-3-0.5-6.9-0.7-9.8-0.1l3.9-3.3l0.9-5C376.3,419.7,378.4,423,380.4,425.4z"/>
		</g>
	</g>
</g>
<text transform="matrix(1 0 0 1 73.5501 397.9633)" class="st1 st2">Kevin</text>
<text transform="matrix(1 0 0 1 60.4537 167.1709)" class="st1 st2">GitHub</text>
<rect x="178.5" y="309.6" class="st0" width="539.8" height="165"/>
<circle cx="221.4" cy="380.7" r="9.3"/>
<circle cx="302.7" cy="380.7" r="9.3"/>
<circle class="st3" cx="388.5" cy="430" r="9.3"/>
<text transform="matrix(1 0 0 1 208.5946 356.9917)" class="st1 st2">C1</text>
<text transform="matrix(1 0 0 1 289.9358 357.1912)" class="st1 st2">C2</text>
<text transform="matrix(1 0 0 1 367.3461 406.2705)" class="st1 st2">C3.1</text>
<text transform="matrix(1 0 0 1 463.084 439.2873)" class="st1 st2">kevin</text>
<text transform="matrix(1 0 0 1 448.371 386.6451)" class="st1 st2">master</text>
<line class="st0" x1="230.7" y1="380.7" x2="293.4" y2="380.7"/>
<rect x="177.7" y="50.6" class="st0" width="539.8" height="221.5"/>
<circle cx="221.4" cy="111.1" r="9.3"/>
<circle cx="302.7" cy="111.1" r="9.3"/>
<g>
	<g>
		<line class="st0" x1="230.7" y1="111.1" x2="287.4" y2="111.1"/>
		<g>
			<path d="M293.4,111.1c-2.8,1.1-6.4,2.9-8.5,4.8l1.7-4.8l-1.7-4.8C287,108.3,290.6,110.1,293.4,111.1z"/>
		</g>
	</g>
</g>
<text transform="matrix(1 0 0 1 208.5947 87.4068)" class="st1 st2">C1</text>
<text transform="matrix(1 0 0 1 289.9359 87.6062)" class="st1 st2">C2</text>
<text transform="matrix(1 0 0 1 446.5316 111.3315)" class="st1 st2">master</text>
<circle class="st3" cx="388.5" cy="161.2" r="9.3"/>
<g>
	<g>
		<line class="st0" x1="302.7" y1="111.9" x2="375.1" y2="153.6"/>
		<g>
			<path d="M380.4,156.6c-3-0.5-6.9-0.7-9.8-0.1l3.9-3.3l0.9-5C376.3,150.9,378.4,154.2,380.4,156.6z"/>
		</g>
	</g>
</g>
<text transform="matrix(1 0 0 1 367.3457 137.4815)" class="st1 st2">C3.1</text>
<text transform="matrix(1 0 0 1 462.365 170.4983)" class="st1 st2">kevin</text>
<circle class="st4" cx="389.2" cy="234.5" r="9.3"/>
<g>
	<g>
		<line class="st0" x1="302.7" y1="111.9" x2="379.8" y2="224.7"/>
		<g>
			<path d="M383.3,229.7c-2.5-1.7-5.9-3.6-8.8-4.4l4.9-1.3l3-4.1C382,222.8,382.5,226.7,383.3,229.7z"/>
		</g>
	</g>
</g>
<text transform="matrix(1 0 0 1 368.0654 210.8301)" class="st1 st2">C3.2</text>
<text transform="matrix(1 0 0 1 461.9618 243.8469)" class="st1 st2">david</text>
<text transform="matrix(1 0 0 1 72.4467 600.5105)" class="st1 st2">David</text>
<rect x="178.5" y="512.2" class="st0" width="539.8" height="165"/>
<circle cx="221.4" cy="583.2" r="9.3"/>
<circle cx="302.7" cy="583.2" r="9.3"/>
<circle class="st4" cx="388.5" cy="632.5" r="9.3"/>
<g>
	<g>
		<line class="st0" x1="302.7" y1="583.2" x2="375.1" y2="624.9"/>
		<g>
			<path d="M380.4,627.9c-3-0.5-6.9-0.7-9.8-0.1l3.9-3.3l0.9-5C376.3,622.3,378.4,625.6,380.4,627.9z"/>
		</g>
	</g>
</g>
<text transform="matrix(1 0 0 1 208.5948 559.5392)" class="st1 st2">C1</text>
<text transform="matrix(1 0 0 1 289.936 559.7387)" class="st1 st2">C2</text>
<text transform="matrix(1 0 0 1 367.3458 608.8181)" class="st1 st2">C3.2</text>
<text transform="matrix(1 0 0 1 461.961 641.8348)" class="st1 st2">david</text>
<text transform="matrix(1 0 0 1 448.3711 589.1926)" class="st1 st2">master</text>
<line class="st0" x1="230.7" y1="583.2" x2="293.4" y2="583.2"/>
</svg>
