<?xml version="1.0" encoding="utf-8"?>
<!-- Generator: Adobe Illustrator 26.2.1, SVG Export Plug-In . SVG Version: 6.00 Build 0)  -->
<svg version="1.1" id="Layer_1" xmlns="http://www.w3.org/2000/svg" xmlns:xlink="http://www.w3.org/1999/xlink" x="0px" y="0px"
	 viewBox="0 0 841.9 308.7" style="enable-background:new 0 0 841.9 308.7;" xml:space="preserve">
<style type="text/css">
	.st0{font-family:'ArialMT';}
	.st1{font-size:20px;}
	.st2{fill:none;stroke:#000000;stroke-miterlimit:10;}
	.st3{fill:#D04544;}
	.st4{fill:#929290;}
	.st5{fill:none;stroke:#929290;stroke-miterlimit:10;}
</style>
<text transform="matrix(1 0 0 1 60.4537 167.1709)" class="st0 st1">GitHub</text>
<rect x="177.7" y="50.6" class="st2" width="539.8" height="221.5"/>
<circle cx="221.4" cy="111.1" r="9.3"/>
<circle cx="302.7" cy="111.1" r="9.3"/>
<g>
	<g>
		<line class="st2" x1="230.7" y1="111.1" x2="287.4" y2="111.1"/>
		<g>
			<path d="M293.4,111.1c-2.8,1.1-6.4,2.9-8.5,4.8l1.7-4.8l-1.7-4.8C287,108.3,290.6,110.1,293.4,111.1z"/>
		</g>
	</g>
</g>
<text transform="matrix(1 0 0 1 210.4482 87.4068)" class="st0 st1">C1</text>
<text transform="matrix(1 0 0 1 291.7895 87.6062)" class="st0 st1">C2</text>
<text transform="matrix(1 0 0 1 602.7415 118.2997)" class="st0 st1">master</text>
<circle class="st3" cx="388.5" cy="161.2" r="9.3"/>
<g>
	<g>
		<line class="st2" x1="302.7" y1="111.9" x2="375.1" y2="153.6"/>
		<g>
			<path d="M380.4,156.6c-3-0.5-6.9-0.7-9.8-0.1l3.9-3.3l0.9-5C376.3,150.9,378.4,154.2,380.4,156.6z"/>
		</g>
	</g>
</g>
<text transform="matrix(1 0 0 1 370.3392 137.4815)" class="st0 st1">C3.1</text>
<circle class="st3" cx="389.2" cy="234.5" r="9.3"/>
<g>
	<g>
		<line class="st2" x1="302.7" y1="111.9" x2="379.8" y2="224.7"/>
		<g>
			<path d="M383.3,229.7c-2.5-1.7-5.9-3.6-8.8-4.4l4.9-1.3l3-4.1C382,222.8,382.5,226.7,383.3,229.7z"/>
		</g>
	</g>
</g>
<text transform="matrix(1 0 0 1 371.0591 210.8301)" class="st0 st1">C3.2</text>
<circle cx="461.6" cy="111.1" r="9.3"/>
<g>
	<g>
		<line class="st2" x1="312" y1="111.1" x2="446.2" y2="111.1"/>
		<g>
			<path d="M452.3,111.1c-2.8,1.1-6.4,2.9-8.5,4.8l1.7-4.8l-1.7-4.8C445.9,108.3,449.4,110.1,452.3,111.1z"/>
		</g>
	</g>
</g>
<g>
	<g>
		<line class="st2" x1="395.9" y1="155.5" x2="449.3" y2="120.3"/>
		<g>
			<path d="M454.3,117c-1.8,2.4-3.7,5.9-4.5,8.7l-1.2-4.9l-4.1-3C447.5,118.1,451.4,117.6,454.3,117z"/>
		</g>
	</g>
</g>
<text transform="matrix(1 0 0 1 452.2834 87.8058)" class="st0 st1">C3</text>
<circle cx="547.6" cy="111.1" r="9.3"/>
<text transform="matrix(1 0 0 1 538.3215 87.4065)" class="st0 st1">C4</text>
<g>
	<g>
		<line class="st2" x1="470.9" y1="111.1" x2="532" y2="111.5"/>
		<g>
			<path d="M538,111.6c-2.8,1-6.4,2.8-8.6,4.7l1.8-4.7l-1.7-4.8C531.7,108.7,535.2,110.5,538,111.6z"/>
		</g>
	</g>
</g>
<g>
	<g>
		<line class="st2" x1="395.9" y1="228.8" x2="536.9" y2="122"/>
		<g>
			<path d="M541.7,118.3c-1.6,2.6-3.3,6.1-3.9,9l-1.5-4.8l-4.2-2.8C534.9,119.9,538.8,119.2,541.7,118.3z"/>
		</g>
	</g>
</g>
<text transform="matrix(1 0 0 1 604.5418 167.9765)" class="st4 st0 st1"> kevin </text>
<text transform="matrix(1 0 0 1 603.9799 235.9427)" class="st4 st0 st1"> david </text>
<line class="st5" x1="601.6" y1="162.6" x2="665.3" y2="162.6"/>
<line class="st5" x1="601.6" y1="231.1" x2="665.3" y2="231.1"/>
</svg>
