<?xml version="1.0" encoding="utf-8"?>
<!-- Generator: Adobe Illustrator 26.0.1, SVG Export Plug-In . SVG Version: 6.00 Build 0)  -->
<svg version="1.1" id="Layer_1" xmlns="http://www.w3.org/2000/svg" xmlns:xlink="http://www.w3.org/1999/xlink" x="0px" y="0px"
	 viewBox="0 0 285.1 341.2" style="enable-background:new 0 0 285.1 341.2;" xml:space="preserve">
<style type="text/css">
	.st0{fill:#C0E4EE;stroke:#000000;stroke-miterlimit:10;}
	.st1{font-family:'Arial-BoldMT';}
	.st2{font-size:12px;}
	.st3{fill:#878787;}
</style>
<rect x="31.1" y="21.3" class="st0" width="223" height="29.2"/>
<text transform="matrix(1 0 0 1 130.5632 38.7962)" class="st1 st2">Bird</text>
<rect x="31.1" y="50.5" class="st0" width="223" height="138.6"/>
<g>
	<g>
		<path d="M48.5,69.9h5.2v0.7h-5.2V69.9z"/>
		<path d="M63.1,66.4h2.4c1.7,0,2.9,0.6,2.9,2.3c0,1.7-1.2,2.4-2.9,2.4h-1.4v3.1h-1V66.4z M65.4,70.3c1.4,0,2-0.5,2-1.6
			c0-1.1-0.7-1.5-2-1.5h-1.2v3.1H65.4z"/>
		<path d="M70.2,65.7h1v2.3l-0.1,1.4h0c0.6-0.6,1.3-1.1,2.2-1.1c1.4,0,2,0.8,2,2.4v3.6h-1v-3.5c0-1.1-0.4-1.6-1.3-1.6
			c-0.7,0-1.2,0.3-1.8,1v4.1h-1V65.7z"/>
		<path d="M77.1,76.7l0.2-0.8c0.2,0,0.3,0.1,0.5,0.1c0.8,0,1.3-0.5,1.6-1.2l0.2-0.4l-2.7-5.8h1l1.4,3.2c0.2,0.5,0.5,1.1,0.7,1.7h0
			c0.2-0.6,0.4-1.2,0.6-1.7l1.3-3.2h1l-2.6,6.3c-0.4,1.2-1.1,2-2.5,2C77.6,76.8,77.3,76.7,77.1,76.7z"/>
		<path d="M86.4,72.3v-5.8h-2.1v-0.8h3.1v6.7c0,0.8,0.5,1.2,1.2,1.2c0.3,0,0.7-0.1,1.1-0.3l0.3,0.7c-0.5,0.2-0.9,0.3-1.6,0.3
			C87.1,74.4,86.4,73.7,86.4,72.3z"/>
		<path d="M91.6,72.1v-3.6h1v3.5c0,1.1,0.4,1.6,1.3,1.6c0.7,0,1.2-0.3,1.8-1.1v-4h1v5.8h-0.8l-0.1-1h0c-0.6,0.7-1.3,1.2-2.2,1.2
			C92.2,74.4,91.6,73.6,91.6,72.1z"/>
		<path d="M98.6,68.4h0.8l0.1,0.8h0c0.3-0.5,0.7-0.9,1.3-0.9c0.6,0,0.9,0.3,1.1,1c0.3-0.6,0.7-1,1.4-1c0.8,0,1.3,0.6,1.3,1.8v4.2h-1
			v-4.1c0-0.7-0.2-1-0.6-1c-0.4,0-0.6,0.3-0.9,0.9v4.2h-0.9v-4.1c0-0.7-0.2-1-0.6-1c-0.4,0-0.7,0.3-1,0.9v4.2h-1V68.4z"/>
		<path d="M107.7,69.1c0-0.6,0.4-1,1-1c0.5,0,1,0.4,1,1c0,0.6-0.4,1-1,1C108.1,70.1,107.7,69.7,107.7,69.1z M107.7,73.4
			c0-0.6,0.4-1,1-1c0.5,0,1,0.4,1,1c0,0.6-0.4,1-1,1C108.1,74.4,107.7,74,107.7,73.4z"/>
		<path d="M120.4,71.4c0-2,1.5-3.1,3.2-3.1c0.9,0,1.6,0.4,2.1,0.9l-0.5,0.6c-0.5-0.4-1-0.7-1.6-0.7c-1.3,0-2.3,0.9-2.3,2.2
			c0,1.3,0.9,2.2,2.2,2.2c0.7,0,1.3-0.3,1.8-0.7l0.4,0.6c-0.6,0.6-1.5,0.9-2.3,0.9C121.8,74.4,120.4,73.3,120.4,71.4z"/>
		<path d="M127.8,65.7h1v2.3l-0.1,1.4h0c0.6-0.6,1.3-1.1,2.2-1.1c1.4,0,2,0.8,2,2.4v3.6h-1v-3.5c0-1.1-0.4-1.6-1.3-1.6
			c-0.7,0-1.2,0.3-1.8,1v4.1h-1V65.7z"/>
		<path d="M134.8,72.8c0-1.3,1.2-1.9,4.2-2.2c0-0.8-0.4-1.5-1.5-1.5c-0.8,0-1.5,0.4-2,0.7l-0.4-0.7c0.6-0.4,1.6-0.8,2.6-0.8
			c1.6,0,2.4,0.9,2.4,2.4v3.6h-0.8l-0.1-0.8h0c-0.6,0.5-1.5,0.9-2.3,0.9C135.7,74.4,134.8,73.8,134.8,72.8z M139.1,72.7v-1.5
			c-2.5,0.2-3.2,0.7-3.2,1.5c0,0.7,0.6,0.9,1.3,0.9C137.7,73.6,138.4,73.3,139.1,72.7z"/>
		<path d="M142.8,68.4h0.8l0.1,1.4h0c0.6-0.9,1.5-1.5,2.6-1.5c0.4,0,0.8,0.1,1.2,0.2l-0.2,0.9c-0.4-0.1-0.6-0.2-1.1-0.2
			c-0.9,0-1.7,0.4-2.4,1.7v3.4h-1V68.4z"/>
		<path d="M149.2,72.8c0-1.3,1.2-1.9,4.2-2.2c0-0.8-0.4-1.5-1.5-1.5c-0.8,0-1.5,0.4-2,0.7l-0.4-0.7c0.6-0.4,1.6-0.8,2.6-0.8
			c1.6,0,2.4,0.9,2.4,2.4v3.6h-0.8l-0.1-0.8h0c-0.6,0.5-1.5,0.9-2.3,0.9C150.1,74.4,149.2,73.8,149.2,72.8z M153.5,72.7v-1.5
			c-2.5,0.2-3.2,0.7-3.2,1.5c0,0.7,0.6,0.9,1.3,0.9C152.1,73.6,152.8,73.3,153.5,72.7z"/>
		<path d="M156.4,71.4c0-2,1.5-3.1,3.3-3.1c0.9,0,1.6,0.4,2.1,0.9l-0.5,0.6c-0.5-0.4-1-0.7-1.6-0.7c-1.3,0-2.3,0.9-2.3,2.2
			c0,1.3,0.9,2.2,2.2,2.2c0.7,0,1.3-0.3,1.8-0.7l0.4,0.6c-0.6,0.6-1.5,0.9-2.3,0.9C157.8,74.4,156.4,73.3,156.4,71.4z"/>
		<path d="M165.1,72v-2.8h-1.7v-0.7l1.7-0.1l0.1-1.9h0.8v1.9h2.9v0.8h-2.9V72c0,1,0.3,1.6,1.5,1.6c0.5,0,1-0.1,1.4-0.3l0.2,0.7
			c-0.5,0.2-1.1,0.3-1.8,0.3C165.7,74.4,165.1,73.4,165.1,72z"/>
		<path d="M170.7,71.3c0-1.9,1.4-3,3-3c1.7,0,2.7,1.1,2.7,2.7c0,0.2,0,0.4,0,0.6h-4.9v-0.8h4.3l-0.3,0.3c0-1.4-0.7-2.1-1.8-2.1
			c-1.1,0-2,0.8-2,2.3c0,1.5,1,2.3,2.3,2.3c0.7,0,1.2-0.2,1.8-0.6l0.4,0.6c-0.6,0.4-1.3,0.7-2.3,0.7
			C172.1,74.4,170.7,73.3,170.7,71.3z"/>
		<path d="M178.8,68.4h0.8l0.1,1.4h0c0.6-0.9,1.5-1.5,2.6-1.5c0.4,0,0.8,0.1,1.2,0.2l-0.2,0.9c-0.4-0.1-0.6-0.2-1.1-0.2
			c-0.9,0-1.7,0.4-2.4,1.7v3.4h-1V68.4z"/>
		<path d="M48.5,84.3h5.2v0.7h-5.2V84.3z"/>
		<path d="M62.7,84.7c0-2.5,1.5-4.1,3.5-4.1c0.9,0,1.7,0.5,2.2,1l-0.6,0.6c-0.4-0.4-0.9-0.7-1.6-0.7c-1.5,0-2.5,1.2-2.5,3.2
			c0,2,1,3.2,2.5,3.2c0.7,0,1.3-0.3,1.8-0.9l0.6,0.6c-0.6,0.7-1.4,1.1-2.4,1.1C64.1,88.8,62.7,87.3,62.7,84.7z"/>
		<path d="M72,86.7v-5.8H70v-0.8H73v6.7c0,0.8,0.5,1.2,1.2,1.2c0.3,0,0.7-0.1,1.1-0.3l0.3,0.7c-0.5,0.2-0.9,0.3-1.6,0.3
			C72.7,88.8,72,88.1,72,86.7z"/>
		<path d="M77.2,87.2c0-1.3,1.2-1.9,4.2-2.2c0-0.8-0.4-1.5-1.5-1.5c-0.8,0-1.5,0.4-2,0.7l-0.4-0.7c0.6-0.4,1.6-0.8,2.6-0.8
			c1.6,0,2.4,0.9,2.4,2.4v3.6h-0.8l-0.1-0.8h0c-0.6,0.5-1.5,0.9-2.3,0.9C78.1,88.8,77.2,88.2,77.2,87.2z M81.5,87.1v-1.5
			c-2.5,0.2-3.3,0.7-3.3,1.5c0,0.7,0.6,0.9,1.3,0.9C80.1,88,80.8,87.7,81.5,87.1z"/>
		<path d="M84.3,87.9l0.5-0.7c0.7,0.5,1.5,0.8,2.5,0.8c1,0,1.5-0.4,1.5-0.9c0-0.4-0.2-0.8-1.8-1.1c-1.5-0.3-2.3-0.8-2.3-1.7
			c0-0.9,0.8-1.7,2.4-1.7c0.9,0,1.8,0.3,2.4,0.7L89,84.1c-0.5-0.4-1.2-0.6-2-0.6c-1,0-1.3,0.4-1.3,0.8c0,0.5,0.5,0.7,1.7,1
			c1.9,0.4,2.4,0.9,2.4,1.8c0,0.9-0.9,1.7-2.6,1.7C86.1,88.8,85,88.4,84.3,87.9z"/>
		<path d="M91.5,87.9l0.5-0.7c0.7,0.5,1.5,0.8,2.5,0.8c1,0,1.5-0.4,1.5-0.9c0-0.4-0.2-0.8-1.8-1.1c-1.5-0.3-2.3-0.8-2.3-1.7
			c0-0.9,0.8-1.7,2.4-1.7c0.9,0,1.8,0.3,2.4,0.7l-0.5,0.6c-0.5-0.4-1.2-0.6-2-0.6c-1,0-1.3,0.4-1.3,0.8c0,0.5,0.5,0.7,1.7,1
			c1.9,0.4,2.4,0.9,2.4,1.8c0,0.9-0.9,1.7-2.6,1.7C93.3,88.8,92.2,88.4,91.5,87.9z"/>
		<path d="M100.5,83.5c0-0.6,0.4-1,1-1c0.5,0,1,0.4,1,1c0,0.6-0.4,1-1,1C100.9,84.5,100.5,84.1,100.5,83.5z M100.5,87.8
			c0-0.6,0.4-1,1-1c0.5,0,1,0.4,1,1c0,0.6-0.4,1-1,1C100.9,88.8,100.5,88.4,100.5,87.8z"/>
		<path d="M113.2,85.8c0-2,1.5-3.1,3.3-3.1c0.9,0,1.6,0.4,2.1,0.9l-0.5,0.6c-0.5-0.4-1-0.7-1.6-0.7c-1.3,0-2.3,0.9-2.3,2.2
			c0,1.3,0.9,2.2,2.2,2.2c0.7,0,1.3-0.3,1.8-0.7l0.4,0.6c-0.6,0.6-1.5,0.9-2.3,0.9C114.6,88.8,113.2,87.7,113.2,85.8z"/>
		<path d="M120.6,80.1h1v2.3l-0.1,1.4h0c0.6-0.6,1.3-1.1,2.2-1.1c1.4,0,2,0.8,2,2.4v3.6h-1v-3.5c0-1.1-0.4-1.6-1.3-1.6
			c-0.7,0-1.2,0.3-1.8,1v4.1h-1V80.1z"/>
		<path d="M127.6,87.2c0-1.3,1.2-1.9,4.2-2.2c0-0.8-0.4-1.5-1.5-1.5c-0.8,0-1.5,0.4-2,0.7l-0.4-0.7c0.6-0.4,1.6-0.8,2.6-0.8
			c1.6,0,2.4,0.9,2.4,2.4v3.6H132l-0.1-0.8h0c-0.6,0.5-1.5,0.9-2.3,0.9C128.5,88.8,127.6,88.2,127.6,87.2z M131.9,87.1v-1.5
			c-2.5,0.2-3.2,0.7-3.2,1.5c0,0.7,0.6,0.9,1.3,0.9C130.5,88,131.2,87.7,131.9,87.1z"/>
		<path d="M135.6,82.8h0.8l0.1,1.4h0c0.6-0.9,1.5-1.5,2.6-1.5c0.4,0,0.8,0.1,1.2,0.2l-0.2,0.9c-0.4-0.1-0.6-0.2-1.1-0.2
			c-0.9,0-1.7,0.4-2.4,1.7v3.4h-1V82.8z"/>
		<path d="M142,87.2c0-1.3,1.2-1.9,4.2-2.2c0-0.8-0.4-1.5-1.5-1.5c-0.8,0-1.5,0.4-2,0.7l-0.4-0.7c0.6-0.4,1.6-0.8,2.6-0.8
			c1.6,0,2.4,0.9,2.4,2.4v3.6h-0.8l-0.1-0.8h0c-0.6,0.5-1.5,0.9-2.3,0.9C142.9,88.8,142,88.2,142,87.2z M146.3,87.1v-1.5
			c-2.5,0.2-3.2,0.7-3.2,1.5c0,0.7,0.6,0.9,1.3,0.9C144.9,88,145.6,87.7,146.3,87.1z"/>
		<path d="M149.2,85.8c0-2,1.5-3.1,3.3-3.1c0.9,0,1.6,0.4,2.1,0.9l-0.5,0.6c-0.5-0.4-1-0.7-1.6-0.7c-1.3,0-2.3,0.9-2.3,2.2
			c0,1.3,0.9,2.2,2.2,2.2c0.7,0,1.3-0.3,1.8-0.7l0.4,0.6c-0.6,0.6-1.5,0.9-2.3,0.9C150.6,88.8,149.2,87.7,149.2,85.8z"/>
		<path d="M157.9,86.4v-2.8h-1.7v-0.7l1.7-0.1l0.1-1.9h0.8v1.9h2.9v0.8h-2.9v2.8c0,1,0.3,1.6,1.5,1.6c0.5,0,1-0.1,1.4-0.3l0.2,0.7
			c-0.5,0.2-1.1,0.3-1.8,0.3C158.5,88.8,157.9,87.8,157.9,86.4z"/>
		<path d="M163.5,85.7c0-1.9,1.4-3,3-3c1.7,0,2.7,1.1,2.7,2.7c0,0.2,0,0.4,0,0.6h-4.9v-0.8h4.3l-0.3,0.3c0-1.4-0.7-2.1-1.8-2.1
			c-1.1,0-2,0.8-2,2.3c0,1.5,1,2.3,2.3,2.3c0.7,0,1.2-0.2,1.8-0.6l0.4,0.6c-0.6,0.4-1.3,0.7-2.3,0.7
			C164.9,88.8,163.5,87.7,163.5,85.7z"/>
		<path d="M171.6,82.8h0.8l0.1,1.4h0c0.6-0.9,1.5-1.5,2.6-1.5c0.4,0,0.8,0.1,1.2,0.2l-0.2,0.9c-0.4-0.1-0.6-0.2-1.1-0.2
			c-0.9,0-1.7,0.4-2.4,1.7v3.4h-1V82.8z"/>
		<path d="M48.5,98.7h5.2v0.7h-5.2V98.7z"/>
		<path d="M62.4,99.1c0-2.5,1.2-4,3-4c1.8,0,3,1.5,3,4c0,2.6-1.2,4.1-3,4.1C63.7,103.2,62.4,101.7,62.4,99.1z M67.5,99.1
			c0-2-0.8-3.2-2-3.2c-1.2,0-2,1.2-2,3.2c0,2,0.8,3.2,2,3.2C66.7,102.3,67.5,101.1,67.5,99.1z"/>
		<path d="M70.8,97.2h0.8l0.1,1.4h0c0.6-0.9,1.5-1.5,2.6-1.5c0.4,0,0.8,0.1,1.2,0.2l-0.2,0.9c-0.4-0.1-0.6-0.2-1.1-0.2
			c-0.9,0-1.7,0.4-2.4,1.7v3.4h-1V97.2z"/>
		<path d="M77,100.2c0-1.9,1.3-3.1,2.6-3.1c0.7,0,1.2,0.3,1.8,0.7h0l0-1.1v-2.2h1v8.5h-0.8l-0.1-0.8h0c-0.5,0.5-1.2,0.9-1.9,0.9
			C78,103.2,77,102.1,77,100.2z M81.4,101.5v-2.9c-0.5-0.5-1-0.7-1.5-0.7c-1,0-1.8,0.9-1.8,2.2c0,1.4,0.6,2.2,1.7,2.2
			C80.3,102.4,80.8,102.1,81.4,101.5z"/>
		<path d="M84.3,100.1c0-1.9,1.4-3,3-3c1.7,0,2.7,1.1,2.7,2.7c0,0.2,0,0.4,0,0.6h-4.9v-0.8h4.3L89,99.9c0-1.4-0.7-2.1-1.8-2.1
			c-1.1,0-2,0.8-2,2.3c0,1.5,1,2.3,2.3,2.3c0.7,0,1.2-0.2,1.8-0.6l0.4,0.6c-0.6,0.4-1.3,0.7-2.3,0.7
			C85.7,103.2,84.3,102.1,84.3,100.1z"/>
		<path d="M92.4,97.2h0.8l0.1,1.4h0c0.6-0.9,1.5-1.5,2.6-1.5c0.4,0,0.8,0.1,1.2,0.2l-0.2,0.9c-0.4-0.1-0.6-0.2-1.1-0.2
			c-0.9,0-1.7,0.4-2.4,1.7v3.4h-1V97.2z"/>
		<path d="M100.5,97.9c0-0.6,0.4-1,1-1c0.5,0,1,0.4,1,1c0,0.6-0.4,1-1,1C100.9,98.9,100.5,98.5,100.5,97.9z M100.5,102.2
			c0-0.6,0.4-1,1-1c0.5,0,1,0.4,1,1c0,0.6-0.4,1-1,1C100.9,103.2,100.5,102.8,100.5,102.2z"/>
		<path d="M113.2,100.2c0-2,1.5-3.1,3.3-3.1c0.9,0,1.6,0.4,2.1,0.9l-0.5,0.6c-0.5-0.4-1-0.7-1.6-0.7c-1.3,0-2.3,0.9-2.3,2.2
			c0,1.3,0.9,2.2,2.2,2.2c0.7,0,1.3-0.3,1.8-0.7l0.4,0.6c-0.6,0.6-1.5,0.9-2.3,0.9C114.6,103.2,113.2,102.1,113.2,100.2z"/>
		<path d="M120.6,94.5h1v2.3l-0.1,1.4h0c0.6-0.6,1.3-1.1,2.2-1.1c1.4,0,2,0.8,2,2.4v3.6h-1v-3.5c0-1.1-0.4-1.6-1.3-1.6
			c-0.7,0-1.2,0.3-1.8,1v4.1h-1V94.5z"/>
		<path d="M127.6,101.6c0-1.3,1.2-1.9,4.2-2.2c0-0.8-0.4-1.5-1.5-1.5c-0.8,0-1.5,0.4-2,0.7l-0.4-0.7c0.6-0.4,1.6-0.8,2.6-0.8
			c1.6,0,2.4,0.9,2.4,2.4v3.6H132l-0.1-0.8h0c-0.6,0.5-1.5,0.9-2.3,0.9C128.5,103.2,127.6,102.6,127.6,101.6z M131.9,101.5V100
			c-2.5,0.2-3.2,0.7-3.2,1.5c0,0.7,0.6,0.9,1.3,0.9C130.5,102.4,131.2,102.1,131.9,101.5z"/>
		<path d="M135.6,97.2h0.8l0.1,1.4h0c0.6-0.9,1.5-1.5,2.6-1.5c0.4,0,0.8,0.1,1.2,0.2l-0.2,0.9c-0.4-0.1-0.6-0.2-1.1-0.2
			c-0.9,0-1.7,0.4-2.4,1.7v3.4h-1V97.2z"/>
		<path d="M142,101.6c0-1.3,1.2-1.9,4.2-2.2c0-0.8-0.4-1.5-1.5-1.5c-0.8,0-1.5,0.4-2,0.7l-0.4-0.7c0.6-0.4,1.6-0.8,2.6-0.8
			c1.6,0,2.4,0.9,2.4,2.4v3.6h-0.8l-0.1-0.8h0c-0.6,0.5-1.5,0.9-2.3,0.9C142.9,103.2,142,102.6,142,101.6z M146.3,101.5V100
			c-2.5,0.2-3.2,0.7-3.2,1.5c0,0.7,0.6,0.9,1.3,0.9C144.9,102.4,145.6,102.1,146.3,101.5z"/>
		<path d="M149.2,100.2c0-2,1.5-3.1,3.3-3.1c0.9,0,1.6,0.4,2.1,0.9l-0.5,0.6c-0.5-0.4-1-0.7-1.6-0.7c-1.3,0-2.3,0.9-2.3,2.2
			c0,1.3,0.9,2.2,2.2,2.2c0.7,0,1.3-0.3,1.8-0.7l0.4,0.6c-0.6,0.6-1.5,0.9-2.3,0.9C150.6,103.2,149.2,102.1,149.2,100.2z"/>
		<path d="M157.9,100.8V98h-1.7v-0.7l1.7-0.1l0.1-1.9h0.8v1.9h2.9V98h-2.9v2.8c0,1,0.3,1.6,1.5,1.6c0.5,0,1-0.1,1.4-0.3l0.2,0.7
			c-0.5,0.2-1.1,0.3-1.8,0.3C158.5,103.2,157.9,102.2,157.9,100.8z"/>
		<path d="M163.5,100.1c0-1.9,1.4-3,3-3c1.7,0,2.7,1.1,2.7,2.7c0,0.2,0,0.4,0,0.6h-4.9v-0.8h4.3l-0.3,0.3c0-1.4-0.7-2.1-1.8-2.1
			c-1.1,0-2,0.8-2,2.3c0,1.5,1,2.3,2.3,2.3c0.7,0,1.2-0.2,1.8-0.6l0.4,0.6c-0.6,0.4-1.3,0.7-2.3,0.7
			C164.9,103.2,163.5,102.1,163.5,100.1z"/>
		<path d="M171.6,97.2h0.8l0.1,1.4h0c0.6-0.9,1.5-1.5,2.6-1.5c0.4,0,0.8,0.1,1.2,0.2l-0.2,0.9c-0.4-0.1-0.6-0.2-1.1-0.2
			c-0.9,0-1.7,0.4-2.4,1.7v3.4h-1V97.2z"/>
		<path d="M48.5,113.1h5.2v0.7h-5.2V113.1z"/>
		<path d="M63.5,109.6h4.8v0.9h-3.8v2.7h3.2v0.9h-3.2v3.5h-1V109.6z"/>
		<path d="M70,116c0-1.3,1.2-1.9,4.2-2.2c0-0.8-0.4-1.5-1.5-1.5c-0.8,0-1.5,0.4-2,0.7l-0.4-0.7c0.6-0.4,1.6-0.8,2.6-0.8
			c1.6,0,2.4,0.9,2.4,2.4v3.6h-0.8l-0.1-0.8h0c-0.6,0.5-1.5,0.9-2.3,0.9C70.9,117.6,70,117,70,116z M74.3,115.9v-1.5
			c-2.5,0.2-3.3,0.7-3.3,1.5c0,0.7,0.6,0.9,1.3,0.9C72.9,116.8,73.6,116.5,74.3,115.9z"/>
		<path d="M77,111.6h0.8l0.1,0.8h0c0.3-0.5,0.7-0.9,1.3-0.9c0.6,0,0.9,0.3,1.1,1c0.3-0.6,0.7-1,1.4-1c0.8,0,1.3,0.6,1.3,1.8v4.2h-1
			v-4.1c0-0.7-0.2-1-0.6-1c-0.4,0-0.6,0.3-0.9,0.9v4.2h-0.9v-4.1c0-0.7-0.2-1-0.6-1c-0.4,0-0.7,0.3-1,0.9v4.2h-1V111.6z"/>
		<path d="M87.3,112.4h-2.7v-0.8h3.7v5.8h-1V112.4z M86.9,109.6c0-0.5,0.3-0.8,0.8-0.8c0.5,0,0.8,0.3,0.8,0.8c0,0.5-0.3,0.8-0.8,0.8
			C87.2,110.4,86.9,110.1,86.9,109.6z"/>
		<path d="M93.6,115.5v-5.8h-2.1v-0.8h3.1v6.7c0,0.8,0.5,1.2,1.2,1.2c0.3,0,0.7-0.1,1.1-0.3l0.3,0.7c-0.5,0.2-0.9,0.3-1.6,0.3
			C94.3,117.6,93.6,116.9,93.6,115.5z"/>
		<path d="M98.7,119.9l0.2-0.8c0.2,0,0.3,0.1,0.5,0.1c0.8,0,1.3-0.5,1.6-1.2l0.2-0.4l-2.7-5.8h1l1.4,3.2c0.2,0.5,0.5,1.1,0.7,1.7h0
			c0.2-0.6,0.4-1.2,0.6-1.7l1.3-3.2h1l-2.6,6.3c-0.4,1.2-1.1,2-2.5,2C99.2,120,98.9,119.9,98.7,119.9z"/>
		<path d="M107.7,112.3c0-0.6,0.4-1,1-1c0.5,0,1,0.4,1,1c0,0.6-0.4,1-1,1C108.1,113.3,107.7,112.9,107.7,112.3z M107.7,116.6
			c0-0.6,0.4-1,1-1c0.5,0,1,0.4,1,1c0,0.6-0.4,1-1,1C108.1,117.6,107.7,117.2,107.7,116.6z"/>
		<path d="M120.4,114.6c0-2,1.5-3.1,3.2-3.1c0.9,0,1.6,0.4,2.1,0.9l-0.5,0.6c-0.5-0.4-1-0.7-1.6-0.7c-1.3,0-2.3,0.9-2.3,2.2
			c0,1.3,0.9,2.2,2.2,2.2c0.7,0,1.3-0.3,1.8-0.7l0.4,0.6c-0.6,0.6-1.5,0.9-2.3,0.9C121.8,117.6,120.4,116.5,120.4,114.6z"/>
		<path d="M127.8,108.9h1v2.3l-0.1,1.4h0c0.6-0.6,1.3-1.1,2.2-1.1c1.4,0,2,0.8,2,2.4v3.6h-1V114c0-1.1-0.4-1.6-1.3-1.6
			c-0.7,0-1.2,0.3-1.8,1v4.1h-1V108.9z"/>
		<path d="M134.8,116c0-1.3,1.2-1.9,4.2-2.2c0-0.8-0.4-1.5-1.5-1.5c-0.8,0-1.5,0.4-2,0.7l-0.4-0.7c0.6-0.4,1.6-0.8,2.6-0.8
			c1.6,0,2.4,0.9,2.4,2.4v3.6h-0.8l-0.1-0.8h0c-0.6,0.5-1.5,0.9-2.3,0.9C135.7,117.6,134.8,117,134.8,116z M139.1,115.9v-1.5
			c-2.5,0.2-3.2,0.7-3.2,1.5c0,0.7,0.6,0.9,1.3,0.9C137.7,116.8,138.4,116.5,139.1,115.9z"/>
		<path d="M142.8,111.6h0.8l0.1,1.4h0c0.6-0.9,1.5-1.5,2.6-1.5c0.4,0,0.8,0.1,1.2,0.2l-0.2,0.9c-0.4-0.1-0.6-0.2-1.1-0.2
			c-0.9,0-1.7,0.4-2.4,1.7v3.4h-1V111.6z"/>
		<path d="M149.2,116c0-1.3,1.2-1.9,4.2-2.2c0-0.8-0.4-1.5-1.5-1.5c-0.8,0-1.5,0.4-2,0.7l-0.4-0.7c0.6-0.4,1.6-0.8,2.6-0.8
			c1.6,0,2.4,0.9,2.4,2.4v3.6h-0.8l-0.1-0.8h0c-0.6,0.5-1.5,0.9-2.3,0.9C150.1,117.6,149.2,117,149.2,116z M153.5,115.9v-1.5
			c-2.5,0.2-3.2,0.7-3.2,1.5c0,0.7,0.6,0.9,1.3,0.9C152.1,116.8,152.8,116.5,153.5,115.9z"/>
		<path d="M156.4,114.6c0-2,1.5-3.1,3.3-3.1c0.9,0,1.6,0.4,2.1,0.9l-0.5,0.6c-0.5-0.4-1-0.7-1.6-0.7c-1.3,0-2.3,0.9-2.3,2.2
			c0,1.3,0.9,2.2,2.2,2.2c0.7,0,1.3-0.3,1.8-0.7l0.4,0.6c-0.6,0.6-1.5,0.9-2.3,0.9C157.8,117.6,156.4,116.5,156.4,114.6z"/>
		<path d="M165.1,115.2v-2.8h-1.7v-0.7l1.7-0.1l0.1-1.9h0.8v1.9h2.9v0.8h-2.9v2.8c0,1,0.3,1.6,1.5,1.6c0.5,0,1-0.1,1.4-0.3l0.2,0.7
			c-0.5,0.2-1.1,0.3-1.8,0.3C165.7,117.6,165.1,116.6,165.1,115.2z"/>
		<path d="M170.7,114.5c0-1.9,1.4-3,3-3c1.7,0,2.7,1.1,2.7,2.7c0,0.2,0,0.4,0,0.6h-4.9v-0.8h4.3l-0.3,0.3c0-1.4-0.7-2.1-1.8-2.1
			c-1.1,0-2,0.8-2,2.3c0,1.5,1,2.3,2.3,2.3c0.7,0,1.2-0.2,1.8-0.6l0.4,0.6c-0.6,0.4-1.3,0.7-2.3,0.7
			C172.1,117.6,170.7,116.5,170.7,114.5z"/>
		<path d="M178.8,111.6h0.8l0.1,1.4h0c0.6-0.9,1.5-1.5,2.6-1.5c0.4,0,0.8,0.1,1.2,0.2l-0.2,0.9c-0.4-0.1-0.6-0.2-1.1-0.2
			c-0.9,0-1.7,0.4-2.4,1.7v3.4h-1V111.6z"/>
		<path d="M48.5,127.5h5.2v0.7h-5.2V127.5z"/>
		<path d="M62.5,127.9c0-2.5,1.5-4.1,3.5-4.1c1,0,1.7,0.5,2.2,1l-0.6,0.6c-0.4-0.4-0.8-0.7-1.6-0.7c-1.5,0-2.4,1.2-2.4,3.2
			c0,2,0.9,3.2,2.4,3.2c0.6,0,1.1-0.2,1.4-0.5v-2.1h-1.6v-0.8h2.5v3.3c-0.5,0.5-1.3,0.9-2.4,0.9C63.9,132,62.5,130.5,62.5,127.9z"/>
		<path d="M69.9,128.9c0-1.9,1.4-3,3-3c1.7,0,2.7,1.1,2.7,2.7c0,0.2,0,0.4,0,0.6h-4.9v-0.8h4.3l-0.3,0.3c0-1.4-0.7-2.1-1.8-2.1
			c-1.1,0-2,0.8-2,2.3c0,1.5,1,2.3,2.3,2.3c0.7,0,1.2-0.2,1.8-0.6l0.4,0.6c-0.6,0.4-1.3,0.7-2.3,0.7C71.3,132,69.9,130.9,69.9,128.9
			z"/>
		<path d="M77.4,126h0.8l0.1,1h0c0.6-0.6,1.3-1.1,2.2-1.1c1.4,0,2,0.8,2,2.4v3.6h-1v-3.5c0-1.1-0.4-1.6-1.3-1.6
			c-0.7,0-1.2,0.3-1.8,1v4.1h-1V126z"/>
		<path d="M84.4,129.7V126h1v3.5c0,1.1,0.4,1.6,1.3,1.6c0.7,0,1.2-0.3,1.8-1.1v-4h1v5.8h-0.8l-0.1-1h0c-0.6,0.7-1.3,1.2-2.2,1.2
			C85,132,84.4,131.2,84.4,129.7z"/>
		<path d="M91.5,131.1l0.5-0.7c0.7,0.5,1.5,0.8,2.5,0.8c1,0,1.5-0.4,1.5-0.9c0-0.4-0.2-0.8-1.8-1.1c-1.5-0.3-2.3-0.8-2.3-1.7
			c0-0.9,0.8-1.7,2.4-1.7c0.9,0,1.8,0.3,2.4,0.7l-0.5,0.6c-0.5-0.4-1.2-0.6-2-0.6c-1,0-1.3,0.4-1.3,0.8c0,0.5,0.5,0.7,1.7,1
			c1.9,0.4,2.4,0.9,2.4,1.8c0,0.9-0.9,1.7-2.6,1.7C93.3,132,92.2,131.6,91.5,131.1z"/>
		<path d="M100.5,126.7c0-0.6,0.4-1,1-1c0.5,0,1,0.4,1,1c0,0.6-0.4,1-1,1C100.9,127.7,100.5,127.3,100.5,126.7z M100.5,131
			c0-0.6,0.4-1,1-1c0.5,0,1,0.4,1,1c0,0.6-0.4,1-1,1C100.9,132,100.5,131.6,100.5,131z"/>
		<path d="M113.2,129c0-2,1.5-3.1,3.3-3.1c0.9,0,1.6,0.4,2.1,0.9l-0.5,0.6c-0.5-0.4-1-0.7-1.6-0.7c-1.3,0-2.3,0.9-2.3,2.2
			c0,1.3,0.9,2.2,2.2,2.2c0.7,0,1.3-0.3,1.8-0.7l0.4,0.6c-0.6,0.6-1.5,0.9-2.3,0.9C114.6,132,113.2,130.9,113.2,129z"/>
		<path d="M120.6,123.3h1v2.3l-0.1,1.4h0c0.6-0.6,1.3-1.1,2.2-1.1c1.4,0,2,0.8,2,2.4v3.6h-1v-3.5c0-1.1-0.4-1.6-1.3-1.6
			c-0.7,0-1.2,0.3-1.8,1v4.1h-1V123.3z"/>
		<path d="M127.6,130.4c0-1.3,1.2-1.9,4.2-2.2c0-0.8-0.4-1.5-1.5-1.5c-0.8,0-1.5,0.4-2,0.7l-0.4-0.7c0.6-0.4,1.6-0.8,2.6-0.8
			c1.6,0,2.4,0.9,2.4,2.4v3.6H132l-0.1-0.8h0c-0.6,0.5-1.5,0.9-2.3,0.9C128.5,132,127.6,131.4,127.6,130.4z M131.9,130.3v-1.5
			c-2.5,0.2-3.2,0.7-3.2,1.5c0,0.7,0.6,0.9,1.3,0.9C130.5,131.2,131.2,130.9,131.9,130.3z"/>
		<path d="M135.6,126h0.8l0.1,1.4h0c0.6-0.9,1.5-1.5,2.6-1.5c0.4,0,0.8,0.1,1.2,0.2l-0.2,0.9c-0.4-0.1-0.6-0.2-1.1-0.2
			c-0.9,0-1.7,0.4-2.4,1.7v3.4h-1V126z"/>
		<path d="M142,130.4c0-1.3,1.2-1.9,4.2-2.2c0-0.8-0.4-1.5-1.5-1.5c-0.8,0-1.5,0.4-2,0.7l-0.4-0.7c0.6-0.4,1.6-0.8,2.6-0.8
			c1.6,0,2.4,0.9,2.4,2.4v3.6h-0.8l-0.1-0.8h0c-0.6,0.5-1.5,0.9-2.3,0.9C142.9,132,142,131.4,142,130.4z M146.3,130.3v-1.5
			c-2.5,0.2-3.2,0.7-3.2,1.5c0,0.7,0.6,0.9,1.3,0.9C144.9,131.2,145.6,130.9,146.3,130.3z"/>
		<path d="M149.2,129c0-2,1.5-3.1,3.3-3.1c0.9,0,1.6,0.4,2.1,0.9l-0.5,0.6c-0.5-0.4-1-0.7-1.6-0.7c-1.3,0-2.3,0.9-2.3,2.2
			c0,1.3,0.9,2.2,2.2,2.2c0.7,0,1.3-0.3,1.8-0.7l0.4,0.6c-0.6,0.6-1.5,0.9-2.3,0.9C150.6,132,149.2,130.9,149.2,129z"/>
		<path d="M157.9,129.6v-2.8h-1.7v-0.7l1.7-0.1l0.1-1.9h0.8v1.9h2.9v0.8h-2.9v2.8c0,1,0.3,1.6,1.5,1.6c0.5,0,1-0.1,1.4-0.3l0.2,0.7
			c-0.5,0.2-1.1,0.3-1.8,0.3C158.5,132,157.9,131,157.9,129.6z"/>
		<path d="M163.5,128.9c0-1.9,1.4-3,3-3c1.7,0,2.7,1.1,2.7,2.7c0,0.2,0,0.4,0,0.6h-4.9v-0.8h4.3l-0.3,0.3c0-1.4-0.7-2.1-1.8-2.1
			c-1.1,0-2,0.8-2,2.3c0,1.5,1,2.3,2.3,2.3c0.7,0,1.2-0.2,1.8-0.6l0.4,0.6c-0.6,0.4-1.3,0.7-2.3,0.7
			C164.9,132,163.5,130.9,163.5,128.9z"/>
		<path d="M171.6,126h0.8l0.1,1.4h0c0.6-0.9,1.5-1.5,2.6-1.5c0.4,0,0.8,0.1,1.2,0.2l-0.2,0.9c-0.4-0.1-0.6-0.2-1.1-0.2
			c-0.9,0-1.7,0.4-2.4,1.7v3.4h-1V126z"/>
		<path d="M48.5,141.9h5.2v0.7h-5.2V141.9z"/>
		<path d="M62.7,145.2l0.6-0.7c0.6,0.6,1.4,1,2.3,1c1.1,0,1.7-0.5,1.7-1.2c0-0.8-0.6-1.1-1.4-1.4l-1.1-0.5c-0.8-0.3-1.7-0.9-1.7-2
			c0-1.2,1.1-2.1,2.6-2.1c1,0,1.8,0.4,2.4,1l-0.5,0.6c-0.5-0.5-1.1-0.7-1.9-0.7c-0.9,0-1.5,0.4-1.5,1.1c0,0.8,0.7,1,1.4,1.3l1.1,0.5
			c1,0.4,1.7,0.9,1.7,2.1c0,1.2-1.1,2.2-2.8,2.2C64.4,146.4,63.4,146,62.7,145.2z"/>
		<path d="M70.2,140.4H71l0.1,0.7h0c0.5-0.5,1.3-0.9,2-0.9c1.6,0,2.4,1.2,2.4,3c0,2-1.2,3.1-2.7,3.1c-0.5,0-1.2-0.3-1.7-0.8h0l0,1.1
			v2h-1V140.4z M74.5,143.3c0-1.3-0.5-2.1-1.6-2.1c-0.5,0-1.1,0.3-1.7,0.9v2.9c0.5,0.5,1.2,0.7,1.5,0.7
			C73.8,145.6,74.5,144.7,74.5,143.3z"/>
		<path d="M77.1,143.3c0-1.9,1.4-3,3-3c1.7,0,2.7,1.1,2.7,2.7c0,0.2,0,0.4,0,0.6h-4.9v-0.8h4.3l-0.3,0.3c0-1.4-0.7-2.1-1.8-2.1
			c-1.1,0-2,0.8-2,2.3c0,1.5,1,2.3,2.3,2.3c0.7,0,1.2-0.2,1.8-0.6l0.4,0.6c-0.6,0.4-1.3,0.7-2.3,0.7
			C78.5,146.4,77.1,145.3,77.1,143.3z"/>
		<path d="M84.4,143.4c0-2,1.5-3.1,3.2-3.1c0.9,0,1.6,0.4,2.1,0.9l-0.5,0.6c-0.5-0.4-1-0.7-1.6-0.7c-1.3,0-2.3,0.9-2.3,2.2
			c0,1.3,0.9,2.2,2.2,2.2c0.7,0,1.3-0.3,1.8-0.7l0.4,0.6c-0.6,0.6-1.5,0.9-2.3,0.9C85.8,146.4,84.4,145.3,84.4,143.4z"/>
		<path d="M94.5,141.2h-2.7v-0.8h3.7v5.8h-1V141.2z M94.1,138.4c0-0.5,0.3-0.8,0.8-0.8c0.5,0,0.8,0.3,0.8,0.8c0,0.5-0.3,0.8-0.8,0.8
			C94.4,139.2,94.1,138.9,94.1,138.4z"/>
		<path d="M98.7,143.3c0-1.9,1.4-3,3-3c1.7,0,2.7,1.1,2.7,2.7c0,0.2,0,0.4,0,0.6h-4.9v-0.8h4.3l-0.3,0.3c0-1.4-0.7-2.1-1.8-2.1
			c-1.1,0-2,0.8-2,2.3c0,1.5,1,2.3,2.3,2.3c0.7,0,1.2-0.2,1.8-0.6l0.4,0.6c-0.6,0.4-1.3,0.7-2.3,0.7
			C100.1,146.4,98.7,145.3,98.7,143.3z"/>
		<path d="M105.9,145.5l0.5-0.7c0.7,0.5,1.5,0.8,2.5,0.8c1,0,1.5-0.4,1.5-0.9c0-0.4-0.2-0.8-1.8-1.1c-1.5-0.3-2.3-0.8-2.3-1.7
			c0-0.9,0.8-1.7,2.4-1.7c0.9,0,1.8,0.3,2.4,0.7l-0.5,0.6c-0.5-0.4-1.2-0.6-2-0.6c-1,0-1.3,0.4-1.3,0.8c0,0.5,0.5,0.7,1.7,1
			c1.9,0.4,2.4,0.9,2.4,1.8c0,0.9-0.9,1.7-2.6,1.7C107.7,146.4,106.6,146,105.9,145.5z"/>
		<path d="M114.9,141.1c0-0.6,0.4-1,1-1c0.5,0,1,0.4,1,1c0,0.6-0.4,1-1,1C115.3,142.1,114.9,141.7,114.9,141.1z M114.9,145.4
			c0-0.6,0.4-1,1-1c0.5,0,1,0.4,1,1c0,0.6-0.4,1-1,1C115.3,146.4,114.9,146,114.9,145.4z"/>
		<path d="M127.6,143.4c0-2,1.5-3.1,3.3-3.1c0.9,0,1.6,0.4,2.1,0.9l-0.5,0.6c-0.5-0.4-1-0.7-1.6-0.7c-1.3,0-2.3,0.9-2.3,2.2
			c0,1.3,0.9,2.2,2.2,2.2c0.7,0,1.3-0.3,1.8-0.7l0.4,0.6c-0.6,0.6-1.5,0.9-2.3,0.9C129,146.4,127.6,145.3,127.6,143.4z"/>
		<path d="M135,137.7h1v2.3l-0.1,1.4h0c0.6-0.6,1.3-1.1,2.2-1.1c1.4,0,2,0.8,2,2.4v3.6h-1v-3.5c0-1.1-0.4-1.6-1.3-1.6
			c-0.7,0-1.2,0.3-1.8,1v4.1h-1V137.7z"/>
		<path d="M142,144.8c0-1.3,1.2-1.9,4.2-2.2c0-0.8-0.4-1.5-1.5-1.5c-0.8,0-1.5,0.4-2,0.7l-0.4-0.7c0.6-0.4,1.6-0.8,2.6-0.8
			c1.6,0,2.4,0.9,2.4,2.4v3.6h-0.8l-0.1-0.8h0c-0.6,0.5-1.5,0.9-2.3,0.9C142.9,146.4,142,145.8,142,144.8z M146.3,144.7v-1.5
			c-2.5,0.2-3.2,0.7-3.2,1.5c0,0.7,0.6,0.9,1.3,0.9C144.9,145.6,145.6,145.3,146.3,144.7z"/>
		<path d="M150,140.4h0.8l0.1,1.4h0c0.6-0.9,1.5-1.5,2.6-1.5c0.4,0,0.8,0.1,1.2,0.2l-0.2,0.9c-0.4-0.1-0.6-0.2-1.1-0.2
			c-0.9,0-1.7,0.4-2.4,1.7v3.4h-1V140.4z"/>
		<path d="M156.4,144.8c0-1.3,1.2-1.9,4.2-2.2c0-0.8-0.4-1.5-1.5-1.5c-0.8,0-1.5,0.4-2,0.7l-0.4-0.7c0.6-0.4,1.6-0.8,2.6-0.8
			c1.6,0,2.4,0.9,2.4,2.4v3.6h-0.8l-0.1-0.8h0c-0.6,0.5-1.5,0.9-2.3,0.9C157.3,146.4,156.4,145.8,156.4,144.8z M160.7,144.7v-1.5
			c-2.5,0.2-3.2,0.7-3.2,1.5c0,0.7,0.6,0.9,1.3,0.9C159.3,145.6,160,145.3,160.7,144.7z"/>
		<path d="M163.6,143.4c0-2,1.5-3.1,3.2-3.1c0.9,0,1.6,0.4,2.1,0.9l-0.5,0.6c-0.5-0.4-1-0.7-1.6-0.7c-1.3,0-2.3,0.9-2.3,2.2
			c0,1.3,0.9,2.2,2.2,2.2c0.7,0,1.3-0.3,1.8-0.7l0.4,0.6c-0.6,0.6-1.5,0.9-2.3,0.9C165,146.4,163.6,145.3,163.6,143.4z"/>
		<path d="M172.3,144v-2.8h-1.7v-0.7l1.7-0.1l0.1-1.9h0.8v1.9h2.9v0.8h-2.9v2.8c0,1,0.3,1.6,1.5,1.6c0.5,0,1-0.1,1.4-0.3l0.2,0.7
			c-0.5,0.2-1.1,0.3-1.8,0.3C172.9,146.4,172.3,145.4,172.3,144z"/>
		<path d="M177.9,143.3c0-1.9,1.4-3,3-3c1.7,0,2.7,1.1,2.7,2.7c0,0.2,0,0.4,0,0.6h-4.9v-0.8h4.3l-0.3,0.3c0-1.4-0.7-2.1-1.8-2.1
			c-1.1,0-2,0.8-2,2.3c0,1.5,1,2.3,2.3,2.3c0.7,0,1.2-0.2,1.8-0.6l0.4,0.6c-0.6,0.4-1.3,0.7-2.3,0.7
			C179.3,146.4,177.9,145.3,177.9,143.3z"/>
		<path d="M186,140.4h0.8l0.1,1.4h0c0.6-0.9,1.5-1.5,2.6-1.5c0.4,0,0.8,0.1,1.2,0.2l-0.2,0.9c-0.4-0.1-0.6-0.2-1.1-0.2
			c-0.9,0-1.7,0.4-2.4,1.7v3.4h-1V140.4z"/>
		<path class="st3" d="M48.5,156.3h5.2v0.7h-5.2V156.3z"/>
		<path class="st3" d="M62,152.8h1.1l0.6,4.9c0.1,0.7,0.1,1,0.2,1.8h0c0.1-0.8,0.2-1.2,0.4-1.8l0.8-2.9h1l0.7,2.9
			c0.2,0.6,0.2,1,0.4,1.8h0c0-0.8,0.1-1.2,0.1-1.8l0.6-5h1.1l-1.2,7.9h-1.2l-0.8-3.2c-0.1-0.5-0.2-0.9-0.3-1.4h0
			c-0.1,0.5-0.2,0.9-0.3,1.4l-0.8,3.2h-1.2L62,152.8z"/>
		<path class="st3" d="M72.9,155.6h-2.7v-0.8h3.7v5.8h-1V155.6z M72.5,152.8c0-0.5,0.3-0.8,0.8-0.8c0.5,0,0.8,0.3,0.8,0.8
			c0,0.5-0.3,0.8-0.8,0.8C72.8,153.6,72.5,153.3,72.5,152.8z"/>
		<path class="st3" d="M77.4,154.8h0.8l0.1,1h0c0.6-0.6,1.3-1.1,2.2-1.1c1.4,0,2,0.8,2,2.4v3.6h-1v-3.5c0-1.1-0.4-1.6-1.3-1.6
			c-0.7,0-1.2,0.3-1.8,1v4.1h-1V154.8z"/>
		<path class="st3" d="M84.3,161.7c0-0.5,0.3-0.9,1-1.3v0c-0.3-0.2-0.6-0.5-0.6-1c0-0.4,0.3-0.8,0.7-1.1v0c-0.4-0.3-0.7-0.8-0.7-1.5
			c0-1.3,1.1-2.1,2.3-2.1c0.3,0,0.6,0,0.9,0.1h2.4v0.8h-1.5c0.3,0.3,0.5,0.7,0.5,1.2c0,1.2-1,2-2.3,2c-0.3,0-0.7-0.1-1-0.2
			c-0.3,0.2-0.5,0.4-0.5,0.7c0,0.5,0.4,0.7,1.2,0.7H88c1.5,0,2.2,0.4,2.2,1.4c0,1.1-1.3,2-3.2,2C85.3,163.4,84.3,162.8,84.3,161.7z
			 M89.3,161.5c0-0.6-0.4-0.7-1.3-0.7h-1.1c-0.3,0-0.6,0-0.9-0.1c-0.6,0.3-0.7,0.6-0.7,1c0,0.6,0.7,1,1.9,1
			C88.4,162.6,89.3,162.1,89.3,161.5z M88.3,156.8c0-0.8-0.6-1.4-1.3-1.4c-0.7,0-1.3,0.6-1.3,1.4c0,0.8,0.6,1.4,1.3,1.4
			C87.7,158.2,88.3,157.6,88.3,156.8z"/>
		<path class="st3" d="M91.5,159.9l0.5-0.7c0.7,0.5,1.5,0.8,2.5,0.8c1,0,1.5-0.4,1.5-0.9c0-0.4-0.2-0.8-1.8-1.1
			c-1.5-0.3-2.3-0.8-2.3-1.7c0-0.9,0.8-1.7,2.4-1.7c0.9,0,1.8,0.3,2.4,0.7l-0.5,0.6c-0.5-0.4-1.2-0.6-2-0.6c-1,0-1.3,0.4-1.3,0.8
			c0,0.5,0.5,0.7,1.7,1c1.9,0.4,2.4,0.9,2.4,1.8c0,0.9-0.9,1.7-2.6,1.7C93.3,160.8,92.2,160.4,91.5,159.9z"/>
		<path class="st3" d="M100.5,155.5c0-0.6,0.4-1,1-1c0.5,0,1,0.4,1,1c0,0.6-0.4,1-1,1C100.9,156.5,100.5,156.1,100.5,155.5z
			 M100.5,159.8c0-0.6,0.4-1,1-1c0.5,0,1,0.4,1,1c0,0.6-0.4,1-1,1C100.9,160.8,100.5,160.4,100.5,159.8z"/>
		<path class="st3" d="M116.1,155.6h-2.7v-0.8h3.7v5.8h-1V155.6z M115.7,152.8c0-0.5,0.3-0.8,0.8-0.8s0.8,0.3,0.8,0.8
			c0,0.5-0.3,0.8-0.8,0.8S115.7,153.3,115.7,152.8z"/>
		<path class="st3" d="M120.6,154.8h0.8l0.1,1h0c0.6-0.6,1.3-1.1,2.2-1.1c1.4,0,2,0.8,2,2.4v3.6h-1v-3.5c0-1.1-0.4-1.6-1.3-1.6
			c-0.7,0-1.2,0.3-1.8,1v4.1h-1V154.8z"/>
		<path class="st3" d="M129.1,158.4v-2.8h-1.7v-0.7l1.7-0.1l0.1-1.9h0.8v1.9h2.9v0.8h-2.9v2.8c0,1,0.3,1.6,1.5,1.6
			c0.5,0,1-0.1,1.4-0.3l0.2,0.7c-0.5,0.2-1.1,0.3-1.8,0.3C129.7,160.8,129.1,159.8,129.1,158.4z"/>
		<path class="st3" d="M134.7,157.7c0-1.9,1.4-3,3-3c1.7,0,2.7,1.1,2.7,2.7c0,0.2,0,0.4,0,0.6h-4.9v-0.8h4.3l-0.3,0.3
			c0-1.4-0.7-2.1-1.8-2.1c-1.1,0-2,0.8-2,2.3c0,1.5,1,2.3,2.3,2.3c0.7,0,1.2-0.2,1.8-0.6l0.4,0.6c-0.6,0.4-1.3,0.7-2.3,0.7
			C136.1,160.8,134.7,159.7,134.7,157.7z"/>
		<path class="st3" d="M141.9,161.7c0-0.5,0.3-0.9,1-1.3v0c-0.3-0.2-0.6-0.5-0.6-1c0-0.4,0.3-0.8,0.7-1.1v0
			c-0.4-0.3-0.7-0.8-0.7-1.5c0-1.3,1.1-2.1,2.3-2.1c0.3,0,0.6,0,0.9,0.1h2.4v0.8h-1.5c0.3,0.3,0.5,0.7,0.5,1.2c0,1.2-1,2-2.3,2
			c-0.3,0-0.7-0.1-1-0.2c-0.3,0.2-0.5,0.4-0.5,0.7c0,0.5,0.4,0.7,1.2,0.7h1.3c1.5,0,2.2,0.4,2.2,1.4c0,1.1-1.3,2-3.2,2
			C142.9,163.4,141.9,162.8,141.9,161.7z M146.9,161.5c0-0.6-0.4-0.7-1.3-0.7h-1.1c-0.3,0-0.6,0-0.9-0.1c-0.6,0.3-0.7,0.6-0.7,1
			c0,0.6,0.7,1,1.9,1C146,162.6,146.9,162.1,146.9,161.5z M145.9,156.8c0-0.8-0.6-1.4-1.3-1.4c-0.7,0-1.3,0.6-1.3,1.4
			c0,0.8,0.6,1.4,1.3,1.4C145.3,158.2,145.9,157.6,145.9,156.8z"/>
		<path class="st3" d="M149.1,157.7c0-1.9,1.4-3,3-3c1.7,0,2.7,1.1,2.7,2.7c0,0.2,0,0.4,0,0.6h-4.9v-0.8h4.3l-0.3,0.3
			c0-1.4-0.7-2.1-1.8-2.1c-1.1,0-2,0.8-2,2.3c0,1.5,1,2.3,2.3,2.3c0.7,0,1.2-0.2,1.8-0.6l0.4,0.6c-0.6,0.4-1.3,0.7-2.3,0.7
			C150.5,160.8,149.1,159.7,149.1,157.7z"/>
		<path class="st3" d="M157.2,154.8h0.8l0.1,1.4h0c0.6-0.9,1.5-1.5,2.6-1.5c0.4,0,0.8,0.1,1.2,0.2l-0.2,0.9
			c-0.4-0.1-0.6-0.2-1.1-0.2c-0.9,0-1.7,0.4-2.4,1.7v3.4h-1V154.8z"/>
		<path class="st3" d="M48.5,170.7h5.2v0.7h-5.2V170.7z"/>
		<path class="st3" d="M62.7,171.1c0-2.5,1.5-4.1,3.5-4.1c0.9,0,1.7,0.5,2.2,1l-0.6,0.6c-0.4-0.4-0.9-0.7-1.6-0.7
			c-1.5,0-2.5,1.2-2.5,3.2c0,2,1,3.2,2.5,3.2c0.7,0,1.3-0.3,1.8-0.9l0.6,0.6c-0.6,0.7-1.4,1.1-2.4,1.1
			C64.1,175.2,62.7,173.7,62.7,171.1z"/>
		<path class="st3" d="M72,173.1v-5.8H70v-0.8H73v6.7c0,0.8,0.5,1.2,1.2,1.2c0.3,0,0.7-0.1,1.1-0.3l0.3,0.7
			c-0.5,0.2-0.9,0.3-1.6,0.3C72.7,175.2,72,174.5,72,173.1z"/>
		<path class="st3" d="M77.2,173.6c0-1.3,1.2-1.9,4.2-2.2c0-0.8-0.4-1.5-1.5-1.5c-0.8,0-1.5,0.4-2,0.7l-0.4-0.7
			c0.6-0.4,1.6-0.8,2.6-0.8c1.6,0,2.4,0.9,2.4,2.4v3.6h-0.8l-0.1-0.8h0c-0.6,0.5-1.5,0.9-2.3,0.9C78.1,175.2,77.2,174.6,77.2,173.6z
			 M81.5,173.5V172c-2.5,0.2-3.3,0.7-3.3,1.5c0,0.7,0.6,0.9,1.3,0.9C80.1,174.4,80.8,174.1,81.5,173.5z"/>
		<path class="st3" d="M83.6,169.2h1l0.7,3.4c0.1,0.6,0.2,1.1,0.3,1.6h0c0.1-0.6,0.2-1.1,0.3-1.6l0.7-3h1l0.7,3
			c0.1,0.6,0.3,1.1,0.4,1.6h0c0.1-0.6,0.2-1.1,0.3-1.6l0.7-3.4h0.9l-1.2,5.8h-1.3l-0.7-2.8c-0.1-0.4-0.2-1-0.3-1.7h0
			c-0.1,0.7-0.2,1.3-0.3,1.7l-0.6,2.8h-1.3L83.6,169.2z"/>
		<path class="st3" d="M91.5,174.3l0.5-0.7c0.7,0.5,1.5,0.8,2.5,0.8c1,0,1.5-0.4,1.5-0.9c0-0.4-0.2-0.8-1.8-1.1
			c-1.5-0.3-2.3-0.8-2.3-1.7c0-0.9,0.8-1.7,2.4-1.7c0.9,0,1.8,0.3,2.4,0.7l-0.5,0.6c-0.5-0.4-1.2-0.6-2-0.6c-1,0-1.3,0.4-1.3,0.8
			c0,0.5,0.5,0.7,1.7,1c1.9,0.4,2.4,0.9,2.4,1.8c0,0.9-0.9,1.7-2.6,1.7C93.3,175.2,92.2,174.8,91.5,174.3z"/>
		<path class="st3" d="M100.5,169.9c0-0.6,0.4-1,1-1c0.5,0,1,0.4,1,1c0,0.6-0.4,1-1,1C100.9,170.9,100.5,170.5,100.5,169.9z
			 M100.5,174.2c0-0.6,0.4-1,1-1c0.5,0,1,0.4,1,1c0,0.6-0.4,1-1,1C100.9,175.2,100.5,174.8,100.5,174.2z"/>
		<path class="st3" d="M115.2,173.1v-5.8h-2.1v-0.8h3.1v6.7c0,0.8,0.5,1.2,1.2,1.2c0.3,0,0.7-0.1,1.1-0.3l0.3,0.7
			c-0.5,0.2-0.9,0.3-1.6,0.3C115.9,175.2,115.2,174.5,115.2,173.1z"/>
		<path class="st3" d="M120.2,172.2c0-2,1.3-3.1,2.9-3.1s2.9,1.1,2.9,3.1c0,1.9-1.3,3-2.9,3S120.2,174.1,120.2,172.2z M124.9,172.2
			c0-1.3-0.7-2.2-1.9-2.2c-1.1,0-1.9,0.9-1.9,2.2c0,1.3,0.7,2.2,1.9,2.2C124.2,174.4,124.9,173.5,124.9,172.2z"/>
		<path class="st3" d="M127.5,176.1c0-0.5,0.3-0.9,1-1.3v0c-0.3-0.2-0.6-0.5-0.6-1c0-0.4,0.3-0.8,0.7-1.1v0
			c-0.4-0.3-0.7-0.8-0.7-1.5c0-1.3,1.1-2.1,2.3-2.1c0.3,0,0.6,0,0.9,0.1h2.4v0.8h-1.5c0.3,0.3,0.5,0.7,0.5,1.2c0,1.2-1,2-2.3,2
			c-0.3,0-0.7-0.1-1-0.2c-0.3,0.2-0.5,0.4-0.5,0.7c0,0.5,0.4,0.7,1.2,0.7h1.3c1.5,0,2.2,0.4,2.2,1.4c0,1.1-1.3,2-3.2,2
			C128.5,177.8,127.5,177.2,127.5,176.1z M132.5,175.9c0-0.6-0.4-0.7-1.3-0.7H130c-0.3,0-0.6,0-0.9-0.1c-0.6,0.3-0.7,0.6-0.7,1
			c0,0.6,0.7,1,1.9,1C131.7,177,132.5,176.5,132.5,175.9z M131.5,171.2c0-0.8-0.6-1.4-1.3-1.4c-0.7,0-1.3,0.6-1.3,1.4
			c0,0.8,0.6,1.4,1.3,1.4C130.9,172.6,131.5,172,131.5,171.2z"/>
		<path class="st3" d="M137.7,170H135v-0.8h3.7v5.8h-1V170z M137.3,167.2c0-0.5,0.3-0.8,0.8-0.8s0.8,0.3,0.8,0.8
			c0,0.5-0.3,0.8-0.8,0.8S137.3,167.7,137.3,167.2z"/>
		<path class="st3" d="M142,172.2c0-2,1.5-3.1,3.2-3.1c0.9,0,1.6,0.4,2.1,0.9l-0.5,0.6c-0.5-0.4-1-0.7-1.6-0.7
			c-1.3,0-2.3,0.9-2.3,2.2c0,1.3,0.9,2.2,2.2,2.2c0.7,0,1.3-0.3,1.8-0.7l0.4,0.6c-0.6,0.6-1.5,0.9-2.3,0.9
			C143.4,175.2,142,174.1,142,172.2z"/>
		<path class="st3" d="M149.2,173.6c0-1.3,1.2-1.9,4.2-2.2c0-0.8-0.4-1.5-1.5-1.5c-0.8,0-1.5,0.4-2,0.7l-0.4-0.7
			c0.6-0.4,1.6-0.8,2.6-0.8c1.6,0,2.4,0.9,2.4,2.4v3.6h-0.8l-0.1-0.8h0c-0.6,0.5-1.5,0.9-2.3,0.9
			C150.1,175.2,149.2,174.6,149.2,173.6z M153.5,173.5V172c-2.5,0.2-3.2,0.7-3.2,1.5c0,0.7,0.6,0.9,1.3,0.9
			C152.1,174.4,152.8,174.1,153.5,173.5z"/>
		<path class="st3" d="M158.4,173.1v-5.8h-2.1v-0.8h3.1v6.7c0,0.8,0.5,1.2,1.2,1.2c0.3,0,0.7-0.1,1.1-0.3l0.3,0.7
			c-0.5,0.2-0.9,0.3-1.6,0.3C159.1,175.2,158.4,174.5,158.4,173.1z"/>
	</g>
</g>
<rect x="31.1" y="188.6" class="st0" width="223" height="131.4"/>
<g>
	<g>
		<path d="M51,205.3h-2.2v-0.7H51v-2.3h0.8v2.3H54v0.7h-2.2v2.3H51V205.3z"/>
		<path d="M63.1,209.9c0-0.5,0.3-0.9,1-1.3v0c-0.3-0.2-0.6-0.5-0.6-1c0-0.4,0.3-0.8,0.7-1.1v0c-0.4-0.3-0.7-0.8-0.7-1.5
			c0-1.3,1.1-2.1,2.3-2.1c0.3,0,0.6,0,0.9,0.1H69v0.8h-1.5c0.3,0.3,0.5,0.7,0.5,1.2c0,1.2-1,2-2.3,2c-0.3,0-0.7-0.1-1-0.2
			c-0.3,0.2-0.5,0.4-0.5,0.7c0,0.5,0.4,0.7,1.2,0.7h1.3c1.5,0,2.2,0.4,2.2,1.4c0,1.1-1.3,2-3.2,2C64.1,211.5,63.1,211,63.1,209.9z
			 M68.1,209.7c0-0.6-0.4-0.7-1.3-0.7h-1.1c-0.3,0-0.6,0-0.9-0.1c-0.6,0.3-0.7,0.6-0.7,1c0,0.6,0.7,1,1.9,1
			C67.2,210.8,68.1,210.3,68.1,209.7z M67.1,205c0-0.8-0.6-1.4-1.3-1.4c-0.7,0-1.3,0.6-1.3,1.4c0,0.8,0.6,1.4,1.3,1.4
			C66.5,206.4,67.1,205.8,67.1,205z"/>
		<path d="M70.3,205.9c0-1.9,1.4-3,3-3c1.7,0,2.7,1.1,2.7,2.7c0,0.2,0,0.4,0,0.6h-4.9v-0.8h4.3l-0.3,0.3c0-1.4-0.7-2.1-1.8-2.1
			c-1.1,0-2,0.8-2,2.3c0,1.5,1,2.3,2.3,2.3c0.7,0,1.2-0.2,1.8-0.6l0.4,0.6c-0.6,0.4-1.3,0.7-2.3,0.7C71.7,209,70.3,207.9,70.3,205.9
			z"/>
		<path d="M79.1,206.6v-2.8h-1.7v-0.7l1.7-0.1l0.1-1.9h0.8v1.9H83v0.8h-2.9v2.8c0,1,0.3,1.6,1.5,1.6c0.5,0,1-0.1,1.4-0.3l0.2,0.7
			c-0.5,0.2-1.1,0.3-1.8,0.3C79.7,209,79.1,208,79.1,206.6z"/>
		<path d="M84.6,209.7h5.8v0.9h-5.8V209.7z"/>
		<path d="M92.2,203H93l0.1,0.7h0c0.5-0.5,1.3-0.9,2-0.9c1.6,0,2.4,1.2,2.4,3c0,2-1.2,3.1-2.7,3.1c-0.5,0-1.2-0.3-1.7-0.8h0l0,1.1v2
			h-1V203z M96.5,205.9c0-1.3-0.5-2.1-1.6-2.1c-0.5,0-1.1,0.3-1.7,0.9v2.9c0.5,0.5,1.2,0.7,1.5,0.7
			C95.7,208.2,96.5,207.3,96.5,205.9z"/>
		<path d="M99.4,200.3h1v2.3l-0.1,1.4h0c0.6-0.6,1.3-1.1,2.2-1.1c1.4,0,2,0.8,2,2.4v3.6h-1v-3.5c0-1.1-0.4-1.6-1.3-1.6
			c-0.7,0-1.2,0.3-1.8,1v4.1h-1V200.3z"/>
		<path d="M106.2,211.2l0.2-0.8c0.2,0,0.3,0.1,0.5,0.1c0.8,0,1.3-0.5,1.6-1.2l0.2-0.4L106,203h1l1.4,3.2c0.2,0.5,0.5,1.1,0.7,1.7h0
			c0.2-0.6,0.4-1.2,0.6-1.7l1.3-3.2h1l-2.6,6.3c-0.4,1.2-1.1,2-2.5,2C106.7,211.4,106.5,211.3,106.2,211.2z"/>
		<path d="M115.6,206.9v-5.8h-2.1v-0.8h3.1v6.7c0,0.8,0.5,1.2,1.2,1.2c0.3,0,0.7-0.1,1.1-0.3l0.3,0.7c-0.5,0.2-0.9,0.3-1.6,0.3
			C116.3,209,115.6,208.3,115.6,206.9z"/>
		<path d="M120.8,206.7V203h1v3.5c0,1.1,0.4,1.6,1.3,1.6c0.7,0,1.2-0.3,1.8-1.1v-4h1v5.8h-0.8l-0.1-1h0c-0.6,0.7-1.3,1.2-2.2,1.2
			C121.4,209,120.8,208.2,120.8,206.7z"/>
		<path d="M127.7,203h0.8l0.1,0.8h0c0.3-0.5,0.7-0.9,1.3-0.9c0.6,0,0.9,0.3,1.1,1c0.3-0.6,0.7-1,1.4-1c0.8,0,1.3,0.6,1.3,1.8v4.2h-1
			v-4.1c0-0.7-0.2-1-0.6-1c-0.4,0-0.6,0.3-0.9,0.9v4.2h-0.9v-4.1c0-0.7-0.2-1-0.6-1c-0.4,0-0.7,0.3-1,0.9v4.2h-1V203z"/>
		<path d="M136.7,205.5c0-2.3,1-4.1,2.7-5.4l0.6,0.5c-1.6,1.4-2.4,2.9-2.4,4.9c0,2,0.7,3.6,2.4,4.9l-0.6,0.5
			C137.8,209.7,136.7,207.8,136.7,205.5z"/>
		<path d="M142.9,210.5c1.6-1.4,2.4-2.9,2.4-4.9c0-2-0.7-3.6-2.4-4.9l0.6-0.5c1.7,1.3,2.7,3.1,2.7,5.4c0,2.3-1,4.1-2.7,5.4
			L142.9,210.5z"/>
		<path d="M50.8,219.7h-2.2v-0.7h2.2v-2.3h0.8v2.3h2.2v0.7h-2.2v2.3h-0.8V219.7z"/>
		<path d="M62.9,224.3c0-0.5,0.3-0.9,1-1.3v0c-0.3-0.2-0.6-0.5-0.6-1c0-0.4,0.3-0.8,0.7-1.1v0c-0.4-0.3-0.7-0.8-0.7-1.5
			c0-1.3,1.1-2.1,2.3-2.1c0.3,0,0.6,0,0.9,0.1h2.4v0.8h-1.5c0.3,0.3,0.5,0.7,0.5,1.2c0,1.2-1,2-2.3,2c-0.3,0-0.7-0.1-1-0.2
			c-0.3,0.2-0.5,0.4-0.5,0.7c0,0.5,0.4,0.7,1.2,0.7h1.3c1.5,0,2.2,0.4,2.2,1.4c0,1.1-1.3,2-3.2,2C63.9,225.9,62.9,225.4,62.9,224.3z
			 M67.8,224.1c0-0.6-0.4-0.7-1.3-0.7h-1.1c-0.3,0-0.6,0-0.9-0.1c-0.6,0.3-0.7,0.6-0.7,1c0,0.6,0.7,1,1.9,1
			C67,225.2,67.8,224.7,67.8,224.1z M66.8,219.4c0-0.8-0.6-1.4-1.3-1.4c-0.7,0-1.3,0.6-1.3,1.4c0,0.8,0.6,1.4,1.3,1.4
			C66.2,220.8,66.8,220.2,66.8,219.4z"/>
		<path d="M70,220.3c0-1.9,1.4-3,3-3c1.7,0,2.7,1.1,2.7,2.7c0,0.2,0,0.4,0,0.6h-4.9v-0.8H75l-0.3,0.3c0-1.4-0.7-2.1-1.8-2.1
			c-1.1,0-2,0.8-2,2.3c0,1.5,1,2.3,2.3,2.3c0.7,0,1.2-0.2,1.8-0.6l0.4,0.6c-0.6,0.4-1.3,0.7-2.3,0.7C71.4,223.4,70,222.3,70,220.3z"
			/>
		<path d="M78.9,221v-2.8h-1.7v-0.7l1.7-0.1l0.1-1.9h0.8v1.9h2.9v0.8h-2.9v2.8c0,1,0.3,1.6,1.5,1.6c0.5,0,1-0.1,1.4-0.3l0.2,0.7
			c-0.5,0.2-1.1,0.3-1.8,0.3C79.4,223.4,78.9,222.4,78.9,221z"/>
		<path d="M84.3,224.1h5.8v0.9h-5.8V224.1z"/>
		<path d="M91.8,220.4c0-2,1.5-3.1,3.2-3.1c0.9,0,1.6,0.4,2.1,0.9l-0.5,0.6c-0.5-0.4-1-0.7-1.6-0.7c-1.3,0-2.3,0.9-2.3,2.2
			c0,1.3,0.9,2.2,2.2,2.2c0.7,0,1.3-0.3,1.8-0.7l0.4,0.6c-0.6,0.6-1.5,0.9-2.3,0.9C93.1,223.4,91.8,222.3,91.8,220.4z"/>
		<path d="M101,221.3v-5.8h-2.1v-0.8h3.1v6.7c0,0.8,0.5,1.2,1.2,1.2c0.3,0,0.7-0.1,1.1-0.3l0.3,0.7c-0.5,0.2-0.9,0.3-1.6,0.3
			C101.6,223.4,101,222.7,101,221.3z"/>
		<path d="M106.2,221.7c0-1.3,1.2-1.9,4.2-2.2c0-0.8-0.4-1.5-1.5-1.5c-0.8,0-1.5,0.4-2,0.7l-0.4-0.7c0.6-0.4,1.6-0.8,2.6-0.8
			c1.6,0,2.4,0.9,2.4,2.4v3.6h-0.8l-0.1-0.8h0c-0.6,0.5-1.5,0.9-2.3,0.9C107.1,223.4,106.2,222.8,106.2,221.7z M110.4,221.7v-1.5
			c-2.5,0.2-3.3,0.7-3.3,1.5c0,0.7,0.6,0.9,1.3,0.9C109.1,222.6,109.7,222.3,110.4,221.7z"/>
		<path d="M113.3,222.5l0.5-0.7c0.7,0.5,1.5,0.8,2.5,0.8c1,0,1.5-0.4,1.5-0.9c0-0.4-0.2-0.8-1.8-1.1c-1.5-0.3-2.3-0.8-2.3-1.7
			c0-0.9,0.8-1.7,2.4-1.7c0.9,0,1.8,0.3,2.4,0.7l-0.5,0.6c-0.5-0.4-1.2-0.6-2-0.6c-1,0-1.3,0.4-1.3,0.8c0,0.5,0.5,0.7,1.7,1
			c1.9,0.4,2.4,0.9,2.4,1.8c0,0.9-0.9,1.7-2.6,1.7C115,223.4,114,223,113.3,222.5z"/>
		<path d="M120.5,222.5l0.5-0.7c0.7,0.5,1.5,0.8,2.5,0.8c1,0,1.5-0.4,1.5-0.9c0-0.4-0.2-0.8-1.8-1.1c-1.5-0.3-2.3-0.8-2.3-1.7
			c0-0.9,0.8-1.7,2.4-1.7c0.9,0,1.8,0.3,2.4,0.7l-0.5,0.6c-0.5-0.4-1.2-0.6-2-0.6c-1,0-1.3,0.4-1.3,0.8c0,0.5,0.5,0.7,1.7,1
			c1.9,0.4,2.4,0.9,2.4,1.8c0,0.9-0.9,1.7-2.6,1.7C122.2,223.4,121.2,223,120.5,222.5z"/>
		<path d="M129.3,219.9c0-2.3,1-4.1,2.7-5.4l0.6,0.5c-1.6,1.4-2.4,2.9-2.4,4.9c0,2,0.7,3.6,2.4,4.9l-0.6,0.5
			C130.3,224.1,129.3,222.2,129.3,219.9z"/>
		<path d="M135.5,224.9c1.6-1.4,2.4-2.9,2.4-4.9c0-2-0.7-3.6-2.4-4.9l0.6-0.5c1.7,1.3,2.7,3.1,2.7,5.4c0,2.3-1,4.1-2.7,5.4
			L135.5,224.9z"/>
		<path d="M50.8,234.1h-2.2v-0.7h2.2V231h0.8v2.3h2.2v0.7h-2.2v2.3h-0.8V234.1z"/>
		<path d="M62.9,238.7c0-0.5,0.3-0.9,1-1.3v0c-0.3-0.2-0.6-0.5-0.6-1c0-0.4,0.3-0.8,0.7-1.1v0c-0.4-0.3-0.7-0.8-0.7-1.5
			c0-1.3,1.1-2.1,2.3-2.1c0.3,0,0.6,0,0.9,0.1h2.4v0.8h-1.5c0.3,0.3,0.5,0.7,0.5,1.2c0,1.2-1,2-2.3,2c-0.3,0-0.7-0.1-1-0.2
			c-0.3,0.2-0.5,0.4-0.5,0.7c0,0.5,0.4,0.7,1.2,0.7h1.3c1.5,0,2.2,0.4,2.2,1.4c0,1.1-1.3,2-3.2,2C63.9,240.3,62.9,239.8,62.9,238.7z
			 M67.8,238.5c0-0.6-0.4-0.7-1.3-0.7h-1.1c-0.3,0-0.6,0-0.9-0.1c-0.6,0.3-0.7,0.6-0.7,1c0,0.6,0.7,1,1.9,1
			C67,239.6,67.8,239.1,67.8,238.5z M66.8,233.8c0-0.8-0.6-1.4-1.3-1.4c-0.7,0-1.3,0.6-1.3,1.4c0,0.8,0.6,1.4,1.3,1.4
			C66.2,235.2,66.8,234.6,66.8,233.8z"/>
		<path d="M70,234.7c0-1.9,1.4-3,3-3c1.7,0,2.7,1.1,2.7,2.7c0,0.2,0,0.4,0,0.6h-4.9v-0.8H75l-0.3,0.3c0-1.4-0.7-2.1-1.8-2.1
			c-1.1,0-2,0.8-2,2.3c0,1.5,1,2.3,2.3,2.3c0.7,0,1.2-0.2,1.8-0.6l0.4,0.6c-0.6,0.4-1.3,0.7-2.3,0.7C71.4,237.8,70,236.7,70,234.7z"
			/>
		<path d="M78.9,235.4v-2.8h-1.7v-0.7l1.7-0.1L79,230h0.8v1.9h2.9v0.8h-2.9v2.8c0,1,0.3,1.6,1.5,1.6c0.5,0,1-0.1,1.4-0.3l0.2,0.7
			c-0.5,0.2-1.1,0.3-1.8,0.3C79.4,237.8,78.9,236.8,78.9,235.4z"/>
		<path d="M84.3,238.5h5.8v0.9h-5.8V238.5z"/>
		<path d="M91.5,234.8c0-2,1.3-3.1,2.9-3.1s2.9,1.1,2.9,3.1c0,1.9-1.3,3-2.9,3S91.5,236.7,91.5,234.8z M96.3,234.8
			c0-1.3-0.7-2.2-1.9-2.2c-1.1,0-1.9,0.9-1.9,2.2c0,1.3,0.7,2.2,1.9,2.2C95.5,237,96.3,236.1,96.3,234.8z"/>
		<path d="M99.7,231.8h0.8l0.1,1.4h0c0.6-0.9,1.5-1.5,2.6-1.5c0.4,0,0.8,0.1,1.2,0.2l-0.2,0.9c-0.4-0.1-0.6-0.2-1.1-0.2
			c-0.9,0-1.7,0.4-2.4,1.7v3.4h-1V231.8z"/>
		<path d="M105.9,234.8c0-1.9,1.3-3.1,2.6-3.1c0.7,0,1.2,0.3,1.8,0.7h0l0-1.1v-2.2h1v8.5h-0.8l-0.1-0.8h0c-0.5,0.5-1.2,0.9-1.9,0.9
			C106.9,237.8,105.9,236.7,105.9,234.8z M110.3,236.1v-2.9c-0.5-0.5-1-0.7-1.5-0.7c-1,0-1.8,0.9-1.8,2.2c0,1.4,0.6,2.2,1.7,2.2
			C109.2,237,109.8,236.7,110.3,236.1z"/>
		<path d="M113.2,234.7c0-1.9,1.4-3,3-3c1.7,0,2.7,1.1,2.7,2.7c0,0.2,0,0.4,0,0.6h-4.9v-0.8h4.3l-0.3,0.3c0-1.4-0.7-2.1-1.8-2.1
			c-1.1,0-2,0.8-2,2.3c0,1.5,1,2.3,2.3,2.3c0.7,0,1.2-0.2,1.8-0.6l0.4,0.6c-0.6,0.4-1.3,0.7-2.3,0.7
			C114.6,237.8,113.2,236.7,113.2,234.7z"/>
		<path d="M121.3,231.8h0.8l0.1,1.4h0c0.6-0.9,1.5-1.5,2.6-1.5c0.4,0,0.8,0.1,1.2,0.2l-0.2,0.9c-0.4-0.1-0.6-0.2-1.1-0.2
			c-0.9,0-1.7,0.4-2.4,1.7v3.4h-1V231.8z"/>
		<path d="M129.3,234.3c0-2.3,1-4.1,2.7-5.4l0.6,0.5c-1.6,1.4-2.4,2.9-2.4,4.9c0,2,0.7,3.6,2.4,4.9l-0.6,0.5
			C130.3,238.5,129.3,236.6,129.3,234.3z"/>
		<path d="M135.5,239.3c1.6-1.4,2.4-2.9,2.4-4.9c0-2-0.7-3.6-2.4-4.9l0.6-0.5c1.7,1.3,2.7,3.1,2.7,5.4c0,2.3-1,4.1-2.7,5.4
			L135.5,239.3z"/>
		<path d="M50.8,248.5h-2.2v-0.7h2.2v-2.3h0.8v2.3h2.2v0.7h-2.2v2.3h-0.8V248.5z"/>
		<path d="M62.9,253.1c0-0.5,0.3-0.9,1-1.3v0c-0.3-0.2-0.6-0.5-0.6-1c0-0.4,0.3-0.8,0.7-1.1v0c-0.4-0.3-0.7-0.8-0.7-1.5
			c0-1.3,1.1-2.1,2.3-2.1c0.3,0,0.6,0,0.9,0.1h2.4v0.8h-1.5c0.3,0.3,0.5,0.7,0.5,1.2c0,1.2-1,2-2.3,2c-0.3,0-0.7-0.1-1-0.2
			c-0.3,0.2-0.5,0.4-0.5,0.7c0,0.5,0.4,0.7,1.2,0.7h1.3c1.5,0,2.2,0.4,2.2,1.4c0,1.1-1.3,2-3.2,2C63.9,254.7,62.9,254.2,62.9,253.1z
			 M67.8,252.9c0-0.6-0.4-0.7-1.3-0.7h-1.1c-0.3,0-0.6,0-0.9-0.1c-0.6,0.3-0.7,0.6-0.7,1c0,0.6,0.7,1,1.9,1
			C67,254,67.8,253.5,67.8,252.9z M66.8,248.2c0-0.8-0.6-1.4-1.3-1.4c-0.7,0-1.3,0.6-1.3,1.4c0,0.8,0.6,1.4,1.3,1.4
			C66.2,249.6,66.8,249,66.8,248.2z"/>
		<path d="M70,249.1c0-1.9,1.4-3,3-3c1.7,0,2.7,1.1,2.7,2.7c0,0.2,0,0.4,0,0.6h-4.9v-0.8H75l-0.3,0.3c0-1.4-0.7-2.1-1.8-2.1
			c-1.1,0-2,0.8-2,2.3c0,1.5,1,2.3,2.3,2.3c0.7,0,1.2-0.2,1.8-0.6l0.4,0.6c-0.6,0.4-1.3,0.7-2.3,0.7C71.4,252.2,70,251.1,70,249.1z"
			/>
		<path d="M78.9,249.8V247h-1.7v-0.7l1.7-0.1l0.1-1.9h0.8v1.9h2.9v0.8h-2.9v2.8c0,1,0.3,1.6,1.5,1.6c0.5,0,1-0.1,1.4-0.3l0.2,0.7
			c-0.5,0.2-1.1,0.3-1.8,0.3C79.4,252.2,78.9,251.2,78.9,249.8z"/>
		<path d="M84.3,252.9h5.8v0.9h-5.8V252.9z"/>
		<path d="M92,246.3l1.7-0.1h3.4v0.8H92V246.3z M93.7,245.7c0-1.4,0.7-2.4,2.4-2.4c0.6,0,1.1,0.1,1.7,0.3l-0.2,0.7
			c-0.5-0.2-0.9-0.3-1.4-0.3c-1,0-1.5,0.6-1.5,1.5v6.4h-1V245.7z"/>
		<path d="M99,250.5c0-1.3,1.2-1.9,4.2-2.2c0-0.8-0.4-1.5-1.5-1.5c-0.8,0-1.5,0.4-2,0.7l-0.4-0.7c0.6-0.4,1.6-0.8,2.6-0.8
			c1.6,0,2.4,0.9,2.4,2.4v3.6h-0.8l-0.1-0.8h0c-0.6,0.5-1.5,0.9-2.3,0.9C99.9,252.2,99,251.6,99,250.5z M103.2,250.5V249
			c-2.5,0.2-3.3,0.7-3.3,1.5c0,0.7,0.6,0.9,1.3,0.9C101.9,251.4,102.5,251.1,103.2,250.5z"/>
		<path d="M105.9,246.2h0.8l0.1,0.8h0c0.3-0.5,0.7-0.9,1.3-0.9c0.6,0,0.9,0.3,1.1,1c0.3-0.6,0.7-1,1.4-1c0.8,0,1.3,0.6,1.3,1.8v4.2
			h-1V248c0-0.7-0.2-1-0.6-1c-0.4,0-0.6,0.3-0.9,0.9v4.2h-0.9V248c0-0.7-0.2-1-0.6-1c-0.4,0-0.7,0.3-1,0.9v4.2h-1V246.2z"/>
		<path d="M116.2,247h-2.7v-0.8h3.7v5.8h-1V247z M115.8,244.2c0-0.5,0.3-0.8,0.8-0.8s0.8,0.3,0.8,0.8c0,0.5-0.3,0.8-0.8,0.8
			S115.8,244.7,115.8,244.2z"/>
		<path d="M122.6,250.1v-5.8h-2.1v-0.8h3.1v6.7c0,0.8,0.5,1.2,1.2,1.2c0.3,0,0.7-0.1,1.1-0.3l0.3,0.7c-0.5,0.2-0.9,0.3-1.6,0.3
			C123.2,252.2,122.6,251.5,122.6,250.1z"/>
		<path d="M127.6,254.4l0.2-0.8c0.2,0,0.3,0.1,0.5,0.1c0.8,0,1.3-0.5,1.6-1.2l0.2-0.4l-2.7-5.8h1l1.4,3.2c0.2,0.5,0.5,1.1,0.7,1.7h0
			c0.2-0.6,0.4-1.2,0.6-1.7l1.3-3.2h1l-2.6,6.3c-0.4,1.2-1.1,2-2.5,2C128.1,254.6,127.8,254.5,127.6,254.4z"/>
		<path d="M136.5,248.7c0-2.3,1-4.1,2.7-5.4l0.6,0.5c-1.6,1.4-2.4,2.9-2.4,4.9c0,2,0.7,3.6,2.4,4.9l-0.6,0.5
			C137.5,252.9,136.5,251,136.5,248.7z"/>
		<path d="M142.7,253.7c1.6-1.4,2.4-2.9,2.4-4.9c0-2-0.7-3.6-2.4-4.9l0.6-0.5c1.7,1.3,2.7,3.1,2.7,5.4c0,2.3-1,4.1-2.7,5.4
			L142.7,253.7z"/>
		<path d="M50.8,262.9h-2.2v-0.7h2.2v-2.3h0.8v2.3h2.2v0.7h-2.2v2.3h-0.8V262.9z"/>
		<path d="M62.9,267.5c0-0.5,0.3-0.9,1-1.3v0c-0.3-0.2-0.6-0.5-0.6-1c0-0.4,0.3-0.8,0.7-1.1v0c-0.4-0.3-0.7-0.8-0.7-1.5
			c0-1.3,1.1-2.1,2.3-2.1c0.3,0,0.6,0,0.9,0.1h2.4v0.8h-1.5c0.3,0.3,0.5,0.7,0.5,1.2c0,1.2-1,2-2.3,2c-0.3,0-0.7-0.1-1-0.2
			c-0.3,0.2-0.5,0.4-0.5,0.7c0,0.5,0.4,0.7,1.2,0.7h1.3c1.5,0,2.2,0.4,2.2,1.4c0,1.1-1.3,2-3.2,2C63.9,269.1,62.9,268.6,62.9,267.5z
			 M67.8,267.3c0-0.6-0.4-0.7-1.3-0.7h-1.1c-0.3,0-0.6,0-0.9-0.1c-0.6,0.3-0.7,0.6-0.7,1c0,0.6,0.7,1,1.9,1
			C67,268.4,67.8,267.9,67.8,267.3z M66.8,262.6c0-0.8-0.6-1.4-1.3-1.4c-0.7,0-1.3,0.6-1.3,1.4c0,0.8,0.6,1.4,1.3,1.4
			C66.2,264,66.8,263.4,66.8,262.6z"/>
		<path d="M70,263.5c0-1.9,1.4-3,3-3c1.7,0,2.7,1.1,2.7,2.7c0,0.2,0,0.4,0,0.6h-4.9v-0.8H75l-0.3,0.3c0-1.4-0.7-2.1-1.8-2.1
			c-1.1,0-2,0.8-2,2.3c0,1.5,1,2.3,2.3,2.3c0.7,0,1.2-0.2,1.8-0.6l0.4,0.6c-0.6,0.4-1.3,0.7-2.3,0.7C71.4,266.6,70,265.5,70,263.5z"
			/>
		<path d="M78.9,264.2v-2.8h-1.7v-0.7l1.7-0.1l0.1-1.9h0.8v1.9h2.9v0.8h-2.9v2.8c0,1,0.3,1.6,1.5,1.6c0.5,0,1-0.1,1.4-0.3l0.2,0.7
			c-0.5,0.2-1.1,0.3-1.8,0.3C79.4,266.6,78.9,265.6,78.9,264.2z"/>
		<path d="M84.3,267.3h5.8v0.9h-5.8V267.3z"/>
		<path d="M91.7,267.5c0-0.5,0.3-0.9,1-1.3v0c-0.3-0.2-0.6-0.5-0.6-1c0-0.4,0.3-0.8,0.7-1.1v0c-0.4-0.3-0.7-0.8-0.7-1.5
			c0-1.3,1.1-2.1,2.3-2.1c0.3,0,0.6,0,0.9,0.1h2.4v0.8h-1.5c0.3,0.3,0.5,0.7,0.5,1.2c0,1.2-1,2-2.3,2c-0.3,0-0.7-0.1-1-0.2
			c-0.3,0.2-0.5,0.4-0.5,0.7c0,0.5,0.4,0.7,1.2,0.7h1.3c1.5,0,2.2,0.4,2.2,1.4c0,1.1-1.3,2-3.2,2C92.7,269.1,91.7,268.6,91.7,267.5z
			 M96.6,267.3c0-0.6-0.4-0.7-1.3-0.7h-1.1c-0.3,0-0.6,0-0.9-0.1c-0.6,0.3-0.7,0.6-0.7,1c0,0.6,0.7,1,1.9,1
			C95.8,268.4,96.6,267.9,96.6,267.3z M95.6,262.6c0-0.8-0.6-1.4-1.3-1.4c-0.7,0-1.3,0.6-1.3,1.4c0,0.8,0.6,1.4,1.3,1.4
			C95,264,95.6,263.4,95.6,262.6z"/>
		<path d="M98.8,263.5c0-1.9,1.4-3,3-3c1.7,0,2.7,1.1,2.7,2.7c0,0.2,0,0.4,0,0.6h-4.9v-0.8h4.3l-0.3,0.3c0-1.4-0.7-2.1-1.8-2.1
			c-1.1,0-2,0.8-2,2.3c0,1.5,1,2.3,2.3,2.3c0.7,0,1.2-0.2,1.8-0.6l0.4,0.6c-0.6,0.4-1.3,0.7-2.3,0.7
			C100.2,266.6,98.8,265.5,98.8,263.5z"/>
		<path d="M106.3,260.6h0.8l0.1,1h0c0.6-0.6,1.3-1.1,2.2-1.1c1.4,0,2,0.8,2,2.4v3.6h-1V263c0-1.1-0.4-1.6-1.3-1.6
			c-0.7,0-1.2,0.3-1.8,1v4.1h-1V260.6z"/>
		<path d="M113.3,264.3v-3.6h1v3.5c0,1.1,0.4,1.6,1.3,1.6c0.7,0,1.2-0.3,1.8-1.1v-4h1v5.8h-0.8l-0.1-1h0c-0.6,0.7-1.3,1.2-2.2,1.2
			C114,266.6,113.3,265.8,113.3,264.3z"/>
		<path d="M120.5,265.7l0.5-0.7c0.7,0.5,1.5,0.8,2.5,0.8c1,0,1.5-0.4,1.5-0.9c0-0.4-0.2-0.8-1.8-1.1c-1.5-0.3-2.3-0.8-2.3-1.7
			c0-0.9,0.8-1.7,2.4-1.7c0.9,0,1.8,0.3,2.4,0.7l-0.5,0.6c-0.5-0.4-1.2-0.6-2-0.6c-1,0-1.3,0.4-1.3,0.8c0,0.5,0.5,0.7,1.7,1
			c1.9,0.4,2.4,0.9,2.4,1.8c0,0.9-0.9,1.7-2.6,1.7C122.2,266.6,121.2,266.2,120.5,265.7z"/>
		<path d="M129.3,263.1c0-2.3,1-4.1,2.7-5.4l0.6,0.5c-1.6,1.4-2.4,2.9-2.4,4.9c0,2,0.7,3.6,2.4,4.9l-0.6,0.5
			C130.3,267.3,129.3,265.4,129.3,263.1z"/>
		<path d="M135.5,268.1c1.6-1.4,2.4-2.9,2.4-4.9c0-2-0.7-3.6-2.4-4.9l0.6-0.5c1.7,1.3,2.7,3.1,2.7,5.4c0,2.3-1,4.1-2.7,5.4
			L135.5,268.1z"/>
		<path d="M50.8,277.3h-2.2v-0.7h2.2v-2.3h0.8v2.3h2.2v0.7h-2.2v2.3h-0.8V277.3z"/>
		<path d="M62.9,281.9c0-0.5,0.3-0.9,1-1.3v0c-0.3-0.2-0.6-0.5-0.6-1c0-0.4,0.3-0.8,0.7-1.1v0c-0.4-0.3-0.7-0.8-0.7-1.5
			c0-1.3,1.1-2.1,2.3-2.1c0.3,0,0.6,0,0.9,0.1h2.4v0.8h-1.5c0.3,0.3,0.5,0.7,0.5,1.2c0,1.2-1,2-2.3,2c-0.3,0-0.7-0.1-1-0.2
			c-0.3,0.2-0.5,0.4-0.5,0.7c0,0.5,0.4,0.7,1.2,0.7h1.3c1.5,0,2.2,0.4,2.2,1.4c0,1.1-1.3,2-3.2,2C63.9,283.5,62.9,283,62.9,281.9z
			 M67.8,281.7c0-0.6-0.4-0.7-1.3-0.7h-1.1c-0.3,0-0.6,0-0.9-0.1c-0.6,0.3-0.7,0.6-0.7,1c0,0.6,0.7,1,1.9,1
			C67,282.8,67.8,282.3,67.8,281.7z M66.8,277c0-0.8-0.6-1.4-1.3-1.4c-0.7,0-1.3,0.6-1.3,1.4c0,0.8,0.6,1.4,1.3,1.4
			C66.2,278.4,66.8,277.8,66.8,277z"/>
		<path d="M70,277.9c0-1.9,1.4-3,3-3c1.7,0,2.7,1.1,2.7,2.7c0,0.2,0,0.4,0,0.6h-4.9v-0.8H75l-0.3,0.3c0-1.4-0.7-2.1-1.8-2.1
			c-1.1,0-2,0.8-2,2.3c0,1.5,1,2.3,2.3,2.3c0.7,0,1.2-0.2,1.8-0.6l0.4,0.6c-0.6,0.4-1.3,0.7-2.3,0.7C71.4,281,70,279.9,70,277.9z"/>
		<path d="M78.9,278.6v-2.8h-1.7v-0.7l1.7-0.1l0.1-1.9h0.8v1.9h2.9v0.8h-2.9v2.8c0,1,0.3,1.6,1.5,1.6c0.5,0,1-0.1,1.4-0.3l0.2,0.7
			c-0.5,0.2-1.1,0.3-1.8,0.3C79.4,281,78.9,280,78.9,278.6z"/>
		<path d="M84.3,281.7h5.8v0.9h-5.8V281.7z"/>
		<path d="M91.7,280.1l0.5-0.7c0.7,0.5,1.5,0.8,2.5,0.8c1,0,1.5-0.4,1.5-0.9c0-0.4-0.2-0.8-1.8-1.1c-1.5-0.3-2.3-0.8-2.3-1.7
			c0-0.9,0.8-1.7,2.4-1.7c0.9,0,1.8,0.3,2.4,0.7l-0.5,0.6c-0.5-0.4-1.2-0.6-2-0.6c-1,0-1.3,0.4-1.3,0.8c0,0.5,0.5,0.7,1.7,1
			c1.9,0.4,2.4,0.9,2.4,1.8c0,0.9-0.9,1.7-2.6,1.7C93.4,281,92.4,280.6,91.7,280.1z"/>
		<path d="M99.1,275h0.8l0.1,0.7h0c0.5-0.5,1.3-0.9,2-0.9c1.6,0,2.4,1.2,2.4,3c0,2-1.2,3.1-2.7,3.1c-0.5,0-1.2-0.3-1.7-0.8h0l0,1.1
			v2h-1V275z M103.5,277.9c0-1.3-0.5-2.1-1.6-2.1c-0.5,0-1.1,0.3-1.7,0.9v2.9c0.5,0.5,1.2,0.7,1.5,0.7
			C102.7,280.2,103.5,279.3,103.5,277.9z"/>
		<path d="M106,277.9c0-1.9,1.4-3,3-3c1.7,0,2.7,1.1,2.7,2.7c0,0.2,0,0.4,0,0.6h-4.9v-0.8h4.3l-0.3,0.3c0-1.4-0.7-2.1-1.8-2.1
			c-1.1,0-2,0.8-2,2.3c0,1.5,1,2.3,2.3,2.3c0.7,0,1.2-0.2,1.8-0.6l0.4,0.6c-0.6,0.4-1.3,0.7-2.3,0.7C107.4,281,106,279.9,106,277.9z
			"/>
		<path d="M113.4,278c0-2,1.5-3.1,3.3-3.1c0.9,0,1.6,0.4,2.1,0.9l-0.5,0.6c-0.5-0.4-1-0.7-1.6-0.7c-1.3,0-2.3,0.9-2.3,2.2
			c0,1.3,0.9,2.2,2.2,2.2c0.7,0,1.3-0.3,1.8-0.7l0.4,0.6c-0.6,0.6-1.5,0.9-2.3,0.9C114.7,281,113.4,279.9,113.4,278z"/>
		<path d="M123.4,275.8h-2.7V275h3.7v5.8h-1V275.8z M123,273c0-0.5,0.3-0.8,0.8-0.8s0.8,0.3,0.8,0.8c0,0.5-0.3,0.8-0.8,0.8
			S123,273.5,123,273z"/>
		<path d="M127.6,277.9c0-1.9,1.4-3,3-3c1.7,0,2.7,1.1,2.7,2.7c0,0.2,0,0.4,0,0.6h-4.9v-0.8h4.3l-0.3,0.3c0-1.4-0.7-2.1-1.8-2.1
			c-1.1,0-2,0.8-2,2.3c0,1.5,1,2.3,2.3,2.3c0.7,0,1.2-0.2,1.8-0.6l0.4,0.6c-0.6,0.4-1.3,0.7-2.3,0.7
			C129,281,127.6,279.9,127.6,277.9z"/>
		<path d="M134.9,280.1l0.5-0.7c0.7,0.5,1.5,0.8,2.5,0.8c1,0,1.5-0.4,1.5-0.9c0-0.4-0.2-0.8-1.8-1.1c-1.5-0.3-2.3-0.8-2.3-1.7
			c0-0.9,0.8-1.7,2.4-1.7c0.9,0,1.8,0.3,2.4,0.7l-0.5,0.6c-0.5-0.4-1.2-0.6-2-0.6c-1,0-1.3,0.4-1.3,0.8c0,0.5,0.5,0.7,1.7,1
			c1.9,0.4,2.4,0.9,2.4,1.8c0,0.9-0.9,1.7-2.6,1.7C136.6,281,135.6,280.6,134.9,280.1z"/>
		<path d="M143.7,277.5c0-2.3,1-4.1,2.7-5.4l0.6,0.5c-1.6,1.4-2.4,2.9-2.4,4.9c0,2,0.7,3.6,2.4,4.9l-0.6,0.5
			C144.7,281.7,143.7,279.8,143.7,277.5z"/>
		<path d="M149.9,282.5c1.6-1.4,2.4-2.9,2.4-4.9c0-2-0.7-3.6-2.4-4.9l0.6-0.5c1.7,1.3,2.7,3.1,2.7,5.4c0,2.3-1,4.1-2.7,5.4
			L149.9,282.5z"/>
		<path class="st3" d="M51,291.7h-2.2v-0.7H51v-2.3h0.8v2.3H54v0.7h-2.2v2.3H51V291.7z"/>
		<path class="st3" d="M65.2,293.3v-5.8h-2.1v-0.8h3.1v6.7c0,0.8,0.5,1.2,1.2,1.2c0.3,0,0.7-0.1,1.1-0.3l0.3,0.7
			c-0.5,0.2-0.9,0.3-1.6,0.3C65.9,295.4,65.2,294.7,65.2,293.3z"/>
		<path class="st3" d="M70.4,293.7c0-1.3,1.2-1.9,4.2-2.2c0-0.8-0.4-1.5-1.5-1.5c-0.8,0-1.5,0.4-2,0.7l-0.4-0.7
			c0.6-0.4,1.6-0.8,2.6-0.8c1.6,0,2.4,0.9,2.4,2.4v3.6h-0.8l-0.1-0.8h0c-0.6,0.5-1.5,0.9-2.3,0.9C71.3,295.4,70.4,294.8,70.4,293.7z
			 M74.6,293.7v-1.5c-2.5,0.2-3.3,0.7-3.3,1.5c0,0.7,0.6,0.9,1.3,0.9C73.3,294.6,74,294.3,74.6,293.7z"/>
		<path class="st3" d="M77.4,297.6l0.2-0.8c0.2,0,0.3,0.1,0.5,0.1c0.8,0,1.3-0.5,1.6-1.2l0.2-0.4l-2.7-5.8h1l1.4,3.2
			c0.2,0.5,0.5,1.1,0.7,1.7h0c0.2-0.6,0.4-1.2,0.6-1.7l1.3-3.2h1l-2.6,6.3c-0.4,1.2-1.1,2-2.5,2C77.9,297.8,77.7,297.7,77.4,297.6z"
			/>
		<path class="st3" d="M84.6,296.1h5.8v0.9h-5.8V296.1z"/>
		<path class="st3" d="M91.9,292.3c0-1.9,1.4-3,3-3c1.7,0,2.7,1.1,2.7,2.7c0,0.2,0,0.4,0,0.6h-4.9v-0.8h4.3l-0.3,0.3
			c0-1.4-0.7-2.1-1.8-2.1c-1.1,0-2,0.8-2,2.3c0,1.5,1,2.3,2.3,2.3c0.7,0,1.2-0.2,1.8-0.6l0.4,0.6c-0.6,0.4-1.3,0.7-2.3,0.7
			C93.3,295.4,91.9,294.3,91.9,292.3z"/>
		<path class="st3" d="M99.1,296.3c0-0.5,0.3-0.9,1-1.3v0c-0.3-0.2-0.6-0.5-0.6-1c0-0.4,0.3-0.8,0.7-1.1v0c-0.4-0.3-0.7-0.8-0.7-1.5
			c0-1.3,1.1-2.1,2.3-2.1c0.3,0,0.6,0,0.9,0.1h2.4v0.8h-1.5c0.3,0.3,0.5,0.7,0.5,1.2c0,1.2-1,2-2.3,2c-0.3,0-0.7-0.1-1-0.2
			c-0.3,0.2-0.5,0.4-0.5,0.7c0,0.5,0.4,0.7,1.2,0.7h1.3c1.5,0,2.2,0.4,2.2,1.4c0,1.1-1.3,2-3.2,2C100.1,297.9,99.1,297.4,99.1,296.3
			z M104.1,296.1c0-0.6-0.4-0.7-1.3-0.7h-1.1c-0.3,0-0.6,0-0.9-0.1c-0.6,0.3-0.7,0.6-0.7,1c0,0.6,0.7,1,1.9,1
			C103.2,297.2,104.1,296.7,104.1,296.1z M103.1,291.4c0-0.8-0.6-1.4-1.3-1.4c-0.7,0-1.3,0.6-1.3,1.4c0,0.8,0.6,1.4,1.3,1.4
			C102.5,292.8,103.1,292.2,103.1,291.4z"/>
		<path class="st3" d="M106.3,296.3c0-0.5,0.3-0.9,1-1.3v0c-0.3-0.2-0.6-0.5-0.6-1c0-0.4,0.3-0.8,0.7-1.1v0
			c-0.4-0.3-0.7-0.8-0.7-1.5c0-1.3,1.1-2.1,2.3-2.1c0.3,0,0.6,0,0.9,0.1h2.4v0.8h-1.5c0.3,0.3,0.5,0.7,0.5,1.2c0,1.2-1,2-2.3,2
			c-0.3,0-0.7-0.1-1-0.2c-0.3,0.2-0.5,0.4-0.5,0.7c0,0.5,0.4,0.7,1.2,0.7h1.3c1.5,0,2.2,0.4,2.2,1.4c0,1.1-1.3,2-3.2,2
			C107.3,297.9,106.3,297.4,106.3,296.3z M111.3,296.1c0-0.6-0.4-0.7-1.3-0.7h-1.1c-0.3,0-0.6,0-0.9-0.1c-0.6,0.3-0.7,0.6-0.7,1
			c0,0.6,0.7,1,1.9,1C110.4,297.2,111.3,296.7,111.3,296.1z M110.3,291.4c0-0.8-0.6-1.4-1.3-1.4c-0.7,0-1.3,0.6-1.3,1.4
			c0,0.8,0.6,1.4,1.3,1.4C109.7,292.8,110.3,292.2,110.3,291.4z"/>
		<path class="st3" d="M115.1,291.9c0-2.3,1-4.1,2.7-5.4l0.6,0.5c-1.6,1.4-2.4,2.9-2.4,4.9c0,2,0.7,3.6,2.4,4.9l-0.6,0.5
			C116.2,296.1,115.1,294.2,115.1,291.9z"/>
		<path class="st3" d="M121.3,296.9c1.6-1.4,2.4-2.9,2.4-4.9c0-2-0.7-3.6-2.4-4.9l0.6-0.5c1.7,1.3,2.7,3.1,2.7,5.4
			c0,2.3-1,4.1-2.7,5.4L121.3,296.9z"/>
		<path class="st3" d="M51,306.1h-2.2v-0.7H51V303h0.8v2.3H54v0.7h-2.2v2.3H51V306.1z"/>
		<path class="st3" d="M63.5,303.9l1.7-0.1h3.4v0.8h-5.1V303.9z M65.1,303.3c0-1.4,0.7-2.4,2.4-2.4c0.6,0,1.1,0.1,1.7,0.3l-0.2,0.7
			c-0.5-0.2-0.9-0.3-1.4-0.3c-1,0-1.5,0.6-1.5,1.5v6.4h-1V303.3z"/>
		<path class="st3" d="M72.4,307.7v-5.8h-2.1v-0.8h3.1v6.7c0,0.8,0.5,1.2,1.2,1.2c0.3,0,0.7-0.1,1.1-0.3l0.3,0.7
			c-0.5,0.2-0.9,0.3-1.6,0.3C73.1,309.8,72.4,309.1,72.4,307.7z"/>
		<path class="st3" d="M77.6,308.1c0-1.3,1.2-1.9,4.2-2.2c0-0.8-0.4-1.5-1.5-1.5c-0.8,0-1.5,0.4-2,0.7l-0.4-0.7
			c0.6-0.4,1.6-0.8,2.6-0.8c1.6,0,2.4,0.9,2.4,2.4v3.6H82l-0.1-0.8h0c-0.6,0.5-1.5,0.9-2.3,0.9C78.5,309.8,77.6,309.2,77.6,308.1z
			 M81.8,308.1v-1.5c-2.5,0.2-3.3,0.7-3.3,1.5c0,0.7,0.6,0.9,1.3,0.9C80.5,309,81.2,308.7,81.8,308.1z"/>
		<path class="st3" d="M85,303.8h0.8l0.1,0.7h0c0.5-0.5,1.3-0.9,2-0.9c1.6,0,2.4,1.2,2.4,3c0,2-1.2,3.1-2.7,3.1
			c-0.5,0-1.2-0.3-1.7-0.8h0l0,1.1v2h-1V303.8z M89.3,306.7c0-1.3-0.5-2.1-1.6-2.1c-0.5,0-1.1,0.3-1.7,0.9v2.9
			c0.5,0.5,1.2,0.7,1.5,0.7C88.5,309,89.3,308.1,89.3,306.7z"/>
		<path class="st3" d="M91.8,310.5h5.8v0.9h-5.8V310.5z"/>
		<path class="st3" d="M98.3,303.8h1l0.7,3.4c0.1,0.6,0.2,1.1,0.3,1.6h0c0.1-0.6,0.2-1.1,0.3-1.6l0.7-3h1l0.7,3
			c0.1,0.6,0.3,1.1,0.4,1.6h0c0.1-0.6,0.2-1.1,0.3-1.6l0.7-3.4h0.9l-1.2,5.8h-1.3l-0.7-2.8c-0.1-0.4-0.2-1-0.3-1.7h0
			c-0.1,0.7-0.2,1.3-0.3,1.7l-0.6,2.8h-1.3L98.3,303.8z"/>
		<path class="st3" d="M109.2,304.6h-2.7v-0.8h3.7v5.8h-1V304.6z M108.8,301.8c0-0.5,0.3-0.8,0.8-0.8c0.5,0,0.8,0.3,0.8,0.8
			c0,0.5-0.3,0.8-0.8,0.8C109.2,302.6,108.8,302.3,108.8,301.8z"/>
		<path class="st3" d="M113.8,303.8h0.8l0.1,1h0c0.6-0.6,1.3-1.1,2.2-1.1c1.4,0,2,0.8,2,2.4v3.6h-1v-3.5c0-1.1-0.4-1.6-1.3-1.6
			c-0.7,0-1.2,0.3-1.8,1v4.1h-1V303.8z"/>
		<path class="st3" d="M120.7,310.7c0-0.5,0.3-0.9,1-1.3v0c-0.3-0.2-0.6-0.5-0.6-1c0-0.4,0.3-0.8,0.7-1.1v0
			c-0.4-0.3-0.7-0.8-0.7-1.5c0-1.3,1.1-2.1,2.3-2.1c0.3,0,0.6,0,0.9,0.1h2.4v0.8h-1.5c0.3,0.3,0.5,0.7,0.5,1.2c0,1.2-1,2-2.3,2
			c-0.3,0-0.7-0.1-1-0.2c-0.3,0.2-0.5,0.4-0.5,0.7c0,0.5,0.4,0.7,1.2,0.7h1.3c1.5,0,2.2,0.4,2.2,1.4c0,1.1-1.3,2-3.2,2
			C121.7,312.3,120.7,311.8,120.7,310.7z M125.7,310.5c0-0.6-0.4-0.7-1.3-0.7h-1.1c-0.3,0-0.6,0-0.9-0.1c-0.6,0.3-0.7,0.6-0.7,1
			c0,0.6,0.7,1,1.9,1C124.8,311.6,125.7,311.1,125.7,310.5z M124.7,305.8c0-0.8-0.6-1.4-1.3-1.4c-0.7,0-1.3,0.6-1.3,1.4
			c0,0.8,0.6,1.4,1.3,1.4C124.1,307.2,124.7,306.6,124.7,305.8z"/>
		<path class="st3" d="M127.9,308.9l0.5-0.7c0.7,0.5,1.5,0.8,2.5,0.8c1,0,1.5-0.4,1.5-0.9c0-0.4-0.2-0.8-1.8-1.1
			c-1.5-0.3-2.3-0.8-2.3-1.7c0-0.9,0.8-1.7,2.4-1.7c0.9,0,1.8,0.3,2.4,0.7l-0.5,0.6c-0.5-0.4-1.2-0.6-2-0.6c-1,0-1.3,0.4-1.3,0.8
			c0,0.5,0.5,0.7,1.7,1c1.9,0.4,2.4,0.9,2.4,1.8c0,0.9-0.9,1.7-2.6,1.7C129.6,309.8,128.6,309.4,127.9,308.9z"/>
		<path class="st3" d="M136.7,306.3c0-2.3,1-4.1,2.7-5.4l0.6,0.5c-1.6,1.4-2.4,2.9-2.4,4.9c0,2,0.7,3.6,2.4,4.9l-0.6,0.5
			C137.8,310.5,136.7,308.6,136.7,306.3z"/>
		<path class="st3" d="M142.9,311.3c1.6-1.4,2.4-2.9,2.4-4.9c0-2-0.7-3.6-2.4-4.9l0.6-0.5c1.7,1.3,2.7,3.1,2.7,5.4
			c0,2.3-1,4.1-2.7,5.4L142.9,311.3z"/>
	</g>
</g>
</svg>
