<?xml version="1.0" encoding="utf-8"?>
<!-- Generator: Adobe Illustrator 26.0.3, SVG Export Plug-In . SVG Version: 6.00 Build 0)  -->
<svg version="1.1" id="Layer_1" xmlns="http://www.w3.org/2000/svg" xmlns:xlink="http://www.w3.org/1999/xlink" x="0px" y="0px"
	 viewBox="0 0 650.1 233.1" style="enable-background:new 0 0 650.1 233.1;" xml:space="preserve">
<style type="text/css">
	.st0{fill:#EDEDED;stroke:#000000;stroke-miterlimit:10;}
	.st1{font-family:'ArialMT';}
	.st2{font-size:16px;}
	.st3{fill:none;stroke:#000000;stroke-linecap:square;stroke-miterlimit:10;}
</style>
<rect x="292.9" y="23.6" class="st0" width="76.4" height="27.8"/>
<text transform="matrix(1 0 0 1 306.659 41.7696)" class="st1 st2">Animal</text>
<rect x="84.2" y="102.6" class="st0" width="76.4" height="27.8"/>
<text transform="matrix(1 0 0 1 97.5477 120.7678)" class="st1 st2">Reptile</text>
<rect x="292.9" y="102.6" class="st0" width="76.4" height="27.8"/>
<text transform="matrix(1 0 0 1 316.8234 120.7678)" class="st1 st2">Bird</text>
<rect x="501.5" y="102.6" class="st0" width="76.4" height="27.8"/>
<text transform="matrix(1 0 0 1 509.0322 120.7678)" class="st1 st2">Mammal</text>
<rect x="32.1" y="180.9" class="st0" width="76.4" height="27.8"/>
<text transform="matrix(1 0 0 1 47.6162 199.0672)" class="st1 st2">Snake</text>
<rect x="136.4" y="180.9" class="st0" width="76.4" height="27.8"/>
<text transform="matrix(1 0 0 1 152.8108 199.0672)" class="st1 st2">Lizard</text>
<rect x="240.7" y="180.9" class="st0" width="76.4" height="27.8"/>
<text transform="matrix(1 0 0 1 257.1147 199.0672)" class="st1 st2">Parrot</text>
<rect x="345" y="180.9" class="st0" width="76.4" height="27.8"/>
<g>
	<text transform="matrix(1 0 0 1 353.8401 199.0672)" class="st1 st2">Penguin</text>
</g>
<rect x="449.3" y="180.9" class="st0" width="76.4" height="27.8"/>
<text transform="matrix(1 0 0 1 466.1602 199.0672)" class="st1 st2">Horse</text>
<rect x="553.6" y="180.9" class="st0" width="76.4" height="27.8"/>
<text transform="matrix(1 0 0 1 579.7919 199.0672)" class="st1 st2">Bat</text>
<line class="st3" x1="70.3" y1="180.9" x2="70.3" y2="156.8"/>
<line class="st3" x1="122.4" y1="156.8" x2="70.3" y2="156.8"/>
<line class="st3" x1="122.4" y1="130.4" x2="122.4" y2="156.8"/>
<line class="st3" x1="174.6" y1="156.8" x2="116.4" y2="156.8"/>
<line class="st3" x1="174.6" y1="180.9" x2="174.6" y2="156.8"/>
<line class="st3" x1="278.9" y1="180.9" x2="278.9" y2="156.8"/>
<line class="st3" x1="325.1" y1="156.8" x2="278.9" y2="156.8"/>
<line class="st3" x1="331" y1="130.4" x2="331" y2="156.8"/>
<line class="st3" x1="383.2" y1="156.8" x2="325.1" y2="156.8"/>
<line class="st3" x1="383.2" y1="180.9" x2="383.2" y2="156.8"/>
<line class="st3" x1="487.5" y1="180.9" x2="487.5" y2="156.8"/>
<line class="st3" x1="539.7" y1="156.8" x2="487.5" y2="156.8"/>
<line class="st3" x1="539.7" y1="130.4" x2="539.7" y2="156.8"/>
<line class="st3" x1="591.8" y1="156.8" x2="539.7" y2="156.8"/>
<line class="st3" x1="591.8" y1="180.9" x2="591.8" y2="156.8"/>
<line class="st3" x1="122.4" y1="102.6" x2="122.4" y2="78.6"/>
<line class="st3" x1="325.1" y1="78.6" x2="122.4" y2="78.6"/>
<line class="st3" x1="331.1" y1="52.1" x2="331.1" y2="78.6"/>
<line class="st3" x1="539.7" y1="78.6" x2="325.1" y2="78.6"/>
<line class="st3" x1="539.7" y1="102.6" x2="539.7" y2="78.6"/>
<line class="st3" x1="331" y1="102.6" x2="331" y2="78.6"/>
</svg>
