<?xml version="1.0" encoding="utf-8"?>
<!-- Generator: Adobe Illustrator 26.0.1, SVG Export Plug-In . SVG Version: 6.00 Build 0)  -->
<svg version="1.1" id="Layer_1" xmlns="http://www.w3.org/2000/svg" xmlns:xlink="http://www.w3.org/1999/xlink" x="0px" y="0px"
	 viewBox="0 0 585 343.1" style="enable-background:new 0 0 585 343.1;" xml:space="preserve">
<style type="text/css">
	.st0{fill:#C0E4EE;stroke:#000000;stroke-miterlimit:10;}
	.st1{font-family:'Arial-BoldMT';}
	.st2{font-size:12px;}
	.st3{fill:none;stroke:#000000;stroke-linecap:square;stroke-miterlimit:10;}
</style>
<rect x="232.5" y="51.6" class="st0" width="120" height="35.6"/>
<rect x="232.6" y="22.4" class="st0" width="120" height="29.2"/>
<text transform="matrix(1 0 0 1 278.6583 39.8644)" class="st1 st2">Shape</text>
<g>
	<g>
		<path d="M251.3,68.6h5.2v0.7h-5.2V68.6z"/>
		<path d="M265.7,70.1c0-2,1.5-3.1,3.2-3.1c0.9,0,1.6,0.4,2.1,0.9l-0.5,0.6c-0.5-0.4-1-0.7-1.6-0.7c-1.3,0-2.3,0.9-2.3,2.2
			c0,1.3,0.9,2.2,2.2,2.2c0.7,0,1.3-0.3,1.8-0.7l0.4,0.6c-0.6,0.6-1.5,0.9-2.3,0.9C267,73.1,265.7,72,265.7,70.1z"/>
		<path d="M272.6,70.1c0-2,1.3-3.1,2.9-3.1s2.9,1.1,2.9,3.1c0,1.9-1.3,3-2.9,3S272.6,72,272.6,70.1z M277.4,70.1
			c0-1.3-0.7-2.2-1.9-2.2s-1.9,0.9-1.9,2.2c0,1.3,0.7,2.2,1.9,2.2S277.4,71.4,277.4,70.1z"/>
		<path d="M282.1,71v-5.8H280v-0.8h3.1v6.7c0,0.8,0.5,1.2,1.2,1.2c0.3,0,0.7-0.1,1.1-0.3l0.3,0.7c-0.5,0.2-0.9,0.3-1.6,0.3
			C282.7,73.1,282.1,72.4,282.1,71z"/>
		<path d="M287,70.1c0-2,1.3-3.1,2.9-3.1s2.9,1.1,2.9,3.1c0,1.9-1.3,3-2.9,3S287,72,287,70.1z M291.8,70.1c0-1.3-0.7-2.2-1.9-2.2
			c-1.1,0-1.9,0.9-1.9,2.2c0,1.3,0.7,2.2,1.9,2.2C291,72.3,291.8,71.4,291.8,70.1z"/>
		<path d="M295.2,67.1h0.8l0.1,1.4h0c0.6-0.9,1.5-1.5,2.6-1.5c0.4,0,0.8,0.1,1.2,0.2l-0.2,0.9c-0.4-0.1-0.6-0.2-1.1-0.2
			c-0.9,0-1.7,0.4-2.4,1.7V73h-1V67.1z"/>
	</g>
</g>
<rect x="232.5" y="87.2" class="st0" width="120" height="35.6"/>
<g>
	<g>
		<path d="M254.5,105.3h-2.2v-0.7h2.2v-2.3h0.8v2.3h2.2v0.7h-2.2v2.3h-0.8V105.3z"/>
		<path d="M266.6,110c0-0.5,0.3-0.9,1-1.3v0c-0.3-0.2-0.6-0.5-0.6-1c0-0.4,0.3-0.8,0.7-1.1v0c-0.4-0.3-0.7-0.8-0.7-1.5
			c0-1.3,1.1-2.1,2.3-2.1c0.3,0,0.6,0,0.9,0.1h2.4v0.8H271c0.3,0.3,0.5,0.7,0.5,1.2c0,1.2-1,2-2.3,2c-0.3,0-0.7-0.1-1-0.2
			c-0.3,0.2-0.5,0.4-0.5,0.7c0,0.5,0.4,0.7,1.2,0.7h1.3c1.5,0,2.2,0.4,2.2,1.4c0,1.1-1.3,2-3.2,2C267.6,111.6,266.6,111,266.6,110z
			 M271.5,109.7c0-0.6-0.4-0.7-1.3-0.7h-1.1c-0.3,0-0.6,0-0.9-0.1c-0.6,0.3-0.7,0.6-0.7,1c0,0.6,0.7,1,1.9,1
			C270.7,110.9,271.5,110.3,271.5,109.7z M270.6,105c0-0.8-0.6-1.4-1.3-1.4c-0.7,0-1.3,0.6-1.3,1.4c0,0.8,0.6,1.4,1.3,1.4
			C270,106.4,270.6,105.9,270.6,105z"/>
		<path d="M273.7,106c0-1.9,1.4-3,3-3c1.7,0,2.7,1.1,2.7,2.7c0,0.2,0,0.4,0,0.6h-4.9v-0.8h4.3l-0.3,0.3c0-1.4-0.7-2.1-1.8-2.1
			c-1.1,0-2,0.8-2,2.3c0,1.5,1,2.3,2.3,2.3c0.7,0,1.2-0.2,1.8-0.6l0.4,0.6c-0.6,0.4-1.3,0.7-2.3,0.7
			C275.1,109.1,273.7,107.9,273.7,106z"/>
		<path d="M282.6,106.7v-2.8h-1.7v-0.7l1.7-0.1l0.1-1.9h0.8v1.9h2.9v0.8h-2.9v2.8c0,1,0.3,1.6,1.5,1.6c0.5,0,1-0.1,1.4-0.3l0.2,0.7
			c-0.5,0.2-1.1,0.3-1.8,0.3C283.2,109.1,282.6,108.1,282.6,106.7z"/>
		<path d="M290.4,101.1h1.2l2.7,7.9h-1.1l-1.4-4.4c-0.3-0.9-0.5-1.7-0.8-2.7h0c-0.3,0.9-0.5,1.8-0.8,2.7l-1.4,4.4h-1L290.4,101.1z
			 M289.1,105.7h3.6v0.8h-3.6V105.7z"/>
		<path d="M296.3,103.1h0.8l0.1,1.4h0c0.6-0.9,1.5-1.5,2.6-1.5c0.4,0,0.8,0.1,1.2,0.2l-0.2,0.9c-0.4-0.1-0.6-0.2-1.1-0.2
			c-0.9,0-1.7,0.4-2.4,1.7v3.4h-1V103.1z"/>
		<path d="M302.5,106c0-1.9,1.4-3,3-3c1.7,0,2.7,1.1,2.7,2.7c0,0.2,0,0.4,0,0.6h-4.9v-0.8h4.3l-0.3,0.3c0-1.4-0.7-2.1-1.8-2.1
			c-1.1,0-2,0.8-2,2.3c0,1.5,1,2.3,2.3,2.3c0.7,0,1.2-0.2,1.8-0.6l0.4,0.6c-0.6,0.4-1.3,0.7-2.3,0.7
			C303.9,109.1,302.5,107.9,302.5,106z"/>
		<path d="M309.9,107.4c0-1.3,1.2-1.9,4.2-2.2c0-0.8-0.4-1.5-1.5-1.5c-0.8,0-1.5,0.4-2,0.7l-0.4-0.7c0.6-0.4,1.6-0.8,2.6-0.8
			c1.6,0,2.4,0.9,2.4,2.4v3.6h-0.8l-0.1-0.8h0c-0.6,0.5-1.5,0.9-2.3,0.9C310.8,109.1,309.9,108.5,309.9,107.4z M314.1,107.4v-1.5
			c-2.5,0.2-3.3,0.7-3.3,1.5c0,0.7,0.6,0.9,1.3,0.9C312.8,108.3,313.5,108,314.1,107.4z"/>
		<path d="M318.6,105.6c0-2.3,1-4.1,2.7-5.4l0.6,0.5c-1.6,1.4-2.4,2.9-2.4,4.9c0,2,0.7,3.6,2.4,4.9l-0.6,0.5
			C319.6,109.7,318.6,107.9,318.6,105.6z"/>
		<path d="M324.8,110.5c1.6-1.4,2.4-2.9,2.4-4.9c0-2-0.7-3.6-2.4-4.9l0.6-0.5c1.7,1.3,2.7,3.1,2.7,5.4c0,2.3-1,4.1-2.7,5.4
			L324.8,110.5z"/>
	</g>
</g>
<rect x="64.5" y="220.7" class="st0" width="120" height="64.3"/>
<rect x="64.6" y="191.6" class="st0" width="120" height="29.2"/>
<text transform="matrix(1 0 0 1 100.0232 209.0409)" class="st1 st2">Rectangle</text>
<g>
	<g>
		<path d="M83.4,237.8h5.2v0.7h-5.2V237.8z"/>
		<path d="M97.7,239.2c0-2,1.5-3.1,3.2-3.1c0.9,0,1.6,0.4,2.1,0.9l-0.5,0.6c-0.5-0.4-1-0.7-1.6-0.7c-1.3,0-2.3,0.9-2.3,2.2
			c0,1.3,0.9,2.2,2.2,2.2c0.7,0,1.3-0.3,1.8-0.7l0.4,0.6c-0.6,0.6-1.5,0.9-2.3,0.9C99.1,242.3,97.7,241.2,97.7,239.2z"/>
		<path d="M104.7,239.2c0-2,1.3-3.1,2.9-3.1s2.9,1.1,2.9,3.1c0,1.9-1.3,3-2.9,3S104.7,241.2,104.7,239.2z M109.4,239.2
			c0-1.3-0.7-2.2-1.9-2.2c-1.1,0-1.9,0.9-1.9,2.2c0,1.3,0.7,2.2,1.9,2.2C108.7,241.5,109.4,240.6,109.4,239.2z"/>
		<path d="M114.1,240.2v-5.8H112v-0.8h3.1v6.7c0,0.8,0.5,1.2,1.2,1.2c0.3,0,0.7-0.1,1.1-0.3l0.3,0.7c-0.5,0.2-0.9,0.3-1.6,0.3
			C114.8,242.3,114.1,241.6,114.1,240.2z"/>
		<path d="M119.1,239.2c0-2,1.3-3.1,2.9-3.1s2.9,1.1,2.9,3.1c0,1.9-1.3,3-2.9,3S119.1,241.2,119.1,239.2z M123.8,239.2
			c0-1.3-0.7-2.2-1.9-2.2c-1.1,0-1.9,0.9-1.9,2.2c0,1.3,0.7,2.2,1.9,2.2C123.1,241.5,123.8,240.6,123.8,239.2z"/>
		<path d="M127.3,236.3h0.8l0.1,1.4h0c0.6-0.9,1.5-1.5,2.6-1.5c0.4,0,0.8,0.1,1.2,0.2l-0.2,0.9c-0.4-0.1-0.6-0.2-1.1-0.2
			c-0.9,0-1.7,0.4-2.4,1.7v3.4h-1V236.3z"/>
		<path d="M83.4,252.2h5.2v0.7h-5.2V252.2z"/>
		<path d="M99.7,254.6v-5.8h-2.1V248h3.1v6.7c0,0.8,0.5,1.2,1.2,1.2c0.3,0,0.7-0.1,1.1-0.3l0.3,0.7c-0.5,0.2-0.9,0.3-1.6,0.3
			C100.4,256.7,99.7,256,99.7,254.6z"/>
		<path d="M104.8,253.6c0-1.9,1.4-3,3-3c1.7,0,2.7,1.1,2.7,2.7c0,0.2,0,0.4,0,0.6h-4.9v-0.8h4.3l-0.3,0.3c0-1.4-0.7-2.1-1.8-2.1
			c-1.1,0-2,0.8-2,2.3c0,1.5,1,2.3,2.3,2.3c0.7,0,1.2-0.2,1.8-0.6l0.4,0.6c-0.6,0.4-1.3,0.7-2.3,0.7
			C106.2,256.7,104.8,255.6,104.8,253.6z"/>
		<path d="M112.3,250.7h0.8l0.1,1h0c0.6-0.6,1.3-1.1,2.2-1.1c1.4,0,2,0.8,2,2.4v3.6h-1v-3.5c0-1.1-0.4-1.6-1.3-1.6
			c-0.7,0-1.2,0.3-1.8,1v4.1h-1V250.7z"/>
		<path d="M119.2,257.6c0-0.5,0.3-0.9,1-1.3v0c-0.3-0.2-0.6-0.5-0.6-1c0-0.4,0.3-0.8,0.7-1.1v0c-0.4-0.3-0.7-0.8-0.7-1.5
			c0-1.3,1.1-2.1,2.3-2.1c0.3,0,0.6,0,0.9,0.1h2.4v0.8h-1.5c0.3,0.3,0.5,0.7,0.5,1.2c0,1.2-1,2-2.3,2c-0.3,0-0.7-0.1-1-0.2
			c-0.3,0.2-0.5,0.4-0.5,0.7c0,0.5,0.4,0.7,1.2,0.7h1.3c1.5,0,2.2,0.4,2.2,1.4c0,1.1-1.3,2-3.2,2
			C120.2,259.2,119.2,258.6,119.2,257.6z M124.2,257.4c0-0.6-0.4-0.7-1.3-0.7h-1.1c-0.3,0-0.6,0-0.9-0.1c-0.6,0.3-0.7,0.6-0.7,1
			c0,0.6,0.7,1,1.9,1C123.3,258.5,124.2,258,124.2,257.4z M123.2,252.7c0-0.8-0.6-1.4-1.3-1.4c-0.7,0-1.3,0.6-1.3,1.4
			c0,0.8,0.6,1.4,1.3,1.4C122.6,254,123.2,253.5,123.2,252.7z"/>
		<path d="M128,254.3v-2.8h-1.7v-0.7l1.7-0.1l0.1-1.9h0.8v1.9h2.9v0.8H129v2.8c0,1,0.3,1.6,1.5,1.6c0.5,0,1-0.1,1.4-0.3l0.2,0.7
			c-0.5,0.2-1.1,0.3-1.8,0.3C128.6,256.7,128,255.7,128,254.3z"/>
		<path d="M133.9,248h1v2.3l-0.1,1.4h0c0.6-0.6,1.3-1.1,2.2-1.1c1.4,0,2,0.8,2,2.4v3.6h-1v-3.5c0-1.1-0.4-1.6-1.3-1.6
			c-0.7,0-1.2,0.3-1.8,1v4.1h-1V248z"/>
		<path d="M83.4,266.6h5.2v0.7h-5.2V266.6z"/>
		<path d="M96.8,265.1h1l0.7,3.4c0.1,0.6,0.2,1.1,0.3,1.6h0c0.1-0.6,0.2-1.1,0.3-1.6l0.7-3h1l0.7,3c0.1,0.6,0.3,1.1,0.4,1.6h0
			c0.1-0.6,0.2-1.1,0.3-1.6l0.7-3.4h0.9l-1.2,5.8h-1.3l-0.7-2.8c-0.1-0.4-0.2-1-0.3-1.7h0c-0.1,0.7-0.2,1.3-0.3,1.7l-0.6,2.8h-1.3
			L96.8,265.1z"/>
		<path d="M107.7,265.9H105v-0.8h3.7v5.8h-1V265.9z M107.3,263.1c0-0.5,0.3-0.8,0.8-0.8c0.5,0,0.8,0.3,0.8,0.8
			c0,0.5-0.3,0.8-0.8,0.8C107.7,263.9,107.3,263.6,107.3,263.1z"/>
		<path d="M111.9,268c0-1.9,1.3-3.1,2.6-3.1c0.7,0,1.2,0.3,1.8,0.7h0l0-1.1v-2.2h1v8.5h-0.8l-0.1-0.8h0c-0.5,0.5-1.2,0.9-1.9,0.9
			C112.9,271.1,111.9,270,111.9,268z M116.2,269.4v-2.9c-0.5-0.5-1-0.7-1.5-0.7c-1,0-1.8,0.9-1.8,2.2c0,1.4,0.6,2.2,1.7,2.2
			C115.2,270.3,115.7,270,116.2,269.4z"/>
		<path d="M120.8,268.7v-2.8h-1.7v-0.7l1.7-0.1l0.1-1.9h0.8v1.9h2.9v0.8h-2.9v2.8c0,1,0.3,1.6,1.5,1.6c0.5,0,1-0.1,1.4-0.3l0.2,0.7
			c-0.5,0.2-1.1,0.3-1.8,0.3C121.4,271.1,120.8,270.1,120.8,268.7z"/>
		<path d="M126.7,262.4h1v2.3l-0.1,1.4h0c0.6-0.6,1.3-1.1,2.2-1.1c1.4,0,2,0.8,2,2.4v3.6h-1v-3.5c0-1.1-0.4-1.6-1.3-1.6
			c-0.7,0-1.2,0.3-1.8,1v4.1h-1V262.4z"/>
	</g>
</g>
<rect x="64.5" y="285.1" class="st0" width="120" height="35.6"/>
<g>
	<g>
		<path d="M86.6,303.2h-2.2v-0.7h2.2v-2.3h0.8v2.3h2.2v0.7h-2.2v2.3h-0.8V303.2z"/>
		<path d="M98.6,307.9c0-0.5,0.3-0.9,1-1.3v0c-0.3-0.2-0.6-0.5-0.6-1c0-0.4,0.3-0.8,0.7-1.1v0c-0.4-0.3-0.7-0.8-0.7-1.5
			c0-1.3,1.1-2.1,2.3-2.1c0.3,0,0.6,0,0.9,0.1h2.4v0.8H103c0.3,0.3,0.5,0.7,0.5,1.2c0,1.2-1,2-2.3,2c-0.3,0-0.7-0.1-1-0.2
			c-0.3,0.2-0.5,0.4-0.5,0.7c0,0.5,0.4,0.7,1.2,0.7h1.3c1.5,0,2.2,0.4,2.2,1.4c0,1.1-1.3,2-3.2,2C99.6,309.5,98.6,308.9,98.6,307.9z
			 M103.6,307.6c0-0.6-0.4-0.7-1.3-0.7h-1.1c-0.3,0-0.6,0-0.9-0.1c-0.6,0.3-0.7,0.6-0.7,1c0,0.6,0.7,1,1.9,1
			C102.7,308.8,103.6,308.2,103.6,307.6z M102.6,302.9c0-0.8-0.6-1.4-1.3-1.4c-0.7,0-1.3,0.6-1.3,1.4c0,0.8,0.6,1.4,1.3,1.4
			C102,304.3,102.6,303.8,102.6,302.9z"/>
		<path d="M105.8,303.9c0-1.9,1.4-3,3-3c1.7,0,2.7,1.1,2.7,2.7c0,0.2,0,0.4,0,0.6h-4.9v-0.8h4.3l-0.3,0.3c0-1.4-0.7-2.1-1.8-2.1
			c-1.1,0-2,0.8-2,2.3c0,1.5,1,2.3,2.3,2.3c0.7,0,1.2-0.2,1.8-0.6l0.4,0.6c-0.6,0.4-1.3,0.7-2.3,0.7
			C107.2,307,105.8,305.8,105.8,303.9z"/>
		<path d="M114.6,304.5v-2.8H113V301l1.7-0.1l0.1-1.9h0.8v1.9h2.9v0.8h-2.9v2.8c0,1,0.3,1.6,1.5,1.6c0.5,0,1-0.1,1.4-0.3l0.2,0.7
			c-0.5,0.2-1.1,0.3-1.8,0.3C115.2,307,114.6,306,114.6,304.5z"/>
		<path d="M122.4,298.9h1.2l2.7,7.9h-1.1l-1.4-4.4c-0.3-0.9-0.5-1.7-0.8-2.7h0c-0.3,0.9-0.5,1.8-0.8,2.7l-1.4,4.4h-1L122.4,298.9z
			 M121.1,303.6h3.6v0.8h-3.6V303.6z"/>
		<path d="M128.3,301h0.8l0.1,1.4h0c0.6-0.9,1.5-1.5,2.6-1.5c0.4,0,0.8,0.1,1.2,0.2l-0.2,0.9c-0.4-0.1-0.6-0.2-1.1-0.2
			c-0.9,0-1.7,0.4-2.4,1.7v3.4h-1V301z"/>
		<path d="M134.6,303.9c0-1.9,1.4-3,3-3c1.7,0,2.7,1.1,2.7,2.7c0,0.2,0,0.4,0,0.6h-4.9v-0.8h4.3l-0.3,0.3c0-1.4-0.7-2.1-1.8-2.1
			c-1.1,0-2,0.8-2,2.3c0,1.5,1,2.3,2.3,2.3c0.7,0,1.2-0.2,1.8-0.6l0.4,0.6c-0.6,0.4-1.3,0.7-2.3,0.7
			C136,307,134.6,305.8,134.6,303.9z"/>
		<path d="M141.9,305.3c0-1.3,1.2-1.9,4.2-2.2c0-0.8-0.4-1.5-1.5-1.5c-0.8,0-1.5,0.4-2,0.7l-0.4-0.7c0.6-0.4,1.6-0.8,2.6-0.8
			c1.6,0,2.4,0.9,2.4,2.4v3.6h-0.8l-0.1-0.8h0c-0.6,0.5-1.5,0.9-2.3,0.9C142.8,307,141.9,306.3,141.9,305.3z M146.2,305.3v-1.5
			c-2.5,0.2-3.3,0.7-3.3,1.5c0,0.7,0.6,0.9,1.3,0.9C144.8,306.1,145.5,305.8,146.2,305.3z"/>
		<path d="M150.7,303.5c0-2.3,1-4.1,2.7-5.4l0.6,0.5c-1.6,1.4-2.4,2.9-2.4,4.9c0,2,0.7,3.6,2.4,4.9l-0.6,0.5
			C151.7,307.6,150.7,305.8,150.7,303.5z"/>
		<path d="M156.8,308.4c1.6-1.4,2.4-2.9,2.4-4.9c0-2-0.7-3.6-2.4-4.9l0.6-0.5c1.7,1.3,2.7,3.1,2.7,5.4c0,2.3-1,4.1-2.7,5.4
			L156.8,308.4z"/>
	</g>
</g>
<rect x="232.5" y="191.6" class="st0" width="120" height="29.2"/>
<text transform="matrix(1 0 0 1 279.9486 209.0409)" class="st1 st2">Circle</text>
<rect x="232.5" y="285.1" class="st0" width="120" height="35.6"/>
<g>
	<g>
		<path d="M254.5,303.2h-2.2v-0.7h2.2v-2.3h0.8v2.3h2.2v0.7h-2.2v2.3h-0.8V303.2z"/>
		<path d="M266.6,307.9c0-0.5,0.3-0.9,1-1.3v0c-0.3-0.2-0.6-0.5-0.6-1c0-0.4,0.3-0.8,0.7-1.1v0c-0.4-0.3-0.7-0.8-0.7-1.5
			c0-1.3,1.1-2.1,2.3-2.1c0.3,0,0.6,0,0.9,0.1h2.4v0.8h-1.5c0.3,0.3,0.5,0.7,0.5,1.2c0,1.2-1,2-2.3,2c-0.3,0-0.7-0.1-1-0.2
			c-0.3,0.2-0.5,0.4-0.5,0.7c0,0.5,0.4,0.7,1.2,0.7h1.3c1.5,0,2.2,0.4,2.2,1.4c0,1.1-1.3,2-3.2,2
			C267.5,309.5,266.6,308.9,266.6,307.9z M271.5,307.6c0-0.6-0.4-0.7-1.3-0.7H269c-0.3,0-0.6,0-0.9-0.1c-0.6,0.3-0.7,0.6-0.7,1
			c0,0.6,0.7,1,1.9,1C270.7,308.8,271.5,308.2,271.5,307.6z M270.5,302.9c0-0.8-0.6-1.4-1.3-1.4c-0.7,0-1.3,0.6-1.3,1.4
			c0,0.8,0.6,1.4,1.3,1.4C269.9,304.3,270.5,303.8,270.5,302.9z"/>
		<path d="M273.7,303.9c0-1.9,1.4-3,3-3c1.7,0,2.7,1.1,2.7,2.7c0,0.2,0,0.4,0,0.6h-4.9v-0.8h4.3l-0.3,0.3c0-1.4-0.7-2.1-1.8-2.1
			c-1.1,0-2,0.8-2,2.3c0,1.5,1,2.3,2.3,2.3c0.7,0,1.2-0.2,1.8-0.6l0.4,0.6c-0.6,0.4-1.3,0.7-2.3,0.7
			C275.1,307,273.7,305.8,273.7,303.9z"/>
		<path d="M282.6,304.5v-2.8h-1.7V301l1.7-0.1l0.1-1.9h0.8v1.9h2.9v0.8h-2.9v2.8c0,1,0.3,1.6,1.5,1.6c0.5,0,1-0.1,1.4-0.3l0.2,0.7
			c-0.5,0.2-1.1,0.3-1.8,0.3C283.1,307,282.6,306,282.6,304.5z"/>
		<path d="M290.3,298.9h1.2l2.7,7.9H293l-1.4-4.4c-0.3-0.9-0.5-1.7-0.8-2.7h0c-0.3,0.9-0.5,1.8-0.8,2.7l-1.4,4.4h-1L290.3,298.9z
			 M289.1,303.6h3.6v0.8h-3.6V303.6z"/>
		<path d="M296.2,301h0.8l0.1,1.4h0c0.6-0.9,1.5-1.5,2.6-1.5c0.4,0,0.8,0.1,1.2,0.2l-0.2,0.9c-0.4-0.1-0.6-0.2-1.1-0.2
			c-0.9,0-1.7,0.4-2.4,1.7v3.4h-1V301z"/>
		<path d="M302.5,303.9c0-1.9,1.4-3,3-3c1.7,0,2.7,1.1,2.7,2.7c0,0.2,0,0.4,0,0.6h-4.9v-0.8h4.3l-0.3,0.3c0-1.4-0.7-2.1-1.8-2.1
			c-1.1,0-2,0.8-2,2.3c0,1.5,1,2.3,2.3,2.3c0.7,0,1.2-0.2,1.8-0.6l0.4,0.6c-0.6,0.4-1.3,0.7-2.3,0.7
			C303.9,307,302.5,305.8,302.5,303.9z"/>
		<path d="M309.9,305.3c0-1.3,1.2-1.9,4.2-2.2c0-0.8-0.4-1.5-1.5-1.5c-0.8,0-1.5,0.4-2,0.7l-0.4-0.7c0.6-0.4,1.6-0.8,2.6-0.8
			c1.6,0,2.4,0.9,2.4,2.4v3.6h-0.8l-0.1-0.8h0c-0.6,0.5-1.5,0.9-2.3,0.9C310.7,307,309.9,306.3,309.9,305.3z M314.1,305.3v-1.5
			c-2.5,0.2-3.2,0.7-3.2,1.5c0,0.7,0.6,0.9,1.3,0.9C312.8,306.1,313.4,305.8,314.1,305.3z"/>
		<path d="M318.6,303.5c0-2.3,1-4.1,2.7-5.4l0.6,0.5c-1.6,1.4-2.4,2.9-2.4,4.9c0,2,0.7,3.6,2.4,4.9l-0.6,0.5
			C319.6,307.6,318.6,305.8,318.6,303.5z"/>
		<path d="M324.8,308.4c1.6-1.4,2.4-2.9,2.4-4.9c0-2-0.7-3.6-2.4-4.9l0.6-0.5c1.7,1.3,2.7,3.1,2.7,5.4c0,2.3-1,4.1-2.7,5.4
			L324.8,308.4z"/>
	</g>
</g>
<rect x="400.5" y="191.6" class="st0" width="120" height="29.2"/>
<text transform="matrix(1 0 0 1 441.2119 209.0409)" class="st1 st2">Triangle</text>
<rect x="400.4" y="285.1" class="st0" width="120" height="35.6"/>
<g>
	<g>
		<path d="M422.4,303.2h-2.2v-0.7h2.2v-2.3h0.8v2.3h2.2v0.7h-2.2v2.3h-0.8V303.2z"/>
		<path d="M434.5,307.9c0-0.5,0.3-0.9,1-1.3v0c-0.3-0.2-0.6-0.5-0.6-1c0-0.4,0.3-0.8,0.7-1.1v0c-0.4-0.3-0.7-0.8-0.7-1.5
			c0-1.3,1.1-2.1,2.3-2.1c0.3,0,0.6,0,0.9,0.1h2.4v0.8h-1.5c0.3,0.3,0.5,0.7,0.5,1.2c0,1.2-1,2-2.3,2c-0.3,0-0.7-0.1-1-0.2
			c-0.3,0.2-0.5,0.4-0.5,0.7c0,0.5,0.4,0.7,1.2,0.7h1.3c1.5,0,2.2,0.4,2.2,1.4c0,1.1-1.3,2-3.2,2
			C435.5,309.5,434.5,308.9,434.5,307.9z M439.4,307.6c0-0.6-0.4-0.7-1.3-0.7H437c-0.3,0-0.6,0-0.9-0.1c-0.6,0.3-0.7,0.6-0.7,1
			c0,0.6,0.7,1,1.9,1C438.6,308.8,439.4,308.2,439.4,307.6z M438.5,302.9c0-0.8-0.6-1.4-1.3-1.4c-0.7,0-1.3,0.6-1.3,1.4
			c0,0.8,0.6,1.4,1.3,1.4C437.9,304.3,438.5,303.8,438.5,302.9z"/>
		<path d="M441.6,303.9c0-1.9,1.4-3,3-3c1.7,0,2.7,1.1,2.7,2.7c0,0.2,0,0.4,0,0.6h-4.9v-0.8h4.3l-0.3,0.3c0-1.4-0.7-2.1-1.8-2.1
			c-1.1,0-2,0.8-2,2.3c0,1.5,1,2.3,2.3,2.3c0.7,0,1.2-0.2,1.8-0.6l0.4,0.6c-0.6,0.4-1.3,0.7-2.3,0.7
			C443,307,441.6,305.8,441.6,303.9z"/>
		<path d="M450.5,304.5v-2.8h-1.7V301l1.7-0.1l0.1-1.9h0.8v1.9h2.9v0.8h-2.9v2.8c0,1,0.3,1.6,1.5,1.6c0.5,0,1-0.1,1.4-0.3l0.2,0.7
			c-0.5,0.2-1.1,0.3-1.8,0.3C451,307,450.5,306,450.5,304.5z"/>
		<path d="M458.2,298.9h1.2l2.7,7.9H461l-1.4-4.4c-0.3-0.9-0.5-1.7-0.8-2.7h0c-0.3,0.9-0.5,1.8-0.8,2.7l-1.4,4.4h-1L458.2,298.9z
			 M457,303.6h3.6v0.8H457V303.6z"/>
		<path d="M464.2,301h0.8l0.1,1.4h0c0.6-0.9,1.5-1.5,2.6-1.5c0.4,0,0.8,0.1,1.2,0.2l-0.2,0.9c-0.4-0.1-0.6-0.2-1.1-0.2
			c-0.9,0-1.7,0.4-2.4,1.7v3.4h-1V301z"/>
		<path d="M470.4,303.9c0-1.9,1.4-3,3-3c1.7,0,2.7,1.1,2.7,2.7c0,0.2,0,0.4,0,0.6h-4.9v-0.8h4.3l-0.3,0.3c0-1.4-0.7-2.1-1.8-2.1
			c-1.1,0-2,0.8-2,2.3c0,1.5,1,2.3,2.3,2.3c0.7,0,1.2-0.2,1.8-0.6l0.4,0.6c-0.6,0.4-1.3,0.7-2.3,0.7
			C471.8,307,470.4,305.8,470.4,303.9z"/>
		<path d="M477.8,305.3c0-1.3,1.2-1.9,4.2-2.2c0-0.8-0.4-1.5-1.5-1.5c-0.8,0-1.5,0.4-2,0.7l-0.4-0.7c0.6-0.4,1.6-0.8,2.6-0.8
			c1.6,0,2.4,0.9,2.4,2.4v3.6h-0.8l-0.1-0.8h0c-0.6,0.5-1.5,0.9-2.3,0.9C478.7,307,477.8,306.3,477.8,305.3z M482,305.3v-1.5
			c-2.5,0.2-3.3,0.7-3.3,1.5c0,0.7,0.6,0.9,1.3,0.9C480.7,306.1,481.3,305.8,482,305.3z"/>
		<path d="M486.5,303.5c0-2.3,1-4.1,2.7-5.4l0.6,0.5c-1.6,1.4-2.4,2.9-2.4,4.9c0,2,0.7,3.6,2.4,4.9l-0.6,0.5
			C487.5,307.6,486.5,305.8,486.5,303.5z"/>
		<path d="M492.7,308.4c1.6-1.4,2.4-2.9,2.4-4.9c0-2-0.7-3.6-2.4-4.9l0.6-0.5c1.7,1.3,2.7,3.1,2.7,5.4c0,2.3-1,4.1-2.7,5.4
			L492.7,308.4z"/>
	</g>
</g>
<line class="st3" x1="124.6" y1="157.2" x2="467.8" y2="157.2"/>
<line class="st3" x1="124.6" y1="191.6" x2="124.6" y2="157.2"/>
<line class="st3" x1="292.5" y1="191.6" x2="292.5" y2="157.2"/>
<line class="st3" x1="467.8" y1="191.6" x2="467.8" y2="157.2"/>
<line class="st3" x1="292.5" y1="157.2" x2="292.5" y2="122.8"/>
<rect x="232.5" y="220.7" class="st0" width="120" height="64.3"/>
<g>
	<g>
		<path d="M251.3,237.8h5.2v0.7h-5.2V237.8z"/>
		<path d="M265.6,239.2c0-2,1.5-3.1,3.2-3.1c0.9,0,1.6,0.4,2.1,0.9l-0.5,0.6c-0.5-0.4-1-0.7-1.6-0.7c-1.3,0-2.3,0.9-2.3,2.2
			c0,1.3,0.9,2.2,2.2,2.2c0.7,0,1.3-0.3,1.8-0.7l0.4,0.6c-0.6,0.6-1.5,0.9-2.3,0.9C267,242.3,265.6,241.2,265.6,239.2z"/>
		<path d="M272.6,239.2c0-2,1.3-3.1,2.9-3.1s2.9,1.1,2.9,3.1c0,1.9-1.3,3-2.9,3S272.6,241.2,272.6,239.2z M277.3,239.2
			c0-1.3-0.7-2.2-1.9-2.2s-1.9,0.9-1.9,2.2c0,1.3,0.7,2.2,1.9,2.2S277.3,240.6,277.3,239.2z"/>
		<path d="M282,240.2v-5.8H280v-0.8h3.1v6.7c0,0.8,0.5,1.2,1.2,1.2c0.3,0,0.7-0.1,1.1-0.3l0.3,0.7c-0.5,0.2-0.9,0.3-1.6,0.3
			C282.7,242.3,282,241.6,282,240.2z"/>
		<path d="M287,239.2c0-2,1.3-3.1,2.9-3.1s2.9,1.1,2.9,3.1c0,1.9-1.3,3-2.9,3S287,241.2,287,239.2z M291.7,239.2
			c0-1.3-0.7-2.2-1.9-2.2c-1.1,0-1.9,0.9-1.9,2.2c0,1.3,0.7,2.2,1.9,2.2C291,241.5,291.7,240.6,291.7,239.2z"/>
		<path d="M295.2,236.3h0.8l0.1,1.4h0c0.6-0.9,1.5-1.5,2.6-1.5c0.4,0,0.8,0.1,1.2,0.2l-0.2,0.9c-0.4-0.1-0.6-0.2-1.1-0.2
			c-0.9,0-1.7,0.4-2.4,1.7v3.4h-1V236.3z"/>
		<path d="M251.3,252.2h5.2v0.7h-5.2V252.2z"/>
		<path d="M266.4,250.7h0.8l0.1,1.4h0c0.6-0.9,1.5-1.5,2.6-1.5c0.4,0,0.8,0.1,1.2,0.2l-0.2,0.9c-0.4-0.1-0.6-0.2-1.1-0.2
			c-0.9,0-1.7,0.4-2.4,1.7v3.4h-1V250.7z"/>
		<path d="M272.8,255c0-1.3,1.2-1.9,4.2-2.2c0-0.8-0.4-1.5-1.5-1.5c-0.8,0-1.5,0.4-2,0.7l-0.4-0.7c0.6-0.4,1.6-0.8,2.6-0.8
			c1.6,0,2.4,0.9,2.4,2.4v3.6h-0.8l-0.1-0.8h0c-0.6,0.5-1.5,0.9-2.3,0.9C273.7,256.7,272.8,256.1,272.8,255z M277.1,255v-1.5
			c-2.5,0.2-3.3,0.7-3.3,1.5c0,0.7,0.6,0.9,1.3,0.9C275.7,255.9,276.4,255.6,277.1,255z"/>
		<path d="M279.8,253.6c0-1.9,1.3-3.1,2.6-3.1c0.7,0,1.2,0.3,1.8,0.7h0l0-1.1V248h1v8.5h-0.8l-0.1-0.8h0c-0.5,0.5-1.2,0.9-1.9,0.9
			C280.8,256.7,279.8,255.6,279.8,253.6z M284.2,255v-2.9c-0.5-0.5-1-0.7-1.5-0.7c-1,0-1.8,0.9-1.8,2.2c0,1.4,0.6,2.2,1.7,2.2
			C283.1,255.9,283.6,255.6,284.2,255z"/>
		<path d="M290,251.5h-2.7v-0.8h3.7v5.8h-1V251.5z M289.7,248.7c0-0.5,0.3-0.8,0.8-0.8s0.8,0.3,0.8,0.8c0,0.5-0.3,0.8-0.8,0.8
			S289.7,249.2,289.7,248.7z"/>
		<path d="M294.4,254.3v-3.6h1v3.5c0,1.1,0.4,1.6,1.3,1.6c0.7,0,1.2-0.3,1.8-1.1v-4h1v5.8h-0.8l-0.1-1h0c-0.6,0.7-1.3,1.2-2.2,1.2
			C295,256.7,294.4,255.9,294.4,254.3z"/>
		<path d="M301.5,255.8l0.5-0.7c0.7,0.5,1.5,0.8,2.5,0.8c1,0,1.5-0.4,1.5-0.9c0-0.4-0.2-0.8-1.8-1.1c-1.5-0.3-2.3-0.8-2.3-1.7
			c0-0.9,0.8-1.7,2.4-1.7c0.9,0,1.8,0.3,2.4,0.7l-0.5,0.6c-0.5-0.4-1.2-0.6-2-0.6c-1,0-1.3,0.4-1.3,0.8c0,0.5,0.5,0.7,1.7,1
			c1.9,0.4,2.4,0.9,2.4,1.8c0,0.9-0.9,1.7-2.6,1.7C303.2,256.7,302.2,256.3,301.5,255.8z"/>
	</g>
</g>
<rect x="400.4" y="220.7" class="st0" width="120" height="64.3"/>
<g>
	<g>
		<path d="M419.2,237.8h5.2v0.7h-5.2V237.8z"/>
		<path d="M433.6,239.2c0-2,1.5-3.1,3.2-3.1c0.9,0,1.6,0.4,2.1,0.9l-0.5,0.6c-0.5-0.4-1-0.7-1.6-0.7c-1.3,0-2.3,0.9-2.3,2.2
			c0,1.3,0.9,2.2,2.2,2.2c0.7,0,1.3-0.3,1.8-0.7l0.4,0.6c-0.6,0.6-1.5,0.9-2.3,0.9C434.9,242.3,433.6,241.2,433.6,239.2z"/>
		<path d="M440.5,239.2c0-2,1.3-3.1,2.9-3.1s2.9,1.1,2.9,3.1c0,1.9-1.3,3-2.9,3S440.5,241.2,440.5,239.2z M445.3,239.2
			c0-1.3-0.7-2.2-1.9-2.2c-1.1,0-1.9,0.9-1.9,2.2c0,1.3,0.7,2.2,1.9,2.2C444.5,241.5,445.3,240.6,445.3,239.2z"/>
		<path d="M449.9,240.2v-5.8h-2.1v-0.8h3.1v6.7c0,0.8,0.5,1.2,1.2,1.2c0.3,0,0.7-0.1,1.1-0.3l0.3,0.7c-0.5,0.2-0.9,0.3-1.6,0.3
			C450.6,242.3,449.9,241.6,449.9,240.2z"/>
		<path d="M454.9,239.2c0-2,1.3-3.1,2.9-3.1s2.9,1.1,2.9,3.1c0,1.9-1.3,3-2.9,3S454.9,241.2,454.9,239.2z M459.7,239.2
			c0-1.3-0.7-2.2-1.9-2.2s-1.9,0.9-1.9,2.2c0,1.3,0.7,2.2,1.9,2.2S459.7,240.6,459.7,239.2z"/>
		<path d="M463.1,236.3h0.8l0.1,1.4h0c0.6-0.9,1.5-1.5,2.6-1.5c0.4,0,0.8,0.1,1.2,0.2l-0.2,0.9c-0.4-0.1-0.6-0.2-1.1-0.2
			c-0.9,0-1.7,0.4-2.4,1.7v3.4h-1V236.3z"/>
		<path d="M419.2,252.2h5.2v0.7h-5.2V252.2z"/>
		<path d="M434.6,255.9L434.6,255.9l-0.1,0.6h-0.8V248h1v2.3l0,1.1h0c0.5-0.5,1.3-0.9,2-0.9c1.6,0,2.4,1.2,2.4,3
			c0,2-1.2,3.2-2.6,3.2C435.9,256.7,435.2,256.4,434.6,255.9z M438.1,253.6c0-1.3-0.5-2.1-1.6-2.1c-0.5,0-1.1,0.3-1.7,0.9v2.9
			c0.5,0.5,1.2,0.7,1.6,0.7C437.3,255.9,438.1,255,438.1,253.6z"/>
		<path d="M440.8,255c0-1.3,1.2-1.9,4.2-2.2c0-0.8-0.4-1.5-1.5-1.5c-0.8,0-1.5,0.4-2,0.7l-0.4-0.7c0.6-0.4,1.6-0.8,2.6-0.8
			c1.6,0,2.4,0.9,2.4,2.4v3.6h-0.8l-0.1-0.8h0c-0.6,0.5-1.5,0.9-2.3,0.9C441.7,256.7,440.8,256.1,440.8,255z M445,255v-1.5
			c-2.5,0.2-3.2,0.7-3.2,1.5c0,0.7,0.6,0.9,1.3,0.9C443.7,255.9,444.3,255.6,445,255z"/>
		<path d="M447.8,255.8l0.5-0.7c0.7,0.5,1.5,0.8,2.5,0.8c1,0,1.5-0.4,1.5-0.9c0-0.4-0.2-0.8-1.8-1.1c-1.5-0.3-2.3-0.8-2.3-1.7
			c0-0.9,0.8-1.7,2.4-1.7c0.9,0,1.8,0.3,2.4,0.7l-0.5,0.6c-0.5-0.4-1.2-0.6-2-0.6c-1,0-1.3,0.4-1.3,0.8c0,0.5,0.5,0.7,1.7,1
			c1.9,0.4,2.4,0.9,2.4,1.8c0,0.9-0.9,1.7-2.6,1.7C449.6,256.7,448.6,256.3,447.8,255.8z"/>
		<path d="M455,253.6c0-1.9,1.4-3,3-3c1.7,0,2.7,1.1,2.7,2.7c0,0.2,0,0.4,0,0.6h-4.9v-0.8h4.3l-0.3,0.3c0-1.4-0.7-2.1-1.8-2.1
			c-1.1,0-2,0.8-2,2.3c0,1.5,1,2.3,2.3,2.3c0.7,0,1.2-0.2,1.8-0.6l0.4,0.6c-0.6,0.4-1.3,0.7-2.3,0.7
			C456.4,256.7,455,255.6,455,253.6z"/>
		<path d="M419.2,266.6h5.2v0.7h-5.2V266.6z"/>
		<path d="M433.7,262.4h1v2.3l-0.1,1.4h0c0.6-0.6,1.3-1.1,2.2-1.1c1.4,0,2,0.8,2,2.4v3.6h-1v-3.5c0-1.1-0.4-1.6-1.3-1.6
			c-0.7,0-1.2,0.3-1.8,1v4.1h-1V262.4z"/>
		<path d="M440.6,268c0-1.9,1.4-3,3-3c1.7,0,2.7,1.1,2.7,2.7c0,0.2,0,0.4,0,0.6h-4.9v-0.8h4.3l-0.3,0.3c0-1.4-0.7-2.1-1.8-2.1
			c-1.1,0-2,0.8-2,2.3c0,1.5,1,2.3,2.3,2.3c0.7,0,1.2-0.2,1.8-0.6l0.4,0.6c-0.6,0.4-1.3,0.7-2.3,0.7C442,271.1,440.6,270,440.6,268z
			"/>
		<path d="M450.8,265.9h-2.7v-0.8h3.7v5.8h-1V265.9z M450.4,263.1c0-0.5,0.3-0.8,0.8-0.8s0.8,0.3,0.8,0.8c0,0.5-0.3,0.8-0.8,0.8
			S450.4,263.6,450.4,263.1z"/>
		<path d="M455.1,272c0-0.5,0.3-0.9,1-1.3v0c-0.3-0.2-0.6-0.5-0.6-1c0-0.4,0.3-0.8,0.7-1.1v0c-0.4-0.3-0.7-0.8-0.7-1.5
			c0-1.3,1.1-2.1,2.3-2.1c0.3,0,0.6,0,0.9,0.1h2.4v0.8h-1.5c0.3,0.3,0.5,0.7,0.5,1.2c0,1.2-1,2-2.3,2c-0.3,0-0.7-0.1-1-0.2
			c-0.3,0.2-0.5,0.4-0.5,0.7c0,0.5,0.4,0.7,1.2,0.7h1.3c1.5,0,2.2,0.4,2.2,1.4c0,1.1-1.3,2-3.2,2C456,273.6,455.1,273,455.1,272z
			 M460,271.8c0-0.6-0.4-0.7-1.3-0.7h-1.1c-0.3,0-0.6,0-0.9-0.1c-0.6,0.3-0.7,0.6-0.7,1c0,0.6,0.7,1,1.9,1
			C459.2,272.9,460,272.4,460,271.8z M459,267.1c0-0.8-0.6-1.4-1.3-1.4c-0.7,0-1.3,0.6-1.3,1.4c0,0.8,0.6,1.4,1.3,1.4
			C458.4,268.4,459,267.9,459,267.1z"/>
		<path d="M462.5,262.4h1v2.3l-0.1,1.4h0c0.6-0.6,1.3-1.1,2.2-1.1c1.4,0,2,0.8,2,2.4v3.6h-1v-3.5c0-1.1-0.4-1.6-1.3-1.6
			c-0.7,0-1.2,0.3-1.8,1v4.1h-1V262.4z"/>
		<path d="M471.1,268.7v-2.8h-1.7v-0.7l1.7-0.1l0.1-1.9h0.8v1.9h2.9v0.8h-2.9v2.8c0,1,0.3,1.6,1.5,1.6c0.5,0,1-0.1,1.4-0.3l0.2,0.7
			c-0.5,0.2-1.1,0.3-1.8,0.3C471.6,271.1,471.1,270.1,471.1,268.7z"/>
	</g>
</g>
</svg>
