<?xml version="1.0" encoding="utf-8"?>
<!-- Generator: Adobe Illustrator 26.0.1, SVG Export Plug-In . SVG Version: 6.00 Build 0)  -->
<svg version="1.1" id="Layer_1" xmlns="http://www.w3.org/2000/svg" xmlns:xlink="http://www.w3.org/1999/xlink" x="0px" y="0px"
	 viewBox="0 0 585 313.7" style="enable-background:new 0 0 585 313.7;" xml:space="preserve">
<style type="text/css">
	.st0{fill:#C0E4EE;stroke:#000000;stroke-miterlimit:10;}
	.st1{font-family:'Arial-BoldMT';}
	.st2{font-size:12px;}
	.st3{fill:#DADADA;stroke:#000000;stroke-miterlimit:10;}
	.st4{fill:none;stroke:#00983A;stroke-width:4;stroke-miterlimit:10;}
	.st5{fill:#00983A;}
	.st6{fill:none;stroke:#E30613;stroke-width:4;stroke-miterlimit:10;}
	.st7{fill:#E30613;}
</style>
<rect x="46.7" y="16.3" class="st0" width="223" height="29.2"/>
<text transform="matrix(1 0 0 1 148.156 33.8137)" class="st1 st2">Car</text>
<rect x="46.6" y="123" class="st0" width="223" height="82.1"/>
<g>
	<g>
		<path d="M66.2,143.2H64v-0.7h2.2v-2.3H67v2.3h2.2v0.7H67v2.3h-0.8V143.2z"/>
		<path d="M78.6,141l1.7-0.1h3.4v0.8h-5.1V141z M80.3,140.5c0-1.4,0.7-2.4,2.4-2.4c0.6,0,1.1,0.1,1.7,0.3l-0.2,0.7
			c-0.5-0.2-0.9-0.3-1.4-0.3c-1,0-1.5,0.6-1.5,1.5v6.4h-1V140.5z"/>
		<path d="M88.4,141.8h-2.7V141h3.7v5.8h-1V141.8z M88,139c0-0.5,0.3-0.8,0.8-0.8c0.5,0,0.8,0.3,0.8,0.8c0,0.5-0.3,0.8-0.8,0.8
			C88.3,139.8,88,139.5,88,139z"/>
		<path d="M94.7,144.8v-5.8h-2.1v-0.8h3.1v6.7c0,0.8,0.5,1.2,1.2,1.2c0.3,0,0.7-0.1,1.1-0.3l0.3,0.7c-0.5,0.2-0.9,0.3-1.6,0.3
			C95.4,146.9,94.7,146.2,94.7,144.8z"/>
		<path d="M101.9,144.8v-5.8h-2.1v-0.8h3.1v6.7c0,0.8,0.5,1.2,1.2,1.2c0.3,0,0.7-0.1,1.1-0.3l0.3,0.7c-0.5,0.2-0.9,0.3-1.6,0.3
			C102.6,146.9,101.9,146.2,101.9,144.8z"/>
		<path d="M106.9,147.6h5.8v0.9h-5.8V147.6z"/>
		<path d="M114.6,141l1.7-0.1h3.4v0.8h-5.1V141z M116.3,140.5c0-1.4,0.7-2.4,2.4-2.4c0.6,0,1.1,0.1,1.7,0.3l-0.2,0.7
			c-0.5-0.2-0.9-0.3-1.4-0.3c-1,0-1.5,0.6-1.5,1.5v6.4h-1V140.5z"/>
		<path d="M121.5,144.6V141h1v3.5c0,1.1,0.4,1.6,1.3,1.6c0.7,0,1.2-0.3,1.8-1.1v-4h1v5.8h-0.8l-0.1-1h0c-0.6,0.7-1.3,1.2-2.2,1.2
			C122.1,146.9,121.5,146.1,121.5,144.6z"/>
		<path d="M128.6,143.9c0-1.9,1.4-3,3-3c1.7,0,2.7,1.1,2.7,2.7c0,0.2,0,0.4,0,0.6h-4.9v-0.8h4.3l-0.3,0.3c0-1.4-0.7-2.1-1.8-2.1
			c-1.1,0-2,0.8-2,2.3c0,1.5,1,2.3,2.3,2.3c0.7,0,1.2-0.2,1.8-0.6l0.4,0.6c-0.6,0.4-1.3,0.7-2.3,0.7
			C130,146.9,128.6,145.8,128.6,143.9z"/>
		<path d="M137.9,144.8v-5.8h-2.1v-0.8h3.1v6.7c0,0.8,0.5,1.2,1.2,1.2c0.3,0,0.7-0.1,1.1-0.3l0.3,0.7c-0.5,0.2-0.9,0.3-1.6,0.3
			C138.6,146.9,137.9,146.2,137.9,144.8z"/>
		<path d="M144.7,143.5c0-2.3,1-4.1,2.7-5.4l0.6,0.5c-1.6,1.4-2.4,2.9-2.4,4.9c0,2,0.7,3.6,2.4,4.9l-0.6,0.5
			C145.7,147.6,144.7,145.8,144.7,143.5z"/>
		<path d="M150.9,148.4c1.6-1.4,2.4-2.9,2.4-4.9c0-2-0.7-3.6-2.4-4.9l0.6-0.5c1.7,1.3,2.7,3.1,2.7,5.4c0,2.3-1,4.1-2.7,5.4
			L150.9,148.4z"/>
		<path d="M66.2,157.6H64v-0.7h2.2v-2.3H67v2.3h2.2v0.7H67v2.3h-0.8V157.6z"/>
		<path d="M78.4,158.3c0-2,1.5-3.1,3.2-3.1c0.9,0,1.6,0.4,2.1,0.9l-0.5,0.6c-0.5-0.4-1-0.7-1.6-0.7c-1.3,0-2.3,0.9-2.3,2.2
			c0,1.3,0.9,2.2,2.2,2.2c0.7,0,1.3-0.3,1.8-0.7l0.4,0.6c-0.6,0.6-1.5,0.9-2.3,0.9C79.7,161.3,78.4,160.2,78.4,158.3z"/>
		<path d="M86.3,155.4h0.8l0.1,1.4h0c0.6-0.9,1.5-1.5,2.6-1.5c0.4,0,0.8,0.1,1.2,0.2l-0.2,0.9c-0.4-0.1-0.6-0.2-1.1-0.2
			c-0.9,0-1.7,0.4-2.4,1.7v3.4h-1V155.4z"/>
		<path d="M92.6,158.3c0-1.9,1.4-3,3-3c1.7,0,2.7,1.1,2.7,2.7c0,0.2,0,0.4,0,0.6h-4.9v-0.8h4.3l-0.3,0.3c0-1.4-0.7-2.1-1.8-2.1
			c-1.1,0-2,0.8-2,2.3c0,1.5,1,2.3,2.3,2.3c0.7,0,1.2-0.2,1.8-0.6l0.4,0.6c-0.6,0.4-1.3,0.7-2.3,0.7C94,161.3,92.6,160.2,92.6,158.3
			z"/>
		<path d="M100,159.7c0-1.3,1.2-1.9,4.2-2.2c0-0.8-0.4-1.5-1.5-1.5c-0.8,0-1.5,0.4-2,0.7l-0.4-0.7c0.6-0.4,1.6-0.8,2.6-0.8
			c1.6,0,2.4,0.9,2.4,2.4v3.6h-0.8l-0.1-0.8h0c-0.6,0.5-1.5,0.9-2.3,0.9C100.8,161.3,100,160.7,100,159.7z M104.2,159.7v-1.5
			c-2.5,0.2-3.3,0.7-3.3,1.5c0,0.7,0.6,0.9,1.3,0.9C102.9,160.5,103.5,160.2,104.2,159.7z"/>
		<path d="M108.7,158.9v-2.8H107v-0.7l1.7-0.1l0.1-1.9h0.8v1.9h2.9v0.8h-2.9v2.8c0,1,0.3,1.6,1.5,1.6c0.5,0,1-0.1,1.4-0.3l0.2,0.7
			c-0.5,0.2-1.1,0.3-1.8,0.3C109.2,161.3,108.7,160.4,108.7,158.9z"/>
		<path d="M114.2,158.3c0-1.9,1.4-3,3-3c1.7,0,2.7,1.1,2.7,2.7c0,0.2,0,0.4,0,0.6h-4.9v-0.8h4.3l-0.3,0.3c0-1.4-0.7-2.1-1.8-2.1
			c-1.1,0-2,0.8-2,2.3c0,1.5,1,2.3,2.3,2.3c0.7,0,1.2-0.2,1.8-0.6l0.4,0.6c-0.6,0.4-1.3,0.7-2.3,0.7
			C115.6,161.3,114.2,160.2,114.2,158.3z"/>
		<path d="M121.3,162h5.8v0.9h-5.8V162z"/>
		<path d="M128.6,160.4l0.5-0.7c0.7,0.5,1.5,0.8,2.5,0.8c1,0,1.5-0.4,1.5-0.9c0-0.4-0.2-0.8-1.8-1.1c-1.5-0.3-2.3-0.8-2.3-1.7
			c0-0.9,0.8-1.7,2.4-1.7c0.9,0,1.8,0.3,2.4,0.7l-0.5,0.6c-0.5-0.4-1.2-0.6-2-0.6c-1,0-1.3,0.4-1.3,0.8c0,0.5,0.5,0.7,1.7,1
			c1.9,0.4,2.4,0.9,2.4,1.8c0,0.9-0.9,1.7-2.6,1.7C130.4,161.3,129.3,160.9,128.6,160.4z"/>
		<path d="M136.1,155.4h0.8l0.1,0.7h0c0.5-0.5,1.3-0.9,2-0.9c1.6,0,2.4,1.2,2.4,3c0,2-1.2,3.1-2.7,3.1c-0.5,0-1.2-0.3-1.7-0.8h0
			l0,1.1v2h-1V155.4z M140.4,158.2c0-1.3-0.5-2.1-1.6-2.1c-0.5,0-1.1,0.3-1.7,0.9v2.9c0.5,0.5,1.2,0.7,1.5,0.7
			C139.7,160.5,140.4,159.6,140.4,158.2z"/>
		<path d="M143.2,159.7c0-1.3,1.2-1.9,4.2-2.2c0-0.8-0.4-1.5-1.5-1.5c-0.8,0-1.5,0.4-2,0.7l-0.4-0.7c0.6-0.4,1.6-0.8,2.6-0.8
			c1.6,0,2.4,0.9,2.4,2.4v3.6h-0.8l-0.1-0.8h0c-0.6,0.5-1.5,0.9-2.3,0.9C144.1,161.3,143.2,160.7,143.2,159.7z M147.4,159.7v-1.5
			c-2.5,0.2-3.2,0.7-3.2,1.5c0,0.7,0.6,0.9,1.3,0.9C146.1,160.5,146.7,160.2,147.4,159.7z"/>
		<path d="M151.1,155.4h0.8l0.1,1.4h0c0.6-0.9,1.5-1.5,2.6-1.5c0.4,0,0.8,0.1,1.2,0.2l-0.2,0.9c-0.4-0.1-0.6-0.2-1.1-0.2
			c-0.9,0-1.7,0.4-2.4,1.7v3.4h-1V155.4z"/>
		<path d="M157.9,152.7h1v5.8h0l3.1-3.1h1.1l-4.3,4.2v1.6h-1V152.7z M160.1,158.1l0.6-0.6l2.8,3.7h-1.1L160.1,158.1z"/>
		<path d="M166.3,157.9c0-2.3,1-4.1,2.7-5.4l0.6,0.5c-1.6,1.4-2.4,2.9-2.4,4.9c0,2,0.7,3.6,2.4,4.9l-0.6,0.5
			C167.3,162,166.3,160.2,166.3,157.9z"/>
		<path d="M172.5,162.8c1.6-1.4,2.4-2.9,2.4-4.9c0-2-0.7-3.6-2.4-4.9l0.6-0.5c1.7,1.3,2.7,3.1,2.7,5.4c0,2.3-1,4.1-2.7,5.4
			L172.5,162.8z"/>
		<path d="M66.2,172H64v-0.7h2.2v-2.3H67v2.3h2.2v0.7H67v2.3h-0.8V172z"/>
		<path d="M78.1,169.8h0.8l0.1,0.8h0c0.3-0.5,0.7-0.9,1.3-0.9c0.6,0,0.9,0.3,1.1,1c0.3-0.6,0.7-1,1.4-1c0.8,0,1.3,0.6,1.3,1.8v4.2
			h-1v-4.1c0-0.7-0.2-1-0.6-1c-0.4,0-0.6,0.3-0.9,0.9v4.2h-0.9v-4.1c0-0.7-0.2-1-0.6-1c-0.4,0-0.7,0.3-1,0.9v4.2h-1V169.8z"/>
		<path d="M85.3,172.7c0-2,1.3-3.1,2.9-3.1s2.9,1.1,2.9,3.1c0,1.9-1.3,3-2.9,3S85.3,174.6,85.3,172.7z M90,172.7
			c0-1.3-0.7-2.2-1.9-2.2c-1.1,0-1.9,0.9-1.9,2.2c0,1.3,0.7,2.2,1.9,2.2C89.3,174.9,90,174,90,172.7z"/>
		<path d="M92.4,169.8h1l1.3,3.3c0.2,0.6,0.4,1.2,0.6,1.7h0c0.2-0.6,0.4-1.1,0.6-1.7l1.3-3.3h1l-2.4,5.8h-1.1L92.4,169.8z"/>
		<path d="M99.8,172.7c0-1.9,1.4-3,3-3c1.7,0,2.7,1.1,2.7,2.7c0,0.2,0,0.4,0,0.6h-4.9v-0.8h4.3l-0.3,0.3c0-1.4-0.7-2.1-1.8-2.1
			c-1.1,0-2,0.8-2,2.3c0,1.5,1,2.3,2.3,2.3c0.7,0,1.2-0.2,1.8-0.6l0.4,0.6c-0.6,0.4-1.3,0.7-2.3,0.7
			C101.2,175.7,99.8,174.6,99.8,172.7z"/>
		<path d="M106.9,176.4h5.8v0.9h-5.8V176.4z"/>
		<path d="M115.4,175L115.4,175l-0.1,0.6h-0.8v-8.5h1v2.3l0,1.1h0c0.5-0.5,1.3-0.9,2-0.9c1.6,0,2.4,1.2,2.4,3c0,2-1.2,3.2-2.6,3.2
			C116.7,175.7,116,175.4,115.4,175z M118.8,172.6c0-1.3-0.5-2.1-1.6-2.1c-0.5,0-1.1,0.3-1.7,0.9v2.9c0.5,0.5,1.2,0.7,1.6,0.7
			C118.1,174.9,118.8,174,118.8,172.6z"/>
		<path d="M122.3,169.8h0.8l0.1,1.4h0c0.6-0.9,1.5-1.5,2.6-1.5c0.4,0,0.8,0.1,1.2,0.2l-0.2,0.9c-0.4-0.1-0.6-0.2-1.1-0.2
			c-0.9,0-1.7,0.4-2.4,1.7v3.4h-1V169.8z"/>
		<path d="M128.6,172.7c0-1.9,1.4-3,3-3c1.7,0,2.7,1.1,2.7,2.7c0,0.2,0,0.4,0,0.6h-4.9v-0.8h4.3l-0.3,0.3c0-1.4-0.7-2.1-1.8-2.1
			c-1.1,0-2,0.8-2,2.3c0,1.5,1,2.3,2.3,2.3c0.7,0,1.2-0.2,1.8-0.6l0.4,0.6c-0.6,0.4-1.3,0.7-2.3,0.7
			C130,175.7,128.6,174.6,128.6,172.7z"/>
		<path d="M136,174.1c0-1.3,1.2-1.9,4.2-2.2c0-0.8-0.4-1.5-1.5-1.5c-0.8,0-1.5,0.4-2,0.7l-0.4-0.7c0.6-0.4,1.6-0.8,2.6-0.8
			c1.6,0,2.4,0.9,2.4,2.4v3.6h-0.8l-0.1-0.8h0c-0.6,0.5-1.5,0.9-2.3,0.9C136.8,175.7,136,175.1,136,174.1z M140.2,174.1v-1.5
			c-2.5,0.2-3.3,0.7-3.3,1.5c0,0.7,0.6,0.9,1.3,0.9C138.9,174.9,139.5,174.6,140.2,174.1z"/>
		<path d="M143.5,167.1h1v5.8h0l3.1-3.1h1.1l-4.3,4.2v1.6h-1V167.1z M145.7,172.5l0.6-0.6l2.8,3.7H148L145.7,172.5z"/>
		<path d="M150.1,176.4h5.8v0.9h-5.8V176.4z"/>
		<path d="M157.7,169.8h0.8l0.1,0.7h0c0.5-0.5,1.3-0.9,2-0.9c1.6,0,2.4,1.2,2.4,3c0,2-1.2,3.1-2.7,3.1c-0.5,0-1.2-0.3-1.7-0.8h0
			l0,1.1v2h-1V169.8z M162,172.6c0-1.3-0.5-2.1-1.6-2.1c-0.5,0-1.1,0.3-1.7,0.9v2.9c0.5,0.5,1.2,0.7,1.5,0.7
			C161.3,174.9,162,174,162,172.6z"/>
		<path d="M164.7,174.1c0-1.3,1.2-1.9,4.2-2.2c0-0.8-0.4-1.5-1.5-1.5c-0.8,0-1.5,0.4-2,0.7l-0.4-0.7c0.6-0.4,1.6-0.8,2.6-0.8
			c1.6,0,2.4,0.9,2.4,2.4v3.6h-0.8l-0.1-0.8h0c-0.6,0.5-1.5,0.9-2.3,0.9C165.7,175.7,164.7,175.1,164.7,174.1z M169,174.1v-1.5
			c-2.5,0.2-3.2,0.7-3.2,1.5c0,0.7,0.6,0.9,1.3,0.9C167.7,174.9,168.3,174.6,169,174.1z"/>
		<path d="M171.7,172.7c0-1.9,1.3-3.1,2.6-3.1c0.7,0,1.2,0.3,1.8,0.7h0l0-1.1v-2.2h1v8.5h-0.8l-0.1-0.8h0c-0.5,0.5-1.2,0.9-1.9,0.9
			C172.7,175.7,171.7,174.6,171.7,172.7z M176.1,174v-2.9c-0.5-0.5-1-0.7-1.5-0.7c-1,0-1.8,0.9-1.8,2.2c0,1.4,0.6,2.2,1.7,2.2
			C175,174.9,175.6,174.6,176.1,174z"/>
		<path d="M179,174.8l0.5-0.7c0.7,0.5,1.5,0.8,2.5,0.8c1,0,1.5-0.4,1.5-0.9c0-0.4-0.2-0.8-1.8-1.1c-1.5-0.3-2.3-0.8-2.3-1.7
			c0-0.9,0.8-1.7,2.4-1.7c0.9,0,1.8,0.3,2.4,0.7l-0.5,0.6c-0.5-0.4-1.2-0.6-2-0.6c-1,0-1.3,0.4-1.3,0.8c0,0.5,0.5,0.7,1.7,1
			c1.9,0.4,2.4,0.9,2.4,1.8c0,0.9-0.9,1.7-2.6,1.7C180.8,175.7,179.7,175.3,179,174.8z"/>
		<path d="M187.9,172.3c0-2.3,1-4.1,2.7-5.4l0.6,0.5c-1.6,1.4-2.4,2.9-2.4,4.9c0,2,0.7,3.6,2.4,4.9l-0.6,0.5
			C188.9,176.4,187.9,174.6,187.9,172.3z"/>
		<path d="M194.1,177.2c1.6-1.4,2.4-2.9,2.4-4.9c0-2-0.7-3.6-2.4-4.9l0.6-0.5c1.7,1.3,2.7,3.1,2.7,5.4c0,2.3-1,4.1-2.7,5.4
			L194.1,177.2z"/>
		<path d="M66.2,186.4H64v-0.7h2.2v-2.3H67v2.3h2.2v0.7H67v2.3h-0.8V186.4z"/>
		<path d="M78.4,187.1c0-2,1.5-3.1,3.2-3.1c0.9,0,1.6,0.4,2.1,0.9l-0.5,0.6c-0.5-0.4-1-0.7-1.6-0.7c-1.3,0-2.3,0.9-2.3,2.2
			c0,1.3,0.9,2.2,2.2,2.2c0.7,0,1.3-0.3,1.8-0.7l0.4,0.6c-0.6,0.6-1.5,0.9-2.3,0.9C79.7,190.1,78.4,189,78.4,187.1z"/>
		<path d="M85.7,181.5h1v2.3l-0.1,1.4h0c0.6-0.6,1.3-1.1,2.2-1.1c1.4,0,2,0.8,2,2.4v3.6h-1v-3.5c0-1.1-0.4-1.6-1.3-1.6
			c-0.7,0-1.2,0.3-1.8,1v4.1h-1V181.5z"/>
		<path d="M92.8,188.5c0-1.3,1.2-1.9,4.2-2.2c0-0.8-0.4-1.5-1.5-1.5c-0.8,0-1.5,0.4-2,0.7l-0.4-0.7c0.6-0.4,1.6-0.8,2.6-0.8
			c1.6,0,2.4,0.9,2.4,2.4v3.6h-0.8l-0.1-0.8h0c-0.6,0.5-1.5,0.9-2.3,0.9C93.7,190.1,92.8,189.5,92.8,188.5z M97,188.5V187
			c-2.5,0.2-3.3,0.7-3.3,1.5c0,0.7,0.6,0.9,1.3,0.9C95.7,189.3,96.3,189,97,188.5z"/>
		<path d="M100.1,184.2h0.8l0.1,1h0c0.6-0.6,1.3-1.1,2.2-1.1c1.4,0,2,0.8,2,2.4v3.6h-1v-3.5c0-1.1-0.4-1.6-1.3-1.6
			c-0.7,0-1.2,0.3-1.8,1v4.1h-1V184.2z"/>
		<path d="M107.1,191.1c0-0.5,0.3-0.9,1-1.3v0c-0.3-0.2-0.6-0.5-0.6-1c0-0.4,0.3-0.8,0.7-1.1v0c-0.4-0.3-0.7-0.8-0.7-1.5
			c0-1.3,1.1-2.1,2.3-2.1c0.3,0,0.6,0,0.9,0.1h2.4v0.8h-1.5c0.3,0.3,0.5,0.7,0.5,1.2c0,1.2-1,2-2.3,2c-0.3,0-0.7-0.1-1-0.2
			c-0.3,0.2-0.5,0.4-0.5,0.7c0,0.5,0.4,0.7,1.2,0.7h1.3c1.5,0,2.2,0.4,2.2,1.4c0,1.1-1.3,2-3.2,2C108,192.7,107.1,192.1,107.1,191.1
			z M112,190.8c0-0.6-0.4-0.7-1.3-0.7h-1.1c-0.3,0-0.6,0-0.9-0.1c-0.6,0.3-0.7,0.6-0.7,1c0,0.6,0.7,1,1.9,1
			C111.2,192,112,191.4,112,190.8z M111,186.1c0-0.8-0.6-1.4-1.3-1.4c-0.7,0-1.3,0.6-1.3,1.4c0,0.8,0.6,1.4,1.3,1.4
			C110.4,187.5,111,187,111,186.1z"/>
		<path d="M114.2,187.1c0-1.9,1.4-3,3-3c1.7,0,2.7,1.1,2.7,2.7c0,0.2,0,0.4,0,0.6h-4.9v-0.8h4.3l-0.3,0.3c0-1.4-0.7-2.1-1.8-2.1
			c-1.1,0-2,0.8-2,2.3c0,1.5,1,2.3,2.3,2.3c0.7,0,1.2-0.2,1.8-0.6l0.4,0.6c-0.6,0.4-1.3,0.7-2.3,0.7
			C115.6,190.1,114.2,189,114.2,187.1z"/>
		<path d="M121.3,190.8h5.8v0.9h-5.8V190.8z"/>
		<path d="M128.9,184.2h0.8l0.1,0.7h0c0.5-0.5,1.3-0.9,2-0.9c1.6,0,2.4,1.2,2.4,3c0,2-1.2,3.1-2.7,3.1c-0.5,0-1.2-0.3-1.7-0.8h0
			l0,1.1v2h-1V184.2z M133.2,187c0-1.3-0.5-2.1-1.6-2.1c-0.5,0-1.1,0.3-1.7,0.9v2.9c0.5,0.5,1.2,0.7,1.5,0.7
			C132.5,189.3,133.2,188.4,133.2,187z"/>
		<path d="M138.8,185h-2.7v-0.8h3.7v5.8h-1V185z M138.4,182.2c0-0.5,0.3-0.8,0.8-0.8s0.8,0.3,0.8,0.8c0,0.5-0.3,0.8-0.8,0.8
			S138.4,182.7,138.4,182.2z"/>
		<path d="M143,189.2l0.5-0.7c0.7,0.5,1.5,0.8,2.5,0.8c1,0,1.5-0.4,1.5-0.9c0-0.4-0.2-0.8-1.8-1.1c-1.5-0.3-2.3-0.8-2.3-1.7
			c0-0.9,0.8-1.7,2.4-1.7c0.9,0,1.8,0.3,2.4,0.7l-0.5,0.6c-0.5-0.4-1.2-0.6-2-0.6c-1,0-1.3,0.4-1.3,0.8c0,0.5,0.5,0.7,1.7,1
			c1.9,0.4,2.4,0.9,2.4,1.8c0,0.9-0.9,1.7-2.6,1.7C144.8,190.1,143.8,189.7,143,189.2z"/>
		<path d="M151.9,187.7V185h-1.7v-0.7l1.7-0.1l0.1-1.9h0.8v1.9h2.9v0.8h-2.9v2.8c0,1,0.3,1.6,1.5,1.6c0.5,0,1-0.1,1.4-0.3l0.2,0.7
			c-0.5,0.2-1.1,0.3-1.8,0.3C152.4,190.1,151.9,189.2,151.9,187.7z"/>
		<path d="M157.3,187.1c0-2,1.3-3.1,2.9-3.1s2.9,1.1,2.9,3.1c0,1.9-1.3,3-2.9,3S157.3,189,157.3,187.1z M162,187.1
			c0-1.3-0.7-2.2-1.9-2.2c-1.1,0-1.9,0.9-1.9,2.2c0,1.3,0.7,2.2,1.9,2.2C161.3,189.3,162,188.4,162,187.1z"/>
		<path d="M164.9,184.2h0.8l0.1,1h0c0.6-0.6,1.3-1.1,2.2-1.1c1.4,0,2,0.8,2,2.4v3.6h-1v-3.5c0-1.1-0.4-1.6-1.3-1.6
			c-0.7,0-1.2,0.3-1.8,1v4.1h-1V184.2z"/>
		<path d="M171.7,190.8h5.8v0.9h-5.8V190.8z"/>
		<path d="M179,189.2l0.5-0.7c0.7,0.5,1.5,0.8,2.5,0.8c1,0,1.5-0.4,1.5-0.9c0-0.4-0.2-0.8-1.8-1.1c-1.5-0.3-2.3-0.8-2.3-1.7
			c0-0.9,0.8-1.7,2.4-1.7c0.9,0,1.8,0.3,2.4,0.7l-0.5,0.6c-0.5-0.4-1.2-0.6-2-0.6c-1,0-1.3,0.4-1.3,0.8c0,0.5,0.5,0.7,1.7,1
			c1.9,0.4,2.4,0.9,2.4,1.8c0,0.9-0.9,1.7-2.6,1.7C180.8,190.1,179.7,189.7,179,189.2z"/>
		<path d="M186.5,184.2h0.8l0.1,0.7h0c0.5-0.5,1.3-0.9,2-0.9c1.6,0,2.4,1.2,2.4,3c0,2-1.2,3.1-2.7,3.1c-0.5,0-1.2-0.3-1.7-0.8h0
			l0,1.1v2h-1V184.2z M190.8,187c0-1.3-0.5-2.1-1.6-2.1c-0.5,0-1.1,0.3-1.7,0.9v2.9c0.5,0.5,1.2,0.7,1.5,0.7
			C190.1,189.3,190.8,188.4,190.8,187z"/>
		<path d="M193.4,187.1c0-1.9,1.4-3,3-3c1.7,0,2.7,1.1,2.7,2.7c0,0.2,0,0.4,0,0.6h-4.9v-0.8h4.3l-0.3,0.3c0-1.4-0.7-2.1-1.8-2.1
			c-1.1,0-2,0.8-2,2.3c0,1.5,1,2.3,2.3,2.3c0.7,0,1.2-0.2,1.8-0.6l0.4,0.6c-0.6,0.4-1.3,0.7-2.3,0.7
			C194.8,190.1,193.4,189,193.4,187.1z"/>
		<path d="M200.6,187.1c0-1.9,1.4-3,3-3c1.7,0,2.7,1.1,2.7,2.7c0,0.2,0,0.4,0,0.6h-4.9v-0.8h4.3l-0.3,0.3c0-1.4-0.7-2.1-1.8-2.1
			c-1.1,0-2,0.8-2,2.3c0,1.5,1,2.3,2.3,2.3c0.7,0,1.2-0.2,1.8-0.6l0.4,0.6c-0.6,0.4-1.3,0.7-2.3,0.7
			C202,190.1,200.6,189,200.6,187.1z"/>
		<path d="M207.7,187.1c0-1.9,1.3-3.1,2.6-3.1c0.7,0,1.2,0.3,1.8,0.7h0l0-1.1v-2.2h1v8.5h-0.8l-0.1-0.8h0c-0.5,0.5-1.2,0.9-1.9,0.9
			C208.7,190.1,207.7,189,207.7,187.1z M212.1,188.4v-2.9c-0.5-0.5-1-0.7-1.5-0.7c-1,0-1.8,0.9-1.8,2.2c0,1.4,0.6,2.2,1.7,2.2
			C211,189.3,211.6,189,212.1,188.4z"/>
		<path d="M216.7,186.7c0-2.3,1-4.1,2.7-5.4l0.6,0.5c-1.6,1.4-2.4,2.9-2.4,4.9c0,2,0.7,3.6,2.4,4.9l-0.6,0.5
			C217.7,190.8,216.7,189,216.7,186.7z"/>
		<path d="M222.9,191.6c1.6-1.4,2.4-2.9,2.4-4.9c0-2-0.7-3.6-2.4-4.9l0.6-0.5c1.7,1.3,2.7,3.1,2.7,5.4c0,2.3-1,4.1-2.7,5.4
			L222.9,191.6z"/>
	</g>
</g>
<rect x="46.7" y="205.2" class="st0" width="223" height="93"/>
<g>
	<g>
		<path d="M66.6,221.9h-2.2v-0.7h2.2v-2.3h0.8v2.3h2.2v0.7h-2.2v2.3h-0.8V221.9z"/>
		<path d="M80.3,223.2v-2.8h-1.7v-0.7l1.7-0.1l0.1-1.9h0.8v1.9h2.9v0.8h-2.9v2.8c0,1,0.3,1.6,1.5,1.6c0.5,0,1-0.1,1.4-0.3l0.2,0.7
			c-0.5,0.2-1.1,0.3-1.8,0.3C80.9,225.6,80.3,224.6,80.3,223.2z"/>
		<path d="M86,223.3v-3.6h1v3.5c0,1.1,0.4,1.6,1.3,1.6c0.7,0,1.2-0.3,1.8-1.1v-4h1v5.8h-0.8l-0.1-1h0c-0.6,0.7-1.3,1.2-2.2,1.2
			C86.6,225.6,86,224.8,86,223.3z"/>
		<path d="M94,219.6h0.8l0.1,1.4h0c0.6-0.9,1.5-1.5,2.6-1.5c0.4,0,0.8,0.1,1.2,0.2l-0.2,0.9c-0.4-0.1-0.6-0.2-1.1-0.2
			c-0.9,0-1.7,0.4-2.4,1.7v3.4h-1V219.6z"/>
		<path d="M100.6,219.6h0.8l0.1,1h0c0.6-0.6,1.3-1.1,2.2-1.1c1.4,0,2,0.8,2,2.4v3.6h-1V222c0-1.1-0.4-1.6-1.3-1.6
			c-0.7,0-1.2,0.3-1.8,1v4.1h-1V219.6z"/>
		<path d="M107.4,226.3h5.8v0.9h-5.8V226.3z"/>
		<path d="M114.6,222.6c0-2,1.3-3.1,2.9-3.1s2.9,1.1,2.9,3.1c0,1.9-1.3,3-2.9,3S114.6,224.5,114.6,222.6z M119.3,222.6
			c0-1.3-0.7-2.2-1.9-2.2c-1.1,0-1.9,0.9-1.9,2.2c0,1.3,0.7,2.2,1.9,2.2C118.6,224.8,119.3,223.9,119.3,222.6z"/>
		<path d="M122.2,219.6h0.8l0.1,1h0c0.6-0.6,1.3-1.1,2.2-1.1c1.4,0,2,0.8,2,2.4v3.6h-1V222c0-1.1-0.4-1.6-1.3-1.6
			c-0.7,0-1.2,0.3-1.8,1v4.1h-1V219.6z"/>
		<path d="M130.7,222.1c0-2.3,1-4.1,2.7-5.4l0.6,0.5c-1.6,1.4-2.4,2.9-2.4,4.9c0,2,0.7,3.6,2.4,4.9l-0.6,0.5
			C131.8,226.3,130.7,224.5,130.7,222.1z"/>
		<path d="M136.9,227.1c1.6-1.4,2.4-2.9,2.4-4.9c0-2-0.7-3.6-2.4-4.9l0.6-0.5c1.7,1.3,2.7,3.1,2.7,5.4c0,2.3-1,4.1-2.7,5.4
			L136.9,227.1z"/>
		<path d="M66.6,236.3h-2.2v-0.7h2.2v-2.3h0.8v2.3h2.2v0.7h-2.2v2.3h-0.8V236.3z"/>
		<path d="M80.3,237.6v-2.8h-1.7v-0.7l1.7-0.1l0.1-1.9h0.8v1.9h2.9v0.8h-2.9v2.8c0,1,0.3,1.6,1.5,1.6c0.5,0,1-0.1,1.4-0.3l0.2,0.7
			c-0.5,0.2-1.1,0.3-1.8,0.3C80.9,240,80.3,239,80.3,237.6z"/>
		<path d="M86,237.7V234h1v3.5c0,1.1,0.4,1.6,1.3,1.6c0.7,0,1.2-0.3,1.8-1.1v-4h1v5.8h-0.8l-0.1-1h0c-0.6,0.7-1.3,1.2-2.2,1.2
			C86.6,240,86,239.2,86,237.7z"/>
		<path d="M94,234h0.8l0.1,1.4h0c0.6-0.9,1.5-1.5,2.6-1.5c0.4,0,0.8,0.1,1.2,0.2l-0.2,0.9c-0.4-0.1-0.6-0.2-1.1-0.2
			c-0.9,0-1.7,0.4-2.4,1.7v3.4h-1V234z"/>
		<path d="M100.6,234h0.8l0.1,1h0c0.6-0.6,1.3-1.1,2.2-1.1c1.4,0,2,0.8,2,2.4v3.6h-1v-3.5c0-1.1-0.4-1.6-1.3-1.6
			c-0.7,0-1.2,0.3-1.8,1v4.1h-1V234z"/>
		<path d="M107.4,240.7h5.8v0.9h-5.8V240.7z"/>
		<path d="M114.6,237c0-2,1.3-3.1,2.9-3.1s2.9,1.1,2.9,3.1c0,1.9-1.3,3-2.9,3S114.6,238.9,114.6,237z M119.3,237
			c0-1.3-0.7-2.2-1.9-2.2c-1.1,0-1.9,0.9-1.9,2.2c0,1.3,0.7,2.2,1.9,2.2C118.6,239.2,119.3,238.3,119.3,237z"/>
		<path d="M122.3,234.1l1.7-0.1h3.4v0.8h-5.1V234.1z M123.9,233.6c0-1.4,0.7-2.4,2.4-2.4c0.6,0,1.1,0.1,1.7,0.3l-0.2,0.7
			c-0.5-0.2-0.9-0.3-1.4-0.3c-1,0-1.5,0.6-1.5,1.5v6.4h-1V233.6z"/>
		<path d="M129.5,234.1l1.7-0.1h3.4v0.8h-5.1V234.1z M131.1,233.6c0-1.4,0.7-2.4,2.4-2.4c0.6,0,1.1,0.1,1.7,0.3l-0.2,0.7
			c-0.5-0.2-0.9-0.3-1.4-0.3c-1,0-1.5,0.6-1.5,1.5v6.4h-1V233.6z"/>
		<path d="M137.9,236.5c0-2.3,1-4.1,2.7-5.4l0.6,0.5c-1.6,1.4-2.4,2.9-2.4,4.9c0,2,0.7,3.6,2.4,4.9l-0.6,0.5
			C139,240.7,137.9,238.9,137.9,236.5z"/>
		<path d="M144.1,241.5c1.6-1.4,2.4-2.9,2.4-4.9c0-2-0.7-3.6-2.4-4.9l0.6-0.5c1.7,1.3,2.7,3.1,2.7,5.4c0,2.3-1,4.1-2.7,5.4
			L144.1,241.5z"/>
		<path d="M66.6,250.7h-2.2v-0.7h2.2v-2.3h0.8v2.3h2.2v0.7h-2.2v2.3h-0.8V250.7z"/>
		<path d="M78.8,252.8c0-1.3,1.2-1.9,4.2-2.2c0-0.8-0.4-1.5-1.5-1.5c-0.8,0-1.5,0.4-2,0.7l-0.4-0.7c0.6-0.4,1.6-0.8,2.6-0.8
			c1.6,0,2.4,0.9,2.4,2.4v3.6h-0.8l-0.1-0.8h0c-0.6,0.5-1.5,0.9-2.3,0.9C79.7,254.4,78.8,253.8,78.8,252.8z M83,252.7v-1.5
			c-2.5,0.2-3.3,0.7-3.3,1.5c0,0.7,0.6,0.9,1.3,0.9C81.7,253.6,82.4,253.3,83,252.7z"/>
		<path d="M86,251.4c0-2,1.5-3.1,3.2-3.1c0.9,0,1.6,0.4,2.1,0.9l-0.5,0.6c-0.5-0.4-1-0.7-1.6-0.7c-1.3,0-2.3,0.9-2.3,2.2
			c0,1.3,0.9,2.2,2.2,2.2c0.7,0,1.3-0.3,1.8-0.7l0.4,0.6c-0.6,0.6-1.5,0.9-2.3,0.9C87.4,254.4,86,253.3,86,251.4z"/>
		<path d="M93.2,251.4c0-2,1.5-3.1,3.2-3.1c0.9,0,1.6,0.4,2.1,0.9l-0.5,0.6c-0.5-0.4-1-0.7-1.6-0.7c-1.3,0-2.3,0.9-2.3,2.2
			c0,1.3,0.9,2.2,2.2,2.2c0.7,0,1.3-0.3,1.8-0.7l0.4,0.6c-0.6,0.6-1.5,0.9-2.3,0.9C94.6,254.4,93.2,253.3,93.2,251.4z"/>
		<path d="M100.3,251.3c0-1.9,1.4-3,3-3c1.7,0,2.7,1.1,2.7,2.7c0,0.2,0,0.4,0,0.6h-4.9v-0.8h4.3l-0.3,0.3c0-1.4-0.7-2.1-1.8-2.1
			c-1.1,0-2,0.8-2,2.3c0,1.5,1,2.3,2.3,2.3c0.7,0,1.2-0.2,1.8-0.6l0.4,0.6c-0.6,0.4-1.3,0.7-2.3,0.7
			C101.6,254.4,100.3,253.3,100.3,251.3z"/>
		<path d="M109.6,252.3v-5.8h-2.1v-0.8h3.1v6.7c0,0.8,0.5,1.2,1.2,1.2c0.3,0,0.7-0.1,1.1-0.3l0.3,0.7c-0.5,0.2-0.9,0.3-1.6,0.3
			C110.3,254.4,109.6,253.7,109.6,252.3z"/>
		<path d="M114.7,251.3c0-1.9,1.4-3,3-3c1.7,0,2.7,1.1,2.7,2.7c0,0.2,0,0.4,0,0.6h-4.9v-0.8h4.3l-0.3,0.3c0-1.4-0.7-2.1-1.8-2.1
			c-1.1,0-2,0.8-2,2.3c0,1.5,1,2.3,2.3,2.3c0.7,0,1.2-0.2,1.8-0.6l0.4,0.6c-0.6,0.4-1.3,0.7-2.3,0.7
			C116,254.4,114.7,253.3,114.7,251.3z"/>
		<path d="M122.8,248.4h0.8l0.1,1.4h0c0.6-0.9,1.5-1.5,2.6-1.5c0.4,0,0.8,0.1,1.2,0.2l-0.2,0.9c-0.4-0.1-0.6-0.2-1.1-0.2
			c-0.9,0-1.7,0.4-2.4,1.7v3.4h-1V248.4z"/>
		<path d="M129.2,252.8c0-1.3,1.2-1.9,4.2-2.2c0-0.8-0.4-1.5-1.5-1.5c-0.8,0-1.5,0.4-2,0.7l-0.4-0.7c0.6-0.4,1.6-0.8,2.6-0.8
			c1.6,0,2.4,0.9,2.4,2.4v3.6h-0.8l-0.1-0.8h0c-0.6,0.5-1.5,0.9-2.3,0.9C130.1,254.4,129.2,253.8,129.2,252.8z M133.4,252.7v-1.5
			c-2.5,0.2-3.2,0.7-3.2,1.5c0,0.7,0.6,0.9,1.3,0.9C132.1,253.6,132.8,253.3,133.4,252.7z"/>
		<path d="M137.9,252v-2.8h-1.7v-0.7l1.7-0.1l0.1-1.9h0.8v1.9h2.9v0.8h-2.9v2.8c0,1,0.3,1.6,1.5,1.6c0.5,0,1-0.1,1.4-0.3l0.2,0.7
			c-0.5,0.2-1.1,0.3-1.8,0.3C138.5,254.4,137.9,253.4,137.9,252z"/>
		<path d="M143.5,251.3c0-1.9,1.4-3,3-3c1.7,0,2.7,1.1,2.7,2.7c0,0.2,0,0.4,0,0.6h-4.9v-0.8h4.3l-0.3,0.3c0-1.4-0.7-2.1-1.8-2.1
			c-1.1,0-2,0.8-2,2.3c0,1.5,1,2.3,2.3,2.3c0.7,0,1.2-0.2,1.8-0.6l0.4,0.6c-0.6,0.4-1.3,0.7-2.3,0.7
			C144.8,254.4,143.5,253.3,143.5,251.3z"/>
		<path d="M152.3,250.9c0-2.3,1-4.1,2.7-5.4l0.6,0.5c-1.6,1.4-2.4,2.9-2.4,4.9c0,2,0.7,3.6,2.4,4.9l-0.6,0.5
			C153.4,255.1,152.3,253.3,152.3,250.9z"/>
		<path d="M158.5,255.9c1.6-1.4,2.4-2.9,2.4-4.9c0-2-0.7-3.6-2.4-4.9l0.6-0.5c1.7,1.3,2.7,3.1,2.7,5.4c0,2.3-1,4.1-2.7,5.4
			L158.5,255.9z"/>
		<path d="M66.6,265.1h-2.2v-0.7h2.2V262h0.8v2.3h2.2v0.7h-2.2v2.3h-0.8V265.1z"/>
		<path d="M79.9,268L79.9,268l-0.1,0.6H79v-8.5h1v2.3l0,1.1h0c0.5-0.5,1.3-0.9,2-0.9c1.6,0,2.4,1.2,2.4,3c0,2-1.2,3.2-2.6,3.2
			C81.1,268.8,80.4,268.5,79.9,268z M83.3,265.7c0-1.3-0.5-2.1-1.6-2.1c-0.5,0-1.1,0.3-1.7,0.9v2.9c0.5,0.5,1.2,0.7,1.6,0.7
			C82.5,268,83.3,267.1,83.3,265.7z"/>
		<path d="M86.8,262.8h0.8l0.1,1.4h0c0.6-0.9,1.5-1.5,2.6-1.5c0.4,0,0.8,0.1,1.2,0.2l-0.2,0.9c-0.4-0.1-0.6-0.2-1.1-0.2
			c-0.9,0-1.7,0.4-2.4,1.7v3.4h-1V262.8z"/>
		<path d="M93.2,267.2c0-1.3,1.2-1.9,4.2-2.2c0-0.8-0.4-1.5-1.5-1.5c-0.8,0-1.5,0.4-2,0.7l-0.4-0.7c0.6-0.4,1.6-0.8,2.6-0.8
			c1.6,0,2.4,0.9,2.4,2.4v3.6h-0.8l-0.1-0.8h0c-0.6,0.5-1.5,0.9-2.3,0.9C94.1,268.8,93.2,268.2,93.2,267.2z M97.4,267.1v-1.5
			c-2.5,0.2-3.3,0.7-3.3,1.5c0,0.7,0.6,0.9,1.3,0.9C96.1,268,96.8,267.7,97.4,267.1z"/>
		<path d="M100.7,260.1h1v5.8h0l3.1-3.1h1.1l-4.3,4.2v1.6h-1V260.1z M102.9,265.6l0.6-0.6l2.8,3.7h-1.1L102.9,265.6z"/>
		<path d="M107.5,265.7c0-1.9,1.4-3,3-3c1.7,0,2.7,1.1,2.7,2.7c0,0.2,0,0.4,0,0.6h-4.9v-0.8h4.3l-0.3,0.3c0-1.4-0.7-2.1-1.8-2.1
			c-1.1,0-2,0.8-2,2.3c0,1.5,1,2.3,2.3,2.3c0.7,0,1.2-0.2,1.8-0.6l0.4,0.6c-0.6,0.4-1.3,0.7-2.3,0.7
			C108.8,268.8,107.5,267.7,107.5,265.7z"/>
		<path d="M116.3,265.3c0-2.3,1-4.1,2.7-5.4l0.6,0.5c-1.6,1.4-2.4,2.9-2.4,4.9c0,2,0.7,3.6,2.4,4.9l-0.6,0.5
			C117.4,269.5,116.3,267.7,116.3,265.3z"/>
		<path d="M122.5,270.3c1.6-1.4,2.4-2.9,2.4-4.9c0-2-0.7-3.6-2.4-4.9l0.6-0.5c1.7,1.3,2.7,3.1,2.7,5.4c0,2.3-1,4.1-2.7,5.4
			L122.5,270.3z"/>
		<path d="M66.6,279.5h-2.2v-0.7h2.2v-2.3h0.8v2.3h2.2v0.7h-2.2v2.3h-0.8V279.5z"/>
		<path d="M78.8,280.2c0-2,1.5-3.1,3.2-3.1c0.9,0,1.6,0.4,2.1,0.9l-0.5,0.6c-0.5-0.4-1-0.7-1.6-0.7c-1.3,0-2.3,0.9-2.3,2.2
			c0,1.3,0.9,2.2,2.2,2.2c0.7,0,1.3-0.3,1.8-0.7l0.4,0.6c-0.6,0.6-1.5,0.9-2.3,0.9C80.2,283.2,78.8,282.1,78.8,280.2z"/>
		<path d="M86.2,274.5h1v2.3l-0.1,1.4h0c0.6-0.6,1.3-1.1,2.2-1.1c1.4,0,2,0.8,2,2.4v3.6h-1v-3.5c0-1.1-0.4-1.6-1.3-1.6
			c-0.7,0-1.2,0.3-1.8,1v4.1h-1V274.5z"/>
		<path d="M93.2,281.6c0-1.3,1.2-1.9,4.2-2.2c0-0.8-0.4-1.5-1.5-1.5c-0.8,0-1.5,0.4-2,0.7l-0.4-0.7c0.6-0.4,1.6-0.8,2.6-0.8
			c1.6,0,2.4,0.9,2.4,2.4v3.6h-0.8l-0.1-0.8h0c-0.6,0.5-1.5,0.9-2.3,0.9C94.1,283.2,93.2,282.6,93.2,281.6z M97.4,281.5V280
			c-2.5,0.2-3.3,0.7-3.3,1.5c0,0.7,0.6,0.9,1.3,0.9C96.1,282.4,96.8,282.1,97.4,281.5z"/>
		<path d="M100.6,277.2h0.8l0.1,1h0c0.6-0.6,1.3-1.1,2.2-1.1c1.4,0,2,0.8,2,2.4v3.6h-1v-3.5c0-1.1-0.4-1.6-1.3-1.6
			c-0.7,0-1.2,0.3-1.8,1v4.1h-1V277.2z"/>
		<path d="M107.5,284.1c0-0.5,0.3-0.9,1-1.3v0c-0.3-0.2-0.6-0.5-0.6-1c0-0.4,0.3-0.8,0.7-1.1v0c-0.4-0.3-0.7-0.8-0.7-1.5
			c0-1.3,1.1-2.1,2.3-2.1c0.3,0,0.6,0,0.9,0.1h2.4v0.8h-1.5c0.3,0.3,0.5,0.7,0.5,1.2c0,1.2-1,2-2.3,2c-0.3,0-0.7-0.1-1-0.2
			c-0.3,0.2-0.5,0.4-0.5,0.7c0,0.5,0.4,0.7,1.2,0.7h1.3c1.5,0,2.2,0.4,2.2,1.4c0,1.1-1.3,2-3.2,2
			C108.5,285.8,107.5,285.2,107.5,284.1z M112.5,283.9c0-0.6-0.4-0.7-1.3-0.7H110c-0.3,0-0.6,0-0.9-0.1c-0.6,0.3-0.7,0.6-0.7,1
			c0,0.6,0.7,1,1.9,1C111.6,285,112.5,284.5,112.5,283.9z M111.5,279.2c0-0.8-0.6-1.4-1.3-1.4c-0.7,0-1.3,0.6-1.3,1.4
			c0,0.8,0.6,1.4,1.3,1.4C110.9,280.6,111.5,280,111.5,279.2z"/>
		<path d="M114.7,280.1c0-1.9,1.4-3,3-3c1.7,0,2.7,1.1,2.7,2.7c0,0.2,0,0.4,0,0.6h-4.9v-0.8h4.3l-0.3,0.3c0-1.4-0.7-2.1-1.8-2.1
			c-1.1,0-2,0.8-2,2.3c0,1.5,1,2.3,2.3,2.3c0.7,0,1.2-0.2,1.8-0.6l0.4,0.6c-0.6,0.4-1.3,0.7-2.3,0.7
			C116,283.2,114.7,282.1,114.7,280.1z"/>
		<path d="M121.8,283.9h5.8v0.9h-5.8V283.9z"/>
		<path d="M129.1,284.1c0-0.5,0.3-0.9,1-1.3v0c-0.3-0.2-0.6-0.5-0.6-1c0-0.4,0.3-0.8,0.7-1.1v0c-0.4-0.3-0.7-0.8-0.7-1.5
			c0-1.3,1.1-2.1,2.3-2.1c0.3,0,0.6,0,0.9,0.1h2.4v0.8h-1.5c0.3,0.3,0.5,0.7,0.5,1.2c0,1.2-1,2-2.3,2c-0.3,0-0.7-0.1-1-0.2
			c-0.3,0.2-0.5,0.4-0.5,0.7c0,0.5,0.4,0.7,1.2,0.7h1.3c1.5,0,2.2,0.4,2.2,1.4c0,1.1-1.3,2-3.2,2
			C130.1,285.8,129.1,285.2,129.1,284.1z M134.1,283.9c0-0.6-0.4-0.7-1.3-0.7h-1.1c-0.3,0-0.6,0-0.9-0.1c-0.6,0.3-0.7,0.6-0.7,1
			c0,0.6,0.7,1,1.9,1C133.2,285,134.1,284.5,134.1,283.9z M133.1,279.2c0-0.8-0.6-1.4-1.3-1.4c-0.7,0-1.3,0.6-1.3,1.4
			c0,0.8,0.6,1.4,1.3,1.4C132.5,280.6,133.1,280,133.1,279.2z"/>
		<path d="M136.3,280.1c0-1.9,1.4-3,3-3c1.7,0,2.7,1.1,2.7,2.7c0,0.2,0,0.4,0,0.6h-4.9v-0.8h4.3l-0.3,0.3c0-1.4-0.7-2.1-1.8-2.1
			c-1.1,0-2,0.8-2,2.3c0,1.5,1,2.3,2.3,2.3c0.7,0,1.2-0.2,1.8-0.6l0.4,0.6c-0.6,0.4-1.3,0.7-2.3,0.7
			C137.6,283.2,136.3,282.1,136.3,280.1z"/>
		<path d="M143.6,281.6c0-1.3,1.2-1.9,4.2-2.2c0-0.8-0.4-1.5-1.5-1.5c-0.8,0-1.5,0.4-2,0.7l-0.4-0.7c0.6-0.4,1.6-0.8,2.6-0.8
			c1.6,0,2.4,0.9,2.4,2.4v3.6H148l-0.1-0.8h0c-0.6,0.5-1.5,0.9-2.3,0.9C144.5,283.2,143.6,282.6,143.6,281.6z M147.8,281.5V280
			c-2.5,0.2-3.2,0.7-3.2,1.5c0,0.7,0.6,0.9,1.3,0.9C146.5,282.4,147.2,282.1,147.8,281.5z"/>
		<path d="M151.6,277.2h0.8l0.1,1.4h0c0.6-0.9,1.5-1.5,2.6-1.5c0.4,0,0.8,0.1,1.2,0.2l-0.2,0.9c-0.4-0.1-0.6-0.2-1.1-0.2
			c-0.9,0-1.7,0.4-2.4,1.7v3.4h-1V277.2z"/>
		<path d="M159.5,279.7c0-2.3,1-4.1,2.7-5.4l0.6,0.5c-1.6,1.4-2.4,2.9-2.4,4.9c0,2,0.7,3.6,2.4,4.9l-0.6,0.5
			C160.6,283.9,159.5,282.1,159.5,279.7z"/>
		<path d="M165.7,284.7c1.6-1.4,2.4-2.9,2.4-4.9c0-2-0.7-3.6-2.4-4.9l0.6-0.5c1.7,1.3,2.7,3.1,2.7,5.4c0,2.3-1,4.1-2.7,5.4
			L165.7,284.7z"/>
	</g>
</g>
<rect x="243.2" y="149.6" transform="matrix(8.901443e-07 1 -1 8.901443e-07 448.4054 -119.9389)" class="st0" width="81.9" height="29.2"/>
<text transform="matrix(3.267949e-07 1 -1 3.267949e-07 281.2838 144.2207)" class="st1 st2">Private</text>
<rect x="-55.4" y="196.2" transform="matrix(9.961942e-08 -1 1 9.961942e-08 -178.8466 242.827)" class="st0" width="174.7" height="29.2"/>
<text transform="matrix(6.339725e-15 -1 1 6.339725e-15 34.8787 235.502)" class="st1 st2">Methods</text>
<rect x="46.6" y="45.3" class="st0" width="223" height="77.8"/>
<g>
	<g>
		<path d="M65.4,62.6h5.2v0.7h-5.2V62.6z"/>
		<path d="M81.4,66c0-0.6,0.4-1,1-1c0.5,0,1,0.4,1,1c0,0.6-0.4,1-1,1C81.8,67.1,81.4,66.7,81.4,66z"/>
		<path d="M88.6,66c0-0.6,0.4-1,1-1c0.5,0,1,0.4,1,1c0,0.6-0.4,1-1,1C89,67.1,88.6,66.7,88.6,66z"/>
		<path d="M95.8,66c0-0.6,0.4-1,1-1c0.5,0,1,0.4,1,1c0,0.6-0.4,1-1,1C96.2,67.1,95.8,66.7,95.8,66z"/>
		<path d="M65.4,77h5.2v0.7h-5.2V77z"/>
		<path d="M81.4,80.4c0-0.6,0.4-1,1-1c0.5,0,1,0.4,1,1c0,0.6-0.4,1-1,1C81.8,81.5,81.4,81.1,81.4,80.4z"/>
		<path d="M88.6,80.4c0-0.6,0.4-1,1-1c0.5,0,1,0.4,1,1c0,0.6-0.4,1-1,1C89,81.5,88.6,81.1,88.6,80.4z"/>
		<path d="M95.8,80.4c0-0.6,0.4-1,1-1c0.5,0,1,0.4,1,1c0,0.6-0.4,1-1,1C96.2,81.5,95.8,81.1,95.8,80.4z"/>
	</g>
</g>
<rect x="-6.9" y="69.6" transform="matrix(-6.100534e-07 -1 1 -6.100534e-07 -52.1557 116.1358)" class="st0" width="77.8" height="29.2"/>
<text transform="matrix(6.339725e-15 -1 1 6.339725e-15 34.8776 110.543)" class="st1 st2">Attributes</text>
<rect x="237.7" y="237.1" transform="matrix(7.834777e-07 1 -1 7.834777e-07 535.8477 -32.4967)" class="st0" width="93" height="29.2"/>
<text transform="matrix(3.267949e-07 1 -1 3.267949e-07 281.2828 233.6728)" class="st1 st2">Public</text>
<rect x="469.9" y="230.1" class="st3" width="80.3" height="43.2"/>
<text transform="matrix(1 0 0 1 496.7191 256.2785)" class="st1 st2">User</text>
<g>
	<g>
		<line class="st4" x1="443" y1="251.7" x2="369.9" y2="251.7"/>
		<g>
			<polygon class="st5" points="372.8,241.7 355.6,251.7 372.8,261.6 			"/>
		</g>
	</g>
</g>
<g>
	<g>
		<line class="st6" x1="443" y1="222.2" x2="366" y2="190.8"/>
		<g>
			<rect x="353" y="188.8" transform="matrix(0.3778 -0.9259 0.9259 0.3778 51.1112 457.5724)" class="st7" width="26" height="4"/>
		</g>
	</g>
</g>
<g>
	<g>
		<path class="st5" d="M322.6,250.8c1.1,3.5,2.3,7,3.4,10.5c0.8,2.4,4.1,2.4,4.8,0c2.9-9.1,7.6-17.5,13.9-24.7c0.9-1,1-2.5,0-3.5
			c-0.9-0.9-2.6-1-3.5,0c-6.8,7.9-12,17-15.2,26.9c1.6,0,3.2,0,4.8,0c-1.1-3.5-2.3-7-3.4-10.5C326.5,246.4,321.6,247.7,322.6,250.8
			L322.6,250.8z"/>
	</g>
</g>
<g>
	<g>
		<g>
			<path class="st7" d="M327.2,175.1c3.7,3.8,7.2,7.9,10.6,12c0.8,1,2.7,0.9,3.5,0c1-1.1,0.9-2.4,0-3.5c-3.3-4.2-6.9-8.2-10.6-12
				c-0.9-0.9-2.6-1-3.5,0C326.2,172.6,326.2,174.1,327.2,175.1L327.2,175.1z"/>
		</g>
	</g>
	<g>
		<g>
			<path class="st7" d="M330.7,188.1c1.3-2.8,2.8-5.5,4.5-8.1c0.4-0.6,0.9-1.3,1.3-1.9c0.2-0.3,0.4-0.6,0.6-0.9c0,0,0.3-0.3,0.1-0.1
				c0.1-0.2,0.3-0.4,0.4-0.5c1-1.2,2-2.4,3.1-3.5c0.9-1,1-2.6,0-3.5c-1-0.9-2.6-1-3.5,0c-4.5,4.7-8.1,10.1-10.8,16
				c-0.5,1.2-0.4,2.7,0.9,3.4C328.4,189.6,330.1,189.4,330.7,188.1L330.7,188.1z"/>
		</g>
	</g>
</g>
</svg>
