<?xml version="1.0" encoding="utf-8"?>
<!-- Generator: Adobe Illustrator 26.0.1, SVG Export Plug-In . SVG Version: 6.00 Build 0)  -->
<svg version="1.1" id="Layer_1" xmlns="http://www.w3.org/2000/svg" xmlns:xlink="http://www.w3.org/1999/xlink" x="0px" y="0px"
	 viewBox="0 0 285.1 327.5" style="enable-background:new 0 0 285.1 327.5;" xml:space="preserve">
<style type="text/css">
	.st0{fill:#C0E4EE;stroke:#000000;stroke-miterlimit:10;}
	.st1{font-family:'Arial-BoldMT';}
	.st2{font-size:12px;}
</style>
<g>
	<rect x="22" y="21" class="st0" width="241.2" height="29.2"/>
	<text transform="matrix(1 0 0 1 122.559 38.4987)" class="st1 st2">Animal</text>
	<rect x="22" y="50.2" class="st0" width="241.2" height="144.5"/>
	<g>
		<g>
			<path d="M39.4,69.6h5.2v0.7h-5.2V69.6z"/>
			<path d="M53.8,66.1h1.9c2.4,0,3.6,1.4,3.6,3.9c0,2.5-1.3,4-3.6,4h-2V66.1z M55.7,73.1c1.8,0,2.7-1.2,2.7-3.1c0-2-0.9-3.1-2.7-3.1
				h-0.9v6.2H55.7z"/>
			<path d="M60.7,71.1c0-2,1.3-3.1,2.9-3.1s2.9,1.1,2.9,3.1c0,1.9-1.3,3-2.9,3S60.7,73,60.7,71.1z M65.4,71.1c0-1.3-0.7-2.2-1.9-2.2
				c-1.1,0-1.9,0.9-1.9,2.2c0,1.3,0.7,2.2,1.9,2.2C64.7,73.3,65.4,72.4,65.4,71.1z"/>
			<path d="M67.9,68.1h0.8l0.1,0.8h0c0.3-0.5,0.7-0.9,1.3-0.9c0.6,0,0.9,0.3,1.1,1c0.3-0.6,0.7-1,1.4-1c0.8,0,1.3,0.6,1.3,1.8V74h-1
				v-4.1c0-0.7-0.2-1-0.6-1c-0.4,0-0.6,0.3-0.9,0.9V74h-0.9v-4.1c0-0.7-0.2-1-0.6-1c-0.4,0-0.7,0.3-1,0.9V74h-1V68.1z"/>
			<path d="M75.3,72.5c0-1.3,1.2-1.9,4.2-2.2c0-0.8-0.4-1.5-1.5-1.5c-0.8,0-1.5,0.4-2,0.7l-0.4-0.7c0.6-0.4,1.6-0.8,2.6-0.8
				c1.6,0,2.4,0.9,2.4,2.4V74h-0.8l-0.1-0.8h0c-0.6,0.5-1.5,0.9-2.3,0.9C76.2,74.1,75.3,73.5,75.3,72.5z M79.6,72.4v-1.5
				c-2.5,0.2-3.3,0.7-3.3,1.5c0,0.7,0.6,0.9,1.3,0.9C78.2,73.3,78.9,73,79.6,72.4z"/>
			<path d="M85.3,68.9h-2.7v-0.8h3.7V74h-1V68.9z M84.9,66.1c0-0.5,0.3-0.8,0.8-0.8c0.5,0,0.8,0.3,0.8,0.8c0,0.5-0.3,0.8-0.8,0.8
				C85.3,66.9,84.9,66.6,84.9,66.1z"/>
			<path d="M89.9,68.1h0.8l0.1,1h0c0.6-0.6,1.3-1.1,2.2-1.1c1.4,0,2,0.8,2,2.4V74h-1v-3.5c0-1.1-0.4-1.6-1.3-1.6
				c-0.7,0-1.2,0.3-1.8,1V74h-1V68.1z"/>
			<path d="M98.6,68.8c0-0.6,0.4-1,1-1c0.5,0,1,0.4,1,1c0,0.6-0.4,1-1,1C99,69.8,98.6,69.4,98.6,68.8z M98.6,73.1c0-0.6,0.4-1,1-1
				c0.5,0,1,0.4,1,1c0,0.6-0.4,1-1,1C99,74.1,98.6,73.7,98.6,73.1z"/>
			<path d="M111.3,71.1c0-2,1.5-3.1,3.2-3.1c0.9,0,1.6,0.4,2.1,0.9l-0.5,0.6c-0.5-0.4-1-0.7-1.6-0.7c-1.3,0-2.3,0.9-2.3,2.2
				c0,1.3,0.9,2.2,2.2,2.2c0.7,0,1.3-0.3,1.8-0.7l0.4,0.6c-0.6,0.6-1.5,0.9-2.3,0.9C112.7,74.1,111.3,73,111.3,71.1z"/>
			<path d="M118.7,65.4h1v2.3l-0.1,1.4h0c0.6-0.6,1.3-1.1,2.2-1.1c1.4,0,2,0.8,2,2.4V74h-1v-3.5c0-1.1-0.4-1.6-1.3-1.6
				c-0.7,0-1.2,0.3-1.8,1V74h-1V65.4z"/>
			<path d="M125.7,72.5c0-1.3,1.2-1.9,4.2-2.2c0-0.8-0.4-1.5-1.5-1.5c-0.8,0-1.5,0.4-2,0.7l-0.4-0.7c0.6-0.4,1.6-0.8,2.6-0.8
				c1.6,0,2.4,0.9,2.4,2.4V74h-0.8l-0.1-0.8h0c-0.6,0.5-1.5,0.9-2.3,0.9C126.6,74.1,125.7,73.5,125.7,72.5z M130,72.4v-1.5
				c-2.5,0.2-3.2,0.7-3.2,1.5c0,0.7,0.6,0.9,1.3,0.9C128.6,73.3,129.3,73,130,72.4z"/>
			<path d="M133.7,68.1h0.8l0.1,1.4h0c0.6-0.9,1.5-1.5,2.6-1.5c0.4,0,0.8,0.1,1.2,0.2l-0.2,0.9c-0.4-0.1-0.6-0.2-1.1-0.2
				c-0.9,0-1.7,0.4-2.4,1.7V74h-1V68.1z"/>
			<path d="M140.1,72.5c0-1.3,1.2-1.9,4.2-2.2c0-0.8-0.4-1.5-1.5-1.5c-0.8,0-1.5,0.4-2,0.7l-0.4-0.7C141,68.4,142,68,143,68
				c1.6,0,2.4,0.9,2.4,2.4V74h-0.8l-0.1-0.8h0c-0.6,0.5-1.5,0.9-2.3,0.9C141,74.1,140.1,73.5,140.1,72.5z M144.4,72.4v-1.5
				c-2.5,0.2-3.2,0.7-3.2,1.5c0,0.7,0.6,0.9,1.3,0.9C143,73.3,143.7,73,144.4,72.4z"/>
			<path d="M147.3,71.1c0-2,1.5-3.1,3.3-3.1c0.9,0,1.6,0.4,2.1,0.9l-0.5,0.6c-0.5-0.4-1-0.7-1.6-0.7c-1.3,0-2.3,0.9-2.3,2.2
				c0,1.3,0.9,2.2,2.2,2.2c0.7,0,1.3-0.3,1.8-0.7l0.4,0.6c-0.6,0.6-1.5,0.9-2.3,0.9C148.7,74.1,147.3,73,147.3,71.1z"/>
			<path d="M156,71.7v-2.8h-1.7v-0.7l1.7-0.1l0.1-1.9h0.8v1.9h2.9v0.8H157v2.8c0,1,0.3,1.6,1.5,1.6c0.5,0,1-0.1,1.4-0.3l0.2,0.7
				c-0.5,0.2-1.1,0.3-1.8,0.3C156.6,74.1,156,73.1,156,71.7z"/>
			<path d="M161.6,71c0-1.9,1.4-3,3-3c1.7,0,2.7,1.1,2.7,2.7c0,0.2,0,0.4,0,0.6h-4.9v-0.8h4.3l-0.3,0.3c0-1.4-0.7-2.1-1.8-2.1
				c-1.1,0-2,0.8-2,2.3c0,1.5,1,2.3,2.3,2.3c0.7,0,1.2-0.2,1.8-0.6l0.4,0.6c-0.6,0.4-1.3,0.7-2.3,0.7C163,74.1,161.6,73,161.6,71z"
				/>
			<path d="M169.7,68.1h0.8l0.1,1.4h0c0.6-0.9,1.5-1.5,2.6-1.5c0.4,0,0.8,0.1,1.2,0.2l-0.2,0.9c-0.4-0.1-0.6-0.2-1.1-0.2
				c-0.9,0-1.7,0.4-2.4,1.7V74h-1V68.1z"/>
			<path d="M184.9,70.6c0-2.3,1-4.1,2.7-5.4l0.6,0.5c-1.6,1.4-2.4,2.9-2.4,4.9c0,2,0.7,3.6,2.4,4.9l-0.6,0.5
				C185.9,74.8,184.9,72.9,184.9,70.6z"/>
			<path d="M190.9,66.1h4.9V67h-3.9v2.5h3.3v0.9h-3.3v2.9h4V74h-5V66.1z"/>
			<path d="M197.7,71.8v-3.6h1v3.5c0,1.1,0.4,1.6,1.3,1.6c0.7,0,1.2-0.3,1.8-1.1v-4h1V74H202l-0.1-1h0c-0.6,0.7-1.3,1.2-2.2,1.2
				C198.3,74.1,197.7,73.3,197.7,71.8z"/>
			<path d="M205.2,65.4h1v5.8h0l3.1-3.1h1.1l-4.3,4.2V74h-1V65.4z M207.5,70.9l0.6-0.6l2.8,3.7h-1.1L207.5,70.9z"/>
			<path d="M212.1,72.5c0-1.3,1.2-1.9,4.2-2.2c0-0.8-0.4-1.5-1.5-1.5c-0.8,0-1.5,0.4-2,0.7l-0.4-0.7C213,68.4,214,68,215,68
				c1.6,0,2.4,0.9,2.4,2.4V74h-0.8l-0.1-0.8h0c-0.6,0.5-1.5,0.9-2.3,0.9C213,74.1,212.1,73.5,212.1,72.5z M216.4,72.4v-1.5
				c-2.5,0.2-3.2,0.7-3.2,1.5c0,0.7,0.6,0.9,1.3,0.9C215,73.3,215.7,73,216.4,72.4z"/>
			<path d="M220.1,68.1h0.8l0.1,1.4h0c0.6-0.9,1.5-1.5,2.6-1.5c0.4,0,0.8,0.1,1.2,0.2l-0.2,0.9c-0.4-0.1-0.6-0.2-1.1-0.2
				c-0.9,0-1.7,0.4-2.4,1.7V74h-1V68.1z"/>
			<path d="M226.4,76.4l0.2-0.8c0.2,0,0.3,0.1,0.5,0.1c0.8,0,1.3-0.5,1.6-1.2l0.2-0.4l-2.7-5.8h1l1.4,3.2c0.2,0.5,0.5,1.1,0.7,1.7h0
				c0.2-0.6,0.4-1.2,0.6-1.7l1.3-3.2h1l-2.6,6.3c-0.4,1.2-1.1,2-2.5,2C226.9,76.5,226.6,76.4,226.4,76.4z"/>
			<path d="M233.7,72.5c0-1.3,1.2-1.9,4.2-2.2c0-0.8-0.4-1.5-1.5-1.5c-0.8,0-1.5,0.4-2,0.7l-0.4-0.7c0.6-0.4,1.6-0.8,2.6-0.8
				c1.6,0,2.4,0.9,2.4,2.4V74h-0.8l-0.1-0.8h0c-0.6,0.5-1.5,0.9-2.3,0.9C234.6,74.1,233.7,73.5,233.7,72.5z M238,72.4v-1.5
				c-2.5,0.2-3.2,0.7-3.2,1.5c0,0.7,0.6,0.9,1.3,0.9C236.6,73.3,237.3,73,238,72.4z"/>
			<path d="M241.4,75.6c1.6-1.4,2.4-2.9,2.4-4.9c0-2-0.7-3.6-2.4-4.9l0.6-0.5c1.7,1.3,2.7,3.1,2.7,5.4c0,2.3-1,4.1-2.7,5.4
				L241.4,75.6z"/>
			<path d="M39.4,84h5.2v0.7h-5.2V84z"/>
			<path d="M53.9,80.5h1v3.9h0l3.3-3.9h1.2L55,85.9v2.5h-1V80.5z M56.2,84l0.6-0.8l3,5.2h-1.1L56.2,84z"/>
			<path d="M63.7,83.3H61v-0.8h3.7v5.8h-1V83.3z M63.3,80.5c0-0.5,0.3-0.8,0.8-0.8c0.5,0,0.8,0.3,0.8,0.8c0,0.5-0.3,0.8-0.8,0.8
				C63.7,81.3,63.3,81,63.3,80.5z"/>
			<path d="M68.3,82.5h0.8l0.1,1h0c0.6-0.6,1.3-1.1,2.2-1.1c1.4,0,2,0.8,2,2.4v3.6h-1v-3.5c0-1.1-0.4-1.6-1.3-1.6
				c-0.7,0-1.2,0.3-1.8,1v4.1h-1V82.5z"/>
			<path d="M75.2,89.4c0-0.5,0.3-0.9,1-1.3v0c-0.3-0.2-0.6-0.5-0.6-1c0-0.4,0.3-0.8,0.7-1.1v0c-0.4-0.3-0.7-0.8-0.7-1.5
				c0-1.3,1.1-2.1,2.3-2.1c0.3,0,0.6,0,0.9,0.1h2.4v0.8h-1.5c0.3,0.3,0.5,0.7,0.5,1.2c0,1.2-1,2-2.3,2c-0.3,0-0.7-0.1-1-0.2
				c-0.3,0.2-0.5,0.4-0.5,0.7c0,0.5,0.4,0.7,1.2,0.7h1.3c1.5,0,2.2,0.4,2.2,1.4c0,1.1-1.3,2-3.2,2C76.2,91.1,75.2,90.5,75.2,89.4z
				 M80.2,89.2c0-0.6-0.4-0.7-1.3-0.7h-1.1c-0.3,0-0.6,0-0.9-0.1c-0.6,0.3-0.7,0.6-0.7,1c0,0.6,0.7,1,1.9,1
				C79.3,90.3,80.2,89.8,80.2,89.2z M79.2,84.5c0-0.8-0.6-1.4-1.3-1.4c-0.7,0-1.3,0.6-1.3,1.4c0,0.8,0.6,1.4,1.3,1.4
				C78.6,85.9,79.2,85.3,79.2,84.5z"/>
			<path d="M82.3,85.5c0-1.9,1.3-3.1,2.6-3.1c0.7,0,1.2,0.3,1.8,0.7h0l0-1.1v-2.2h1v8.5h-0.8l-0.1-0.8h0c-0.5,0.5-1.2,0.9-1.9,0.9
				C83.3,88.5,82.3,87.4,82.3,85.5z M86.7,86.8v-2.9c-0.5-0.5-1-0.7-1.5-0.7c-1,0-1.8,0.9-1.8,2.2c0,1.4,0.6,2.2,1.7,2.2
				C85.6,87.7,86.1,87.4,86.7,86.8z"/>
			<path d="M89.5,85.5c0-2,1.3-3.1,2.9-3.1s2.9,1.1,2.9,3.1c0,1.9-1.3,3-2.9,3S89.5,87.4,89.5,85.5z M94.2,85.5
				c0-1.3-0.7-2.2-1.9-2.2c-1.1,0-1.9,0.9-1.9,2.2c0,1.3,0.7,2.2,1.9,2.2C93.5,87.7,94.2,86.8,94.2,85.5z"/>
			<path d="M96.7,82.5h0.8l0.1,0.8h0c0.3-0.5,0.7-0.9,1.3-0.9c0.6,0,0.9,0.3,1.1,1c0.3-0.6,0.7-1,1.4-1c0.8,0,1.3,0.6,1.3,1.8v4.2
				h-1v-4.1c0-0.7-0.2-1-0.6-1c-0.4,0-0.6,0.3-0.9,0.9v4.2h-0.9v-4.1c0-0.7-0.2-1-0.6-1c-0.4,0-0.7,0.3-1,0.9v4.2h-1V82.5z"/>
			<path d="M105.8,83.2c0-0.6,0.4-1,1-1c0.5,0,1,0.4,1,1c0,0.6-0.4,1-1,1C106.2,84.2,105.8,83.8,105.8,83.2z M105.8,87.5
				c0-0.6,0.4-1,1-1c0.5,0,1,0.4,1,1c0,0.6-0.4,1-1,1C106.2,88.5,105.8,88.1,105.8,87.5z"/>
			<path d="M118.5,85.5c0-2,1.5-3.1,3.3-3.1c0.9,0,1.6,0.4,2.1,0.9l-0.5,0.6c-0.5-0.4-1-0.7-1.6-0.7c-1.3,0-2.3,0.9-2.3,2.2
				c0,1.3,0.9,2.2,2.2,2.2c0.7,0,1.3-0.3,1.8-0.7l0.4,0.6c-0.6,0.6-1.5,0.9-2.3,0.9C119.9,88.5,118.5,87.4,118.5,85.5z"/>
			<path d="M125.9,79.8h1v2.3l-0.1,1.4h0c0.6-0.6,1.3-1.1,2.2-1.1c1.4,0,2,0.8,2,2.4v3.6h-1v-3.5c0-1.1-0.4-1.6-1.3-1.6
				c-0.7,0-1.2,0.3-1.8,1v4.1h-1V79.8z"/>
			<path d="M132.9,86.9c0-1.3,1.2-1.9,4.2-2.2c0-0.8-0.4-1.5-1.5-1.5c-0.8,0-1.5,0.4-2,0.7l-0.4-0.7c0.6-0.4,1.6-0.8,2.6-0.8
				c1.6,0,2.4,0.9,2.4,2.4v3.6h-0.8l-0.1-0.8h0c-0.6,0.5-1.5,0.9-2.3,0.9C133.8,88.5,132.9,87.9,132.9,86.9z M137.2,86.8v-1.5
				c-2.5,0.2-3.2,0.7-3.2,1.5c0,0.7,0.6,0.9,1.3,0.9C135.8,87.7,136.5,87.4,137.2,86.8z"/>
			<path d="M140.9,82.5h0.8l0.1,1.4h0c0.6-0.9,1.5-1.5,2.6-1.5c0.4,0,0.8,0.1,1.2,0.2l-0.2,0.9c-0.4-0.1-0.6-0.2-1.1-0.2
				c-0.9,0-1.7,0.4-2.4,1.7v3.4h-1V82.5z"/>
			<path d="M147.3,86.9c0-1.3,1.2-1.9,4.2-2.2c0-0.8-0.4-1.5-1.5-1.5c-0.8,0-1.5,0.4-2,0.7l-0.4-0.7c0.6-0.4,1.6-0.8,2.6-0.8
				c1.6,0,2.4,0.9,2.4,2.4v3.6h-0.8l-0.1-0.8h0c-0.6,0.5-1.5,0.9-2.3,0.9C148.2,88.5,147.3,87.9,147.3,86.9z M151.6,86.8v-1.5
				c-2.5,0.2-3.2,0.7-3.2,1.5c0,0.7,0.6,0.9,1.3,0.9C150.2,87.7,150.9,87.4,151.6,86.8z"/>
			<path d="M154.5,85.5c0-2,1.5-3.1,3.2-3.1c0.9,0,1.6,0.4,2.1,0.9l-0.5,0.6c-0.5-0.4-1-0.7-1.6-0.7c-1.3,0-2.3,0.9-2.3,2.2
				c0,1.3,0.9,2.2,2.2,2.2c0.7,0,1.3-0.3,1.8-0.7l0.4,0.6c-0.6,0.6-1.5,0.9-2.3,0.9C155.9,88.5,154.5,87.4,154.5,85.5z"/>
			<path d="M163.2,86.1v-2.8h-1.7v-0.7l1.7-0.1l0.1-1.9h0.8v1.9h2.9v0.8h-2.9v2.8c0,1,0.3,1.6,1.5,1.6c0.5,0,1-0.1,1.4-0.3l0.2,0.7
				c-0.5,0.2-1.1,0.3-1.8,0.3C163.8,88.5,163.2,87.5,163.2,86.1z"/>
			<path d="M168.8,85.4c0-1.9,1.4-3,3-3c1.7,0,2.7,1.1,2.7,2.7c0,0.2,0,0.4,0,0.6h-4.9V85h4.3l-0.3,0.3c0-1.4-0.7-2.1-1.8-2.1
				c-1.1,0-2,0.8-2,2.3c0,1.5,1,2.3,2.3,2.3c0.7,0,1.2-0.2,1.8-0.6l0.4,0.6c-0.6,0.4-1.3,0.7-2.3,0.7
				C170.2,88.5,168.8,87.4,168.8,85.4z"/>
			<path d="M176.9,82.5h0.8l0.1,1.4h0c0.6-0.9,1.5-1.5,2.6-1.5c0.4,0,0.8,0.1,1.2,0.2l-0.2,0.9c-0.4-0.1-0.6-0.2-1.1-0.2
				c-0.9,0-1.7,0.4-2.4,1.7v3.4h-1V82.5z"/>
			<path d="M192.1,85c0-2.3,1-4.1,2.7-5.4l0.6,0.5c-1.6,1.4-2.4,2.9-2.4,4.9c0,2,0.7,3.6,2.4,4.9l-0.6,0.5
				C193.1,89.2,192.1,87.3,192.1,85z"/>
			<path d="M199.8,80.5h1.2l2.7,7.9h-1.1l-1.4-4.4c-0.3-0.9-0.5-1.7-0.8-2.7h0c-0.3,0.9-0.5,1.8-0.8,2.7l-1.4,4.4h-1L199.8,80.5z
				 M198.5,85.2h3.6V86h-3.6V85.2z"/>
			<path d="M205.1,82.5h0.8l0.1,1h0c0.6-0.6,1.3-1.1,2.2-1.1c1.4,0,2,0.8,2,2.4v3.6h-1v-3.5c0-1.1-0.4-1.6-1.3-1.6
				c-0.7,0-1.2,0.3-1.8,1v4.1h-1V82.5z"/>
			<path d="M214.9,83.3h-2.7v-0.8h3.7v5.8h-1V83.3z M214.5,80.5c0-0.5,0.3-0.8,0.8-0.8s0.8,0.3,0.8,0.8c0,0.5-0.3,0.8-0.8,0.8
				S214.5,81,214.5,80.5z"/>
			<path d="M219.1,82.5h0.8l0.1,0.8h0c0.3-0.5,0.7-0.9,1.3-0.9c0.6,0,0.9,0.3,1.1,1c0.3-0.6,0.7-1,1.4-1c0.8,0,1.3,0.6,1.3,1.8v4.2
				h-1v-4.1c0-0.7-0.2-1-0.6-1c-0.4,0-0.6,0.3-0.9,0.9v4.2h-0.9v-4.1c0-0.7-0.2-1-0.6-1c-0.4,0-0.7,0.3-1,0.9v4.2h-1V82.5z"/>
			<path d="M226.5,86.9c0-1.3,1.2-1.9,4.2-2.2c0-0.8-0.4-1.5-1.5-1.5c-0.8,0-1.5,0.4-2,0.7l-0.4-0.7c0.6-0.4,1.6-0.8,2.6-0.8
				c1.6,0,2.4,0.9,2.4,2.4v3.6h-0.8l-0.1-0.8h0c-0.6,0.5-1.5,0.9-2.3,0.9C227.4,88.5,226.5,87.9,226.5,86.9z M230.8,86.8v-1.5
				c-2.5,0.2-3.2,0.7-3.2,1.5c0,0.7,0.6,0.9,1.3,0.9C229.4,87.7,230.1,87.4,230.8,86.8z"/>
			<path d="M235.7,86.4v-5.8h-2.1v-0.8h3.1v6.7c0,0.8,0.5,1.2,1.2,1.2c0.3,0,0.7-0.1,1.1-0.3l0.3,0.7c-0.5,0.2-0.9,0.3-1.6,0.3
				C236.4,88.5,235.7,87.8,235.7,86.4z"/>
			<path d="M240.8,87.6l0.5-0.7c0.7,0.5,1.5,0.8,2.5,0.8c1,0,1.5-0.4,1.5-0.9c0-0.4-0.2-0.8-1.8-1.1c-1.5-0.3-2.3-0.8-2.3-1.7
				c0-0.9,0.8-1.7,2.4-1.7c0.9,0,1.8,0.3,2.4,0.7l-0.5,0.6c-0.5-0.4-1.2-0.6-2-0.6c-1,0-1.3,0.4-1.3,0.8c0,0.5,0.5,0.7,1.7,1
				c1.9,0.4,2.4,0.9,2.4,1.8c0,0.9-0.9,1.7-2.6,1.7C242.5,88.5,241.5,88.1,240.8,87.6z"/>
			<path d="M248.6,90c1.6-1.4,2.4-2.9,2.4-4.9c0-2-0.7-3.6-2.4-4.9l0.6-0.5c1.7,1.3,2.7,3.1,2.7,5.4c0,2.3-1,4.1-2.7,5.4L248.6,90z"
				/>
			<path d="M39.4,98.4h5.2v0.7h-5.2V98.4z"/>
			<path d="M54,94.9h2.4c1.7,0,2.9,0.6,2.9,2.3c0,1.7-1.2,2.4-2.9,2.4H55v3.1h-1V94.9z M56.2,98.8c1.4,0,2-0.5,2-1.6
				c0-1.1-0.7-1.5-2-1.5H55v3.1H56.2z"/>
			<path d="M61.1,94.2h1v2.3L62,97.9h0c0.6-0.6,1.3-1.1,2.2-1.1c1.4,0,2,0.8,2,2.4v3.6h-1v-3.5c0-1.1-0.4-1.6-1.3-1.6
				c-0.7,0-1.2,0.3-1.8,1v4.1h-1V94.2z"/>
			<path d="M68,105.2l0.2-0.8c0.2,0,0.3,0.1,0.5,0.1c0.8,0,1.3-0.5,1.6-1.2l0.2-0.4l-2.7-5.8h1l1.4,3.2c0.2,0.5,0.5,1.1,0.7,1.7h0
				c0.2-0.6,0.4-1.2,0.6-1.7l1.3-3.2h1l-2.6,6.3c-0.4,1.2-1.1,2-2.5,2C68.5,105.3,68.2,105.2,68,105.2z"/>
			<path d="M77.3,100.8V95h-2.1v-0.8h3.1v6.7c0,0.8,0.5,1.2,1.2,1.2c0.3,0,0.7-0.1,1.1-0.3l0.3,0.7c-0.5,0.2-0.9,0.3-1.6,0.3
				C78,102.9,77.3,102.2,77.3,100.8z"/>
			<path d="M82.5,100.6v-3.6h1v3.5c0,1.1,0.4,1.6,1.3,1.6c0.7,0,1.2-0.3,1.8-1.1v-4h1v5.8h-0.8l-0.1-1h0c-0.6,0.7-1.3,1.2-2.2,1.2
				C83.1,102.9,82.5,102.1,82.5,100.6z"/>
			<path d="M89.5,96.9h0.8l0.1,0.8h0c0.3-0.5,0.7-0.9,1.3-0.9c0.6,0,0.9,0.3,1.1,1c0.3-0.6,0.7-1,1.4-1c0.8,0,1.3,0.6,1.3,1.8v4.2
				h-1v-4.1c0-0.7-0.2-1-0.6-1c-0.4,0-0.6,0.3-0.9,0.9v4.2H92v-4.1c0-0.7-0.2-1-0.6-1c-0.4,0-0.7,0.3-1,0.9v4.2h-1V96.9z"/>
			<path d="M98.6,97.6c0-0.6,0.4-1,1-1c0.5,0,1,0.4,1,1c0,0.6-0.4,1-1,1C99,98.6,98.6,98.2,98.6,97.6z M98.6,101.9c0-0.6,0.4-1,1-1
				c0.5,0,1,0.4,1,1c0,0.6-0.4,1-1,1C99,102.9,98.6,102.5,98.6,101.9z"/>
			<path d="M111.3,99.9c0-2,1.5-3.1,3.2-3.1c0.9,0,1.6,0.4,2.1,0.9l-0.5,0.6c-0.5-0.4-1-0.7-1.6-0.7c-1.3,0-2.3,0.9-2.3,2.2
				c0,1.3,0.9,2.2,2.2,2.2c0.7,0,1.3-0.3,1.8-0.7l0.4,0.6c-0.6,0.6-1.5,0.9-2.3,0.9C112.7,102.9,111.3,101.8,111.3,99.9z"/>
			<path d="M118.7,94.2h1v2.3l-0.1,1.4h0c0.6-0.6,1.3-1.1,2.2-1.1c1.4,0,2,0.8,2,2.4v3.6h-1v-3.5c0-1.1-0.4-1.6-1.3-1.6
				c-0.7,0-1.2,0.3-1.8,1v4.1h-1V94.2z"/>
			<path d="M125.7,101.3c0-1.3,1.2-1.9,4.2-2.2c0-0.8-0.4-1.5-1.5-1.5c-0.8,0-1.5,0.4-2,0.7l-0.4-0.7c0.6-0.4,1.6-0.8,2.6-0.8
				c1.6,0,2.4,0.9,2.4,2.4v3.6h-0.8L130,102h0c-0.6,0.5-1.5,0.9-2.3,0.9C126.6,102.9,125.7,102.3,125.7,101.3z M130,101.2v-1.5
				c-2.5,0.2-3.2,0.7-3.2,1.5c0,0.7,0.6,0.9,1.3,0.9C128.6,102.1,129.3,101.8,130,101.2z"/>
			<path d="M133.7,96.9h0.8l0.1,1.4h0c0.6-0.9,1.5-1.5,2.6-1.5c0.4,0,0.8,0.1,1.2,0.2l-0.2,0.9c-0.4-0.1-0.6-0.2-1.1-0.2
				c-0.9,0-1.7,0.4-2.4,1.7v3.4h-1V96.9z"/>
			<path d="M140.1,101.3c0-1.3,1.2-1.9,4.2-2.2c0-0.8-0.4-1.5-1.5-1.5c-0.8,0-1.5,0.4-2,0.7l-0.4-0.7c0.6-0.4,1.6-0.8,2.6-0.8
				c1.6,0,2.4,0.9,2.4,2.4v3.6h-0.8l-0.1-0.8h0c-0.6,0.5-1.5,0.9-2.3,0.9C141,102.9,140.1,102.3,140.1,101.3z M144.4,101.2v-1.5
				c-2.5,0.2-3.2,0.7-3.2,1.5c0,0.7,0.6,0.9,1.3,0.9C143,102.1,143.7,101.8,144.4,101.2z"/>
			<path d="M147.3,99.9c0-2,1.5-3.1,3.3-3.1c0.9,0,1.6,0.4,2.1,0.9l-0.5,0.6c-0.5-0.4-1-0.7-1.6-0.7c-1.3,0-2.3,0.9-2.3,2.2
				c0,1.3,0.9,2.2,2.2,2.2c0.7,0,1.3-0.3,1.8-0.7l0.4,0.6c-0.6,0.6-1.5,0.9-2.3,0.9C148.7,102.9,147.3,101.8,147.3,99.9z"/>
			<path d="M156,100.5v-2.8h-1.7V97l1.7-0.1l0.1-1.9h0.8v1.9h2.9v0.8H157v2.8c0,1,0.3,1.6,1.5,1.6c0.5,0,1-0.1,1.4-0.3l0.2,0.7
				c-0.5,0.2-1.1,0.3-1.8,0.3C156.6,102.9,156,101.9,156,100.5z"/>
			<path d="M161.6,99.8c0-1.9,1.4-3,3-3c1.7,0,2.7,1.1,2.7,2.7c0,0.2,0,0.4,0,0.6h-4.9v-0.8h4.3l-0.3,0.3c0-1.4-0.7-2.1-1.8-2.1
				c-1.1,0-2,0.8-2,2.3c0,1.5,1,2.3,2.3,2.3c0.7,0,1.2-0.2,1.8-0.6l0.4,0.6c-0.6,0.4-1.3,0.7-2.3,0.7
				C163,102.9,161.6,101.8,161.6,99.8z"/>
			<path d="M169.7,96.9h0.8l0.1,1.4h0c0.6-0.9,1.5-1.5,2.6-1.5c0.4,0,0.8,0.1,1.2,0.2l-0.2,0.9c-0.4-0.1-0.6-0.2-1.1-0.2
				c-0.9,0-1.7,0.4-2.4,1.7v3.4h-1V96.9z"/>
			<path d="M39.4,112.8h5.2v0.7h-5.2V112.8z"/>
			<path d="M53.5,113.2c0-2.5,1.5-4.1,3.5-4.1c0.9,0,1.7,0.5,2.2,1l-0.6,0.6c-0.4-0.4-0.9-0.7-1.6-0.7c-1.5,0-2.5,1.2-2.5,3.2
				c0,2,1,3.2,2.5,3.2c0.7,0,1.3-0.3,1.8-0.9l0.6,0.6c-0.6,0.7-1.4,1.1-2.4,1.1C55,117.3,53.5,115.8,53.5,113.2z"/>
			<path d="M62.9,115.2v-5.8h-2.1v-0.8h3.1v6.7c0,0.8,0.5,1.2,1.2,1.2c0.3,0,0.7-0.1,1.1-0.3l0.3,0.7c-0.5,0.2-0.9,0.3-1.6,0.3
				C63.6,117.3,62.9,116.6,62.9,115.2z"/>
			<path d="M68.1,115.7c0-1.3,1.2-1.9,4.2-2.2c0-0.8-0.4-1.5-1.5-1.5c-0.8,0-1.5,0.4-2,0.7l-0.4-0.7c0.6-0.4,1.6-0.8,2.6-0.8
				c1.6,0,2.4,0.9,2.4,2.4v3.6h-0.8l-0.1-0.8h0c-0.6,0.5-1.5,0.9-2.3,0.9C69,117.3,68.1,116.7,68.1,115.7z M72.4,115.6v-1.5
				c-2.5,0.2-3.3,0.7-3.3,1.5c0,0.7,0.6,0.9,1.3,0.9C71,116.5,71.7,116.2,72.4,115.6z"/>
			<path d="M75.2,116.4l0.5-0.7c0.7,0.5,1.5,0.8,2.5,0.8c1,0,1.5-0.4,1.5-0.9c0-0.4-0.2-0.8-1.8-1.1c-1.5-0.3-2.3-0.8-2.3-1.7
				c0-0.9,0.8-1.7,2.4-1.7c0.9,0,1.8,0.3,2.4,0.7l-0.5,0.6c-0.5-0.4-1.2-0.6-2-0.6c-1,0-1.3,0.4-1.3,0.8c0,0.5,0.5,0.7,1.7,1
				c1.9,0.4,2.4,0.9,2.4,1.8c0,0.9-0.9,1.7-2.6,1.7C76.9,117.3,75.9,116.9,75.2,116.4z"/>
			<path d="M82.4,116.4l0.5-0.7c0.7,0.5,1.5,0.8,2.5,0.8c1,0,1.5-0.4,1.5-0.9c0-0.4-0.2-0.8-1.8-1.1c-1.5-0.3-2.3-0.8-2.3-1.7
				c0-0.9,0.8-1.7,2.4-1.7c0.9,0,1.8,0.3,2.4,0.7l-0.5,0.6c-0.5-0.4-1.2-0.6-2-0.6c-1,0-1.3,0.4-1.3,0.8c0,0.5,0.5,0.7,1.7,1
				c1.9,0.4,2.4,0.9,2.4,1.8c0,0.9-0.9,1.7-2.6,1.7C84.1,117.3,83.1,116.9,82.4,116.4z"/>
			<path d="M91.4,112c0-0.6,0.4-1,1-1c0.5,0,1,0.4,1,1c0,0.6-0.4,1-1,1C91.8,113,91.4,112.6,91.4,112z M91.4,116.3c0-0.6,0.4-1,1-1
				c0.5,0,1,0.4,1,1c0,0.6-0.4,1-1,1C91.8,117.3,91.4,116.9,91.4,116.3z"/>
			<path d="M104.1,114.3c0-2,1.5-3.1,3.3-3.1c0.9,0,1.6,0.4,2.1,0.9l-0.5,0.6c-0.5-0.4-1-0.7-1.6-0.7c-1.3,0-2.3,0.9-2.3,2.2
				c0,1.3,0.9,2.2,2.2,2.2c0.7,0,1.3-0.3,1.8-0.7l0.4,0.6c-0.6,0.6-1.5,0.9-2.3,0.9C105.5,117.3,104.1,116.2,104.1,114.3z"/>
			<path d="M111.5,108.6h1v2.3l-0.1,1.4h0c0.6-0.6,1.3-1.1,2.2-1.1c1.4,0,2,0.8,2,2.4v3.6h-1v-3.5c0-1.1-0.4-1.6-1.3-1.6
				c-0.7,0-1.2,0.3-1.8,1v4.1h-1V108.6z"/>
			<path d="M118.5,115.7c0-1.3,1.2-1.9,4.2-2.2c0-0.8-0.4-1.5-1.5-1.5c-0.8,0-1.5,0.4-2,0.7l-0.4-0.7c0.6-0.4,1.6-0.8,2.6-0.8
				c1.6,0,2.4,0.9,2.4,2.4v3.6h-0.8l-0.1-0.8h0c-0.6,0.5-1.5,0.9-2.3,0.9C119.4,117.3,118.5,116.7,118.5,115.7z M122.8,115.6v-1.5
				c-2.5,0.2-3.2,0.7-3.2,1.5c0,0.7,0.6,0.9,1.3,0.9C121.4,116.5,122.1,116.2,122.8,115.6z"/>
			<path d="M126.5,111.3h0.8l0.1,1.4h0c0.6-0.9,1.5-1.5,2.6-1.5c0.4,0,0.8,0.1,1.2,0.2l-0.2,0.9c-0.4-0.1-0.6-0.2-1.1-0.2
				c-0.9,0-1.7,0.4-2.4,1.7v3.4h-1V111.3z"/>
			<path d="M132.9,115.7c0-1.3,1.2-1.9,4.2-2.2c0-0.8-0.4-1.5-1.5-1.5c-0.8,0-1.5,0.4-2,0.7l-0.4-0.7c0.6-0.4,1.6-0.8,2.6-0.8
				c1.6,0,2.4,0.9,2.4,2.4v3.6h-0.8l-0.1-0.8h0c-0.6,0.5-1.5,0.9-2.3,0.9C133.8,117.3,132.9,116.7,132.9,115.7z M137.2,115.6v-1.5
				c-2.5,0.2-3.2,0.7-3.2,1.5c0,0.7,0.6,0.9,1.3,0.9C135.8,116.5,136.5,116.2,137.2,115.6z"/>
			<path d="M140.1,114.3c0-2,1.5-3.1,3.3-3.1c0.9,0,1.6,0.4,2.1,0.9l-0.5,0.6c-0.5-0.4-1-0.7-1.6-0.7c-1.3,0-2.3,0.9-2.3,2.2
				c0,1.3,0.9,2.2,2.2,2.2c0.7,0,1.3-0.3,1.8-0.7l0.4,0.6c-0.6,0.6-1.5,0.9-2.3,0.9C141.5,117.3,140.1,116.2,140.1,114.3z"/>
			<path d="M148.8,114.9v-2.8h-1.7v-0.7l1.7-0.1l0.1-1.9h0.8v1.9h2.9v0.8h-2.9v2.8c0,1,0.3,1.6,1.5,1.6c0.5,0,1-0.1,1.4-0.3l0.2,0.7
				c-0.5,0.2-1.1,0.3-1.8,0.3C149.4,117.3,148.8,116.3,148.8,114.9z"/>
			<path d="M154.4,114.2c0-1.9,1.4-3,3-3c1.7,0,2.7,1.1,2.7,2.7c0,0.2,0,0.4,0,0.6H155v-0.8h4.3l-0.3,0.3c0-1.4-0.7-2.1-1.8-2.1
				c-1.1,0-2,0.8-2,2.3c0,1.5,1,2.3,2.3,2.3c0.7,0,1.2-0.2,1.8-0.6l0.4,0.6c-0.6,0.4-1.3,0.7-2.3,0.7
				C155.8,117.3,154.4,116.2,154.4,114.2z"/>
			<path d="M162.5,111.3h0.8l0.1,1.4h0c0.6-0.9,1.5-1.5,2.6-1.5c0.4,0,0.8,0.1,1.2,0.2l-0.2,0.9c-0.4-0.1-0.6-0.2-1.1-0.2
				c-0.9,0-1.7,0.4-2.4,1.7v3.4h-1V111.3z"/>
			<path d="M39.4,127.2h5.2v0.7h-5.2V127.2z"/>
			<path d="M53.3,127.6c0-2.5,1.2-4,3-4c1.8,0,3,1.5,3,4c0,2.6-1.2,4.1-3,4.1C54.6,131.7,53.3,130.2,53.3,127.6z M58.3,127.6
				c0-2-0.8-3.2-2-3.2c-1.2,0-2,1.2-2,3.2c0,2,0.8,3.2,2,3.2C57.6,130.8,58.3,129.6,58.3,127.6z"/>
			<path d="M61.7,125.7h0.8l0.1,1.4h0c0.6-0.9,1.5-1.5,2.6-1.5c0.4,0,0.8,0.1,1.2,0.2l-0.2,0.9c-0.4-0.1-0.6-0.2-1.1-0.2
				c-0.9,0-1.7,0.4-2.4,1.7v3.4h-1V125.7z"/>
			<path d="M67.9,128.7c0-1.9,1.3-3.1,2.6-3.1c0.7,0,1.2,0.3,1.8,0.7h0l0-1.1V123h1v8.5h-0.8l-0.1-0.8h0c-0.5,0.5-1.2,0.9-1.9,0.9
				C68.9,131.7,67.9,130.6,67.9,128.7z M72.3,130v-2.9c-0.5-0.5-1-0.7-1.5-0.7c-1,0-1.8,0.9-1.8,2.2c0,1.4,0.6,2.2,1.7,2.2
				C71.2,130.9,71.7,130.6,72.3,130z"/>
			<path d="M75.2,128.6c0-1.9,1.4-3,3-3c1.7,0,2.7,1.1,2.7,2.7c0,0.2,0,0.4,0,0.6h-4.9v-0.8h4.3l-0.3,0.3c0-1.4-0.7-2.1-1.8-2.1
				c-1.1,0-2,0.8-2,2.3c0,1.5,1,2.3,2.3,2.3c0.7,0,1.2-0.2,1.8-0.6l0.4,0.6c-0.6,0.4-1.3,0.7-2.3,0.7
				C76.6,131.7,75.2,130.6,75.2,128.6z"/>
			<path d="M83.3,125.7h0.8l0.1,1.4h0c0.6-0.9,1.5-1.5,2.6-1.5c0.4,0,0.8,0.1,1.2,0.2l-0.2,0.9c-0.4-0.1-0.6-0.2-1.1-0.2
				c-0.9,0-1.7,0.4-2.4,1.7v3.4h-1V125.7z"/>
			<path d="M91.4,126.4c0-0.6,0.4-1,1-1c0.5,0,1,0.4,1,1c0,0.6-0.4,1-1,1C91.8,127.4,91.4,127,91.4,126.4z M91.4,130.7
				c0-0.6,0.4-1,1-1c0.5,0,1,0.4,1,1c0,0.6-0.4,1-1,1C91.8,131.7,91.4,131.3,91.4,130.7z"/>
			<path d="M104.1,128.7c0-2,1.5-3.1,3.3-3.1c0.9,0,1.6,0.4,2.1,0.9l-0.5,0.6c-0.5-0.4-1-0.7-1.6-0.7c-1.3,0-2.3,0.9-2.3,2.2
				c0,1.3,0.9,2.2,2.2,2.2c0.7,0,1.3-0.3,1.8-0.7l0.4,0.6c-0.6,0.6-1.5,0.9-2.3,0.9C105.5,131.7,104.1,130.6,104.1,128.7z"/>
			<path d="M111.5,123h1v2.3l-0.1,1.4h0c0.6-0.6,1.3-1.1,2.2-1.1c1.4,0,2,0.8,2,2.4v3.6h-1v-3.5c0-1.1-0.4-1.6-1.3-1.6
				c-0.7,0-1.2,0.3-1.8,1v4.1h-1V123z"/>
			<path d="M118.5,130.1c0-1.3,1.2-1.9,4.2-2.2c0-0.8-0.4-1.5-1.5-1.5c-0.8,0-1.5,0.4-2,0.7l-0.4-0.7c0.6-0.4,1.6-0.8,2.6-0.8
				c1.6,0,2.4,0.9,2.4,2.4v3.6h-0.8l-0.1-0.8h0c-0.6,0.5-1.5,0.9-2.3,0.9C119.4,131.7,118.5,131.1,118.5,130.1z M122.8,130v-1.5
				c-2.5,0.2-3.2,0.7-3.2,1.5c0,0.7,0.6,0.9,1.3,0.9C121.4,130.9,122.1,130.6,122.8,130z"/>
			<path d="M126.5,125.7h0.8l0.1,1.4h0c0.6-0.9,1.5-1.5,2.6-1.5c0.4,0,0.8,0.1,1.2,0.2l-0.2,0.9c-0.4-0.1-0.6-0.2-1.1-0.2
				c-0.9,0-1.7,0.4-2.4,1.7v3.4h-1V125.7z"/>
			<path d="M132.9,130.1c0-1.3,1.2-1.9,4.2-2.2c0-0.8-0.4-1.5-1.5-1.5c-0.8,0-1.5,0.4-2,0.7l-0.4-0.7c0.6-0.4,1.6-0.8,2.6-0.8
				c1.6,0,2.4,0.9,2.4,2.4v3.6h-0.8l-0.1-0.8h0c-0.6,0.5-1.5,0.9-2.3,0.9C133.8,131.7,132.9,131.1,132.9,130.1z M137.2,130v-1.5
				c-2.5,0.2-3.2,0.7-3.2,1.5c0,0.7,0.6,0.9,1.3,0.9C135.8,130.9,136.5,130.6,137.2,130z"/>
			<path d="M140.1,128.7c0-2,1.5-3.1,3.3-3.1c0.9,0,1.6,0.4,2.1,0.9l-0.5,0.6c-0.5-0.4-1-0.7-1.6-0.7c-1.3,0-2.3,0.9-2.3,2.2
				c0,1.3,0.9,2.2,2.2,2.2c0.7,0,1.3-0.3,1.8-0.7l0.4,0.6c-0.6,0.6-1.5,0.9-2.3,0.9C141.5,131.7,140.1,130.6,140.1,128.7z"/>
			<path d="M148.8,129.3v-2.8h-1.7v-0.7l1.7-0.1l0.1-1.9h0.8v1.9h2.9v0.8h-2.9v2.8c0,1,0.3,1.6,1.5,1.6c0.5,0,1-0.1,1.4-0.3l0.2,0.7
				c-0.5,0.2-1.1,0.3-1.8,0.3C149.4,131.7,148.8,130.7,148.8,129.3z"/>
			<path d="M154.4,128.6c0-1.9,1.4-3,3-3c1.7,0,2.7,1.1,2.7,2.7c0,0.2,0,0.4,0,0.6H155v-0.8h4.3l-0.3,0.3c0-1.4-0.7-2.1-1.8-2.1
				c-1.1,0-2,0.8-2,2.3c0,1.5,1,2.3,2.3,2.3c0.7,0,1.2-0.2,1.8-0.6l0.4,0.6c-0.6,0.4-1.3,0.7-2.3,0.7
				C155.8,131.7,154.4,130.6,154.4,128.6z"/>
			<path d="M162.5,125.7h0.8l0.1,1.4h0c0.6-0.9,1.5-1.5,2.6-1.5c0.4,0,0.8,0.1,1.2,0.2l-0.2,0.9c-0.4-0.1-0.6-0.2-1.1-0.2
				c-0.9,0-1.7,0.4-2.4,1.7v3.4h-1V125.7z"/>
			<path d="M39.4,141.6h5.2v0.7h-5.2V141.6z"/>
			<path d="M54.4,138.1h4.8v0.9h-3.8v2.7h3.2v0.9h-3.2v3.5h-1V138.1z"/>
			<path d="M60.9,144.5c0-1.3,1.2-1.9,4.2-2.2c0-0.8-0.4-1.5-1.5-1.5c-0.8,0-1.5,0.4-2,0.7l-0.4-0.7c0.6-0.4,1.6-0.8,2.6-0.8
				c1.6,0,2.4,0.9,2.4,2.4v3.6h-0.8l-0.1-0.8h0c-0.6,0.5-1.5,0.9-2.3,0.9C61.8,146.1,60.9,145.5,60.9,144.5z M65.2,144.4v-1.5
				c-2.5,0.2-3.3,0.7-3.3,1.5c0,0.7,0.6,0.9,1.3,0.9C63.8,145.3,64.5,145,65.2,144.4z"/>
			<path d="M67.9,140.1h0.8l0.1,0.8h0c0.3-0.5,0.7-0.9,1.3-0.9c0.6,0,0.9,0.3,1.1,1c0.3-0.6,0.7-1,1.4-1c0.8,0,1.3,0.6,1.3,1.8v4.2
				h-1v-4.1c0-0.7-0.2-1-0.6-1c-0.4,0-0.6,0.3-0.9,0.9v4.2h-0.9v-4.1c0-0.7-0.2-1-0.6-1c-0.4,0-0.7,0.3-1,0.9v4.2h-1V140.1z"/>
			<path d="M78.1,140.9h-2.7v-0.8h3.7v5.8h-1V140.9z M77.7,138.1c0-0.5,0.3-0.8,0.8-0.8c0.5,0,0.8,0.3,0.8,0.8
				c0,0.5-0.3,0.8-0.8,0.8C78.1,138.9,77.7,138.6,77.7,138.1z"/>
			<path d="M84.5,144v-5.8h-2.1v-0.8h3.1v6.7c0,0.8,0.5,1.2,1.2,1.2c0.3,0,0.7-0.1,1.1-0.3l0.3,0.7c-0.5,0.2-0.9,0.3-1.6,0.3
				C85.2,146.1,84.5,145.4,84.5,144z"/>
			<path d="M89.6,148.4l0.2-0.8c0.2,0,0.3,0.1,0.5,0.1c0.8,0,1.3-0.5,1.6-1.2l0.2-0.4l-2.7-5.8h1l1.4,3.2c0.2,0.5,0.5,1.1,0.7,1.7h0
				c0.2-0.6,0.4-1.2,0.6-1.7l1.3-3.2h1l-2.6,6.3c-0.4,1.2-1.1,2-2.5,2C90.1,148.5,89.8,148.4,89.6,148.4z"/>
			<path d="M98.6,140.8c0-0.6,0.4-1,1-1c0.5,0,1,0.4,1,1c0,0.6-0.4,1-1,1C99,141.8,98.6,141.4,98.6,140.8z M98.6,145.1
				c0-0.6,0.4-1,1-1c0.5,0,1,0.4,1,1c0,0.6-0.4,1-1,1C99,146.1,98.6,145.7,98.6,145.1z"/>
			<path d="M111.3,143.1c0-2,1.5-3.1,3.2-3.1c0.9,0,1.6,0.4,2.1,0.9l-0.5,0.6c-0.5-0.4-1-0.7-1.6-0.7c-1.3,0-2.3,0.9-2.3,2.2
				c0,1.3,0.9,2.2,2.2,2.2c0.7,0,1.3-0.3,1.8-0.7l0.4,0.6c-0.6,0.6-1.5,0.9-2.3,0.9C112.7,146.1,111.3,145,111.3,143.1z"/>
			<path d="M118.7,137.4h1v2.3l-0.1,1.4h0c0.6-0.6,1.3-1.1,2.2-1.1c1.4,0,2,0.8,2,2.4v3.6h-1v-3.5c0-1.1-0.4-1.6-1.3-1.6
				c-0.7,0-1.2,0.3-1.8,1v4.1h-1V137.4z"/>
			<path d="M125.7,144.5c0-1.3,1.2-1.9,4.2-2.2c0-0.8-0.4-1.5-1.5-1.5c-0.8,0-1.5,0.4-2,0.7l-0.4-0.7c0.6-0.4,1.6-0.8,2.6-0.8
				c1.6,0,2.4,0.9,2.4,2.4v3.6h-0.8l-0.1-0.8h0c-0.6,0.5-1.5,0.9-2.3,0.9C126.6,146.1,125.7,145.5,125.7,144.5z M130,144.4v-1.5
				c-2.5,0.2-3.2,0.7-3.2,1.5c0,0.7,0.6,0.9,1.3,0.9C128.6,145.3,129.3,145,130,144.4z"/>
			<path d="M133.7,140.1h0.8l0.1,1.4h0c0.6-0.9,1.5-1.5,2.6-1.5c0.4,0,0.8,0.1,1.2,0.2l-0.2,0.9c-0.4-0.1-0.6-0.2-1.1-0.2
				c-0.9,0-1.7,0.4-2.4,1.7v3.4h-1V140.1z"/>
			<path d="M140.1,144.5c0-1.3,1.2-1.9,4.2-2.2c0-0.8-0.4-1.5-1.5-1.5c-0.8,0-1.5,0.4-2,0.7l-0.4-0.7c0.6-0.4,1.6-0.8,2.6-0.8
				c1.6,0,2.4,0.9,2.4,2.4v3.6h-0.8l-0.1-0.8h0c-0.6,0.5-1.5,0.9-2.3,0.9C141,146.1,140.1,145.5,140.1,144.5z M144.4,144.4v-1.5
				c-2.5,0.2-3.2,0.7-3.2,1.5c0,0.7,0.6,0.9,1.3,0.9C143,145.3,143.7,145,144.4,144.4z"/>
			<path d="M147.3,143.1c0-2,1.5-3.1,3.3-3.1c0.9,0,1.6,0.4,2.1,0.9l-0.5,0.6c-0.5-0.4-1-0.7-1.6-0.7c-1.3,0-2.3,0.9-2.3,2.2
				c0,1.3,0.9,2.2,2.2,2.2c0.7,0,1.3-0.3,1.8-0.7l0.4,0.6c-0.6,0.6-1.5,0.9-2.3,0.9C148.7,146.1,147.3,145,147.3,143.1z"/>
			<path d="M156,143.7v-2.8h-1.7v-0.7l1.7-0.1l0.1-1.9h0.8v1.9h2.9v0.8H157v2.8c0,1,0.3,1.6,1.5,1.6c0.5,0,1-0.1,1.4-0.3l0.2,0.7
				c-0.5,0.2-1.1,0.3-1.8,0.3C156.6,146.1,156,145.1,156,143.7z"/>
			<path d="M161.6,143c0-1.9,1.4-3,3-3c1.7,0,2.7,1.1,2.7,2.7c0,0.2,0,0.4,0,0.6h-4.9v-0.8h4.3l-0.3,0.3c0-1.4-0.7-2.1-1.8-2.1
				c-1.1,0-2,0.8-2,2.3c0,1.5,1,2.3,2.3,2.3c0.7,0,1.2-0.2,1.8-0.6l0.4,0.6c-0.6,0.4-1.3,0.7-2.3,0.7C163,146.1,161.6,145,161.6,143
				z"/>
			<path d="M169.7,140.1h0.8l0.1,1.4h0c0.6-0.9,1.5-1.5,2.6-1.5c0.4,0,0.8,0.1,1.2,0.2l-0.2,0.9c-0.4-0.1-0.6-0.2-1.1-0.2
				c-0.9,0-1.7,0.4-2.4,1.7v3.4h-1V140.1z"/>
			<path d="M39.4,156h5.2v0.7h-5.2V156z"/>
			<path d="M53.4,156.4c0-2.5,1.5-4.1,3.5-4.1c1,0,1.7,0.5,2.2,1l-0.6,0.6c-0.4-0.4-0.8-0.7-1.6-0.7c-1.5,0-2.4,1.2-2.4,3.2
				c0,2,0.9,3.2,2.4,3.2c0.6,0,1.1-0.2,1.4-0.5v-2.1h-1.6v-0.8h2.5v3.3c-0.5,0.5-1.3,0.9-2.4,0.9C54.8,160.5,53.4,159,53.4,156.4z"
				/>
			<path d="M60.8,157.4c0-1.9,1.4-3,3-3c1.7,0,2.7,1.1,2.7,2.7c0,0.2,0,0.4,0,0.6h-4.9V157h4.3l-0.3,0.3c0-1.4-0.7-2.1-1.8-2.1
				c-1.1,0-2,0.8-2,2.3c0,1.5,1,2.3,2.3,2.3c0.7,0,1.2-0.2,1.8-0.6l0.4,0.6c-0.6,0.4-1.3,0.7-2.3,0.7
				C62.2,160.5,60.8,159.4,60.8,157.4z"/>
			<path d="M68.3,154.5h0.8l0.1,1h0c0.6-0.6,1.3-1.1,2.2-1.1c1.4,0,2,0.8,2,2.4v3.6h-1v-3.5c0-1.1-0.4-1.6-1.3-1.6
				c-0.7,0-1.2,0.3-1.8,1v4.1h-1V154.5z"/>
			<path d="M75.3,158.2v-3.6h1v3.5c0,1.1,0.4,1.6,1.3,1.6c0.7,0,1.2-0.3,1.8-1.1v-4h1v5.8h-0.8l-0.1-1h0c-0.6,0.7-1.3,1.2-2.2,1.2
				C75.9,160.5,75.3,159.7,75.3,158.2z"/>
			<path d="M82.4,159.6l0.5-0.7c0.7,0.5,1.5,0.8,2.5,0.8c1,0,1.5-0.4,1.5-0.9c0-0.4-0.2-0.8-1.8-1.1c-1.5-0.3-2.3-0.8-2.3-1.7
				c0-0.9,0.8-1.7,2.4-1.7c0.9,0,1.8,0.3,2.4,0.7l-0.5,0.6c-0.5-0.4-1.2-0.6-2-0.6c-1,0-1.3,0.4-1.3,0.8c0,0.5,0.5,0.7,1.7,1
				c1.9,0.4,2.4,0.9,2.4,1.8c0,0.9-0.9,1.7-2.6,1.7C84.1,160.5,83.1,160.1,82.4,159.6z"/>
			<path d="M91.4,155.2c0-0.6,0.4-1,1-1c0.5,0,1,0.4,1,1c0,0.6-0.4,1-1,1C91.8,156.2,91.4,155.8,91.4,155.2z M91.4,159.5
				c0-0.6,0.4-1,1-1c0.5,0,1,0.4,1,1c0,0.6-0.4,1-1,1C91.8,160.5,91.4,160.1,91.4,159.5z"/>
			<path d="M104.1,157.5c0-2,1.5-3.1,3.3-3.1c0.9,0,1.6,0.4,2.1,0.9l-0.5,0.6c-0.5-0.4-1-0.7-1.6-0.7c-1.3,0-2.3,0.9-2.3,2.2
				c0,1.3,0.9,2.2,2.2,2.2c0.7,0,1.3-0.3,1.8-0.7l0.4,0.6c-0.6,0.6-1.5,0.9-2.3,0.9C105.5,160.5,104.1,159.4,104.1,157.5z"/>
			<path d="M111.5,151.8h1v2.3l-0.1,1.4h0c0.6-0.6,1.3-1.1,2.2-1.1c1.4,0,2,0.8,2,2.4v3.6h-1v-3.5c0-1.1-0.4-1.6-1.3-1.6
				c-0.7,0-1.2,0.3-1.8,1v4.1h-1V151.8z"/>
			<path d="M118.5,158.9c0-1.3,1.2-1.9,4.2-2.2c0-0.8-0.4-1.5-1.5-1.5c-0.8,0-1.5,0.4-2,0.7l-0.4-0.7c0.6-0.4,1.6-0.8,2.6-0.8
				c1.6,0,2.4,0.9,2.4,2.4v3.6h-0.8l-0.1-0.8h0c-0.6,0.5-1.5,0.9-2.3,0.9C119.4,160.5,118.5,159.9,118.5,158.9z M122.8,158.8v-1.5
				c-2.5,0.2-3.2,0.7-3.2,1.5c0,0.7,0.6,0.9,1.3,0.9C121.4,159.7,122.1,159.4,122.8,158.8z"/>
			<path d="M126.5,154.5h0.8l0.1,1.4h0c0.6-0.9,1.5-1.5,2.6-1.5c0.4,0,0.8,0.1,1.2,0.2l-0.2,0.9c-0.4-0.1-0.6-0.2-1.1-0.2
				c-0.9,0-1.7,0.4-2.4,1.7v3.4h-1V154.5z"/>
			<path d="M132.9,158.9c0-1.3,1.2-1.9,4.2-2.2c0-0.8-0.4-1.5-1.5-1.5c-0.8,0-1.5,0.4-2,0.7l-0.4-0.7c0.6-0.4,1.6-0.8,2.6-0.8
				c1.6,0,2.4,0.9,2.4,2.4v3.6h-0.8l-0.1-0.8h0c-0.6,0.5-1.5,0.9-2.3,0.9C133.8,160.5,132.9,159.9,132.9,158.9z M137.2,158.8v-1.5
				c-2.5,0.2-3.2,0.7-3.2,1.5c0,0.7,0.6,0.9,1.3,0.9C135.8,159.7,136.5,159.4,137.2,158.8z"/>
			<path d="M140.1,157.5c0-2,1.5-3.1,3.3-3.1c0.9,0,1.6,0.4,2.1,0.9l-0.5,0.6c-0.5-0.4-1-0.7-1.6-0.7c-1.3,0-2.3,0.9-2.3,2.2
				c0,1.3,0.9,2.2,2.2,2.2c0.7,0,1.3-0.3,1.8-0.7l0.4,0.6c-0.6,0.6-1.5,0.9-2.3,0.9C141.5,160.5,140.1,159.4,140.1,157.5z"/>
			<path d="M148.8,158.1v-2.8h-1.7v-0.7l1.7-0.1l0.1-1.9h0.8v1.9h2.9v0.8h-2.9v2.8c0,1,0.3,1.6,1.5,1.6c0.5,0,1-0.1,1.4-0.3l0.2,0.7
				c-0.5,0.2-1.1,0.3-1.8,0.3C149.4,160.5,148.8,159.5,148.8,158.1z"/>
			<path d="M154.4,157.4c0-1.9,1.4-3,3-3c1.7,0,2.7,1.1,2.7,2.7c0,0.2,0,0.4,0,0.6H155V157h4.3l-0.3,0.3c0-1.4-0.7-2.1-1.8-2.1
				c-1.1,0-2,0.8-2,2.3c0,1.5,1,2.3,2.3,2.3c0.7,0,1.2-0.2,1.8-0.6l0.4,0.6c-0.6,0.4-1.3,0.7-2.3,0.7
				C155.8,160.5,154.4,159.4,154.4,157.4z"/>
			<path d="M162.5,154.5h0.8l0.1,1.4h0c0.6-0.9,1.5-1.5,2.6-1.5c0.4,0,0.8,0.1,1.2,0.2l-0.2,0.9c-0.4-0.1-0.6-0.2-1.1-0.2
				c-0.9,0-1.7,0.4-2.4,1.7v3.4h-1V154.5z"/>
			<path d="M39.4,170.4h5.2v0.7h-5.2V170.4z"/>
			<path d="M53.6,173.7l0.6-0.7c0.6,0.6,1.4,1,2.3,1c1.1,0,1.7-0.5,1.7-1.2c0-0.8-0.6-1.1-1.4-1.4l-1.1-0.5c-0.8-0.3-1.7-0.9-1.7-2
				c0-1.2,1.1-2.1,2.6-2.1c1,0,1.8,0.4,2.4,1l-0.5,0.6c-0.5-0.5-1.1-0.7-1.9-0.7c-0.9,0-1.5,0.4-1.5,1.1c0,0.8,0.7,1,1.4,1.3
				l1.1,0.5c1,0.4,1.7,0.9,1.7,2.1c0,1.2-1.1,2.2-2.8,2.2C55.3,174.9,54.3,174.5,53.6,173.7z"/>
			<path d="M61.1,168.9h0.8l0.1,0.7h0c0.5-0.5,1.3-0.9,2-0.9c1.6,0,2.4,1.2,2.4,3c0,2-1.2,3.1-2.7,3.1c-0.5,0-1.2-0.3-1.7-0.8h0
				l0,1.1v2h-1V168.9z M65.4,171.8c0-1.3-0.5-2.1-1.6-2.1c-0.5,0-1.1,0.3-1.7,0.9v2.9c0.5,0.5,1.2,0.7,1.5,0.7
				C64.7,174.1,65.4,173.2,65.4,171.8z"/>
			<path d="M68,171.8c0-1.9,1.4-3,3-3c1.7,0,2.7,1.1,2.7,2.7c0,0.2,0,0.4,0,0.6h-4.9v-0.8H73l-0.3,0.3c0-1.4-0.7-2.1-1.8-2.1
				c-1.1,0-2,0.8-2,2.3c0,1.5,1,2.3,2.3,2.3c0.7,0,1.2-0.2,1.8-0.6l0.4,0.6c-0.6,0.4-1.3,0.7-2.3,0.7C69.4,174.9,68,173.8,68,171.8z
				"/>
			<path d="M75.3,171.9c0-2,1.5-3.1,3.2-3.1c0.9,0,1.6,0.4,2.1,0.9l-0.5,0.6c-0.5-0.4-1-0.7-1.6-0.7c-1.3,0-2.3,0.9-2.3,2.2
				c0,1.3,0.9,2.2,2.2,2.2c0.7,0,1.3-0.3,1.8-0.7l0.4,0.6c-0.6,0.6-1.5,0.9-2.3,0.9C76.7,174.9,75.3,173.8,75.3,171.9z"/>
			<path d="M85.3,169.7h-2.7v-0.8h3.7v5.8h-1V169.7z M84.9,166.9c0-0.5,0.3-0.8,0.8-0.8c0.5,0,0.8,0.3,0.8,0.8
				c0,0.5-0.3,0.8-0.8,0.8C85.3,167.7,84.9,167.4,84.9,166.9z"/>
			<path d="M89.6,171.8c0-1.9,1.4-3,3-3c1.7,0,2.7,1.1,2.7,2.7c0,0.2,0,0.4,0,0.6h-4.9v-0.8h4.3l-0.3,0.3c0-1.4-0.7-2.1-1.8-2.1
				c-1.1,0-2,0.8-2,2.3c0,1.5,1,2.3,2.3,2.3c0.7,0,1.2-0.2,1.8-0.6l0.4,0.6c-0.6,0.4-1.3,0.7-2.3,0.7
				C91,174.9,89.6,173.8,89.6,171.8z"/>
			<path d="M96.8,174l0.5-0.7c0.7,0.5,1.5,0.8,2.5,0.8c1,0,1.5-0.4,1.5-0.9c0-0.4-0.2-0.8-1.8-1.1c-1.5-0.3-2.3-0.8-2.3-1.7
				c0-0.9,0.8-1.7,2.4-1.7c0.9,0,1.8,0.3,2.4,0.7l-0.5,0.6c-0.5-0.4-1.2-0.6-2-0.6c-1,0-1.3,0.4-1.3,0.8c0,0.5,0.5,0.7,1.7,1
				c1.9,0.4,2.4,0.9,2.4,1.8c0,0.9-0.9,1.7-2.6,1.7C98.5,174.9,97.5,174.5,96.8,174z"/>
			<path d="M105.8,169.6c0-0.6,0.4-1,1-1c0.5,0,1,0.4,1,1c0,0.6-0.4,1-1,1C106.2,170.6,105.8,170.2,105.8,169.6z M105.8,173.9
				c0-0.6,0.4-1,1-1c0.5,0,1,0.4,1,1c0,0.6-0.4,1-1,1C106.2,174.9,105.8,174.5,105.8,173.9z"/>
			<path d="M118.5,171.9c0-2,1.5-3.1,3.3-3.1c0.9,0,1.6,0.4,2.1,0.9l-0.5,0.6c-0.5-0.4-1-0.7-1.6-0.7c-1.3,0-2.3,0.9-2.3,2.2
				c0,1.3,0.9,2.2,2.2,2.2c0.7,0,1.3-0.3,1.8-0.7l0.4,0.6c-0.6,0.6-1.5,0.9-2.3,0.9C119.9,174.9,118.5,173.8,118.5,171.9z"/>
			<path d="M125.9,166.2h1v2.3l-0.1,1.4h0c0.6-0.6,1.3-1.1,2.2-1.1c1.4,0,2,0.8,2,2.4v3.6h-1v-3.5c0-1.1-0.4-1.6-1.3-1.6
				c-0.7,0-1.2,0.3-1.8,1v4.1h-1V166.2z"/>
			<path d="M132.9,173.3c0-1.3,1.2-1.9,4.2-2.2c0-0.8-0.4-1.5-1.5-1.5c-0.8,0-1.5,0.4-2,0.7l-0.4-0.7c0.6-0.4,1.6-0.8,2.6-0.8
				c1.6,0,2.4,0.9,2.4,2.4v3.6h-0.8l-0.1-0.8h0c-0.6,0.5-1.5,0.9-2.3,0.9C133.8,174.9,132.9,174.3,132.9,173.3z M137.2,173.2v-1.5
				c-2.5,0.2-3.2,0.7-3.2,1.5c0,0.7,0.6,0.9,1.3,0.9C135.8,174.1,136.5,173.8,137.2,173.2z"/>
			<path d="M140.9,168.9h0.8l0.1,1.4h0c0.6-0.9,1.5-1.5,2.6-1.5c0.4,0,0.8,0.1,1.2,0.2l-0.2,0.9c-0.4-0.1-0.6-0.2-1.1-0.2
				c-0.9,0-1.7,0.4-2.4,1.7v3.4h-1V168.9z"/>
			<path d="M147.3,173.3c0-1.3,1.2-1.9,4.2-2.2c0-0.8-0.4-1.5-1.5-1.5c-0.8,0-1.5,0.4-2,0.7l-0.4-0.7c0.6-0.4,1.6-0.8,2.6-0.8
				c1.6,0,2.4,0.9,2.4,2.4v3.6h-0.8l-0.1-0.8h0c-0.6,0.5-1.5,0.9-2.3,0.9C148.2,174.9,147.3,174.3,147.3,173.3z M151.6,173.2v-1.5
				c-2.5,0.2-3.2,0.7-3.2,1.5c0,0.7,0.6,0.9,1.3,0.9C150.2,174.1,150.9,173.8,151.6,173.2z"/>
			<path d="M154.5,171.9c0-2,1.5-3.1,3.2-3.1c0.9,0,1.6,0.4,2.1,0.9l-0.5,0.6c-0.5-0.4-1-0.7-1.6-0.7c-1.3,0-2.3,0.9-2.3,2.2
				c0,1.3,0.9,2.2,2.2,2.2c0.7,0,1.3-0.3,1.8-0.7l0.4,0.6c-0.6,0.6-1.5,0.9-2.3,0.9C155.9,174.9,154.5,173.8,154.5,171.9z"/>
			<path d="M163.2,172.5v-2.8h-1.7V169l1.7-0.1l0.1-1.9h0.8v1.9h2.9v0.8h-2.9v2.8c0,1,0.3,1.6,1.5,1.6c0.5,0,1-0.1,1.4-0.3l0.2,0.7
				c-0.5,0.2-1.1,0.3-1.8,0.3C163.8,174.9,163.2,173.9,163.2,172.5z"/>
			<path d="M168.8,171.8c0-1.9,1.4-3,3-3c1.7,0,2.7,1.1,2.7,2.7c0,0.2,0,0.4,0,0.6h-4.9v-0.8h4.3l-0.3,0.3c0-1.4-0.7-2.1-1.8-2.1
				c-1.1,0-2,0.8-2,2.3c0,1.5,1,2.3,2.3,2.3c0.7,0,1.2-0.2,1.8-0.6l0.4,0.6c-0.6,0.4-1.3,0.7-2.3,0.7
				C170.2,174.9,168.8,173.8,168.8,171.8z"/>
			<path d="M176.9,168.9h0.8l0.1,1.4h0c0.6-0.9,1.5-1.5,2.6-1.5c0.4,0,0.8,0.1,1.2,0.2l-0.2,0.9c-0.4-0.1-0.6-0.2-1.1-0.2
				c-0.9,0-1.7,0.4-2.4,1.7v3.4h-1V168.9z"/>
		</g>
	</g>
	<rect x="22" y="194.7" class="st0" width="241.2" height="111.7"/>
	<g>
		<g>
			<path d="M41.9,211.5h-2.2v-0.7h2.2v-2.3h0.8v2.3h2.2v0.7h-2.2v2.3h-0.8V211.5z"/>
			<path d="M54,216.1c0-0.5,0.3-0.9,1-1.3v0c-0.3-0.2-0.6-0.5-0.6-1c0-0.4,0.3-0.8,0.7-1.1v0c-0.4-0.3-0.7-0.8-0.7-1.5
				c0-1.3,1.1-2.1,2.3-2.1c0.3,0,0.6,0,0.9,0.1h2.4v0.8h-1.5c0.3,0.3,0.5,0.7,0.5,1.2c0,1.2-1,2-2.3,2c-0.3,0-0.7-0.1-1-0.2
				c-0.3,0.2-0.5,0.4-0.5,0.7c0,0.5,0.4,0.7,1.2,0.7h1.3c1.5,0,2.2,0.4,2.2,1.4c0,1.1-1.3,2-3.2,2C55,217.7,54,217.1,54,216.1z
				 M59,215.8c0-0.6-0.4-0.7-1.3-0.7h-1.1c-0.3,0-0.6,0-0.9-0.1c-0.6,0.3-0.7,0.6-0.7,1c0,0.6,0.7,1,1.9,1
				C58.1,217,59,216.4,59,215.8z M58,211.2c0-0.8-0.6-1.4-1.3-1.4c-0.7,0-1.3,0.6-1.3,1.4c0,0.8,0.6,1.4,1.3,1.4
				C57.4,212.5,58,212,58,211.2z"/>
			<path d="M61.2,212.1c0-1.9,1.4-3,3-3c1.7,0,2.7,1.1,2.7,2.7c0,0.2,0,0.4,0,0.6h-4.9v-0.8h4.3l-0.3,0.3c0-1.4-0.7-2.1-1.8-2.1
				c-1.1,0-2,0.8-2,2.3c0,1.5,1,2.3,2.3,2.3c0.7,0,1.2-0.2,1.8-0.6l0.4,0.6c-0.6,0.4-1.3,0.7-2.3,0.7
				C62.5,215.2,61.2,214.1,61.2,212.1z"/>
			<path d="M70,212.8V210h-1.7v-0.7l1.7-0.1l0.1-1.9H71v1.9h2.9v0.8H71v2.8c0,1,0.3,1.6,1.5,1.6c0.5,0,1-0.1,1.4-0.3l0.2,0.7
				c-0.5,0.2-1.1,0.3-1.8,0.3C70.6,215.2,70,214.2,70,212.8z"/>
			<path d="M75.5,215.9h5.8v0.9h-5.8V215.9z"/>
			<path d="M83.1,209.2h0.8L84,210h0c0.5-0.5,1.3-0.9,2-0.9c1.6,0,2.4,1.2,2.4,3c0,2-1.2,3.1-2.7,3.1c-0.5,0-1.2-0.3-1.7-0.8h0
				l0,1.1v2h-1V209.2z M87.4,212c0-1.3-0.5-2.1-1.6-2.1c-0.5,0-1.1,0.3-1.7,0.9v2.9c0.5,0.5,1.2,0.7,1.5,0.7
				C86.6,214.3,87.4,213.5,87.4,212z"/>
			<path d="M90.3,206.5h1v2.3l-0.1,1.4h0c0.6-0.6,1.3-1.1,2.2-1.1c1.4,0,2,0.8,2,2.4v3.6h-1v-3.5c0-1.1-0.4-1.6-1.3-1.6
				c-0.7,0-1.2,0.3-1.8,1v4.1h-1V206.5z"/>
			<path d="M97.1,217.4l0.2-0.8c0.2,0,0.3,0.1,0.5,0.1c0.8,0,1.3-0.5,1.6-1.2l0.2-0.4l-2.7-5.8h1l1.4,3.2c0.2,0.5,0.5,1.1,0.7,1.7h0
				c0.2-0.6,0.4-1.2,0.6-1.7l1.3-3.2h1l-2.6,6.3c-0.4,1.2-1.1,2-2.5,2C97.6,217.5,97.3,217.5,97.1,217.4z"/>
			<path d="M106.5,213.1v-5.8h-2.1v-0.8h3.1v6.7c0,0.8,0.5,1.2,1.2,1.2c0.3,0,0.7-0.1,1.1-0.3l0.3,0.7c-0.5,0.2-0.9,0.3-1.6,0.3
				C107.2,215.2,106.5,214.5,106.5,213.1z"/>
			<path d="M111.7,212.8v-3.6h1v3.5c0,1.1,0.4,1.6,1.3,1.6c0.7,0,1.2-0.3,1.8-1.1v-4h1v5.8H116l-0.1-1h0c-0.6,0.7-1.3,1.2-2.2,1.2
				C112.3,215.2,111.7,214.4,111.7,212.8z"/>
			<path d="M118.6,209.2h0.8l0.1,0.8h0c0.3-0.5,0.7-0.9,1.3-0.9c0.6,0,0.9,0.3,1.1,1c0.3-0.6,0.7-1,1.4-1c0.8,0,1.3,0.6,1.3,1.8v4.2
				h-1v-4.1c0-0.7-0.2-1-0.6-1c-0.4,0-0.6,0.3-0.9,0.9v4.2h-0.9v-4.1c0-0.7-0.2-1-0.6-1c-0.4,0-0.7,0.3-1,0.9v4.2h-1V209.2z"/>
			<path d="M127.6,211.7c0-2.3,1-4.1,2.7-5.4l0.6,0.5c-1.6,1.4-2.4,2.9-2.4,4.9c0,2,0.7,3.6,2.4,4.9l-0.6,0.5
				C128.7,215.9,127.6,214,127.6,211.7z"/>
			<path d="M133.8,216.6c1.6-1.4,2.4-2.9,2.4-4.9c0-2-0.7-3.6-2.4-4.9l0.6-0.5c1.7,1.3,2.7,3.1,2.7,5.4c0,2.3-1,4.1-2.7,5.4
				L133.8,216.6z"/>
			<path d="M41.7,225.9h-2.2v-0.7h2.2v-2.3h0.8v2.3h2.2v0.7h-2.2v2.3h-0.8V225.9z"/>
			<path d="M53.8,230.5c0-0.5,0.3-0.9,1-1.3v0c-0.3-0.2-0.6-0.5-0.6-1c0-0.4,0.3-0.8,0.7-1.1v0c-0.4-0.3-0.7-0.8-0.7-1.5
				c0-1.3,1.1-2.1,2.3-2.1c0.3,0,0.6,0,0.9,0.1h2.4v0.8h-1.5c0.3,0.3,0.5,0.7,0.5,1.2c0,1.2-1,2-2.3,2c-0.3,0-0.7-0.1-1-0.2
				c-0.3,0.2-0.5,0.4-0.5,0.7c0,0.5,0.4,0.7,1.2,0.7h1.3c1.5,0,2.2,0.4,2.2,1.4c0,1.1-1.3,2-3.2,2C54.7,232.1,53.8,231.5,53.8,230.5
				z M58.7,230.2c0-0.6-0.4-0.7-1.3-0.7h-1.1c-0.3,0-0.6,0-0.9-0.1c-0.6,0.3-0.7,0.6-0.7,1c0,0.6,0.7,1,1.9,1
				C57.9,231.4,58.7,230.8,58.7,230.2z M57.7,225.6c0-0.8-0.6-1.4-1.3-1.4c-0.7,0-1.3,0.6-1.3,1.4c0,0.8,0.6,1.4,1.3,1.4
				C57.1,226.9,57.7,226.4,57.7,225.6z"/>
			<path d="M60.9,226.5c0-1.9,1.4-3,3-3c1.7,0,2.7,1.1,2.7,2.7c0,0.2,0,0.4,0,0.6h-4.9V226h4.3l-0.3,0.3c0-1.4-0.7-2.1-1.8-2.1
				c-1.1,0-2,0.8-2,2.3c0,1.5,1,2.3,2.3,2.3c0.7,0,1.2-0.2,1.8-0.6l0.4,0.6c-0.6,0.4-1.3,0.7-2.3,0.7
				C62.3,229.6,60.9,228.5,60.9,226.5z"/>
			<path d="M69.8,227.2v-2.8h-1.7v-0.7l1.7-0.1l0.1-1.9h0.8v1.9h2.9v0.8h-2.9v2.8c0,1,0.3,1.6,1.5,1.6c0.5,0,1-0.1,1.4-0.3l0.2,0.7
				c-0.5,0.2-1.1,0.3-1.8,0.3C70.3,229.6,69.8,228.6,69.8,227.2z"/>
			<path d="M75.2,230.3H81v0.9h-5.8V230.3z"/>
			<path d="M82.7,226.5c0-2,1.5-3.1,3.2-3.1c0.9,0,1.6,0.4,2.1,0.9l-0.5,0.6c-0.5-0.4-1-0.7-1.6-0.7c-1.3,0-2.3,0.9-2.3,2.2
				c0,1.3,0.9,2.2,2.2,2.2c0.7,0,1.3-0.3,1.8-0.7l0.4,0.6c-0.6,0.6-1.5,0.9-2.3,0.9C84,229.6,82.7,228.5,82.7,226.5z"/>
			<path d="M91.8,227.5v-5.8h-2.1v-0.8h3.1v6.7c0,0.8,0.5,1.2,1.2,1.2c0.3,0,0.7-0.1,1.1-0.3l0.3,0.7c-0.5,0.2-0.9,0.3-1.6,0.3
				C92.5,229.6,91.8,228.9,91.8,227.5z"/>
			<path d="M97.1,227.9c0-1.3,1.2-1.9,4.2-2.2c0-0.8-0.4-1.5-1.5-1.5c-0.8,0-1.5,0.4-2,0.7l-0.4-0.7c0.6-0.4,1.6-0.8,2.6-0.8
				c1.6,0,2.4,0.9,2.4,2.4v3.6h-0.8l-0.1-0.8h0c-0.6,0.5-1.5,0.9-2.3,0.9C98,229.6,97.1,229,97.1,227.9z M101.3,227.9v-1.5
				c-2.5,0.2-3.3,0.7-3.3,1.5c0,0.7,0.6,0.9,1.3,0.9C100,228.8,100.6,228.5,101.3,227.9z"/>
			<path d="M104.2,228.7l0.5-0.7c0.7,0.5,1.5,0.8,2.5,0.8c1,0,1.5-0.4,1.5-0.9c0-0.4-0.2-0.8-1.8-1.1c-1.5-0.3-2.3-0.8-2.3-1.7
				c0-0.9,0.8-1.7,2.4-1.7c0.9,0,1.8,0.3,2.4,0.7l-0.5,0.6c-0.5-0.4-1.2-0.6-2-0.6c-1,0-1.3,0.4-1.3,0.8c0,0.5,0.5,0.7,1.7,1
				c1.9,0.4,2.4,0.9,2.4,1.8c0,0.9-0.9,1.7-2.6,1.7C105.9,229.6,104.9,229.2,104.2,228.7z"/>
			<path d="M111.4,228.7l0.5-0.7c0.7,0.5,1.5,0.8,2.5,0.8c1,0,1.5-0.4,1.5-0.9c0-0.4-0.2-0.8-1.8-1.1c-1.5-0.3-2.3-0.8-2.3-1.7
				c0-0.9,0.8-1.7,2.4-1.7c0.9,0,1.8,0.3,2.4,0.7l-0.5,0.6c-0.5-0.4-1.2-0.6-2-0.6c-1,0-1.3,0.4-1.3,0.8c0,0.5,0.5,0.7,1.7,1
				c1.9,0.4,2.4,0.9,2.4,1.8c0,0.9-0.9,1.7-2.6,1.7C113.1,229.6,112.1,229.2,111.4,228.7z"/>
			<path d="M120.2,226.1c0-2.3,1-4.1,2.7-5.4l0.6,0.5c-1.6,1.4-2.4,2.9-2.4,4.9c0,2,0.7,3.6,2.4,4.9l-0.6,0.5
				C121.2,230.3,120.2,228.4,120.2,226.1z"/>
			<path d="M126.4,231c1.6-1.4,2.4-2.9,2.4-4.9c0-2-0.7-3.6-2.4-4.9l0.6-0.5c1.7,1.3,2.7,3.1,2.7,5.4c0,2.3-1,4.1-2.7,5.4L126.4,231
				z"/>
			<path d="M41.7,240.3h-2.2v-0.7h2.2v-2.3h0.8v2.3h2.2v0.7h-2.2v2.3h-0.8V240.3z"/>
			<path d="M53.8,244.9c0-0.5,0.3-0.9,1-1.3v0c-0.3-0.2-0.6-0.5-0.6-1c0-0.4,0.3-0.8,0.7-1.1v0c-0.4-0.3-0.7-0.8-0.7-1.5
				c0-1.3,1.1-2.1,2.3-2.1c0.3,0,0.6,0,0.9,0.1h2.4v0.8h-1.5c0.3,0.3,0.5,0.7,0.5,1.2c0,1.2-1,2-2.3,2c-0.3,0-0.7-0.1-1-0.2
				c-0.3,0.2-0.5,0.4-0.5,0.7c0,0.5,0.4,0.7,1.2,0.7h1.3c1.5,0,2.2,0.4,2.2,1.4c0,1.1-1.3,2-3.2,2C54.7,246.5,53.8,245.9,53.8,244.9
				z M58.7,244.6c0-0.6-0.4-0.7-1.3-0.7h-1.1c-0.3,0-0.6,0-0.9-0.1c-0.6,0.3-0.7,0.6-0.7,1c0,0.6,0.7,1,1.9,1
				C57.9,245.8,58.7,245.2,58.7,244.6z M57.7,240c0-0.8-0.6-1.4-1.3-1.4c-0.7,0-1.3,0.6-1.3,1.4c0,0.8,0.6,1.4,1.3,1.4
				C57.1,241.3,57.7,240.8,57.7,240z"/>
			<path d="M60.9,240.9c0-1.9,1.4-3,3-3c1.7,0,2.7,1.1,2.7,2.7c0,0.2,0,0.4,0,0.6h-4.9v-0.8h4.3l-0.3,0.3c0-1.4-0.7-2.1-1.8-2.1
				c-1.1,0-2,0.8-2,2.3c0,1.5,1,2.3,2.3,2.3c0.7,0,1.2-0.2,1.8-0.6l0.4,0.6c-0.6,0.4-1.3,0.7-2.3,0.7
				C62.3,244,60.9,242.9,60.9,240.9z"/>
			<path d="M69.8,241.6v-2.8h-1.7v-0.7l1.7-0.1l0.1-1.9h0.8v1.9h2.9v0.8h-2.9v2.8c0,1,0.3,1.6,1.5,1.6c0.5,0,1-0.1,1.4-0.3l0.2,0.7
				c-0.5,0.2-1.1,0.3-1.8,0.3C70.3,244,69.8,243,69.8,241.6z"/>
			<path d="M75.2,244.7H81v0.9h-5.8V244.7z"/>
			<path d="M82.4,240.9c0-2,1.3-3.1,2.9-3.1s2.9,1.1,2.9,3.1c0,1.9-1.3,3-2.9,3S82.4,242.9,82.4,240.9z M87.2,240.9
				c0-1.3-0.7-2.2-1.9-2.2c-1.1,0-1.9,0.9-1.9,2.2c0,1.3,0.7,2.2,1.9,2.2C86.4,243.2,87.2,242.3,87.2,240.9z"/>
			<path d="M90.6,238h0.8l0.1,1.4h0c0.6-0.9,1.5-1.5,2.6-1.5c0.4,0,0.8,0.1,1.2,0.2l-0.2,0.9c-0.4-0.1-0.6-0.2-1.1-0.2
				c-0.9,0-1.7,0.4-2.4,1.7v3.4h-1V238z"/>
			<path d="M96.8,240.9c0-1.9,1.3-3.1,2.6-3.1c0.7,0,1.2,0.3,1.8,0.7h0l0-1.1v-2.2h1v8.5h-0.8l-0.1-0.8h0c-0.5,0.5-1.2,0.9-1.9,0.9
				C97.8,244,96.8,242.9,96.8,240.9z M101.2,242.3v-2.9c-0.5-0.5-1-0.7-1.5-0.7c-1,0-1.8,0.9-1.8,2.2c0,1.4,0.6,2.2,1.7,2.2
				C100.1,243.1,100.7,242.9,101.2,242.3z"/>
			<path d="M104.1,240.9c0-1.9,1.4-3,3-3c1.7,0,2.7,1.1,2.7,2.7c0,0.2,0,0.4,0,0.6h-4.9v-0.8h4.3l-0.3,0.3c0-1.4-0.7-2.1-1.8-2.1
				c-1.1,0-2,0.8-2,2.3c0,1.5,1,2.3,2.3,2.3c0.7,0,1.2-0.2,1.8-0.6l0.4,0.6c-0.6,0.4-1.3,0.7-2.3,0.7
				C105.5,244,104.1,242.9,104.1,240.9z"/>
			<path d="M112.2,238h0.8l0.1,1.4h0c0.6-0.9,1.5-1.5,2.6-1.5c0.4,0,0.8,0.1,1.2,0.2l-0.2,0.9c-0.4-0.1-0.6-0.2-1.1-0.2
				c-0.9,0-1.7,0.4-2.4,1.7v3.4h-1V238z"/>
			<path d="M120.2,240.5c0-2.3,1-4.1,2.7-5.4l0.6,0.5c-1.6,1.4-2.4,2.9-2.4,4.9c0,2,0.7,3.6,2.4,4.9l-0.6,0.5
				C121.2,244.7,120.2,242.8,120.2,240.5z"/>
			<path d="M126.4,245.4c1.6-1.4,2.4-2.9,2.4-4.9c0-2-0.7-3.6-2.4-4.9l0.6-0.5c1.7,1.3,2.7,3.1,2.7,5.4c0,2.3-1,4.1-2.7,5.4
				L126.4,245.4z"/>
			<path d="M41.7,254.7h-2.2v-0.7h2.2v-2.3h0.8v2.3h2.2v0.7h-2.2v2.3h-0.8V254.7z"/>
			<path d="M53.8,259.3c0-0.5,0.3-0.9,1-1.3v0c-0.3-0.2-0.6-0.5-0.6-1c0-0.4,0.3-0.8,0.7-1.1v0c-0.4-0.3-0.7-0.8-0.7-1.5
				c0-1.3,1.1-2.1,2.3-2.1c0.3,0,0.6,0,0.9,0.1h2.4v0.8h-1.5c0.3,0.3,0.5,0.7,0.5,1.2c0,1.2-1,2-2.3,2c-0.3,0-0.7-0.1-1-0.2
				c-0.3,0.2-0.5,0.4-0.5,0.7c0,0.5,0.4,0.7,1.2,0.7h1.3c1.5,0,2.2,0.4,2.2,1.4c0,1.1-1.3,2-3.2,2C54.7,260.9,53.8,260.3,53.8,259.3
				z M58.7,259c0-0.6-0.4-0.7-1.3-0.7h-1.1c-0.3,0-0.6,0-0.9-0.1c-0.6,0.3-0.7,0.6-0.7,1c0,0.6,0.7,1,1.9,1
				C57.9,260.2,58.7,259.6,58.7,259z M57.7,254.4c0-0.8-0.6-1.4-1.3-1.4c-0.7,0-1.3,0.6-1.3,1.4c0,0.8,0.6,1.4,1.3,1.4
				C57.1,255.7,57.7,255.2,57.7,254.4z"/>
			<path d="M60.9,255.3c0-1.9,1.4-3,3-3c1.7,0,2.7,1.1,2.7,2.7c0,0.2,0,0.4,0,0.6h-4.9v-0.8h4.3l-0.3,0.3c0-1.4-0.7-2.1-1.8-2.1
				c-1.1,0-2,0.8-2,2.3c0,1.5,1,2.3,2.3,2.3c0.7,0,1.2-0.2,1.8-0.6l0.4,0.6c-0.6,0.4-1.3,0.7-2.3,0.7
				C62.3,258.4,60.9,257.3,60.9,255.3z"/>
			<path d="M69.8,256v-2.8h-1.7v-0.7l1.7-0.1l0.1-1.9h0.8v1.9h2.9v0.8h-2.9v2.8c0,1,0.3,1.6,1.5,1.6c0.5,0,1-0.1,1.4-0.3l0.2,0.7
				c-0.5,0.2-1.1,0.3-1.8,0.3C70.3,258.4,69.8,257.4,69.8,256z"/>
			<path d="M75.2,259.1H81v0.9h-5.8V259.1z"/>
			<path d="M82.9,252.5l1.7-0.1H88v0.8h-5.1V252.5z M84.6,251.9c0-1.4,0.7-2.4,2.4-2.4c0.6,0,1.1,0.1,1.7,0.3l-0.2,0.7
				c-0.5-0.2-0.9-0.3-1.4-0.3c-1,0-1.5,0.6-1.5,1.5v6.4h-1V251.9z"/>
			<path d="M89.9,256.7c0-1.3,1.2-1.9,4.2-2.2c0-0.8-0.4-1.5-1.5-1.5c-0.8,0-1.5,0.4-2,0.7l-0.4-0.7c0.6-0.4,1.6-0.8,2.6-0.8
				c1.6,0,2.4,0.9,2.4,2.4v3.6h-0.8l-0.1-0.8h0c-0.6,0.5-1.5,0.9-2.3,0.9C90.8,258.4,89.9,257.8,89.9,256.7z M94.1,256.7v-1.5
				c-2.5,0.2-3.3,0.7-3.3,1.5c0,0.7,0.6,0.9,1.3,0.9C92.8,257.6,93.4,257.3,94.1,256.7z"/>
			<path d="M96.8,252.4h0.8l0.1,0.8h0c0.3-0.5,0.7-0.9,1.3-0.9c0.6,0,0.9,0.3,1.1,1c0.3-0.6,0.7-1,1.4-1c0.8,0,1.3,0.6,1.3,1.8v4.2
				h-1v-4.1c0-0.7-0.2-1-0.6-1c-0.4,0-0.6,0.3-0.9,0.9v4.2h-0.9v-4.1c0-0.7-0.2-1-0.6-1c-0.4,0-0.7,0.3-1,0.9v4.2h-1V252.4z"/>
			<path d="M107.1,253.2h-2.7v-0.8h3.7v5.8h-1V253.2z M106.7,250.4c0-0.5,0.3-0.8,0.8-0.8s0.8,0.3,0.8,0.8c0,0.5-0.3,0.8-0.8,0.8
				S106.7,250.9,106.7,250.4z"/>
			<path d="M113.4,256.3v-5.8h-2.1v-0.8h3.1v6.7c0,0.8,0.5,1.2,1.2,1.2c0.3,0,0.7-0.1,1.1-0.3l0.3,0.7c-0.5,0.2-0.9,0.3-1.6,0.3
				C114.1,258.4,113.4,257.7,113.4,256.3z"/>
			<path d="M118.5,260.6l0.2-0.8c0.2,0,0.3,0.1,0.5,0.1c0.8,0,1.3-0.5,1.6-1.2l0.2-0.4l-2.7-5.8h1l1.4,3.2c0.2,0.5,0.5,1.1,0.7,1.7
				h0c0.2-0.6,0.4-1.2,0.6-1.7l1.3-3.2h1l-2.6,6.3c-0.4,1.2-1.1,2-2.5,2C119,260.7,118.7,260.7,118.5,260.6z"/>
			<path d="M127.4,254.9c0-2.3,1-4.1,2.7-5.4l0.6,0.5c-1.6,1.4-2.4,2.9-2.4,4.9c0,2,0.7,3.6,2.4,4.9l-0.6,0.5
				C128.4,259.1,127.4,257.2,127.4,254.9z"/>
			<path d="M133.6,259.8c1.6-1.4,2.4-2.9,2.4-4.9c0-2-0.7-3.6-2.4-4.9l0.6-0.5c1.7,1.3,2.7,3.1,2.7,5.4c0,2.3-1,4.1-2.7,5.4
				L133.6,259.8z"/>
			<path d="M41.7,269.1h-2.2v-0.7h2.2V266h0.8v2.3h2.2v0.7h-2.2v2.3h-0.8V269.1z"/>
			<path d="M53.8,273.7c0-0.5,0.3-0.9,1-1.3v0c-0.3-0.2-0.6-0.5-0.6-1c0-0.4,0.3-0.8,0.7-1.1v0c-0.4-0.3-0.7-0.8-0.7-1.5
				c0-1.3,1.1-2.1,2.3-2.1c0.3,0,0.6,0,0.9,0.1h2.4v0.8h-1.5c0.3,0.3,0.5,0.7,0.5,1.2c0,1.2-1,2-2.3,2c-0.3,0-0.7-0.1-1-0.2
				c-0.3,0.2-0.5,0.4-0.5,0.7c0,0.5,0.4,0.7,1.2,0.7h1.3c1.5,0,2.2,0.4,2.2,1.4c0,1.1-1.3,2-3.2,2C54.7,275.3,53.8,274.7,53.8,273.7
				z M58.7,273.4c0-0.6-0.4-0.7-1.3-0.7h-1.1c-0.3,0-0.6,0-0.9-0.1c-0.6,0.3-0.7,0.6-0.7,1c0,0.6,0.7,1,1.9,1
				C57.9,274.6,58.7,274,58.7,273.4z M57.7,268.8c0-0.8-0.6-1.4-1.3-1.4c-0.7,0-1.3,0.6-1.3,1.4c0,0.8,0.6,1.4,1.3,1.4
				C57.1,270.1,57.7,269.6,57.7,268.8z"/>
			<path d="M60.9,269.7c0-1.9,1.4-3,3-3c1.7,0,2.7,1.1,2.7,2.7c0,0.2,0,0.4,0,0.6h-4.9v-0.8h4.3l-0.3,0.3c0-1.4-0.7-2.1-1.8-2.1
				c-1.1,0-2,0.8-2,2.3c0,1.5,1,2.3,2.3,2.3c0.7,0,1.2-0.2,1.8-0.6l0.4,0.6c-0.6,0.4-1.3,0.7-2.3,0.7
				C62.3,272.8,60.9,271.7,60.9,269.7z"/>
			<path d="M69.8,270.4v-2.8h-1.7v-0.7l1.7-0.1l0.1-1.9h0.8v1.9h2.9v0.8h-2.9v2.8c0,1,0.3,1.6,1.5,1.6c0.5,0,1-0.1,1.4-0.3l0.2,0.7
				c-0.5,0.2-1.1,0.3-1.8,0.3C70.3,272.8,69.8,271.8,69.8,270.4z"/>
			<path d="M75.2,273.5H81v0.9h-5.8V273.5z"/>
			<path d="M82.6,273.7c0-0.5,0.3-0.9,1-1.3v0c-0.3-0.2-0.6-0.5-0.6-1c0-0.4,0.3-0.8,0.7-1.1v0c-0.4-0.3-0.7-0.8-0.7-1.5
				c0-1.3,1.1-2.1,2.3-2.1c0.3,0,0.6,0,0.9,0.1h2.4v0.8H87c0.3,0.3,0.5,0.7,0.5,1.2c0,1.2-1,2-2.3,2c-0.3,0-0.7-0.1-1-0.2
				c-0.3,0.2-0.5,0.4-0.5,0.7c0,0.5,0.4,0.7,1.2,0.7h1.3c1.5,0,2.2,0.4,2.2,1.4c0,1.1-1.3,2-3.2,2C83.5,275.3,82.6,274.7,82.6,273.7
				z M87.5,273.4c0-0.6-0.4-0.7-1.3-0.7H85c-0.3,0-0.6,0-0.9-0.1c-0.6,0.3-0.7,0.6-0.7,1c0,0.6,0.7,1,1.9,1
				C86.7,274.6,87.5,274,87.5,273.4z M86.5,268.8c0-0.8-0.6-1.4-1.3-1.4c-0.7,0-1.3,0.6-1.3,1.4c0,0.8,0.6,1.4,1.3,1.4
				C85.9,270.1,86.5,269.6,86.5,268.8z"/>
			<path d="M89.7,269.7c0-1.9,1.4-3,3-3c1.7,0,2.7,1.1,2.7,2.7c0,0.2,0,0.4,0,0.6h-4.9v-0.8h4.3l-0.3,0.3c0-1.4-0.7-2.1-1.8-2.1
				c-1.1,0-2,0.8-2,2.3c0,1.5,1,2.3,2.3,2.3c0.7,0,1.2-0.2,1.8-0.6l0.4,0.6c-0.6,0.4-1.3,0.7-2.3,0.7
				C91.1,272.8,89.7,271.7,89.7,269.7z"/>
			<path d="M97.2,266.8H98l0.1,1h0c0.6-0.6,1.3-1.1,2.2-1.1c1.4,0,2,0.8,2,2.4v3.6h-1v-3.5c0-1.1-0.4-1.6-1.3-1.6
				c-0.7,0-1.2,0.3-1.8,1v4.1h-1V266.8z"/>
			<path d="M104.2,270.4v-3.6h1v3.5c0,1.1,0.4,1.6,1.3,1.6c0.7,0,1.2-0.3,1.8-1.1v-4h1v5.8h-0.8l-0.1-1h0c-0.6,0.7-1.3,1.2-2.2,1.2
				C104.9,272.8,104.2,272,104.2,270.4z"/>
			<path d="M111.4,271.9l0.5-0.7c0.7,0.5,1.5,0.8,2.5,0.8c1,0,1.5-0.4,1.5-0.9c0-0.4-0.2-0.8-1.8-1.1c-1.5-0.3-2.3-0.8-2.3-1.7
				c0-0.9,0.8-1.7,2.4-1.7c0.9,0,1.8,0.3,2.4,0.7L116,268c-0.5-0.4-1.2-0.6-2-0.6c-1,0-1.3,0.4-1.3,0.8c0,0.5,0.5,0.7,1.7,1
				c1.9,0.4,2.4,0.9,2.4,1.8c0,0.9-0.9,1.7-2.6,1.7C113.1,272.8,112.1,272.4,111.4,271.9z"/>
			<path d="M120.2,269.3c0-2.3,1-4.1,2.7-5.4l0.6,0.5c-1.6,1.4-2.4,2.9-2.4,4.9c0,2,0.7,3.6,2.4,4.9l-0.6,0.5
				C121.2,273.5,120.2,271.6,120.2,269.3z"/>
			<path d="M126.4,274.2c1.6-1.4,2.4-2.9,2.4-4.9c0-2-0.7-3.6-2.4-4.9l0.6-0.5c1.7,1.3,2.7,3.1,2.7,5.4c0,2.3-1,4.1-2.7,5.4
				L126.4,274.2z"/>
			<path d="M41.7,283.5h-2.2v-0.7h2.2v-2.3h0.8v2.3h2.2v0.7h-2.2v2.3h-0.8V283.5z"/>
			<path d="M53.8,288.1c0-0.5,0.3-0.9,1-1.3v0c-0.3-0.2-0.6-0.5-0.6-1c0-0.4,0.3-0.8,0.7-1.1v0c-0.4-0.3-0.7-0.8-0.7-1.5
				c0-1.3,1.1-2.1,2.3-2.1c0.3,0,0.6,0,0.9,0.1h2.4v0.8h-1.5c0.3,0.3,0.5,0.7,0.5,1.2c0,1.2-1,2-2.3,2c-0.3,0-0.7-0.1-1-0.2
				c-0.3,0.2-0.5,0.4-0.5,0.7c0,0.5,0.4,0.7,1.2,0.7h1.3c1.5,0,2.2,0.4,2.2,1.4c0,1.1-1.3,2-3.2,2C54.7,289.7,53.8,289.1,53.8,288.1
				z M58.7,287.8c0-0.6-0.4-0.7-1.3-0.7h-1.1c-0.3,0-0.6,0-0.9-0.1c-0.6,0.3-0.7,0.6-0.7,1c0,0.6,0.7,1,1.9,1
				C57.9,289,58.7,288.4,58.7,287.8z M57.7,283.2c0-0.8-0.6-1.4-1.3-1.4c-0.7,0-1.3,0.6-1.3,1.4c0,0.8,0.6,1.4,1.3,1.4
				C57.1,284.5,57.7,284,57.7,283.2z"/>
			<path d="M60.9,284.1c0-1.9,1.4-3,3-3c1.7,0,2.7,1.1,2.7,2.7c0,0.2,0,0.4,0,0.6h-4.9v-0.8h4.3l-0.3,0.3c0-1.4-0.7-2.1-1.8-2.1
				c-1.1,0-2,0.8-2,2.3c0,1.5,1,2.3,2.3,2.3c0.7,0,1.2-0.2,1.8-0.6l0.4,0.6c-0.6,0.4-1.3,0.7-2.3,0.7
				C62.3,287.2,60.9,286.1,60.9,284.1z"/>
			<path d="M69.8,284.8V282h-1.7v-0.7l1.7-0.1l0.1-1.9h0.8v1.9h2.9v0.8h-2.9v2.8c0,1,0.3,1.6,1.5,1.6c0.5,0,1-0.1,1.4-0.3l0.2,0.7
				c-0.5,0.2-1.1,0.3-1.8,0.3C70.3,287.2,69.8,286.2,69.8,284.8z"/>
			<path d="M75.2,287.9H81v0.9h-5.8V287.9z"/>
			<path d="M82.6,286.3l0.5-0.7c0.7,0.5,1.5,0.8,2.5,0.8c1,0,1.5-0.4,1.5-0.9c0-0.4-0.2-0.8-1.8-1.1c-1.5-0.3-2.3-0.8-2.3-1.7
				c0-0.9,0.8-1.7,2.4-1.7c0.9,0,1.8,0.3,2.4,0.7l-0.5,0.6c-0.5-0.4-1.2-0.6-2-0.6c-1,0-1.3,0.4-1.3,0.8c0,0.5,0.5,0.7,1.7,1
				c1.9,0.4,2.4,0.9,2.4,1.8c0,0.9-0.9,1.7-2.6,1.7C84.3,287.2,83.3,286.8,82.6,286.3z"/>
			<path d="M90,281.2h0.8l0.1,0.7h0c0.5-0.5,1.3-0.9,2-0.9c1.6,0,2.4,1.2,2.4,3c0,2-1.2,3.1-2.7,3.1c-0.5,0-1.2-0.3-1.7-0.8h0l0,1.1
				v2h-1V281.2z M94.4,284c0-1.3-0.5-2.1-1.6-2.1c-0.5,0-1.1,0.3-1.7,0.9v2.9c0.5,0.5,1.2,0.7,1.5,0.7
				C93.6,286.3,94.4,285.5,94.4,284z"/>
			<path d="M96.9,284.1c0-1.9,1.4-3,3-3c1.7,0,2.7,1.1,2.7,2.7c0,0.2,0,0.4,0,0.6h-4.9v-0.8h4.3l-0.3,0.3c0-1.4-0.7-2.1-1.8-2.1
				c-1.1,0-2,0.8-2,2.3c0,1.5,1,2.3,2.3,2.3c0.7,0,1.2-0.2,1.8-0.6l0.4,0.6c-0.6,0.4-1.3,0.7-2.3,0.7
				C98.3,287.2,96.9,286.1,96.9,284.1z"/>
			<path d="M104.3,284.1c0-2,1.5-3.1,3.3-3.1c0.9,0,1.6,0.4,2.1,0.9l-0.5,0.6c-0.5-0.4-1-0.7-1.6-0.7c-1.3,0-2.3,0.9-2.3,2.2
				c0,1.3,0.9,2.2,2.2,2.2c0.7,0,1.3-0.3,1.8-0.7l0.4,0.6c-0.6,0.6-1.5,0.9-2.3,0.9C105.6,287.2,104.3,286.1,104.3,284.1z"/>
			<path d="M114.3,282h-2.7v-0.8h3.7v5.8h-1V282z M113.9,279.2c0-0.5,0.3-0.8,0.8-0.8s0.8,0.3,0.8,0.8c0,0.5-0.3,0.8-0.8,0.8
				S113.9,279.7,113.9,279.2z"/>
			<path d="M118.5,284.1c0-1.9,1.4-3,3-3c1.7,0,2.7,1.1,2.7,2.7c0,0.2,0,0.4,0,0.6h-4.9v-0.8h4.3l-0.3,0.3c0-1.4-0.7-2.1-1.8-2.1
				c-1.1,0-2,0.8-2,2.3c0,1.5,1,2.3,2.3,2.3c0.7,0,1.2-0.2,1.8-0.6l0.4,0.6c-0.6,0.4-1.3,0.7-2.3,0.7
				C119.9,287.2,118.5,286.1,118.5,284.1z"/>
			<path d="M125.7,286.3l0.5-0.7c0.7,0.5,1.5,0.8,2.5,0.8c1,0,1.5-0.4,1.5-0.9c0-0.4-0.2-0.8-1.8-1.1c-1.5-0.3-2.3-0.8-2.3-1.7
				c0-0.9,0.8-1.7,2.4-1.7c0.9,0,1.8,0.3,2.4,0.7l-0.5,0.6c-0.5-0.4-1.2-0.6-2-0.6c-1,0-1.3,0.4-1.3,0.8c0,0.5,0.5,0.7,1.7,1
				c1.9,0.4,2.4,0.9,2.4,1.8c0,0.9-0.9,1.7-2.6,1.7C127.5,287.2,126.5,286.8,125.7,286.3z"/>
			<path d="M134.6,283.7c0-2.3,1-4.1,2.7-5.4l0.6,0.5c-1.6,1.4-2.4,2.9-2.4,4.9c0,2,0.7,3.6,2.4,4.9l-0.6,0.5
				C135.6,287.9,134.6,286,134.6,283.7z"/>
			<path d="M140.8,288.6c1.6-1.4,2.4-2.9,2.4-4.9c0-2-0.7-3.6-2.4-4.9l0.6-0.5c1.7,1.3,2.7,3.1,2.7,5.4c0,2.3-1,4.1-2.7,5.4
				L140.8,288.6z"/>
		</g>
	</g>
</g>
</svg>
