<svg id="Layer_1" data-name="Layer 1" xmlns="http://www.w3.org/2000/svg" viewBox="0 0 245.73 326.59"><defs><style>.cls-1{fill:#c0e4ee;stroke:#1d1d1b;stroke-miterlimit:10;}.cls-2{font-size:12px;font-family:Arial-BoldMT, Arial;font-weight:700;}.cls-2,.cls-3{fill:#1d1d1b;}.cls-4{fill:#878787;}</style></defs><rect class="cls-1" x="0.5" y="0.5" width="244.73" height="29.18"/><text class="cls-2" transform="translate(107.3 17.98)">Bird</text><rect class="cls-1" x="0.5" y="29.68" width="244.73" height="165.06"/><path class="cls-3" d="M41,56.43h5.16v.75H41Z" transform="translate(-23.04 -7.32)"/><path class="cls-3" d="M55.4,52.9h1.94c2.36,0,3.65,1.4,3.65,3.89s-1.29,4-3.6,4h-2Zm1.87,7c1.78,0,2.67-1.15,2.67-3.15s-.89-3.07-2.67-3.07H56.4v6.22Z" transform="translate(-23.04 -7.32)"/><path class="cls-3" d="M62.27,57.86a2.88,2.88,0,1,1,2.88,3A2.86,2.86,0,0,1,62.27,57.86Zm4.74,0c0-1.34-.74-2.24-1.86-2.24s-1.86.9-1.86,2.24.74,2.22,1.86,2.22S67,59.19,67,57.86Z" transform="translate(-23.04 -7.32)"/><path class="cls-3" d="M69.45,54.94h.79l.08.76h0a1.45,1.45,0,0,1,1.33-.91c.57,0,.93.34,1.1,1,.34-.62.7-1,1.37-1s1.3.64,1.3,1.8v4.17h-1v-4.1c0-.67-.19-1-.62-1s-.63.3-.94.9v4.22H72v-4.1c0-.67-.17-1-.6-1s-.67.3-1,.9v4.22h-1Z" transform="translate(-23.04 -7.32)"/><path class="cls-3" d="M76.91,59.25c0-1.3,1.23-1.94,4.24-2.18a1.39,1.39,0,0,0-1.55-1.46,4.1,4.1,0,0,0-2,.69l-.4-.67a5.17,5.17,0,0,1,2.61-.84,2.17,2.17,0,0,1,2.37,2.4v3.57h-.83L81.23,60h0a3.86,3.86,0,0,1-2.29.94A1.77,1.77,0,0,1,76.91,59.25Zm4.24,0V57.73c-2.5.19-3.25.68-3.25,1.45s.59.92,1.27.92A3.2,3.2,0,0,0,81.15,59.24Z" transform="translate(-23.04 -7.32)"/><path class="cls-3" d="M86.93,55.74h-2.7v-.8h3.7v5.82h-1Zm-.4-2.8a.8.8,0,1,1,.8.77A.75.75,0,0,1,86.53,52.94Z" transform="translate(-23.04 -7.32)"/><path class="cls-3" d="M91.47,54.94h.81l.09,1h0a3,3,0,0,1,2.19-1.13c1.38,0,2,.82,2,2.35v3.62h-1V57.27c0-1.1-.38-1.62-1.33-1.62-.7,0-1.17.35-1.84,1.05v4.06h-1Z" transform="translate(-23.04 -7.32)"/><path class="cls-3" d="M100.18,55.6a1,1,0,1,1,1.94,0,1,1,0,1,1-1.94,0Zm0,4.29a1,1,0,1,1,1,1A1,1,0,0,1,100.18,59.89Z" transform="translate(-23.04 -7.32)"/><path class="cls-3" d="M112.91,57.86a3,3,0,0,1,3.25-3.07,3,3,0,0,1,2.12.85l-.49.64a2.39,2.39,0,0,0-1.59-.66,2.14,2.14,0,0,0-2.27,2.24,2.12,2.12,0,0,0,2.24,2.22,2.76,2.76,0,0,0,1.8-.73l.45.65a3.5,3.5,0,0,1-2.32.91A2.94,2.94,0,0,1,112.91,57.86Z" transform="translate(-23.04 -7.32)"/><path class="cls-3" d="M120.27,52.23h1v2.32l-.06,1.38h0a2.92,2.92,0,0,1,2.17-1.14c1.38,0,2,.82,2,2.35v3.62h-1V57.27c0-1.1-.38-1.62-1.33-1.62-.7,0-1.17.35-1.84,1.05v4.06h-1Z" transform="translate(-23.04 -7.32)"/><path class="cls-3" d="M127.31,59.25c0-1.3,1.22-1.94,4.23-2.18A1.38,1.38,0,0,0,130,55.61a4.1,4.1,0,0,0-2,.69l-.4-.67a5.17,5.17,0,0,1,2.6-.84,2.17,2.17,0,0,1,2.38,2.4v3.57h-.83l-.08-.79h0a3.86,3.86,0,0,1-2.29.94A1.77,1.77,0,0,1,127.31,59.25Zm4.23,0V57.73c-2.49.19-3.25.68-3.25,1.45s.6.92,1.28.92A3.16,3.16,0,0,0,131.54,59.24Z" transform="translate(-23.04 -7.32)"/><path class="cls-3" d="M135.29,54.94h.83l.09,1.37h0a3.08,3.08,0,0,1,2.6-1.52A2.45,2.45,0,0,1,140,55l-.23.85a2.92,2.92,0,0,0-1.08-.19,2.71,2.71,0,0,0-2.39,1.67v3.4h-1Z" transform="translate(-23.04 -7.32)"/><path class="cls-3" d="M141.71,59.25c0-1.3,1.22-1.94,4.24-2.18a1.39,1.39,0,0,0-1.55-1.46,4.1,4.1,0,0,0-2,.69l-.4-.67a5.17,5.17,0,0,1,2.61-.84,2.17,2.17,0,0,1,2.37,2.4v3.57h-.83L146,60h0a3.86,3.86,0,0,1-2.29.94A1.77,1.77,0,0,1,141.71,59.25Zm4.24,0V57.73c-2.5.19-3.25.68-3.25,1.45s.59.92,1.27.92A3.2,3.2,0,0,0,146,59.24Z" transform="translate(-23.04 -7.32)"/><path class="cls-3" d="M148.91,57.86a3,3,0,0,1,3.25-3.07,3,3,0,0,1,2.12.85l-.49.64a2.39,2.39,0,0,0-1.59-.66,2.14,2.14,0,0,0-2.27,2.24,2.12,2.12,0,0,0,2.24,2.22,2.76,2.76,0,0,0,1.8-.73l.45.65a3.52,3.52,0,0,1-2.32.91A2.94,2.94,0,0,1,148.91,57.86Z" transform="translate(-23.04 -7.32)"/><path class="cls-3" d="M157.62,58.5V55.74H156V55l1.69-.06.13-1.88h.83v1.88h2.85v.8h-2.85v2.77c0,1,.34,1.58,1.47,1.58a4,4,0,0,0,1.39-.26l.22.73a5.12,5.12,0,0,1-1.82.35C158.17,60.91,157.62,59.94,157.62,58.5Z" transform="translate(-23.04 -7.32)"/><path class="cls-3" d="M163.17,57.84a2.93,2.93,0,0,1,3-3.05,2.51,2.51,0,0,1,2.66,2.74,5,5,0,0,1,0,.6h-4.93v-.77h4.34l-.25.27c0-1.38-.69-2.06-1.76-2.06a2.06,2.06,0,0,0-2,2.27,2.12,2.12,0,0,0,2.28,2.28,3.13,3.13,0,0,0,1.77-.56l.36.65a3.93,3.93,0,0,1-2.25.7A3,3,0,0,1,163.17,57.84Z" transform="translate(-23.04 -7.32)"/><path class="cls-3" d="M171.29,54.94h.83l.09,1.37h0a3.08,3.08,0,0,1,2.6-1.52A2.45,2.45,0,0,1,176,55l-.23.85a2.92,2.92,0,0,0-1.08-.19,2.74,2.74,0,0,0-2.4,1.67v3.4h-1Z" transform="translate(-23.04 -7.32)"/><path class="cls-3" d="M186.45,57.43A6.69,6.69,0,0,1,189.13,52l.55.51a6.37,6.37,0,0,0,0,9.88l-.55.51A6.69,6.69,0,0,1,186.45,57.43Z" transform="translate(-23.04 -7.32)"/><path class="cls-3" d="M192.52,52.9h4.87v.85h-3.86v2.46h3.26v.85h-3.26v2.85h4v.85h-5Z" transform="translate(-23.04 -7.32)"/><path class="cls-3" d="M199.27,58.56V54.94h1v3.49c0,1.09.38,1.61,1.34,1.61A2.31,2.31,0,0,0,203.42,59v-4h1v5.82h-.83l-.08-1h0a2.83,2.83,0,0,1-2.17,1.17C199.91,60.91,199.27,60.09,199.27,58.56Z" transform="translate(-23.04 -7.32)"/><path class="cls-3" d="M206.81,52.23h1V58h0L211,54.94h1.14l-4.31,4.24v1.58h-1Zm2.24,5.44.6-.65,2.78,3.74h-1.1Z" transform="translate(-23.04 -7.32)"/><path class="cls-3" d="M213.71,59.25c0-1.3,1.22-1.94,4.23-2.18a1.38,1.38,0,0,0-1.54-1.46,4.1,4.1,0,0,0-2,.69l-.4-.67a5.13,5.13,0,0,1,2.6-.84,2.17,2.17,0,0,1,2.38,2.4v3.57h-.83L218,60h0a3.86,3.86,0,0,1-2.29.94A1.77,1.77,0,0,1,213.71,59.25Zm4.23,0V57.73c-2.49.19-3.25.68-3.25,1.45s.6.92,1.27.92A3.18,3.18,0,0,0,217.94,59.24Z" transform="translate(-23.04 -7.32)"/><path class="cls-3" d="M221.69,54.94h.83l.09,1.37h0a3.08,3.08,0,0,1,2.6-1.52,2.45,2.45,0,0,1,1.15.24l-.23.85a3,3,0,0,0-1.08-.19,2.74,2.74,0,0,0-2.4,1.67v3.4h-1Z" transform="translate(-23.04 -7.32)"/><path class="cls-3" d="M228,63.15l.21-.79a1.78,1.78,0,0,0,.53.08,1.68,1.68,0,0,0,1.59-1.23l.17-.43-2.71-5.84h1l1.42,3.21c.23.52.48,1.13.72,1.69h.05c.2-.55.43-1.16.62-1.69l1.26-3.21h1l-2.58,6.3A2.52,2.52,0,0,1,228,63.15Z" transform="translate(-23.04 -7.32)"/><path class="cls-3" d="M235.31,59.25c0-1.3,1.22-1.94,4.23-2.18A1.38,1.38,0,0,0,238,55.61a4.1,4.1,0,0,0-2,.69l-.4-.67a5.17,5.17,0,0,1,2.6-.84,2.17,2.17,0,0,1,2.38,2.4v3.57h-.83l-.08-.79h0a3.86,3.86,0,0,1-2.29.94A1.77,1.77,0,0,1,235.31,59.25Zm4.23,0V57.73c-2.49.19-3.25.68-3.25,1.45s.6.92,1.27.92A3.18,3.18,0,0,0,239.54,59.24Z" transform="translate(-23.04 -7.32)"/><path class="cls-3" d="M243,62.37a6.37,6.37,0,0,0,0-9.88l.55-.51a6.87,6.87,0,0,1,0,10.9Z" transform="translate(-23.04 -7.32)"/><path class="cls-3" d="M41,70.83h5.16v.75H41Z" transform="translate(-23.04 -7.32)"/><path class="cls-3" d="M55.52,67.3h1v3.93h0l3.3-3.93H61l-4.48,5.36v2.5h-1Zm2.23,3.47.61-.79,3,5.18H60.17Z" transform="translate(-23.04 -7.32)"/><path class="cls-3" d="M65.33,70.14h-2.7v-.8h3.7v5.82h-1Zm-.4-2.8a.8.8,0,1,1,.8.77A.75.75,0,0,1,64.93,67.34Z" transform="translate(-23.04 -7.32)"/><path class="cls-3" d="M69.87,69.34h.81l.09,1h0A3,3,0,0,1,73,69.19c1.38,0,2,.82,2,2.35v3.62H74V71.67c0-1.1-.38-1.62-1.33-1.62-.7,0-1.17.35-1.84,1v4.06h-1Z" transform="translate(-23.04 -7.32)"/><path class="cls-3" d="M76.82,76.23a1.59,1.59,0,0,1,1-1.29v0a1,1,0,0,1-.6-1,1.42,1.42,0,0,1,.69-1.09v0a1.88,1.88,0,0,1-.72-1.51,2.14,2.14,0,0,1,2.29-2.09,2.33,2.33,0,0,1,.87.15h2.41v.8H81.21a1.77,1.77,0,0,1,.49,1.17,2.05,2.05,0,0,1-2.26,2,2.39,2.39,0,0,1-1-.22.81.81,0,0,0-.46.67c0,.46.45.67,1.21.67h1.31c1.5,0,2.22.39,2.22,1.37s-1.26,2-3.24,2C77.8,77.85,76.82,77.26,76.82,76.23Zm5-.26c0-.55-.44-.71-1.33-.71H79.3a3,3,0,0,1-.89-.1c-.55.3-.74.64-.74,1,0,.61.66,1,1.9,1S81.77,76.57,81.77,76Zm-1-4.69a1.35,1.35,0,1,0-1.35,1.38A1.32,1.32,0,0,0,80.79,71.28Z" transform="translate(-23.04 -7.32)"/><path class="cls-3" d="M83.87,72.26a2.81,2.81,0,0,1,2.64-3.07,2.48,2.48,0,0,1,1.75.75h0l-.05-1.07V66.62h1v8.54h-.81l-.09-.76h0a2.82,2.82,0,0,1-1.91.91C84.88,75.31,83.87,74.2,83.87,72.26Zm4.37,1.35V70.7A2.17,2.17,0,0,0,86.71,70a2,2,0,0,0-1.82,2.22c0,1.39.65,2.22,1.72,2.22A2.23,2.23,0,0,0,88.24,73.61Z" transform="translate(-23.04 -7.32)"/><path class="cls-3" d="M91.07,72.26a2.88,2.88,0,1,1,2.88,3A2.86,2.86,0,0,1,91.07,72.26Zm4.74,0c0-1.34-.74-2.24-1.86-2.24s-1.86.9-1.86,2.24.74,2.22,1.86,2.22S95.81,73.59,95.81,72.26Z" transform="translate(-23.04 -7.32)"/><path class="cls-3" d="M98.25,69.34H99l.08.76h0a1.45,1.45,0,0,1,1.33-.91c.57,0,.93.34,1.1,1,.34-.62.7-1,1.37-1s1.29.64,1.29,1.8v4.17h-1v-4.1c0-.67-.19-1-.62-1s-.63.3-.94.9v4.22h-.91v-4.1c0-.67-.17-1-.6-1s-.67.3-1,.9v4.22h-1Z" transform="translate(-23.04 -7.32)"/><path class="cls-3" d="M107.38,70a1,1,0,1,1,1.94,0,1,1,0,1,1-1.94,0Zm0,4.29a1,1,0,1,1,1,1A1,1,0,0,1,107.38,74.29Z" transform="translate(-23.04 -7.32)"/><path class="cls-3" d="M120.11,72.26a3,3,0,0,1,3.25-3.07,3,3,0,0,1,2.12.85l-.49.64A2.39,2.39,0,0,0,123.4,70a2.14,2.14,0,0,0-2.27,2.24,2.12,2.12,0,0,0,2.24,2.22,2.76,2.76,0,0,0,1.8-.73l.45.65a3.5,3.5,0,0,1-2.32.91A2.94,2.94,0,0,1,120.11,72.26Z" transform="translate(-23.04 -7.32)"/><path class="cls-3" d="M127.47,66.62h1V69l-.06,1.38h0a2.92,2.92,0,0,1,2.17-1.14c1.38,0,2,.82,2,2.35v3.62h-1V71.67c0-1.1-.39-1.62-1.33-1.62-.7,0-1.17.35-1.84,1v4.06h-1Z" transform="translate(-23.04 -7.32)"/><path class="cls-3" d="M134.51,73.65c0-1.3,1.22-1.94,4.23-2.18A1.38,1.38,0,0,0,137.2,70a4.1,4.1,0,0,0-2,.69l-.4-.67a5.17,5.17,0,0,1,2.61-.84,2.17,2.17,0,0,1,2.37,2.4v3.57h-.83l-.08-.79h0a3.86,3.86,0,0,1-2.29.94A1.77,1.77,0,0,1,134.51,73.65Zm4.23,0V72.13c-2.49.19-3.25.68-3.25,1.45s.6.92,1.28.92A3.16,3.16,0,0,0,138.74,73.64Z" transform="translate(-23.04 -7.32)"/><path class="cls-3" d="M142.49,69.34h.83l.09,1.37h0a3.08,3.08,0,0,1,2.6-1.52,2.45,2.45,0,0,1,1.15.24l-.23.85a2.92,2.92,0,0,0-1.08-.19,2.71,2.71,0,0,0-2.39,1.67v3.4h-1Z" transform="translate(-23.04 -7.32)"/><path class="cls-3" d="M148.91,73.65c0-1.3,1.22-1.94,4.23-2.18A1.38,1.38,0,0,0,151.6,70a4.1,4.1,0,0,0-2,.69l-.4-.67a5.17,5.17,0,0,1,2.6-.84,2.17,2.17,0,0,1,2.38,2.4v3.57h-.83l-.08-.79h0a3.86,3.86,0,0,1-2.29.94A1.77,1.77,0,0,1,148.91,73.65Zm4.23,0V72.13c-2.49.19-3.25.68-3.25,1.45s.6.92,1.27.92A3.18,3.18,0,0,0,153.14,73.64Z" transform="translate(-23.04 -7.32)"/><path class="cls-3" d="M156.11,72.26a3,3,0,0,1,3.25-3.07,3,3,0,0,1,2.12.85l-.49.64A2.39,2.39,0,0,0,159.4,70a2.14,2.14,0,0,0-2.27,2.24,2.12,2.12,0,0,0,2.24,2.22,2.76,2.76,0,0,0,1.8-.73l.45.65a3.52,3.52,0,0,1-2.32.91A2.94,2.94,0,0,1,156.11,72.26Z" transform="translate(-23.04 -7.32)"/><path class="cls-3" d="M164.82,72.9V70.14h-1.65V69.4l1.69-.06.13-1.88h.83v1.88h2.85v.8h-2.85v2.77c0,1,.34,1.58,1.47,1.58a4,4,0,0,0,1.39-.26l.22.73a5.12,5.12,0,0,1-1.82.35C165.37,75.31,164.82,74.34,164.82,72.9Z" transform="translate(-23.04 -7.32)"/><path class="cls-3" d="M170.37,72.24a2.93,2.93,0,0,1,3-3A2.51,2.51,0,0,1,176,71.93a3.45,3.45,0,0,1-.05.6H171v-.77h4.34l-.25.27c0-1.38-.69-2.06-1.76-2.06a2.05,2.05,0,0,0-2,2.27,2.12,2.12,0,0,0,2.28,2.28A3.13,3.13,0,0,0,175.4,74l.36.65a3.93,3.93,0,0,1-2.25.7A3,3,0,0,1,170.37,72.24Z" transform="translate(-23.04 -7.32)"/><path class="cls-3" d="M178.49,69.34h.83l.09,1.37h0a3.08,3.08,0,0,1,2.6-1.52,2.45,2.45,0,0,1,1.15.24l-.23.85a2.92,2.92,0,0,0-1.08-.19,2.71,2.71,0,0,0-2.39,1.67v3.4h-1Z" transform="translate(-23.04 -7.32)"/><path class="cls-3" d="M193.64,71.83a6.69,6.69,0,0,1,2.69-5.45l.55.51a6.37,6.37,0,0,0,0,9.88l-.55.5A6.66,6.66,0,0,1,193.64,71.83Z" transform="translate(-23.04 -7.32)"/><path class="cls-3" d="M201.37,67.3h1.15l2.65,7.86H204.1l-1.36-4.39c-.28-.87-.54-1.73-.78-2.65h-.05c-.25.92-.5,1.78-.78,2.65l-1.38,4.39h-1ZM200.13,72h3.61v.82h-3.61Z" transform="translate(-23.04 -7.32)"/><path class="cls-3" d="M206.67,69.34h.81l.09,1h0a3,3,0,0,1,2.2-1.13c1.38,0,2,.82,2,2.35v3.62h-1V71.67c0-1.1-.39-1.62-1.33-1.62-.7,0-1.17.35-1.84,1v4.06h-1Z" transform="translate(-23.04 -7.32)"/><path class="cls-3" d="M216.53,70.14h-2.7v-.8h3.69v5.82h-1Zm-.4-2.8a.79.79,0,0,1,1.58,0,.79.79,0,0,1-1.58,0Z" transform="translate(-23.04 -7.32)"/><path class="cls-3" d="M220.65,69.34h.79l.08.76h0a1.45,1.45,0,0,1,1.34-.91c.57,0,.93.34,1.1,1,.34-.62.7-1,1.37-1s1.29.64,1.29,1.8v4.17h-1v-4.1c0-.67-.19-1-.63-1s-.62.3-.93.9v4.22h-.91v-4.1c0-.67-.17-1-.6-1s-.67.3-1,.9v4.22h-1Z" transform="translate(-23.04 -7.32)"/><path class="cls-3" d="M228.11,73.65c0-1.3,1.22-1.94,4.23-2.18A1.38,1.38,0,0,0,230.8,70a4.1,4.1,0,0,0-2,.69l-.4-.67a5.17,5.17,0,0,1,2.6-.84,2.17,2.17,0,0,1,2.38,2.4v3.57h-.83l-.08-.79h0a3.86,3.86,0,0,1-2.29.94A1.77,1.77,0,0,1,228.11,73.65Zm4.23,0V72.13c-2.49.19-3.25.68-3.25,1.45s.6.92,1.27.92A3.18,3.18,0,0,0,232.34,73.64Z" transform="translate(-23.04 -7.32)"/><path class="cls-3" d="M237.3,73.21V67.43h-2.06v-.81h3.06v6.66a1,1,0,0,0,1.15,1.2,2.65,2.65,0,0,0,1.09-.26l.25.74a3.5,3.5,0,0,1-1.56.35C238,75.31,237.3,74.59,237.3,73.21Z" transform="translate(-23.04 -7.32)"/><path class="cls-3" d="M245.33,70.14h-2.7v-.8h3.69v5.82h-1Zm-.4-2.8a.79.79,0,0,1,1.58,0,.79.79,0,0,1-1.58,0Z" transform="translate(-23.04 -7.32)"/><path class="cls-3" d="M249.71,73.65c0-1.3,1.22-1.94,4.23-2.18A1.38,1.38,0,0,0,252.4,70a4.1,4.1,0,0,0-2,.69L250,70a5.13,5.13,0,0,1,2.6-.84,2.17,2.17,0,0,1,2.38,2.4v3.57h-.83l-.08-.79h0a3.86,3.86,0,0,1-2.29.94A1.77,1.77,0,0,1,249.71,73.65Zm4.23,0V72.13c-2.49.19-3.25.68-3.25,1.45s.6.92,1.27.92A3.18,3.18,0,0,0,253.94,73.64Z" transform="translate(-23.04 -7.32)"/><path class="cls-3" d="M257.41,76.77a6.37,6.37,0,0,0,0-9.88l.55-.51a6.86,6.86,0,0,1,0,10.89Z" transform="translate(-23.04 -7.32)"/><path class="cls-3" d="M41,85.23h5.16V86H41Z" transform="translate(-23.04 -7.32)"/><path class="cls-3" d="M55.58,81.7H58c1.74,0,2.92.58,2.92,2.31S59.68,86.45,58,86.45H56.58v3.11h-1Zm2.25,3.93c1.37,0,2-.5,2-1.62s-.67-1.5-2-1.5H56.58v3.12Z" transform="translate(-23.04 -7.32)"/><path class="cls-3" d="M62.67,81h1v2.33l-.06,1.38h0a2.92,2.92,0,0,1,2.17-1.14c1.38,0,2,.82,2,2.35v3.62h-1V86.07c0-1.1-.38-1.62-1.33-1.62-.7,0-1.17.35-1.84,1v4.06h-1Z" transform="translate(-23.04 -7.32)"/><path class="cls-3" d="M69.56,92l.2-.79a1.84,1.84,0,0,0,.53.08A1.67,1.67,0,0,0,71.88,90l.17-.43-2.71-5.84h1L71.76,87c.23.52.48,1.13.72,1.69h0c.2-.55.43-1.16.62-1.69l1.26-3.21h1L72.79,90a2.6,2.6,0,0,1-2.47,2A2.47,2.47,0,0,1,69.56,92Z" transform="translate(-23.04 -7.32)"/><path class="cls-3" d="M78.9,87.61V81.83H76.84V81H79.9v6.66a1,1,0,0,0,1.15,1.2,2.58,2.58,0,0,0,1.09-.26l.25.74a3.5,3.5,0,0,1-1.56.35C79.59,89.71,78.9,89,78.9,87.61Z" transform="translate(-23.04 -7.32)"/><path class="cls-3" d="M84.08,87.36V83.74h1v3.49c0,1.09.38,1.61,1.34,1.61a2.32,2.32,0,0,0,1.82-1.06v-4h1v5.82h-.83l-.08-1h0a2.83,2.83,0,0,1-2.17,1.17C84.71,89.71,84.08,88.89,84.08,87.36Z" transform="translate(-23.04 -7.32)"/><path class="cls-3" d="M91.05,83.74h.79l.08.76h0a1.45,1.45,0,0,1,1.33-.91c.57,0,.93.34,1.1,1,.34-.62.7-1,1.37-1s1.29.64,1.29,1.8v4.17h-1v-4.1c0-.67-.19-1-.62-1s-.63.3-.94.9v4.22h-.91v-4.1c0-.67-.17-1-.6-1s-.67.3-1,.9v4.22h-1Z" transform="translate(-23.04 -7.32)"/><path class="cls-3" d="M100.18,84.4a1,1,0,1,1,1,1A1,1,0,0,1,100.18,84.4Zm0,4.29a1,1,0,1,1,1,1A1,1,0,0,1,100.18,88.69Z" transform="translate(-23.04 -7.32)"/><path class="cls-3" d="M112.91,86.66a3,3,0,0,1,3.25-3.07,3,3,0,0,1,2.12.85l-.49.64a2.39,2.39,0,0,0-1.59-.66,2.14,2.14,0,0,0-2.27,2.24,2.12,2.12,0,0,0,2.24,2.22,2.76,2.76,0,0,0,1.8-.73l.45.65a3.5,3.5,0,0,1-2.32.91A2.94,2.94,0,0,1,112.91,86.66Z" transform="translate(-23.04 -7.32)"/><path class="cls-3" d="M120.27,81h1v2.33l-.06,1.38h0a2.92,2.92,0,0,1,2.17-1.14c1.38,0,2,.82,2,2.35v3.62h-1V86.07c0-1.1-.38-1.62-1.33-1.62-.7,0-1.17.35-1.84,1v4.06h-1Z" transform="translate(-23.04 -7.32)"/><path class="cls-3" d="M127.31,88.05c0-1.3,1.22-1.94,4.23-2.18A1.38,1.38,0,0,0,130,84.41a4.1,4.1,0,0,0-2,.69l-.4-.67a5.17,5.17,0,0,1,2.6-.84,2.17,2.17,0,0,1,2.38,2.4v3.57h-.83l-.08-.79h0a3.86,3.86,0,0,1-2.29.94A1.77,1.77,0,0,1,127.31,88.05Zm4.23,0V86.53c-2.49.19-3.25.68-3.25,1.45s.6.92,1.28.92A3.16,3.16,0,0,0,131.54,88Z" transform="translate(-23.04 -7.32)"/><path class="cls-3" d="M135.29,83.74h.83l.09,1.37h0a3.08,3.08,0,0,1,2.6-1.52,2.45,2.45,0,0,1,1.15.24l-.23.85a2.92,2.92,0,0,0-1.08-.19,2.71,2.71,0,0,0-2.39,1.67v3.4h-1Z" transform="translate(-23.04 -7.32)"/><path class="cls-3" d="M141.71,88.05c0-1.3,1.22-1.94,4.24-2.18a1.39,1.39,0,0,0-1.55-1.46,4.1,4.1,0,0,0-2,.69l-.4-.67a5.17,5.17,0,0,1,2.61-.84,2.17,2.17,0,0,1,2.37,2.4v3.57h-.83l-.08-.79h0a3.86,3.86,0,0,1-2.29.94A1.77,1.77,0,0,1,141.71,88.05ZM146,88V86.53c-2.5.19-3.25.68-3.25,1.45s.59.92,1.27.92A3.2,3.2,0,0,0,146,88Z" transform="translate(-23.04 -7.32)"/><path class="cls-3" d="M148.91,86.66a3,3,0,0,1,3.25-3.07,3,3,0,0,1,2.12.85l-.49.64a2.39,2.39,0,0,0-1.59-.66,2.14,2.14,0,0,0-2.27,2.24,2.12,2.12,0,0,0,2.24,2.22,2.76,2.76,0,0,0,1.8-.73l.45.65a3.52,3.52,0,0,1-2.32.91A2.94,2.94,0,0,1,148.91,86.66Z" transform="translate(-23.04 -7.32)"/><path class="cls-3" d="M157.62,87.3V84.54H156v-.75l1.69-.05.13-1.88h.83v1.88h2.85v.8h-2.85v2.77c0,1,.34,1.58,1.47,1.58a4,4,0,0,0,1.39-.26l.22.73a5.12,5.12,0,0,1-1.82.35C158.17,89.71,157.62,88.74,157.62,87.3Z" transform="translate(-23.04 -7.32)"/><path class="cls-3" d="M163.17,86.64a2.93,2.93,0,0,1,3-3,2.51,2.51,0,0,1,2.66,2.74,5,5,0,0,1,0,.6h-4.93v-.77h4.34l-.25.27c0-1.38-.69-2.06-1.76-2.06a2.06,2.06,0,0,0-2,2.27,2.12,2.12,0,0,0,2.28,2.28,3.13,3.13,0,0,0,1.77-.56l.36.65a3.93,3.93,0,0,1-2.25.7A3,3,0,0,1,163.17,86.64Z" transform="translate(-23.04 -7.32)"/><path class="cls-3" d="M171.29,83.74h.83l.09,1.37h0a3.08,3.08,0,0,1,2.6-1.52,2.45,2.45,0,0,1,1.15.24l-.23.85a2.92,2.92,0,0,0-1.08-.19,2.74,2.74,0,0,0-2.4,1.67v3.4h-1Z" transform="translate(-23.04 -7.32)"/><path class="cls-3" d="M186.45,86.23a6.69,6.69,0,0,1,2.68-5.45l.55.51a6.37,6.37,0,0,0,0,9.88l-.55.5A6.65,6.65,0,0,1,186.45,86.23Z" transform="translate(-23.04 -7.32)"/><path class="cls-3" d="M191.93,85.63c0-2.53,1.48-4.08,3.53-4.08a3,3,0,0,1,2.16,1l-.58.64a2.11,2.11,0,0,0-1.58-.71c-1.5,0-2.49,1.21-2.49,3.17s1,3.21,2.49,3.21a2.26,2.26,0,0,0,1.76-.86l.57.61a3,3,0,0,1-2.43,1.14C193.42,89.71,191.93,88.2,191.93,85.63Z" transform="translate(-23.04 -7.32)"/><path class="cls-3" d="M199.47,81h1v2.33l-.06,1.38h0a2.92,2.92,0,0,1,2.17-1.14c1.38,0,2,.82,2,2.35v3.62h-1V86.07c0-1.1-.39-1.62-1.33-1.62-.7,0-1.17.35-1.84,1v4.06h-1Z" transform="translate(-23.04 -7.32)"/><path class="cls-3" d="M206.27,86.66a2.88,2.88,0,1,1,2.88,3A2.86,2.86,0,0,1,206.27,86.66Zm4.74,0c0-1.34-.75-2.24-1.86-2.24s-1.86.9-1.86,2.24.74,2.22,1.86,2.22S211,88,211,86.66Z" transform="translate(-23.04 -7.32)"/><path class="cls-3" d="M214.49,83.74h.83l.09,1.37h0a3.08,3.08,0,0,1,2.6-1.52,2.45,2.45,0,0,1,1.15.24l-.23.85a3,3,0,0,0-1.08-.19,2.74,2.74,0,0,0-2.4,1.67v3.4h-1Z" transform="translate(-23.04 -7.32)"/><path class="cls-3" d="M220.67,86.66a2.81,2.81,0,0,1,2.64-3.07,2.51,2.51,0,0,1,1.75.75h0L225,83.27V81h1v8.54h-.82l-.08-.76h0a2.82,2.82,0,0,1-1.91.91C221.68,89.71,220.67,88.6,220.67,86.66ZM225,88V85.1a2.14,2.14,0,0,0-1.52-.67,2,2,0,0,0-1.82,2.22c0,1.39.65,2.22,1.71,2.22A2.18,2.18,0,0,0,225,88Z" transform="translate(-23.04 -7.32)"/><path class="cls-3" d="M228.11,88.05c0-1.3,1.22-1.94,4.23-2.18a1.38,1.38,0,0,0-1.54-1.46,4.1,4.1,0,0,0-2,.69l-.4-.67a5.17,5.17,0,0,1,2.6-.84,2.17,2.17,0,0,1,2.38,2.4v3.57h-.83l-.08-.79h0a3.86,3.86,0,0,1-2.29.94A1.77,1.77,0,0,1,228.11,88.05Zm4.23,0V86.53c-2.49.19-3.25.68-3.25,1.45s.6.92,1.27.92A3.18,3.18,0,0,0,232.34,88Z" transform="translate(-23.04 -7.32)"/><path class="cls-3" d="M236.82,87.3V84.54h-1.65v-.75l1.69-.05.13-1.88h.83v1.88h2.85v.8h-2.85v2.77c0,1,.34,1.58,1.47,1.58a4,4,0,0,0,1.39-.26l.22.73a5.12,5.12,0,0,1-1.82.35C237.37,89.71,236.82,88.74,236.82,87.3Z" transform="translate(-23.04 -7.32)"/><path class="cls-3" d="M242.37,86.64a2.93,2.93,0,0,1,3-3A2.51,2.51,0,0,1,248,86.33a3.45,3.45,0,0,1-.05.6H243v-.77h4.34l-.25.27c0-1.38-.69-2.06-1.76-2.06a2.05,2.05,0,0,0-2,2.27,2.12,2.12,0,0,0,2.28,2.28,3.15,3.15,0,0,0,1.77-.56l.36.65a3.93,3.93,0,0,1-2.25.7A3,3,0,0,1,242.37,86.64Z" transform="translate(-23.04 -7.32)"/><path class="cls-3" d="M250.21,91.17a6.37,6.37,0,0,0,0-9.88l.55-.51a6.86,6.86,0,0,1,0,10.89Z" transform="translate(-23.04 -7.32)"/><path class="cls-3" d="M41,99.63h5.16v.75H41Z" transform="translate(-23.04 -7.32)"/><path class="cls-3" d="M55.13,100c0-2.53,1.48-4.08,3.53-4.08a3,3,0,0,1,2.16,1l-.58.64a2.11,2.11,0,0,0-1.58-.71c-1.5,0-2.48,1.21-2.48,3.17s1,3.21,2.48,3.21a2.26,2.26,0,0,0,1.76-.86L61,103a3,3,0,0,1-2.44,1.14C56.62,104.11,55.13,102.6,55.13,100Z" transform="translate(-23.04 -7.32)"/><path class="cls-3" d="M64.5,102V96.23H62.44v-.8H65.5v6.65a1,1,0,0,0,1.15,1.2,2.58,2.58,0,0,0,1.09-.26l.25.74a3.5,3.5,0,0,1-1.56.35C65.19,104.11,64.5,103.39,64.5,102Z" transform="translate(-23.04 -7.32)"/><path class="cls-3" d="M69.71,102.45c0-1.3,1.23-1.94,4.24-2.18a1.39,1.39,0,0,0-1.55-1.46,4.1,4.1,0,0,0-2,.69l-.4-.67A5.17,5.17,0,0,1,72.57,98a2.17,2.17,0,0,1,2.37,2.4V104h-.83l-.08-.79h0a3.86,3.86,0,0,1-2.29.94A1.77,1.77,0,0,1,69.71,102.45Zm4.24,0v-1.51c-2.5.19-3.25.68-3.25,1.45s.6.92,1.27.92A3.2,3.2,0,0,0,74,102.44Z" transform="translate(-23.04 -7.32)"/><path class="cls-3" d="M76.8,103.2l.46-.66a4.15,4.15,0,0,0,2.53.79c1,0,1.46-.41,1.46-.9s-.22-.76-1.81-1.08-2.28-.83-2.28-1.7S78,98,79.59,98a4.37,4.37,0,0,1,2.35.75l-.48.63a3.45,3.45,0,0,0-2-.61c-1,0-1.34.39-1.34.84s.5.72,1.7,1c1.93.42,2.4.9,2.4,1.8s-.92,1.74-2.59,1.74A5.15,5.15,0,0,1,76.8,103.2Z" transform="translate(-23.04 -7.32)"/><path class="cls-3" d="M84,103.2l.46-.66a4.15,4.15,0,0,0,2.53.79c1,0,1.46-.41,1.46-.9s-.22-.76-1.81-1.08-2.28-.83-2.28-1.7S85.19,98,86.79,98a4.37,4.37,0,0,1,2.35.75l-.48.63a3.45,3.45,0,0,0-2-.61c-1,0-1.34.39-1.34.84s.5.72,1.7,1c1.93.42,2.4.9,2.4,1.8s-.92,1.74-2.59,1.74A5.15,5.15,0,0,1,84,103.2Z" transform="translate(-23.04 -7.32)"/><path class="cls-3" d="M93,98.8a1,1,0,1,1,1.94,0,1,1,0,1,1-1.94,0Zm0,4.29a1,1,0,1,1,1,1A1,1,0,0,1,93,103.09Z" transform="translate(-23.04 -7.32)"/><path class="cls-3" d="M105.71,101.06A3,3,0,0,1,109,98a3,3,0,0,1,2.12.85l-.49.64a2.39,2.39,0,0,0-1.59-.66,2.14,2.14,0,0,0-2.27,2.24,2.12,2.12,0,0,0,2.24,2.22,2.76,2.76,0,0,0,1.8-.73l.45.65a3.5,3.5,0,0,1-2.32.91A2.94,2.94,0,0,1,105.71,101.06Z" transform="translate(-23.04 -7.32)"/><path class="cls-3" d="M113.07,95.43h1v2.32L114,99.13h0A2.92,2.92,0,0,1,116.21,98c1.38,0,2,.82,2,2.35V104h-1v-3.49c0-1.1-.38-1.61-1.33-1.61a2.48,2.48,0,0,0-1.84,1V104h-1Z" transform="translate(-23.04 -7.32)"/><path class="cls-3" d="M120.11,102.45c0-1.3,1.22-1.94,4.24-2.18a1.39,1.39,0,0,0-1.55-1.46,4.1,4.1,0,0,0-2,.69l-.4-.67A5.17,5.17,0,0,1,123,98a2.17,2.17,0,0,1,2.37,2.4V104h-.83l-.08-.79h0a3.86,3.86,0,0,1-2.29.94A1.77,1.77,0,0,1,120.11,102.45Zm4.24,0v-1.51c-2.5.19-3.25.68-3.25,1.45s.6.92,1.27.92A3.2,3.2,0,0,0,124.35,102.44Z" transform="translate(-23.04 -7.32)"/><path class="cls-3" d="M128.09,98.14h.83l.09,1.37h0a3.08,3.08,0,0,1,2.6-1.52,2.45,2.45,0,0,1,1.15.24l-.23.85a2.92,2.92,0,0,0-1.08-.19,2.73,2.73,0,0,0-2.39,1.67V104h-1Z" transform="translate(-23.04 -7.32)"/><path class="cls-3" d="M134.51,102.45c0-1.3,1.22-1.94,4.23-2.18a1.38,1.38,0,0,0-1.54-1.46,4.1,4.1,0,0,0-2,.69l-.4-.67a5.17,5.17,0,0,1,2.61-.84,2.17,2.17,0,0,1,2.37,2.4V104h-.83l-.08-.79h0a3.86,3.86,0,0,1-2.29.94A1.77,1.77,0,0,1,134.51,102.45Zm4.23,0v-1.51c-2.49.19-3.25.68-3.25,1.45s.6.92,1.28.92A3.16,3.16,0,0,0,138.74,102.44Z" transform="translate(-23.04 -7.32)"/><path class="cls-3" d="M141.71,101.06A3,3,0,0,1,145,98a3,3,0,0,1,2.12.85l-.49.64a2.39,2.39,0,0,0-1.59-.66,2.14,2.14,0,0,0-2.27,2.24,2.12,2.12,0,0,0,2.24,2.22,2.76,2.76,0,0,0,1.8-.73l.45.65a3.5,3.5,0,0,1-2.32.91A2.94,2.94,0,0,1,141.71,101.06Z" transform="translate(-23.04 -7.32)"/><path class="cls-3" d="M150.42,101.7V98.94h-1.65V98.2l1.69-.06.13-1.88h.83v1.88h2.85v.8h-2.85v2.77c0,1,.34,1.58,1.47,1.58a4,4,0,0,0,1.39-.26l.22.73a5.12,5.12,0,0,1-1.82.35C151,104.11,150.42,103.14,150.42,101.7Z" transform="translate(-23.04 -7.32)"/><path class="cls-3" d="M156,101a2.93,2.93,0,0,1,3-3.05,2.51,2.51,0,0,1,2.66,2.74,5,5,0,0,1,0,.6h-4.93v-.77H161l-.25.27c0-1.38-.69-2.06-1.76-2.06a2.06,2.06,0,0,0-2,2.27,2.12,2.12,0,0,0,2.28,2.28,3.2,3.2,0,0,0,1.77-.55l.36.64a3.93,3.93,0,0,1-2.25.7A3,3,0,0,1,156,101Z" transform="translate(-23.04 -7.32)"/><path class="cls-3" d="M164.09,98.14h.83l.09,1.37h0a3.08,3.08,0,0,1,2.6-1.52,2.45,2.45,0,0,1,1.15.24l-.23.85a2.92,2.92,0,0,0-1.08-.19,2.73,2.73,0,0,0-2.39,1.67V104h-1Z" transform="translate(-23.04 -7.32)"/><path class="cls-3" d="M179.25,100.63a6.65,6.65,0,0,1,2.68-5.44l.55.5a6.37,6.37,0,0,0,0,9.88l-.55.51A6.69,6.69,0,0,1,179.25,100.63Z" transform="translate(-23.04 -7.32)"/><path class="cls-3" d="M187,96.1h1.15l2.66,7.86H189.7l-1.36-4.39c-.28-.87-.54-1.73-.78-2.65h-.05c-.25.92-.5,1.78-.78,2.65L185.35,104h-1Zm-1.24,4.66h3.61v.82h-3.61Z" transform="translate(-23.04 -7.32)"/><path class="cls-3" d="M191.75,98.14h1l1.34,3.29c.23.59.45,1.17.65,1.73h.05c.2-.56.39-1.14.63-1.73l1.35-3.29h1L195.32,104h-1.11Z" transform="translate(-23.04 -7.32)"/><path class="cls-3" d="M199.17,101a2.93,2.93,0,0,1,3-3.05,2.51,2.51,0,0,1,2.66,2.74,3.45,3.45,0,0,1-.05.6h-4.92v-.77h4.34l-.25.27c0-1.38-.69-2.06-1.76-2.06a2.05,2.05,0,0,0-2,2.27,2.12,2.12,0,0,0,2.28,2.28,3.2,3.2,0,0,0,1.77-.55l.36.64a3.93,3.93,0,0,1-2.25.7A3,3,0,0,1,199.17,101Z" transform="translate(-23.04 -7.32)"/><path class="cls-3" d="M206.4,103.2l.46-.66a4.15,4.15,0,0,0,2.53.79c1,0,1.46-.41,1.46-.9s-.23-.76-1.81-1.08-2.28-.83-2.28-1.7.83-1.66,2.42-1.66a4.32,4.32,0,0,1,2.35.75l-.47.63a3.48,3.48,0,0,0-2-.61c-1,0-1.34.39-1.34.84s.5.72,1.7,1c1.93.42,2.4.9,2.4,1.8s-.92,1.74-2.59,1.74A5.15,5.15,0,0,1,206.4,103.2Z" transform="translate(-23.04 -7.32)"/><path class="cls-3" d="M214.21,105.57a6.37,6.37,0,0,0,0-9.88l.55-.5a6.86,6.86,0,0,1,0,10.89Z" transform="translate(-23.04 -7.32)"/><path class="cls-3" d="M41,114h5.16v.75H41Z" transform="translate(-23.04 -7.32)"/><path class="cls-3" d="M54.93,114.39c0-2.54,1.25-4,3-4s3,1.5,3,4-1.24,4.12-3,4.12S54.93,117,54.93,114.39Zm5,0c0-2-.79-3.15-2-3.15s-2,1.18-2,3.15.79,3.23,2,3.23S59.93,116.41,59.93,114.39Z" transform="translate(-23.04 -7.32)"/><path class="cls-3" d="M63.29,112.54h.83l.1,1.37h0a3.08,3.08,0,0,1,2.6-1.52,2.45,2.45,0,0,1,1.15.24l-.23.85a2.9,2.9,0,0,0-1.07-.19,2.72,2.72,0,0,0-2.4,1.67v3.4h-1Z" transform="translate(-23.04 -7.32)"/><path class="cls-3" d="M69.47,115.46a2.81,2.81,0,0,1,2.64-3.07,2.48,2.48,0,0,1,1.75.75h0l0-1.07v-2.25h1v8.54H74l-.09-.76h0a2.82,2.82,0,0,1-1.91.91C70.48,118.51,69.47,117.4,69.47,115.46Zm4.37,1.35V113.9a2.17,2.17,0,0,0-1.53-.67,2,2,0,0,0-1.82,2.22c0,1.39.65,2.22,1.72,2.22A2.23,2.23,0,0,0,73.84,116.81Z" transform="translate(-23.04 -7.32)"/><path class="cls-3" d="M76.77,115.44a2.93,2.93,0,0,1,3-3,2.51,2.51,0,0,1,2.67,2.74,4.83,4.83,0,0,1,0,.6H77.43V115h4.34l-.25.27c0-1.37-.69-2.06-1.75-2.06a2.06,2.06,0,0,0-2,2.27A2.12,2.12,0,0,0,80,117.72a3.23,3.23,0,0,0,1.78-.55l.35.64a3.91,3.91,0,0,1-2.25.7A3,3,0,0,1,76.77,115.44Z" transform="translate(-23.04 -7.32)"/><path class="cls-3" d="M84.89,112.54h.83l.09,1.37h0a3.08,3.08,0,0,1,2.6-1.52,2.45,2.45,0,0,1,1.15.24l-.23.85a2.9,2.9,0,0,0-1.07-.19,2.72,2.72,0,0,0-2.4,1.67v3.4h-1Z" transform="translate(-23.04 -7.32)"/><path class="cls-3" d="M93,113.2a1,1,0,1,1,1.94,0,1,1,0,1,1-1.94,0Zm0,4.29a1,1,0,1,1,1,1A1,1,0,0,1,93,117.49Z" transform="translate(-23.04 -7.32)"/><path class="cls-3" d="M105.71,115.46a3,3,0,0,1,3.25-3.07,3,3,0,0,1,2.12.85l-.49.64a2.39,2.39,0,0,0-1.59-.66,2.14,2.14,0,0,0-2.27,2.24,2.12,2.12,0,0,0,2.24,2.22,2.76,2.76,0,0,0,1.8-.73l.45.65a3.5,3.5,0,0,1-2.32.91A2.94,2.94,0,0,1,105.71,115.46Z" transform="translate(-23.04 -7.32)"/><path class="cls-3" d="M113.07,109.82h1v2.33l-.06,1.38h0a2.92,2.92,0,0,1,2.17-1.14c1.38,0,2,.82,2,2.35v3.62h-1v-3.49c0-1.1-.38-1.62-1.33-1.62-.7,0-1.17.35-1.84,1v4.06h-1Z" transform="translate(-23.04 -7.32)"/><path class="cls-3" d="M120.11,116.85c0-1.3,1.22-1.94,4.24-2.18a1.39,1.39,0,0,0-1.55-1.46,4.1,4.1,0,0,0-2,.69l-.4-.67a5.17,5.17,0,0,1,2.61-.84,2.17,2.17,0,0,1,2.37,2.4v3.57h-.83l-.08-.79h0a3.86,3.86,0,0,1-2.29.94A1.77,1.77,0,0,1,120.11,116.85Zm4.24,0v-1.51c-2.5.19-3.25.68-3.25,1.45s.6.92,1.27.92A3.2,3.2,0,0,0,124.35,116.84Z" transform="translate(-23.04 -7.32)"/><path class="cls-3" d="M128.09,112.54h.83l.09,1.37h0a3.08,3.08,0,0,1,2.6-1.52,2.45,2.45,0,0,1,1.15.24l-.23.85a2.92,2.92,0,0,0-1.08-.19,2.71,2.71,0,0,0-2.39,1.67v3.4h-1Z" transform="translate(-23.04 -7.32)"/><path class="cls-3" d="M134.51,116.85c0-1.3,1.22-1.94,4.23-2.18a1.38,1.38,0,0,0-1.54-1.46,4.1,4.1,0,0,0-2,.69l-.4-.67a5.17,5.17,0,0,1,2.61-.84,2.17,2.17,0,0,1,2.37,2.4v3.57h-.83l-.08-.79h0a3.86,3.86,0,0,1-2.29.94A1.77,1.77,0,0,1,134.51,116.85Zm4.23,0v-1.51c-2.49.19-3.25.68-3.25,1.45s.6.92,1.28.92A3.16,3.16,0,0,0,138.74,116.84Z" transform="translate(-23.04 -7.32)"/><path class="cls-3" d="M141.71,115.46a3,3,0,0,1,3.25-3.07,3,3,0,0,1,2.12.85l-.49.64a2.39,2.39,0,0,0-1.59-.66,2.14,2.14,0,0,0-2.27,2.24,2.12,2.12,0,0,0,2.24,2.22,2.76,2.76,0,0,0,1.8-.73l.45.65a3.5,3.5,0,0,1-2.32.91A2.94,2.94,0,0,1,141.71,115.46Z" transform="translate(-23.04 -7.32)"/><path class="cls-3" d="M150.42,116.1v-2.76h-1.65v-.74l1.69-.06.13-1.88h.83v1.88h2.85v.8h-2.85v2.77c0,1,.34,1.58,1.47,1.58a4,4,0,0,0,1.39-.26l.22.73a5.12,5.12,0,0,1-1.82.35C151,118.51,150.42,117.54,150.42,116.1Z" transform="translate(-23.04 -7.32)"/><path class="cls-3" d="M156,115.44a2.93,2.93,0,0,1,3-3,2.51,2.51,0,0,1,2.66,2.74,5,5,0,0,1,0,.6h-4.93V115H161l-.25.27c0-1.37-.69-2.06-1.76-2.06a2.06,2.06,0,0,0-2,2.27,2.12,2.12,0,0,0,2.28,2.28,3.2,3.2,0,0,0,1.77-.55l.36.64a3.93,3.93,0,0,1-2.25.7A3,3,0,0,1,156,115.44Z" transform="translate(-23.04 -7.32)"/><path class="cls-3" d="M164.09,112.54h.83l.09,1.37h0a3.08,3.08,0,0,1,2.6-1.52,2.45,2.45,0,0,1,1.15.24l-.23.85a2.92,2.92,0,0,0-1.08-.19,2.71,2.71,0,0,0-2.39,1.67v3.4h-1Z" transform="translate(-23.04 -7.32)"/><path class="cls-3" d="M41,128.43h5.16v.75H41Z" transform="translate(-23.04 -7.32)"/><path class="cls-3" d="M56,124.9h4.83v.85H57v2.65h3.23v.85H57v3.51H56Z" transform="translate(-23.04 -7.32)"/><path class="cls-3" d="M62.51,131.25c0-1.3,1.23-1.94,4.24-2.18a1.39,1.39,0,0,0-1.55-1.46,4.1,4.1,0,0,0-2,.69l-.4-.67a5.17,5.17,0,0,1,2.61-.84,2.17,2.17,0,0,1,2.37,2.4v3.57h-.83l-.08-.79h0a3.86,3.86,0,0,1-2.29.94A1.77,1.77,0,0,1,62.51,131.25Zm4.24,0v-1.51c-2.5.19-3.25.68-3.25,1.45s.6.92,1.27.92A3.2,3.2,0,0,0,66.75,131.24Z" transform="translate(-23.04 -7.32)"/><path class="cls-3" d="M69.45,126.94h.79l.08.76h0a1.45,1.45,0,0,1,1.33-.91c.57,0,.93.34,1.1,1,.34-.62.7-1,1.37-1s1.3.64,1.3,1.8v4.17h-1v-4.1c0-.67-.19-1-.62-1s-.63.3-.94.9v4.22H72v-4.1c0-.67-.17-1-.6-1s-.67.3-1,.9v4.22h-1Z" transform="translate(-23.04 -7.32)"/><path class="cls-3" d="M79.73,127.74H77v-.8h3.7v5.82h-1Zm-.4-2.8a.8.8,0,1,1,.8.77A.75.75,0,0,1,79.33,124.94Z" transform="translate(-23.04 -7.32)"/><path class="cls-3" d="M86.1,130.81V125H84v-.8H87.1v6.65a1,1,0,0,0,1.15,1.2,2.58,2.58,0,0,0,1.09-.26l.25.74a3.5,3.5,0,0,1-1.56.35C86.79,132.91,86.1,132.19,86.1,130.81Z" transform="translate(-23.04 -7.32)"/><path class="cls-3" d="M91.16,135.15l.2-.79a1.84,1.84,0,0,0,.53.08,1.68,1.68,0,0,0,1.59-1.23l.17-.43-2.71-5.84h1l1.41,3.21c.23.52.48,1.13.72,1.69h0c.2-.55.43-1.16.62-1.69L96,126.94h1l-2.58,6.3a2.6,2.6,0,0,1-2.47,2A2.47,2.47,0,0,1,91.16,135.15Z" transform="translate(-23.04 -7.32)"/><path class="cls-3" d="M100.18,127.6a1,1,0,1,1,1.94,0,1,1,0,1,1-1.94,0Zm0,4.29a1,1,0,1,1,1,1A1,1,0,0,1,100.18,131.89Z" transform="translate(-23.04 -7.32)"/><path class="cls-3" d="M112.91,129.86a3,3,0,0,1,3.25-3.07,3,3,0,0,1,2.12.85l-.49.64a2.39,2.39,0,0,0-1.59-.66,2.14,2.14,0,0,0-2.27,2.24,2.12,2.12,0,0,0,2.24,2.22,2.76,2.76,0,0,0,1.8-.73l.45.65a3.5,3.5,0,0,1-2.32.91A2.94,2.94,0,0,1,112.91,129.86Z" transform="translate(-23.04 -7.32)"/><path class="cls-3" d="M120.27,124.23h1v2.32l-.06,1.38h0a2.92,2.92,0,0,1,2.17-1.14c1.38,0,2,.82,2,2.35v3.62h-1v-3.49c0-1.1-.38-1.62-1.33-1.62-.7,0-1.17.35-1.84,1v4.06h-1Z" transform="translate(-23.04 -7.32)"/><path class="cls-3" d="M127.31,131.25c0-1.3,1.22-1.94,4.23-2.18a1.38,1.38,0,0,0-1.54-1.46,4.1,4.1,0,0,0-2,.69l-.4-.67a5.17,5.17,0,0,1,2.6-.84,2.17,2.17,0,0,1,2.38,2.4v3.57h-.83l-.08-.79h0a3.86,3.86,0,0,1-2.29.94A1.77,1.77,0,0,1,127.31,131.25Zm4.23,0v-1.51c-2.49.19-3.25.68-3.25,1.45s.6.92,1.28.92A3.16,3.16,0,0,0,131.54,131.24Z" transform="translate(-23.04 -7.32)"/><path class="cls-3" d="M135.29,126.94h.83l.09,1.37h0a3.08,3.08,0,0,1,2.6-1.52A2.45,2.45,0,0,1,140,127l-.23.85a2.92,2.92,0,0,0-1.08-.19,2.71,2.71,0,0,0-2.39,1.67v3.4h-1Z" transform="translate(-23.04 -7.32)"/><path class="cls-3" d="M141.71,131.25c0-1.3,1.22-1.94,4.24-2.18a1.39,1.39,0,0,0-1.55-1.46,4.1,4.1,0,0,0-2,.69l-.4-.67a5.17,5.17,0,0,1,2.61-.84,2.17,2.17,0,0,1,2.37,2.4v3.57h-.83L146,132h0a3.86,3.86,0,0,1-2.29.94A1.77,1.77,0,0,1,141.71,131.25Zm4.24,0v-1.51c-2.5.19-3.25.68-3.25,1.45s.59.92,1.27.92A3.2,3.2,0,0,0,146,131.24Z" transform="translate(-23.04 -7.32)"/><path class="cls-3" d="M148.91,129.86a3,3,0,0,1,3.25-3.07,3,3,0,0,1,2.12.85l-.49.64a2.39,2.39,0,0,0-1.59-.66,2.14,2.14,0,0,0-2.27,2.24,2.12,2.12,0,0,0,2.24,2.22,2.76,2.76,0,0,0,1.8-.73l.45.65a3.52,3.52,0,0,1-2.32.91A2.94,2.94,0,0,1,148.91,129.86Z" transform="translate(-23.04 -7.32)"/><path class="cls-3" d="M157.62,130.5v-2.76H156V127l1.69-.06.13-1.88h.83v1.88h2.85v.8h-2.85v2.77c0,1,.34,1.58,1.47,1.58a4,4,0,0,0,1.39-.26l.22.73a5.12,5.12,0,0,1-1.82.35C158.17,132.91,157.62,131.94,157.62,130.5Z" transform="translate(-23.04 -7.32)"/><path class="cls-3" d="M163.17,129.84a2.93,2.93,0,0,1,3-3,2.51,2.51,0,0,1,2.66,2.74,5,5,0,0,1,0,.6h-4.93v-.77h4.34l-.25.27c0-1.38-.69-2.06-1.76-2.06a2.06,2.06,0,0,0-2,2.27,2.12,2.12,0,0,0,2.28,2.28,3.13,3.13,0,0,0,1.77-.56l.36.65a3.93,3.93,0,0,1-2.25.7A3,3,0,0,1,163.17,129.84Z" transform="translate(-23.04 -7.32)"/><path class="cls-3" d="M171.29,126.94h.83l.09,1.37h0a3.08,3.08,0,0,1,2.6-1.52A2.45,2.45,0,0,1,176,127l-.23.85a2.92,2.92,0,0,0-1.08-.19,2.74,2.74,0,0,0-2.4,1.67v3.4h-1Z" transform="translate(-23.04 -7.32)"/><path class="cls-3" d="M41,142.83h5.16v.75H41Z" transform="translate(-23.04 -7.32)"/><path class="cls-3" d="M55,143.23c0-2.54,1.45-4.08,3.49-4.08a2.88,2.88,0,0,1,2.17,1l-.58.64a2,2,0,0,0-1.59-.71C57,140,56,141.25,56,143.21s.88,3.21,2.41,3.21a2,2,0,0,0,1.36-.46v-2.05H58.25v-.82h2.5v3.31a3.36,3.36,0,0,1-2.36.91C56.42,147.31,55,145.8,55,143.23Z" transform="translate(-23.04 -7.32)"/><path class="cls-3" d="M62.37,144.24a2.93,2.93,0,0,1,3-3.05A2.51,2.51,0,0,1,68,143.93a4.83,4.83,0,0,1-.05.6H63v-.77h4.34l-.25.27c0-1.38-.69-2.06-1.75-2.06a2.06,2.06,0,0,0-2,2.27,2.12,2.12,0,0,0,2.28,2.28,3.16,3.16,0,0,0,1.78-.56l.35.65a3.91,3.91,0,0,1-2.25.7A3,3,0,0,1,62.37,144.24Z" transform="translate(-23.04 -7.32)"/><path class="cls-3" d="M69.87,141.34h.81l.09,1h0A3,3,0,0,1,73,141.19c1.38,0,2,.82,2,2.35v3.62H74v-3.49c0-1.1-.38-1.62-1.33-1.62-.7,0-1.17.35-1.84,1v4.06h-1Z" transform="translate(-23.04 -7.32)"/><path class="cls-3" d="M76.88,145v-3.62h1v3.49c0,1.09.39,1.61,1.34,1.61A2.32,2.32,0,0,0,81,145.38v-4h1v5.82h-.83l-.08-1h0a2.83,2.83,0,0,1-2.17,1.17C77.51,147.31,76.88,146.49,76.88,145Z" transform="translate(-23.04 -7.32)"/><path class="cls-3" d="M84,146.4l.46-.66a4.15,4.15,0,0,0,2.53.79c1,0,1.46-.41,1.46-.9s-.22-.76-1.81-1.08-2.28-.83-2.28-1.7.83-1.66,2.43-1.66a4.37,4.37,0,0,1,2.35.75l-.48.63a3.45,3.45,0,0,0-2-.61c-1,0-1.34.39-1.34.84s.5.72,1.7,1c1.93.42,2.4.9,2.4,1.8s-.92,1.74-2.59,1.74A5.15,5.15,0,0,1,84,146.4Z" transform="translate(-23.04 -7.32)"/><path class="cls-3" d="M93,142a1,1,0,1,1,1.94,0A1,1,0,1,1,93,142Zm0,4.29a1,1,0,1,1,1,1A1,1,0,0,1,93,146.29Z" transform="translate(-23.04 -7.32)"/><path class="cls-3" d="M105.71,144.26a3,3,0,0,1,3.25-3.07,3,3,0,0,1,2.12.85l-.49.64A2.39,2.39,0,0,0,109,142a2.14,2.14,0,0,0-2.27,2.24,2.12,2.12,0,0,0,2.24,2.22,2.76,2.76,0,0,0,1.8-.73l.45.65a3.5,3.5,0,0,1-2.32.91A2.94,2.94,0,0,1,105.71,144.26Z" transform="translate(-23.04 -7.32)"/><path class="cls-3" d="M113.07,138.62h1V141l-.06,1.38h0a2.92,2.92,0,0,1,2.17-1.14c1.38,0,2,.82,2,2.35v3.62h-1v-3.49c0-1.1-.38-1.62-1.33-1.62-.7,0-1.17.35-1.84,1v4.06h-1Z" transform="translate(-23.04 -7.32)"/><path class="cls-3" d="M120.11,145.65c0-1.3,1.22-1.94,4.24-2.18A1.39,1.39,0,0,0,122.8,142a4.1,4.1,0,0,0-2,.69l-.4-.67a5.17,5.17,0,0,1,2.61-.84,2.17,2.17,0,0,1,2.37,2.4v3.57h-.83l-.08-.79h0a3.86,3.86,0,0,1-2.29.94A1.77,1.77,0,0,1,120.11,145.65Zm4.24,0v-1.51c-2.5.19-3.25.68-3.25,1.45s.6.92,1.27.92A3.2,3.2,0,0,0,124.35,145.64Z" transform="translate(-23.04 -7.32)"/><path class="cls-3" d="M128.09,141.34h.83l.09,1.37h0a3.08,3.08,0,0,1,2.6-1.52,2.45,2.45,0,0,1,1.15.24l-.23.85a2.92,2.92,0,0,0-1.08-.19,2.71,2.71,0,0,0-2.39,1.67v3.4h-1Z" transform="translate(-23.04 -7.32)"/><path class="cls-3" d="M134.51,145.65c0-1.3,1.22-1.94,4.23-2.18A1.38,1.38,0,0,0,137.2,142a4.1,4.1,0,0,0-2,.69l-.4-.67a5.17,5.17,0,0,1,2.61-.84,2.17,2.17,0,0,1,2.37,2.4v3.57h-.83l-.08-.79h0a3.86,3.86,0,0,1-2.29.94A1.77,1.77,0,0,1,134.51,145.65Zm4.23,0v-1.51c-2.49.19-3.25.68-3.25,1.45s.6.92,1.28.92A3.16,3.16,0,0,0,138.74,145.64Z" transform="translate(-23.04 -7.32)"/><path class="cls-3" d="M141.71,144.26a3,3,0,0,1,3.25-3.07,3,3,0,0,1,2.12.85l-.49.64A2.39,2.39,0,0,0,145,142a2.14,2.14,0,0,0-2.27,2.24,2.12,2.12,0,0,0,2.24,2.22,2.76,2.76,0,0,0,1.8-.73l.45.65a3.5,3.5,0,0,1-2.32.91A2.94,2.94,0,0,1,141.71,144.26Z" transform="translate(-23.04 -7.32)"/><path class="cls-3" d="M150.42,144.9v-2.76h-1.65v-.74l1.69-.06.13-1.88h.83v1.88h2.85v.8h-2.85v2.77c0,1,.34,1.58,1.47,1.58a4,4,0,0,0,1.39-.26l.22.73a5.12,5.12,0,0,1-1.82.35C151,147.31,150.42,146.34,150.42,144.9Z" transform="translate(-23.04 -7.32)"/><path class="cls-3" d="M156,144.24a2.93,2.93,0,0,1,3-3.05,2.51,2.51,0,0,1,2.66,2.74,5,5,0,0,1,0,.6h-4.93v-.77H161l-.25.27c0-1.38-.69-2.06-1.76-2.06a2.06,2.06,0,0,0-2,2.27,2.12,2.12,0,0,0,2.28,2.28A3.13,3.13,0,0,0,161,146l.36.65a3.93,3.93,0,0,1-2.25.7A3,3,0,0,1,156,144.24Z" transform="translate(-23.04 -7.32)"/><path class="cls-3" d="M164.09,141.34h.83l.09,1.37h0a3.08,3.08,0,0,1,2.6-1.52,2.45,2.45,0,0,1,1.15.24l-.23.85a2.92,2.92,0,0,0-1.08-.19,2.71,2.71,0,0,0-2.39,1.67v3.4h-1Z" transform="translate(-23.04 -7.32)"/><path class="cls-3" d="M41,157.23h5.16V158H41Z" transform="translate(-23.04 -7.32)"/><path class="cls-3" d="M55.16,160.54l.6-.69a3.29,3.29,0,0,0,2.3,1c1.08,0,1.7-.52,1.7-1.23s-.61-1.08-1.4-1.42l-1.14-.5a2.26,2.26,0,0,1-1.69-2c0-1.2,1.08-2.09,2.58-2.09a3.46,3.46,0,0,1,2.42,1l-.53.65a2.77,2.77,0,0,0-1.93-.73c-.91,0-1.52.43-1.52,1.14s.73,1,1.4,1.29l1.1.5c1,.38,1.74.93,1.74,2.1s-1,2.24-2.78,2.24A4,4,0,0,1,55.16,160.54Z" transform="translate(-23.04 -7.32)"/><path class="cls-3" d="M62.67,155.74h.81l.09.74h0a3.08,3.08,0,0,1,2-.89c1.57,0,2.41,1.16,2.41,3,0,2-1.25,3.14-2.65,3.14a2.78,2.78,0,0,1-1.74-.76h0l0,1.11v2h-1ZM67,158.57c0-1.29-.48-2.14-1.64-2.14a2.48,2.48,0,0,0-1.71.86v2.91a2.44,2.44,0,0,0,1.55.67C66.24,160.87,67,160,67,158.57Z" transform="translate(-23.04 -7.32)"/><path class="cls-3" d="M69.57,158.64a2.93,2.93,0,0,1,3-3,2.51,2.51,0,0,1,2.67,2.74,4.83,4.83,0,0,1,0,.6H70.23v-.77h4.34l-.25.27c0-1.38-.69-2.06-1.75-2.06a2.06,2.06,0,0,0-2,2.27,2.12,2.12,0,0,0,2.28,2.28,3.16,3.16,0,0,0,1.78-.56L75,161a4,4,0,0,1-2.26.7A3,3,0,0,1,69.57,158.64Z" transform="translate(-23.04 -7.32)"/><path class="cls-3" d="M76.91,158.66a3,3,0,0,1,3.25-3.07,3,3,0,0,1,2.12.85l-.49.64a2.39,2.39,0,0,0-1.59-.66,2.14,2.14,0,0,0-2.27,2.24,2.12,2.12,0,0,0,2.24,2.22,2.76,2.76,0,0,0,1.8-.73l.45.65a3.5,3.5,0,0,1-2.32.91A2.94,2.94,0,0,1,76.91,158.66Z" transform="translate(-23.04 -7.32)"/><path class="cls-3" d="M86.93,156.54h-2.7v-.8h3.7v5.82h-1Zm-.4-2.8a.8.8,0,1,1,.8.77A.75.75,0,0,1,86.53,153.74Z" transform="translate(-23.04 -7.32)"/><path class="cls-3" d="M91.17,158.64a2.93,2.93,0,0,1,3-3,2.51,2.51,0,0,1,2.66,2.74,5,5,0,0,1,0,.6H91.83v-.77h4.34l-.25.27c0-1.38-.69-2.06-1.75-2.06a2.06,2.06,0,0,0-2,2.27,2.12,2.12,0,0,0,2.28,2.28,3.1,3.1,0,0,0,1.77-.56l.36.65a3.91,3.91,0,0,1-2.25.7A3,3,0,0,1,91.17,158.64Z" transform="translate(-23.04 -7.32)"/><path class="cls-3" d="M98.4,160.8l.46-.66a4.15,4.15,0,0,0,2.53.79c1,0,1.46-.41,1.46-.9s-.22-.76-1.81-1.08-2.28-.83-2.28-1.7.83-1.66,2.43-1.66a4.37,4.37,0,0,1,2.35.75l-.48.63a3.45,3.45,0,0,0-2-.61c-1,0-1.34.39-1.34.84s.5.72,1.7,1c1.93.42,2.4.9,2.4,1.8s-.92,1.74-2.59,1.74A5.15,5.15,0,0,1,98.4,160.8Z" transform="translate(-23.04 -7.32)"/><path class="cls-3" d="M107.38,156.4a1,1,0,1,1,1,1A1,1,0,0,1,107.38,156.4Zm0,4.29a1,1,0,1,1,1,1A1,1,0,0,1,107.38,160.69Z" transform="translate(-23.04 -7.32)"/><path class="cls-3" d="M120.11,158.66a3,3,0,0,1,3.25-3.07,3,3,0,0,1,2.12.85l-.49.64a2.39,2.39,0,0,0-1.59-.66,2.14,2.14,0,0,0-2.27,2.24,2.12,2.12,0,0,0,2.24,2.22,2.76,2.76,0,0,0,1.8-.73l.45.65a3.5,3.5,0,0,1-2.32.91A2.94,2.94,0,0,1,120.11,158.66Z" transform="translate(-23.04 -7.32)"/><path class="cls-3" d="M127.47,153h1v2.33l-.06,1.38h0a2.92,2.92,0,0,1,2.17-1.14c1.38,0,2,.82,2,2.35v3.62h-1v-3.49c0-1.1-.39-1.62-1.33-1.62-.7,0-1.17.35-1.84,1.05v4.06h-1Z" transform="translate(-23.04 -7.32)"/><path class="cls-3" d="M134.51,160.05c0-1.3,1.22-1.94,4.23-2.18a1.38,1.38,0,0,0-1.54-1.46,4.1,4.1,0,0,0-2,.69l-.4-.67a5.17,5.17,0,0,1,2.61-.84,2.17,2.17,0,0,1,2.37,2.4v3.57h-.83l-.08-.79h0a3.86,3.86,0,0,1-2.29.94A1.77,1.77,0,0,1,134.51,160.05Zm4.23,0v-1.51c-2.49.19-3.25.68-3.25,1.45s.6.92,1.28.92A3.16,3.16,0,0,0,138.74,160Z" transform="translate(-23.04 -7.32)"/><path class="cls-3" d="M142.49,155.74h.83l.09,1.37h0a3.08,3.08,0,0,1,2.6-1.52,2.45,2.45,0,0,1,1.15.24l-.23.85a2.92,2.92,0,0,0-1.08-.19,2.71,2.71,0,0,0-2.39,1.67v3.4h-1Z" transform="translate(-23.04 -7.32)"/><path class="cls-3" d="M148.91,160.05c0-1.3,1.22-1.94,4.23-2.18a1.38,1.38,0,0,0-1.54-1.46,4.1,4.1,0,0,0-2,.69l-.4-.67a5.17,5.17,0,0,1,2.6-.84,2.17,2.17,0,0,1,2.38,2.4v3.57h-.83l-.08-.79h0a3.86,3.86,0,0,1-2.29.94A1.77,1.77,0,0,1,148.91,160.05Zm4.23,0v-1.51c-2.49.19-3.25.68-3.25,1.45s.6.92,1.27.92A3.18,3.18,0,0,0,153.14,160Z" transform="translate(-23.04 -7.32)"/><path class="cls-3" d="M156.11,158.66a3,3,0,0,1,3.25-3.07,3,3,0,0,1,2.12.85l-.49.64a2.39,2.39,0,0,0-1.59-.66,2.14,2.14,0,0,0-2.27,2.24,2.12,2.12,0,0,0,2.24,2.22,2.76,2.76,0,0,0,1.8-.73l.45.65a3.52,3.52,0,0,1-2.32.91A2.94,2.94,0,0,1,156.11,158.66Z" transform="translate(-23.04 -7.32)"/><path class="cls-3" d="M164.82,159.3v-2.76h-1.65v-.75l1.69,0,.13-1.88h.83v1.88h2.85v.8h-2.85v2.77c0,1,.34,1.58,1.47,1.58a4,4,0,0,0,1.39-.26l.22.73a5.12,5.12,0,0,1-1.82.35C165.37,161.71,164.82,160.74,164.82,159.3Z" transform="translate(-23.04 -7.32)"/><path class="cls-3" d="M170.37,158.64a2.93,2.93,0,0,1,3-3,2.51,2.51,0,0,1,2.66,2.74,3.45,3.45,0,0,1-.05.6H171v-.77h4.34l-.25.27c0-1.38-.69-2.06-1.76-2.06a2.05,2.05,0,0,0-2,2.27,2.12,2.12,0,0,0,2.28,2.28,3.13,3.13,0,0,0,1.77-.56l.36.65a3.93,3.93,0,0,1-2.25.7A3,3,0,0,1,170.37,158.64Z" transform="translate(-23.04 -7.32)"/><path class="cls-3" d="M178.49,155.74h.83l.09,1.37h0a3.08,3.08,0,0,1,2.6-1.52,2.45,2.45,0,0,1,1.15.24l-.23.85a2.92,2.92,0,0,0-1.08-.19,2.71,2.71,0,0,0-2.39,1.67v3.4h-1Z" transform="translate(-23.04 -7.32)"/><path class="cls-4" d="M41,171.63h5.16v.75H41Z" transform="translate(-23.04 -7.32)"/><path class="cls-4" d="M54.47,168.08H55.6l.58,4.95c.07.66.12,1,.15,1.82h0c.14-.78.23-1.16.38-1.81l.77-2.93h1l.74,2.93c.17.65.24,1,.39,1.81h0c.05-.78.08-1.16.15-1.81l.55-5h1.08L60.28,176H59l-.77-3.16c-.12-.48-.21-.94-.29-1.42h0c-.09.48-.16.94-.28,1.42L56.9,176H55.67Z" transform="translate(-23.04 -7.32)"/><path class="cls-4" d="M65.33,170.94h-2.7v-.8h3.7V176h-1Zm-.4-2.8a.8.8,0,1,1,.8.77A.75.75,0,0,1,64.93,168.14Z" transform="translate(-23.04 -7.32)"/><path class="cls-4" d="M69.87,170.14h.81l.09,1h0A3,3,0,0,1,73,170c1.38,0,2,.82,2,2.35V176H74v-3.49c0-1.1-.38-1.61-1.33-1.61a2.48,2.48,0,0,0-1.84,1V176h-1Z" transform="translate(-23.04 -7.32)"/><path class="cls-4" d="M76.82,177a1.59,1.59,0,0,1,1-1.29v-.05a1,1,0,0,1-.6-1,1.42,1.42,0,0,1,.69-1.09v0a1.88,1.88,0,0,1-.72-1.51A2.14,2.14,0,0,1,79.44,170a2.33,2.33,0,0,1,.87.15h2.41v.8H81.21a1.77,1.77,0,0,1,.49,1.17,2.05,2.05,0,0,1-2.26,2,2.39,2.39,0,0,1-1-.22.81.81,0,0,0-.46.67c0,.46.45.67,1.21.67h1.31c1.5,0,2.22.39,2.22,1.37s-1.26,2-3.24,2C77.8,178.65,76.82,178.06,76.82,177Zm5-.26c0-.55-.44-.71-1.33-.71H79.3a3,3,0,0,1-.89-.1c-.55.3-.74.64-.74,1,0,.61.66,1,1.9,1S81.77,177.37,81.77,176.77Zm-1-4.69a1.35,1.35,0,1,0-1.35,1.38A1.32,1.32,0,0,0,80.79,172.08Z" transform="translate(-23.04 -7.32)"/><path class="cls-4" d="M84,175.2l.46-.66a4.15,4.15,0,0,0,2.53.79c1,0,1.46-.41,1.46-.9s-.22-.76-1.81-1.08-2.28-.83-2.28-1.7.83-1.66,2.43-1.66a4.37,4.37,0,0,1,2.35.75l-.48.63a3.45,3.45,0,0,0-2-.61c-1,0-1.34.39-1.34.84s.5.72,1.7,1c1.93.42,2.4.9,2.4,1.8s-.92,1.74-2.59,1.74A5.15,5.15,0,0,1,84,175.2Z" transform="translate(-23.04 -7.32)"/><path class="cls-4" d="M93,170.8a1,1,0,1,1,1.94,0,1,1,0,1,1-1.94,0Zm0,4.29a1,1,0,1,1,1,1A1,1,0,0,1,93,175.09Z" transform="translate(-23.04 -7.32)"/><path class="cls-4" d="M108.53,170.94h-2.7v-.8h3.7V176h-1Zm-.4-2.8a.8.8,0,1,1,.8.77A.75.75,0,0,1,108.13,168.14Z" transform="translate(-23.04 -7.32)"/><path class="cls-4" d="M113.07,170.14h.81l.09,1h0a3,3,0,0,1,2.2-1.13c1.38,0,2,.82,2,2.35V176h-1v-3.49c0-1.1-.38-1.61-1.33-1.61a2.48,2.48,0,0,0-1.84,1V176h-1Z" transform="translate(-23.04 -7.32)"/><path class="cls-4" d="M121.62,173.7v-2.76H120v-.74l1.69-.06.13-1.88h.83v1.88h2.85v.8h-2.85v2.77c0,1,.35,1.58,1.47,1.58a3.91,3.91,0,0,0,1.39-.26l.22.73a5.12,5.12,0,0,1-1.82.35C122.17,176.11,121.62,175.14,121.62,173.7Z" transform="translate(-23.04 -7.32)"/><path class="cls-4" d="M127.17,173a2.93,2.93,0,0,1,3-3,2.51,2.51,0,0,1,2.66,2.74,5,5,0,0,1,0,.6h-4.93v-.77h4.34l-.25.27c0-1.38-.69-2.06-1.76-2.06a2.06,2.06,0,0,0-2,2.27,2.12,2.12,0,0,0,2.28,2.28,3.2,3.2,0,0,0,1.77-.55l.36.64a3.93,3.93,0,0,1-2.25.7A3,3,0,0,1,127.17,173Z" transform="translate(-23.04 -7.32)"/><path class="cls-4" d="M134.41,177a1.61,1.61,0,0,1,1-1.29v-.05a1.06,1.06,0,0,1-.59-1,1.42,1.42,0,0,1,.69-1.09v0a1.85,1.85,0,0,1-.72-1.51A2.14,2.14,0,0,1,137,170a2.33,2.33,0,0,1,.87.15h2.41v.8H138.8a1.73,1.73,0,0,1,.5,1.17,2.05,2.05,0,0,1-2.26,2,2.39,2.39,0,0,1-1-.22.81.81,0,0,0-.46.67c0,.46.45.67,1.21.67h1.31c1.5,0,2.22.39,2.22,1.37s-1.26,2-3.24,2C135.4,178.65,134.41,178.06,134.41,177Zm5-.26c0-.55-.45-.71-1.33-.71H136.9a3,3,0,0,1-.89-.1c-.55.3-.74.64-.74,1,0,.61.66,1,1.9,1S139.37,177.37,139.37,176.77Zm-1-4.69a1.34,1.34,0,1,0-1.34,1.38A1.32,1.32,0,0,0,138.38,172.08Z" transform="translate(-23.04 -7.32)"/><path class="cls-4" d="M141.57,173a2.93,2.93,0,0,1,3-3,2.51,2.51,0,0,1,2.66,2.74,5,5,0,0,1,0,.6h-4.93v-.77h4.34l-.25.27c0-1.38-.69-2.06-1.75-2.06a2.06,2.06,0,0,0-2,2.27,2.12,2.12,0,0,0,2.28,2.28,3.17,3.17,0,0,0,1.77-.55l.36.64a3.91,3.91,0,0,1-2.25.7A3,3,0,0,1,141.57,173Z" transform="translate(-23.04 -7.32)"/><path class="cls-4" d="M149.69,170.14h.83l.09,1.37h0a3.08,3.08,0,0,1,2.6-1.52,2.45,2.45,0,0,1,1.15.24l-.23.85a2.92,2.92,0,0,0-1.08-.19,2.73,2.73,0,0,0-2.39,1.67V176h-1Z" transform="translate(-23.04 -7.32)"/><path class="cls-4" d="M41,186h5.16v.75H41Z" transform="translate(-23.04 -7.32)"/><path class="cls-4" d="M55.13,186.43c0-2.53,1.48-4.08,3.53-4.08a3,3,0,0,1,2.16,1l-.58.64a2.11,2.11,0,0,0-1.58-.71c-1.5,0-2.48,1.21-2.48,3.17s1,3.21,2.48,3.21a2.26,2.26,0,0,0,1.76-.86l.58.61a3,3,0,0,1-2.44,1.14C56.62,190.51,55.13,189,55.13,186.43Z" transform="translate(-23.04 -7.32)"/><path class="cls-4" d="M64.5,188.41v-5.78H62.44v-.81H65.5v6.66a1,1,0,0,0,1.15,1.2,2.58,2.58,0,0,0,1.09-.26l.25.74a3.5,3.5,0,0,1-1.56.35C65.19,190.51,64.5,189.79,64.5,188.41Z" transform="translate(-23.04 -7.32)"/><path class="cls-4" d="M69.71,188.85c0-1.3,1.23-1.94,4.24-2.18a1.39,1.39,0,0,0-1.55-1.46,4.1,4.1,0,0,0-2,.69l-.4-.67a5.17,5.17,0,0,1,2.61-.84,2.17,2.17,0,0,1,2.37,2.4v3.57h-.83l-.08-.79h0a3.86,3.86,0,0,1-2.29.94A1.77,1.77,0,0,1,69.71,188.85Zm4.24,0v-1.51c-2.5.19-3.25.68-3.25,1.45s.6.92,1.27.92A3.2,3.2,0,0,0,74,188.84Z" transform="translate(-23.04 -7.32)"/><path class="cls-4" d="M76.05,184.54h1l.7,3.38c.11.55.19,1.05.26,1.6H78a12.65,12.65,0,0,1,.34-1.6l.71-3h1l.69,3a13.14,13.14,0,0,1,.36,1.6h.05c.1-.55.16-1.05.27-1.6l.69-3.38h.91l-1.24,5.82H80.53l-.67-2.78c-.09-.41-.19-1-.29-1.72h0c-.1.74-.2,1.31-.29,1.72l-.65,2.78H77.32Z" transform="translate(-23.04 -7.32)"/><path class="cls-4" d="M84,189.6l.46-.66a4.15,4.15,0,0,0,2.53.79c1,0,1.46-.41,1.46-.9s-.22-.76-1.81-1.08-2.28-.83-2.28-1.7.83-1.66,2.43-1.66a4.37,4.37,0,0,1,2.35.75l-.48.63a3.45,3.45,0,0,0-2-.61c-1,0-1.34.39-1.34.84s.5.72,1.7,1c1.93.42,2.4.9,2.4,1.8s-.92,1.74-2.59,1.74A5.15,5.15,0,0,1,84,189.6Z" transform="translate(-23.04 -7.32)"/><path class="cls-4" d="M93,185.2a1,1,0,1,1,1.94,0,1,1,0,1,1-1.94,0Zm0,4.29a1,1,0,1,1,1,1A1,1,0,0,1,93,189.49Z" transform="translate(-23.04 -7.32)"/><path class="cls-4" d="M107.7,188.41v-5.78h-2.06v-.81h3.06v6.66a1,1,0,0,0,1.15,1.2,2.65,2.65,0,0,0,1.09-.26l.25.74a3.5,3.5,0,0,1-1.56.35C108.39,190.51,107.7,189.79,107.7,188.41Z" transform="translate(-23.04 -7.32)"/><path class="cls-4" d="M112.67,187.46a2.88,2.88,0,1,1,2.88,3A2.86,2.86,0,0,1,112.67,187.46Zm4.74,0c0-1.34-.74-2.24-1.86-2.24s-1.86.9-1.86,2.24.74,2.22,1.86,2.22S117.41,188.79,117.41,187.46Z" transform="translate(-23.04 -7.32)"/><path class="cls-4" d="M120,191.43a1.59,1.59,0,0,1,1-1.29v0a1,1,0,0,1-.6-1,1.42,1.42,0,0,1,.69-1.09v0a1.88,1.88,0,0,1-.72-1.51,2.14,2.14,0,0,1,2.29-2.09,2.33,2.33,0,0,1,.87.15h2.41v.8h-1.51a1.77,1.77,0,0,1,.49,1.17,2.05,2.05,0,0,1-2.26,2,2.39,2.39,0,0,1-1-.22.81.81,0,0,0-.46.67c0,.46.45.67,1.21.67h1.31c1.5,0,2.22.39,2.22,1.37s-1.26,2-3.24,2C121,193.05,120,192.46,120,191.43Zm5-.26c0-.55-.44-.71-1.33-.71H122.5a3,3,0,0,1-.89-.1c-.55.3-.74.64-.74,1,0,.61.66,1,1.9,1S125,191.77,125,191.17Zm-1-4.69a1.35,1.35,0,1,0-1.35,1.38A1.32,1.32,0,0,0,124,186.48Z" transform="translate(-23.04 -7.32)"/><path class="cls-4" d="M130.13,185.34h-2.7v-.8h3.69v5.82h-1Zm-.4-2.8a.8.8,0,1,1,.8.77A.75.75,0,0,1,129.73,182.54Z" transform="translate(-23.04 -7.32)"/><path class="cls-4" d="M134.51,187.46a3,3,0,0,1,3.25-3.07,3,3,0,0,1,2.12.85l-.49.64a2.39,2.39,0,0,0-1.59-.66,2.14,2.14,0,0,0-2.27,2.24,2.12,2.12,0,0,0,2.24,2.22,2.76,2.76,0,0,0,1.8-.73l.45.65a3.5,3.5,0,0,1-2.32.91A2.94,2.94,0,0,1,134.51,187.46Z" transform="translate(-23.04 -7.32)"/><path class="cls-4" d="M141.71,188.85c0-1.3,1.22-1.94,4.24-2.18a1.39,1.39,0,0,0-1.55-1.46,4.1,4.1,0,0,0-2,.69l-.4-.67a5.17,5.17,0,0,1,2.61-.84,2.17,2.17,0,0,1,2.37,2.4v3.57h-.83l-.08-.79h0a3.86,3.86,0,0,1-2.29.94A1.77,1.77,0,0,1,141.71,188.85Zm4.24,0v-1.51c-2.5.19-3.25.68-3.25,1.45s.59.92,1.27.92A3.2,3.2,0,0,0,146,188.84Z" transform="translate(-23.04 -7.32)"/><path class="cls-4" d="M150.9,188.41v-5.78h-2.06v-.81h3.06v6.66a1,1,0,0,0,1.15,1.2,2.65,2.65,0,0,0,1.09-.26l.25.74a3.5,3.5,0,0,1-1.56.35C151.58,190.51,150.9,189.79,150.9,188.41Z" transform="translate(-23.04 -7.32)"/><rect class="cls-1" x="0.5" y="194.74" width="244.73" height="131.35"/><path class="cls-3" d="M43.53,218.77H41.34V218h2.19v-2.34h.79V218H46.5v.74H44.32v2.34h-.79Z" transform="translate(-23.04 -7.32)"/><path class="cls-3" d="M55.59,223.43a1.61,1.61,0,0,1,1-1.3v0a1,1,0,0,1-.6-1,1.42,1.42,0,0,1,.69-1.09V220a1.87,1.87,0,0,1-.72-1.51,2.14,2.14,0,0,1,2.3-2.08,2.28,2.28,0,0,1,.86.14h2.41v.8H60a1.79,1.79,0,0,1,.49,1.18,2,2,0,0,1-2.25,2,2.63,2.63,0,0,1-1-.21.78.78,0,0,0-.45.67c0,.45.44.67,1.21.67h1.3c1.5,0,2.22.38,2.22,1.37s-1.26,2-3.23,2C56.57,225.05,55.59,224.46,55.59,223.43Zm4.95-.27c0-.55-.44-.71-1.33-.71H58.07a3.48,3.48,0,0,1-.89-.09c-.55.3-.74.63-.74,1,0,.61.66,1,1.91,1S60.54,223.76,60.54,223.16Zm-1-4.69a1.35,1.35,0,1,0-1.34,1.38A1.31,1.31,0,0,0,59.56,218.47Z" transform="translate(-23.04 -7.32)"/><path class="cls-3" d="M62.74,219.43a2.93,2.93,0,0,1,3-3,2.51,2.51,0,0,1,2.67,2.73,4.66,4.66,0,0,1,0,.6H63.4V219h4.34l-.25.28c0-1.38-.68-2.06-1.75-2.06a2.05,2.05,0,0,0-2,2.26A2.12,2.12,0,0,0,66,221.71a3.15,3.15,0,0,0,1.78-.55l.36.65a4,4,0,0,1-2.26.69A3,3,0,0,1,62.74,219.43Z" transform="translate(-23.04 -7.32)"/><path class="cls-3" d="M71.6,220.09v-2.76H69.94v-.74l1.69-.06.13-1.87h.83v1.87h2.86v.8H72.59v2.77c0,1.05.35,1.59,1.48,1.59a3.74,3.74,0,0,0,1.39-.27l.21.73a4.87,4.87,0,0,1-1.82.35C72.15,222.5,71.6,221.53,71.6,220.09Z" transform="translate(-23.04 -7.32)"/><path class="cls-3" d="M77,223.19H82.8V224H77Z" transform="translate(-23.04 -7.32)"/><path class="cls-3" d="M84.64,216.53h.82l.08.74h0a3.14,3.14,0,0,1,2-.88c1.57,0,2.41,1.16,2.41,3,0,2-1.25,3.14-2.65,3.14a2.76,2.76,0,0,1-1.74-.75h0l0,1.1v2h-1ZM89,219.36c0-1.28-.48-2.13-1.64-2.13a2.44,2.44,0,0,0-1.7.86V221a2.42,2.42,0,0,0,1.54.67C88.21,221.66,89,220.8,89,219.36Z" transform="translate(-23.04 -7.32)"/><path class="cls-3" d="M91.84,213.82h1v2.33l-.06,1.38h0A2.92,2.92,0,0,1,95,216.39c1.38,0,2,.81,2,2.35v3.62H96v-3.49c0-1.1-.38-1.62-1.33-1.62-.7,0-1.16.35-1.83,1v4.07h-1Z" transform="translate(-23.04 -7.32)"/><path class="cls-3" d="M98.73,224.75l.2-.8a1.84,1.84,0,0,0,.53.09,1.68,1.68,0,0,0,1.59-1.24l.17-.43-2.71-5.84h1l1.41,3.21c.23.52.48,1.13.72,1.7h0l.63-1.7,1.25-3.21h1L102,222.84a2.62,2.62,0,0,1-2.47,2A2.49,2.49,0,0,1,98.73,224.75Z" transform="translate(-23.04 -7.32)"/><path class="cls-3" d="M108.07,220.4v-5.78H106v-.8h3.06v6.66a1.05,1.05,0,0,0,1.15,1.2,2.6,2.6,0,0,0,1.09-.27l.25.74a3.5,3.5,0,0,1-1.56.35C108.76,222.5,108.07,221.78,108.07,220.4Z" transform="translate(-23.04 -7.32)"/><path class="cls-3" d="M113.25,220.15v-3.62h1V220c0,1.09.39,1.62,1.35,1.62a2.31,2.31,0,0,0,1.81-1.07v-4h1v5.83h-.82l-.09-1h0a2.83,2.83,0,0,1-2.17,1.16C113.88,222.5,113.25,221.69,113.25,220.15Z" transform="translate(-23.04 -7.32)"/><path class="cls-3" d="M120.22,216.53H121l.09.77h0a1.45,1.45,0,0,1,1.33-.91c.58,0,.94.33,1.1,1,.34-.62.7-1,1.37-1s1.3.63,1.3,1.8v4.17h-1v-4.1c0-.67-.19-1-.62-1s-.62.3-.94.9v4.22h-.91v-4.1c0-.67-.17-1-.6-1s-.67.3-1,.9v4.22h-1Z" transform="translate(-23.04 -7.32)"/><path class="cls-3" d="M129.22,219a6.68,6.68,0,0,1,2.69-5.44l.55.5a6.38,6.38,0,0,0,0,9.89l-.55.5A6.68,6.68,0,0,1,129.22,219Z" transform="translate(-23.04 -7.32)"/><path class="cls-3" d="M135.39,224a6.38,6.38,0,0,0,0-9.89l.55-.5a6.87,6.87,0,0,1,0,10.89Z" transform="translate(-23.04 -7.32)"/><path class="cls-3" d="M43.29,233.17H41.1v-.74h2.19v-2.34h.79v2.34h2.18v.74H44.08v2.34h-.79Z" transform="translate(-23.04 -7.32)"/><path class="cls-3" d="M55.35,237.83a1.61,1.61,0,0,1,1-1.3v-.05a1.05,1.05,0,0,1-.6-1,1.42,1.42,0,0,1,.69-1.09v-.05a1.87,1.87,0,0,1-.72-1.51A2.14,2.14,0,0,1,58,230.79a2.3,2.3,0,0,1,.87.14h2.41v.8H59.74a1.79,1.79,0,0,1,.49,1.18,2,2,0,0,1-2.26,2,2.62,2.62,0,0,1-1-.21.78.78,0,0,0-.45.67c0,.45.44.67,1.21.67h1.3c1.5,0,2.22.38,2.22,1.37s-1.26,2-3.24,2C56.33,239.45,55.35,238.86,55.35,237.83Zm4.95-.27c0-.55-.44-.7-1.33-.7H57.83a3.41,3.41,0,0,1-.89-.1c-.55.3-.74.63-.74,1,0,.61.66,1,1.91,1S60.3,238.16,60.3,237.56Zm-1-4.69A1.35,1.35,0,1,0,58,234.25,1.32,1.32,0,0,0,59.32,232.87Z" transform="translate(-23.04 -7.32)"/><path class="cls-3" d="M62.5,233.83a2.93,2.93,0,0,1,3-3,2.51,2.51,0,0,1,2.67,2.73,4.66,4.66,0,0,1,0,.6H63.16v-.77H67.5l-.25.28c0-1.38-.68-2.06-1.75-2.06a2.05,2.05,0,0,0-2,2.26,2.12,2.12,0,0,0,2.28,2.28,3.15,3.15,0,0,0,1.78-.55l.36.65a4,4,0,0,1-2.26.69A3,3,0,0,1,62.5,233.83Z" transform="translate(-23.04 -7.32)"/><path class="cls-3" d="M71.36,234.49v-2.76H69.7V231l1.69-.06.13-1.87h.83v1.87H75.2v.8H72.35v2.77c0,1.05.35,1.59,1.48,1.59a3.74,3.74,0,0,0,1.39-.27l.21.73a4.87,4.87,0,0,1-1.82.35C71.91,236.9,71.36,235.93,71.36,234.49Z" transform="translate(-23.04 -7.32)"/><path class="cls-3" d="M76.8,237.59h5.76v.85H76.8Z" transform="translate(-23.04 -7.32)"/><path class="cls-3" d="M84.24,233.86a3,3,0,0,1,3.25-3.07,3,3,0,0,1,2.13.85l-.5.63a2.43,2.43,0,0,0-1.59-.66,2.15,2.15,0,0,0-2.27,2.25,2.12,2.12,0,0,0,2.25,2.22,2.74,2.74,0,0,0,1.79-.74l.45.65a3.45,3.45,0,0,1-2.32.91A2.94,2.94,0,0,1,84.24,233.86Z" transform="translate(-23.04 -7.32)"/><path class="cls-3" d="M93.43,234.8V229H91.37v-.8h3.06v6.66a1.05,1.05,0,0,0,1.15,1.2,2.6,2.6,0,0,0,1.09-.27l.25.74a3.46,3.46,0,0,1-1.55.35C94.12,236.9,93.43,236.18,93.43,234.8Z" transform="translate(-23.04 -7.32)"/><path class="cls-3" d="M98.64,235.25c0-1.31,1.23-1.95,4.24-2.19a1.39,1.39,0,0,0-1.55-1.46,4,4,0,0,0-2,.7l-.39-.67a5,5,0,0,1,2.6-.84,2.16,2.16,0,0,1,2.37,2.39v3.58H103L103,236h0a4,4,0,0,1-2.3.93A1.77,1.77,0,0,1,98.64,235.25Zm4.24,0v-1.52c-2.5.2-3.25.69-3.25,1.46s.6.92,1.27.92A3.18,3.18,0,0,0,102.88,235.24Z" transform="translate(-23.04 -7.32)"/><path class="cls-3" d="M105.74,236l.45-.66a4.15,4.15,0,0,0,2.53.79c1,0,1.46-.4,1.46-.9s-.22-.75-1.81-1.08-2.28-.82-2.28-1.7.83-1.65,2.43-1.65a4.34,4.34,0,0,1,2.35.74l-.48.64a3.39,3.39,0,0,0-2-.62c-1,0-1.34.4-1.34.84s.5.72,1.7,1c1.93.42,2.4.9,2.4,1.8s-.92,1.74-2.59,1.74A5.09,5.09,0,0,1,105.74,236Z" transform="translate(-23.04 -7.32)"/><path class="cls-3" d="M112.94,236l.45-.66a4.15,4.15,0,0,0,2.53.79c1,0,1.46-.4,1.46-.9s-.22-.75-1.81-1.08-2.28-.82-2.28-1.7.83-1.65,2.43-1.65a4.34,4.34,0,0,1,2.35.74l-.48.64a3.39,3.39,0,0,0-2-.62c-1,0-1.34.4-1.34.84s.5.72,1.7,1c1.93.42,2.4.9,2.4,1.8s-.92,1.74-2.59,1.74A5.09,5.09,0,0,1,112.94,236Z" transform="translate(-23.04 -7.32)"/><path class="cls-3" d="M121.78,233.42a6.66,6.66,0,0,1,2.69-5.44l.55.5a6.38,6.38,0,0,0,0,9.89l-.55.5A6.68,6.68,0,0,1,121.78,233.42Z" transform="translate(-23.04 -7.32)"/><path class="cls-3" d="M128,238.37a6.38,6.38,0,0,0,0-9.89l.55-.5a6.87,6.87,0,0,1,0,10.89Z" transform="translate(-23.04 -7.32)"/><path class="cls-3" d="M43.29,247.57H41.1v-.74h2.19v-2.34h.79v2.34h2.18v.74H44.08v2.34h-.79Z" transform="translate(-23.04 -7.32)"/><path class="cls-3" d="M55.35,252.23a1.61,1.61,0,0,1,1-1.3v-.05a1.05,1.05,0,0,1-.6-1,1.42,1.42,0,0,1,.69-1.09v-.05a1.87,1.87,0,0,1-.72-1.51A2.14,2.14,0,0,1,58,245.19a2.3,2.3,0,0,1,.87.14h2.41v.8H59.74a1.79,1.79,0,0,1,.49,1.18,2,2,0,0,1-2.26,2,2.62,2.62,0,0,1-1-.21.78.78,0,0,0-.45.67c0,.45.44.67,1.21.67h1.3c1.5,0,2.22.38,2.22,1.37s-1.26,2-3.24,2C56.33,253.85,55.35,253.26,55.35,252.23ZM60.3,252c0-.55-.44-.71-1.33-.71H57.83a3.44,3.44,0,0,1-.89-.09c-.55.3-.74.63-.74,1,0,.61.66,1,1.91,1S60.3,252.56,60.3,252Zm-1-4.69A1.35,1.35,0,1,0,58,248.65,1.32,1.32,0,0,0,59.32,247.27Z" transform="translate(-23.04 -7.32)"/><path class="cls-3" d="M62.5,248.23a2.93,2.93,0,0,1,3-3,2.51,2.51,0,0,1,2.67,2.73,4.66,4.66,0,0,1,0,.6H63.16v-.77H67.5l-.25.28c0-1.38-.68-2.06-1.75-2.06a2.05,2.05,0,0,0-2,2.26,2.12,2.12,0,0,0,2.28,2.28,3.15,3.15,0,0,0,1.78-.55l.36.65a4,4,0,0,1-2.26.69A3,3,0,0,1,62.5,248.23Z" transform="translate(-23.04 -7.32)"/><path class="cls-3" d="M71.36,248.89v-2.76H69.7v-.74l1.69-.06.13-1.87h.83v1.87H75.2v.8H72.35v2.77c0,1,.35,1.59,1.48,1.59a3.74,3.74,0,0,0,1.39-.27l.21.73a4.87,4.87,0,0,1-1.82.35C71.91,251.3,71.36,250.33,71.36,248.89Z" transform="translate(-23.04 -7.32)"/><path class="cls-3" d="M76.8,252h5.76v.85H76.8Z" transform="translate(-23.04 -7.32)"/><path class="cls-3" d="M84,248.26a2.88,2.88,0,1,1,2.88,3A2.86,2.86,0,0,1,84,248.26Zm4.74,0c0-1.35-.74-2.25-1.86-2.25s-1.86.9-1.86,2.25.75,2.22,1.86,2.22S88.74,249.59,88.74,248.26Z" transform="translate(-23.04 -7.32)"/><path class="cls-3" d="M92.22,245.33h.83l.1,1.38h0a3.06,3.06,0,0,1,2.6-1.52,2.45,2.45,0,0,1,1.15.24l-.22.85a3,3,0,0,0-1.08-.19,2.72,2.72,0,0,0-2.4,1.66v3.41h-1Z" transform="translate(-23.04 -7.32)"/><path class="cls-3" d="M98.4,248.26a2.8,2.8,0,0,1,2.64-3.07,2.47,2.47,0,0,1,1.75.74h0l0-1.07v-2.24h1v8.54H103l-.08-.77h0a2.82,2.82,0,0,1-1.91.91C99.41,251.3,98.4,250.2,98.4,248.26Zm4.37,1.34v-2.9a2.17,2.17,0,0,0-1.52-.67,2,2,0,0,0-1.83,2.21c0,1.4.65,2.22,1.72,2.22A2.2,2.2,0,0,0,102.77,249.6Z" transform="translate(-23.04 -7.32)"/><path class="cls-3" d="M105.7,248.23a2.92,2.92,0,0,1,3-3,2.51,2.51,0,0,1,2.67,2.73,4.66,4.66,0,0,1,0,.6h-4.93v-.77h4.34l-.25.28c0-1.38-.69-2.06-1.75-2.06a2.05,2.05,0,0,0-2,2.26,2.12,2.12,0,0,0,2.28,2.28,3.15,3.15,0,0,0,1.78-.55l.36.65a4,4,0,0,1-2.26.69A3,3,0,0,1,105.7,248.23Z" transform="translate(-23.04 -7.32)"/><path class="cls-3" d="M113.82,245.33h.83l.1,1.38h0a3.06,3.06,0,0,1,2.6-1.52,2.45,2.45,0,0,1,1.15.24l-.22.85a3,3,0,0,0-1.08-.19,2.72,2.72,0,0,0-2.4,1.66v3.41h-1Z" transform="translate(-23.04 -7.32)"/><path class="cls-3" d="M121.78,247.82a6.66,6.66,0,0,1,2.69-5.44l.55.5a6.38,6.38,0,0,0,0,9.89l-.55.5A6.68,6.68,0,0,1,121.78,247.82Z" transform="translate(-23.04 -7.32)"/><path class="cls-3" d="M128,252.77a6.38,6.38,0,0,0,0-9.89l.55-.5a6.87,6.87,0,0,1,0,10.89Z" transform="translate(-23.04 -7.32)"/><path class="cls-3" d="M43.29,262H41.1v-.74h2.19v-2.34h.79v2.34h2.18V262H44.08v2.34h-.79Z" transform="translate(-23.04 -7.32)"/><path class="cls-3" d="M55.35,266.63a1.61,1.61,0,0,1,1-1.3v-.05a1,1,0,0,1-.6-1,1.42,1.42,0,0,1,.69-1.09v-.05a1.87,1.87,0,0,1-.72-1.51A2.14,2.14,0,0,1,58,259.59a2.3,2.3,0,0,1,.87.14h2.41v.8H59.74a1.79,1.79,0,0,1,.49,1.18,2,2,0,0,1-2.26,2,2.62,2.62,0,0,1-1-.21.78.78,0,0,0-.45.67c0,.45.44.67,1.21.67h1.3c1.5,0,2.22.38,2.22,1.37s-1.26,2-3.24,2C56.33,268.25,55.35,267.66,55.35,266.63Zm4.95-.27c0-.55-.44-.71-1.33-.71H57.83a3.44,3.44,0,0,1-.89-.09c-.55.3-.74.63-.74,1,0,.61.66,1,1.91,1S60.3,267,60.3,266.36Zm-1-4.69A1.35,1.35,0,1,0,58,263.05,1.32,1.32,0,0,0,59.32,261.67Z" transform="translate(-23.04 -7.32)"/><path class="cls-3" d="M62.5,262.63a2.93,2.93,0,0,1,3-3,2.51,2.51,0,0,1,2.67,2.73,4.66,4.66,0,0,1,0,.6H63.16v-.77H67.5l-.25.28c0-1.38-.68-2.06-1.75-2.06a2.05,2.05,0,0,0-2,2.26,2.12,2.12,0,0,0,2.28,2.28,3.15,3.15,0,0,0,1.78-.55l.36.65a4,4,0,0,1-2.26.69A3,3,0,0,1,62.5,262.63Z" transform="translate(-23.04 -7.32)"/><path class="cls-3" d="M71.36,263.29v-2.76H69.7v-.74l1.69-.06.13-1.87h.83v1.87H75.2v.8H72.35v2.77c0,1.05.35,1.59,1.48,1.59a3.74,3.74,0,0,0,1.39-.27l.21.74a5.09,5.09,0,0,1-1.82.34C71.91,265.7,71.36,264.73,71.36,263.29Z" transform="translate(-23.04 -7.32)"/><path class="cls-3" d="M76.8,266.39h5.76v.85H76.8Z" transform="translate(-23.04 -7.32)"/><path class="cls-3" d="M84.52,259.79l1.69-.06H89.6v.8H84.52Zm1.67-.55a2.13,2.13,0,0,1,2.35-2.36,4.33,4.33,0,0,1,1.68.33L90,258a3.07,3.07,0,0,0-1.36-.28c-1,0-1.46.59-1.46,1.52v6.36h-1Z" transform="translate(-23.04 -7.32)"/><path class="cls-3" d="M91.44,264.05c0-1.31,1.23-1.94,4.24-2.18a1.39,1.39,0,0,0-1.55-1.47,4,4,0,0,0-2,.7l-.39-.67a5,5,0,0,1,2.6-.84A2.16,2.16,0,0,1,96.67,262v3.58h-.82l-.09-.79h0a4,4,0,0,1-2.3.93A1.77,1.77,0,0,1,91.44,264.05Zm4.24,0v-1.52c-2.5.2-3.25.69-3.25,1.46s.6.92,1.27.92A3.18,3.18,0,0,0,95.68,264Z" transform="translate(-23.04 -7.32)"/><path class="cls-3" d="M98.38,259.73h.79l.09.77h0a1.45,1.45,0,0,1,1.33-.91c.58,0,.94.33,1.1,1,.34-.62.7-1,1.37-1,.82,0,1.3.63,1.3,1.8v4.17h-1v-4.1c0-.67-.19-1-.62-1s-.62.3-.94.9v4.22h-.91v-4.1c0-.67-.17-1-.6-1s-.67.3-1,.9v4.22h-1Z" transform="translate(-23.04 -7.32)"/><path class="cls-3" d="M108.66,260.53H106v-.8h3.7v5.83h-1Zm-.39-2.79a.79.79,0,1,1,.79.77A.75.75,0,0,1,108.27,257.74Z" transform="translate(-23.04 -7.32)"/><path class="cls-3" d="M115,263.6v-5.78H113V257H116v6.66a1.05,1.05,0,0,0,1.15,1.2,2.6,2.6,0,0,0,1.09-.27l.25.75a3.64,3.64,0,0,1-1.56.34C115.72,265.7,115,265,115,263.6Z" transform="translate(-23.04 -7.32)"/><path class="cls-3" d="M120.09,268l.2-.8a1.84,1.84,0,0,0,.53.09,1.68,1.68,0,0,0,1.59-1.24l.17-.43-2.71-5.84h1l1.41,3.21c.23.52.48,1.13.72,1.7h0l.63-1.7,1.26-3.21h1L123.33,266a2.62,2.62,0,0,1-2.47,2A2.49,2.49,0,0,1,120.09,268Z" transform="translate(-23.04 -7.32)"/><path class="cls-3" d="M129,262.23a6.7,6.7,0,0,1,2.68-5.45l.56.5a6.38,6.38,0,0,0,0,9.89l-.56.5A6.69,6.69,0,0,1,129,262.23Z" transform="translate(-23.04 -7.32)"/><path class="cls-3" d="M135.15,267.17a6.38,6.38,0,0,0,0-9.89l.55-.5a6.87,6.87,0,0,1,0,10.89Z" transform="translate(-23.04 -7.32)"/><path class="cls-3" d="M43.29,276.37H41.1v-.74h2.19v-2.34h.79v2.34h2.18v.74H44.08v2.34h-.79Z" transform="translate(-23.04 -7.32)"/><path class="cls-3" d="M55.35,281a1.61,1.61,0,0,1,1-1.3v-.05a1,1,0,0,1-.6-1,1.42,1.42,0,0,1,.69-1.09v-.05a1.87,1.87,0,0,1-.72-1.51A2.14,2.14,0,0,1,58,274a2.3,2.3,0,0,1,.87.14h2.41v.8H59.74a1.79,1.79,0,0,1,.49,1.18,2,2,0,0,1-2.26,2,2.62,2.62,0,0,1-1-.21.78.78,0,0,0-.45.67c0,.45.44.67,1.21.67h1.3c1.5,0,2.22.38,2.22,1.37s-1.26,2-3.24,2C56.33,282.65,55.35,282.06,55.35,281Zm4.95-.27c0-.55-.44-.7-1.33-.7H57.83a3.41,3.41,0,0,1-.89-.1c-.55.3-.74.63-.74,1,0,.61.66,1,1.91,1S60.3,281.36,60.3,280.76Zm-1-4.69A1.35,1.35,0,1,0,58,277.45,1.32,1.32,0,0,0,59.32,276.07Z" transform="translate(-23.04 -7.32)"/><path class="cls-3" d="M62.5,277a2.93,2.93,0,0,1,3-3,2.51,2.51,0,0,1,2.67,2.73,4.66,4.66,0,0,1,0,.6H63.16v-.77H67.5l-.25.28c0-1.38-.68-2.06-1.75-2.06a2.05,2.05,0,0,0-2,2.26,2.12,2.12,0,0,0,2.28,2.28,3.15,3.15,0,0,0,1.78-.55l.36.65a4,4,0,0,1-2.26.69A3,3,0,0,1,62.5,277Z" transform="translate(-23.04 -7.32)"/><path class="cls-3" d="M71.36,277.69v-2.76H69.7v-.74l1.69-.06.13-1.87h.83v1.87H75.2v.8H72.35v2.77c0,1.05.35,1.59,1.48,1.59a3.74,3.74,0,0,0,1.39-.27l.21.73a4.87,4.87,0,0,1-1.82.35C71.91,280.1,71.36,279.13,71.36,277.69Z" transform="translate(-23.04 -7.32)"/><path class="cls-3" d="M76.8,280.79h5.76v.85H76.8Z" transform="translate(-23.04 -7.32)"/><path class="cls-3" d="M84.15,281a1.61,1.61,0,0,1,1-1.3v-.05a1,1,0,0,1-.6-1,1.42,1.42,0,0,1,.69-1.09v-.05a1.87,1.87,0,0,1-.72-1.51A2.14,2.14,0,0,1,86.77,274a2.3,2.3,0,0,1,.87.14h2.41v.8H88.54a1.79,1.79,0,0,1,.49,1.18,2,2,0,0,1-2.26,2,2.54,2.54,0,0,1-1-.21.8.8,0,0,0-.46.67c0,.45.45.67,1.22.67h1.3c1.5,0,2.22.38,2.22,1.37s-1.26,2-3.24,2C85.13,282.65,84.15,282.06,84.15,281Zm4.95-.27c0-.55-.44-.7-1.33-.7H86.63a3.36,3.36,0,0,1-.89-.1c-.55.3-.74.63-.74,1,0,.61.66,1,1.91,1S89.1,281.36,89.1,280.76Zm-1-4.69a1.35,1.35,0,1,0-1.35,1.38A1.32,1.32,0,0,0,88.12,276.07Z" transform="translate(-23.04 -7.32)"/><path class="cls-3" d="M91.3,277a2.93,2.93,0,0,1,3-3,2.51,2.51,0,0,1,2.67,2.73,4.66,4.66,0,0,1,0,.6H92v-.77H96.3l-.25.28c0-1.38-.68-2.06-1.75-2.06a2.05,2.05,0,0,0-2,2.26,2.12,2.12,0,0,0,2.28,2.28,3.15,3.15,0,0,0,1.78-.55l.36.65a4,4,0,0,1-2.26.69A3,3,0,0,1,91.3,277Z" transform="translate(-23.04 -7.32)"/><path class="cls-3" d="M98.8,274.13h.82l.08,1h0a3,3,0,0,1,2.19-1.12c1.38,0,2,.81,2,2.35V280h-1v-3.49c0-1.1-.38-1.62-1.33-1.62-.7,0-1.16.35-1.84,1V280h-1Z" transform="translate(-23.04 -7.32)"/><path class="cls-3" d="M105.81,277.75v-3.62h1v3.49c0,1.09.39,1.62,1.35,1.62a2.31,2.31,0,0,0,1.81-1.07v-4h1V280h-.83l-.08-1H110a2.83,2.83,0,0,1-2.17,1.16C106.44,280.1,105.81,279.29,105.81,277.75Z" transform="translate(-23.04 -7.32)"/><path class="cls-3" d="M112.94,279.19l.45-.66a4.15,4.15,0,0,0,2.53.79c1,0,1.46-.4,1.46-.9s-.22-.75-1.81-1.08-2.28-.82-2.28-1.7.83-1.65,2.43-1.65a4.34,4.34,0,0,1,2.35.74l-.48.64a3.39,3.39,0,0,0-2-.62c-1,0-1.34.4-1.34.84s.5.72,1.7,1c1.93.42,2.4.9,2.4,1.8s-.92,1.74-2.59,1.74A5.09,5.09,0,0,1,112.94,279.19Z" transform="translate(-23.04 -7.32)"/><path class="cls-3" d="M121.78,276.63a6.68,6.68,0,0,1,2.69-5.45l.55.5a6.38,6.38,0,0,0,0,9.89l-.55.5A6.68,6.68,0,0,1,121.78,276.63Z" transform="translate(-23.04 -7.32)"/><path class="cls-3" d="M128,281.57a6.38,6.38,0,0,0,0-9.89l.55-.5a6.87,6.87,0,0,1,0,10.89Z" transform="translate(-23.04 -7.32)"/><path class="cls-3" d="M43.29,290.77H41.1V290h2.19v-2.34h.79V290h2.18v.74H44.08v2.34h-.79Z" transform="translate(-23.04 -7.32)"/><path class="cls-3" d="M55.35,295.43a1.61,1.61,0,0,1,1-1.3v-.05a1,1,0,0,1-.6-1A1.42,1.42,0,0,1,56.4,292v0a1.87,1.87,0,0,1-.72-1.51A2.14,2.14,0,0,1,58,288.39a2.3,2.3,0,0,1,.87.14h2.41v.8H59.74a1.79,1.79,0,0,1,.49,1.18,2,2,0,0,1-2.26,2,2.62,2.62,0,0,1-1-.21.78.78,0,0,0-.45.67c0,.45.44.67,1.21.67h1.3c1.5,0,2.22.38,2.22,1.37s-1.26,2-3.24,2C56.33,297.05,55.35,296.46,55.35,295.43Zm4.95-.27c0-.55-.44-.71-1.33-.71H57.83a3.44,3.44,0,0,1-.89-.09c-.55.3-.74.63-.74,1,0,.61.66,1,1.91,1S60.3,295.76,60.3,295.16Zm-1-4.69A1.35,1.35,0,1,0,58,291.85,1.32,1.32,0,0,0,59.32,290.47Z" transform="translate(-23.04 -7.32)"/><path class="cls-3" d="M62.5,291.43a2.93,2.93,0,0,1,3-3,2.51,2.51,0,0,1,2.67,2.73,4.66,4.66,0,0,1,0,.6H63.16V291H67.5l-.25.28c0-1.38-.68-2.06-1.75-2.06a2.05,2.05,0,0,0-2,2.26,2.12,2.12,0,0,0,2.28,2.28,3.15,3.15,0,0,0,1.78-.55l.36.65a4,4,0,0,1-2.26.69A3,3,0,0,1,62.5,291.43Z" transform="translate(-23.04 -7.32)"/><path class="cls-3" d="M71.36,292.09v-2.76H69.7v-.74l1.69-.06.13-1.87h.83v1.87H75.2v.8H72.35v2.77c0,1,.35,1.59,1.48,1.59a3.74,3.74,0,0,0,1.39-.27l.21.73a4.87,4.87,0,0,1-1.82.35C71.91,294.5,71.36,293.53,71.36,292.09Z" transform="translate(-23.04 -7.32)"/><path class="cls-3" d="M76.8,295.19h5.76V296H76.8Z" transform="translate(-23.04 -7.32)"/><path class="cls-3" d="M84.14,293.59l.45-.66a4.15,4.15,0,0,0,2.53.79c1,0,1.47-.4,1.47-.9s-.23-.75-1.82-1.08-2.27-.82-2.27-1.7.82-1.65,2.42-1.65a4.34,4.34,0,0,1,2.35.74l-.48.64a3.39,3.39,0,0,0-2-.62c-1,0-1.34.4-1.34.84s.5.72,1.7,1c1.93.42,2.4.9,2.4,1.8s-.92,1.74-2.59,1.74A5.09,5.09,0,0,1,84.14,293.59Z" transform="translate(-23.04 -7.32)"/><path class="cls-3" d="M91.6,288.53h.82l.08.74h0a3.12,3.12,0,0,1,2-.88c1.57,0,2.41,1.16,2.41,3,0,2-1.25,3.14-2.65,3.14a2.76,2.76,0,0,1-1.74-.75h0l0,1.1v2h-1Zm4.34,2.83c0-1.28-.48-2.13-1.64-2.13a2.44,2.44,0,0,0-1.7.86V293a2.42,2.42,0,0,0,1.54.67C95.17,293.66,95.94,292.8,95.94,291.36Z" transform="translate(-23.04 -7.32)"/><path class="cls-3" d="M98.5,291.43a2.92,2.92,0,0,1,3-3,2.51,2.51,0,0,1,2.67,2.73,4.66,4.66,0,0,1,0,.6H99.16V291h4.34l-.25.28c0-1.38-.68-2.06-1.75-2.06a2.05,2.05,0,0,0-2,2.26,2.12,2.12,0,0,0,2.28,2.28,3.15,3.15,0,0,0,1.78-.55l.36.65a4,4,0,0,1-2.26.69A3,3,0,0,1,98.5,291.43Z" transform="translate(-23.04 -7.32)"/><path class="cls-3" d="M105.84,291.46a3,3,0,0,1,3.25-3.07,3,3,0,0,1,2.13.85l-.5.63a2.43,2.43,0,0,0-1.59-.66,2.15,2.15,0,0,0-2.27,2.25,2.12,2.12,0,0,0,2.25,2.22,2.77,2.77,0,0,0,1.79-.74l.45.65a3.45,3.45,0,0,1-2.32.91A2.94,2.94,0,0,1,105.84,291.46Z" transform="translate(-23.04 -7.32)"/><path class="cls-3" d="M115.86,289.33h-2.7v-.8h3.7v5.83h-1Zm-.39-2.79a.79.79,0,1,1,.79.77A.75.75,0,0,1,115.47,286.54Z" transform="translate(-23.04 -7.32)"/><path class="cls-3" d="M120.1,291.43a2.92,2.92,0,0,1,3-3,2.51,2.51,0,0,1,2.67,2.73,4.66,4.66,0,0,1,0,.6h-4.93V291h4.34l-.25.28c0-1.38-.69-2.06-1.75-2.06a2.05,2.05,0,0,0-2,2.26,2.12,2.12,0,0,0,2.28,2.28,3.15,3.15,0,0,0,1.78-.55l.36.65a4,4,0,0,1-2.26.69A3,3,0,0,1,120.1,291.43Z" transform="translate(-23.04 -7.32)"/><path class="cls-3" d="M127.33,293.59l.46-.66a4.15,4.15,0,0,0,2.53.79c1,0,1.46-.4,1.46-.9s-.22-.75-1.81-1.08-2.28-.82-2.28-1.7.83-1.65,2.43-1.65a4.37,4.37,0,0,1,2.35.74l-.48.64a3.39,3.39,0,0,0-2-.62c-1,0-1.34.4-1.34.84s.5.72,1.7,1c1.93.42,2.4.9,2.4,1.8s-.92,1.74-2.59,1.74A5.15,5.15,0,0,1,127.33,293.59Z" transform="translate(-23.04 -7.32)"/><path class="cls-3" d="M136.18,291a6.69,6.69,0,0,1,2.68-5.44l.56.5a6.38,6.38,0,0,0,0,9.89l-.56.5A6.7,6.7,0,0,1,136.18,291Z" transform="translate(-23.04 -7.32)"/><path class="cls-3" d="M142.35,296a6.38,6.38,0,0,0,0-9.89l.55-.5a6.87,6.87,0,0,1,0,10.89Z" transform="translate(-23.04 -7.32)"/><path class="cls-4" d="M43.53,305.17H41.34v-.74h2.19v-2.34h.79v2.34H46.5v.74H44.32v2.34h-.79Z" transform="translate(-23.04 -7.32)"/><path class="cls-4" d="M57.68,306.8V301H55.61v-.8h3.06v6.66a1.05,1.05,0,0,0,1.15,1.2,2.6,2.6,0,0,0,1.09-.27l.26.74a3.53,3.53,0,0,1-1.56.35C58.36,308.9,57.68,308.18,57.68,306.8Z" transform="translate(-23.04 -7.32)"/><path class="cls-4" d="M62.88,307.25c0-1.31,1.23-1.95,4.24-2.19a1.39,1.39,0,0,0-1.55-1.46,4,4,0,0,0-2,.7l-.39-.67a5,5,0,0,1,2.6-.84,2.16,2.16,0,0,1,2.37,2.39v3.58h-.82L67.2,308h0a4,4,0,0,1-2.3.93A1.77,1.77,0,0,1,62.88,307.25Zm4.24,0v-1.52c-2.5.2-3.25.69-3.25,1.46s.6.92,1.27.92A3.18,3.18,0,0,0,67.12,307.24Z" transform="translate(-23.04 -7.32)"/><path class="cls-4" d="M69.93,311.15l.2-.8a1.84,1.84,0,0,0,.53.09,1.7,1.7,0,0,0,1.6-1.24l.16-.43-2.71-5.84h1l1.42,3.21c.22.52.48,1.13.71,1.7h.05l.63-1.7,1.26-3.21h.95l-2.57,6.31a2.62,2.62,0,0,1-2.47,2A2.49,2.49,0,0,1,69.93,311.15Z" transform="translate(-23.04 -7.32)"/><path class="cls-4" d="M77,309.59H82.8v.85H77Z" transform="translate(-23.04 -7.32)"/><path class="cls-4" d="M84.34,305.83a2.93,2.93,0,0,1,3-3A2.51,2.51,0,0,1,90,305.52a4.66,4.66,0,0,1,0,.6H85v-.77h4.34l-.25.28c0-1.38-.68-2.06-1.75-2.06a2.05,2.05,0,0,0-2,2.26,2.12,2.12,0,0,0,2.28,2.28,3.15,3.15,0,0,0,1.78-.55l.36.65a4,4,0,0,1-2.26.69A3,3,0,0,1,84.34,305.83Z" transform="translate(-23.04 -7.32)"/><path class="cls-4" d="M91.59,309.83a1.61,1.61,0,0,1,1-1.3v0a1.05,1.05,0,0,1-.6-1,1.42,1.42,0,0,1,.69-1.09v-.05a1.87,1.87,0,0,1-.72-1.51,2.14,2.14,0,0,1,2.29-2.08,2.3,2.3,0,0,1,.87.14h2.41v.8H96a1.79,1.79,0,0,1,.49,1.18,2,2,0,0,1-2.26,2,2.54,2.54,0,0,1-1-.21.78.78,0,0,0-.45.67c0,.45.44.67,1.21.67h1.3c1.5,0,2.22.38,2.22,1.37s-1.26,2-3.24,2C92.57,311.45,91.59,310.86,91.59,309.83Zm5-.27c0-.55-.44-.7-1.33-.7H94.07a3.36,3.36,0,0,1-.89-.1c-.55.3-.74.63-.74,1,0,.61.66,1,1.91,1S96.54,310.16,96.54,309.56Zm-1-4.69a1.35,1.35,0,1,0-1.35,1.38A1.32,1.32,0,0,0,95.56,304.87Z" transform="translate(-23.04 -7.32)"/><path class="cls-4" d="M98.79,309.83a1.61,1.61,0,0,1,1-1.3v0a1.05,1.05,0,0,1-.6-1,1.42,1.42,0,0,1,.69-1.09v-.05a1.87,1.87,0,0,1-.72-1.51,2.14,2.14,0,0,1,2.29-2.08,2.3,2.3,0,0,1,.87.14h2.41v.8h-1.51a1.79,1.79,0,0,1,.49,1.18,2,2,0,0,1-2.26,2,2.54,2.54,0,0,1-1-.21.8.8,0,0,0-.46.67c0,.45.45.67,1.22.67h1.3c1.5,0,2.22.38,2.22,1.37s-1.26,2-3.24,2C99.77,311.45,98.79,310.86,98.79,309.83Zm4.95-.27c0-.55-.44-.7-1.33-.7h-1.14a3.36,3.36,0,0,1-.89-.1c-.55.3-.74.63-.74,1,0,.61.66,1,1.91,1S103.74,310.16,103.74,309.56Zm-1-4.69a1.35,1.35,0,1,0-1.35,1.38A1.32,1.32,0,0,0,102.76,304.87Z" transform="translate(-23.04 -7.32)"/><path class="cls-4" d="M107.62,305.42a6.66,6.66,0,0,1,2.69-5.44l.55.5a6.38,6.38,0,0,0,0,9.89l-.55.5A6.68,6.68,0,0,1,107.62,305.42Z" transform="translate(-23.04 -7.32)"/><path class="cls-4" d="M113.79,310.37a6.38,6.38,0,0,0,0-9.89l.55-.5a6.86,6.86,0,0,1,0,10.89Z" transform="translate(-23.04 -7.32)"/><path class="cls-4" d="M43.53,319.57H41.34v-.74h2.19v-2.34h.79v2.34H46.5v.74H44.32v2.34h-.79Z" transform="translate(-23.04 -7.32)"/><path class="cls-4" d="M56,317.39l1.69-.06h3.4v.8H56Zm1.67-.55A2.13,2.13,0,0,1,60,314.48a4.3,4.3,0,0,1,1.68.33l-.23.74a3.21,3.21,0,0,0-1.36-.27c-1,0-1.46.59-1.46,1.52v6.36h-1Z" transform="translate(-23.04 -7.32)"/><path class="cls-4" d="M64.87,321.2v-5.78H62.81v-.8h3.06v6.66a1.05,1.05,0,0,0,1.15,1.2,2.6,2.6,0,0,0,1.09-.27l.26.74a3.53,3.53,0,0,1-1.56.35C65.56,323.3,64.87,322.58,64.87,321.2Z" transform="translate(-23.04 -7.32)"/><path class="cls-4" d="M70.08,321.65c0-1.31,1.23-1.95,4.24-2.19A1.39,1.39,0,0,0,72.77,318a4,4,0,0,0-2,.7l-.39-.67a5,5,0,0,1,2.6-.84,2.16,2.16,0,0,1,2.37,2.39v3.58h-.82l-.09-.79h0a4,4,0,0,1-2.3.93A1.77,1.77,0,0,1,70.08,321.65Zm4.24,0v-1.52c-2.5.2-3.25.69-3.25,1.46s.6.92,1.27.92A3.18,3.18,0,0,0,74.32,321.64Z" transform="translate(-23.04 -7.32)"/><path class="cls-4" d="M77.44,317.33h.82l.08.74h0a3.08,3.08,0,0,1,2-.88c1.57,0,2.41,1.16,2.41,3,0,2-1.25,3.14-2.65,3.14a2.76,2.76,0,0,1-1.74-.75h0l0,1.1v2h-1Zm4.34,2.83c0-1.28-.48-2.13-1.64-2.13a2.44,2.44,0,0,0-1.7.86v2.9a2.42,2.42,0,0,0,1.54.67C81,322.46,81.78,321.6,81.78,320.16Z" transform="translate(-23.04 -7.32)"/><path class="cls-4" d="M84.24,324H90v.85H84.24Z" transform="translate(-23.04 -7.32)"/><path class="cls-4" d="M90.82,317.33h1l.7,3.38c.11.55.19,1.06.26,1.61h0a12.81,12.81,0,0,1,.34-1.61l.72-3h1l.7,3c.13.55.28,1.06.36,1.61h0c.1-.55.16-1.06.27-1.61l.69-3.38h.91l-1.24,5.83H95.31l-.68-2.78c-.09-.41-.19-1-.28-1.73h0c-.1.74-.19,1.32-.29,1.73l-.65,2.78H92.09Z" transform="translate(-23.04 -7.32)"/><path class="cls-4" d="M101.7,318.13H99v-.8h3.7v5.83h-1Zm-.39-2.79a.79.79,0,1,1,.79.77A.75.75,0,0,1,101.31,315.34Z" transform="translate(-23.04 -7.32)"/><path class="cls-4" d="M106.24,317.33h.81l.09,1h0a3,3,0,0,1,2.19-1.12c1.38,0,2,.81,2,2.35v3.62h-1v-3.49c0-1.1-.38-1.62-1.33-1.62-.7,0-1.16.35-1.83,1v4.07h-1Z" transform="translate(-23.04 -7.32)"/><path class="cls-4" d="M113.19,324.23a1.61,1.61,0,0,1,1-1.3v-.05a1,1,0,0,1-.6-1,1.42,1.42,0,0,1,.69-1.09v-.05a1.87,1.87,0,0,1-.72-1.51,2.14,2.14,0,0,1,2.29-2.08,2.3,2.3,0,0,1,.87.14h2.41v.8h-1.51a1.79,1.79,0,0,1,.49,1.18,2,2,0,0,1-2.26,2,2.54,2.54,0,0,1-1-.21.8.8,0,0,0-.46.67c0,.45.45.67,1.22.67h1.3c1.5,0,2.22.38,2.22,1.37s-1.26,2-3.24,2C114.17,325.85,113.19,325.26,113.19,324.23Zm5-.27c0-.55-.44-.71-1.33-.71h-1.14a3.39,3.39,0,0,1-.89-.09c-.55.3-.74.63-.74,1,0,.61.66,1,1.91,1S118.14,324.56,118.14,324Zm-1-4.69a1.35,1.35,0,1,0-1.35,1.38A1.32,1.32,0,0,0,117.16,319.27Z" transform="translate(-23.04 -7.32)"/><path class="cls-4" d="M120.38,322.39l.45-.66a4.15,4.15,0,0,0,2.53.79c1,0,1.46-.4,1.46-.9s-.22-.75-1.81-1.08-2.27-.82-2.27-1.7.82-1.65,2.42-1.65a4.34,4.34,0,0,1,2.35.74l-.48.64a3.39,3.39,0,0,0-2-.62c-1,0-1.34.4-1.34.84s.51.72,1.7,1c1.94.42,2.4.9,2.4,1.8s-.92,1.74-2.59,1.74A5.09,5.09,0,0,1,120.38,322.39Z" transform="translate(-23.04 -7.32)"/><path class="cls-4" d="M129.22,319.82a6.66,6.66,0,0,1,2.69-5.44l.55.5a6.38,6.38,0,0,0,0,9.89l-.55.5A6.68,6.68,0,0,1,129.22,319.82Z" transform="translate(-23.04 -7.32)"/><path class="cls-4" d="M135.39,324.77a6.38,6.38,0,0,0,0-9.89l.55-.5a6.87,6.87,0,0,1,0,10.89Z" transform="translate(-23.04 -7.32)"/></svg>