<svg id="Layer_1" data-name="Layer 1" xmlns="http://www.w3.org/2000/svg" viewBox="0 0 247.1 286.46"><defs><style>.cls-1{fill:#c0e4ee;stroke:#1d1d1b;stroke-miterlimit:10;}.cls-2{font-size:12px;font-family:Arial-BoldMT, Arial;font-weight:700;}.cls-2,.cls-3{fill:#1d1d1b;}</style></defs><rect class="cls-1" x="0.5" y="0.5" width="246.1" height="29.18"/><text class="cls-2" transform="translate(101.1 17.98)">Animal</text><rect class="cls-1" x="0.5" y="29.68" width="246.1" height="144.53"/><path class="cls-3" d="M39.39,69.64h5.15v.74H39.39Z" transform="translate(-21.46 -20.52)"/><path class="cls-3" d="M53.81,66.1h1.94c2.37,0,3.65,1.4,3.65,3.9s-1.28,4-3.6,4h-2Zm1.87,7c1.79,0,2.68-1.15,2.68-3.14s-.89-3.07-2.68-3.07h-.86v6.21Z" transform="translate(-21.46 -20.52)"/><path class="cls-3" d="M60.69,71.06a2.88,2.88,0,1,1,2.88,3A2.86,2.86,0,0,1,60.69,71.06Zm4.73,0c0-1.34-.74-2.24-1.85-2.24s-1.86.9-1.86,2.24.74,2.22,1.86,2.22S65.42,72.4,65.42,71.06Z" transform="translate(-21.46 -20.52)"/><path class="cls-3" d="M67.86,68.14h.8l.08.77h0A1.45,1.45,0,0,1,70.09,68c.58,0,.94.34,1.11,1,.33-.62.69-1,1.36-1s1.3.64,1.3,1.8V74h-1v-4.1c0-.68-.2-1-.63-1s-.62.3-.93.9V74h-.91v-4.1c0-.68-.17-1-.6-1s-.68.3-1,.9V74h-1Z" transform="translate(-21.46 -20.52)"/><path class="cls-3" d="M75.33,72.46c0-1.31,1.22-1.95,4.23-2.19A1.39,1.39,0,0,0,78,68.81a4,4,0,0,0-2,.7l-.39-.68a5.13,5.13,0,0,1,2.6-.84,2.17,2.17,0,0,1,2.38,2.4V74h-.83l-.09-.79h0a4,4,0,0,1-2.29.93A1.77,1.77,0,0,1,75.33,72.46Zm4.23,0V70.93c-2.49.19-3.25.69-3.25,1.45s.6.93,1.27.93A3.14,3.14,0,0,0,79.56,72.44Z" transform="translate(-21.46 -20.52)"/><path class="cls-3" d="M85.35,68.94h-2.7v-.8h3.69V74h-1ZM85,66.15a.79.79,0,0,1,1.58,0,.79.79,0,0,1-1.58,0Z" transform="translate(-21.46 -20.52)"/><path class="cls-3" d="M89.88,68.14h.82l.08,1h0A3,3,0,0,1,93,68c1.37,0,2,.82,2,2.35V74H94V70.48c0-1.11-.38-1.62-1.33-1.62-.69,0-1.16.35-1.83,1V74h-1Z" transform="translate(-21.46 -20.52)"/><path class="cls-3" d="M98.59,68.8a1,1,0,1,1,1,1A1,1,0,0,1,98.59,68.8Zm0,4.29a1,1,0,1,1,1,1A1,1,0,0,1,98.59,73.09Z" transform="translate(-21.46 -20.52)"/><path class="cls-3" d="M111.33,71.06A3,3,0,0,1,114.58,68a3,3,0,0,1,2.12.86l-.49.63a2.41,2.41,0,0,0-1.6-.66,2.14,2.14,0,0,0-2.26,2.24,2.11,2.11,0,0,0,2.24,2.22,2.76,2.76,0,0,0,1.8-.73l.44.65a3.5,3.5,0,0,1-2.31.91A2.93,2.93,0,0,1,111.33,71.06Z" transform="translate(-21.46 -20.52)"/><path class="cls-3" d="M118.68,65.43h1v2.32l-.06,1.38h0A3,3,0,0,1,121.82,68c1.38,0,2,.82,2,2.35V74h-1V70.48c0-1.11-.38-1.62-1.33-1.62-.69,0-1.16.35-1.83,1V74h-1Z" transform="translate(-21.46 -20.52)"/><path class="cls-3" d="M125.73,72.46c0-1.31,1.22-1.95,4.23-2.19a1.39,1.39,0,0,0-1.55-1.46,4,4,0,0,0-2,.7l-.39-.68a5.13,5.13,0,0,1,2.6-.84,2.16,2.16,0,0,1,2.37,2.4V74h-.82l-.09-.79h0a4,4,0,0,1-2.29.93A1.77,1.77,0,0,1,125.73,72.46Zm4.23,0V70.93c-2.5.19-3.25.69-3.25,1.45s.6.93,1.27.93A3.14,3.14,0,0,0,130,72.44Z" transform="translate(-21.46 -20.52)"/><path class="cls-3" d="M133.71,68.14h.82l.1,1.38h0A3.08,3.08,0,0,1,137.26,68a2.45,2.45,0,0,1,1.15.24l-.23.86a2.66,2.66,0,0,0-3.48,1.47V74h-1Z" transform="translate(-21.46 -20.52)"/><path class="cls-3" d="M140.13,72.46c0-1.31,1.22-1.95,4.23-2.19a1.39,1.39,0,0,0-1.55-1.46,4,4,0,0,0-2,.7l-.39-.68A5.13,5.13,0,0,1,143,68a2.17,2.17,0,0,1,2.38,2.4V74h-.83l-.09-.79h0a4,4,0,0,1-2.29.93A1.77,1.77,0,0,1,140.13,72.46Zm4.23,0V70.93c-2.49.19-3.25.69-3.25,1.45s.6.93,1.27.93A3.14,3.14,0,0,0,144.36,72.44Z" transform="translate(-21.46 -20.52)"/><path class="cls-3" d="M147.32,71.06A3,3,0,0,1,150.58,68a3,3,0,0,1,2.12.86l-.49.63a2.41,2.41,0,0,0-1.6-.66,2.14,2.14,0,0,0-2.27,2.24,2.12,2.12,0,0,0,2.25,2.22,2.76,2.76,0,0,0,1.8-.73l.44.65a3.5,3.5,0,0,1-2.31.91A2.94,2.94,0,0,1,147.32,71.06Z" transform="translate(-21.46 -20.52)"/><path class="cls-3" d="M156,71.7V68.94h-1.66V68.2l1.69-.06.13-1.87H157v1.87h2.86v.8H157v2.77c0,1.05.35,1.58,1.48,1.58A3.74,3.74,0,0,0,159.9,73l.22.73a5.18,5.18,0,0,1-1.83.35C156.59,74.11,156,73.14,156,71.7Z" transform="translate(-21.46 -20.52)"/><path class="cls-3" d="M161.58,71a2.94,2.94,0,0,1,3-3.05,2.51,2.51,0,0,1,2.66,2.74,3.37,3.37,0,0,1-.05.6h-4.93v-.77h4.34l-.25.28c0-1.38-.68-2.07-1.75-2.07a2.05,2.05,0,0,0-2,2.27,2.11,2.11,0,0,0,2.27,2.28,3.23,3.23,0,0,0,1.78-.55l.36.65a4,4,0,0,1-2.26.69A3,3,0,0,1,161.58,71Z" transform="translate(-21.46 -20.52)"/><path class="cls-3" d="M169.7,68.14h.83l.1,1.38h0a3.08,3.08,0,0,1,2.6-1.53,2.46,2.46,0,0,1,1.16.24l-.23.86a2.8,2.8,0,0,0-1.08-.2,2.74,2.74,0,0,0-2.4,1.67V74h-1Z" transform="translate(-21.46 -20.52)"/><path class="cls-3" d="M184.86,70.63a6.66,6.66,0,0,1,2.69-5.44l.55.5a6.37,6.37,0,0,0,0,9.88l-.55.51A6.68,6.68,0,0,1,184.86,70.63Z" transform="translate(-21.46 -20.52)"/><path class="cls-3" d="M190.93,66.1h4.87V67h-3.86v2.46h3.26v.85h-3.26v2.86h4V74h-5Z" transform="translate(-21.46 -20.52)"/><path class="cls-3" d="M197.69,71.76V68.14h1v3.49c0,1.09.39,1.62,1.35,1.62a2.31,2.31,0,0,0,1.81-1.07v-4h1V74H202l-.09-1h0a2.83,2.83,0,0,1-2.17,1.16C198.32,74.11,197.69,73.29,197.69,71.76Z" transform="translate(-21.46 -20.52)"/><path class="cls-3" d="M205.23,65.43h1V71.2h.05l3.13-3.06h1.14l-4.32,4.24V74h-1Zm2.24,5.44.6-.65L210.85,74h-1.1Z" transform="translate(-21.46 -20.52)"/><path class="cls-3" d="M212.12,72.46c0-1.31,1.23-1.95,4.24-2.19a1.39,1.39,0,0,0-1.55-1.46,4,4,0,0,0-2,.7l-.39-.68A5.13,5.13,0,0,1,215,68a2.17,2.17,0,0,1,2.37,2.4V74h-.82l-.09-.79h0a4,4,0,0,1-2.29.93C213,74.11,212.12,73.5,212.12,72.46Zm4.24,0V70.93c-2.5.19-3.25.69-3.25,1.45s.6.93,1.27.93A3.14,3.14,0,0,0,216.36,72.44Z" transform="translate(-21.46 -20.52)"/><path class="cls-3" d="M220.1,68.14h.83l.1,1.38h0a3.07,3.07,0,0,1,2.6-1.53,2.46,2.46,0,0,1,1.16.24l-.23.86a2.8,2.8,0,0,0-1.08-.2,2.73,2.73,0,0,0-2.4,1.67V74h-1Z" transform="translate(-21.46 -20.52)"/><path class="cls-3" d="M226.37,76.35l.2-.79a1.84,1.84,0,0,0,.53.09,1.7,1.7,0,0,0,1.6-1.24l.16-.43-2.71-5.84h1l1.42,3.21c.22.52.48,1.13.71,1.69h.05c.21-.55.44-1.16.63-1.69l1.26-3.21h1l-2.58,6.31a2.6,2.6,0,0,1-2.47,2A2.22,2.22,0,0,1,226.37,76.35Z" transform="translate(-21.46 -20.52)"/><path class="cls-3" d="M233.73,72.46c0-1.31,1.22-1.95,4.23-2.19a1.39,1.39,0,0,0-1.55-1.46,4,4,0,0,0-2,.7l-.39-.68a5.13,5.13,0,0,1,2.6-.84,2.17,2.17,0,0,1,2.37,2.4V74h-.82l-.09-.79h0a4,4,0,0,1-2.29.93C234.62,74.11,233.73,73.5,233.73,72.46Zm4.23,0V70.93c-2.5.19-3.25.69-3.25,1.45s.6.93,1.27.93A3.14,3.14,0,0,0,238,72.44Z" transform="translate(-21.46 -20.52)"/><path class="cls-3" d="M241.43,75.57a6.37,6.37,0,0,0,0-9.88l.55-.5a6.86,6.86,0,0,1,0,10.89Z" transform="translate(-21.46 -20.52)"/><path class="cls-3" d="M39.39,84h5.15v.74H39.39Z" transform="translate(-21.46 -20.52)"/><path class="cls-3" d="M53.93,80.5h1v3.93h0l3.29-3.93h1.16L55,85.86v2.51h-1ZM56.16,84l.61-.79,2.95,5.18H58.58Z" transform="translate(-21.46 -20.52)"/><path class="cls-3" d="M63.75,83.34h-2.7v-.8h3.69v5.83h-1Zm-.4-2.79a.79.79,0,0,1,1.58,0,.79.79,0,0,1-1.58,0Z" transform="translate(-21.46 -20.52)"/><path class="cls-3" d="M68.28,82.54h.82l.08,1h0a3,3,0,0,1,2.2-1.13c1.37,0,2,.82,2,2.35v3.63h-1V84.88c0-1.11-.39-1.62-1.34-1.62-.69,0-1.16.35-1.83,1v4.07h-1Z" transform="translate(-21.46 -20.52)"/><path class="cls-3" d="M75.23,89.43a1.63,1.63,0,0,1,1-1.29v0a1.06,1.06,0,0,1-.6-1,1.41,1.41,0,0,1,.7-1.09V86a1.84,1.84,0,0,1-.72-1.51,2.14,2.14,0,0,1,2.29-2.09,2.28,2.28,0,0,1,.86.15h2.41v.8H79.62a1.79,1.79,0,0,1,.49,1.18,2,2,0,0,1-2.25,2,2.47,2.47,0,0,1-1-.22.82.82,0,0,0-.45.68c0,.45.44.67,1.21.67h1.31c1.5,0,2.22.38,2.22,1.36s-1.26,2-3.24,2C76.21,91.05,75.23,90.47,75.23,89.43Zm5-.26c0-.55-.44-.71-1.33-.71H77.71a3.36,3.36,0,0,1-.88-.09c-.56.3-.75.63-.75,1,0,.61.66,1,1.91,1S80.18,89.77,80.18,89.17Zm-1-4.69a1.32,1.32,0,0,0-1.34-1.37,1.38,1.38,0,0,0,0,2.75A1.31,1.31,0,0,0,79.2,84.48Z" transform="translate(-21.46 -20.52)"/><path class="cls-3" d="M82.29,85.46a2.81,2.81,0,0,1,2.64-3.07,2.51,2.51,0,0,1,1.75.75h0l0-1.07V79.83h1v8.54h-.82l-.08-.77h0a2.79,2.79,0,0,1-1.9.91C83.29,88.51,82.29,87.41,82.29,85.46Zm4.36,1.35v-2.9a2.14,2.14,0,0,0-1.52-.68,2,2,0,0,0-1.82,2.22c0,1.39.64,2.22,1.71,2.22A2.2,2.2,0,0,0,86.65,86.81Z" transform="translate(-21.46 -20.52)"/><path class="cls-3" d="M89.49,85.46a2.88,2.88,0,1,1,2.88,3.05A2.86,2.86,0,0,1,89.49,85.46Zm4.73,0c0-1.34-.74-2.24-1.85-2.24s-1.86.9-1.86,2.24.74,2.22,1.86,2.22S94.22,86.8,94.22,85.46Z" transform="translate(-21.46 -20.52)"/><path class="cls-3" d="M96.66,82.54h.79l.09.77h0a1.45,1.45,0,0,1,1.33-.92c.58,0,.94.34,1.11,1,.33-.62.69-1,1.36-1,.82,0,1.3.64,1.3,1.8v4.18h-1v-4.1c0-.68-.2-1-.63-1s-.62.3-.93.9v4.22h-.91v-4.1c0-.68-.17-1-.6-1s-.68.3-1,.9v4.22h-1Z" transform="translate(-21.46 -20.52)"/><path class="cls-3" d="M105.79,83.2a1,1,0,1,1,1,1A1,1,0,0,1,105.79,83.2Zm0,4.29a1,1,0,1,1,1,1A1,1,0,0,1,105.79,87.49Z" transform="translate(-21.46 -20.52)"/><path class="cls-3" d="M118.53,85.46a3,3,0,0,1,3.25-3.07,3,3,0,0,1,2.12.86l-.49.63a2.41,2.41,0,0,0-1.6-.66,2.14,2.14,0,0,0-2.26,2.24,2.11,2.11,0,0,0,2.24,2.22,2.76,2.76,0,0,0,1.8-.73l.44.65a3.5,3.5,0,0,1-2.31.91A2.93,2.93,0,0,1,118.53,85.46Z" transform="translate(-21.46 -20.52)"/><path class="cls-3" d="M125.88,79.83h1v2.32l-.06,1.38h0A3,3,0,0,1,129,82.39c1.38,0,2,.82,2,2.35v3.63h-1V84.88c0-1.11-.38-1.62-1.33-1.62-.69,0-1.16.35-1.83,1v4.07h-1Z" transform="translate(-21.46 -20.52)"/><path class="cls-3" d="M132.93,86.86c0-1.31,1.22-2,4.23-2.19a1.39,1.39,0,0,0-1.55-1.46,4,4,0,0,0-2,.7l-.39-.68a5.13,5.13,0,0,1,2.6-.84,2.17,2.17,0,0,1,2.38,2.4v3.58h-.83l-.09-.79h0a4,4,0,0,1-2.29.93A1.77,1.77,0,0,1,132.93,86.86Zm4.23,0V85.33c-2.5.19-3.25.69-3.25,1.45s.6.93,1.27.93A3.14,3.14,0,0,0,137.16,86.84Z" transform="translate(-21.46 -20.52)"/><path class="cls-3" d="M140.91,82.54h.82l.1,1.38h0a3.08,3.08,0,0,1,2.61-1.53,2.45,2.45,0,0,1,1.15.24l-.23.86A2.66,2.66,0,0,0,141.9,85v3.41h-1Z" transform="translate(-21.46 -20.52)"/><path class="cls-3" d="M147.32,86.86c0-1.31,1.23-2,4.24-2.19A1.39,1.39,0,0,0,150,83.21a4,4,0,0,0-2,.7l-.39-.68a5.13,5.13,0,0,1,2.6-.84,2.16,2.16,0,0,1,2.37,2.4v3.58h-.82l-.09-.79h0a4,4,0,0,1-2.29.93A1.78,1.78,0,0,1,147.32,86.86Zm4.24,0V85.33c-2.5.19-3.25.69-3.25,1.45s.6.93,1.27.93A3.14,3.14,0,0,0,151.56,86.84Z" transform="translate(-21.46 -20.52)"/><path class="cls-3" d="M154.53,85.46a3,3,0,0,1,3.25-3.07,3,3,0,0,1,2.12.86l-.49.63a2.41,2.41,0,0,0-1.6-.66,2.14,2.14,0,0,0-2.27,2.24,2.12,2.12,0,0,0,2.25,2.22,2.76,2.76,0,0,0,1.8-.73l.44.65a3.5,3.5,0,0,1-2.31.91A2.93,2.93,0,0,1,154.53,85.46Z" transform="translate(-21.46 -20.52)"/><path class="cls-3" d="M163.24,86.1V83.34h-1.66V82.6l1.69-.06.14-1.87h.82v1.87h2.86v.8h-2.86v2.77c0,1,.35,1.59,1.48,1.59a3.74,3.74,0,0,0,1.39-.27l.22.73a5.18,5.18,0,0,1-1.83.35C163.79,88.51,163.24,87.54,163.24,86.1Z" transform="translate(-21.46 -20.52)"/><path class="cls-3" d="M168.78,85.44a2.94,2.94,0,0,1,3-3,2.52,2.52,0,0,1,2.66,2.74,4.66,4.66,0,0,1,0,.6h-4.93V85h4.34l-.25.28c0-1.38-.68-2.07-1.75-2.07a2.06,2.06,0,0,0-2,2.27A2.12,2.12,0,0,0,172,87.72a3.23,3.23,0,0,0,1.78-.55l.36.64a4,4,0,0,1-2.26.7A3,3,0,0,1,168.78,85.44Z" transform="translate(-21.46 -20.52)"/><path class="cls-3" d="M176.91,82.54h.82l.1,1.38h0a3.08,3.08,0,0,1,2.6-1.53,2.46,2.46,0,0,1,1.16.24l-.23.86a2.8,2.8,0,0,0-1.08-.2A2.74,2.74,0,0,0,177.9,85v3.41h-1Z" transform="translate(-21.46 -20.52)"/><path class="cls-3" d="M192.06,85a6.66,6.66,0,0,1,2.69-5.44l.55.5a6.37,6.37,0,0,0,0,9.88l-.55.51A6.68,6.68,0,0,1,192.06,85Z" transform="translate(-21.46 -20.52)"/><path class="cls-3" d="M199.79,80.5h1.15l2.65,7.87h-1.08L201.16,84c-.28-.88-.54-1.74-.78-2.65h0c-.25.91-.51,1.77-.78,2.65l-1.38,4.39h-1Zm-1.25,4.66h3.61V86h-3.61Z" transform="translate(-21.46 -20.52)"/><path class="cls-3" d="M205.08,82.54h.82l.08,1H206a3,3,0,0,1,2.19-1.13c1.38,0,2,.82,2,2.35v3.63h-1V84.88c0-1.11-.38-1.62-1.33-1.62-.69,0-1.16.35-1.83,1v4.07h-1Z" transform="translate(-21.46 -20.52)"/><path class="cls-3" d="M214.94,83.34h-2.7v-.8h3.7v5.83h-1Zm-.39-2.79a.79.79,0,1,1,.79.76A.74.74,0,0,1,214.55,80.55Z" transform="translate(-21.46 -20.52)"/><path class="cls-3" d="M219.06,82.54h.79l.09.77h0a1.45,1.45,0,0,1,1.33-.92c.58,0,.94.34,1.11,1,.33-.62.69-1,1.36-1,.82,0,1.3.64,1.3,1.8v4.18h-1v-4.1c0-.68-.19-1-.62-1s-.62.3-.94.9v4.22h-.91v-4.1c0-.68-.16-1-.6-1s-.67.3-1,.9v4.22h-1Z" transform="translate(-21.46 -20.52)"/><path class="cls-3" d="M226.52,86.86c0-1.31,1.23-2,4.24-2.19a1.39,1.39,0,0,0-1.55-1.46,4,4,0,0,0-2,.7l-.39-.68a5.13,5.13,0,0,1,2.6-.84,2.17,2.17,0,0,1,2.37,2.4v3.58h-.82l-.09-.79h0a4,4,0,0,1-2.29.93C227.42,88.51,226.52,87.9,226.52,86.86Zm4.24,0V85.33c-2.5.19-3.25.69-3.25,1.45s.6.93,1.27.93A3.14,3.14,0,0,0,230.76,86.84Z" transform="translate(-21.46 -20.52)"/><path class="cls-3" d="M235.72,86.41V80.63h-2.07v-.8h3.06v6.65a1.05,1.05,0,0,0,1.15,1.2,2.58,2.58,0,0,0,1.09-.26l.26.74a3.53,3.53,0,0,1-1.56.35C236.4,88.51,235.72,87.79,235.72,86.41Z" transform="translate(-21.46 -20.52)"/><path class="cls-3" d="M243.74,83.34H241v-.8h3.7v5.83h-1Zm-.39-2.79a.79.79,0,1,1,.79.76A.74.74,0,0,1,243.35,80.55Z" transform="translate(-21.46 -20.52)"/><path class="cls-3" d="M248.12,86.86c0-1.31,1.23-2,4.24-2.19a1.39,1.39,0,0,0-1.55-1.46,4,4,0,0,0-2,.7l-.39-.68a5.13,5.13,0,0,1,2.6-.84,2.17,2.17,0,0,1,2.37,2.4v3.58h-.82l-.09-.79h0a4,4,0,0,1-2.29.93C249,88.51,248.12,87.9,248.12,86.86Zm4.24,0V85.33c-2.5.19-3.25.69-3.25,1.45s.6.93,1.27.93A3.14,3.14,0,0,0,252.36,86.84Z" transform="translate(-21.46 -20.52)"/><path class="cls-3" d="M255.83,90a6.37,6.37,0,0,0,0-9.88l.55-.5a6.86,6.86,0,0,1,0,10.89Z" transform="translate(-21.46 -20.52)"/><path class="cls-3" d="M39.39,98.44h5.15v.74H39.39Z" transform="translate(-21.46 -20.52)"/><path class="cls-3" d="M54,94.9h2.38c1.73,0,2.91.59,2.91,2.31s-1.19,2.44-2.91,2.44H55v3.12H54Zm2.26,3.93c1.36,0,2-.5,2-1.62s-.67-1.5-2-1.5H55v3.12Z" transform="translate(-21.46 -20.52)"/><path class="cls-3" d="M61.08,94.23h1v2.32L62,97.93h0a3,3,0,0,1,2.18-1.14c1.37,0,2,.82,2,2.35v3.63h-1V99.28c0-1.11-.38-1.62-1.33-1.62-.69,0-1.16.35-1.83,1v4.07h-1Z" transform="translate(-21.46 -20.52)"/><path class="cls-3" d="M68,105.15l.21-.79a1.72,1.72,0,0,0,.52.09,1.7,1.7,0,0,0,1.6-1.24l.17-.43-2.71-5.84h1l1.42,3.21c.23.52.48,1.13.72,1.69h0c.2-.55.43-1.16.62-1.69l1.26-3.21h1l-2.58,6.31a2.6,2.6,0,0,1-2.47,2A2.26,2.26,0,0,1,68,105.15Z" transform="translate(-21.46 -20.52)"/><path class="cls-3" d="M77.32,100.81V95H75.26v-.8h3v6.65a1.05,1.05,0,0,0,1.15,1.2,2.66,2.66,0,0,0,1.1-.26l.25.74a3.53,3.53,0,0,1-1.56.35C78,102.91,77.32,102.19,77.32,100.81Z" transform="translate(-21.46 -20.52)"/><path class="cls-3" d="M82.49,100.56V96.94h1v3.49c0,1.09.38,1.62,1.34,1.62A2.31,2.31,0,0,0,86.64,101v-4h1v5.83h-.83l-.09-1h0a2.85,2.85,0,0,1-2.17,1.16C83.13,102.91,82.49,102.09,82.49,100.56Z" transform="translate(-21.46 -20.52)"/><path class="cls-3" d="M89.46,96.94h.79l.09.77h0a1.45,1.45,0,0,1,1.33-.92c.58,0,.94.34,1.11,1,.33-.62.69-1,1.36-1,.82,0,1.3.64,1.3,1.8v4.18h-1v-4.1c0-.68-.2-1-.63-1s-.62.3-.93.89v4.23H92v-4.1c0-.68-.17-1-.6-1s-.68.3-1,.89v4.23h-1Z" transform="translate(-21.46 -20.52)"/><path class="cls-3" d="M98.59,97.6a1,1,0,1,1,1,1A1,1,0,0,1,98.59,97.6Zm0,4.29a1,1,0,1,1,1,1A1,1,0,0,1,98.59,101.89Z" transform="translate(-21.46 -20.52)"/><path class="cls-3" d="M111.33,99.86a3,3,0,0,1,3.25-3.07,3,3,0,0,1,2.12.86l-.49.63a2.41,2.41,0,0,0-1.6-.66,2.14,2.14,0,0,0-2.26,2.24,2.11,2.11,0,0,0,2.24,2.22,2.76,2.76,0,0,0,1.8-.73l.44.65a3.5,3.5,0,0,1-2.31.91A2.94,2.94,0,0,1,111.33,99.86Z" transform="translate(-21.46 -20.52)"/><path class="cls-3" d="M118.68,94.23h1v2.32l-.06,1.38h0a3,3,0,0,1,2.17-1.14c1.38,0,2,.82,2,2.35v3.63h-1V99.28c0-1.11-.38-1.62-1.33-1.62-.69,0-1.16.35-1.83,1v4.07h-1Z" transform="translate(-21.46 -20.52)"/><path class="cls-3" d="M125.73,101.26c0-1.31,1.22-2,4.23-2.19a1.39,1.39,0,0,0-1.55-1.46,4,4,0,0,0-2,.7l-.39-.68a5.13,5.13,0,0,1,2.6-.84,2.16,2.16,0,0,1,2.37,2.4v3.58h-.82L130,102h0a4,4,0,0,1-2.29.93A1.77,1.77,0,0,1,125.73,101.26Zm4.23,0V99.73c-2.5.19-3.25.69-3.25,1.45s.6.93,1.27.93A3.2,3.2,0,0,0,130,101.24Z" transform="translate(-21.46 -20.52)"/><path class="cls-3" d="M133.71,96.94h.82l.1,1.38h0a3.08,3.08,0,0,1,2.61-1.53,2.45,2.45,0,0,1,1.15.24l-.23.86a2.66,2.66,0,0,0-3.48,1.47v3.41h-1Z" transform="translate(-21.46 -20.52)"/><path class="cls-3" d="M140.13,101.26c0-1.31,1.22-2,4.23-2.19a1.39,1.39,0,0,0-1.55-1.46,4,4,0,0,0-2,.7l-.39-.68a5.13,5.13,0,0,1,2.6-.84,2.17,2.17,0,0,1,2.38,2.4v3.58h-.83l-.09-.79h0a4,4,0,0,1-2.29.93A1.77,1.77,0,0,1,140.13,101.26Zm4.23,0V99.73c-2.49.19-3.25.69-3.25,1.45s.6.93,1.27.93A3.2,3.2,0,0,0,144.36,101.24Z" transform="translate(-21.46 -20.52)"/><path class="cls-3" d="M147.32,99.86a3,3,0,0,1,3.26-3.07,3,3,0,0,1,2.12.86l-.49.63a2.41,2.41,0,0,0-1.6-.66,2.14,2.14,0,0,0-2.27,2.24,2.12,2.12,0,0,0,2.25,2.22,2.76,2.76,0,0,0,1.8-.73l.44.65a3.5,3.5,0,0,1-2.31.91A3,3,0,0,1,147.32,99.86Z" transform="translate(-21.46 -20.52)"/><path class="cls-3" d="M156,100.5V97.74h-1.66V97l1.69-.06.13-1.87H157v1.87h2.86v.8H157v2.77c0,1,.35,1.58,1.48,1.58a3.74,3.74,0,0,0,1.39-.26l.22.73a5.18,5.18,0,0,1-1.83.35C156.59,102.91,156,101.94,156,100.5Z" transform="translate(-21.46 -20.52)"/><path class="cls-3" d="M161.58,99.84a2.94,2.94,0,0,1,3-3,2.51,2.51,0,0,1,2.66,2.74,3.37,3.37,0,0,1-.05.6h-4.93v-.77h4.34l-.25.28c0-1.38-.68-2.07-1.75-2.07a2.05,2.05,0,0,0-2,2.27,2.11,2.11,0,0,0,2.27,2.28,3.23,3.23,0,0,0,1.78-.55l.36.64a4,4,0,0,1-2.26.7A3,3,0,0,1,161.58,99.84Z" transform="translate(-21.46 -20.52)"/><path class="cls-3" d="M169.7,96.94h.83l.1,1.38h0a3.08,3.08,0,0,1,2.6-1.53,2.46,2.46,0,0,1,1.16.24l-.23.86a2.8,2.8,0,0,0-1.08-.2,2.74,2.74,0,0,0-2.4,1.67v3.41h-1Z" transform="translate(-21.46 -20.52)"/><path class="cls-3" d="M39.39,112.84h5.15v.74H39.39Z" transform="translate(-21.46 -20.52)"/><path class="cls-3" d="M53.55,113.23c0-2.53,1.47-4.07,3.52-4.07a3,3,0,0,1,2.16,1l-.57.64a2.14,2.14,0,0,0-1.59-.71c-1.5,0-2.48,1.21-2.48,3.17s1,3.21,2.48,3.21a2.28,2.28,0,0,0,1.77-.86l.57.61A3,3,0,0,1,57,117.31C55,117.31,53.55,115.8,53.55,113.23Z" transform="translate(-21.46 -20.52)"/><path class="cls-3" d="M62.92,115.21v-5.78H60.86v-.8h3v6.65a1.05,1.05,0,0,0,1.15,1.2,2.66,2.66,0,0,0,1.1-.26l.25.74a3.53,3.53,0,0,1-1.56.35C63.6,117.31,62.92,116.59,62.92,115.21Z" transform="translate(-21.46 -20.52)"/><path class="cls-3" d="M68.13,115.66c0-1.31,1.22-2,4.23-2.19A1.39,1.39,0,0,0,70.81,112a4,4,0,0,0-2,.7l-.39-.68a5.13,5.13,0,0,1,2.6-.84,2.17,2.17,0,0,1,2.38,2.4v3.58h-.83l-.08-.79h0a4,4,0,0,1-2.29.93A1.77,1.77,0,0,1,68.13,115.66Zm4.23,0v-1.51c-2.49.19-3.25.69-3.25,1.45s.6.93,1.27.93A3.14,3.14,0,0,0,72.36,115.64Z" transform="translate(-21.46 -20.52)"/><path class="cls-3" d="M75.22,116.4l.45-.66a4.2,4.2,0,0,0,2.54.79c1,0,1.46-.41,1.46-.9s-.23-.75-1.81-1.08-2.28-.82-2.28-1.7.83-1.66,2.42-1.66a4.32,4.32,0,0,1,2.35.75l-.48.63a3.45,3.45,0,0,0-2-.61c-1,0-1.35.4-1.35.84s.51.72,1.71,1c1.93.42,2.4.9,2.4,1.8s-.93,1.74-2.59,1.74A5.15,5.15,0,0,1,75.22,116.4Z" transform="translate(-21.46 -20.52)"/><path class="cls-3" d="M82.42,116.4l.45-.66a4.2,4.2,0,0,0,2.54.79c1,0,1.46-.41,1.46-.9s-.23-.75-1.81-1.08-2.28-.82-2.28-1.7.83-1.66,2.42-1.66a4.32,4.32,0,0,1,2.35.75l-.48.63a3.45,3.45,0,0,0-1.95-.61c-1,0-1.35.4-1.35.84s.51.72,1.71,1c1.93.42,2.4.9,2.4,1.8s-.93,1.74-2.6,1.74A5.14,5.14,0,0,1,82.42,116.4Z" transform="translate(-21.46 -20.52)"/><path class="cls-3" d="M91.39,112a1,1,0,1,1,2,0,1,1,0,1,1-2,0Zm0,4.29a1,1,0,1,1,2,0,1,1,0,1,1-2,0Z" transform="translate(-21.46 -20.52)"/><path class="cls-3" d="M104.13,114.26a3,3,0,0,1,3.25-3.07,3,3,0,0,1,2.12.86l-.49.63a2.41,2.41,0,0,0-1.6-.66,2.14,2.14,0,0,0-2.26,2.24,2.11,2.11,0,0,0,2.24,2.22,2.76,2.76,0,0,0,1.8-.73l.44.65a3.45,3.45,0,0,1-2.31.91A2.93,2.93,0,0,1,104.13,114.26Z" transform="translate(-21.46 -20.52)"/><path class="cls-3" d="M111.48,108.63h1V111l-.06,1.38h0a3,3,0,0,1,2.17-1.14c1.38,0,2,.82,2,2.35v3.63h-1v-3.49c0-1.11-.38-1.62-1.33-1.62-.69,0-1.16.35-1.83,1v4.07h-1Z" transform="translate(-21.46 -20.52)"/><path class="cls-3" d="M118.53,115.66c0-1.31,1.22-2,4.23-2.19a1.39,1.39,0,0,0-1.55-1.46,4,4,0,0,0-2,.7l-.39-.68a5.13,5.13,0,0,1,2.6-.84,2.17,2.17,0,0,1,2.38,2.4v3.58h-.83l-.09-.79h0a4,4,0,0,1-2.29.93A1.77,1.77,0,0,1,118.53,115.66Zm4.23,0v-1.51c-2.49.19-3.25.69-3.25,1.45s.6.93,1.27.93A3.14,3.14,0,0,0,122.76,115.64Z" transform="translate(-21.46 -20.52)"/><path class="cls-3" d="M126.51,111.34h.82l.1,1.38h0a3.08,3.08,0,0,1,2.61-1.53,2.45,2.45,0,0,1,1.15.24l-.23.86a2.66,2.66,0,0,0-3.48,1.47v3.41h-1Z" transform="translate(-21.46 -20.52)"/><path class="cls-3" d="M132.93,115.66c0-1.31,1.22-2,4.23-2.19a1.39,1.39,0,0,0-1.55-1.46,4,4,0,0,0-2,.7l-.39-.68a5.13,5.13,0,0,1,2.6-.84,2.17,2.17,0,0,1,2.38,2.4v3.58h-.83l-.09-.79h0a4,4,0,0,1-2.29.93A1.77,1.77,0,0,1,132.93,115.66Zm4.23,0v-1.51c-2.5.19-3.25.69-3.25,1.45s.6.93,1.27.93A3.14,3.14,0,0,0,137.16,115.64Z" transform="translate(-21.46 -20.52)"/><path class="cls-3" d="M140.13,114.26a3,3,0,0,1,3.25-3.07,3,3,0,0,1,2.12.86l-.49.63a2.41,2.41,0,0,0-1.6-.66,2.14,2.14,0,0,0-2.26,2.24,2.11,2.11,0,0,0,2.24,2.22,2.76,2.76,0,0,0,1.8-.73l.44.65a3.45,3.45,0,0,1-2.31.91A2.93,2.93,0,0,1,140.13,114.26Z" transform="translate(-21.46 -20.52)"/><path class="cls-3" d="M148.84,114.9v-2.76h-1.66v-.74l1.69-.06.13-1.87h.83v1.87h2.86v.8h-2.86v2.77c0,1,.35,1.59,1.48,1.59a3.74,3.74,0,0,0,1.39-.27l.21.73a5.08,5.08,0,0,1-1.82.35C149.39,117.31,148.84,116.34,148.84,114.9Z" transform="translate(-21.46 -20.52)"/><path class="cls-3" d="M154.38,114.24a2.94,2.94,0,0,1,3-3,2.52,2.52,0,0,1,2.66,2.74,4.66,4.66,0,0,1-.05.6H155v-.77h4.34l-.25.28c0-1.38-.68-2.07-1.75-2.07a2.05,2.05,0,0,0-2,2.27,2.11,2.11,0,0,0,2.27,2.28,3.23,3.23,0,0,0,1.78-.55l.36.65a4,4,0,0,1-2.26.69A3,3,0,0,1,154.38,114.24Z" transform="translate(-21.46 -20.52)"/><path class="cls-3" d="M162.51,111.34h.82l.1,1.38h0a3.08,3.08,0,0,1,2.61-1.53,2.45,2.45,0,0,1,1.15.24l-.23.86a2.66,2.66,0,0,0-3.48,1.47v3.41h-1Z" transform="translate(-21.46 -20.52)"/><path class="cls-3" d="M39.39,127.24h5.15V128H39.39Z" transform="translate(-21.46 -20.52)"/><path class="cls-3" d="M53.34,127.6c0-2.55,1.25-4,3-4s3,1.49,3,4-1.25,4.11-3,4.11S53.34,130.18,53.34,127.6Zm5,0c0-2-.8-3.16-2-3.16s-2,1.18-2,3.16.79,3.22,2,3.22S58.35,129.61,58.35,127.6Z" transform="translate(-21.46 -20.52)"/><path class="cls-3" d="M61.71,125.74h.82l.1,1.38h0a3.1,3.1,0,0,1,2.61-1.53,2.45,2.45,0,0,1,1.15.24l-.23.86a2.66,2.66,0,0,0-3.48,1.47v3.41h-1Z" transform="translate(-21.46 -20.52)"/><path class="cls-3" d="M67.89,128.66a2.81,2.81,0,0,1,2.64-3.07,2.51,2.51,0,0,1,1.75.75h0l0-1.07V123h1v8.54h-.82l-.08-.77h0a2.79,2.79,0,0,1-1.9.91C68.89,131.71,67.89,130.61,67.89,128.66ZM72.25,130v-2.9a2.13,2.13,0,0,0-1.52-.68,2,2,0,0,0-1.82,2.22c0,1.39.64,2.22,1.71,2.22A2.2,2.2,0,0,0,72.25,130Z" transform="translate(-21.46 -20.52)"/><path class="cls-3" d="M75.18,128.64a2.94,2.94,0,0,1,3-3,2.51,2.51,0,0,1,2.66,2.74,3.37,3.37,0,0,1,0,.6H75.84v-.77h4.34l-.25.28c0-1.38-.68-2.07-1.75-2.07a2.05,2.05,0,0,0-2,2.27,2.12,2.12,0,0,0,2.28,2.28,3.22,3.22,0,0,0,1.77-.55l.36.65a4,4,0,0,1-2.25.69A3,3,0,0,1,75.18,128.64Z" transform="translate(-21.46 -20.52)"/><path class="cls-3" d="M83.31,125.74h.82l.1,1.38h0a3.1,3.1,0,0,1,2.61-1.53,2.45,2.45,0,0,1,1.15.24l-.23.86a2.66,2.66,0,0,0-3.48,1.47v3.41h-1Z" transform="translate(-21.46 -20.52)"/><path class="cls-3" d="M91.39,126.4a1,1,0,1,1,2,0,1,1,0,1,1-2,0Zm0,4.29a1,1,0,1,1,2,0,1,1,0,1,1-2,0Z" transform="translate(-21.46 -20.52)"/><path class="cls-3" d="M104.13,128.66a3,3,0,0,1,3.25-3.07,3,3,0,0,1,2.12.86l-.49.63a2.41,2.41,0,0,0-1.6-.66,2.14,2.14,0,0,0-2.26,2.24,2.11,2.11,0,0,0,2.24,2.22,2.76,2.76,0,0,0,1.8-.73l.44.65a3.45,3.45,0,0,1-2.31.91A2.93,2.93,0,0,1,104.13,128.66Z" transform="translate(-21.46 -20.52)"/><path class="cls-3" d="M111.48,123h1v2.32l-.06,1.38h0a3,3,0,0,1,2.17-1.14c1.38,0,2,.82,2,2.35v3.63h-1v-3.49c0-1.11-.38-1.62-1.33-1.62-.69,0-1.16.35-1.83,1v4.07h-1Z" transform="translate(-21.46 -20.52)"/><path class="cls-3" d="M118.53,130.06c0-1.31,1.22-1.95,4.23-2.19a1.39,1.39,0,0,0-1.55-1.46,4,4,0,0,0-2,.7l-.39-.68a5.13,5.13,0,0,1,2.6-.84,2.17,2.17,0,0,1,2.38,2.4v3.58h-.83l-.09-.79h0a4,4,0,0,1-2.29.93A1.77,1.77,0,0,1,118.53,130.06Zm4.23,0v-1.51c-2.49.19-3.25.69-3.25,1.45s.6.93,1.27.93A3.14,3.14,0,0,0,122.76,130Z" transform="translate(-21.46 -20.52)"/><path class="cls-3" d="M126.51,125.74h.82l.1,1.38h0a3.08,3.08,0,0,1,2.61-1.53,2.45,2.45,0,0,1,1.15.24l-.23.86a2.66,2.66,0,0,0-3.48,1.47v3.41h-1Z" transform="translate(-21.46 -20.52)"/><path class="cls-3" d="M132.93,130.06c0-1.31,1.22-1.95,4.23-2.19a1.39,1.39,0,0,0-1.55-1.46,4,4,0,0,0-2,.7l-.39-.68a5.13,5.13,0,0,1,2.6-.84,2.17,2.17,0,0,1,2.38,2.4v3.58h-.83l-.09-.79h0a4,4,0,0,1-2.29.93A1.77,1.77,0,0,1,132.93,130.06Zm4.23,0v-1.51c-2.5.19-3.25.69-3.25,1.45s.6.93,1.27.93A3.14,3.14,0,0,0,137.16,130Z" transform="translate(-21.46 -20.52)"/><path class="cls-3" d="M140.13,128.66a3,3,0,0,1,3.25-3.07,3,3,0,0,1,2.12.86l-.49.63a2.41,2.41,0,0,0-1.6-.66,2.14,2.14,0,0,0-2.26,2.24,2.11,2.11,0,0,0,2.24,2.22,2.76,2.76,0,0,0,1.8-.73l.44.65a3.45,3.45,0,0,1-2.31.91A2.93,2.93,0,0,1,140.13,128.66Z" transform="translate(-21.46 -20.52)"/><path class="cls-3" d="M148.84,129.3v-2.76h-1.66v-.74l1.69-.06.13-1.87h.83v1.87h2.86v.8h-2.86v2.77c0,1.05.35,1.59,1.48,1.59a3.74,3.74,0,0,0,1.39-.27l.21.73a5.08,5.08,0,0,1-1.82.35C149.39,131.71,148.84,130.74,148.84,129.3Z" transform="translate(-21.46 -20.52)"/><path class="cls-3" d="M154.38,128.64a2.94,2.94,0,0,1,3-3,2.52,2.52,0,0,1,2.66,2.74,4.66,4.66,0,0,1-.05.6H155v-.77h4.34l-.25.28c0-1.38-.68-2.07-1.75-2.07a2.05,2.05,0,0,0-2,2.27,2.11,2.11,0,0,0,2.27,2.28,3.23,3.23,0,0,0,1.78-.55l.36.65a4,4,0,0,1-2.26.69A3,3,0,0,1,154.38,128.64Z" transform="translate(-21.46 -20.52)"/><path class="cls-3" d="M162.51,125.74h.82l.1,1.38h0a3.08,3.08,0,0,1,2.61-1.53,2.45,2.45,0,0,1,1.15.24l-.23.86a2.66,2.66,0,0,0-3.48,1.47v3.41h-1Z" transform="translate(-21.46 -20.52)"/><path class="cls-3" d="M39.39,141.64h5.15v.74H39.39Z" transform="translate(-21.46 -20.52)"/><path class="cls-3" d="M54.36,138.1H59.2V139H55.37v2.65h3.24v.85H55.37V146h-1Z" transform="translate(-21.46 -20.52)"/><path class="cls-3" d="M60.93,144.46c0-1.31,1.22-2,4.23-2.19a1.39,1.39,0,0,0-1.55-1.46,4,4,0,0,0-2,.7l-.39-.68a5.13,5.13,0,0,1,2.6-.84,2.17,2.17,0,0,1,2.38,2.4V146h-.83l-.09-.79h0a4,4,0,0,1-2.29.93A1.77,1.77,0,0,1,60.93,144.46Zm4.23,0v-1.51c-2.49.19-3.25.69-3.25,1.45s.6.93,1.27.93A3.14,3.14,0,0,0,65.16,144.44Z" transform="translate(-21.46 -20.52)"/><path class="cls-3" d="M67.86,140.14h.8l.08.77h0a1.45,1.45,0,0,1,1.33-.92c.58,0,.94.34,1.11,1,.33-.62.69-1,1.36-1s1.3.64,1.3,1.8V146h-1v-4.1c0-.68-.2-1-.63-1s-.62.3-.93.9V146h-.91v-4.1c0-.68-.17-1-.6-1s-.68.3-1,.9V146h-1Z" transform="translate(-21.46 -20.52)"/><path class="cls-3" d="M78.15,140.94h-2.7v-.8h3.69V146h-1Zm-.4-2.79a.79.79,0,0,1,1.58,0,.79.79,0,0,1-1.58,0Z" transform="translate(-21.46 -20.52)"/><path class="cls-3" d="M84.52,144v-5.78H82.45v-.8h3.06v6.65a1.05,1.05,0,0,0,1.15,1.2,2.66,2.66,0,0,0,1.1-.26l.25.74a3.53,3.53,0,0,1-1.56.35C85.2,146.11,84.52,145.39,84.52,144Z" transform="translate(-21.46 -20.52)"/><path class="cls-3" d="M89.57,148.35l.2-.79a1.84,1.84,0,0,0,.53.09,1.7,1.7,0,0,0,1.6-1.24l.17-.43-2.71-5.84h1l1.42,3.21c.23.52.48,1.13.72,1.69h0c.2-.55.43-1.16.62-1.69l1.26-3.21h1l-2.58,6.31a2.6,2.6,0,0,1-2.47,2A2.22,2.22,0,0,1,89.57,148.35Z" transform="translate(-21.46 -20.52)"/><path class="cls-3" d="M98.59,140.8a1,1,0,1,1,1,1A1,1,0,0,1,98.59,140.8Zm0,4.29a1,1,0,1,1,1,1A1,1,0,0,1,98.59,145.09Z" transform="translate(-21.46 -20.52)"/><path class="cls-3" d="M111.33,143.06a3,3,0,0,1,3.25-3.07,3,3,0,0,1,2.12.86l-.49.63a2.41,2.41,0,0,0-1.6-.66,2.14,2.14,0,0,0-2.26,2.24,2.11,2.11,0,0,0,2.24,2.22,2.76,2.76,0,0,0,1.8-.73l.44.65a3.5,3.5,0,0,1-2.31.91A2.93,2.93,0,0,1,111.33,143.06Z" transform="translate(-21.46 -20.52)"/><path class="cls-3" d="M118.68,137.43h1v2.32l-.06,1.38h0a3,3,0,0,1,2.17-1.14c1.38,0,2,.82,2,2.35V146h-1v-3.49c0-1.11-.38-1.62-1.33-1.62-.69,0-1.16.35-1.83,1V146h-1Z" transform="translate(-21.46 -20.52)"/><path class="cls-3" d="M125.73,144.46c0-1.31,1.22-2,4.23-2.19a1.39,1.39,0,0,0-1.55-1.46,4,4,0,0,0-2,.7l-.39-.68a5.13,5.13,0,0,1,2.6-.84,2.16,2.16,0,0,1,2.37,2.4V146h-.82l-.09-.79h0a4,4,0,0,1-2.29.93A1.77,1.77,0,0,1,125.73,144.46Zm4.23,0v-1.51c-2.5.19-3.25.69-3.25,1.45s.6.93,1.27.93A3.14,3.14,0,0,0,130,144.44Z" transform="translate(-21.46 -20.52)"/><path class="cls-3" d="M133.71,140.14h.82l.1,1.38h0a3.08,3.08,0,0,1,2.61-1.53,2.45,2.45,0,0,1,1.15.24l-.23.86a2.66,2.66,0,0,0-3.48,1.47V146h-1Z" transform="translate(-21.46 -20.52)"/><path class="cls-3" d="M140.13,144.46c0-1.31,1.22-2,4.23-2.19a1.39,1.39,0,0,0-1.55-1.46,4,4,0,0,0-2,.7l-.39-.68A5.13,5.13,0,0,1,143,140a2.17,2.17,0,0,1,2.38,2.4V146h-.83l-.09-.79h0a4,4,0,0,1-2.29.93A1.77,1.77,0,0,1,140.13,144.46Zm4.23,0v-1.51c-2.49.19-3.25.69-3.25,1.45s.6.93,1.27.93A3.14,3.14,0,0,0,144.36,144.44Z" transform="translate(-21.46 -20.52)"/><path class="cls-3" d="M147.32,143.06a3,3,0,0,1,3.26-3.07,3,3,0,0,1,2.12.86l-.49.63a2.41,2.41,0,0,0-1.6-.66,2.14,2.14,0,0,0-2.27,2.24,2.12,2.12,0,0,0,2.25,2.22,2.76,2.76,0,0,0,1.8-.73l.44.65a3.5,3.5,0,0,1-2.31.91A2.94,2.94,0,0,1,147.32,143.06Z" transform="translate(-21.46 -20.52)"/><path class="cls-3" d="M156,143.7v-2.76h-1.66v-.74l1.69-.06.13-1.87H157v1.87h2.86v.8H157v2.77c0,1,.35,1.58,1.48,1.58a3.74,3.74,0,0,0,1.39-.26l.22.73a5.18,5.18,0,0,1-1.83.35C156.59,146.11,156,145.14,156,143.7Z" transform="translate(-21.46 -20.52)"/><path class="cls-3" d="M161.58,143a2.94,2.94,0,0,1,3-3,2.51,2.51,0,0,1,2.66,2.74,3.37,3.37,0,0,1-.05.6h-4.93v-.77h4.34l-.25.28c0-1.38-.68-2.07-1.75-2.07a2.05,2.05,0,0,0-2,2.27,2.11,2.11,0,0,0,2.27,2.28,3.23,3.23,0,0,0,1.78-.55l.36.65a4,4,0,0,1-2.26.69A3,3,0,0,1,161.58,143Z" transform="translate(-21.46 -20.52)"/><path class="cls-3" d="M169.7,140.14h.83l.1,1.38h0a3.08,3.08,0,0,1,2.6-1.53,2.46,2.46,0,0,1,1.16.24l-.23.86a2.8,2.8,0,0,0-1.08-.2,2.74,2.74,0,0,0-2.4,1.67V146h-1Z" transform="translate(-21.46 -20.52)"/><path class="cls-3" d="M39.39,156h5.15v.74H39.39Z" transform="translate(-21.46 -20.52)"/><path class="cls-3" d="M53.4,156.43c0-2.54,1.45-4.07,3.49-4.07a2.9,2.9,0,0,1,2.17.95l-.57.64a2,2,0,0,0-1.6-.71c-1.47,0-2.43,1.21-2.43,3.17s.87,3.21,2.41,3.21a1.93,1.93,0,0,0,1.35-.45v-2H56.67v-.83h2.49v3.31a3.32,3.32,0,0,1-2.35.91C54.83,160.51,53.4,159,53.4,156.43Z" transform="translate(-21.46 -20.52)"/><path class="cls-3" d="M60.78,157.44a2.94,2.94,0,0,1,3-3.05,2.51,2.51,0,0,1,2.66,2.74,3.37,3.37,0,0,1,0,.6H61.44V157h4.34l-.25.28c0-1.38-.68-2.07-1.75-2.07a2.05,2.05,0,0,0-2,2.27,2.12,2.12,0,0,0,2.28,2.28,3.22,3.22,0,0,0,1.77-.55l.36.64a4,4,0,0,1-2.25.7A3,3,0,0,1,60.78,157.44Z" transform="translate(-21.46 -20.52)"/><path class="cls-3" d="M68.28,154.54h.82l.08,1h0a3,3,0,0,1,2.2-1.13c1.37,0,2,.82,2,2.35v3.63h-1v-3.49c0-1.11-.39-1.62-1.34-1.62-.69,0-1.16.35-1.83,1v4.07h-1Z" transform="translate(-21.46 -20.52)"/><path class="cls-3" d="M75.29,158.16v-3.62h1V158c0,1.09.38,1.62,1.34,1.62a2.31,2.31,0,0,0,1.81-1.07v-4h1v5.83h-.83l-.09-1h0a2.85,2.85,0,0,1-2.17,1.16C75.93,160.51,75.29,159.7,75.29,158.16Z" transform="translate(-21.46 -20.52)"/><path class="cls-3" d="M82.42,159.6l.45-.66a4.2,4.2,0,0,0,2.54.79c1,0,1.46-.41,1.46-.9s-.23-.75-1.81-1.08-2.28-.83-2.28-1.7.83-1.66,2.42-1.66a4.32,4.32,0,0,1,2.35.75l-.48.63a3.45,3.45,0,0,0-1.95-.61c-1,0-1.35.4-1.35.84s.51.72,1.71,1c1.93.42,2.4.9,2.4,1.8s-.93,1.74-2.6,1.74A5.14,5.14,0,0,1,82.42,159.6Z" transform="translate(-21.46 -20.52)"/><path class="cls-3" d="M91.39,155.2a1,1,0,1,1,2,0,1,1,0,1,1-2,0Zm0,4.29a1,1,0,1,1,2,0,1,1,0,1,1-2,0Z" transform="translate(-21.46 -20.52)"/><path class="cls-3" d="M104.13,157.46a3,3,0,0,1,3.25-3.07,3,3,0,0,1,2.12.86l-.49.63a2.41,2.41,0,0,0-1.6-.66,2.14,2.14,0,0,0-2.26,2.24,2.11,2.11,0,0,0,2.24,2.22,2.76,2.76,0,0,0,1.8-.73l.44.65a3.5,3.5,0,0,1-2.31.91A2.93,2.93,0,0,1,104.13,157.46Z" transform="translate(-21.46 -20.52)"/><path class="cls-3" d="M111.48,151.83h1v2.32l-.06,1.38h0a3,3,0,0,1,2.17-1.14c1.38,0,2,.82,2,2.35v3.63h-1v-3.49c0-1.11-.38-1.62-1.33-1.62-.69,0-1.16.35-1.83,1v4.07h-1Z" transform="translate(-21.46 -20.52)"/><path class="cls-3" d="M118.53,158.86c0-1.31,1.22-2,4.23-2.19a1.39,1.39,0,0,0-1.55-1.46,4,4,0,0,0-2,.7l-.39-.68a5.13,5.13,0,0,1,2.6-.84,2.17,2.17,0,0,1,2.38,2.4v3.58h-.83l-.09-.79h0a4,4,0,0,1-2.29.93A1.77,1.77,0,0,1,118.53,158.86Zm4.23,0v-1.51c-2.49.19-3.25.69-3.25,1.45s.6.93,1.27.93A3.14,3.14,0,0,0,122.76,158.84Z" transform="translate(-21.46 -20.52)"/><path class="cls-3" d="M126.51,154.54h.82l.1,1.38h0a3.08,3.08,0,0,1,2.61-1.53,2.45,2.45,0,0,1,1.15.24l-.23.86A2.66,2.66,0,0,0,127.5,157v3.41h-1Z" transform="translate(-21.46 -20.52)"/><path class="cls-3" d="M132.93,158.86c0-1.31,1.22-2,4.23-2.19a1.39,1.39,0,0,0-1.55-1.46,4,4,0,0,0-2,.7l-.39-.68a5.13,5.13,0,0,1,2.6-.84,2.17,2.17,0,0,1,2.38,2.4v3.58h-.83l-.09-.79h0a4,4,0,0,1-2.29.93A1.77,1.77,0,0,1,132.93,158.86Zm4.23,0v-1.51c-2.5.19-3.25.69-3.25,1.45s.6.93,1.27.93A3.14,3.14,0,0,0,137.16,158.84Z" transform="translate(-21.46 -20.52)"/><path class="cls-3" d="M140.13,157.46a3,3,0,0,1,3.25-3.07,3,3,0,0,1,2.12.86l-.49.63a2.41,2.41,0,0,0-1.6-.66,2.14,2.14,0,0,0-2.26,2.24,2.11,2.11,0,0,0,2.24,2.22,2.76,2.76,0,0,0,1.8-.73l.44.65a3.5,3.5,0,0,1-2.31.91A2.93,2.93,0,0,1,140.13,157.46Z" transform="translate(-21.46 -20.52)"/><path class="cls-3" d="M148.84,158.1v-2.76h-1.66v-.74l1.69-.06.13-1.87h.83v1.87h2.86v.8h-2.86v2.77c0,1,.35,1.59,1.48,1.59a3.74,3.74,0,0,0,1.39-.27l.21.73a5.08,5.08,0,0,1-1.82.35C149.39,160.51,148.84,159.54,148.84,158.1Z" transform="translate(-21.46 -20.52)"/><path class="cls-3" d="M154.38,157.44a2.94,2.94,0,0,1,3-3.05,2.52,2.52,0,0,1,2.66,2.74,4.66,4.66,0,0,1-.05.6H155V157h4.34l-.25.28c0-1.38-.68-2.07-1.75-2.07a2.05,2.05,0,0,0-2,2.27,2.11,2.11,0,0,0,2.27,2.28,3.23,3.23,0,0,0,1.78-.55l.36.64a4,4,0,0,1-2.26.7A3,3,0,0,1,154.38,157.44Z" transform="translate(-21.46 -20.52)"/><path class="cls-3" d="M162.51,154.54h.82l.1,1.38h0a3.08,3.08,0,0,1,2.61-1.53,2.45,2.45,0,0,1,1.15.24l-.23.86A2.66,2.66,0,0,0,163.5,157v3.41h-1Z" transform="translate(-21.46 -20.52)"/><path class="cls-3" d="M39.39,170.44h5.15v.74H39.39Z" transform="translate(-21.46 -20.52)"/><path class="cls-3" d="M53.57,173.75l.6-.7a3.31,3.31,0,0,0,2.3,1c1.08,0,1.71-.51,1.71-1.23s-.61-1.08-1.41-1.42l-1.14-.5a2.23,2.23,0,0,1-1.69-2c0-1.2,1.08-2.09,2.58-2.09a3.39,3.39,0,0,1,2.42,1l-.52.64a2.81,2.81,0,0,0-1.93-.73c-.92,0-1.53.43-1.53,1.14s.73,1,1.41,1.3l1.1.49c1,.38,1.74.93,1.74,2.1s-1.06,2.24-2.78,2.24A4,4,0,0,1,53.57,173.75Z" transform="translate(-21.46 -20.52)"/><path class="cls-3" d="M61.08,168.94h.82l.08.74h0a3.13,3.13,0,0,1,2-.89c1.57,0,2.41,1.17,2.41,3,0,2-1.24,3.14-2.65,3.14a2.78,2.78,0,0,1-1.74-.76h0l0,1.11v2h-1Zm4.34,2.83c0-1.29-.48-2.14-1.64-2.14a2.49,2.49,0,0,0-1.7.87v2.9a2.44,2.44,0,0,0,1.55.67C64.66,174.07,65.42,173.21,65.42,171.77Z" transform="translate(-21.46 -20.52)"/><path class="cls-3" d="M68,171.84a2.94,2.94,0,0,1,3-3.05,2.51,2.51,0,0,1,2.66,2.74,3.37,3.37,0,0,1-.05.6H68.64v-.77H73l-.25.28c0-1.38-.68-2.07-1.75-2.07a2.05,2.05,0,0,0-2,2.27,2.12,2.12,0,0,0,2.28,2.28,3.22,3.22,0,0,0,1.77-.55l.36.64a4,4,0,0,1-2.25.7A3,3,0,0,1,68,171.84Z" transform="translate(-21.46 -20.52)"/><path class="cls-3" d="M75.33,171.86a3,3,0,0,1,3.25-3.07,3,3,0,0,1,2.12.86l-.49.63a2.41,2.41,0,0,0-1.6-.66,2.14,2.14,0,0,0-2.26,2.24,2.11,2.11,0,0,0,2.24,2.22,2.76,2.76,0,0,0,1.8-.73l.44.65a3.5,3.5,0,0,1-2.31.91A2.94,2.94,0,0,1,75.33,171.86Z" transform="translate(-21.46 -20.52)"/><path class="cls-3" d="M85.35,169.74h-2.7v-.8h3.69v5.83h-1ZM85,167a.79.79,0,0,1,1.58,0A.79.79,0,0,1,85,167Z" transform="translate(-21.46 -20.52)"/><path class="cls-3" d="M89.58,171.84a2.94,2.94,0,0,1,3-3.05,2.51,2.51,0,0,1,2.66,2.74,3.37,3.37,0,0,1,0,.6H90.24v-.77h4.34l-.25.28c0-1.38-.68-2.07-1.75-2.07a2.05,2.05,0,0,0-2,2.27,2.12,2.12,0,0,0,2.28,2.28,3.22,3.22,0,0,0,1.77-.55l.36.64a4,4,0,0,1-2.25.7A3,3,0,0,1,89.58,171.84Z" transform="translate(-21.46 -20.52)"/><path class="cls-3" d="M96.82,174l.45-.66a4.19,4.19,0,0,0,2.53.79c1,0,1.47-.41,1.47-.9s-.23-.75-1.81-1.08-2.28-.83-2.28-1.7.83-1.66,2.42-1.66a4.32,4.32,0,0,1,2.35.75l-.48.63a3.45,3.45,0,0,0-2-.61c-1,0-1.35.4-1.35.84s.51.72,1.71,1c1.93.42,2.4.9,2.4,1.8s-.93,1.74-2.6,1.74A5.14,5.14,0,0,1,96.82,174Z" transform="translate(-21.46 -20.52)"/><path class="cls-3" d="M105.79,169.6a1,1,0,1,1,1,1A1,1,0,0,1,105.79,169.6Zm0,4.29a1,1,0,1,1,1,1A1,1,0,0,1,105.79,173.89Z" transform="translate(-21.46 -20.52)"/><path class="cls-3" d="M118.53,171.86a3,3,0,0,1,3.25-3.07,3,3,0,0,1,2.12.86l-.49.63a2.41,2.41,0,0,0-1.6-.66,2.14,2.14,0,0,0-2.26,2.24,2.11,2.11,0,0,0,2.24,2.22,2.76,2.76,0,0,0,1.8-.73l.44.65a3.5,3.5,0,0,1-2.31.91A2.94,2.94,0,0,1,118.53,171.86Z" transform="translate(-21.46 -20.52)"/><path class="cls-3" d="M125.88,166.23h1v2.32l-.06,1.38h0a3,3,0,0,1,2.17-1.14c1.38,0,2,.82,2,2.35v3.63h-1v-3.49c0-1.11-.38-1.62-1.33-1.62-.69,0-1.16.35-1.83,1v4.07h-1Z" transform="translate(-21.46 -20.52)"/><path class="cls-3" d="M132.93,173.26c0-1.31,1.22-1.95,4.23-2.19a1.39,1.39,0,0,0-1.55-1.46,4,4,0,0,0-2,.7l-.39-.68a5.13,5.13,0,0,1,2.6-.84,2.17,2.17,0,0,1,2.38,2.4v3.58h-.83l-.09-.79h0a4,4,0,0,1-2.29.93A1.77,1.77,0,0,1,132.93,173.26Zm4.23,0v-1.51c-2.5.19-3.25.69-3.25,1.45s.6.93,1.27.93A3.2,3.2,0,0,0,137.16,173.24Z" transform="translate(-21.46 -20.52)"/><path class="cls-3" d="M140.91,168.94h.82l.1,1.38h0a3.08,3.08,0,0,1,2.61-1.53,2.45,2.45,0,0,1,1.15.24l-.23.86a2.66,2.66,0,0,0-3.48,1.47v3.41h-1Z" transform="translate(-21.46 -20.52)"/><path class="cls-3" d="M147.32,173.26c0-1.31,1.23-1.95,4.24-2.19a1.39,1.39,0,0,0-1.55-1.46,4,4,0,0,0-2,.7l-.39-.68a5.13,5.13,0,0,1,2.6-.84,2.16,2.16,0,0,1,2.37,2.4v3.58h-.82l-.09-.79h0a4,4,0,0,1-2.29.93A1.78,1.78,0,0,1,147.32,173.26Zm4.24,0v-1.51c-2.5.19-3.25.69-3.25,1.45s.6.93,1.27.93A3.2,3.2,0,0,0,151.56,173.24Z" transform="translate(-21.46 -20.52)"/><path class="cls-3" d="M154.53,171.86a3,3,0,0,1,3.25-3.07,3,3,0,0,1,2.12.86l-.49.63a2.41,2.41,0,0,0-1.6-.66,2.14,2.14,0,0,0-2.27,2.24,2.12,2.12,0,0,0,2.25,2.22,2.76,2.76,0,0,0,1.8-.73l.44.65a3.5,3.5,0,0,1-2.31.91A2.94,2.94,0,0,1,154.53,171.86Z" transform="translate(-21.46 -20.52)"/><path class="cls-3" d="M163.24,172.5v-2.76h-1.66V169l1.69-.06.14-1.87h.82v1.87h2.86v.8h-2.86v2.77c0,1.05.35,1.58,1.48,1.58a3.74,3.74,0,0,0,1.39-.26l.22.73a5.18,5.18,0,0,1-1.83.35C163.79,174.91,163.24,173.94,163.24,172.5Z" transform="translate(-21.46 -20.52)"/><path class="cls-3" d="M168.78,171.84a2.94,2.94,0,0,1,3-3.05,2.52,2.52,0,0,1,2.66,2.74,4.66,4.66,0,0,1,0,.6h-4.93v-.77h4.34l-.25.28c0-1.38-.68-2.07-1.75-2.07a2.06,2.06,0,0,0-2,2.27,2.12,2.12,0,0,0,2.28,2.28,3.23,3.23,0,0,0,1.78-.55l.36.64a4,4,0,0,1-2.26.7A3,3,0,0,1,168.78,171.84Z" transform="translate(-21.46 -20.52)"/><path class="cls-3" d="M176.91,168.94h.82l.1,1.38h0a3.08,3.08,0,0,1,2.6-1.53,2.46,2.46,0,0,1,1.16.24l-.23.86a2.8,2.8,0,0,0-1.08-.2,2.74,2.74,0,0,0-2.4,1.67v3.41h-1Z" transform="translate(-21.46 -20.52)"/><rect class="cls-1" x="0.5" y="174.22" width="246.1" height="111.74"/><path class="cls-3" d="M41.94,211.45H39.76v-.74h2.18v-2.34h.79v2.34h2.19v.74H42.73v2.34h-.79Z" transform="translate(-21.46 -20.52)"/><path class="cls-3" d="M54,216.11a1.63,1.63,0,0,1,1-1.3v-.05a1,1,0,0,1-.6-1,1.43,1.43,0,0,1,.7-1.09v0a1.86,1.86,0,0,1-.72-1.52,2.13,2.13,0,0,1,2.29-2.08,2.25,2.25,0,0,1,.86.14H59.9v.8H58.39a1.75,1.75,0,0,1,.49,1.18,2,2,0,0,1-2.25,2,2.54,2.54,0,0,1-1-.21.8.8,0,0,0-.46.67c0,.45.44.67,1.21.67h1.31c1.5,0,2.22.38,2.22,1.37s-1.26,2-3.24,2C55,217.73,54,217.14,54,216.11Zm5-.27c0-.55-.45-.7-1.33-.7H56.49a3.36,3.36,0,0,1-.89-.1c-.55.3-.75.64-.75,1,0,.61.66,1,1.91,1S59,216.44,59,215.84Zm-1-4.69a1.34,1.34,0,1,0-1.34,1.38A1.31,1.31,0,0,0,58,211.15Z" transform="translate(-21.46 -20.52)"/><path class="cls-3" d="M61.16,212.11a2.92,2.92,0,0,1,3-3,2.5,2.5,0,0,1,2.66,2.73,3.28,3.28,0,0,1-.05.6H61.81v-.77h4.35l-.26.28c0-1.38-.68-2.06-1.75-2.06a2,2,0,0,0-2,2.26,2.12,2.12,0,0,0,2.28,2.28,3.15,3.15,0,0,0,1.77-.55l.36.65a4,4,0,0,1-2.25.69A3,3,0,0,1,61.16,212.11Z" transform="translate(-21.46 -20.52)"/><path class="cls-3" d="M70,212.77V210H68.36v-.74l1.69-.06.13-1.87H71v1.87h2.85v.8H71v2.77c0,1.05.34,1.59,1.47,1.59a3.74,3.74,0,0,0,1.39-.27l.22.74a5.13,5.13,0,0,1-1.82.34C70.56,215.18,70,214.21,70,212.77Z" transform="translate(-21.46 -20.52)"/><path class="cls-3" d="M75.46,215.87h5.76v.85H75.46Z" transform="translate(-21.46 -20.52)"/><path class="cls-3" d="M83.05,209.21h.82L84,210h0a3.12,3.12,0,0,1,2-.88c1.57,0,2.41,1.16,2.41,3,0,2-1.25,3.14-2.66,3.14a2.74,2.74,0,0,1-1.73-.75h0l0,1.1v2h-1ZM87.4,212c0-1.28-.48-2.13-1.65-2.13a2.48,2.48,0,0,0-1.7.86v2.9a2.44,2.44,0,0,0,1.55.67C86.63,214.34,87.4,213.48,87.4,212Z" transform="translate(-21.46 -20.52)"/><path class="cls-3" d="M90.25,206.5h1v2.33l-.06,1.38h0a2.9,2.9,0,0,1,2.17-1.14c1.38,0,2,.81,2,2.35V215h-1v-3.49c0-1.1-.39-1.62-1.33-1.62a2.51,2.51,0,0,0-1.84,1V215h-1Z" transform="translate(-21.46 -20.52)"/><path class="cls-3" d="M97.14,217.43l.21-.8a1.72,1.72,0,0,0,.52.09,1.7,1.7,0,0,0,1.6-1.24l.17-.43-2.71-5.84h1l1.42,3.21c.23.52.48,1.13.72,1.7h.05c.2-.56.43-1.17.62-1.7l1.26-3.21h1l-2.58,6.31a2.61,2.61,0,0,1-2.47,2A2.54,2.54,0,0,1,97.14,217.43Z" transform="translate(-21.46 -20.52)"/><path class="cls-3" d="M106.49,213.08V207.3h-2.06v-.8h3.06v6.66a1,1,0,0,0,1.15,1.2,2.68,2.68,0,0,0,1.09-.27l.25.75a3.64,3.64,0,0,1-1.56.34C107.17,215.18,106.49,214.46,106.49,213.08Z" transform="translate(-21.46 -20.52)"/><path class="cls-3" d="M111.66,212.83v-3.62h1v3.49c0,1.09.38,1.62,1.34,1.62a2.31,2.31,0,0,0,1.81-1.07v-4h1V215H116l-.08-1h-.05a2.85,2.85,0,0,1-2.17,1.16C112.3,215.18,111.66,214.37,111.66,212.83Z" transform="translate(-21.46 -20.52)"/><path class="cls-3" d="M118.63,209.21h.8l.08.77h0a1.45,1.45,0,0,1,1.34-.91c.57,0,.93.33,1.1,1,.33-.62.69-1,1.37-1s1.29.63,1.29,1.8V215h-1v-4.1c0-.67-.19-1-.63-1s-.62.3-.93.9V215h-.91v-4.1c0-.67-.17-1-.6-1s-.67.3-1,.9V215h-1Z" transform="translate(-21.46 -20.52)"/><path class="cls-3" d="M127.63,211.71a6.68,6.68,0,0,1,2.69-5.45l.55.5a6.38,6.38,0,0,0,0,9.89l-.55.5A6.66,6.66,0,0,1,127.63,211.71Z" transform="translate(-21.46 -20.52)"/><path class="cls-3" d="M133.8,216.65a6.38,6.38,0,0,0,0-9.89l.55-.5a6.86,6.86,0,0,1,0,10.89Z" transform="translate(-21.46 -20.52)"/><path class="cls-3" d="M41.7,225.85H39.52v-.74H41.7v-2.34h.79v2.34h2.19v.74H42.49v2.34H41.7Z" transform="translate(-21.46 -20.52)"/><path class="cls-3" d="M53.76,230.51a1.63,1.63,0,0,1,1-1.3v-.05a1,1,0,0,1-.6-1,1.41,1.41,0,0,1,.7-1.09v-.05a1.82,1.82,0,0,1-.72-1.51,2.13,2.13,0,0,1,2.29-2.08,2.25,2.25,0,0,1,.86.14h2.41v.8H58.15a1.75,1.75,0,0,1,.49,1.18,2,2,0,0,1-2.25,2,2.54,2.54,0,0,1-1-.21.8.8,0,0,0-.46.67c0,.45.44.67,1.21.67h1.31c1.5,0,2.22.38,2.22,1.37s-1.26,2-3.24,2C54.75,232.13,53.76,231.54,53.76,230.51Zm5-.27c0-.55-.45-.7-1.33-.7H56.25a3.36,3.36,0,0,1-.89-.1c-.55.3-.75.64-.75,1,0,.61.66,1,1.91,1S58.72,230.84,58.72,230.24Zm-1-4.69a1.34,1.34,0,1,0-1.34,1.38A1.31,1.31,0,0,0,57.73,225.55Z" transform="translate(-21.46 -20.52)"/><path class="cls-3" d="M60.91,226.51a2.93,2.93,0,0,1,3-3,2.5,2.5,0,0,1,2.66,2.73,3.28,3.28,0,0,1,0,.6H61.57V226h4.35l-.26.28c0-1.38-.68-2.06-1.75-2.06a2,2,0,0,0-2,2.26,2.12,2.12,0,0,0,2.28,2.28,3.15,3.15,0,0,0,1.77-.55l.36.65a4,4,0,0,1-2.25.69A3,3,0,0,1,60.91,226.51Z" transform="translate(-21.46 -20.52)"/><path class="cls-3" d="M69.77,227.17v-2.76H68.12v-.74l1.69-.06.13-1.87h.83v1.87h2.85v.8H70.77v2.77c0,1,.34,1.59,1.47,1.59a3.74,3.74,0,0,0,1.39-.27l.22.74a5.13,5.13,0,0,1-1.82.34C70.32,229.58,69.77,228.61,69.77,227.17Z" transform="translate(-21.46 -20.52)"/><path class="cls-3" d="M75.22,230.27H81v.85H75.22Z" transform="translate(-21.46 -20.52)"/><path class="cls-3" d="M82.66,226.54a3,3,0,0,1,3.25-3.07,2.94,2.94,0,0,1,2.12.85l-.49.63a2.44,2.44,0,0,0-1.6-.66,2.14,2.14,0,0,0-2.26,2.25,2.12,2.12,0,0,0,2.24,2.22,2.77,2.77,0,0,0,1.8-.74l.44.65a3.43,3.43,0,0,1-2.31.91A2.94,2.94,0,0,1,82.66,226.54Z" transform="translate(-21.46 -20.52)"/><path class="cls-3" d="M91.85,227.48V221.7H89.79v-.8h3.06v6.66a1,1,0,0,0,1.15,1.2,2.68,2.68,0,0,0,1.09-.27l.25.75a3.64,3.64,0,0,1-1.56.34C92.53,229.58,91.85,228.86,91.85,227.48Z" transform="translate(-21.46 -20.52)"/><path class="cls-3" d="M97.06,227.93c0-1.31,1.22-1.94,4.23-2.18a1.38,1.38,0,0,0-1.55-1.47,4,4,0,0,0-2,.7l-.4-.67a5,5,0,0,1,2.6-.84,2.16,2.16,0,0,1,2.38,2.4v3.57h-.83l-.08-.79h0a3.93,3.93,0,0,1-2.29.93A1.77,1.77,0,0,1,97.06,227.93Zm4.23,0v-1.51c-2.49.19-3.25.68-3.25,1.45s.6.92,1.27.92A3.18,3.18,0,0,0,101.29,227.92Z" transform="translate(-21.46 -20.52)"/><path class="cls-3" d="M104.15,228.67l.46-.66a4.15,4.15,0,0,0,2.53.79c1,0,1.46-.4,1.46-.9s-.23-.75-1.81-1.08-2.28-.82-2.28-1.7.83-1.65,2.42-1.65a4.31,4.31,0,0,1,2.35.74l-.48.64a3.38,3.38,0,0,0-2-.62c-1,0-1.34.4-1.34.84s.5.72,1.7,1c1.93.42,2.4.89,2.4,1.79s-.93,1.74-2.59,1.74A5.15,5.15,0,0,1,104.15,228.67Z" transform="translate(-21.46 -20.52)"/><path class="cls-3" d="M111.35,228.67l.46-.66a4.15,4.15,0,0,0,2.53.79c1,0,1.46-.4,1.46-.9s-.23-.75-1.81-1.08-2.28-.82-2.28-1.7.83-1.65,2.42-1.65a4.31,4.31,0,0,1,2.35.74l-.48.64a3.38,3.38,0,0,0-2-.62c-1,0-1.34.4-1.34.84s.5.72,1.7,1c1.93.42,2.4.89,2.4,1.79s-.93,1.74-2.59,1.74A5.15,5.15,0,0,1,111.35,228.67Z" transform="translate(-21.46 -20.52)"/><path class="cls-3" d="M120.19,226.11a6.68,6.68,0,0,1,2.69-5.45l.55.5a6.38,6.38,0,0,0,0,9.89l-.55.5A6.68,6.68,0,0,1,120.19,226.11Z" transform="translate(-21.46 -20.52)"/><path class="cls-3" d="M126.36,231.05a6.38,6.38,0,0,0,0-9.89l.55-.5a6.86,6.86,0,0,1,0,10.89Z" transform="translate(-21.46 -20.52)"/><path class="cls-3" d="M41.7,240.25H39.52v-.74H41.7v-2.34h.79v2.34h2.19v.74H42.49v2.34H41.7Z" transform="translate(-21.46 -20.52)"/><path class="cls-3" d="M53.76,244.91a1.63,1.63,0,0,1,1-1.3v-.05a1,1,0,0,1-.6-1,1.41,1.41,0,0,1,.7-1.09v0A1.82,1.82,0,0,1,54.1,240a2.13,2.13,0,0,1,2.29-2.08,2.25,2.25,0,0,1,.86.14h2.41v.8H58.15a1.75,1.75,0,0,1,.49,1.18,2,2,0,0,1-2.25,2,2.54,2.54,0,0,1-1-.21.8.8,0,0,0-.46.67c0,.45.44.67,1.21.67h1.31c1.5,0,2.22.38,2.22,1.37s-1.26,2-3.24,2C54.75,246.53,53.76,245.94,53.76,244.91Zm5-.27c0-.55-.45-.7-1.33-.7H56.25a3.36,3.36,0,0,1-.89-.1c-.55.3-.75.64-.75,1,0,.61.66,1,1.91,1S58.72,245.24,58.72,244.64Zm-1-4.69a1.34,1.34,0,1,0-1.34,1.38A1.31,1.31,0,0,0,57.73,240Z" transform="translate(-21.46 -20.52)"/><path class="cls-3" d="M60.91,240.91a2.93,2.93,0,0,1,3-3,2.5,2.5,0,0,1,2.66,2.73,3.37,3.37,0,0,1,0,.6H61.57v-.77h4.35l-.26.28c0-1.38-.68-2.06-1.75-2.06a2,2,0,0,0-2,2.26,2.12,2.12,0,0,0,2.28,2.28,3.15,3.15,0,0,0,1.77-.55l.36.65a4,4,0,0,1-2.25.69A3,3,0,0,1,60.91,240.91Z" transform="translate(-21.46 -20.52)"/><path class="cls-3" d="M69.77,241.57v-2.76H68.12v-.74l1.69-.06.13-1.87h.83V238h2.85v.8H70.77v2.77c0,1,.34,1.59,1.47,1.59a3.74,3.74,0,0,0,1.39-.27l.22.74A5.13,5.13,0,0,1,72,244C70.32,244,69.77,243,69.77,241.57Z" transform="translate(-21.46 -20.52)"/><path class="cls-3" d="M75.22,244.67H81v.85H75.22Z" transform="translate(-21.46 -20.52)"/><path class="cls-3" d="M82.42,240.94a2.88,2.88,0,1,1,2.88,3A2.85,2.85,0,0,1,82.42,240.94Zm4.74,0c0-1.35-.75-2.25-1.86-2.25s-1.86.9-1.86,2.25.74,2.22,1.86,2.22S87.16,242.27,87.16,240.94Z" transform="translate(-21.46 -20.52)"/><path class="cls-3" d="M90.64,238h.83l.09,1.38h0a3.06,3.06,0,0,1,2.6-1.52,2.45,2.45,0,0,1,1.15.24l-.23.85a3,3,0,0,0-1.08-.19,2.74,2.74,0,0,0-2.4,1.66v3.41h-1Z" transform="translate(-21.46 -20.52)"/><path class="cls-3" d="M96.82,240.94a2.8,2.8,0,0,1,2.64-3.07,2.5,2.5,0,0,1,1.75.74h0l0-1.07V235.3h1v8.54h-.82l-.08-.77h0a2.79,2.79,0,0,1-1.9.91C97.83,244,96.82,242.88,96.82,240.94Zm4.36,1.34v-2.9a2.15,2.15,0,0,0-1.52-.67,2,2,0,0,0-1.82,2.21c0,1.4.65,2.22,1.71,2.22A2.16,2.16,0,0,0,101.18,242.28Z" transform="translate(-21.46 -20.52)"/><path class="cls-3" d="M104.11,240.91a2.93,2.93,0,0,1,3-3,2.5,2.5,0,0,1,2.66,2.73,3.37,3.37,0,0,1,0,.6h-4.93v-.77h4.35l-.26.28c0-1.38-.68-2.06-1.75-2.06a2,2,0,0,0-2,2.26,2.12,2.12,0,0,0,2.28,2.28,3.15,3.15,0,0,0,1.77-.55l.36.65a4,4,0,0,1-2.25.69A3,3,0,0,1,104.11,240.91Z" transform="translate(-21.46 -20.52)"/><path class="cls-3" d="M112.24,238h.83l.09,1.38h0a3.06,3.06,0,0,1,2.6-1.52,2.45,2.45,0,0,1,1.15.24l-.23.85a3,3,0,0,0-1.08-.19,2.74,2.74,0,0,0-2.4,1.66v3.41h-1Z" transform="translate(-21.46 -20.52)"/><path class="cls-3" d="M120.19,240.51a6.68,6.68,0,0,1,2.69-5.45l.55.5a6.38,6.38,0,0,0,0,9.89l-.55.5A6.68,6.68,0,0,1,120.19,240.51Z" transform="translate(-21.46 -20.52)"/><path class="cls-3" d="M126.36,245.45a6.38,6.38,0,0,0,0-9.89l.55-.5a6.86,6.86,0,0,1,0,10.89Z" transform="translate(-21.46 -20.52)"/><path class="cls-3" d="M41.7,254.65H39.52v-.74H41.7v-2.34h.79v2.34h2.19v.74H42.49V257H41.7Z" transform="translate(-21.46 -20.52)"/><path class="cls-3" d="M53.76,259.31a1.63,1.63,0,0,1,1-1.3V258a1,1,0,0,1-.6-1,1.41,1.41,0,0,1,.7-1.09v0a1.86,1.86,0,0,1-.72-1.52,2.13,2.13,0,0,1,2.29-2.08,2.25,2.25,0,0,1,.86.14h2.41v.8H58.15a1.75,1.75,0,0,1,.49,1.18,2,2,0,0,1-2.25,2,2.54,2.54,0,0,1-1-.21.8.8,0,0,0-.46.67c0,.45.44.67,1.21.67h1.31c1.5,0,2.22.38,2.22,1.37s-1.26,2-3.24,2C54.75,260.93,53.76,260.34,53.76,259.31Zm5-.27c0-.55-.45-.7-1.33-.7H56.25a3.36,3.36,0,0,1-.89-.1c-.55.3-.75.64-.75,1,0,.61.66,1,1.91,1S58.72,259.64,58.72,259Zm-1-4.69a1.34,1.34,0,1,0-1.34,1.38A1.31,1.31,0,0,0,57.73,254.35Z" transform="translate(-21.46 -20.52)"/><path class="cls-3" d="M60.91,255.31a2.93,2.93,0,0,1,3-3A2.5,2.5,0,0,1,66.55,255a3.28,3.28,0,0,1,0,.6H61.57v-.77h4.35l-.26.28c0-1.38-.68-2.06-1.75-2.06a2,2,0,0,0-2,2.26,2.12,2.12,0,0,0,2.28,2.28A3.15,3.15,0,0,0,66,257l.36.65a4,4,0,0,1-2.25.69A3,3,0,0,1,60.91,255.31Z" transform="translate(-21.46 -20.52)"/><path class="cls-3" d="M69.77,256v-2.76H68.12v-.74l1.69-.06.13-1.87h.83v1.87h2.85v.8H70.77V256c0,1,.34,1.59,1.47,1.59a3.74,3.74,0,0,0,1.39-.27l.22.74a5.13,5.13,0,0,1-1.82.34C70.32,258.38,69.77,257.41,69.77,256Z" transform="translate(-21.46 -20.52)"/><path class="cls-3" d="M75.22,259.07H81v.85H75.22Z" transform="translate(-21.46 -20.52)"/><path class="cls-3" d="M82.93,252.47l1.7-.06H88v.8H82.93Zm1.67-.55A2.13,2.13,0,0,1,87,249.56a4.26,4.26,0,0,1,1.68.33l-.23.75a3.06,3.06,0,0,0-1.35-.28,1.33,1.33,0,0,0-1.47,1.52v6.36h-1Z" transform="translate(-21.46 -20.52)"/><path class="cls-3" d="M89.86,256.73c0-1.31,1.22-1.94,4.23-2.18a1.38,1.38,0,0,0-1.54-1.47,4,4,0,0,0-2,.7l-.4-.67a5,5,0,0,1,2.6-.84,2.16,2.16,0,0,1,2.38,2.4v3.57h-.83l-.08-.79h0a3.93,3.93,0,0,1-2.29.93A1.77,1.77,0,0,1,89.86,256.73Zm4.23,0v-1.51c-2.49.19-3.25.68-3.25,1.45s.6.92,1.27.92A3.18,3.18,0,0,0,94.09,256.72Z" transform="translate(-21.46 -20.52)"/><path class="cls-3" d="M96.79,252.41h.8l.08.77h0a1.45,1.45,0,0,1,1.34-.91c.57,0,.93.33,1.1,1,.33-.62.69-1,1.37-1s1.29.63,1.29,1.8v4.17h-1v-4.1c0-.67-.19-1-.63-1s-.62.3-.93.9v4.22h-.91v-4.1c0-.67-.17-1-.6-1s-.67.3-1,.9v4.22h-1Z" transform="translate(-21.46 -20.52)"/><path class="cls-3" d="M107.08,253.21h-2.7v-.8h3.69v5.83h-1Zm-.4-2.79a.79.79,0,0,1,1.58,0,.79.79,0,0,1-1.58,0Z" transform="translate(-21.46 -20.52)"/><path class="cls-3" d="M113.45,256.28V250.5h-2.06v-.8h3.06v6.66a1,1,0,0,0,1.15,1.2,2.68,2.68,0,0,0,1.09-.27l.25.75a3.64,3.64,0,0,1-1.56.34C114.13,258.38,113.45,257.66,113.45,256.28Z" transform="translate(-21.46 -20.52)"/><path class="cls-3" d="M118.5,260.63l.21-.79a2.1,2.1,0,0,0,.52.08,1.7,1.7,0,0,0,1.6-1.24l.17-.43-2.71-5.84h1l1.42,3.22c.23.51.48,1.12.72,1.69h0c.2-.56.43-1.17.62-1.69l1.26-3.22h1l-2.58,6.31a2.61,2.61,0,0,1-2.47,2A2.54,2.54,0,0,1,118.5,260.63Z" transform="translate(-21.46 -20.52)"/><path class="cls-3" d="M127.39,254.91a6.68,6.68,0,0,1,2.69-5.45l.55.5a6.38,6.38,0,0,0,0,9.89l-.55.5A6.66,6.66,0,0,1,127.39,254.91Z" transform="translate(-21.46 -20.52)"/><path class="cls-3" d="M133.56,259.85a6.38,6.38,0,0,0,0-9.89l.55-.5a6.86,6.86,0,0,1,0,10.89Z" transform="translate(-21.46 -20.52)"/><path class="cls-3" d="M41.7,269.05H39.52v-.74H41.7V266h.79v2.34h2.19v.74H42.49v2.34H41.7Z" transform="translate(-21.46 -20.52)"/><path class="cls-3" d="M53.76,273.71a1.63,1.63,0,0,1,1-1.3v-.05a1,1,0,0,1-.6-1,1.41,1.41,0,0,1,.7-1.09v0a1.86,1.86,0,0,1-.72-1.52,2.13,2.13,0,0,1,2.29-2.08,2.25,2.25,0,0,1,.86.14h2.41v.8H58.15a1.75,1.75,0,0,1,.49,1.18,2,2,0,0,1-2.25,2,2.54,2.54,0,0,1-1-.21.8.8,0,0,0-.46.67c0,.45.44.67,1.21.67h1.31c1.5,0,2.22.38,2.22,1.37s-1.26,2-3.24,2C54.75,275.33,53.76,274.74,53.76,273.71Zm5-.27c0-.55-.45-.7-1.33-.7H56.25a3.36,3.36,0,0,1-.89-.1c-.55.3-.75.64-.75,1,0,.61.66,1,1.91,1S58.72,274,58.72,273.44Zm-1-4.69a1.34,1.34,0,1,0-1.34,1.38A1.31,1.31,0,0,0,57.73,268.75Z" transform="translate(-21.46 -20.52)"/><path class="cls-3" d="M60.91,269.71a2.93,2.93,0,0,1,3-3,2.5,2.5,0,0,1,2.66,2.73,3.28,3.28,0,0,1,0,.6H61.57v-.77h4.35l-.26.28c0-1.38-.68-2.06-1.75-2.06a2,2,0,0,0-2,2.26A2.12,2.12,0,0,0,64.18,272a3.15,3.15,0,0,0,1.77-.55l.36.65a4,4,0,0,1-2.25.69A3,3,0,0,1,60.91,269.71Z" transform="translate(-21.46 -20.52)"/><path class="cls-3" d="M69.77,270.37v-2.76H68.12v-.74l1.69-.06.13-1.87h.83v1.87h2.85v.8H70.77v2.77c0,1.05.34,1.59,1.47,1.59a3.74,3.74,0,0,0,1.39-.27l.22.74a5.13,5.13,0,0,1-1.82.34C70.32,272.78,69.77,271.81,69.77,270.37Z" transform="translate(-21.46 -20.52)"/><path class="cls-3" d="M75.22,273.47H81v.85H75.22Z" transform="translate(-21.46 -20.52)"/><path class="cls-3" d="M82.56,273.71a1.63,1.63,0,0,1,1-1.3v-.05a1,1,0,0,1-.6-1,1.41,1.41,0,0,1,.7-1.09v0a1.86,1.86,0,0,1-.72-1.52,2.13,2.13,0,0,1,2.29-2.08,2.28,2.28,0,0,1,.86.14h2.41v.8H87a1.75,1.75,0,0,1,.49,1.18,2,2,0,0,1-2.25,2,2.54,2.54,0,0,1-1-.21.8.8,0,0,0-.46.67c0,.45.44.67,1.21.67h1.31c1.5,0,2.22.38,2.22,1.37s-1.26,2-3.24,2C83.55,275.33,82.56,274.74,82.56,273.71Zm5-.27c0-.55-.45-.7-1.34-.7H85.05a3.36,3.36,0,0,1-.89-.1c-.55.3-.75.64-.75,1,0,.61.66,1,1.91,1S87.52,274,87.52,273.44Zm-1-4.69a1.34,1.34,0,1,0-1.34,1.38A1.31,1.31,0,0,0,86.53,268.75Z" transform="translate(-21.46 -20.52)"/><path class="cls-3" d="M89.71,269.71a2.93,2.93,0,0,1,3-3,2.5,2.5,0,0,1,2.66,2.73,3.28,3.28,0,0,1,0,.6H90.37v-.77h4.35l-.26.28c0-1.38-.68-2.06-1.75-2.06a2,2,0,0,0-2,2.26A2.12,2.12,0,0,0,93,272a3.15,3.15,0,0,0,1.77-.55l.36.65a4,4,0,0,1-2.25.69A3,3,0,0,1,89.71,269.71Z" transform="translate(-21.46 -20.52)"/><path class="cls-3" d="M97.21,266.81H98l.08,1h0a3,3,0,0,1,2.2-1.12c1.38,0,2,.81,2,2.35v3.62h-1v-3.49c0-1.1-.39-1.62-1.34-1.62-.69,0-1.16.35-1.83,1v4.07h-1Z" transform="translate(-21.46 -20.52)"/><path class="cls-3" d="M104.22,270.43v-3.62h1v3.49c0,1.09.38,1.62,1.34,1.62a2.31,2.31,0,0,0,1.81-1.07v-4h1v5.83h-.83l-.08-1h0a2.85,2.85,0,0,1-2.17,1.16C104.86,272.78,104.22,272,104.22,270.43Z" transform="translate(-21.46 -20.52)"/><path class="cls-3" d="M111.35,271.87l.46-.66a4.15,4.15,0,0,0,2.53.79c1,0,1.46-.4,1.46-.9s-.23-.75-1.81-1.08-2.28-.82-2.28-1.7.83-1.65,2.42-1.65a4.31,4.31,0,0,1,2.35.74l-.48.64a3.38,3.38,0,0,0-2-.62c-1,0-1.34.4-1.34.84s.5.72,1.7,1c1.93.42,2.4.9,2.4,1.79s-.93,1.74-2.59,1.74A5.15,5.15,0,0,1,111.35,271.87Z" transform="translate(-21.46 -20.52)"/><path class="cls-3" d="M120.19,269.31a6.68,6.68,0,0,1,2.69-5.45l.55.5a6.38,6.38,0,0,0,0,9.89l-.55.5A6.66,6.66,0,0,1,120.19,269.31Z" transform="translate(-21.46 -20.52)"/><path class="cls-3" d="M126.36,274.25a6.38,6.38,0,0,0,0-9.89l.55-.5a6.86,6.86,0,0,1,0,10.89Z" transform="translate(-21.46 -20.52)"/><path class="cls-3" d="M41.7,283.45H39.52v-.74H41.7v-2.34h.79v2.34h2.19v.74H42.49v2.34H41.7Z" transform="translate(-21.46 -20.52)"/><path class="cls-3" d="M53.76,288.11a1.63,1.63,0,0,1,1-1.3v-.05a1,1,0,0,1-.6-1,1.41,1.41,0,0,1,.7-1.09v0a1.86,1.86,0,0,1-.72-1.52,2.13,2.13,0,0,1,2.29-2.08,2.25,2.25,0,0,1,.86.14h2.41v.8H58.15a1.75,1.75,0,0,1,.49,1.18,2,2,0,0,1-2.25,2,2.54,2.54,0,0,1-1-.21.8.8,0,0,0-.46.67c0,.45.44.67,1.21.67h1.31c1.5,0,2.22.38,2.22,1.37s-1.26,2-3.24,2C54.75,289.73,53.76,289.14,53.76,288.11Zm5-.27c0-.55-.45-.7-1.33-.7H56.25a3.36,3.36,0,0,1-.89-.1c-.55.3-.75.64-.75,1,0,.61.66,1,1.91,1S58.72,288.44,58.72,287.84Zm-1-4.69a1.34,1.34,0,1,0-1.34,1.38A1.31,1.31,0,0,0,57.73,283.15Z" transform="translate(-21.46 -20.52)"/><path class="cls-3" d="M60.91,284.11a2.93,2.93,0,0,1,3-3,2.5,2.5,0,0,1,2.66,2.73,3.28,3.28,0,0,1,0,.6H61.57v-.77h4.35l-.26.28c0-1.38-.68-2.06-1.75-2.06a2,2,0,0,0-2,2.26,2.12,2.12,0,0,0,2.28,2.28,3.15,3.15,0,0,0,1.77-.55l.36.65a4,4,0,0,1-2.25.69A3,3,0,0,1,60.91,284.11Z" transform="translate(-21.46 -20.52)"/><path class="cls-3" d="M69.77,284.77V282H68.12v-.74l1.69-.06.13-1.87h.83v1.87h2.85v.8H70.77v2.77c0,1.05.34,1.59,1.47,1.59a3.74,3.74,0,0,0,1.39-.27l.22.74a5.13,5.13,0,0,1-1.82.34C70.32,287.18,69.77,286.21,69.77,284.77Z" transform="translate(-21.46 -20.52)"/><path class="cls-3" d="M75.22,287.87H81v.85H75.22Z" transform="translate(-21.46 -20.52)"/><path class="cls-3" d="M82.55,286.27l.46-.66a4.15,4.15,0,0,0,2.53.79c1,0,1.46-.4,1.46-.9s-.23-.75-1.81-1.08-2.28-.82-2.28-1.7.83-1.65,2.42-1.65a4.31,4.31,0,0,1,2.35.74l-.48.64a3.38,3.38,0,0,0-2-.62c-1,0-1.34.4-1.34.84s.5.72,1.7,1c1.93.41,2.4.89,2.4,1.79s-.93,1.74-2.59,1.74A5.15,5.15,0,0,1,82.55,286.27Z" transform="translate(-21.46 -20.52)"/><path class="cls-3" d="M90,281.21h.82l.08.74h0a3.12,3.12,0,0,1,2-.88c1.57,0,2.41,1.16,2.41,3,0,2-1.25,3.14-2.66,3.14a2.74,2.74,0,0,1-1.73-.75h0l.05,1.1v2H90ZM94.36,284c0-1.28-.48-2.13-1.65-2.13a2.48,2.48,0,0,0-1.7.86v2.9a2.44,2.44,0,0,0,1.55.67C93.59,286.34,94.36,285.48,94.36,284Z" transform="translate(-21.46 -20.52)"/><path class="cls-3" d="M96.91,284.11a2.93,2.93,0,0,1,3-3,2.5,2.5,0,0,1,2.66,2.73,3.28,3.28,0,0,1,0,.6H97.57v-.77h4.35l-.26.28c0-1.38-.68-2.06-1.75-2.06a2,2,0,0,0-2,2.26,2.12,2.12,0,0,0,2.28,2.28,3.15,3.15,0,0,0,1.77-.55l.36.65a4,4,0,0,1-2.25.69A3,3,0,0,1,96.91,284.11Z" transform="translate(-21.46 -20.52)"/><path class="cls-3" d="M104.26,284.14a3,3,0,0,1,3.25-3.07,2.94,2.94,0,0,1,2.12.85l-.49.63a2.44,2.44,0,0,0-1.6-.66,2.14,2.14,0,0,0-2.26,2.25,2.12,2.12,0,0,0,2.24,2.22,2.77,2.77,0,0,0,1.8-.74l.44.65a3.43,3.43,0,0,1-2.31.91A2.94,2.94,0,0,1,104.26,284.14Z" transform="translate(-21.46 -20.52)"/><path class="cls-3" d="M114.28,282h-2.7v-.8h3.69V287h-1Zm-.4-2.79a.79.79,0,0,1,1.58,0,.79.79,0,0,1-1.58,0Z" transform="translate(-21.46 -20.52)"/><path class="cls-3" d="M118.51,284.11a2.93,2.93,0,0,1,3-3,2.5,2.5,0,0,1,2.66,2.73,3.28,3.28,0,0,1-.05.6h-4.93v-.77h4.35l-.26.28c0-1.38-.68-2.06-1.75-2.06a2,2,0,0,0-2,2.26,2.12,2.12,0,0,0,2.28,2.28,3.15,3.15,0,0,0,1.77-.55l.36.65a4,4,0,0,1-2.25.69A3,3,0,0,1,118.51,284.11Z" transform="translate(-21.46 -20.52)"/><path class="cls-3" d="M125.75,286.27l.46-.66a4.15,4.15,0,0,0,2.53.79c1,0,1.46-.4,1.46-.9s-.23-.75-1.81-1.08-2.28-.82-2.28-1.7.83-1.65,2.42-1.65a4.31,4.31,0,0,1,2.35.74l-.48.64a3.38,3.38,0,0,0-2-.62c-1,0-1.34.4-1.34.84s.5.72,1.7,1c1.93.41,2.4.89,2.4,1.79s-.93,1.74-2.59,1.74A5.15,5.15,0,0,1,125.75,286.27Z" transform="translate(-21.46 -20.52)"/><path class="cls-3" d="M134.59,283.71a6.68,6.68,0,0,1,2.69-5.45l.55.5a6.38,6.38,0,0,0,0,9.89l-.55.5A6.66,6.66,0,0,1,134.59,283.71Z" transform="translate(-21.46 -20.52)"/><path class="cls-3" d="M140.76,288.65a6.38,6.38,0,0,0,0-9.89l.55-.5a6.86,6.86,0,0,1,0,10.89Z" transform="translate(-21.46 -20.52)"/></svg>