<?xml version="1.0" encoding="utf-8"?>
<!-- Generator: Adobe Illustrator 26.0.1, SVG Export Plug-In . SVG Version: 6.00 Build 0)  -->
<svg version="1.1" id="Layer_1" xmlns="http://www.w3.org/2000/svg" xmlns:xlink="http://www.w3.org/1999/xlink" x="0px" y="0px"
	 viewBox="0 0 285.1 296.6" style="enable-background:new 0 0 285.1 296.6;" xml:space="preserve">
<style type="text/css">
	.st0{fill:#C0E4EE;stroke:#000000;stroke-miterlimit:10;}
	.st1{font-family:'Arial-BoldMT';}
	.st2{font-size:12px;}
	.st3{enable-background:new    ;}
</style>
<rect x="31.1" y="22" class="st0" width="223" height="29.2"/>
<text transform="matrix(1 0 0 1 122.5593 39.4372)" class="st1 st2">Animal</text>
<rect x="31.1" y="51.1" class="st0" width="223" height="111.7"/>
<g>
	<g class="st3">
		<path d="M48.5,70.6h5.2v0.7h-5.2V70.6z"/>
		<path d="M63.1,67h2.4c1.7,0,2.9,0.6,2.9,2.3c0,1.7-1.2,2.4-2.9,2.4h-1.4v3.1h-1V67z M65.4,71c1.4,0,2-0.5,2-1.6
			c0-1.1-0.7-1.5-2-1.5h-1.2V71H65.4z"/>
		<path d="M70.2,66.4h1v2.3l-0.1,1.4h0c0.6-0.6,1.3-1.1,2.2-1.1c1.4,0,2,0.8,2,2.4v3.6h-1v-3.5c0-1.1-0.4-1.6-1.3-1.6
			c-0.7,0-1.2,0.3-1.8,1v4.1h-1V66.4z"/>
		<path d="M77.1,77.3l0.2-0.8c0.2,0,0.3,0.1,0.5,0.1c0.8,0,1.3-0.5,1.6-1.2l0.2-0.4l-2.7-5.8h1l1.4,3.2c0.2,0.5,0.5,1.1,0.7,1.7h0
			c0.2-0.6,0.4-1.2,0.6-1.7l1.3-3.2h1l-2.6,6.3c-0.4,1.2-1.1,2-2.5,2C77.6,77.4,77.3,77.4,77.1,77.3z"/>
		<path d="M86.4,73v-5.8h-2.1v-0.8h3.1V73c0,0.8,0.5,1.2,1.2,1.2c0.3,0,0.7-0.1,1.1-0.3l0.3,0.7C89.4,74.9,89,75,88.4,75
			C87.1,75,86.4,74.3,86.4,73z"/>
		<path d="M91.6,72.7v-3.6h1v3.5c0,1.1,0.4,1.6,1.3,1.6c0.7,0,1.2-0.3,1.8-1.1v-4h1v5.8h-0.8l-0.1-1h0c-0.6,0.7-1.3,1.2-2.2,1.2
			C92.2,75,91.6,74.2,91.6,72.7z"/>
		<path d="M98.6,69.1h0.8l0.1,0.8h0c0.3-0.5,0.7-0.9,1.3-0.9c0.6,0,0.9,0.3,1.1,1c0.3-0.6,0.7-1,1.4-1c0.8,0,1.3,0.6,1.3,1.8v4.2h-1
			v-4.1c0-0.7-0.2-1-0.6-1c-0.4,0-0.6,0.3-0.9,0.9v4.2h-0.9v-4.1c0-0.7-0.2-1-0.6-1c-0.4,0-0.7,0.3-1,0.9v4.2h-1V69.1z"/>
		<path d="M107.7,69.7c0-0.6,0.4-1,1-1c0.5,0,1,0.4,1,1c0,0.6-0.4,1-1,1C108.1,70.8,107.7,70.3,107.7,69.7z M107.7,74
			c0-0.6,0.4-1,1-1c0.5,0,1,0.4,1,1c0,0.6-0.4,1-1,1C108.1,75,107.7,74.6,107.7,74z"/>
		<path d="M120.4,72c0-2,1.5-3.1,3.2-3.1c0.9,0,1.6,0.4,2.1,0.9l-0.5,0.6c-0.5-0.4-1-0.7-1.6-0.7c-1.3,0-2.3,0.9-2.3,2.2
			c0,1.3,0.9,2.2,2.2,2.2c0.7,0,1.3-0.3,1.8-0.7l0.4,0.6c-0.6,0.6-1.5,0.9-2.3,0.9C121.8,75,120.4,73.9,120.4,72z"/>
		<path d="M127.8,66.4h1v2.3l-0.1,1.4h0c0.6-0.6,1.3-1.1,2.2-1.1c1.4,0,2,0.8,2,2.4v3.6h-1v-3.5c0-1.1-0.4-1.6-1.3-1.6
			c-0.7,0-1.2,0.3-1.8,1v4.1h-1V66.4z"/>
		<path d="M134.8,73.4c0-1.3,1.2-1.9,4.2-2.2c0-0.8-0.4-1.5-1.5-1.5c-0.8,0-1.5,0.4-2,0.7l-0.4-0.7c0.6-0.4,1.6-0.8,2.6-0.8
			c1.6,0,2.4,0.9,2.4,2.4v3.6h-0.8l-0.1-0.8h0c-0.6,0.5-1.5,0.9-2.3,0.9C135.7,75,134.8,74.4,134.8,73.4z M139.1,73.4v-1.5
			c-2.5,0.2-3.3,0.7-3.3,1.5c0,0.7,0.6,0.9,1.3,0.9C137.7,74.2,138.4,73.9,139.1,73.4z"/>
		<path d="M142.8,69.1h0.8l0.1,1.4h0c0.6-0.9,1.5-1.5,2.6-1.5c0.4,0,0.8,0.1,1.2,0.2l-0.2,0.9c-0.4-0.1-0.6-0.2-1.1-0.2
			c-0.9,0-1.7,0.4-2.4,1.7v3.4h-1V69.1z"/>
		<path d="M149.2,73.4c0-1.3,1.2-1.9,4.2-2.2c0-0.8-0.4-1.5-1.5-1.5c-0.8,0-1.5,0.4-2,0.7l-0.4-0.7c0.6-0.4,1.6-0.8,2.6-0.8
			c1.6,0,2.4,0.9,2.4,2.4v3.6h-0.8l-0.1-0.8h0c-0.6,0.5-1.5,0.9-2.3,0.9C150.1,75,149.2,74.4,149.2,73.4z M153.5,73.4v-1.5
			c-2.5,0.2-3.2,0.7-3.2,1.5c0,0.7,0.6,0.9,1.3,0.9C152.1,74.2,152.8,73.9,153.5,73.4z"/>
		<path d="M156.4,72c0-2,1.5-3.1,3.2-3.1c0.9,0,1.6,0.4,2.1,0.9l-0.5,0.6c-0.5-0.4-1-0.7-1.6-0.7c-1.3,0-2.3,0.9-2.3,2.2
			c0,1.3,0.9,2.2,2.2,2.2c0.7,0,1.3-0.3,1.8-0.7l0.4,0.6c-0.6,0.6-1.5,0.9-2.3,0.9C157.8,75,156.4,73.9,156.4,72z"/>
		<path d="M165.1,72.6v-2.8h-1.7v-0.7l1.7-0.1l0.1-1.9h0.8v1.9h2.9v0.8h-2.9v2.8c0,1,0.3,1.6,1.5,1.6c0.5,0,1-0.1,1.4-0.3l0.2,0.7
			c-0.5,0.2-1.1,0.3-1.8,0.3C165.7,75,165.1,74.1,165.1,72.6z"/>
		<path d="M170.7,72c0-1.9,1.4-3,3-3c1.7,0,2.7,1.1,2.7,2.7c0,0.2,0,0.4,0,0.6h-4.9v-0.8h4.3l-0.3,0.3c0-1.4-0.7-2.1-1.8-2.1
			c-1.1,0-2,0.8-2,2.3c0,1.5,1,2.3,2.3,2.3c0.7,0,1.2-0.2,1.8-0.6l0.4,0.6c-0.6,0.4-1.3,0.7-2.3,0.7C172.1,75,170.7,73.9,170.7,72z"
			/>
		<path d="M178.8,69.1h0.8l0.1,1.4h0c0.6-0.9,1.5-1.5,2.6-1.5c0.4,0,0.8,0.1,1.2,0.2l-0.2,0.9c-0.4-0.1-0.6-0.2-1.1-0.2
			c-0.9,0-1.7,0.4-2.4,1.7v3.4h-1V69.1z"/>
	</g>
</g>
<g>
	<g class="st3">
		<path d="M48.5,85h5.2v0.7h-5.2V85z"/>
		<path d="M62.7,85.4c0-2.5,1.5-4.1,3.5-4.1c0.9,0,1.7,0.5,2.2,1l-0.6,0.6c-0.4-0.4-0.9-0.7-1.6-0.7c-1.5,0-2.5,1.2-2.5,3.2
			c0,2,1,3.2,2.5,3.2c0.7,0,1.3-0.3,1.8-0.9l0.6,0.6c-0.6,0.7-1.4,1.1-2.4,1.1C64.1,89.4,62.7,87.9,62.7,85.4z"/>
		<path d="M72,87.4v-5.8H70v-0.8H73v6.7c0,0.8,0.5,1.2,1.2,1.2c0.3,0,0.7-0.1,1.1-0.3l0.3,0.7c-0.5,0.2-0.9,0.3-1.6,0.3
			C72.7,89.4,72,88.7,72,87.4z"/>
		<path d="M77.2,87.8c0-1.3,1.2-1.9,4.2-2.2c0-0.8-0.4-1.5-1.5-1.5c-0.8,0-1.5,0.4-2,0.7l-0.4-0.7c0.6-0.4,1.6-0.8,2.6-0.8
			c1.6,0,2.4,0.9,2.4,2.4v3.6h-0.8l-0.1-0.8h0c-0.6,0.5-1.5,0.9-2.3,0.9C78.1,89.4,77.2,88.8,77.2,87.8z M81.5,87.8v-1.5
			c-2.5,0.2-3.3,0.7-3.3,1.5c0,0.7,0.6,0.9,1.3,0.9C80.1,88.6,80.8,88.3,81.5,87.8z"/>
		<path d="M84.3,88.5l0.5-0.7c0.7,0.5,1.5,0.8,2.5,0.8c1,0,1.5-0.4,1.5-0.9c0-0.4-0.2-0.8-1.8-1.1c-1.5-0.3-2.3-0.8-2.3-1.7
			c0-0.9,0.8-1.7,2.4-1.7c0.9,0,1.8,0.3,2.4,0.7L89,84.7c-0.5-0.4-1.2-0.6-2-0.6c-1,0-1.3,0.4-1.3,0.8c0,0.5,0.5,0.7,1.7,1
			c1.9,0.4,2.4,0.9,2.4,1.8c0,0.9-0.9,1.7-2.6,1.7C86.1,89.4,85,89,84.3,88.5z"/>
		<path d="M91.5,88.5l0.5-0.7c0.7,0.5,1.5,0.8,2.5,0.8c1,0,1.5-0.4,1.5-0.9c0-0.4-0.2-0.8-1.8-1.1c-1.5-0.3-2.3-0.8-2.3-1.7
			c0-0.9,0.8-1.7,2.4-1.7c0.9,0,1.8,0.3,2.4,0.7l-0.5,0.6c-0.5-0.4-1.2-0.6-2-0.6c-1,0-1.3,0.4-1.3,0.8c0,0.5,0.5,0.7,1.7,1
			c1.9,0.4,2.4,0.9,2.4,1.8c0,0.9-0.9,1.7-2.6,1.7C93.3,89.4,92.2,89,91.5,88.5z"/>
		<path d="M100.5,84.1c0-0.6,0.4-1,1-1c0.5,0,1,0.4,1,1c0,0.6-0.4,1-1,1C100.9,85.2,100.5,84.7,100.5,84.1z M100.5,88.4
			c0-0.6,0.4-1,1-1c0.5,0,1,0.4,1,1c0,0.6-0.4,1-1,1C100.9,89.4,100.5,89,100.5,88.4z"/>
		<path d="M113.2,86.4c0-2,1.5-3.1,3.2-3.1c0.9,0,1.6,0.4,2.1,0.9l-0.5,0.6c-0.5-0.4-1-0.7-1.6-0.7c-1.3,0-2.3,0.9-2.3,2.2
			c0,1.3,0.9,2.2,2.2,2.2c0.7,0,1.3-0.3,1.8-0.7l0.4,0.6c-0.6,0.6-1.5,0.9-2.3,0.9C114.6,89.4,113.2,88.3,113.2,86.4z"/>
		<path d="M120.6,80.8h1v2.3l-0.1,1.4h0c0.6-0.6,1.3-1.1,2.2-1.1c1.4,0,2,0.8,2,2.4v3.6h-1v-3.5c0-1.1-0.4-1.6-1.3-1.6
			c-0.7,0-1.2,0.3-1.8,1v4.1h-1V80.8z"/>
		<path d="M127.6,87.8c0-1.3,1.2-1.9,4.2-2.2c0-0.8-0.4-1.5-1.5-1.5c-0.8,0-1.5,0.4-2,0.7l-0.4-0.7c0.6-0.4,1.6-0.8,2.6-0.8
			c1.6,0,2.4,0.9,2.4,2.4v3.6H132l-0.1-0.8h0c-0.6,0.5-1.5,0.9-2.3,0.9C128.5,89.4,127.6,88.8,127.6,87.8z M131.9,87.8v-1.5
			c-2.5,0.2-3.3,0.7-3.3,1.5c0,0.7,0.6,0.9,1.3,0.9C130.5,88.6,131.2,88.3,131.9,87.8z"/>
		<path d="M135.6,83.5h0.8l0.1,1.4h0c0.6-0.9,1.5-1.5,2.6-1.5c0.4,0,0.8,0.1,1.2,0.2l-0.2,0.9c-0.4-0.1-0.6-0.2-1.1-0.2
			c-0.9,0-1.7,0.4-2.4,1.7v3.4h-1V83.5z"/>
		<path d="M142,87.8c0-1.3,1.2-1.9,4.2-2.2c0-0.8-0.4-1.5-1.5-1.5c-0.8,0-1.5,0.4-2,0.7l-0.4-0.7c0.6-0.4,1.6-0.8,2.6-0.8
			c1.6,0,2.4,0.9,2.4,2.4v3.6h-0.8l-0.1-0.8h0c-0.6,0.5-1.5,0.9-2.3,0.9C142.9,89.4,142,88.8,142,87.8z M146.3,87.8v-1.5
			c-2.5,0.2-3.3,0.7-3.3,1.5c0,0.7,0.6,0.9,1.3,0.9C144.9,88.6,145.6,88.3,146.3,87.8z"/>
		<path d="M149.2,86.4c0-2,1.5-3.1,3.2-3.1c0.9,0,1.6,0.4,2.1,0.9l-0.5,0.6c-0.5-0.4-1-0.7-1.6-0.7c-1.3,0-2.3,0.9-2.3,2.2
			c0,1.3,0.9,2.2,2.2,2.2c0.7,0,1.3-0.3,1.8-0.7l0.4,0.6c-0.6,0.6-1.5,0.9-2.3,0.9C150.6,89.4,149.2,88.3,149.2,86.4z"/>
		<path d="M157.9,87v-2.8h-1.7v-0.7l1.7-0.1l0.1-1.9h0.8v1.9h2.9v0.8h-2.9v2.8c0,1,0.3,1.6,1.5,1.6c0.5,0,1-0.1,1.4-0.3l0.2,0.7
			c-0.5,0.2-1.1,0.3-1.8,0.3C158.5,89.4,157.9,88.5,157.9,87z"/>
		<path d="M163.5,86.4c0-1.9,1.4-3,3-3c1.7,0,2.7,1.1,2.7,2.7c0,0.2,0,0.4,0,0.6h-4.9v-0.8h4.3l-0.3,0.3c0-1.4-0.7-2.1-1.8-2.1
			c-1.1,0-2,0.8-2,2.3c0,1.5,1,2.3,2.3,2.3c0.7,0,1.2-0.2,1.8-0.6l0.4,0.6c-0.6,0.4-1.3,0.7-2.3,0.7
			C164.9,89.4,163.5,88.3,163.5,86.4z"/>
		<path d="M171.6,83.5h0.8l0.1,1.4h0c0.6-0.9,1.5-1.5,2.6-1.5c0.4,0,0.8,0.1,1.2,0.2l-0.2,0.9c-0.4-0.1-0.6-0.2-1.1-0.2
			c-0.9,0-1.7,0.4-2.4,1.7v3.4h-1V83.5z"/>
	</g>
</g>
<g>
	<g class="st3">
		<path d="M48.5,99.4h5.2v0.7h-5.2V99.4z"/>
		<path d="M62.4,99.7c0-2.5,1.2-4,3-4c1.8,0,3,1.5,3,4c0,2.6-1.2,4.1-3,4.1C63.7,103.8,62.4,102.3,62.4,99.7z M67.5,99.7
			c0-2-0.8-3.2-2-3.2c-1.2,0-2,1.2-2,3.2c0,2,0.8,3.2,2,3.2C66.7,103,67.5,101.8,67.5,99.7z"/>
		<path d="M70.8,97.9h0.8l0.1,1.4h0c0.6-0.9,1.5-1.5,2.6-1.5c0.4,0,0.8,0.1,1.2,0.2l-0.2,0.9c-0.4-0.1-0.6-0.2-1.1-0.2
			c-0.9,0-1.7,0.4-2.4,1.7v3.4h-1V97.9z"/>
		<path d="M77,100.8c0-1.9,1.3-3.1,2.6-3.1c0.7,0,1.2,0.3,1.8,0.7h0l0-1.1v-2.2h1v8.5h-0.8l-0.1-0.8h0c-0.5,0.5-1.2,0.9-1.9,0.9
			C78,103.8,77,102.7,77,100.8z M81.4,102.1v-2.9c-0.5-0.5-1-0.7-1.5-0.7c-1,0-1.8,0.9-1.8,2.2c0,1.4,0.6,2.2,1.7,2.2
			C80.3,103,80.8,102.7,81.4,102.1z"/>
		<path d="M84.3,100.8c0-1.9,1.4-3,3-3c1.7,0,2.7,1.1,2.7,2.7c0,0.2,0,0.4,0,0.6h-4.9v-0.8h4.3l-0.3,0.3c0-1.4-0.7-2.1-1.8-2.1
			c-1.1,0-2,0.8-2,2.3c0,1.5,1,2.3,2.3,2.3c0.7,0,1.2-0.2,1.8-0.6l0.4,0.6c-0.6,0.4-1.3,0.7-2.3,0.7
			C85.7,103.8,84.3,102.7,84.3,100.8z"/>
		<path d="M92.4,97.9h0.8l0.1,1.4h0c0.6-0.9,1.5-1.5,2.6-1.5c0.4,0,0.8,0.1,1.2,0.2l-0.2,0.9c-0.4-0.1-0.6-0.2-1.1-0.2
			c-0.9,0-1.7,0.4-2.4,1.7v3.4h-1V97.9z"/>
		<path d="M100.5,98.5c0-0.6,0.4-1,1-1c0.5,0,1,0.4,1,1c0,0.6-0.4,1-1,1C100.9,99.6,100.5,99.1,100.5,98.5z M100.5,102.8
			c0-0.6,0.4-1,1-1c0.5,0,1,0.4,1,1c0,0.6-0.4,1-1,1C100.9,103.8,100.5,103.4,100.5,102.8z"/>
		<path d="M113.2,100.8c0-2,1.5-3.1,3.2-3.1c0.9,0,1.6,0.4,2.1,0.9l-0.5,0.6c-0.5-0.4-1-0.7-1.6-0.7c-1.3,0-2.3,0.9-2.3,2.2
			c0,1.3,0.9,2.2,2.2,2.2c0.7,0,1.3-0.3,1.8-0.7l0.4,0.6c-0.6,0.6-1.5,0.9-2.3,0.9C114.6,103.8,113.2,102.7,113.2,100.8z"/>
		<path d="M120.6,95.2h1v2.3l-0.1,1.4h0c0.6-0.6,1.3-1.1,2.2-1.1c1.4,0,2,0.8,2,2.4v3.6h-1v-3.5c0-1.1-0.4-1.6-1.3-1.6
			c-0.7,0-1.2,0.3-1.8,1v4.1h-1V95.2z"/>
		<path d="M127.6,102.2c0-1.3,1.2-1.9,4.2-2.2c0-0.8-0.4-1.5-1.5-1.5c-0.8,0-1.5,0.4-2,0.7l-0.4-0.7c0.6-0.4,1.6-0.8,2.6-0.8
			c1.6,0,2.4,0.9,2.4,2.4v3.6H132l-0.1-0.8h0c-0.6,0.5-1.5,0.9-2.3,0.9C128.5,103.8,127.6,103.2,127.6,102.2z M131.9,102.2v-1.5
			c-2.5,0.2-3.3,0.7-3.3,1.5c0,0.7,0.6,0.9,1.3,0.9C130.5,103,131.2,102.7,131.9,102.2z"/>
		<path d="M135.6,97.9h0.8l0.1,1.4h0c0.6-0.9,1.5-1.5,2.6-1.5c0.4,0,0.8,0.1,1.2,0.2l-0.2,0.9c-0.4-0.1-0.6-0.2-1.1-0.2
			c-0.9,0-1.7,0.4-2.4,1.7v3.4h-1V97.9z"/>
		<path d="M142,102.2c0-1.3,1.2-1.9,4.2-2.2c0-0.8-0.4-1.5-1.5-1.5c-0.8,0-1.5,0.4-2,0.7l-0.4-0.7c0.6-0.4,1.6-0.8,2.6-0.8
			c1.6,0,2.4,0.9,2.4,2.4v3.6h-0.8l-0.1-0.8h0c-0.6,0.5-1.5,0.9-2.3,0.9C142.9,103.8,142,103.2,142,102.2z M146.3,102.2v-1.5
			c-2.5,0.2-3.3,0.7-3.3,1.5c0,0.7,0.6,0.9,1.3,0.9C144.9,103,145.6,102.7,146.3,102.2z"/>
		<path d="M149.2,100.8c0-2,1.5-3.1,3.2-3.1c0.9,0,1.6,0.4,2.1,0.9l-0.5,0.6c-0.5-0.4-1-0.7-1.6-0.7c-1.3,0-2.3,0.9-2.3,2.2
			c0,1.3,0.9,2.2,2.2,2.2c0.7,0,1.3-0.3,1.8-0.7l0.4,0.6c-0.6,0.6-1.5,0.9-2.3,0.9C150.6,103.8,149.2,102.7,149.2,100.8z"/>
		<path d="M157.9,101.4v-2.8h-1.7v-0.7l1.7-0.1l0.1-1.9h0.8v1.9h2.9v0.8h-2.9v2.8c0,1,0.3,1.6,1.5,1.6c0.5,0,1-0.1,1.4-0.3l0.2,0.7
			c-0.5,0.2-1.1,0.3-1.8,0.3C158.5,103.8,157.9,102.9,157.9,101.4z"/>
		<path d="M163.5,100.8c0-1.9,1.4-3,3-3c1.7,0,2.7,1.1,2.7,2.7c0,0.2,0,0.4,0,0.6h-4.9v-0.8h4.3l-0.3,0.3c0-1.4-0.7-2.1-1.8-2.1
			c-1.1,0-2,0.8-2,2.3c0,1.5,1,2.3,2.3,2.3c0.7,0,1.2-0.2,1.8-0.6l0.4,0.6c-0.6,0.4-1.3,0.7-2.3,0.7
			C164.9,103.8,163.5,102.7,163.5,100.8z"/>
		<path d="M171.6,97.9h0.8l0.1,1.4h0c0.6-0.9,1.5-1.5,2.6-1.5c0.4,0,0.8,0.1,1.2,0.2l-0.2,0.9c-0.4-0.1-0.6-0.2-1.1-0.2
			c-0.9,0-1.7,0.4-2.4,1.7v3.4h-1V97.9z"/>
	</g>
</g>
<g>
	<g class="st3">
		<path d="M48.5,113.8h5.2v0.7h-5.2V113.8z"/>
		<path d="M63.5,110.2h4.8v0.9h-3.8v2.7h3.2v0.9h-3.2v3.5h-1V110.2z"/>
		<path d="M70,116.6c0-1.3,1.2-1.9,4.2-2.2c0-0.8-0.4-1.5-1.5-1.5c-0.8,0-1.5,0.4-2,0.7l-0.4-0.7c0.6-0.4,1.6-0.8,2.6-0.8
			c1.6,0,2.4,0.9,2.4,2.4v3.6h-0.8l-0.1-0.8h0c-0.6,0.5-1.5,0.9-2.3,0.9C70.9,118.2,70,117.6,70,116.6z M74.3,116.6v-1.5
			c-2.5,0.2-3.3,0.7-3.3,1.5c0,0.7,0.6,0.9,1.3,0.9C72.9,117.4,73.6,117.1,74.3,116.6z"/>
		<path d="M77,112.3h0.8l0.1,0.8h0c0.3-0.5,0.7-0.9,1.3-0.9c0.6,0,0.9,0.3,1.1,1c0.3-0.6,0.7-1,1.4-1c0.8,0,1.3,0.6,1.3,1.8v4.2h-1
			V114c0-0.7-0.2-1-0.6-1c-0.4,0-0.6,0.3-0.9,0.9v4.2h-0.9V114c0-0.7-0.2-1-0.6-1c-0.4,0-0.7,0.3-1,0.9v4.2h-1V112.3z"/>
		<path d="M87.3,113.1h-2.7v-0.8h3.7v5.8h-1V113.1z M86.9,110.3c0-0.5,0.3-0.8,0.8-0.8c0.5,0,0.8,0.3,0.8,0.8c0,0.5-0.3,0.8-0.8,0.8
			C87.2,111.1,86.9,110.8,86.9,110.3z"/>
		<path d="M93.6,116.2v-5.8h-2.1v-0.8h3.1v6.7c0,0.8,0.5,1.2,1.2,1.2c0.3,0,0.7-0.1,1.1-0.3l0.3,0.7c-0.5,0.2-0.9,0.3-1.6,0.3
			C94.3,118.2,93.6,117.5,93.6,116.2z"/>
		<path d="M98.7,120.5l0.2-0.8c0.2,0,0.3,0.1,0.5,0.1c0.8,0,1.3-0.5,1.6-1.2l0.2-0.4l-2.7-5.8h1l1.4,3.2c0.2,0.5,0.5,1.1,0.7,1.7h0
			c0.2-0.6,0.4-1.2,0.6-1.7l1.3-3.2h1l-2.6,6.3c-0.4,1.2-1.1,2-2.5,2C99.2,120.6,98.9,120.6,98.7,120.5z"/>
		<path d="M107.7,112.9c0-0.6,0.4-1,1-1c0.5,0,1,0.4,1,1c0,0.6-0.4,1-1,1C108.1,114,107.7,113.5,107.7,112.9z M107.7,117.2
			c0-0.6,0.4-1,1-1c0.5,0,1,0.4,1,1c0,0.6-0.4,1-1,1C108.1,118.2,107.7,117.8,107.7,117.2z"/>
		<path d="M120.4,115.2c0-2,1.5-3.1,3.2-3.1c0.9,0,1.6,0.4,2.1,0.9l-0.5,0.6c-0.5-0.4-1-0.7-1.6-0.7c-1.3,0-2.3,0.9-2.3,2.2
			c0,1.3,0.9,2.2,2.2,2.2c0.7,0,1.3-0.3,1.8-0.7l0.4,0.6c-0.6,0.6-1.5,0.9-2.3,0.9C121.8,118.2,120.4,117.1,120.4,115.2z"/>
		<path d="M127.8,109.6h1v2.3l-0.1,1.4h0c0.6-0.6,1.3-1.1,2.2-1.1c1.4,0,2,0.8,2,2.4v3.6h-1v-3.5c0-1.1-0.4-1.6-1.3-1.6
			c-0.7,0-1.2,0.3-1.8,1v4.1h-1V109.6z"/>
		<path d="M134.8,116.6c0-1.3,1.2-1.9,4.2-2.2c0-0.8-0.4-1.5-1.5-1.5c-0.8,0-1.5,0.4-2,0.7l-0.4-0.7c0.6-0.4,1.6-0.8,2.6-0.8
			c1.6,0,2.4,0.9,2.4,2.4v3.6h-0.8l-0.1-0.8h0c-0.6,0.5-1.5,0.9-2.3,0.9C135.7,118.2,134.8,117.6,134.8,116.6z M139.1,116.6v-1.5
			c-2.5,0.2-3.3,0.7-3.3,1.5c0,0.7,0.6,0.9,1.3,0.9C137.7,117.4,138.4,117.1,139.1,116.6z"/>
		<path d="M142.8,112.3h0.8l0.1,1.4h0c0.6-0.9,1.5-1.5,2.6-1.5c0.4,0,0.8,0.1,1.2,0.2l-0.2,0.9c-0.4-0.1-0.6-0.2-1.1-0.2
			c-0.9,0-1.7,0.4-2.4,1.7v3.4h-1V112.3z"/>
		<path d="M149.2,116.6c0-1.3,1.2-1.9,4.2-2.2c0-0.8-0.4-1.5-1.5-1.5c-0.8,0-1.5,0.4-2,0.7l-0.4-0.7c0.6-0.4,1.6-0.8,2.6-0.8
			c1.6,0,2.4,0.9,2.4,2.4v3.6h-0.8l-0.1-0.8h0c-0.6,0.5-1.5,0.9-2.3,0.9C150.1,118.2,149.2,117.6,149.2,116.6z M153.5,116.6v-1.5
			c-2.5,0.2-3.2,0.7-3.2,1.5c0,0.7,0.6,0.9,1.3,0.9C152.1,117.4,152.8,117.1,153.5,116.6z"/>
		<path d="M156.4,115.2c0-2,1.5-3.1,3.2-3.1c0.9,0,1.6,0.4,2.1,0.9l-0.5,0.6c-0.5-0.4-1-0.7-1.6-0.7c-1.3,0-2.3,0.9-2.3,2.2
			c0,1.3,0.9,2.2,2.2,2.2c0.7,0,1.3-0.3,1.8-0.7l0.4,0.6c-0.6,0.6-1.5,0.9-2.3,0.9C157.8,118.2,156.4,117.1,156.4,115.2z"/>
		<path d="M165.1,115.8v-2.8h-1.7v-0.7l1.7-0.1l0.1-1.9h0.8v1.9h2.9v0.8h-2.9v2.8c0,1,0.3,1.6,1.5,1.6c0.5,0,1-0.1,1.4-0.3l0.2,0.7
			c-0.5,0.2-1.1,0.3-1.8,0.3C165.7,118.2,165.1,117.3,165.1,115.8z"/>
		<path d="M170.7,115.2c0-1.9,1.4-3,3-3c1.7,0,2.7,1.1,2.7,2.7c0,0.2,0,0.4,0,0.6h-4.9v-0.8h4.3l-0.3,0.3c0-1.4-0.7-2.1-1.8-2.1
			c-1.1,0-2,0.8-2,2.3c0,1.5,1,2.3,2.3,2.3c0.7,0,1.2-0.2,1.8-0.6l0.4,0.6c-0.6,0.4-1.3,0.7-2.3,0.7
			C172.1,118.2,170.7,117.1,170.7,115.2z"/>
		<path d="M178.8,112.3h0.8l0.1,1.4h0c0.6-0.9,1.5-1.5,2.6-1.5c0.4,0,0.8,0.1,1.2,0.2l-0.2,0.9c-0.4-0.1-0.6-0.2-1.1-0.2
			c-0.9,0-1.7,0.4-2.4,1.7v3.4h-1V112.3z"/>
	</g>
</g>
<g>
	<g class="st3">
		<path d="M48.5,128.2h5.2v0.7h-5.2V128.2z"/>
		<path d="M62.5,128.6c0-2.5,1.5-4.1,3.5-4.1c1,0,1.7,0.5,2.2,1l-0.6,0.6c-0.4-0.4-0.8-0.7-1.6-0.7c-1.5,0-2.4,1.2-2.4,3.2
			c0,2,0.9,3.2,2.4,3.2c0.6,0,1.1-0.2,1.4-0.5v-2.1h-1.6v-0.8h2.5v3.3c-0.5,0.5-1.3,0.9-2.4,0.9C63.9,132.6,62.5,131.1,62.5,128.6z"
			/>
		<path d="M69.9,129.6c0-1.9,1.4-3,3-3c1.7,0,2.7,1.1,2.7,2.7c0,0.2,0,0.4,0,0.6h-4.9v-0.8h4.3l-0.3,0.3c0-1.4-0.7-2.1-1.8-2.1
			c-1.1,0-2,0.8-2,2.3c0,1.5,1,2.3,2.3,2.3c0.7,0,1.2-0.2,1.8-0.6l0.4,0.6c-0.6,0.4-1.3,0.7-2.3,0.7
			C71.3,132.6,69.9,131.5,69.9,129.6z"/>
		<path d="M77.4,126.7h0.8l0.1,1h0c0.6-0.6,1.3-1.1,2.2-1.1c1.4,0,2,0.8,2,2.4v3.6h-1V129c0-1.1-0.4-1.6-1.3-1.6
			c-0.7,0-1.2,0.3-1.8,1v4.1h-1V126.7z"/>
		<path d="M84.4,130.3v-3.6h1v3.5c0,1.1,0.4,1.6,1.3,1.6c0.7,0,1.2-0.3,1.8-1.1v-4h1v5.8h-0.8l-0.1-1h0c-0.6,0.7-1.3,1.2-2.2,1.2
			C85,132.6,84.4,131.8,84.4,130.3z"/>
		<path d="M91.5,131.7l0.5-0.7c0.7,0.5,1.5,0.8,2.5,0.8c1,0,1.5-0.4,1.5-0.9c0-0.4-0.2-0.8-1.8-1.1c-1.5-0.3-2.3-0.8-2.3-1.7
			c0-0.9,0.8-1.7,2.4-1.7c0.9,0,1.8,0.3,2.4,0.7l-0.5,0.6c-0.5-0.4-1.2-0.6-2-0.6c-1,0-1.3,0.4-1.3,0.8c0,0.5,0.5,0.7,1.7,1
			c1.9,0.4,2.4,0.9,2.4,1.8c0,0.9-0.9,1.7-2.6,1.7C93.3,132.6,92.2,132.2,91.5,131.7z"/>
		<path d="M100.5,127.3c0-0.6,0.4-1,1-1c0.5,0,1,0.4,1,1c0,0.6-0.4,1-1,1C100.9,128.4,100.5,127.9,100.5,127.3z M100.5,131.6
			c0-0.6,0.4-1,1-1c0.5,0,1,0.4,1,1c0,0.6-0.4,1-1,1C100.9,132.6,100.5,132.2,100.5,131.6z"/>
		<path d="M113.2,129.6c0-2,1.5-3.1,3.2-3.1c0.9,0,1.6,0.4,2.1,0.9l-0.5,0.6c-0.5-0.4-1-0.7-1.6-0.7c-1.3,0-2.3,0.9-2.3,2.2
			c0,1.3,0.9,2.2,2.2,2.2c0.7,0,1.3-0.3,1.8-0.7l0.4,0.6c-0.6,0.6-1.5,0.9-2.3,0.9C114.6,132.6,113.2,131.5,113.2,129.6z"/>
		<path d="M120.6,124h1v2.3l-0.1,1.4h0c0.6-0.6,1.3-1.1,2.2-1.1c1.4,0,2,0.8,2,2.4v3.6h-1V129c0-1.1-0.4-1.6-1.3-1.6
			c-0.7,0-1.2,0.3-1.8,1v4.1h-1V124z"/>
		<path d="M127.6,131c0-1.3,1.2-1.9,4.2-2.2c0-0.8-0.4-1.5-1.5-1.5c-0.8,0-1.5,0.4-2,0.7l-0.4-0.7c0.6-0.4,1.6-0.8,2.6-0.8
			c1.6,0,2.4,0.9,2.4,2.4v3.6H132l-0.1-0.8h0c-0.6,0.5-1.5,0.9-2.3,0.9C128.5,132.6,127.6,132,127.6,131z M131.9,131v-1.5
			c-2.5,0.2-3.3,0.7-3.3,1.5c0,0.7,0.6,0.9,1.3,0.9C130.5,131.8,131.2,131.5,131.9,131z"/>
		<path d="M135.6,126.7h0.8l0.1,1.4h0c0.6-0.9,1.5-1.5,2.6-1.5c0.4,0,0.8,0.1,1.2,0.2l-0.2,0.9c-0.4-0.1-0.6-0.2-1.1-0.2
			c-0.9,0-1.7,0.4-2.4,1.7v3.4h-1V126.7z"/>
		<path d="M142,131c0-1.3,1.2-1.9,4.2-2.2c0-0.8-0.4-1.5-1.5-1.5c-0.8,0-1.5,0.4-2,0.7l-0.4-0.7c0.6-0.4,1.6-0.8,2.6-0.8
			c1.6,0,2.4,0.9,2.4,2.4v3.6h-0.8l-0.1-0.8h0c-0.6,0.5-1.5,0.9-2.3,0.9C142.9,132.6,142,132,142,131z M146.3,131v-1.5
			c-2.5,0.2-3.3,0.7-3.3,1.5c0,0.7,0.6,0.9,1.3,0.9C144.9,131.8,145.6,131.5,146.3,131z"/>
		<path d="M149.2,129.6c0-2,1.5-3.1,3.2-3.1c0.9,0,1.6,0.4,2.1,0.9l-0.5,0.6c-0.5-0.4-1-0.7-1.6-0.7c-1.3,0-2.3,0.9-2.3,2.2
			c0,1.3,0.9,2.2,2.2,2.2c0.7,0,1.3-0.3,1.8-0.7l0.4,0.6c-0.6,0.6-1.5,0.9-2.3,0.9C150.6,132.6,149.2,131.5,149.2,129.6z"/>
		<path d="M157.9,130.2v-2.8h-1.7v-0.7l1.7-0.1l0.1-1.9h0.8v1.9h2.9v0.8h-2.9v2.8c0,1,0.3,1.6,1.5,1.6c0.5,0,1-0.1,1.4-0.3l0.2,0.7
			c-0.5,0.2-1.1,0.3-1.8,0.3C158.5,132.6,157.9,131.7,157.9,130.2z"/>
		<path d="M163.5,129.6c0-1.9,1.4-3,3-3c1.7,0,2.7,1.1,2.7,2.7c0,0.2,0,0.4,0,0.6h-4.9v-0.8h4.3l-0.3,0.3c0-1.4-0.7-2.1-1.8-2.1
			c-1.1,0-2,0.8-2,2.3c0,1.5,1,2.3,2.3,2.3c0.7,0,1.2-0.2,1.8-0.6l0.4,0.6c-0.6,0.4-1.3,0.7-2.3,0.7
			C164.9,132.6,163.5,131.5,163.5,129.6z"/>
		<path d="M171.6,126.7h0.8l0.1,1.4h0c0.6-0.9,1.5-1.5,2.6-1.5c0.4,0,0.8,0.1,1.2,0.2l-0.2,0.9c-0.4-0.1-0.6-0.2-1.1-0.2
			c-0.9,0-1.7,0.4-2.4,1.7v3.4h-1V126.7z"/>
	</g>
</g>
<g>
	<g class="st3">
		<path d="M48.5,142.6h5.2v0.7h-5.2V142.6z"/>
		<path d="M62.7,145.9l0.6-0.7c0.6,0.6,1.4,1,2.3,1c1.1,0,1.7-0.5,1.7-1.2c0-0.8-0.6-1.1-1.4-1.4l-1.1-0.5c-0.8-0.3-1.7-0.9-1.7-2
			c0-1.2,1.1-2.1,2.6-2.1c1,0,1.8,0.4,2.4,1l-0.5,0.6c-0.5-0.5-1.1-0.7-1.9-0.7c-0.9,0-1.5,0.4-1.5,1.1c0,0.8,0.7,1,1.4,1.3l1.1,0.5
			c1,0.4,1.7,0.9,1.7,2.1c0,1.2-1.1,2.2-2.8,2.2C64.4,147,63.4,146.6,62.7,145.9z"/>
		<path d="M70.2,141.1H71l0.1,0.7h0c0.5-0.5,1.3-0.9,2-0.9c1.6,0,2.4,1.2,2.4,3c0,2-1.2,3.1-2.7,3.1c-0.5,0-1.2-0.3-1.7-0.8h0l0,1.1
			v2h-1V141.1z M74.5,143.9c0-1.3-0.5-2.1-1.6-2.1c-0.5,0-1.1,0.3-1.7,0.9v2.9c0.5,0.5,1.2,0.7,1.5,0.7
			C73.8,146.2,74.5,145.3,74.5,143.9z"/>
		<path d="M77.1,144c0-1.9,1.4-3,3-3c1.7,0,2.7,1.1,2.7,2.7c0,0.2,0,0.4,0,0.6h-4.9v-0.8h4.3l-0.3,0.3c0-1.4-0.7-2.1-1.8-2.1
			c-1.1,0-2,0.8-2,2.3c0,1.5,1,2.3,2.3,2.3c0.7,0,1.2-0.2,1.8-0.6l0.4,0.6c-0.6,0.4-1.3,0.7-2.3,0.7C78.5,147,77.1,145.9,77.1,144z"
			/>
		<path d="M84.4,144c0-2,1.5-3.1,3.2-3.1c0.9,0,1.6,0.4,2.1,0.9l-0.5,0.6c-0.5-0.4-1-0.7-1.6-0.7c-1.3,0-2.3,0.9-2.3,2.2
			c0,1.3,0.9,2.2,2.2,2.2c0.7,0,1.3-0.3,1.8-0.7l0.4,0.6c-0.6,0.6-1.5,0.9-2.3,0.9C85.8,147,84.4,145.9,84.4,144z"/>
		<path d="M94.5,141.9h-2.7v-0.8h3.7v5.8h-1V141.9z M94.1,139.1c0-0.5,0.3-0.8,0.8-0.8c0.5,0,0.8,0.3,0.8,0.8c0,0.5-0.3,0.8-0.8,0.8
			C94.4,139.9,94.1,139.6,94.1,139.1z"/>
		<path d="M98.7,144c0-1.9,1.4-3,3-3c1.7,0,2.7,1.1,2.7,2.7c0,0.2,0,0.4,0,0.6h-4.9v-0.8h4.3l-0.3,0.3c0-1.4-0.7-2.1-1.8-2.1
			c-1.1,0-2,0.8-2,2.3c0,1.5,1,2.3,2.3,2.3c0.7,0,1.2-0.2,1.8-0.6l0.4,0.6c-0.6,0.4-1.3,0.7-2.3,0.7C100.1,147,98.7,145.9,98.7,144z
			"/>
		<path d="M105.9,146.1l0.5-0.7c0.7,0.5,1.5,0.8,2.5,0.8c1,0,1.5-0.4,1.5-0.9c0-0.4-0.2-0.8-1.8-1.1c-1.5-0.3-2.3-0.8-2.3-1.7
			c0-0.9,0.8-1.7,2.4-1.7c0.9,0,1.8,0.3,2.4,0.7l-0.5,0.6c-0.5-0.4-1.2-0.6-2-0.6c-1,0-1.3,0.4-1.3,0.8c0,0.5,0.5,0.7,1.7,1
			c1.9,0.4,2.4,0.9,2.4,1.8c0,0.9-0.9,1.7-2.6,1.7C107.7,147,106.6,146.6,105.9,146.1z"/>
		<path d="M114.9,141.7c0-0.6,0.4-1,1-1c0.5,0,1,0.4,1,1c0,0.6-0.4,1-1,1C115.3,142.8,114.9,142.3,114.9,141.7z M114.9,146
			c0-0.6,0.4-1,1-1c0.5,0,1,0.4,1,1c0,0.6-0.4,1-1,1C115.3,147,114.9,146.6,114.9,146z"/>
		<path d="M127.6,144c0-2,1.5-3.1,3.2-3.1c0.9,0,1.6,0.4,2.1,0.9l-0.5,0.6c-0.5-0.4-1-0.7-1.6-0.7c-1.3,0-2.3,0.9-2.3,2.2
			c0,1.3,0.9,2.2,2.2,2.2c0.7,0,1.3-0.3,1.8-0.7l0.4,0.6c-0.6,0.6-1.5,0.9-2.3,0.9C129,147,127.6,145.9,127.6,144z"/>
		<path d="M135,138.4h1v2.3l-0.1,1.4h0c0.6-0.6,1.3-1.1,2.2-1.1c1.4,0,2,0.8,2,2.4v3.6h-1v-3.5c0-1.1-0.4-1.6-1.3-1.6
			c-0.7,0-1.2,0.3-1.8,1v4.1h-1V138.4z"/>
		<path d="M142,145.4c0-1.3,1.2-1.9,4.2-2.2c0-0.8-0.4-1.5-1.5-1.5c-0.8,0-1.5,0.4-2,0.7l-0.4-0.7c0.6-0.4,1.6-0.8,2.6-0.8
			c1.6,0,2.4,0.9,2.4,2.4v3.6h-0.8l-0.1-0.8h0c-0.6,0.5-1.5,0.9-2.3,0.9C142.9,147,142,146.4,142,145.4z M146.3,145.4v-1.5
			c-2.5,0.2-3.3,0.7-3.3,1.5c0,0.7,0.6,0.9,1.3,0.9C144.9,146.2,145.6,145.9,146.3,145.4z"/>
		<path d="M150,141.1h0.8l0.1,1.4h0c0.6-0.9,1.5-1.5,2.6-1.5c0.4,0,0.8,0.1,1.2,0.2l-0.2,0.9c-0.4-0.1-0.6-0.2-1.1-0.2
			c-0.9,0-1.7,0.4-2.4,1.7v3.4h-1V141.1z"/>
		<path d="M156.4,145.4c0-1.3,1.2-1.9,4.2-2.2c0-0.8-0.4-1.5-1.5-1.5c-0.8,0-1.5,0.4-2,0.7l-0.4-0.7c0.6-0.4,1.6-0.8,2.6-0.8
			c1.6,0,2.4,0.9,2.4,2.4v3.6h-0.8l-0.1-0.8h0c-0.6,0.5-1.5,0.9-2.3,0.9C157.3,147,156.4,146.4,156.4,145.4z M160.7,145.4v-1.5
			c-2.5,0.2-3.2,0.7-3.2,1.5c0,0.7,0.6,0.9,1.3,0.9C159.3,146.2,160,145.9,160.7,145.4z"/>
		<path d="M163.6,144c0-2,1.5-3.1,3.2-3.1c0.9,0,1.6,0.4,2.1,0.9l-0.5,0.6c-0.5-0.4-1-0.7-1.6-0.7c-1.3,0-2.3,0.9-2.3,2.2
			c0,1.3,0.9,2.2,2.2,2.2c0.7,0,1.3-0.3,1.8-0.7l0.4,0.6c-0.6,0.6-1.5,0.9-2.3,0.9C165,147,163.6,145.9,163.6,144z"/>
		<path d="M172.3,144.6v-2.8h-1.7v-0.7l1.7-0.1l0.1-1.9h0.8v1.9h2.9v0.8h-2.9v2.8c0,1,0.3,1.6,1.5,1.6c0.5,0,1-0.1,1.4-0.3l0.2,0.7
			c-0.5,0.2-1.1,0.3-1.8,0.3C172.9,147,172.3,146.1,172.3,144.6z"/>
		<path d="M177.9,144c0-1.9,1.4-3,3-3c1.7,0,2.7,1.1,2.7,2.7c0,0.2,0,0.4,0,0.6h-4.9v-0.8h4.3l-0.3,0.3c0-1.4-0.7-2.1-1.8-2.1
			c-1.1,0-2,0.8-2,2.3c0,1.5,1,2.3,2.3,2.3c0.7,0,1.2-0.2,1.8-0.6l0.4,0.6c-0.6,0.4-1.3,0.7-2.3,0.7
			C179.3,147,177.9,145.9,177.9,144z"/>
		<path d="M186,141.1h0.8l0.1,1.4h0c0.6-0.9,1.5-1.5,2.6-1.5c0.4,0,0.8,0.1,1.2,0.2l-0.2,0.9c-0.4-0.1-0.6-0.2-1.1-0.2
			c-0.9,0-1.7,0.4-2.4,1.7v3.4h-1V141.1z"/>
	</g>
</g>
<rect x="31.1" y="162.9" class="st0" width="223" height="111.7"/>
<g>
	<g class="st3">
		<path d="M51,179.6h-2.2v-0.7H51v-2.3h0.8v2.3H54v0.7h-2.2v2.3H51V179.6z"/>
		<path d="M63.1,184.3c0-0.5,0.3-0.9,1-1.3v0c-0.3-0.2-0.6-0.5-0.6-1c0-0.4,0.3-0.8,0.7-1.1v0c-0.4-0.3-0.7-0.8-0.7-1.5
			c0-1.3,1.1-2.1,2.3-2.1c0.3,0,0.6,0,0.9,0.1H69v0.8h-1.5c0.3,0.3,0.5,0.7,0.5,1.2c0,1.2-1,2-2.3,2c-0.3,0-0.7-0.1-1-0.2
			c-0.3,0.2-0.5,0.4-0.5,0.7c0,0.5,0.4,0.7,1.2,0.7h1.3c1.5,0,2.2,0.4,2.2,1.4c0,1.1-1.3,2-3.2,2C64.1,185.9,63.1,185.3,63.1,184.3z
			 M68.1,184c0-0.6-0.4-0.7-1.3-0.7h-1.1c-0.3,0-0.6,0-0.9-0.1c-0.6,0.3-0.7,0.6-0.7,1c0,0.6,0.7,1,1.9,1
			C67.2,185.2,68.1,184.6,68.1,184z M67.1,179.3c0-0.8-0.6-1.4-1.3-1.4c-0.7,0-1.3,0.6-1.3,1.4c0,0.8,0.6,1.4,1.3,1.4
			C66.5,180.7,67.1,180.1,67.1,179.3z"/>
		<path d="M70.3,180.3c0-1.9,1.4-3,3-3c1.7,0,2.7,1.1,2.7,2.7c0,0.2,0,0.4,0,0.6h-4.9v-0.8h4.3l-0.3,0.3c0-1.4-0.7-2.1-1.8-2.1
			c-1.1,0-2,0.8-2,2.3c0,1.5,1,2.3,2.3,2.3c0.7,0,1.2-0.2,1.8-0.6l0.4,0.6c-0.6,0.4-1.3,0.7-2.3,0.7
			C71.7,183.3,70.3,182.2,70.3,180.3z"/>
		<path d="M79.1,180.9v-2.8h-1.7v-0.7l1.7-0.1l0.1-1.9h0.8v1.9H83v0.8h-2.9v2.8c0,1,0.3,1.6,1.5,1.6c0.5,0,1-0.1,1.4-0.3l0.2,0.7
			c-0.5,0.2-1.1,0.3-1.8,0.3C79.7,183.3,79.1,182.4,79.1,180.9z"/>
		<path d="M84.6,184h5.8v0.9h-5.8V184z"/>
		<path d="M92.2,177.4H93l0.1,0.7h0c0.5-0.5,1.3-0.9,2-0.9c1.6,0,2.4,1.2,2.4,3c0,2-1.2,3.1-2.7,3.1c-0.5,0-1.2-0.3-1.7-0.8h0l0,1.1
			v2h-1V177.4z M96.5,180.2c0-1.3-0.5-2.1-1.6-2.1c-0.5,0-1.1,0.3-1.7,0.9v2.9c0.5,0.5,1.2,0.7,1.5,0.7
			C95.7,182.5,96.5,181.6,96.5,180.2z"/>
		<path d="M99.4,174.6h1v2.3l-0.1,1.4h0c0.6-0.6,1.3-1.1,2.2-1.1c1.4,0,2,0.8,2,2.4v3.6h-1v-3.5c0-1.1-0.4-1.6-1.3-1.6
			c-0.7,0-1.2,0.3-1.8,1v4.1h-1V174.6z"/>
		<path d="M106.2,185.6l0.2-0.8c0.2,0,0.3,0.1,0.5,0.1c0.8,0,1.3-0.5,1.6-1.2l0.2-0.4l-2.7-5.8h1l1.4,3.2c0.2,0.5,0.5,1.1,0.7,1.7h0
			c0.2-0.6,0.4-1.2,0.6-1.7l1.3-3.2h1l-2.6,6.3c-0.4,1.2-1.1,2-2.5,2C106.7,185.7,106.5,185.6,106.2,185.6z"/>
		<path d="M115.6,181.2v-5.8h-2.1v-0.8h3.1v6.7c0,0.8,0.5,1.2,1.2,1.2c0.3,0,0.7-0.1,1.1-0.3l0.3,0.7c-0.5,0.2-0.9,0.3-1.6,0.3
			C116.3,183.3,115.6,182.6,115.6,181.2z"/>
		<path d="M120.8,181v-3.6h1v3.5c0,1.1,0.4,1.6,1.3,1.6c0.7,0,1.2-0.3,1.8-1.1v-4h1v5.8h-0.8l-0.1-1h0c-0.6,0.7-1.3,1.2-2.2,1.2
			C121.4,183.3,120.8,182.5,120.8,181z"/>
		<path d="M127.7,177.4h0.8l0.1,0.8h0c0.3-0.5,0.7-0.9,1.3-0.9c0.6,0,0.9,0.3,1.1,1c0.3-0.6,0.7-1,1.4-1c0.8,0,1.3,0.6,1.3,1.8v4.2
			h-1v-4.1c0-0.7-0.2-1-0.6-1c-0.4,0-0.6,0.3-0.9,0.9v4.2h-0.9v-4.1c0-0.7-0.2-1-0.6-1c-0.4,0-0.7,0.3-1,0.9v4.2h-1V177.4z"/>
		<path d="M136.7,179.8c0-2.3,1-4.2,2.7-5.4l0.6,0.5c-1.6,1.4-2.4,2.9-2.4,4.9s0.7,3.6,2.4,4.9l-0.6,0.5
			C137.8,184,136.7,182.2,136.7,179.8z"/>
		<path d="M142.9,184.8c1.6-1.4,2.4-2.9,2.4-4.9s-0.7-3.6-2.4-4.9l0.6-0.5c1.7,1.3,2.7,3.1,2.7,5.4s-1,4.1-2.7,5.4L142.9,184.8z"/>
	</g>
</g>
<g>
	<g class="st3">
		<path d="M50.8,194h-2.2v-0.7h2.2v-2.3h0.8v2.3h2.2v0.7h-2.2v2.3h-0.8V194z"/>
		<path d="M62.9,198.7c0-0.5,0.3-0.9,1-1.3v0c-0.3-0.2-0.6-0.5-0.6-1c0-0.4,0.3-0.8,0.7-1.1v0c-0.4-0.3-0.7-0.8-0.7-1.5
			c0-1.3,1.1-2.1,2.3-2.1c0.3,0,0.6,0,0.9,0.1h2.4v0.8h-1.5c0.3,0.3,0.5,0.7,0.5,1.2c0,1.2-1,2-2.3,2c-0.3,0-0.7-0.1-1-0.2
			c-0.3,0.2-0.5,0.4-0.5,0.7c0,0.5,0.4,0.7,1.2,0.7h1.3c1.5,0,2.2,0.4,2.2,1.4c0,1.1-1.3,2-3.2,2C63.9,200.3,62.9,199.7,62.9,198.7z
			 M67.9,198.4c0-0.6-0.4-0.7-1.3-0.7h-1.1c-0.3,0-0.6,0-0.9-0.1c-0.6,0.3-0.7,0.6-0.7,1c0,0.6,0.7,1,1.9,1
			C67,199.6,67.9,199,67.9,198.4z M66.9,193.7c0-0.8-0.6-1.4-1.3-1.4c-0.7,0-1.3,0.6-1.3,1.4c0,0.8,0.6,1.4,1.3,1.4
			C66.3,195.1,66.9,194.5,66.9,193.7z"/>
		<path d="M70.1,194.7c0-1.9,1.4-3,3-3c1.7,0,2.7,1.1,2.7,2.7c0,0.2,0,0.4,0,0.6h-4.9v-0.8h4.3l-0.3,0.3c0-1.4-0.7-2.1-1.8-2.1
			c-1.1,0-2,0.8-2,2.3c0,1.5,1,2.3,2.3,2.3c0.7,0,1.2-0.2,1.8-0.6l0.4,0.6c-0.6,0.4-1.3,0.7-2.3,0.7
			C71.5,197.7,70.1,196.6,70.1,194.7z"/>
		<path d="M78.9,195.3v-2.8h-1.7v-0.7l1.7-0.1l0.1-1.9h0.8v1.9h2.9v0.8h-2.9v2.8c0,1,0.3,1.6,1.5,1.6c0.5,0,1-0.1,1.4-0.3l0.2,0.7
			c-0.5,0.2-1.1,0.3-1.8,0.3C79.5,197.7,78.9,196.8,78.9,195.3z"/>
		<path d="M84.4,198.4h5.8v0.9h-5.8V198.4z"/>
		<path d="M91.8,194.7c0-2,1.5-3.1,3.2-3.1c0.9,0,1.6,0.4,2.1,0.9l-0.5,0.6c-0.5-0.4-1-0.7-1.6-0.7c-1.3,0-2.3,0.9-2.3,2.2
			c0,1.3,0.9,2.2,2.2,2.2c0.7,0,1.3-0.3,1.8-0.7l0.4,0.6c-0.6,0.6-1.5,0.9-2.3,0.9C93.2,197.7,91.8,196.6,91.8,194.7z"/>
		<path d="M101,195.6v-5.8h-2.1V189h3.1v6.7c0,0.8,0.5,1.2,1.2,1.2c0.3,0,0.7-0.1,1.1-0.3l0.3,0.7c-0.5,0.2-0.9,0.3-1.6,0.3
			C101.7,197.7,101,197,101,195.6z"/>
		<path d="M106.2,196.1c0-1.3,1.2-1.9,4.2-2.2c0-0.8-0.4-1.5-1.5-1.5c-0.8,0-1.5,0.4-2,0.7l-0.4-0.7c0.6-0.4,1.6-0.8,2.6-0.8
			c1.6,0,2.4,0.9,2.4,2.4v3.6h-0.8l-0.1-0.8h0c-0.6,0.5-1.5,0.9-2.3,0.9C107.1,197.7,106.2,197.1,106.2,196.1z M110.4,196.1v-1.5
			c-2.5,0.2-3.3,0.7-3.3,1.5c0,0.7,0.6,0.9,1.3,0.9C109.1,196.9,109.8,196.6,110.4,196.1z"/>
		<path d="M113.3,196.8l0.5-0.7c0.7,0.5,1.5,0.8,2.5,0.8c1,0,1.5-0.4,1.5-0.9c0-0.4-0.2-0.8-1.8-1.1c-1.5-0.3-2.3-0.8-2.3-1.7
			c0-0.9,0.8-1.7,2.4-1.7c0.9,0,1.8,0.3,2.4,0.7l-0.5,0.6c-0.5-0.4-1.2-0.6-2-0.6c-1,0-1.3,0.4-1.3,0.8c0,0.5,0.5,0.7,1.7,1
			c1.9,0.4,2.4,0.9,2.4,1.8c0,0.9-0.9,1.7-2.6,1.7C115,197.7,114,197.3,113.3,196.8z"/>
		<path d="M120.5,196.8l0.5-0.7c0.7,0.5,1.5,0.8,2.5,0.8c1,0,1.5-0.4,1.5-0.9c0-0.4-0.2-0.8-1.8-1.1c-1.5-0.3-2.3-0.8-2.3-1.7
			c0-0.9,0.8-1.7,2.4-1.7c0.9,0,1.8,0.3,2.4,0.7l-0.5,0.6c-0.5-0.4-1.2-0.6-2-0.6c-1,0-1.3,0.4-1.3,0.8c0,0.5,0.5,0.7,1.7,1
			c1.9,0.4,2.4,0.9,2.4,1.8c0,0.9-0.9,1.7-2.6,1.7C122.2,197.7,121.2,197.3,120.5,196.8z"/>
		<path d="M129.3,194.3c0-2.3,1-4.2,2.7-5.4l0.6,0.5c-1.6,1.4-2.4,2.9-2.4,4.9s0.7,3.6,2.4,4.9l-0.6,0.5
			C130.4,198.4,129.3,196.6,129.3,194.3z"/>
		<path d="M135.5,199.2c1.6-1.4,2.4-2.9,2.4-4.9s-0.7-3.6-2.4-4.9l0.6-0.5c1.7,1.3,2.7,3.1,2.7,5.4s-1,4.1-2.7,5.4L135.5,199.2z"/>
	</g>
</g>
<g>
	<g class="st3">
		<path d="M50.8,208.4h-2.2v-0.7h2.2v-2.3h0.8v2.3h2.2v0.7h-2.2v2.3h-0.8V208.4z"/>
		<path d="M62.9,213.1c0-0.5,0.3-0.9,1-1.3v0c-0.3-0.2-0.6-0.5-0.6-1c0-0.4,0.3-0.8,0.7-1.1v0c-0.4-0.3-0.7-0.8-0.7-1.5
			c0-1.3,1.1-2.1,2.3-2.1c0.3,0,0.6,0,0.9,0.1h2.4v0.8h-1.5c0.3,0.3,0.5,0.7,0.5,1.2c0,1.2-1,2-2.3,2c-0.3,0-0.7-0.1-1-0.2
			c-0.3,0.2-0.5,0.4-0.5,0.7c0,0.5,0.4,0.7,1.2,0.7h1.3c1.5,0,2.2,0.4,2.2,1.4c0,1.1-1.3,2-3.2,2C63.9,214.7,62.9,214.1,62.9,213.1z
			 M67.9,212.8c0-0.6-0.4-0.7-1.3-0.7h-1.1c-0.3,0-0.6,0-0.9-0.1c-0.6,0.3-0.7,0.6-0.7,1c0,0.6,0.7,1,1.9,1
			C67,214,67.9,213.4,67.9,212.8z M66.9,208.1c0-0.8-0.6-1.4-1.3-1.4c-0.7,0-1.3,0.6-1.3,1.4c0,0.8,0.6,1.4,1.3,1.4
			C66.3,209.5,66.9,208.9,66.9,208.1z"/>
		<path d="M70.1,209.1c0-1.9,1.4-3,3-3c1.7,0,2.7,1.1,2.7,2.7c0,0.2,0,0.4,0,0.6h-4.9v-0.8h4.3l-0.3,0.3c0-1.4-0.7-2.1-1.8-2.1
			c-1.1,0-2,0.8-2,2.3c0,1.5,1,2.3,2.3,2.3c0.7,0,1.2-0.2,1.8-0.6l0.4,0.6c-0.6,0.4-1.3,0.7-2.3,0.7C71.5,212.1,70.1,211,70.1,209.1
			z"/>
		<path d="M78.9,209.7V207h-1.7v-0.7l1.7-0.1l0.1-1.9h0.8v1.9h2.9v0.8h-2.9v2.8c0,1,0.3,1.6,1.5,1.6c0.5,0,1-0.1,1.4-0.3l0.2,0.7
			c-0.5,0.2-1.1,0.3-1.8,0.3C79.5,212.1,78.9,211.2,78.9,209.7z"/>
		<path d="M84.4,212.8h5.8v0.9h-5.8V212.8z"/>
		<path d="M91.6,209.1c0-2,1.3-3.1,2.9-3.1s2.9,1.1,2.9,3.1c0,1.9-1.3,3-2.9,3S91.6,211,91.6,209.1z M96.3,209.1
			c0-1.3-0.7-2.2-1.9-2.2c-1.1,0-1.9,0.9-1.9,2.2c0,1.3,0.7,2.2,1.9,2.2C95.6,211.3,96.3,210.4,96.3,209.1z"/>
		<path d="M99.8,206.2h0.8l0.1,1.4h0c0.6-0.9,1.5-1.5,2.6-1.5c0.4,0,0.8,0.1,1.2,0.2l-0.2,0.9c-0.4-0.1-0.6-0.2-1.1-0.2
			c-0.9,0-1.7,0.4-2.4,1.7v3.4h-1V206.2z"/>
		<path d="M106,209.1c0-1.9,1.3-3.1,2.6-3.1c0.7,0,1.2,0.3,1.8,0.7h0l0-1.1v-2.2h1v8.5h-0.8l-0.1-0.8h0c-0.5,0.5-1.2,0.9-1.9,0.9
			C107,212.1,106,211,106,209.1z M110.3,210.4v-2.9c-0.5-0.5-1-0.7-1.5-0.7c-1,0-1.8,0.9-1.8,2.2c0,1.4,0.6,2.2,1.7,2.2
			C109.3,211.3,109.8,211,110.3,210.4z"/>
		<path d="M113.3,209.1c0-1.9,1.4-3,3-3c1.7,0,2.7,1.1,2.7,2.7c0,0.2,0,0.4,0,0.6h-4.9v-0.8h4.3l-0.3,0.3c0-1.4-0.7-2.1-1.8-2.1
			c-1.1,0-2,0.8-2,2.3c0,1.5,1,2.3,2.3,2.3c0.7,0,1.2-0.2,1.8-0.6l0.4,0.6c-0.6,0.4-1.3,0.7-2.3,0.7
			C114.7,212.1,113.3,211,113.3,209.1z"/>
		<path d="M121.4,206.2h0.8l0.1,1.4h0c0.6-0.9,1.5-1.5,2.6-1.5c0.4,0,0.8,0.1,1.2,0.2l-0.2,0.9c-0.4-0.1-0.6-0.2-1.1-0.2
			c-0.9,0-1.7,0.4-2.4,1.7v3.4h-1V206.2z"/>
		<path d="M129.3,208.6c0-2.3,1-4.2,2.7-5.4l0.6,0.5c-1.6,1.4-2.4,2.9-2.4,4.9s0.7,3.6,2.4,4.9l-0.6,0.5
			C130.4,212.8,129.3,211,129.3,208.6z"/>
		<path d="M135.5,213.6c1.6-1.4,2.4-2.9,2.4-4.9s-0.7-3.6-2.4-4.9l0.6-0.5c1.7,1.3,2.7,3.1,2.7,5.4s-1,4.1-2.7,5.4L135.5,213.6z"/>
	</g>
</g>
<g>
	<g class="st3">
		<path d="M50.8,222.8h-2.2v-0.7h2.2v-2.3h0.8v2.3h2.2v0.7h-2.2v2.3h-0.8V222.8z"/>
		<path d="M62.9,227.5c0-0.5,0.3-0.9,1-1.3v0c-0.3-0.2-0.6-0.5-0.6-1c0-0.4,0.3-0.8,0.7-1.1v0c-0.4-0.3-0.7-0.8-0.7-1.5
			c0-1.3,1.1-2.1,2.3-2.1c0.3,0,0.6,0,0.9,0.1h2.4v0.8h-1.5c0.3,0.3,0.5,0.7,0.5,1.2c0,1.2-1,2-2.3,2c-0.3,0-0.7-0.1-1-0.2
			c-0.3,0.2-0.5,0.4-0.5,0.7c0,0.5,0.4,0.7,1.2,0.7h1.3c1.5,0,2.2,0.4,2.2,1.4c0,1.1-1.3,2-3.2,2C63.9,229.1,62.9,228.5,62.9,227.5z
			 M67.9,227.2c0-0.6-0.4-0.7-1.3-0.7h-1.1c-0.3,0-0.6,0-0.9-0.1c-0.6,0.3-0.7,0.6-0.7,1c0,0.6,0.7,1,1.9,1
			C67,228.4,67.9,227.8,67.9,227.2z M66.9,222.5c0-0.8-0.6-1.4-1.3-1.4c-0.7,0-1.3,0.6-1.3,1.4c0,0.8,0.6,1.4,1.3,1.4
			C66.3,223.9,66.9,223.3,66.9,222.5z"/>
		<path d="M70.1,223.5c0-1.9,1.4-3,3-3c1.7,0,2.7,1.1,2.7,2.7c0,0.2,0,0.4,0,0.6h-4.9V223h4.3l-0.3,0.3c0-1.4-0.7-2.1-1.8-2.1
			c-1.1,0-2,0.8-2,2.3c0,1.5,1,2.3,2.3,2.3c0.7,0,1.2-0.2,1.8-0.6l0.4,0.6c-0.6,0.4-1.3,0.7-2.3,0.7
			C71.5,226.5,70.1,225.4,70.1,223.5z"/>
		<path d="M78.9,224.1v-2.8h-1.7v-0.7l1.7-0.1l0.1-1.9h0.8v1.9h2.9v0.8h-2.9v2.8c0,1,0.3,1.6,1.5,1.6c0.5,0,1-0.1,1.4-0.3l0.2,0.7
			c-0.5,0.2-1.1,0.3-1.8,0.3C79.5,226.5,78.9,225.6,78.9,224.1z"/>
		<path d="M84.4,227.2h5.8v0.9h-5.8V227.2z"/>
		<path d="M92.1,220.6l1.7-0.1h3.4v0.8h-5.1V220.6z M93.7,220.1c0-1.4,0.7-2.4,2.4-2.4c0.6,0,1.1,0.1,1.7,0.3l-0.2,0.7
			c-0.5-0.2-0.9-0.3-1.4-0.3c-1,0-1.5,0.6-1.5,1.5v6.4h-1V220.1z"/>
		<path d="M99,224.9c0-1.3,1.2-1.9,4.2-2.2c0-0.8-0.4-1.5-1.5-1.5c-0.8,0-1.5,0.4-2,0.7l-0.4-0.7c0.6-0.4,1.6-0.8,2.6-0.8
			c1.6,0,2.4,0.9,2.4,2.4v3.6h-0.8l-0.1-0.8h0c-0.6,0.5-1.5,0.9-2.3,0.9C99.9,226.5,99,225.9,99,224.9z M103.2,224.9v-1.5
			c-2.5,0.2-3.3,0.7-3.3,1.5c0,0.7,0.6,0.9,1.3,0.9C101.9,225.7,102.6,225.4,103.2,224.9z"/>
		<path d="M105.9,220.6h0.8l0.1,0.8h0c0.3-0.5,0.7-0.9,1.3-0.9c0.6,0,0.9,0.3,1.1,1c0.3-0.6,0.7-1,1.4-1c0.8,0,1.3,0.6,1.3,1.8v4.2
			h-1v-4.1c0-0.7-0.2-1-0.6-1c-0.4,0-0.6,0.3-0.9,0.9v4.2h-0.9v-4.1c0-0.7-0.2-1-0.6-1c-0.4,0-0.7,0.3-1,0.9v4.2h-1V220.6z"/>
		<path d="M116.2,221.4h-2.7v-0.8h3.7v5.8h-1V221.4z M115.8,218.6c0-0.5,0.3-0.8,0.8-0.8c0.5,0,0.8,0.3,0.8,0.8
			c0,0.5-0.3,0.8-0.8,0.8C116.2,219.3,115.8,219,115.8,218.6z"/>
		<path d="M122.6,224.4v-5.8h-2.1v-0.8h3.1v6.7c0,0.8,0.5,1.2,1.2,1.2c0.3,0,0.7-0.1,1.1-0.3l0.3,0.7c-0.5,0.2-0.9,0.3-1.6,0.3
			C123.3,226.5,122.6,225.8,122.6,224.4z"/>
		<path d="M127.6,228.8l0.2-0.8c0.2,0,0.3,0.1,0.5,0.1c0.8,0,1.3-0.5,1.6-1.2l0.2-0.4l-2.7-5.8h1l1.4,3.2c0.2,0.5,0.5,1.1,0.7,1.7h0
			c0.2-0.6,0.4-1.2,0.6-1.7l1.3-3.2h1l-2.6,6.3c-0.4,1.2-1.1,2-2.5,2C128.1,228.9,127.9,228.8,127.6,228.8z"/>
		<path d="M136.5,223.1c0-2.3,1-4.2,2.7-5.4l0.6,0.5c-1.6,1.4-2.4,2.9-2.4,4.9s0.7,3.6,2.4,4.9l-0.6,0.5
			C137.6,227.2,136.5,225.4,136.5,223.1z"/>
		<path d="M142.7,228c1.6-1.4,2.4-2.9,2.4-4.9s-0.7-3.6-2.4-4.9l0.6-0.5c1.7,1.3,2.7,3.1,2.7,5.4s-1,4.1-2.7,5.4L142.7,228z"/>
	</g>
</g>
<g>
	<g class="st3">
		<path d="M50.8,237.2h-2.2v-0.7h2.2v-2.3h0.8v2.3h2.2v0.7h-2.2v2.3h-0.8V237.2z"/>
		<path d="M62.9,241.9c0-0.5,0.3-0.9,1-1.3v0c-0.3-0.2-0.6-0.5-0.6-1c0-0.4,0.3-0.8,0.7-1.1v0c-0.4-0.3-0.7-0.8-0.7-1.5
			c0-1.3,1.1-2.1,2.3-2.1c0.3,0,0.6,0,0.9,0.1h2.4v0.8h-1.5c0.3,0.3,0.5,0.7,0.5,1.2c0,1.2-1,2-2.3,2c-0.3,0-0.7-0.1-1-0.2
			c-0.3,0.2-0.5,0.4-0.5,0.7c0,0.5,0.4,0.7,1.2,0.7h1.3c1.5,0,2.2,0.4,2.2,1.4c0,1.1-1.3,2-3.2,2C63.9,243.5,62.9,242.9,62.9,241.9z
			 M67.9,241.6c0-0.6-0.4-0.7-1.3-0.7h-1.1c-0.3,0-0.6,0-0.9-0.1c-0.6,0.3-0.7,0.6-0.7,1c0,0.6,0.7,1,1.9,1
			C67,242.8,67.9,242.2,67.9,241.6z M66.9,236.9c0-0.8-0.6-1.4-1.3-1.4c-0.7,0-1.3,0.6-1.3,1.4c0,0.8,0.6,1.4,1.3,1.4
			C66.3,238.3,66.9,237.7,66.9,236.9z"/>
		<path d="M70.1,237.9c0-1.9,1.4-3,3-3c1.7,0,2.7,1.1,2.7,2.7c0,0.2,0,0.4,0,0.6h-4.9v-0.8h4.3l-0.3,0.3c0-1.4-0.7-2.1-1.8-2.1
			c-1.1,0-2,0.8-2,2.3c0,1.5,1,2.3,2.3,2.3c0.7,0,1.2-0.2,1.8-0.6l0.4,0.6c-0.6,0.4-1.3,0.7-2.3,0.7
			C71.5,240.9,70.1,239.8,70.1,237.9z"/>
		<path d="M78.9,238.5v-2.8h-1.7V235L79,235l0.1-1.9h0.8v1.9h2.9v0.8h-2.9v2.8c0,1,0.3,1.6,1.5,1.6c0.5,0,1-0.1,1.4-0.3l0.2,0.7
			c-0.5,0.2-1.1,0.3-1.8,0.3C79.5,240.9,78.9,240,78.9,238.5z"/>
		<path d="M84.4,241.6h5.8v0.9h-5.8V241.6z"/>
		<path d="M91.7,241.9c0-0.5,0.3-0.9,1-1.3v0c-0.3-0.2-0.6-0.5-0.6-1c0-0.4,0.3-0.8,0.7-1.1v0c-0.4-0.3-0.7-0.8-0.7-1.5
			c0-1.3,1.1-2.1,2.3-2.1c0.3,0,0.6,0,0.9,0.1h2.4v0.8h-1.5c0.3,0.3,0.5,0.7,0.5,1.2c0,1.2-1,2-2.3,2c-0.3,0-0.7-0.1-1-0.2
			c-0.3,0.2-0.5,0.4-0.5,0.7c0,0.5,0.4,0.7,1.2,0.7h1.3c1.5,0,2.2,0.4,2.2,1.4c0,1.1-1.3,2-3.2,2C92.7,243.5,91.7,242.9,91.7,241.9z
			 M96.7,241.6c0-0.6-0.4-0.7-1.3-0.7h-1.1c-0.3,0-0.6,0-0.9-0.1c-0.6,0.3-0.7,0.6-0.7,1c0,0.6,0.7,1,1.9,1
			C95.8,242.8,96.7,242.2,96.7,241.6z M95.7,236.9c0-0.8-0.6-1.4-1.3-1.4c-0.7,0-1.3,0.6-1.3,1.4c0,0.8,0.6,1.4,1.3,1.4
			C95.1,238.3,95.7,237.7,95.7,236.9z"/>
		<path d="M98.9,237.9c0-1.9,1.4-3,3-3c1.7,0,2.7,1.1,2.7,2.7c0,0.2,0,0.4,0,0.6h-4.9v-0.8h4.3l-0.3,0.3c0-1.4-0.7-2.1-1.8-2.1
			c-1.1,0-2,0.8-2,2.3c0,1.5,1,2.3,2.3,2.3c0.7,0,1.2-0.2,1.8-0.6l0.4,0.6c-0.6,0.4-1.3,0.7-2.3,0.7
			C100.3,240.9,98.9,239.8,98.9,237.9z"/>
		<path d="M106.4,235h0.8l0.1,1h0c0.6-0.6,1.3-1.1,2.2-1.1c1.4,0,2,0.8,2,2.4v3.6h-1v-3.5c0-1.1-0.4-1.6-1.3-1.6
			c-0.7,0-1.2,0.3-1.8,1v4.1h-1V235z"/>
		<path d="M113.4,238.6V235h1v3.5c0,1.1,0.4,1.6,1.3,1.6c0.7,0,1.2-0.3,1.8-1.1v-4h1v5.8h-0.8l-0.1-1h0c-0.6,0.7-1.3,1.2-2.2,1.2
			C114,240.9,113.4,240.1,113.4,238.6z"/>
		<path d="M120.5,240l0.5-0.7c0.7,0.5,1.5,0.8,2.5,0.8c1,0,1.5-0.4,1.5-0.9c0-0.4-0.2-0.8-1.8-1.1c-1.5-0.3-2.3-0.8-2.3-1.7
			c0-0.9,0.8-1.7,2.4-1.7c0.9,0,1.8,0.3,2.4,0.7l-0.5,0.6c-0.5-0.4-1.2-0.6-2-0.6c-1,0-1.3,0.4-1.3,0.8c0,0.5,0.5,0.7,1.7,1
			c1.9,0.4,2.4,0.9,2.4,1.8c0,0.9-0.9,1.7-2.6,1.7C122.2,240.9,121.2,240.5,120.5,240z"/>
		<path d="M129.3,237.4c0-2.3,1-4.2,2.7-5.4l0.6,0.5c-1.6,1.4-2.4,2.9-2.4,4.9s0.7,3.6,2.4,4.9l-0.6,0.5
			C130.4,241.6,129.3,239.8,129.3,237.4z"/>
		<path d="M135.5,242.4c1.6-1.4,2.4-2.9,2.4-4.9s-0.7-3.6-2.4-4.9l0.6-0.5c1.7,1.3,2.7,3.1,2.7,5.4s-1,4.1-2.7,5.4L135.5,242.4z"/>
	</g>
</g>
<g>
	<g class="st3">
		<path d="M50.8,251.6h-2.2v-0.7h2.2v-2.3h0.8v2.3h2.2v0.7h-2.2v2.3h-0.8V251.6z"/>
		<path d="M62.9,256.3c0-0.5,0.3-0.9,1-1.3v0c-0.3-0.2-0.6-0.5-0.6-1c0-0.4,0.3-0.8,0.7-1.1v0c-0.4-0.3-0.7-0.8-0.7-1.5
			c0-1.3,1.1-2.1,2.3-2.1c0.3,0,0.6,0,0.9,0.1h2.4v0.8h-1.5c0.3,0.3,0.5,0.7,0.5,1.2c0,1.2-1,2-2.3,2c-0.3,0-0.7-0.1-1-0.2
			c-0.3,0.2-0.5,0.4-0.5,0.7c0,0.5,0.4,0.7,1.2,0.7h1.3c1.5,0,2.2,0.4,2.2,1.4c0,1.1-1.3,2-3.2,2C63.9,257.9,62.9,257.3,62.9,256.3z
			 M67.9,256c0-0.6-0.4-0.7-1.3-0.7h-1.1c-0.3,0-0.6,0-0.9-0.1c-0.6,0.3-0.7,0.6-0.7,1c0,0.6,0.7,1,1.9,1
			C67,257.2,67.9,256.6,67.9,256z M66.9,251.3c0-0.8-0.6-1.4-1.3-1.4c-0.7,0-1.3,0.6-1.3,1.4c0,0.8,0.6,1.4,1.3,1.4
			C66.3,252.7,66.9,252.1,66.9,251.3z"/>
		<path d="M70.1,252.3c0-1.9,1.4-3,3-3c1.7,0,2.7,1.1,2.7,2.7c0,0.2,0,0.4,0,0.6h-4.9v-0.8h4.3l-0.3,0.3c0-1.4-0.7-2.1-1.8-2.1
			c-1.1,0-2,0.8-2,2.3c0,1.5,1,2.3,2.3,2.3c0.7,0,1.2-0.2,1.8-0.6l0.4,0.6c-0.6,0.4-1.3,0.7-2.3,0.7
			C71.5,255.3,70.1,254.2,70.1,252.3z"/>
		<path d="M78.9,252.9v-2.8h-1.7v-0.7l1.7-0.1l0.1-1.9h0.8v1.9h2.9v0.8h-2.9v2.8c0,1,0.3,1.6,1.5,1.6c0.5,0,1-0.1,1.4-0.3L83,255
			c-0.5,0.2-1.1,0.3-1.8,0.3C79.5,255.3,78.9,254.4,78.9,252.9z"/>
		<path d="M84.4,256h5.8v0.9h-5.8V256z"/>
		<path d="M91.7,254.4l0.5-0.7c0.7,0.5,1.5,0.8,2.5,0.8c1,0,1.5-0.4,1.5-0.9c0-0.4-0.2-0.8-1.8-1.1c-1.5-0.3-2.3-0.8-2.3-1.7
			c0-0.9,0.8-1.7,2.4-1.7c0.9,0,1.8,0.3,2.4,0.7l-0.5,0.6c-0.5-0.4-1.2-0.6-2-0.6c-1,0-1.3,0.4-1.3,0.8c0,0.5,0.5,0.7,1.7,1
			c1.9,0.4,2.4,0.9,2.4,1.8c0,0.9-0.9,1.7-2.6,1.7C93.4,255.3,92.4,254.9,91.7,254.4z"/>
		<path d="M99.2,249.4h0.8l0.1,0.7h0c0.5-0.5,1.3-0.9,2-0.9c1.6,0,2.4,1.2,2.4,3c0,2-1.2,3.1-2.7,3.1c-0.5,0-1.2-0.3-1.7-0.8h0
			l0,1.1v2h-1V249.4z M103.5,252.2c0-1.3-0.5-2.1-1.6-2.1c-0.5,0-1.1,0.3-1.7,0.9v2.9c0.5,0.5,1.2,0.7,1.5,0.7
			C102.7,254.5,103.5,253.6,103.5,252.2z"/>
		<path d="M106.1,252.3c0-1.9,1.4-3,3-3c1.7,0,2.7,1.1,2.7,2.7c0,0.2,0,0.4,0,0.6h-4.9v-0.8h4.3l-0.3,0.3c0-1.4-0.7-2.1-1.8-2.1
			c-1.1,0-2,0.8-2,2.3c0,1.5,1,2.3,2.3,2.3c0.7,0,1.2-0.2,1.8-0.6l0.4,0.6c-0.6,0.4-1.3,0.7-2.3,0.7
			C107.5,255.3,106.1,254.2,106.1,252.3z"/>
		<path d="M113.4,252.3c0-2,1.5-3.1,3.2-3.1c0.9,0,1.6,0.4,2.1,0.9l-0.5,0.6c-0.5-0.4-1-0.7-1.6-0.7c-1.3,0-2.3,0.9-2.3,2.2
			c0,1.3,0.9,2.2,2.2,2.2c0.7,0,1.3-0.3,1.8-0.7l0.4,0.6c-0.6,0.6-1.5,0.9-2.3,0.9C114.8,255.3,113.4,254.2,113.4,252.3z"/>
		<path d="M123.4,250.2h-2.7v-0.8h3.7v5.8h-1V250.2z M123,247.4c0-0.5,0.3-0.8,0.8-0.8c0.5,0,0.8,0.3,0.8,0.8c0,0.5-0.3,0.8-0.8,0.8
			C123.4,248.1,123,247.8,123,247.4z"/>
		<path d="M127.7,252.3c0-1.9,1.4-3,3-3c1.7,0,2.7,1.1,2.7,2.7c0,0.2,0,0.4,0,0.6h-4.9v-0.8h4.3l-0.3,0.3c0-1.4-0.7-2.1-1.8-2.1
			c-1.1,0-2,0.8-2,2.3c0,1.5,1,2.3,2.3,2.3c0.7,0,1.2-0.2,1.8-0.6l0.4,0.6c-0.6,0.4-1.3,0.7-2.3,0.7
			C129.1,255.3,127.7,254.2,127.7,252.3z"/>
		<path d="M134.9,254.4l0.5-0.7c0.7,0.5,1.5,0.8,2.5,0.8c1,0,1.5-0.4,1.5-0.9c0-0.4-0.2-0.8-1.8-1.1c-1.5-0.3-2.3-0.8-2.3-1.7
			c0-0.9,0.8-1.7,2.4-1.7c0.9,0,1.8,0.3,2.4,0.7l-0.5,0.6c-0.5-0.4-1.2-0.6-2-0.6c-1,0-1.3,0.4-1.3,0.8c0,0.5,0.5,0.7,1.7,1
			c1.9,0.4,2.4,0.9,2.4,1.8c0,0.9-0.9,1.7-2.6,1.7C136.6,255.3,135.6,254.9,134.9,254.4z"/>
		<path d="M143.7,251.8c0-2.3,1-4.2,2.7-5.4l0.6,0.5c-1.6,1.4-2.4,2.9-2.4,4.9s0.7,3.6,2.4,4.9l-0.6,0.5
			C144.8,256,143.7,254.2,143.7,251.8z"/>
		<path d="M149.9,256.8c1.6-1.4,2.4-2.9,2.4-4.9s-0.7-3.6-2.4-4.9l0.6-0.5c1.7,1.3,2.7,3.1,2.7,5.4s-1,4.1-2.7,5.4L149.9,256.8z"/>
	</g>
</g>
</svg>
