<?xml version="1.0" encoding="utf-8"?>
<!-- Generator: Adobe Illustrator 26.0.3, SVG Export Plug-In . SVG Version: 6.00 Build 0)  -->
<svg version="1.1" id="Layer_1" xmlns="http://www.w3.org/2000/svg" xmlns:xlink="http://www.w3.org/1999/xlink" x="0px" y="0px"
	 viewBox="0 0 887.6 370" style="enable-background:new 0 0 887.6 370;" xml:space="preserve">
<style type="text/css">
	.st0{fill:#F2F2F2;}
	.st1{fill:#E6E6E6;}
	.st2{fill:none;stroke:#000000;stroke-miterlimit:10;}
	.st3{font-family:'ArialMT';}
	.st4{font-size:20px;}
	.st5{font-size:16px;}
	.st6{fill:none;}
	.st7{font-family:'Courier';}
</style>
<path class="st0" d="M868.9,364.8H604.9c-6.4,0-11.6-5.2-11.6-11.6v-331c0-6.4,5.2-11.6,11.6-11.6h270c3.1,0,5.6,2.5,5.6,5.6v337.1
	C880.5,359.6,875.3,364.8,868.9,364.8z"/>
<path class="st1" d="M846.4,357.5H609.7c-6.4,0-11.6-5.2-11.6-11.6V218.2c0-6.4,5.2-11.6,11.6-11.6h242.7c3.1,0,5.6,2.5,5.6,5.6
	v133.7C858,352.3,852.8,357.5,846.4,357.5z"/>
<path class="st1" d="M848.6,187.5H611.9c-6.4,0-11.6-5.2-11.6-11.6V85.8c0-6.4,5.2-11.6,11.6-11.6h242.7c3.1,0,5.6,2.5,5.6,5.6v96.1
	C860.2,182.3,855,187.5,848.6,187.5z"/>
<g>
	<g>
		<line class="st2" x1="227.9" y1="54.2" x2="69" y2="100.5"/>
		<g>
			<polygon points="70.7,96.2 70.2,100.2 72.8,103.3 63.3,102.2 			"/>
		</g>
	</g>
</g>
<text transform="matrix(1 0 0 1 228.0084 36.0448)" class="st3 st4">Main Program</text>
<g>
	<g>
		<line class="st2" x1="290.8" y1="59.3" x2="290.8" y2="91.2"/>
		<g>
			<polygon points="287.1,88.4 290.8,90 294.5,88.4 290.8,97.2 			"/>
		</g>
	</g>
</g>
<text transform="matrix(1 0 0 1 16.2743 135.3456)" class="st3 st5">Function-1</text>
<text transform="matrix(1 0 0 1 249.6323 135.3452)" class="st3 st5">Function-2</text>
<text transform="matrix(1 0 0 1 496.9787 135.3455)" class="st3 st5">Function-3</text>
<g>
	<g>
		<line class="st2" x1="353.7" y1="59.3" x2="512.6" y2="105.6"/>
		<g>
			<polygon points="510.9,101.3 511.4,105.3 508.8,108.4 518.3,107.3 			"/>
		</g>
	</g>
</g>
<text transform="matrix(1 0 0 1 127.2706 228.5247)" class="st3 st5">Function-4</text>
<text transform="matrix(1 0 0 1 374.617 228.5245)" class="st3 st5">Function-5</text>
<text transform="matrix(1 0 0 1 17.5858 324.8422)" class="st3 st5">Function-6</text>
<text transform="matrix(1 0 0 1 250.9438 324.8418)" class="st3 st5">Function-7</text>
<text transform="matrix(1 0 0 1 498.2902 324.8426)" class="st3 st5">Function-8</text>
<g>
	<g>
		<line class="st2" x1="515.5" y1="153.8" x2="436" y2="198.4"/>
		<g>
			<polygon points="436.9,194.3 436.6,198.2 437.9,201.1 433.2,200.1 			"/>
		</g>
	</g>
</g>
<g>
	<g>
		<line class="st2" x1="312.6" y1="153.8" x2="392" y2="198.4"/>
		<g>
			<polygon points="391.2,194.3 391.4,198.2 390.1,201.1 394.9,200.1 			"/>
		</g>
	</g>
</g>
<g>
	<g>
		<line class="st2" x1="266.2" y1="153.8" x2="186.7" y2="198.4"/>
		<g>
			<polygon points="187.6,194.3 187.3,198.2 188.6,201.1 183.9,200.1 			"/>
		</g>
	</g>
</g>
<g>
	<g>
		<line class="st2" x1="63.3" y1="153.8" x2="142.7" y2="198.4"/>
		<g>
			<polygon points="141.9,194.3 142.1,198.2 140.8,201.1 145.6,200.1 			"/>
		</g>
	</g>
</g>
<g>
	<g>
		<line class="st2" x1="183.3" y1="248.1" x2="262.8" y2="292.7"/>
		<g>
			<polygon points="261.9,288.6 262.2,292.4 260.9,295.4 265.6,294.4 			"/>
		</g>
	</g>
</g>
<g>
	<g>
		<line class="st2" x1="137" y1="248.1" x2="57.5" y2="292.7"/>
		<g>
			<polygon points="58.4,288.6 58.1,292.4 59.4,295.4 54.7,294.4 			"/>
		</g>
	</g>
</g>
<g>
	<g>
		<line class="st2" x1="440.7" y1="248.1" x2="520.1" y2="292.7"/>
		<g>
			<polygon points="519.3,288.6 519.5,292.4 518.2,295.4 523,294.4 			"/>
		</g>
	</g>
</g>
<g>
	<g>
		<line class="st2" x1="394.3" y1="248.1" x2="314.9" y2="292.7"/>
		<g>
			<polygon points="315.7,288.6 315.5,292.4 316.8,295.4 312,294.4 			"/>
		</g>
	</g>
</g>
<rect x="609.2" y="25.4" class="st6" width="248.8" height="329"/>
<text transform="matrix(1 0 0 1 609.1506 35.6613)"><tspan x="0" y="0" class="st7 st5"># Main Program</tspan><tspan x="0" y="57.6" class="st7 st5">Function-1 &lt;- function(){</tspan><tspan x="0" y="76.8" class="st7 st5">   ...</tspan><tspan x="0" y="96" class="st7 st5">   Function-4(...)</tspan><tspan x="0" y="115.2" class="st7 st5">   ...</tspan><tspan x="0" y="134.4" class="st7 st5">}</tspan><tspan x="0" y="192" class="st7 st5">Function-2 &lt;- function(){</tspan><tspan x="0" y="211.2" class="st7 st5">   ...</tspan><tspan x="0" y="230.4" class="st7 st5">   Function-4(...)</tspan><tspan x="0" y="249.6" class="st7 st5">   ...</tspan><tspan x="0" y="268.8" class="st7 st5">   Function-5(...)</tspan><tspan x="0" y="288" class="st7 st5">   ...</tspan><tspan x="0" y="307.2" class="st7 st5">}</tspan></text>
</svg>
