<?xml version="1.0" encoding="utf-8"?>
<!-- Generator: Adobe Illustrator 26.0.3, SVG Export Plug-In . SVG Version: 6.00 Build 0)  -->
<svg version="1.1" id="Layer_1" xmlns="http://www.w3.org/2000/svg" xmlns:xlink="http://www.w3.org/1999/xlink" x="0px" y="0px"
	 viewBox="0 0 557 285.7" style="enable-background:new 0 0 557 285.7;" xml:space="preserve">
<style type="text/css">
	.st0{fill:#D4EDF9;stroke:#000000;stroke-miterlimit:10;}
	.st1{fill:#D0DF92;stroke:#000000;stroke-miterlimit:10;}
	.st2{font-family:'ArialMT';}
	.st3{font-size:16px;}
	.st4{fill:#FCD6B9;stroke:#000000;stroke-miterlimit:10;}
	.st5{font-family:'Arial-BoldMT';}
	.st6{font-size:20px;}
	.st7{fill:none;stroke:#000000;stroke-miterlimit:10;}
	.st8{fill:#EDEDED;stroke:#000000;stroke-miterlimit:10;}
</style>
<circle class="st0" cx="152.3" cy="142.8" r="122.1"/>
<g>
	<rect x="77.1" y="91.9" class="st1" width="150.3" height="37.2"/>
	<text transform="matrix(1 0 0 1 88.9733 114.7476)" class="st2 st3">Public methods</text>
</g>
<g>
	<rect x="77.1" y="159.2" class="st4" width="150.3" height="53.3"/>
	<text transform="matrix(1 0 0 1 88.9732 180.4714)"><tspan x="0" y="0" class="st2 st3">Private Attributes</tspan><tspan x="0" y="19.2" class="st2 st3">Private Methods</tspan></text>
</g>
<text transform="matrix(1 0 0 1 116.6191 71.0605)" class="st5 st6">Object</text>
<g>
	<g>
		<g>
			<g>
				<line class="st7" x1="152.3" y1="159.2" x2="152.3" y2="133.7"/>
				<g>
					<polygon points="156,136.5 152.3,135 148.6,136.5 152.3,127.7 					"/>
				</g>
			</g>
		</g>
	</g>
	<g>
		<g>
			<line class="st7" x1="142.8" y1="127.7" x2="142.8" y2="153.2"/>
			<g>
				<polygon points="139.1,150.4 142.8,152 146.5,150.4 142.8,159.2 				"/>
			</g>
		</g>
	</g>
</g>
<g>
	<rect x="395.9" y="92.5" class="st8" width="131" height="35.9"/>
	<text transform="matrix(1 0 0 1 407.0001 114.7474)" class="st2 st3">Program / User</text>
</g>
<g>
	<g>
		<g>
			<g>
				<line class="st7" x1="395.9" y1="105.8" x2="233.4" y2="105.8"/>
				<g>
					<polygon points="236.2,102.1 234.6,105.8 236.2,109.5 227.4,105.8 					"/>
				</g>
			</g>
		</g>
	</g>
	<g>
		<g>
			<line class="st7" x1="227.4" y1="115.2" x2="389.9" y2="115.2"/>
			<g>
				<polygon points="387.1,118.9 388.7,115.2 387.1,111.5 395.9,115.2 				"/>
			</g>
		</g>
	</g>
</g>
</svg>
