<?xml version="1.0" encoding="utf-8"?>
<!-- Generator: Adobe Illustrator 26.1.0, SVG Export Plug-In . SVG Version: 6.00 Build 0)  -->
<svg version="1.1" id="Layer_1" xmlns="http://www.w3.org/2000/svg" xmlns:xlink="http://www.w3.org/1999/xlink" x="0px" y="0px"
	 viewBox="0 0 370.9 533.6" style="enable-background:new 0 0 370.9 533.6;" xml:space="preserve">
<style type="text/css">
	.st0{fill:#FFFFFF;stroke:#000000;stroke-miterlimit:10;}
	.st1{fill:#FCD6B9;stroke:#000000;stroke-miterlimit:10;}
	.st2{fill:#FFFFFF;stroke:#FFFFFF;stroke-miterlimit:10;}
	.st3{fill:#BEE3ED;stroke:#000000;stroke-miterlimit:10;}
	.st4{font-family:'ArialMT';}
	.st5{font-size:17px;}
</style>
<rect x="49.7" y="102" class="st0" width="265.2" height="296.4"/>
<circle class="st1" cx="80.2" cy="136.8" r="10.9"/>
<rect x="156.2" y="89.3" class="st2" width="69.1" height="27.6"/>
<circle class="st1" cx="121.4" cy="156.8" r="10.9"/>
<circle class="st1" cx="89.9" cy="188.6" r="10.9"/>
<circle class="st1" cx="100.8" cy="230.3" r="10.9"/>
<circle class="st3" cx="130.2" cy="199.5" r="10.9"/>
<circle class="st3" cx="171.4" cy="219.4" r="10.9"/>
<circle class="st1" cx="78.1" cy="349.9" r="10.9"/>
<circle class="st1" cx="119.3" cy="369.9" r="10.9"/>
<circle class="st1" cx="121.4" cy="339.9" r="10.9"/>
<circle class="st1" cx="162.6" cy="359.9" r="10.9"/>
<circle class="st3" cx="204.7" cy="360.8" r="10.9"/>
<circle class="st3" cx="245.9" cy="380.8" r="10.9"/>
<circle class="st1" cx="250" cy="349" r="10.9"/>
<circle class="st1" cx="291.2" cy="368.9" r="10.9"/>
<circle class="st1" cx="150.8" cy="309.1" r="10.9"/>
<circle class="st1" cx="192" cy="329" r="10.9"/>
<circle class="st1" cx="247.1" cy="308.1" r="10.9"/>
<circle class="st3" cx="288.4" cy="328.1" r="10.9"/>
<circle class="st1" cx="178.4" cy="272.3" r="10.9"/>
<circle class="st1" cx="219.6" cy="292.3" r="10.9"/>
<circle class="st1" cx="70.5" cy="293.2" r="10.9"/>
<circle class="st3" cx="111.7" cy="313.2" r="10.9"/>
<circle class="st1" cx="229.4" cy="252.4" r="10.9"/>
<circle class="st1" cx="270.6" cy="272.3" r="10.9"/>
<circle class="st1" cx="91.1" cy="262.3" r="10.9"/>
<circle class="st1" cx="132.3" cy="282.3" r="10.9"/>
<circle class="st1" cx="245.9" cy="209.4" r="10.9"/>
<circle class="st1" cx="287.1" cy="229.4" r="10.9"/>
<circle class="st3" cx="142" cy="242.4" r="10.9"/>
<circle class="st1" cx="194.1" cy="242.4" r="10.9"/>
<circle class="st1" cx="173.2" cy="194.6" r="10.9"/>
<circle class="st1" cx="214.4" cy="214.5" r="10.9"/>
<circle class="st1" cx="259.7" cy="175.7" r="10.9"/>
<circle class="st1" cx="300.9" cy="195.7" r="10.9"/>
<circle class="st1" cx="182.9" cy="157.7" r="10.9"/>
<circle class="st1" cx="224.1" cy="177.7" r="10.9"/>
<circle class="st3" cx="73.5" cy="438.2" r="10.9"/>
<circle class="st3" cx="115.4" cy="438.2" r="10.9"/>
<circle class="st1" cx="157.4" cy="438.2" r="10.9"/>
<circle class="st3" cx="199.3" cy="438.2" r="10.9"/>
<circle class="st1" cx="241.3" cy="438.2" r="10.9"/>
<circle class="st3" cx="283.3" cy="438.2" r="10.9"/>
<circle class="st1" cx="288.4" cy="156.8" r="10.9"/>
<circle class="st1" cx="119" cy="37.8" r="10.9"/>
<text transform="matrix(1 0 0 1 145.0812 43.5162)" class="st4 st5">30</text>
<circle class="st3" cx="222.6" cy="39.4" r="10.9"/>
<text transform="matrix(1 0 0 1 248.6765 45.168)" class="st4 st5">10</text>
<circle class="st3" cx="241.3" cy="145.9" r="10.9"/>
<circle class="st3" cx="79" cy="380.8" r="10.9"/>
<circle class="st3" cx="294.2" cy="293.2" r="10.9"/>
<text transform="matrix(1 0 0 1 163.1719 496.9282)" class="st4 st5">in 6 balls) = ?</text>
<circle class="st1" cx="144.9" cy="492.5" r="10.9"/>
<text transform="matrix(1 0 0 1 101.8039 496.9283)" class="st4 st5">P(2</text>
</svg>
