<?xml version="1.0" encoding="utf-8"?>
<!-- Generator: Adobe Illustrator 26.1.0, SVG Export Plug-In . SVG Version: 6.00 Build 0)  -->
<svg version="1.1" id="Layer_1" xmlns="http://www.w3.org/2000/svg" xmlns:xlink="http://www.w3.org/1999/xlink" x="0px" y="0px"
	 viewBox="0 0 841.9 200.8" style="enable-background:new 0 0 841.9 200.8;" xml:space="preserve">
<style type="text/css">
	.st0{fill:#FCD6B9;}
	
		.st1{clip-path:url(#SVGID_00000119829174902758987390000016246039131703180731_);fill:#FCD6B9;stroke:#000000;stroke-linecap:round;stroke-miterlimit:10;}
	.st2{fill:#FCD6B9;stroke:#000000;stroke-miterlimit:10;}
	.st3{fill:none;stroke:#000000;stroke-miterlimit:10;}
	.st4{font-family:'ArialMT';}
	.st5{font-size:12px;}
	
		.st6{clip-path:url(#SVGID_00000062889767820156004900000010013780136801590411_);fill:#FCD6B9;stroke:#000000;stroke-linecap:round;stroke-miterlimit:10;}
	.st7{fill:#D0DF92;}
	
		.st8{clip-path:url(#SVGID_00000163031195536464095160000001959926967078607280_);fill:#D0DF92;stroke:#000000;stroke-linecap:round;stroke-miterlimit:10;}
	.st9{fill:#D0DF92;stroke:#000000;stroke-miterlimit:10;}
	
		.st10{clip-path:url(#SVGID_00000137097414743131578960000003956873464183039914_);fill:#D0DF92;stroke:#000000;stroke-linecap:round;stroke-miterlimit:10;}
	
		.st11{clip-path:url(#SVGID_00000047768776539175140170000008963553852857950114_);fill:#FCD6B9;stroke:#000000;stroke-linecap:round;stroke-miterlimit:10;}
	
		.st12{clip-path:url(#SVGID_00000119084024691269221180000010479769849192169351_);fill:#FCD6B9;stroke:#000000;stroke-linecap:round;stroke-miterlimit:10;}
	
		.st13{clip-path:url(#SVGID_00000031182343346761901220000014736204114664036259_);fill:#FCD6B9;stroke:#000000;stroke-linecap:round;stroke-miterlimit:10;}
	
		.st14{clip-path:url(#SVGID_00000040545702720529735310000007103093147098096006_);fill:#D0DF92;stroke:#000000;stroke-linecap:round;stroke-miterlimit:10;}
</style>
<rect x="324.5" y="88.5" class="st0" width="62.3" height="8.6"/>
<g>
	<defs>
		<path id="SVGID_1_" d="M386.7,106.4h-62.9v-9.2h62.9V106.4z"/>
	</defs>
	<clipPath id="SVGID_00000173142647494820986510000005254980634270424235_">
		<use xlink:href="#SVGID_1_"  style="overflow:visible;"/>
	</clipPath>
	
		<ellipse style="clip-path:url(#SVGID_00000173142647494820986510000005254980634270424235_);fill:#FCD6B9;stroke:#000000;stroke-linecap:round;stroke-miterlimit:10;" cx="355.3" cy="97.5" rx="30.8" ry="8.1"/>
</g>
<ellipse class="st2" cx="355.3" cy="89.1" rx="30.8" ry="8.1"/>
<line class="st3" x1="324.5" y1="89.1" x2="324.5" y2="97.1"/>
<line class="st3" x1="386.1" y1="89.1" x2="386.1" y2="97.1"/>
<text transform="matrix(1 0 0 1 350.9127 92.811)" class="st4 st5">H</text>
<rect x="399.1" y="87.9" class="st0" width="62.3" height="8.6"/>
<g>
	<defs>
		<path id="SVGID_00000005227625712501758130000003239056152831785094_" d="M461.2,105.8h-62.9v-9.2h62.9V105.8z"/>
	</defs>
	<clipPath id="SVGID_00000082341646381601652160000003066040123480156071_">
		<use xlink:href="#SVGID_00000005227625712501758130000003239056152831785094_"  style="overflow:visible;"/>
	</clipPath>
	
		<ellipse style="clip-path:url(#SVGID_00000082341646381601652160000003066040123480156071_);fill:#FCD6B9;stroke:#000000;stroke-linecap:round;stroke-miterlimit:10;" cx="429.9" cy="96.9" rx="30.8" ry="8.1"/>
</g>
<ellipse class="st2" cx="429.9" cy="88.5" rx="30.8" ry="8.1"/>
<line class="st3" x1="399.1" y1="88.5" x2="399.1" y2="96.5"/>
<line class="st3" x1="460.7" y1="88.5" x2="460.7" y2="96.5"/>
<text transform="matrix(1 0 0 1 425.4937 92.2178)" class="st4 st5">H</text>
<rect x="474.4" y="88.2" class="st7" width="62.3" height="8.6"/>
<g>
	<defs>
		<path id="SVGID_00000102521715057173141030000011378510776095079052_" d="M536.6,106.1h-62.9v-9.2h62.9V106.1z"/>
	</defs>
	<clipPath id="SVGID_00000158722468310073352040000009513115260960366779_">
		<use xlink:href="#SVGID_00000102521715057173141030000011378510776095079052_"  style="overflow:visible;"/>
	</clipPath>
	
		<ellipse style="clip-path:url(#SVGID_00000158722468310073352040000009513115260960366779_);fill:#D0DF92;stroke:#000000;stroke-linecap:round;stroke-miterlimit:10;" cx="505.2" cy="97.2" rx="30.8" ry="8.1"/>
</g>
<ellipse class="st9" cx="505.2" cy="88.8" rx="30.8" ry="8.1"/>
<line class="st3" x1="474.4" y1="88.8" x2="474.4" y2="96.8"/>
<line class="st3" x1="536" y1="88.8" x2="536" y2="96.8"/>
<text transform="matrix(1 0 0 1 500.8153 92.5144)" class="st4 st5">T</text>
<rect x="549" y="87.6" class="st7" width="62.3" height="8.6"/>
<g>
	<defs>
		<path id="SVGID_00000103262272881357633930000007017496838552797323_" d="M611.1,105.5h-62.9v-9.2h62.9V105.5z"/>
	</defs>
	<clipPath id="SVGID_00000139281741294368372420000000636494917431235749_">
		<use xlink:href="#SVGID_00000103262272881357633930000007017496838552797323_"  style="overflow:visible;"/>
	</clipPath>
	
		<ellipse style="clip-path:url(#SVGID_00000139281741294368372420000000636494917431235749_);fill:#D0DF92;stroke:#000000;stroke-linecap:round;stroke-miterlimit:10;" cx="579.8" cy="96.6" rx="30.8" ry="8.1"/>
</g>
<ellipse class="st9" cx="579.8" cy="88.2" rx="30.8" ry="8.1"/>
<line class="st3" x1="549" y1="88.2" x2="549" y2="96.2"/>
<line class="st3" x1="610.6" y1="88.2" x2="610.6" y2="96.2"/>
<text transform="matrix(1 0 0 1 575.3962 91.9211)" class="st4 st5">T</text>
<rect x="624.3" y="88.2" class="st0" width="62.3" height="8.6"/>
<g>
	<defs>
		<path id="SVGID_00000076592109494515784140000014652590020639190184_" d="M686.5,106.1h-62.9v-9.2h62.9V106.1z"/>
	</defs>
	<clipPath id="SVGID_00000132081208729139694290000011280514056864631223_">
		<use xlink:href="#SVGID_00000076592109494515784140000014652590020639190184_"  style="overflow:visible;"/>
	</clipPath>
	
		<ellipse style="clip-path:url(#SVGID_00000132081208729139694290000011280514056864631223_);fill:#FCD6B9;stroke:#000000;stroke-linecap:round;stroke-miterlimit:10;" cx="655.1" cy="97.2" rx="30.8" ry="8.1"/>
</g>
<ellipse class="st2" cx="655.1" cy="88.8" rx="30.8" ry="8.1"/>
<line class="st3" x1="624.3" y1="88.8" x2="624.3" y2="96.8"/>
<line class="st3" x1="685.9" y1="88.8" x2="685.9" y2="96.8"/>
<text transform="matrix(1 0 0 1 650.7179 92.5144)" class="st4 st5">H</text>
<rect x="698.9" y="87.6" class="st0" width="62.3" height="8.6"/>
<g>
	<defs>
		<path id="SVGID_00000126307104117631506590000012438666367815917457_" d="M761.1,105.5h-62.9v-9.2h62.9V105.5z"/>
	</defs>
	<clipPath id="SVGID_00000078038595652416873890000006216415921600628927_">
		<use xlink:href="#SVGID_00000126307104117631506590000012438666367815917457_"  style="overflow:visible;"/>
	</clipPath>
	
		<ellipse style="clip-path:url(#SVGID_00000078038595652416873890000006216415921600628927_);fill:#FCD6B9;stroke:#000000;stroke-linecap:round;stroke-miterlimit:10;" cx="729.7" cy="96.6" rx="30.8" ry="8.1"/>
</g>
<ellipse class="st2" cx="729.7" cy="88.2" rx="30.8" ry="8.1"/>
<line class="st3" x1="698.9" y1="88.2" x2="698.9" y2="96.2"/>
<line class="st3" x1="760.5" y1="88.2" x2="760.5" y2="96.2"/>
<text transform="matrix(1 0 0 1 725.2989 91.9211)" class="st4 st5">H</text>
<rect x="144.6" y="68.6" class="st0" width="62.3" height="8.6"/>
<g>
	<defs>
		<path id="SVGID_00000122718628309680410510000012941312103572632499_" d="M206.8,86.5h-62.9v-9.2h62.9V86.5z"/>
	</defs>
	<clipPath id="SVGID_00000176018882354348915440000007379798800766875780_">
		<use xlink:href="#SVGID_00000122718628309680410510000012941312103572632499_"  style="overflow:visible;"/>
	</clipPath>
	
		<ellipse style="clip-path:url(#SVGID_00000176018882354348915440000007379798800766875780_);fill:#FCD6B9;stroke:#000000;stroke-linecap:round;stroke-miterlimit:10;" cx="175.4" cy="77.6" rx="30.8" ry="8.1"/>
</g>
<ellipse class="st2" cx="175.4" cy="69.2" rx="30.8" ry="8.1"/>
<line class="st3" x1="144.6" y1="69.2" x2="144.6" y2="77.3"/>
<line class="st3" x1="206.2" y1="69.2" x2="206.2" y2="77.3"/>
<text transform="matrix(1 0 0 1 171.0341 72.9414)" class="st4 st5">H</text>
<text transform="matrix(1 0 0 1 56.4038 80.4363)" class="st4 st5">P(H) = 50%</text>
<rect x="144.5" y="130.3" class="st7" width="62.3" height="8.6"/>
<g>
	<defs>
		<path id="SVGID_00000181083978522055866530000012003410666180620192_" d="M206.7,148.2h-62.9V139h62.9V148.2z"/>
	</defs>
	<clipPath id="SVGID_00000160891192395848776260000018032645479960116660_">
		<use xlink:href="#SVGID_00000181083978522055866530000012003410666180620192_"  style="overflow:visible;"/>
	</clipPath>
	
		<ellipse style="clip-path:url(#SVGID_00000160891192395848776260000018032645479960116660_);fill:#D0DF92;stroke:#000000;stroke-linecap:round;stroke-miterlimit:10;" cx="175.3" cy="139.3" rx="30.8" ry="8.1"/>
</g>
<ellipse class="st9" cx="175.3" cy="130.9" rx="30.8" ry="8.1"/>
<line class="st3" x1="144.5" y1="130.9" x2="144.5" y2="139"/>
<line class="st3" x1="206.1" y1="130.9" x2="206.1" y2="139"/>
<text transform="matrix(1 0 0 1 170.9581 134.6505)" class="st4 st5">T</text>
<text transform="matrix(1 0 0 1 57.9958 139.625)" class="st4 st5">P(T) = 50%</text>
<text transform="matrix(1 0 0 1 469.6781 142.785)" class="st4 st5">P(4H in 6 coins tossed) = ?</text>
</svg>
