<?xml version="1.0" encoding="utf-8"?>
<!-- Generator: Adobe Illustrator 26.1.0, SVG Export Plug-In . SVG Version: 6.00 Build 0)  -->
<svg version="1.1" id="Layer_1" xmlns="http://www.w3.org/2000/svg" xmlns:xlink="http://www.w3.org/1999/xlink" x="0px" y="0px"
	 viewBox="0 0 514.3 122.6" style="enable-background:new 0 0 514.3 122.6;" xml:space="preserve">
<style type="text/css">
	.st0{font-family:'ArialMT';}
	.st1{font-size:12px;}
	.st2{fill:none;stroke:#000000;stroke-miterlimit:10;}
</style>
<text transform="matrix(1 0 0 1 143.2978 43.5553)" class="st0 st1">1</text>
<text transform="matrix(1 0 0 1 169.341 43.5557)" class="st0 st1">2</text>
<text transform="matrix(0.948 0 0 1 195.5581 43.5558)" class="st0 st1">3</text>
<text transform="matrix(1 0 0 1 221.4281 43.5557)" class="st0 st1">4</text>
<text transform="matrix(1 0 0 1 247.4713 43.5561)" class="st0 st1">5</text>
<text transform="matrix(0.948 0 0 1 273.6881 43.5557)" class="st0 st1">6</text>
<text transform="matrix(1 0 0 1 299.558 43.5561)" class="st0 st1">7</text>
<text transform="matrix(1 0 0 1 325.6012 43.556)" class="st0 st1">8</text>
<text transform="matrix(0.948 0 0 1 351.8181 43.5561)" class="st0 st1">9</text>
<text transform="matrix(1 0 0 1 374.351 43.5559)" class="st0 st1">10</text>
<text transform="matrix(1 0 0 1 400.3946 43.556)" class="st0 st1">11</text>
<text transform="matrix(0.948 0 0 1 426.7849 43.5561)" class="st0 st1">12</text>
<rect x="147.8" y="54.5" width="74.9" height="8.7"/>
<rect x="227.5" y="54.5" width="74" height="8.7"/>
<rect x="306.4" y="54.5" width="73.2" height="8.7"/>
<rect x="384.5" y="54.5" width="73.9" height="8.7"/>
<text transform="matrix(0.948 0 0 1 452.8286 43.5559)" class="st0 st1">13</text>
<rect x="137.7" y="29.2" class="st2" width="18.3" height="18.3"/>
<rect x="215.9" y="29.2" class="st2" width="18.3" height="18.3"/>
<rect x="292.4" y="29.2" class="st2" width="18.3" height="18.3"/>
<rect x="372.6" y="29.2" class="st2" width="18.3" height="18.3"/>
<rect x="451.1" y="29.2" class="st2" width="18.3" height="18.3"/>
<text transform="matrix(1 0 0 1 139.0898 94.054)" class="st0 st1">0%</text>
<text transform="matrix(1 0 0 1 213.0524 94.0539)" class="st0 st1">25%</text>
<text transform="matrix(1 0 0 1 292.1151 94.054)" class="st0 st1">50%</text>
<text transform="matrix(1 0 0 1 369.7914 94.3659)" class="st0 st1">75%</text>
<text transform="matrix(1 0 0 1 444.9033 94.0539)" class="st0 st1">100%</text>
<text transform="matrix(1 0 0 1 56.7095 43.7002)" class="st0 st1">Values</text>
<text transform="matrix(1 0 0 1 28.0341 88.6856)" class="st0 st1">Probabilities</text>
</svg>
