<?xml version="1.0" encoding="utf-8"?>
<!-- Generator: Adobe Illustrator 26.1.0, SVG Export Plug-In . SVG Version: 6.00 Build 0)  -->
<svg version="1.1" id="Layer_1" xmlns="http://www.w3.org/2000/svg" xmlns:xlink="http://www.w3.org/1999/xlink" x="0px" y="0px"
	 viewBox="0 0 514.3 122.6" style="enable-background:new 0 0 514.3 122.6;" xml:space="preserve">
<style type="text/css">
	.st0{font-family:'ArialMT';}
	.st1{font-size:12px;}
	.st2{fill:none;stroke:#000000;stroke-miterlimit:10;}
</style>
<text transform="matrix(1 0 0 1 143.2978 43.5553)" class="st0 st1">1</text>
<text transform="matrix(1 0 0 1 169.341 43.5557)" class="st0 st1">2</text>
<text transform="matrix(0.948 0 0 1 195.5581 43.5558)" class="st0 st1">3</text>
<text transform="matrix(1 0 0 1 221.4281 43.5557)" class="st0 st1">4</text>
<text transform="matrix(1 0 0 1 247.4713 43.5561)" class="st0 st1">5</text>
<text transform="matrix(0.948 0 0 1 273.6885 43.5558)" class="st0 st1">6</text>
<text transform="matrix(1 0 0 1 299.558 43.5561)" class="st0 st1">7</text>
<text transform="matrix(1 0 0 1 325.6012 43.556)" class="st0 st1">8</text>
<text transform="matrix(0.948 0 0 1 351.8184 43.5558)" class="st0 st1">9</text>
<text transform="matrix(1 0 0 1 374.351 43.5559)" class="st0 st1">10</text>
<text transform="matrix(1 0 0 1 400.3946 43.556)" class="st0 st1">11</text>
<text transform="matrix(0.948 0 0 1 426.7852 43.5558)" class="st0 st1">12</text>
<rect x="137.7" y="29.2" class="st2" width="18.3" height="18.3"/>
<rect x="424.1" y="29.2" class="st2" width="18.3" height="18.3"/>
<text transform="matrix(1 0 0 1 139.0898 94.054)" class="st0 st1">0%</text>
<text transform="matrix(1 0 0 1 201.3712 94.0539)" class="st0 st1">25%</text>
<text transform="matrix(1 0 0 1 279.5018 94.054)" class="st0 st1">50%</text>
<text transform="matrix(1 0 0 1 355.6698 94.0534)" class="st0 st1">75%</text>
<text transform="matrix(1 0 0 1 424.071 94.3649)" class="st0 st1">100%</text>
<text transform="matrix(1 0 0 1 56.7095 43.7002)" class="st0 st1">Values</text>
<text transform="matrix(1 0 0 1 28.0341 88.6856)" class="st0 st1">Probabilities</text>
<rect x="220.5" y="54.5" width="60.9" height="8.7"/>
<rect x="296.4" y="54.5" width="60.9" height="8.7"/>
<rect x="372.3" y="54.5" width="60.9" height="8.7"/>
<rect x="144.6" y="54.5" width="60.9" height="8.7"/>
<text transform="matrix(1 0 0 1 203.5997 16.3456)" class="st0 st1">3.5</text>
<rect x="200.2" y="2" class="st2" width="24.5" height="18.3"/>
<text transform="matrix(1 0 0 1 279.0789 16.3456)" class="st0 st1">6.5</text>
<rect x="275.6" y="2" class="st2" width="24.5" height="18.3"/>
<text transform="matrix(1 0 0 1 357.8983 16.3456)" class="st0 st1">9.5</text>
<rect x="354.5" y="2" class="st2" width="24.5" height="18.3"/>
</svg>
