<?xml version="1.0" encoding="utf-8"?>
<!-- Generator: Adobe Illustrator 26.5.0, SVG Export Plug-In . SVG Version: 6.00 Build 0)  -->
<svg version="1.1" id="Layer_1" xmlns="http://www.w3.org/2000/svg" xmlns:xlink="http://www.w3.org/1999/xlink" x="0px" y="0px"
	 viewBox="0 0 841.9 371.6" style="enable-background:new 0 0 841.9 371.6;" xml:space="preserve">
<style type="text/css">
	.st0{fill:#E30613;stroke:#000000;stroke-width:0.5;stroke-miterlimit:10;}
	.st1{font-family:'MyriadPro-Regular';}
	.st2{font-size:12px;}
	.st3{fill:#009FE3;stroke:#000000;stroke-width:0.5;stroke-miterlimit:10;}
	.st4{fill:#B2B2B2;stroke:#000000;stroke-width:0.5;stroke-miterlimit:10;}
	.st5{fill:none;stroke:#000000;stroke-width:0.5;stroke-miterlimit:10;}
	.st6{fill:none;stroke:#000000;stroke-width:0.5;stroke-miterlimit:10;stroke-dasharray:2.0258,2.0258;}
	.st7{font-size:8px;}
</style>
<g>
	<circle class="st0" cx="277.1" cy="343" r="7.1"/>
	<text transform="matrix(1 0 0 1 293.1611 347.568)" class="st1 st2">Core point</text>
	<circle class="st3" cx="382.2" cy="343" r="7.1"/>
	<text transform="matrix(1 0 0 1 398.3206 347.568)" class="st1 st2">Border point</text>
	<circle class="st4" cx="492" cy="343" r="7.1"/>
	<text transform="matrix(1 0 0 1 508.0756 347.568)" class="st1 st2">Outlier point</text>
</g>
<g>
	<circle class="st5" cx="247.1" cy="136" r="56.7"/>
	<circle class="st0" cx="247.1" cy="136" r="7.1"/>
	<circle class="st3" cx="250.1" cy="89.7" r="7.1"/>
	<circle class="st3" cx="212.9" cy="111.2" r="7.1"/>
	<circle class="st3" cx="227.1" cy="150.1" r="7.1"/>
	<circle class="st3" cx="281.5" cy="164.3" r="7.1"/>
	<circle class="st4" cx="124.3" cy="185.6" r="7.1"/>
	<circle class="st4" cx="174.3" cy="221.2" r="7.1"/>
	<g>
		<g>
			<line class="st5" x1="247.1" y1="136" x2="247.9" y2="135.4"/>
			<line class="st6" x1="249.6" y1="134.3" x2="292.3" y2="105.2"/>
			<line class="st5" x1="293.1" y1="104.7" x2="294" y2="104.1"/>
		</g>
	</g>
	<text transform="matrix(1 0 0 1 266.0047 131.1422)" class="st1 st7">epsilon</text>
</g>
<g>
	<circle class="st5" cx="650.8" cy="136" r="56.7"/>
	<circle class="st0" cx="650.8" cy="136" r="7.1"/>
	<circle class="st3" cx="653.9" cy="89.7" r="7.1"/>
	<circle class="st3" cx="616.6" cy="111.2" r="7.1"/>
	<circle class="st3" cx="630.8" cy="150.1" r="7.1"/>
	<circle class="st3" cx="685.2" cy="164.3" r="7.1"/>
	<circle class="st4" cx="528" cy="185.6" r="7.1"/>
	<circle class="st4" cx="578" cy="221.2" r="7.1"/>
	<circle class="st5" cx="630.8" cy="150.1" r="56.7"/>
	<circle class="st5" cx="653.9" cy="89.7" r="56.7"/>
	<circle class="st5" cx="616.6" cy="111.2" r="56.7"/>
	<circle class="st5" cx="685.2" cy="164.3" r="56.7"/>
</g>
<text transform="matrix(1 0 0 1 227.6266 66.2868)" class="st1 st7">minPoints = 5</text>
</svg>
