<?xml version="1.0" encoding="utf-8"?>
<!-- Generator: Adobe Illustrator 26.3.1, SVG Export Plug-In . SVG Version: 6.00 Build 0)  -->
<svg version="1.1" id="Layer_1" xmlns="http://www.w3.org/2000/svg" xmlns:xlink="http://www.w3.org/1999/xlink" x="0px" y="0px"
	 viewBox="0 0 908.5 555.6" style="enable-background:new 0 0 908.5 555.6;" xml:space="preserve">
<style type="text/css">
	.st0{fill:#98D6F2;stroke:#1D1D1B;stroke-width:0.75;stroke-miterlimit:10;}
	.st1{fill:none;stroke:#1D1D1B;stroke-width:0.75;stroke-miterlimit:10;}
	.st2{fill:#1D1D1B;}
	.st3{fill:#FAD6E8;stroke:#1D1D1B;stroke-width:0.75;stroke-miterlimit:10;}
	.st4{fill:#F6F6F6;}
	.st5{fill:none;stroke:#1D1D1B;stroke-width:0.75;stroke-miterlimit:10;stroke-dasharray:6.2,6.2;}
	.st6{fill:none;stroke:#1D1D1B;stroke-width:0.75;stroke-miterlimit:10;stroke-dasharray:6.77,6.77;}
	.st7{fill:none;stroke:#1D1D1B;stroke-width:0.75;stroke-miterlimit:10;stroke-dasharray:5.79,5.79;}
	.st8{fill:none;}
	.st9{font-family:'Courier';}
	.st10{font-size:12px;}
	.st11{font-family:'ArialMT';}
</style>
<rect x="181.2" y="48.6" class="st0" width="111.4" height="26.3"/>
<line class="st1" x1="292.6" y1="61.8" x2="353.9" y2="61.8"/>
<polygon class="st2" points="352.8,65.5 359.2,61.8 352.8,58 "/>
<rect x="359.2" y="48.6" class="st0" width="111.4" height="26.3"/>
<line class="st1" x1="292.6" y1="98.9" x2="353.9" y2="98.9"/>
<polygon class="st2" points="352.8,102.6 359.2,98.9 352.8,95.2 "/>
<rect x="211.3" y="85.7" class="st0" width="81.3" height="26.3"/>
<rect x="359.2" y="85.7" class="st0" width="111.4" height="26.3"/>
<rect x="181.2" y="146.9" class="st3" width="289.5" height="26.3"/>
<rect x="211.3" y="188" class="st3" width="259.4" height="26.3"/>
<rect x="181.2" y="241.2" class="st3" width="111.4" height="26.3"/>
<line class="st1" x1="292.6" y1="254.3" x2="353.9" y2="254.3"/>
<polygon class="st2" points="352.8,258.1 359.2,254.3 352.8,250.6 "/>
<rect x="359.2" y="241.2" class="st3" width="111.4" height="26.3"/>
<line class="st1" x1="291.6" y1="304.5" x2="352.9" y2="304.5"/>
<polygon class="st2" points="351.8,308.2 358.2,304.5 351.8,300.7 "/>
<rect x="180.2" y="291.3" class="st3" width="111.4" height="26.3"/>
<rect x="358.2" y="291.3" class="st3" width="111.4" height="26.3"/>
<line class="st1" x1="211.3" y1="291.3" x2="211.3" y2="317.6"/>
<rect x="181.1" y="343.4" class="st0" width="111.4" height="26.3"/>
<line class="st1" x1="292.5" y1="356.6" x2="353.8" y2="356.6"/>
<polygon class="st2" points="352.7,360.3 359.2,356.6 352.7,352.9 "/>
<rect x="359.2" y="343.4" class="st0" width="111.4" height="26.3"/>
<rect x="133.5" y="352.6" class="st3" width="47.6" height="8"/>
<rect x="211.3" y="382.6" class="st0" width="81.3" height="26.3"/>
<line class="st1" x1="292.6" y1="395.7" x2="353.9" y2="395.7"/>
<polygon class="st2" points="352.8,399.5 359.2,395.7 352.8,392 "/>
<rect x="359.2" y="382.6" class="st0" width="111.4" height="26.3"/>
<rect x="163.6" y="391.7" class="st3" width="47.6" height="8"/>
<rect x="181.2" y="437.7" class="st4" width="111.4" height="26.3"/>
<polyline class="st1" points="292.6,461 292.6,464 289.6,464 "/>
<line class="st5" x1="283.4" y1="464" x2="187.3" y2="464"/>
<polyline class="st1" points="184.2,464 181.2,464 181.2,461 "/>
<line class="st6" x1="181.2" y1="454.3" x2="181.2" y2="444.1"/>
<polyline class="st1" points="181.2,440.7 181.2,437.7 184.2,437.7 "/>
<line class="st5" x1="190.4" y1="437.7" x2="286.5" y2="437.7"/>
<polyline class="st1" points="289.6,437.7 292.6,437.7 292.6,440.7 "/>
<line class="st6" x1="292.6" y1="447.5" x2="292.6" y2="457.6"/>
<rect x="359.2" y="437.7" class="st4" width="111.4" height="26.3"/>
<polyline class="st1" points="470.6,461 470.6,464 467.6,464 "/>
<line class="st5" x1="461.4" y1="464" x2="365.3" y2="464"/>
<polyline class="st1" points="362.2,464 359.2,464 359.2,461 "/>
<line class="st6" x1="359.2" y1="454.3" x2="359.2" y2="444.1"/>
<polyline class="st1" points="359.2,440.7 359.2,437.7 362.2,437.7 "/>
<line class="st5" x1="368.4" y1="437.7" x2="464.5" y2="437.7"/>
<polyline class="st1" points="467.6,437.7 470.6,437.7 470.6,440.7 "/>
<line class="st6" x1="470.6" y1="447.5" x2="470.6" y2="457.6"/>
<rect x="292.6" y="437.7" class="st3" width="65.7" height="26.3"/>
<rect x="211.3" y="479.9" class="st4" width="81.3" height="26.3"/>
<polyline class="st1" points="292.6,503.2 292.6,506.2 289.6,506.2 "/>
<line class="st7" x1="283.8" y1="506.2" x2="217.2" y2="506.2"/>
<polyline class="st1" points="214.3,506.2 211.3,506.2 211.3,503.2 "/>
<line class="st6" x1="211.3" y1="496.4" x2="211.3" y2="486.2"/>
<polyline class="st1" points="211.3,482.8 211.3,479.8 214.3,479.8 "/>
<line class="st7" x1="220.1" y1="479.9" x2="286.7" y2="479.9"/>
<polyline class="st1" points="289.6,479.8 292.6,479.8 292.6,482.8 "/>
<line class="st6" x1="292.6" y1="489.6" x2="292.6" y2="499.8"/>
<rect x="359.2" y="479.9" class="st4" width="111.4" height="26.3"/>
<polyline class="st1" points="470.6,503.2 470.6,506.2 467.6,506.2 "/>
<line class="st5" x1="461.4" y1="506.2" x2="365.3" y2="506.2"/>
<polyline class="st1" points="362.2,506.2 359.2,506.2 359.2,503.2 "/>
<line class="st6" x1="359.2" y1="496.4" x2="359.2" y2="486.2"/>
<polyline class="st1" points="359.2,482.8 359.2,479.8 362.2,479.8 "/>
<line class="st5" x1="368.4" y1="479.9" x2="464.5" y2="479.9"/>
<polyline class="st1" points="467.6,479.8 470.6,479.8 470.6,482.8 "/>
<line class="st6" x1="470.6" y1="489.6" x2="470.6" y2="499.8"/>
<rect x="292.1" y="479.9" class="st3" width="65.7" height="26.3"/>
<rect x="497.8" y="43.9" class="st8" width="380" height="76.4"/>
<text transform="matrix(1 0 0 1 497.8 51.5475)" class="st9 st10">gene_model &lt;- GRangesList(</text>
<text transform="matrix(1 0 0 1 497.8 65.9475)" class="st9 st10">  transcript_1 = GRanges(”chr1”,</text>
<text transform="matrix(1 0 0 1 497.8 80.3475)" class="st9 st10">    IRanges(start=c(100, 700), end=c(500, 900)),</text>
<text transform="matrix(1 0 0 1 497.8 94.7475)" class="st9 st10">  transcript_2 = GRanges(”chr1”,</text>
<text transform="matrix(1 0 0 1 497.8 109.1475)" class="st9 st10">    IRanges(start=c(200, 700), end=c(500, 900)))</text>
<rect x="497.8" y="153.8" class="st8" width="343.4" height="14.8"/>
<text transform="matrix(1 0 0 1 497.8 161.4465)" class="st9 st10">range(gene_model)</text>
<rect x="497.8" y="249.9" class="st8" width="343.4" height="14.8"/>
<text transform="matrix(1 0 0 1 497.8 256.6316)" class="st9 st10">reduce(gene_model)</text>
<rect x="497.8" y="302.5" class="st8" width="343.4" height="14.8"/>
<text transform="matrix(1 0 0 1 497.8 310.1989)" class="st9 st10">disjoin(gene_model)</text>
<rect x="497.8" y="352.9" class="st8" width="343.4" height="14.8"/>
<text transform="matrix(1 0 0 1 497.8 360.6089)" class="st9 st10">flank(range(gene_model), 100)</text>
<rect x="497.8" y="446.9" class="st8" width="343.4" height="14.8"/>
<text transform="matrix(1 0 0 1 497.8 454.5489)" class="st9 st10">psetdiff(range(gene_model), gene_model))</text>
<text transform="matrix(1 0 0 1 98.2689 64.5358)" class="st11 st10">Gene model</text>
<text transform="matrix(1 0 0 1 110.9483 158.0202)" class="st11 st10">Unspliced</text>
<text transform="matrix(1 0 0 1 108.2483 172.4202)" class="st11 st10">transcripts</text>
<text transform="matrix(1 0 0 1 97.5948 257.2222)" class="st11 st10">Gene region</text>
<text transform="matrix(1 0 0 1 98.0703 308.1986)" class="st11 st10">Disjoint bins</text>
<text transform="matrix(1 0 0 1 62.5483 360.6085)" class="st11 st10">Promoter</text>
<text transform="matrix(1 0 0 1 125.6218 457.7806)" class="st11 st10">Introns</text>
</svg>
