<svg width="472" height="338" viewBox="0 0 472 338" fill="none" xmlns="http://www.w3.org/2000/svg">
<path d="M66.2581 24.3391H9.09598C5.15377 24.3391 2 27.4929 2 31.4351C2 35.3773 5.02262 38.7939 8.96483 38.7939H12.5126L12.6437 118.952L27.2302 201.739C27.2302 207.258 31.698 211.857 37.3485 211.857C42.999 211.857 47.4669 207.389 47.4669 201.87L62.4473 118.821V38.7939H66.3895C70.3317 38.7939 73.4855 35.5087 73.4855 31.5665C73.4855 27.6243 70.2003 24.3391 66.2581 24.3391Z" fill="#EBF4FC" stroke="#CCE3F7" stroke-width="3" stroke-linecap="round" stroke-linejoin="round"/>
<path d="M63.9969 83.5356V118.821C63.9969 118.913 63.9886 119.005 63.9723 119.096L49.0156 202.014C48.9389 208.334 43.7936 213.405 37.35 213.405C30.8793 213.405 25.7592 208.177 25.6843 201.879L11.1205 119.221C11.105 119.133 11.0972 119.044 11.097 118.955L11.0391 83.5356C63.9969 83.5356 -12.1143 83.5356 63.9969 83.5356Z" fill="#0071D9"/>
<path d="M378.443 177.457C426.56 177.457 465.655 138.262 465.655 89.7283C465.655 41.3265 426.691 2 378.443 2C330.326 2 291.23 41.1949 291.23 89.7283C291.23 138.262 330.326 177.457 378.443 177.457Z" fill="white"/>
<path d="M41.4599 38.7942H9.46484" stroke="#CCE3F7" stroke-width="3" stroke-linecap="round" stroke-linejoin="round"/>
<path d="M24.3407 101.869C26.5179 101.869 28.2829 100.104 28.2829 97.9268C28.2829 95.7496 26.5179 93.9846 24.3407 93.9846C22.1634 93.9846 20.3984 95.7496 20.3984 97.9268C20.3984 100.104 22.1634 101.869 24.3407 101.869Z" fill="url(#paint0_linear)"/>
<path d="M24.3407 125.523C26.5179 125.523 28.2829 123.758 28.2829 121.58C28.2829 119.403 26.5179 117.638 24.3407 117.638C22.1634 117.638 20.3984 119.403 20.3984 121.58C20.3984 123.758 22.1634 125.523 24.3407 125.523Z" fill="url(#paint1_linear)"/>
<path d="M37.4774 101.869C39.6546 101.869 41.4196 100.104 41.4196 97.9268C41.4196 95.7496 39.6546 93.9846 37.4774 93.9846C35.3001 93.9846 33.5352 95.7496 33.5352 97.9268C33.5352 100.104 35.3001 101.869 37.4774 101.869Z" fill="url(#paint2_linear)"/>
<path d="M37.4774 125.523C39.6546 125.523 41.4196 123.758 41.4196 121.58C41.4196 119.403 39.6546 117.638 37.4774 117.638C35.3001 117.638 33.5352 119.403 33.5352 121.58C33.5352 123.758 35.3001 125.523 37.4774 125.523Z" fill="url(#paint3_linear)"/>
<path d="M29.5946 113.696C31.7718 113.696 33.5368 111.931 33.5368 109.754C33.5368 107.577 31.7718 105.812 29.5946 105.812C27.4173 105.812 25.6523 107.577 25.6523 109.754C25.6523 111.931 27.4173 113.696 29.5946 113.696Z" fill="url(#paint4_linear)"/>
<path d="M29.5946 137.349C31.7718 137.349 33.5368 135.584 33.5368 133.407C33.5368 131.23 31.7718 129.465 29.5946 129.465C27.4173 129.465 25.6523 131.23 25.6523 133.407C25.6523 135.584 27.4173 137.349 29.5946 137.349Z" fill="url(#paint5_linear)"/>
<path d="M29.5946 149.176C31.7718 149.176 33.5368 147.411 33.5368 145.234C33.5368 143.057 31.7718 141.292 29.5946 141.292C27.4173 141.292 25.6523 143.057 25.6523 145.234C25.6523 147.411 27.4173 149.176 29.5946 149.176Z" fill="url(#paint6_linear)"/>
<path d="M29.5946 161.003C31.7718 161.003 33.5368 159.238 33.5368 157.061C33.5368 154.884 31.7718 153.119 29.5946 153.119C27.4173 153.119 25.6523 154.884 25.6523 157.061C25.6523 159.238 27.4173 161.003 29.5946 161.003Z" fill="url(#paint7_linear)"/>
<path d="M37.4774 172.829C39.6546 172.829 41.4196 171.064 41.4196 168.887C41.4196 166.709 39.6546 164.944 37.4774 164.944C35.3001 164.944 33.5352 166.709 33.5352 168.887C33.5352 171.064 35.3001 172.829 37.4774 172.829Z" fill="url(#paint8_linear)"/>
<path d="M37.4774 184.656C39.6546 184.656 41.4196 182.891 41.4196 180.713C41.4196 178.536 39.6546 176.771 37.4774 176.771C35.3001 176.771 33.5352 178.536 33.5352 180.713C33.5352 182.891 35.3001 184.656 37.4774 184.656Z" fill="url(#paint9_linear)"/>
<path d="M37.4774 196.482C39.6546 196.482 41.4196 194.717 41.4196 192.54C41.4196 190.363 39.6546 188.598 37.4774 188.598C35.3001 188.598 33.5352 190.363 33.5352 192.54C33.5352 194.717 35.3001 196.482 37.4774 196.482Z" fill="url(#paint10_linear)"/>
<path d="M50.6219 101.869C52.7991 101.869 54.5641 100.104 54.5641 97.9268C54.5641 95.7496 52.7991 93.9846 50.6219 93.9846C48.4447 93.9846 46.6797 95.7496 46.6797 97.9268C46.6797 100.104 48.4447 101.869 50.6219 101.869Z" fill="url(#paint11_linear)"/>
<path d="M50.6219 125.523C52.7991 125.523 54.5641 123.758 54.5641 121.58C54.5641 119.403 52.7991 117.638 50.6219 117.638C48.4447 117.638 46.6797 119.403 46.6797 121.58C46.6797 123.758 48.4447 125.523 50.6219 125.523Z" fill="url(#paint12_linear)"/>
<path d="M45.3641 113.696C47.5413 113.696 49.3063 111.931 49.3063 109.754C49.3063 107.577 47.5413 105.812 45.3641 105.812C43.1869 105.812 41.4219 107.577 41.4219 109.754C41.4219 111.931 43.1869 113.696 45.3641 113.696Z" fill="url(#paint13_linear)"/>
<path d="M45.3641 137.349C47.5413 137.349 49.3063 135.584 49.3063 133.407C49.3063 131.23 47.5413 129.465 45.3641 129.465C43.1869 129.465 41.4219 131.23 41.4219 133.407C41.4219 135.584 43.1869 137.349 45.3641 137.349Z" fill="url(#paint14_linear)"/>
<path d="M45.3641 149.176C47.5413 149.176 49.3063 147.411 49.3063 145.234C49.3063 143.057 47.5413 141.292 45.3641 141.292C43.1869 141.292 41.4219 143.057 41.4219 145.234C41.4219 147.411 43.1869 149.176 45.3641 149.176Z" fill="url(#paint15_linear)"/>
<path d="M45.3641 161.003C47.5413 161.003 49.3063 159.238 49.3063 157.061C49.3063 154.884 47.5413 153.119 45.3641 153.119C43.1869 153.119 41.4219 154.884 41.4219 157.061C41.4219 159.238 43.1869 161.003 45.3641 161.003Z" fill="url(#paint16_linear)"/>
<path d="M342.102 109.359H162.074L175.215 73.7478H342.102V109.359Z" fill="white"/>
<path d="M259.316 94.2476V205.944L223.836 219.084V94.2476H259.316Z" fill="white"/>
<path d="M260.346 226.181V109.36H292.935C301.871 148.256 336.694 177.297 378.35 177.297C426.707 177.297 465.998 138.138 465.998 89.6485C465.998 41.2907 426.839 2 378.35 2C335.379 2 299.768 32.8807 292.278 73.6169H153.906" fill="white"/>
<path d="M260.346 226.181V109.36H292.935C301.871 148.256 336.694 177.297 378.35 177.297C426.707 177.297 465.998 138.138 465.998 89.6485C465.998 41.2907 426.839 2 378.35 2C335.379 2 299.768 32.8807 292.278 73.6169H153.906" stroke="#CCE3F7" stroke-width="3" stroke-linecap="round" stroke-linejoin="round"/>
<path d="M378.351 166.785C420.909 166.785 455.487 132.322 455.487 89.6487C455.487 47.0909 421.024 12.5127 378.351 12.5127C335.793 12.5127 301.215 46.9752 301.215 89.6487C301.215 132.322 335.793 166.785 378.351 166.785Z" fill="#0071D9"/>
<path d="M130.449 109.36H224.871V247.015" stroke="#CCE3F7" stroke-width="3" stroke-linecap="round" stroke-linejoin="round"/>
<path opacity="0.2" d="M340.637 195.431L360.348 159.688" stroke="#0071D9" stroke-width="3" stroke-miterlimit="10" stroke-linecap="round"/>
<path d="M233.538 100.686C238.255 100.686 242.079 96.8621 242.079 92.1447C242.079 87.4274 238.255 83.6033 233.538 83.6033C228.82 83.6033 224.996 87.4274 224.996 92.1447C224.996 96.8621 228.82 100.686 233.538 100.686Z" fill="url(#paint17_linear)"/>
<path d="M170.6 100.686C175.317 100.686 179.142 96.8621 179.142 92.1447C179.142 87.4274 175.317 83.6033 170.6 83.6033C165.883 83.6033 162.059 87.4274 162.059 92.1447C162.059 96.8621 165.883 100.686 170.6 100.686Z" fill="url(#paint18_linear)"/>
<circle cx="296.385" cy="91.7924" r="16.5136" fill="white"/>
<path d="M293.159 99.5231C297.876 99.5231 301.7 95.699 301.7 90.9817C301.7 86.2643 297.876 82.4402 293.159 82.4402C288.441 82.4402 284.617 86.2643 284.617 90.9817C284.617 95.699 288.441 99.5231 293.159 99.5231Z" fill="url(#paint19_linear)"/>
<path d="M242.402 130.363C244.682 130.363 246.53 128.515 246.53 126.235C246.53 123.955 244.682 122.106 242.402 122.106C240.122 122.106 238.273 123.955 238.273 126.235C238.273 128.515 240.122 130.363 242.402 130.363Z" fill="#00B1E4"/>
<path d="M303.613 103.145C305.893 103.145 307.741 101.297 307.741 99.0171C307.741 96.737 305.893 94.8887 303.613 94.8887C301.333 94.8887 299.484 96.737 299.484 99.0171C299.484 101.297 301.333 103.145 303.613 103.145Z" fill="#00B1E4"/>
<path d="M242.402 175.582C245.634 175.582 248.254 172.962 248.254 169.73C248.254 166.498 245.634 163.878 242.402 163.878C239.17 163.878 236.55 166.498 236.55 169.73C236.55 172.962 239.17 175.582 242.402 175.582Z" fill="#00B1E4" stroke="white" stroke-width="3.44746" stroke-linecap="round" stroke-linejoin="round"/>
<path d="M242.402 218.854C245.51 218.854 248.03 216.334 248.03 213.225C248.03 210.117 245.51 207.597 242.402 207.597C239.293 207.597 236.773 210.117 236.773 213.225C236.773 216.334 239.293 218.854 242.402 218.854Z" fill="#00B1E4" stroke="white" stroke-width="3" stroke-linecap="round" stroke-linejoin="round"/>
<circle cx="410.951" cy="126.884" r="16.5136" fill="white"/>
<path d="M408.549 133.629C413.267 133.629 417.091 129.804 417.091 125.087C417.091 120.37 413.267 116.546 408.549 116.546C403.832 116.546 400.008 120.37 400.008 125.087C400.008 129.804 403.832 133.629 408.549 133.629Z" fill="url(#paint20_linear)"/>
<path d="M419.207 137.205C421.487 137.205 423.335 135.356 423.335 133.076C423.335 130.796 421.487 128.948 419.207 128.948C416.926 128.948 415.078 130.796 415.078 133.076C415.078 135.356 416.926 137.205 419.207 137.205Z" fill="#00B1E4"/>
<circle cx="351.092" cy="50.5087" r="16.5136" fill="white"/>
<path d="M350.752 58.2856C355.47 58.2856 359.294 54.4614 359.294 49.7441C359.294 45.0268 355.47 41.2026 350.752 41.2026C346.035 41.2026 342.211 45.0268 342.211 49.7441C342.211 54.4614 346.035 58.2856 350.752 58.2856Z" fill="url(#paint21_linear)"/>
<circle cx="345.682" cy="128.948" r="16.5136" fill="white"/>
<path d="M345.342 136.725C350.06 136.725 353.884 132.901 353.884 128.184C353.884 123.466 350.06 119.642 345.342 119.642C340.625 119.642 336.801 123.466 336.801 128.184C336.801 132.901 340.625 136.725 345.342 136.725Z" fill="url(#paint22_linear)"/>
<circle cx="378.955" cy="90.7606" r="16.5136" fill="white"/>
<path d="M376.553 99.0053C382.099 99.0053 386.595 94.5096 386.595 88.9638C386.595 83.4181 382.099 78.9224 376.553 78.9224C371.007 78.9224 366.512 83.4181 366.512 88.9638C366.512 94.5096 371.007 99.0053 376.553 99.0053Z" fill="url(#paint23_linear)" stroke="white" stroke-width="3"/>
<path d="M387.214 101.081C389.494 101.081 391.343 99.2331 391.343 96.9531C391.343 94.673 389.494 92.8247 387.214 92.8247C384.934 92.8247 383.086 94.673 383.086 96.9531C383.086 99.2331 384.934 101.081 387.214 101.081Z" fill="#00B1E4"/>
<circle cx="421.271" cy="65.9901" r="16.5136" fill="white"/>
<path d="M418.866 72.7348C423.583 72.7348 427.407 68.9106 427.407 64.1933C427.407 59.476 423.583 55.6519 418.866 55.6519C414.148 55.6519 410.324 59.476 410.324 64.1933C410.324 68.9106 414.148 72.7348 418.866 72.7348Z" fill="url(#paint24_linear)"/>
<path d="M429.531 76.3112C431.811 76.3112 433.659 74.4629 433.659 72.1828C433.659 69.9028 431.811 68.0544 429.531 68.0544C427.251 68.0544 425.402 69.9028 425.402 72.1828C425.402 74.4629 427.251 76.3112 429.531 76.3112Z" fill="#00B1E4"/>
<path d="M99.6655 135.002C100.475 134.714 101.123 133.85 101.123 132.662C101.123 130.682 99.7015 129.656 97.3975 129.656H93.1675V140.708H97.7575C100.061 140.708 101.465 139.61 101.465 137.576C101.465 136.37 100.709 135.344 99.6655 135.002ZM95.3815 134.192V131.6H97.2535C98.3515 131.6 98.9275 131.996 98.9275 132.878C98.9275 133.76 98.3515 134.192 97.2535 134.192H95.3815ZM95.3815 135.992H97.5595C98.6395 135.992 99.2155 136.514 99.2155 137.378C99.2155 138.224 98.6395 138.764 97.5595 138.764H95.3815V135.992ZM109.783 140.708V135.578C109.783 133.652 108.541 132.482 106.399 132.482C104.563 132.482 103.249 133.598 103.015 135.056H105.139C105.319 134.588 105.697 134.3 106.327 134.3C107.227 134.3 107.641 134.858 107.641 135.542V136.136C107.317 135.902 106.507 135.668 105.805 135.668C104.059 135.668 102.691 136.712 102.691 138.242C102.691 139.916 104.059 140.852 105.679 140.852C106.561 140.852 107.371 140.546 107.641 140.276V140.708H109.783ZM107.641 138.512C107.443 138.944 106.831 139.214 106.183 139.214C105.481 139.214 104.761 138.926 104.761 138.224C104.761 137.54 105.481 137.234 106.183 137.234C106.831 137.234 107.443 137.504 107.641 137.936V138.512ZM116.625 132.626C116.499 132.554 116.157 132.482 115.779 132.482C114.987 132.482 114.321 132.878 113.979 133.454V132.662H111.747V140.708H113.979V135.722C114.141 134.984 114.753 134.588 115.509 134.588C115.923 134.588 116.319 134.678 116.625 134.858V132.626ZM117.51 136.694C117.51 139.178 119.094 140.888 121.38 140.888C123.396 140.888 124.674 139.718 124.908 137.99H122.712C122.586 138.602 122.1 138.98 121.38 138.98C120.354 138.98 119.724 138.044 119.724 136.694C119.724 135.326 120.354 134.39 121.38 134.39C122.1 134.39 122.586 134.768 122.712 135.38H124.908C124.674 133.67 123.396 132.482 121.38 132.482C119.094 132.482 117.51 134.192 117.51 136.694ZM133.823 136.694C133.823 134.21 132.221 132.482 129.881 132.482C127.541 132.482 125.939 134.21 125.939 136.694C125.939 139.16 127.541 140.888 129.881 140.888C132.221 140.888 133.823 139.16 133.823 136.694ZM131.609 136.694C131.609 138.026 130.997 138.998 129.881 138.998C128.765 138.998 128.153 138.026 128.153 136.694C128.153 135.344 128.765 134.372 129.881 134.372C130.997 134.372 131.609 135.344 131.609 136.694ZM140.636 140.708H142.886V129.008H140.636V133.328C140.276 132.896 139.484 132.482 138.62 132.482C136.28 132.482 134.966 134.39 134.966 136.694C134.966 138.998 136.28 140.888 138.62 140.888C139.484 140.888 140.276 140.474 140.636 140.042V140.708ZM140.636 138.008C140.384 138.566 139.79 138.944 139.124 138.944C137.918 138.944 137.198 137.972 137.198 136.694C137.198 135.398 137.918 134.426 139.124 134.426C139.772 134.426 140.384 134.822 140.636 135.362V138.008ZM149.85 138.08C149.67 138.764 149.112 139.088 148.356 139.088C147.366 139.088 146.682 138.368 146.61 137.162H151.974V136.478C151.974 134.12 150.678 132.482 148.32 132.482C146.07 132.482 144.45 134.264 144.45 136.694C144.45 139.178 146.016 140.888 148.356 140.888C150.372 140.888 151.632 139.79 151.92 138.08H149.85ZM148.338 134.3C149.256 134.3 149.76 134.966 149.778 135.812H146.664C146.862 134.822 147.474 134.3 148.338 134.3ZM158.778 140.708H161.028V129.008H158.778V133.328C158.418 132.896 157.626 132.482 156.762 132.482C154.422 132.482 153.108 134.39 153.108 136.694C153.108 138.998 154.422 140.888 156.762 140.888C157.626 140.888 158.418 140.474 158.778 140.042V140.708ZM158.778 138.008C158.526 138.566 157.932 138.944 157.266 138.944C156.06 138.944 155.34 137.972 155.34 136.694C155.34 135.398 156.06 134.426 157.266 134.426C157.914 134.426 158.526 134.822 158.778 135.362V138.008ZM174.494 136.748C174.242 138.008 173.36 138.854 171.938 138.854C170.084 138.854 168.95 137.324 168.95 135.182C168.95 133.058 170.066 131.528 171.884 131.528C173.162 131.528 173.846 132.176 174.242 133.22H176.564C176.15 131.006 174.548 129.476 171.884 129.476C168.878 129.476 166.61 131.798 166.61 135.182C166.61 138.566 168.86 140.888 171.938 140.888C174.728 140.888 176.744 138.944 176.744 135.884V134.912H172.388V136.748H174.494ZM183.444 138.08C183.264 138.764 182.706 139.088 181.95 139.088C180.96 139.088 180.276 138.368 180.204 137.162H185.568V136.478C185.568 134.12 184.272 132.482 181.914 132.482C179.664 132.482 178.044 134.264 178.044 136.694C178.044 139.178 179.61 140.888 181.95 140.888C183.966 140.888 185.226 139.79 185.514 138.08H183.444ZM181.932 134.3C182.85 134.3 183.354 134.966 183.372 135.812H180.258C180.456 134.822 181.068 134.3 181.932 134.3ZM189.368 129.008H187.136V140.708H189.368V129.008ZM99.6655 159.002C100.475 158.714 101.123 157.85 101.123 156.662C101.123 154.682 99.7015 153.656 97.3975 153.656H93.1675V164.708H97.7575C100.061 164.708 101.465 163.61 101.465 161.576C101.465 160.37 100.709 159.344 99.6655 159.002ZM95.3815 158.192V155.6H97.2535C98.3515 155.6 98.9275 155.996 98.9275 156.878C98.9275 157.76 98.3515 158.192 97.2535 158.192H95.3815ZM95.3815 159.992H97.5595C98.6395 159.992 99.2155 160.514 99.2155 161.378C99.2155 162.224 98.6395 162.764 97.5595 162.764H95.3815V159.992ZM108.073 162.08C107.893 162.764 107.335 163.088 106.579 163.088C105.589 163.088 104.905 162.368 104.833 161.162H110.197V160.478C110.197 158.12 108.901 156.482 106.543 156.482C104.293 156.482 102.673 158.264 102.673 160.694C102.673 163.178 104.239 164.888 106.579 164.888C108.595 164.888 109.855 163.79 110.143 162.08H108.073ZM106.561 158.3C107.479 158.3 107.983 158.966 108.001 159.812H104.887C105.085 158.822 105.697 158.3 106.561 158.3ZM118.388 164.708V159.578C118.388 157.652 117.146 156.482 115.004 156.482C113.168 156.482 111.854 157.598 111.62 159.056H113.744C113.924 158.588 114.302 158.3 114.932 158.3C115.832 158.3 116.246 158.858 116.246 159.542V160.136C115.922 159.902 115.112 159.668 114.41 159.668C112.664 159.668 111.296 160.712 111.296 162.242C111.296 163.916 112.664 164.852 114.284 164.852C115.166 164.852 115.976 164.546 116.246 164.276V164.708H118.388ZM116.246 162.512C116.048 162.944 115.436 163.214 114.788 163.214C114.086 163.214 113.366 162.926 113.366 162.224C113.366 161.54 114.086 161.234 114.788 161.234C115.436 161.234 116.048 161.504 116.246 161.936V162.512ZM125.518 164.708H127.768V153.008H125.518V157.328C125.158 156.896 124.366 156.482 123.502 156.482C121.162 156.482 119.848 158.39 119.848 160.694C119.848 162.998 121.162 164.888 123.502 164.888C124.366 164.888 125.158 164.474 125.518 164.042V164.708ZM125.518 162.008C125.266 162.566 124.672 162.944 124.006 162.944C122.8 162.944 122.08 161.972 122.08 160.694C122.08 159.398 122.8 158.426 124.006 158.426C124.654 158.426 125.266 158.822 125.518 159.362V162.008ZM129.314 162.314C129.548 163.952 130.934 164.888 132.896 164.888C134.768 164.888 136.19 163.916 136.19 162.278C136.19 161.054 135.452 160.28 134.048 159.938L132.392 159.56C131.888 159.434 131.672 159.254 131.672 158.93C131.672 158.426 132.194 158.174 132.734 158.174C133.472 158.174 133.85 158.516 133.994 158.966H136.118C135.848 157.454 134.732 156.482 132.698 156.482C130.898 156.482 129.494 157.526 129.494 159.092C129.494 160.442 130.358 161.072 131.582 161.36L133.202 161.72C133.76 161.864 134.012 162.044 134.012 162.404C134.012 162.926 133.562 163.196 132.878 163.196C132.212 163.196 131.708 162.89 131.528 162.314H129.314Z" fill="#6E7F99"/>
<path d="M187.782 304.893C187.782 308.277 189.978 310.599 192.93 310.599C195.54 310.599 197.142 309.069 197.556 306.837H195.27C194.892 307.863 194.208 308.547 192.93 308.547C191.166 308.547 190.122 306.981 190.122 304.893C190.122 302.787 191.166 301.239 192.93 301.239C194.208 301.239 194.892 301.923 195.27 302.931H197.556C197.142 300.717 195.54 299.187 192.93 299.187C189.978 299.187 187.782 301.509 187.782 304.893ZM204.106 307.791C203.926 308.475 203.368 308.799 202.612 308.799C201.622 308.799 200.938 308.079 200.866 306.873H206.23V306.189C206.23 303.831 204.934 302.193 202.576 302.193C200.326 302.193 198.706 303.975 198.706 306.405C198.706 308.889 200.272 310.599 202.612 310.599C204.628 310.599 205.888 309.501 206.176 307.791H204.106ZM202.594 304.011C203.512 304.011 204.016 304.677 204.034 305.523H200.92C201.118 304.533 201.73 304.011 202.594 304.011ZM210.03 298.719H207.798V310.419H210.03V298.719ZM214.363 298.719H212.131V310.419H214.363V298.719ZM215.943 308.025C216.177 309.663 217.563 310.599 219.525 310.599C221.397 310.599 222.819 309.627 222.819 307.989C222.819 306.765 222.081 305.991 220.677 305.649L219.021 305.271C218.517 305.145 218.301 304.965 218.301 304.641C218.301 304.137 218.823 303.885 219.363 303.885C220.101 303.885 220.479 304.227 220.623 304.677H222.747C222.477 303.165 221.361 302.193 219.327 302.193C217.527 302.193 216.123 303.237 216.123 304.803C216.123 306.153 216.987 306.783 218.211 307.071L219.831 307.431C220.389 307.575 220.641 307.755 220.641 308.115C220.641 308.637 220.191 308.907 219.507 308.907C218.841 308.907 218.337 308.601 218.157 308.025H215.943ZM235.871 302.049C235.817 300.465 234.647 299.187 232.577 299.187C230.615 299.187 229.193 300.339 229.193 302.175C229.193 302.985 229.445 303.579 229.913 304.227C228.851 304.803 228.095 305.883 228.095 307.143C228.095 309.213 229.607 310.599 231.857 310.599C232.955 310.599 233.963 310.221 234.791 309.573L235.565 310.419H238.265L236.141 308.061C236.735 307.089 237.095 305.919 237.113 304.713H235.097C235.079 305.397 234.953 306.009 234.773 306.549L232.289 303.795C231.803 303.273 231.335 302.769 231.335 302.139C231.335 301.419 231.893 300.951 232.577 300.951C233.315 300.951 233.675 301.491 233.675 302.049H235.871ZM231.875 308.817C230.813 308.817 230.165 308.115 230.165 307.143C230.165 306.441 230.543 305.847 231.101 305.559L233.585 308.259C233.099 308.619 232.523 308.817 231.875 308.817ZM243.575 299.367V310.419H251.081V308.385H245.843V305.757H250.595V303.795H245.843V301.383H251.081V299.367H243.575ZM252.916 310.419H255.148V305.325C255.328 304.623 255.922 304.209 256.606 304.209C257.488 304.209 257.92 304.785 257.92 305.631V310.419H260.152V305.163C260.152 303.381 259.126 302.193 257.308 302.193C256.372 302.193 255.58 302.607 255.148 303.111V302.373H252.916V310.419ZM268.598 308.619H264.728L268.526 303.813V302.373H262.01V304.173H265.736L261.866 308.979V310.419H268.598V308.619ZM273.756 313.389L277.95 302.373H275.7L273.864 307.719L272.01 302.373H269.652L272.73 310.455L271.56 313.389H273.756ZM285.737 303.219C285.287 302.625 284.531 302.193 283.577 302.193C282.677 302.193 281.939 302.535 281.543 303.039V302.373H279.311V310.419H281.543V305.235C281.687 304.551 282.227 304.191 282.803 304.191C283.577 304.191 283.937 304.767 283.937 305.631V310.419H286.187V305.235C286.331 304.551 286.853 304.191 287.429 304.191C288.203 304.191 288.581 304.767 288.581 305.631V310.419H290.813V305.163C290.813 303.345 289.823 302.193 288.167 302.193C287.033 302.193 286.259 302.643 285.737 303.219ZM297.717 307.791C297.537 308.475 296.979 308.799 296.223 308.799C295.233 308.799 294.549 308.079 294.477 306.873H299.841V306.189C299.841 303.831 298.545 302.193 296.187 302.193C293.937 302.193 292.317 303.975 292.317 306.405C292.317 308.889 293.883 310.599 296.223 310.599C298.239 310.599 299.499 309.501 299.787 307.791H297.717ZM296.205 304.011C297.123 304.011 297.627 304.677 297.645 305.523H294.531C294.729 304.533 295.341 304.011 296.205 304.011Z" fill="#6E7F99"/>
<path d="M312.57 216.86C312.57 213.548 310.41 211.154 307.332 211.154C304.254 211.154 302.112 213.548 302.112 216.86C302.112 220.154 304.254 222.566 307.332 222.566C310.41 222.566 312.57 220.154 312.57 216.86ZM310.248 216.86C310.248 219.02 309.096 220.514 307.332 220.514C305.586 220.514 304.452 219.02 304.452 216.86C304.452 214.7 305.586 213.206 307.332 213.206C309.096 213.206 310.248 214.7 310.248 216.86ZM316.458 214.34H314.226V222.386H316.458V214.34ZM316.656 212.018C316.656 211.28 316.044 210.74 315.342 210.74C314.622 210.74 314.01 211.28 314.01 212.018C314.01 212.774 314.622 213.296 315.342 213.296C316.044 213.296 316.656 212.774 316.656 212.018ZM320.791 210.686H318.559V222.386H320.791V210.686ZM329.089 214.34H326.857V222.386H329.089V214.34ZM329.287 212.018C329.287 211.28 328.675 210.74 327.973 210.74C327.253 210.74 326.641 211.28 326.641 212.018C326.641 212.774 327.253 213.296 327.973 213.296C328.675 213.296 329.287 212.774 329.287 212.018ZM331.191 222.386H333.423V217.292C333.603 216.59 334.197 216.176 334.881 216.176C335.763 216.176 336.195 216.752 336.195 217.598V222.386H338.427V217.13C338.427 215.348 337.401 214.16 335.583 214.16C334.647 214.16 333.855 214.574 333.423 215.078V214.34H331.191V222.386ZM349.703 211.334L347.759 218.768L345.959 211.334H343.637L346.517 222.386H348.623L350.567 215.096L352.511 222.386H354.617L357.497 211.334H355.229L353.411 218.768L351.503 211.334H349.703ZM363.22 219.758C363.04 220.442 362.482 220.766 361.726 220.766C360.736 220.766 360.052 220.046 359.98 218.84H365.344V218.156C365.344 215.798 364.048 214.16 361.69 214.16C359.44 214.16 357.82 215.942 357.82 218.372C357.82 220.856 359.386 222.566 361.726 222.566C363.742 222.566 365.002 221.468 365.29 219.758H363.22ZM361.708 215.978C362.626 215.978 363.13 216.644 363.148 217.49H360.034C360.232 216.5 360.844 215.978 361.708 215.978ZM369.144 210.686H366.912V222.386H369.144V210.686ZM373.477 210.686H371.245V222.386H373.477V210.686Z" fill="#6E7F99"/>
<g opacity="0.2">
<path d="M93.7227 91.1133H115.799" stroke="#0071D9" stroke-width="3" stroke-miterlimit="10" stroke-linecap="round"/>
<path d="M112.91 100.837L129.993 91.1134L112.91 81.2578V100.837Z" fill="#0071D9"/>
</g>
<g opacity="0.2">
<path d="M243.246 283.474V261.266" stroke="#0071D9" stroke-width="3" stroke-miterlimit="10" stroke-linecap="round"/>
<path d="M253.103 264.156L243.248 247.205L233.523 264.156H253.103Z" fill="#0071D9"/>
</g>
<defs>
<linearGradient id="paint0_linear" x1="24.3407" y1="93.9846" x2="24.3407" y2="101.869" gradientUnits="userSpaceOnUse">
<stop offset="0.348958" stop-color="#F5EE7A"/>
<stop offset="1" stop-color="#E6A345"/>
</linearGradient>
<linearGradient id="paint1_linear" x1="24.3407" y1="117.638" x2="24.3407" y2="125.523" gradientUnits="userSpaceOnUse">
<stop stop-color="#FF95B1"/>
<stop offset="1" stop-color="#F34472"/>
</linearGradient>
<linearGradient id="paint2_linear" x1="37.4774" y1="93.9846" x2="37.4774" y2="101.869" gradientUnits="userSpaceOnUse">
<stop stop-color="#93F9A4"/>
<stop offset="1" stop-color="#00B3A7"/>
</linearGradient>
<linearGradient id="paint3_linear" x1="37.4774" y1="117.638" x2="37.4774" y2="125.523" gradientUnits="userSpaceOnUse">
<stop stop-color="#5ADFE9"/>
<stop offset="1" stop-color="#007ACC"/>
</linearGradient>
<linearGradient id="paint4_linear" x1="29.5946" y1="105.812" x2="29.5946" y2="113.696" gradientUnits="userSpaceOnUse">
<stop stop-color="#5ADFE9"/>
<stop offset="1" stop-color="#007ACC"/>
</linearGradient>
<linearGradient id="paint5_linear" x1="29.5946" y1="129.465" x2="29.5946" y2="137.349" gradientUnits="userSpaceOnUse">
<stop stop-color="#93F9A4"/>
<stop offset="1" stop-color="#00B3A7"/>
</linearGradient>
<linearGradient id="paint6_linear" x1="29.5946" y1="141.292" x2="29.5946" y2="149.176" gradientUnits="userSpaceOnUse">
<stop offset="0.348958" stop-color="#F5EE7A"/>
<stop offset="1" stop-color="#E6A345"/>
</linearGradient>
<linearGradient id="paint7_linear" x1="29.5946" y1="153.119" x2="29.5946" y2="161.003" gradientUnits="userSpaceOnUse">
<stop stop-color="#5ADFE9"/>
<stop offset="1" stop-color="#007ACC"/>
</linearGradient>
<linearGradient id="paint8_linear" x1="37.4774" y1="164.944" x2="37.4774" y2="172.829" gradientUnits="userSpaceOnUse">
<stop offset="0.348958" stop-color="#F5EE7A"/>
<stop offset="1" stop-color="#E6A345"/>
</linearGradient>
<linearGradient id="paint9_linear" x1="37.4774" y1="176.771" x2="37.4774" y2="184.656" gradientUnits="userSpaceOnUse">
<stop stop-color="#93F9A4"/>
<stop offset="1" stop-color="#00B3A7"/>
</linearGradient>
<linearGradient id="paint10_linear" x1="37.4774" y1="188.598" x2="37.4774" y2="196.482" gradientUnits="userSpaceOnUse">
<stop offset="0.348958" stop-color="#F5EE7A"/>
<stop offset="1" stop-color="#E6A345"/>
</linearGradient>
<linearGradient id="paint11_linear" x1="50.6219" y1="93.9846" x2="50.6219" y2="101.869" gradientUnits="userSpaceOnUse">
<stop stop-color="#5ADFE9"/>
<stop offset="1" stop-color="#007ACC"/>
</linearGradient>
<linearGradient id="paint12_linear" x1="50.6219" y1="117.638" x2="50.6219" y2="125.523" gradientUnits="userSpaceOnUse">
<stop stop-color="#FF95B1"/>
<stop offset="1" stop-color="#F34472"/>
</linearGradient>
<linearGradient id="paint13_linear" x1="45.3641" y1="105.812" x2="45.3641" y2="113.696" gradientUnits="userSpaceOnUse">
<stop offset="0.348958" stop-color="#F5EE7A"/>
<stop offset="1" stop-color="#E6A345"/>
</linearGradient>
<linearGradient id="paint14_linear" x1="45.3641" y1="129.465" x2="45.3641" y2="137.349" gradientUnits="userSpaceOnUse">
<stop offset="0.348958" stop-color="#F5EE7A"/>
<stop offset="1" stop-color="#E6A345"/>
</linearGradient>
<linearGradient id="paint15_linear" x1="45.3641" y1="141.292" x2="45.3641" y2="149.176" gradientUnits="userSpaceOnUse">
<stop stop-color="#5ADFE9"/>
<stop offset="1" stop-color="#007ACC"/>
</linearGradient>
<linearGradient id="paint16_linear" x1="45.3641" y1="153.119" x2="45.3641" y2="161.003" gradientUnits="userSpaceOnUse">
<stop stop-color="#FF95B1"/>
<stop offset="1" stop-color="#F34472"/>
</linearGradient>
<linearGradient id="paint17_linear" x1="233.538" y1="83.6033" x2="233.538" y2="100.686" gradientUnits="userSpaceOnUse">
<stop offset="0.348958" stop-color="#F5EE7A"/>
<stop offset="1" stop-color="#E6A345"/>
</linearGradient>
<linearGradient id="paint18_linear" x1="170.6" y1="83.6033" x2="170.6" y2="100.686" gradientUnits="userSpaceOnUse">
<stop stop-color="#93F9A4"/>
<stop offset="1" stop-color="#00B3A7"/>
</linearGradient>
<linearGradient id="paint19_linear" x1="293.159" y1="82.4402" x2="293.159" y2="99.5231" gradientUnits="userSpaceOnUse">
<stop stop-color="#FF95B1"/>
<stop offset="1" stop-color="#F34472"/>
</linearGradient>
<linearGradient id="paint20_linear" x1="408.549" y1="116.546" x2="408.549" y2="133.629" gradientUnits="userSpaceOnUse">
<stop stop-color="#5ADFE9"/>
<stop offset="1" stop-color="#007ACC"/>
</linearGradient>
<linearGradient id="paint21_linear" x1="350.752" y1="41.2026" x2="350.752" y2="58.2856" gradientUnits="userSpaceOnUse">
<stop stop-color="#5ADFE9"/>
<stop offset="1" stop-color="#007ACC"/>
</linearGradient>
<linearGradient id="paint22_linear" x1="345.342" y1="119.642" x2="345.342" y2="136.725" gradientUnits="userSpaceOnUse">
<stop stop-color="#93F9A4"/>
<stop offset="1" stop-color="#00B3A7"/>
</linearGradient>
<linearGradient id="paint23_linear" x1="376.553" y1="80.4224" x2="376.553" y2="97.5053" gradientUnits="userSpaceOnUse">
<stop offset="0.348958" stop-color="#F5EE7A"/>
<stop offset="1" stop-color="#E6A345"/>
</linearGradient>
<linearGradient id="paint24_linear" x1="418.866" y1="55.6519" x2="418.866" y2="72.7348" gradientUnits="userSpaceOnUse">
<stop stop-color="#FF95B1"/>
<stop offset="1" stop-color="#F34472"/>
</linearGradient>
</defs>
</svg>
