<?xml version="1.0" encoding="utf-8"?>
<!-- Generator: Adobe Illustrator 28.1.0, SVG Export Plug-In . SVG Version: 6.00 Build 0)  -->
<svg version="1.1" id="Layer_1" xmlns="http://www.w3.org/2000/svg" xmlns:xlink="http://www.w3.org/1999/xlink" x="0px" y="0px"
	 viewBox="0 0 1098.2 510.5" style="enable-background:new 0 0 1098.2 510.5;" xml:space="preserve">
<style type="text/css">
	.st0{fill:none;stroke:#1D1D1B;stroke-miterlimit:10;}
	.st1{fill:#1D1D1B;}
	.st2{font-family:'ArialMT';}
	.st3{font-size:20px;}
	.st4{fill:#D04544;}
	.st5{font-size:14px;}
	.st6{fill:none;stroke:#1D1D1B;stroke-miterlimit:10;stroke-dasharray:6.11,6.11;}
	.st7{fill:none;stroke:#1D1D1B;stroke-miterlimit:10;stroke-dasharray:6.45,6.45;}
	.st8{fill:none;stroke:#1D1D1B;stroke-miterlimit:10;stroke-dasharray:6.03,6.03;}
	.st9{fill:none;stroke:#1D1D1B;stroke-miterlimit:10;stroke-dasharray:5.89,5.89;}
	.st10{fill:none;stroke:#1D1D1B;stroke-miterlimit:10;stroke-dasharray:5.96,5.96;}
</style>
<rect x="97.7" y="80" class="st0" width="902.8" height="342.7"/>
<circle class="st1" cx="141.4" cy="140.5" r="9.3"/>
<circle class="st1" cx="222.7" cy="140.5" r="9.3"/>
<line class="st0" x1="150.7" y1="140.5" x2="207.4" y2="140.5"/>
<path class="st1" d="M213.4,140.5c-3.1,1.1-6,2.7-8.6,4.8l1.7-4.8l-1.7-4.8C207.4,137.8,210.3,139.4,213.4,140.5z"/>
<text transform="matrix(1 0 0 1 130.46 116.8)" class="st1 st2 st3">C1</text>
<text transform="matrix(1 0 0 1 211.8 117)" class="st1 st2 st3">C2</text>
<text transform="matrix(1 0 0 1 920.85 151.06)" class="st1 st2 st3">main</text>
<circle class="st4" cx="308.5" cy="190.6" r="9.3"/>
<line class="st0" x1="222.7" y1="141.3" x2="295.2" y2="182.9"/>
<path class="st1" d="M300.4,186c-3.2-0.6-6.5-0.6-9.8-0.1l3.9-3.3l0.9-5C296.6,180.7,298.3,183.5,300.4,186z"/>
<text transform="matrix(1 0 0 1 294.39 218.06)" class="st1 st2 st5">C3.1</text>
<text transform="matrix(1 0 0 1 934.37 210.23)" class="st1 st2 st3">fix1</text>
<circle class="st4" cx="309.2" cy="263.9" r="9.3"/>
<line class="st0" x1="222.7" y1="141.3" x2="299.2" y2="252.4"/>
<path class="st1" d="M302.6,257.4c-2.7-1.9-5.6-3.4-8.8-4.3l4.9-1.3l2.9-4.1C301.5,250.9,301.8,254.2,302.6,257.4z"/>
<text transform="matrix(1 0 0 1 608.01 377.26)" class="st1 st2 st5">C3.3.1</text>
<text transform="matrix(1 0 0 1 935.09 283.58)" class="st1 st2 st3">fix2</text>
<circle class="st1" cx="381.6" cy="140.5" r="9.3"/>
<line class="st0" x1="232" y1="140.5" x2="235" y2="140.5"/>
<line class="st6" x1="241.1" y1="140.5" x2="360.2" y2="140.5"/>
<line class="st0" x1="363.3" y1="140.5" x2="366.3" y2="140.5"/>
<path class="st1" d="M372.3,140.5c-3.1,1.1-6,2.7-8.5,4.8l1.7-4.8l-1.7-4.8C366.3,137.8,369.2,139.4,372.3,140.5z"/>
<line class="st0" x1="315.9" y1="184.9" x2="318.4" y2="183.3"/>
<line class="st7" x1="323.8" y1="179.7" x2="364.1" y2="153.1"/>
<line class="st0" x1="366.8" y1="151.3" x2="369.3" y2="149.7"/>
<path class="st1" d="M374.4,146.3c-2,2.6-3.5,5.6-4.5,8.7l-1.2-4.9l-4-3C367.9,147.4,371.2,147.1,374.4,146.3z"/>
<text transform="matrix(1 0 0 1 372.3 117.2)" class="st1 st2 st3">C3</text>
<circle class="st1" cx="538.9" cy="140.5" r="9.3"/>
<text transform="matrix(1 0 0 1 527.48 117.2)" class="st1 st2 st3">C4</text>
<line class="st0" x1="390.9" y1="140.5" x2="393.9" y2="140.5"/>
<line class="st8" x1="400" y1="140.5" x2="517.5" y2="140.5"/>
<line class="st0" x1="520.5" y1="140.5" x2="523.5" y2="140.5"/>
<path class="st1" d="M529.6,140.5c-3.1,1.1-6,2.7-8.5,4.8l1.7-4.8l-1.7-4.8C523.6,137.8,526.5,139.4,529.6,140.5z"/>
<line class="st0" x1="390.9" y1="262.9" x2="393.2" y2="260.9"/>
<line class="st9" x1="397.8" y1="257.2" x2="522.9" y2="154.5"/>
<line class="st0" x1="525.2" y1="152.7" x2="527.5" y2="150.8"/>
<path class="st1" d="M532.2,146.9c-1.7,2.8-2.9,5.9-3.6,9.1l-1.7-4.8l-4.3-2.6C525.8,148.6,529.1,148,532.2,146.9z"/>
<text transform="matrix(1 0 0 1 859.01 358.18)" class="st1 st2 st3">new_</text>
<text transform="matrix(1 0 0 1 904.85 358.18)" class="st1 st2 st3">f</text>
<text transform="matrix(1 0 0 1 910.43 358.18)" class="st1 st2 st3">e</text>
<text transform="matrix(1 0 0 1 921.45 358.18)" class="st1 st2 st3">a</text>
<text transform="matrix(1 0 0 1 932.01 358.18)" class="st1 st2 st3">tu</text>
<text transform="matrix(1 0 0 1 948.65 358.18)" class="st1 st2 st3">r</text>
<text transform="matrix(1 0 0 1 955.99 358.18)" class="st1 st2 st3">e</text>
<line class="st0" x1="541.9" y1="149.3" x2="620.7" y2="337.1"/>
<path class="st1" d="M623.1,342.6c-2.2-2.4-4.8-4.4-7.7-6l5-0.3l3.7-3.4C623.2,336.1,622.9,339.4,623.1,342.6z"/>
<circle class="st4" cx="627.6" cy="350.8" r="9.3"/>
<text transform="matrix(1 0 0 1 293.88 290.29)" class="st1 st2 st5">C3.2.1</text>
<circle class="st4" cx="700.7" cy="350.8" r="9.3"/>
<circle class="st4" cx="381.6" cy="263.6" r="9.3"/>
<line class="st0" x1="318.5" y1="263.3" x2="321.5" y2="263.4"/>
<line class="st10" x1="327.5" y1="263.4" x2="360.3" y2="263.5"/>
<line class="st0" x1="363.3" y1="263.5" x2="366.3" y2="263.5"/>
<path class="st1" d="M372.3,263.6c-3.1,1.1-6,2.7-8.6,4.7l1.7-4.8l-1.7-4.8C366.3,260.8,369.2,262.4,372.3,263.6z"/>
<text transform="matrix(1 0 0 1 362.24 290.29)" class="st1 st2 st5">C3.2.2</text>
<line class="st0" x1="637.7" y1="350.7" x2="640.7" y2="350.7"/>
<line class="st10" x1="646.6" y1="350.7" x2="679.4" y2="350.8"/>
<line class="st0" x1="682.4" y1="350.9" x2="685.4" y2="350.9"/>
<path class="st1" d="M691.4,350.9c-3.1,1.1-6,2.7-8.6,4.7l1.7-4.7l-1.7-4.8C685.5,348.1,688.3,349.8,691.4,350.9z"/>
<circle class="st4" cx="773.2" cy="350.8" r="9.3"/>
<line class="st0" x1="710" y1="350.7" x2="713" y2="350.7"/>
<line class="st10" x1="719" y1="350.7" x2="751.8" y2="350.8"/>
<line class="st0" x1="754.8" y1="350.9" x2="757.8" y2="350.9"/>
<path class="st1" d="M763.8,350.9c-3.1,1.1-6,2.7-8.6,4.7l1.7-4.7l-1.7-4.8C757.9,348.1,760.8,349.8,763.8,350.9z"/>
<text transform="matrix(1 0 0 1 684.25 377.41)" class="st1 st2 st5">C3.3.2</text>
<text transform="matrix(1 0 0 1 753.07 377.56)" class="st1 st2 st5">C3.3.3</text>
<text transform="matrix(1 0 0 1 210.83 203.44)" class="st1 st2 st5">b</text>
<text transform="matrix(1 0 0 1 218.8 203.44)" class="st1 st2 st5">r</text>
<text transform="matrix(1 0 0 1 223.3 203.44)" class="st1 st2 st5">anch</text>
<text transform="matrix(1 0 0 1 531.56 250.1)" class="st1 st2 st5">b</text>
<text transform="matrix(1 0 0 1 539.53 250.1)" class="st1 st2 st5">r</text>
<text transform="matrix(1 0 0 1 544.03 250.1)" class="st1 st2 st5">anch</text>
<text transform="matrix(1 0 0 1 418.01 201.89)" class="st1 st2 st5">me</text>
<text transform="matrix(1 0 0 1 436.7 201.89)" class="st1 st2 st5">r</text>
<text transform="matrix(1 0 0 1 441.17 201.89)" class="st1 st2 st5">ge</text>
<text transform="matrix(1 0 0 1 159.85 157.8)" class="st1 st2 st5">c</text>
<text transform="matrix(1 0 0 1 166.04 157.8)" class="st1 st2 st5">ommit</text>
</svg>
