<?xml version="1.0" encoding="utf-8"?>
<!-- Generator: Adobe Illustrator 28.1.0, SVG Export Plug-In . SVG Version: 6.00 Build 0)  -->
<svg version="1.1" id="Layer_1" xmlns="http://www.w3.org/2000/svg" xmlns:xlink="http://www.w3.org/1999/xlink" x="0px" y="0px"
	 viewBox="0 0 659.7 240" style="enable-background:new 0 0 659.7 240;" xml:space="preserve">
<style type="text/css">
	.st0{fill:#FFFFFF;stroke:#1D1D1B;stroke-miterlimit:10;}
	.st1{fill:none;stroke:#1D1D1B;stroke-miterlimit:10;}
	.st2{fill:#1D1D1B;}
	.st3{fill:#E30613;}
	.st4{font-family:'ArialMT';}
	.st5{font-size:12px;}
	.st6{fill:#0B7E35;}
	.st7{font-size:20px;}
</style>
<rect x="148.8" y="13.8" class="st0" width="371.4" height="187.3"/>
<line class="st1" x1="87.4" y1="109.9" x2="567.8" y2="109.5"/>
<path class="st2" d="M573.8,109.5c-3.1,1.1-6,2.7-8.5,4.8l1.7-4.8l-1.7-4.8C567.8,106.8,570.7,108.4,573.8,109.5z"/>
<rect x="172.6" y="49" class="st0" width="132.3" height="123.7"/>
<text transform="matrix(1 0 0 1 180.75 69.22)" class="st3 st4 st5">def fun</text>
<text transform="matrix(1 0 0 1 216.35 69.22)" class="st3 st4 st5">c</text>
<text transform="matrix(1 0 0 1 221.89 69.22)" class="st3 st4 st5">tion1</text>
<text transform="matrix(1 0 0 1 181.21 84.88)" class="st6 st4 st5">def fun</text>
<text transform="matrix(1 0 0 1 216.81 84.88)" class="st6 st4 st5">c</text>
<text transform="matrix(1 0 0 1 222.35 84.88)" class="st6 st4 st5">tion2</text>
<rect x="269.3" y="56.1" class="st0" width="132.3" height="123.7"/>
<text transform="matrix(1 0 0 1 277.52 76.31)" class="st3 st4 st5">fun</text>
<text transform="matrix(1 0 0 1 294.3 76.31)" class="st3 st4 st5">c</text>
<text transform="matrix(1 0 0 1 299.83 76.31)" class="st3 st4 st5">tion1(a, </text>
<text transform="matrix(1 0 0 1 341.07 76.31)" class="st3 st4 st5">b</text>
<text transform="matrix(1 0 0 1 347.87 76.31)" class="st3 st4 st5">)</text>
<text transform="matrix(1 0 0 1 277.97 91.97)" class="st6 st4 st5">fun</text>
<text transform="matrix(1 0 0 1 294.75 91.97)" class="st6 st4 st5">c</text>
<text transform="matrix(1 0 0 1 300.28 91.97)" class="st6 st4 st5">tion2(a, </text>
<text transform="matrix(1 0 0 1 340.68 91.97)" class="st6 st4 st5">b</text>
<text transform="matrix(1 0 0 1 347.47 91.97)" class="st6 st4 st5">)</text>
<text transform="matrix(1 0 0 1 285.27 145.76)" class="st3 st4 st5">fun</text>
<text transform="matrix(1 0 0 1 302.05 145.76)" class="st3 st4 st5">c</text>
<text transform="matrix(1 0 0 1 307.58 145.76)" class="st3 st4 st5">tion1(a, </text>
<text transform="matrix(1 0 0 1 348.82 145.76)" class="st3 st4 st5">b</text>
<text transform="matrix(1 0 0 1 355.62 145.76)" class="st3 st4 st5">)</text>
<text transform="matrix(1 0 0 1 285.73 161.42)" class="st6 st4 st5">fun</text>
<text transform="matrix(1 0 0 1 302.51 161.42)" class="st6 st4 st5">c</text>
<text transform="matrix(1 0 0 1 308.04 161.42)" class="st6 st4 st5">tion2(a, </text>
<text transform="matrix(1 0 0 1 348.44 161.42)" class="st6 st4 st5">b</text>
<text transform="matrix(1 0 0 1 355.23 161.42)" class="st6 st4 st5">)</text>
<rect x="364.1" y="61.3" class="st0" width="132.3" height="123.7"/>
<text transform="matrix(1 0 0 1 372.29 115.34)" class="st3 st4 st5">fun</text>
<text transform="matrix(1 0 0 1 389.07 115.34)" class="st3 st4 st5">c</text>
<text transform="matrix(1 0 0 1 394.6 115.34)" class="st3 st4 st5">tion1(a, </text>
<text transform="matrix(1 0 0 1 435.84 115.34)" class="st3 st4 st5">b</text>
<text transform="matrix(1 0 0 1 442.64 115.34)" class="st3 st4 st5">)</text>
<text transform="matrix(1 0 0 1 372.74 131)" class="st6 st4 st5">fun</text>
<text transform="matrix(1 0 0 1 389.52 131)" class="st6 st4 st5">c</text>
<text transform="matrix(1 0 0 1 395.05 131)" class="st6 st4 st5">tion2(a, </text>
<text transform="matrix(1 0 0 1 435.45 131)" class="st6 st4 st5">b</text>
<text transform="matrix(1 0 0 1 442.24 131)" class="st6 st4 st5">)</text>
<rect x="172.6" y="26.8" class="st0" width="132.3" height="22.2"/>
<text transform="matrix(1 0 0 1 214.33 41.18)" class="st2 st4 st5">sc</text>
<text transform="matrix(1 0 0 1 224.46 41.18)" class="st2 st4 st5">r</text>
<text transform="matrix(1 0 0 1 228.43 41.18)" class="st2 st4 st5">ipt1.</text>
<text transform="matrix(1 0 0 1 250.68 41.18)" class="st2 st4 st5">p</text>
<text transform="matrix(1 0 0 1 257.42 41.18)" class="st2 st4 st5">y</text>
<rect x="269.3" y="33.9" class="st0" width="132.3" height="22.2"/>
<text transform="matrix(1 0 0 1 311.09 48.26)" class="st2 st4 st5">sc</text>
<text transform="matrix(1 0 0 1 321.22 48.26)" class="st2 st4 st5">r</text>
<text transform="matrix(1 0 0 1 325.19 48.26)" class="st2 st4 st5">ipt2.</text>
<text transform="matrix(1 0 0 1 347.44 48.26)" class="st2 st4 st5">p</text>
<text transform="matrix(1 0 0 1 354.18 48.26)" class="st2 st4 st5">y</text>
<rect x="364.1" y="39.8" class="st0" width="132.3" height="22.2"/>
<text transform="matrix(1 0 0 1 405.92 54.17)" class="st2 st4 st5">sc</text>
<text transform="matrix(1 0 0 1 416.05 54.17)" class="st2 st4 st5">r</text>
<text transform="matrix(1 0 0 1 420.02 54.17)" class="st2 st4 st5">ipt3.</text>
<text transform="matrix(1 0 0 1 442.27 54.17)" class="st2 st4 st5">p</text>
<text transform="matrix(1 0 0 1 449.01 54.17)" class="st2 st4 st5">y</text>
<text transform="matrix(1 0 0 1 41.14 84.78)" class="st2 st4 st7">V</text>
<text transform="matrix(1 0 0 1 51.64 84.78)" class="st2 st4 st7">ersion 1</text>
<text transform="matrix(1 0 0 1 543.79 84.74)" class="st2 st4 st7">V</text>
<text transform="matrix(1 0 0 1 554.29 84.74)" class="st2 st4 st7">ersion 2</text>
<circle class="st2" cx="79.3" cy="109.9" r="8.1"/>
<circle class="st2" cx="581.9" cy="109.5" r="8.1"/>
<text transform="matrix(1 0 0 1 314.42 222.14)" class="st2 st4 st5">C</text>
<text transform="matrix(1 0 0 1 321.25 222.14)" class="st2 st4 st5">ommit</text>
</svg>
