<?xml version="1.0" encoding="utf-8"?>
<!-- Generator: Adobe Illustrator 28.1.0, SVG Export Plug-In . SVG Version: 6.00 Build 0)  -->
<svg version="1.1" id="Layer_1" xmlns="http://www.w3.org/2000/svg" xmlns:xlink="http://www.w3.org/1999/xlink" x="0px" y="0px"
	 viewBox="0 0 524 242.4" style="enable-background:new 0 0 524 242.4;" xml:space="preserve">
<style type="text/css">
	.st0{fill:#1D1D1B;}
	.st1{fill:none;stroke:#1D1D1B;stroke-miterlimit:10;}
	.st2{font-family:'ArialMT';}
	.st3{font-size:20px;}
	.st4{fill:none;stroke:#1D1D1B;stroke-miterlimit:10;stroke-dasharray:6.12,6.12;}
	.st5{fill:none;stroke:#1D1D1B;stroke-linecap:square;stroke-miterlimit:10;}
	.st6{font-family:'Courier';}
	.st7{font-size:12px;}
</style>
<circle class="st0" cx="59.4" cy="164.7" r="9.3"/>
<circle class="st0" cx="140.8" cy="164.7" r="9.3"/>
<line class="st1" x1="68.7" y1="164.7" x2="125.4" y2="164.7"/>
<path class="st0" d="M131.4,164.7c-3.1,1.1-6,2.7-8.5,4.8l1.7-4.8l-1.7-4.7C125.5,162,128.4,163.6,131.4,164.7z"/>
<text transform="matrix(1 0 0 1 48.49 141.01)" class="st0 st2 st3">C1</text>
<text transform="matrix(1 0 0 1 129.83 141.21)" class="st0 st2 st3">C2</text>
<circle class="st0" cx="299.6" cy="164.7" r="9.3"/>
<line class="st1" x1="150.1" y1="164.7" x2="284.3" y2="164.7"/>
<path class="st0" d="M290.3,164.7c-3.1,1.1-6,2.7-8.5,4.8l1.7-4.8l-1.7-4.7C284.3,162,287.2,163.6,290.3,164.7z"/>
<text transform="matrix(1 0 0 1 290.32 141.41)" class="st0 st2 st3">C3</text>
<circle class="st0" cx="385.7" cy="164.7" r="9.3"/>
<text transform="matrix(1 0 0 1 376.36 141.01)" class="st0 st2 st3">C4</text>
<line class="st1" x1="309" y1="164.7" x2="370" y2="165.1"/>
<path class="st0" d="M376.1,165.1c-3.1,1.1-6,2.7-8.6,4.7l1.8-4.7l-1.7-4.8C370.1,162.4,373,164,376.1,165.1z"/>
<line class="st1" x1="395" y1="164.5" x2="398" y2="164.5"/>
<line class="st4" x1="404.1" y1="164.6" x2="450" y2="164.9"/>
<line class="st1" x1="453.1" y1="164.9" x2="456.1" y2="164.9"/>
<path class="st0" d="M462.1,164.9c-3.1,1.1-6,2.7-8.6,4.7l1.8-4.7l-1.7-4.8C456.1,162.2,459,163.8,462.1,164.9z"/>
<line class="st5" x1="59.4" y1="98" x2="299.3" y2="97.1"/>
<line class="st5" x1="59.4" y1="105.6" x2="59.4" y2="98"/>
<line class="st5" x1="299.5" y1="104.8" x2="299.5" y2="97.2"/>
<line class="st5" x1="385.7" y1="98.1" x2="460.4" y2="97.8"/>
<line class="st5" x1="385.7" y1="105.6" x2="385.7" y2="98.1"/>
<line class="st5" x1="460.5" y1="105.6" x2="460.5" y2="98.1"/>
<line class="st5" x1="299.7" y1="54.4" x2="460.1" y2="53.7"/>
<line class="st5" x1="299.6" y1="62.1" x2="299.6" y2="54.5"/>
<line class="st5" x1="460.3" y1="61.6" x2="460.3" y2="54"/>
<text transform="matrix(1 0 0 1 343.0768 48.3497)" class="st6 st7">git diff C3</text>
<text transform="matrix(1 0 0 1 122.9002 89.9996)" class="st6 st7">git diff C1 C3</text>
<text transform="matrix(1 0 0 1 394.9802 89.9997)" class="st6 st7">git diff</text>
</svg>
