<?xml version="1.0" encoding="utf-8"?>
<!-- Generator: Adobe Illustrator 28.1.0, SVG Export Plug-In . SVG Version: 6.00 Build 0)  -->
<svg version="1.1" id="Layer_1" xmlns="http://www.w3.org/2000/svg" xmlns:xlink="http://www.w3.org/1999/xlink" x="0px" y="0px"
	 viewBox="0 0 1143.2 767.8" style="enable-background:new 0 0 1143.2 767.8;" xml:space="preserve">
<style type="text/css">
	.st0{fill:none;stroke:#1D1D1B;stroke-miterlimit:10;}
	.st1{fill:#1D1D1B;}
	.st2{fill:#D04544;}
	.st3{font-family:'ArialMT';}
	.st4{font-size:20px;}
	.st5{fill:#009FE3;}
	.st6{fill:none;stroke:#6CB52D;stroke-width:6;stroke-miterlimit:10;}
	.st7{fill:none;stroke:#E74313;stroke-width:5;stroke-miterlimit:10;}
</style>
<rect x="72.5" y="522.7" class="st0" width="268.5" height="144"/>
<circle class="st1" cx="115.3" cy="620.3" r="9.3"/>
<circle class="st1" cx="196.7" cy="620.3" r="9.3"/>
<circle class="st2" cx="278" cy="620.3" r="9.3"/>
<line class="st0" x1="124.7" y1="620.3" x2="262.7" y2="620.3"/>
<path class="st1" d="M268.7,620.3c-3.1,1.1-6,2.7-8.5,4.8l1.7-4.8l-1.7-4.8C262.7,617.5,265.6,619.2,268.7,620.3z"/>
<text transform="matrix(1 0 0 1 104.41 596.55)" class="st1 st3 st4">C1</text>
<text transform="matrix(1 0 0 1 185.75 596.75)" class="st1 st3 st4">C2</text>
<text transform="matrix(1 0 0 1 259.89 596.55)" class="st2 st3 st4">C3.1</text>
<line class="st0" x1="342.9" y1="444.6" x2="441.2" y2="303.5"/>
<polygon class="st1" points="347.8,446.2 338.8,450.5 339.6,440.5 "/>
<polygon class="st1" points="444.5,307.6 445.4,297.6 436.3,301.9 "/>
<rect x="813.8" y="526.2" class="st0" width="268.5" height="144"/>
<circle class="st1" cx="856.7" cy="623.7" r="9.3"/>
<circle class="st1" cx="938" cy="623.7" r="9.3"/>
<ellipse transform="matrix(0.4641 -0.8858 0.8858 0.4641 -6.0939 1237.1318)" class="st5" cx="1019.3" cy="623.6" rx="9.3" ry="9.3"/>
<line class="st0" x1="866" y1="623.7" x2="1004" y2="623.7"/>
<path class="st1" d="M1010,623.7c-3.1,1.1-6,2.7-8.5,4.8l1.7-4.8l-1.7-4.7C1004.1,621,1007,622.6,1010,623.7z"/>
<text transform="matrix(1 0 0 1 845.75 600.04)" class="st1 st3 st4">C1</text>
<text transform="matrix(1 0 0 1 927.09 600.24)" class="st1 st3 st4">C2</text>
<text transform="matrix(1 0 0 1 1001.23 600.04)" class="st5 st3 st4">C3.2</text>
<rect x="443.2" y="67.7" class="st0" width="268.5" height="144"/>
<circle class="st1" cx="486" cy="165.2" r="9.3"/>
<circle class="st1" cx="567.3" cy="165.2" r="9.3"/>
<circle class="st2" cx="648.7" cy="165.2" r="9.3"/>
<line class="st0" x1="495.3" y1="165.2" x2="633.3" y2="165.2"/>
<path class="st1" d="M639.4,165.2c-3.1,1.1-6,2.7-8.5,4.8l1.7-4.8l-1.7-4.8C633.4,162.5,636.3,164.1,639.4,165.2z"/>
<text transform="matrix(1 0 0 1 475.08 141.52)" class="st1 st3 st4">C1</text>
<text transform="matrix(1 0 0 1 556.42 141.72)" class="st1 st3 st4">C2</text>
<text transform="matrix(1 0 0 1 630.56 141.52)" class="st1 st3 st4">C3.1</text>
<line class="st0" x1="811.9" y1="444.6" x2="713.6" y2="303.5"/>
<polygon class="st1" points="815.2,440.5 816,450.5 807,446.2 "/>
<polygon class="st1" points="718.5,301.9 709.5,297.6 710.3,307.6 "/>
<text transform="matrix(1 0 0 1 459.9821 242.8304)" class="st3 st4">kevinrue/OBDS_Month_YEAR</text>
<text transform="matrix(1 0 0 1 536.0821 266.8304)" class="st3 st4">(GitHub)</text>
<text transform="matrix(1 0 0 1 138.0415 700.7767)" class="st3 st4">Kevin’s laptop</text>
<text transform="matrix(1 0 0 1 886.5244 707.6697)" class="st3 st4">Kevin’s desktop</text>
<text transform="matrix(1 0 0 1 86.8394 549.2757)" class="st3 st4">main</text>
<text transform="matrix(1 0 0 1 457.9194 97.2171)" class="st3 st4">main</text>
<text transform="matrix(1 0 0 1 829.7986 555.6401)" class="st3 st4">main</text>
<path class="st6" d="M341,348.8c2.8-0.9,4.9,2.7,5.7,5.5c2,6.6,3.9,13.1,5.9,19.7c7.4-15.2,18.2-28.7,31.3-39.4"/>
<g>
	<path class="st7" d="M789.5,352.8c7.3,9.3,14.7,18.7,22,28"/>
	<path class="st7" d="M811.5,352.8c-7.3,9.3-14.7,18.7-22,28"/>
</g>
</svg>
