<svg id="Layer_1" data-name="Layer 1" xmlns="http://www.w3.org/2000/svg" viewBox="0 0 659.83 242.41"><defs><style>.cls-1,.cls-3,.cls-7{fill:#1d1d1b;}.cls-2,.cls-5,.cls-6{fill:none;stroke:#1d1d1b;stroke-miterlimit:10;}.cls-3{font-size:20px;}.cls-3,.cls-7{font-family:MyriadPro-Regular, Myriad Pro;}.cls-4{letter-spacing:-0.01em;}.cls-5{stroke-dasharray:6.12 6.12;}.cls-6{stroke-linecap:square;}.cls-7{font-size:12px;}.cls-8{letter-spacing:-0.01em;}</style></defs><circle class="cls-1" cx="59.42" cy="164.71" r="9.31"/><circle class="cls-1" cx="140.76" cy="164.71" r="9.31"/><line class="cls-2" x1="68.73" y1="164.71" x2="125.41" y2="164.71"/><path class="cls-1" d="M131.44,164.71a30.15,30.15,0,0,0-8.54,4.76l1.72-4.76L122.9,160A30.12,30.12,0,0,0,131.44,164.71Z"/><text class="cls-3" transform="translate(48.49 141.01)">C1</text><text class="cls-3" transform="translate(129.83 141.21)">C2</text><text class="cls-3" transform="translate(546.74 170.46)">mas<tspan class="cls-4" x="34.24" y="0">t</tspan><tspan x="40.74" y="0">er</tspan></text><circle class="cls-1" cx="299.63" cy="164.71" r="9.31"/><line class="cls-2" x1="150.07" y1="164.71" x2="284.29" y2="164.71"/><path class="cls-1" d="M290.32,164.71a30.34,30.34,0,0,0-8.55,4.76l1.72-4.76L281.77,160A30.31,30.31,0,0,0,290.32,164.71Z"/><text class="cls-3" transform="translate(290.32 141.41)">C3</text><circle class="cls-1" cx="385.67" cy="164.71" r="9.31"/><text class="cls-3" transform="translate(376.36 141.01)">C4</text><line class="cls-2" x1="308.95" y1="164.71" x2="370.04" y2="165.11"/><path class="cls-1" d="M376.07,165.15a30.35,30.35,0,0,0-8.58,4.7l1.75-4.74-1.68-4.77A30.11,30.11,0,0,0,376.07,165.15Z"/><line class="cls-2" x1="394.98" y1="164.49" x2="397.98" y2="164.51"/><line class="cls-5" x1="404.11" y1="164.55" x2="450.01" y2="164.85"/><line class="cls-2" x1="453.07" y1="164.87" x2="456.07" y2="164.89"/><path class="cls-1" d="M462.11,164.93a30.35,30.35,0,0,0-8.58,4.7l1.75-4.74-1.69-4.77A30.17,30.17,0,0,0,462.11,164.93Z"/><line class="cls-6" x1="59.42" y1="98.03" x2="299.34" y2="97.08"/><line class="cls-6" x1="59.42" y1="105.61" x2="59.42" y2="98.03"/><line class="cls-6" x1="299.49" y1="104.76" x2="299.49" y2="97.18"/><text class="cls-7" transform="translate(147.45 88.72)"><tspan class="cls-8">g</tspan><tspan x="6.64" y="0">it diff C1 C3</tspan></text><line class="cls-6" x1="385.67" y1="98.05" x2="460.37" y2="97.75"/><line class="cls-6" x1="385.67" y1="105.63" x2="385.67" y2="98.05"/><line class="cls-6" x1="460.53" y1="105.63" x2="460.53" y2="98.05"/><text class="cls-7" transform="translate(406.53 87.48)"><tspan class="cls-8">g</tspan><tspan x="6.64" y="0">it diff</tspan></text><line class="cls-6" x1="299.73" y1="54.36" x2="460.11" y2="53.73"/><line class="cls-6" x1="299.58" y1="62.09" x2="299.58" y2="54.51"/><line class="cls-6" x1="460.26" y1="61.6" x2="460.26" y2="54.02"/><text class="cls-7" transform="translate(340.6 44.71)"><tspan class="cls-8">g</tspan><tspan x="6.64" y="0">it diff C3</tspan></text></svg>