<?xml version="1.0" encoding="UTF-8"?>
<svg id="Layer_1" data-name="Layer 1" xmlns="http://www.w3.org/2000/svg" version="1.1" viewBox="0 0 841.9 438">
  <defs>
    <style>
      .cls-1, .cls-2, .cls-3, .cls-4, .cls-5, .cls-6, .cls-7 {
        stroke-miterlimit: 10;
      }

      .cls-1, .cls-2, .cls-6 {
        fill: #fff;
      }

      .cls-1, .cls-3, .cls-4 {
        stroke: #1d1d1b;
      }

      .cls-2, .cls-7 {
        stroke: #009640;
      }

      .cls-8 {
        stroke-width: 0px;
      }

      .cls-8, .cls-9 {
        fill: #1d1d1b;
      }

      .cls-3 {
        stroke-linecap: square;
      }

      .cls-3, .cls-4, .cls-5, .cls-7 {
        fill: none;
      }

      .cls-5, .cls-6 {
        stroke: #e30613;
      }

      .cls-9 {
        font-family: ArialMT, Arial;
        font-size: 12px;
        isolation: isolate;
      }
    </style>
  </defs>
  <line class="cls-3" x1="33.3" y1="101.3" x2="743.2" y2="101.3"/>
  <polygon class="cls-8" points="750.2 101.3 740.3 105.4 742.6 101.3 740.3 97.3 750.2 101.3"/>
  <line class="cls-3" x1="33.2" y1="101.3" x2="33.4" y2="92"/>
  <text class="cls-9" transform="translate(11.6 80.6)"><tspan x="0" y="0">Initialise</tspan></text>
  <line class="cls-3" x1="109.1" y1="101.3" x2="109.3" y2="92"/>
  <text class="cls-9" transform="translate(84.2 80.7)"><tspan x="0" y="0">Add file 1</tspan></text>
  <path class="cls-2" d="M98.5,118.1h21.3c3.9,0,7.1,3.2,7.1,7.1v33.7c0,3.9-3.2,7.1-7.1,7.1h-21.3c-3.9,0-7.1-3.2-7.1-7.1v-33.7c0-4,3.2-7.1,7.1-7.1Z"/>
  <line class="cls-7" x1="97.8" y1="126.5" x2="120.6" y2="126.5"/>
  <line class="cls-7" x1="97.8" y1="132.6" x2="120.6" y2="132.6"/>
  <path class="cls-1" d="M167.3,118.1h21.3c3.9,0,7.1,3.2,7.1,7.1v33.7c0,3.9-3.2,7.1-7.1,7.1h-21.3c-3.9,0-7.1-3.2-7.1-7.1v-33.7c0-4,3.2-7.1,7.1-7.1Z"/>
  <line class="cls-4" x1="166.5" y1="128.1" x2="189.4" y2="128.1"/>
  <line class="cls-4" x1="166.5" y1="134.2" x2="189.4" y2="134.2"/>
  <line class="cls-7" x1="166.5" y1="140.2" x2="189.4" y2="140.2"/>
  <line class="cls-7" x1="166.5" y1="146.2" x2="189.4" y2="146.2"/>
  <path class="cls-1" d="M245.5,119.6h21.4c3.9,0,7.1,3.2,7.1,7.1v33.7c0,3.9-3.2,7.1-7.1,7.1h-21.4c-3.9,0-7.1-3.2-7.1-7.1v-33.7c.1-4,3.2-7.1,7.1-7.1Z"/>
  <line class="cls-4" x1="244.8" y1="129.6" x2="267.6" y2="129.6"/>
  <line class="cls-4" x1="244.8" y1="135.7" x2="267.6" y2="135.7"/>
  <line class="cls-5" x1="244.8" y1="141.7" x2="267.6" y2="141.7"/>
  <line class="cls-5" x1="244.8" y1="147.7" x2="267.6" y2="147.7"/>
  <line class="cls-3" x1="177.8" y1="101.5" x2="178.1" y2="92.1"/>
  <text class="cls-9" transform="translate(153.3 80.9)"><tspan x="0" y="0">Add lines</tspan></text>
  <line class="cls-3" x1="256.1" y1="101.3" x2="256.3" y2="92"/>
  <text class="cls-9" transform="translate(219.9 80.7)"><tspan x="0" y="0">Remove lines</tspan></text>
  <line class="cls-3" x1="383.9" y1="101.3" x2="384.1" y2="92"/>
  <path class="cls-1" d="M372,119.6h21.4c3.9,0,7.1,3.2,7.1,7.1v33.7c0,3.9-3.2,7.1-7.1,7.1h-21.4c-3.9,0-7.1-3.2-7.1-7.1v-33.7c0-4,3.2-7.1,7.1-7.1Z"/>
  <line class="cls-4" x1="371.3" y1="129.6" x2="394.1" y2="129.6"/>
  <line class="cls-4" x1="371.3" y1="135.7" x2="394.1" y2="135.7"/>
  <path class="cls-2" d="M384.7,136.2h21.4c3.9,0,7.1,3.2,7.1,7.1v33.7c0,3.9-3.2,7.1-7.1,7.1h-21.4c-3.9,0-7.1-3.2-7.1-7.1v-33.7c0-3.9,3.2-7.1,7.1-7.1Z"/>
  <line class="cls-7" x1="384" y1="144.7" x2="406.8" y2="144.7"/>
  <line class="cls-7" x1="384" y1="150.7" x2="406.8" y2="150.7"/>
  <line class="cls-7" x1="384" y1="156.8" x2="406.8" y2="156.8"/>
  <line class="cls-3" x1="511" y1="100" x2="511.3" y2="90.7"/>
  <text class="cls-9" transform="translate(486.1 36.4)"><tspan x="0" y="0">Add file 3</tspan></text>
  <text class="cls-9" transform="translate(474.5 50.8)"><tspan x="0" y="0">Remove file 2</tspan></text>
  <text class="cls-9" transform="translate(484.5 65.2)"><tspan x="0" y="0">Add a line</tspan></text>
  <text class="cls-9" transform="translate(472.8 79.6)"><tspan x="0" y="0">Remove a line</tspan></text>
  <path class="cls-1" d="M492.5,122.1h21.4c3.9,0,7.1,3.2,7.1,7.1v33.7c0,3.9-3.2,7.1-7.1,7.1h-21.4c-3.9,0-7.1-3.2-7.1-7.1v-33.7c0-3.9,3.1-7.1,7.1-7.1Z"/>
  <line class="cls-5" x1="491.7" y1="132.2" x2="514.5" y2="132.2"/>
  <line class="cls-4" x1="491.7" y1="138.3" x2="514.5" y2="138.3"/>
  <line class="cls-7" x1="491.7" y1="144.3" x2="514.5" y2="144.3"/>
  <path class="cls-6" d="M505.2,138.8h21.3c3.9,0,7.1,3.2,7.1,7.1v33.7c0,3.9-3.2,7.1-7.1,7.1h-21.3c-3.9,0-7.1-3.2-7.1-7.1v-33.7c0-3.9,3.2-7.1,7.1-7.1Z"/>
  <line class="cls-5" x1="504.4" y1="147.3" x2="527.3" y2="147.3"/>
  <line class="cls-5" x1="504.4" y1="153.3" x2="527.3" y2="153.3"/>
  <line class="cls-5" x1="504.4" y1="159.4" x2="527.3" y2="159.4"/>
  <path class="cls-2" d="M516.6,153.3h21.3c3.9,0,7.1,3.2,7.1,7.1v33.7c0,3.9-3.2,7.1-7.1,7.1h-21.3c-3.9,0-7.1-3.2-7.1-7.1v-33.7c0-3.9,3.2-7.1,7.1-7.1Z"/>
  <line class="cls-7" x1="515.9" y1="161.8" x2="538.7" y2="161.8"/>
  <text class="cls-9" transform="translate(700.5 85.7)"><tspan x="0" y="0">History of changes</tspan></text>
  <line class="cls-3" x1="29" y1="309" x2="738.9" y2="309"/>
  <polygon class="cls-8" points="746 309 736 313.1 738.4 309 736 305 746 309"/>
  <line class="cls-3" x1="28.9" y1="309" x2="29.2" y2="299.7"/>
  <line class="cls-3" x1="104.8" y1="309" x2="105.1" y2="299.7"/>
  <path class="cls-1" d="M128.7,328.9h21.3c3.9,0,7.1,3.2,7.1,7.1v33.7c0,3.9-3.2,7.1-7.1,7.1h-21.3c-3.9,0-7.1-3.2-7.1-7.1v-33.7c0-3.9,3.2-7.1,7.1-7.1Z"/>
  <line class="cls-4" x1="127.9" y1="337.4" x2="150.8" y2="337.4"/>
  <line class="cls-4" x1="127.9" y1="343.4" x2="150.8" y2="343.4"/>
  <path class="cls-1" d="M202.2,328.9h21.3c3.9,0,7.1,3.2,7.1,7.1v33.7c0,3.9-3.2,7.1-7.1,7.1h-21.3c-3.9,0-7.1-3.2-7.1-7.1v-33.7c0-3.9,3.2-7.1,7.1-7.1Z"/>
  <line class="cls-4" x1="201.4" y1="339" x2="224.3" y2="339"/>
  <line class="cls-4" x1="201.4" y1="345" x2="224.3" y2="345"/>
  <line class="cls-4" x1="201.4" y1="351" x2="224.3" y2="351"/>
  <line class="cls-4" x1="201.4" y1="357.1" x2="224.3" y2="357.1"/>
  <path class="cls-1" d="M305.2,330.4h21.4c3.9,0,7.1,3.2,7.1,7.1v33.7c0,3.9-3.2,7.1-7.1,7.1h-21.4c-3.9,0-7.1-3.2-7.1-7.1v-33.7c0-3.9,3.2-7.1,7.1-7.1Z"/>
  <line class="cls-4" x1="304.5" y1="340.5" x2="327.3" y2="340.5"/>
  <line class="cls-4" x1="304.5" y1="346.5" x2="327.3" y2="346.5"/>
  <line class="cls-3" x1="173.6" y1="309.2" x2="173.9" y2="299.9"/>
  <line class="cls-3" x1="251.9" y1="309" x2="252.1" y2="299.7"/>
  <line class="cls-3" x1="379.6" y1="309" x2="379.9" y2="299.7"/>
  <path class="cls-1" d="M426.3,329.3h21.4c3.9,0,7.1,3.2,7.1,7.1v33.7c0,3.9-3.2,7.1-7.1,7.1h-21.4c-3.9,0-7.1-3.2-7.1-7.1v-33.7c0-3.9,3.2-7.1,7.1-7.1Z"/>
  <line class="cls-4" x1="425.5" y1="339.4" x2="448.4" y2="339.4"/>
  <line class="cls-4" x1="425.5" y1="345.4" x2="448.4" y2="345.4"/>
  <path class="cls-1" d="M439,346h21.4c3.9,0,7.1,3.2,7.1,7.1v33.7c0,3.9-3.2,7.1-7.1,7.1h-21.4c-3.9,0-7.1-3.2-7.1-7.1v-33.7c0-3.9,3.2-7.1,7.1-7.1Z"/>
  <line class="cls-4" x1="438.3" y1="354.5" x2="461.1" y2="354.5"/>
  <line class="cls-4" x1="438.3" y1="360.5" x2="461.1" y2="360.5"/>
  <line class="cls-4" x1="438.3" y1="366.5" x2="461.1" y2="366.5"/>
  <line class="cls-3" x1="506.8" y1="307.7" x2="507" y2="298.4"/>
  <path class="cls-1" d="M603.7,333.2h21.3c3.9,0,7.1,3.2,7.1,7.1v33.7c0,3.9-3.2,7.1-7.1,7.1h-21.3c-3.9,0-7.1-3.2-7.1-7.1v-33.7c0-4,3.2-7.1,7.1-7.1Z"/>
  <line class="cls-4" x1="603" y1="343.2" x2="625.8" y2="343.2"/>
  <line class="cls-4" x1="603" y1="349.3" x2="625.8" y2="349.3"/>
  <path class="cls-1" d="M627.9,364.4h21.3c3.9,0,7.1,3.2,7.1,7.1v33.7c0,3.9-3.2,7.1-7.1,7.1h-21.3c-3.9,0-7.1-3.2-7.1-7.1v-33.7c0-4,3.1-7.1,7.1-7.1Z"/>
  <line class="cls-4" x1="627.1" y1="372.8" x2="649.9" y2="372.8"/>
  <text class="cls-9" transform="translate(585.5 293.4)"><tspan x="0" y="0">How the files look on disk after those changes</tspan></text>
  <text class="cls-9" transform="translate(364.9 81)"><tspan x="0" y="0">Add file 2</tspan></text>
  <text class="cls-9" transform="translate(11.4 291.2)"><tspan x="0" y="0">Initialise</tspan></text>
  <text class="cls-9" transform="translate(83.9 291.3)"><tspan x="0" y="0">Add file 1</tspan></text>
  <text class="cls-9" transform="translate(153 291.5)"><tspan x="0" y="0">Add lines</tspan></text>
  <text class="cls-9" transform="translate(219.6 291.3)"><tspan x="0" y="0">Remove lines</tspan></text>
  <text class="cls-9" transform="translate(485.9 247)"><tspan x="0" y="0">Add file 3</tspan></text>
  <text class="cls-9" transform="translate(474.2 261.4)"><tspan x="0" y="0">Remove file 2</tspan></text>
  <text class="cls-9" transform="translate(484.2 275.8)"><tspan x="0" y="0">Add a line</tspan></text>
  <text class="cls-9" transform="translate(472.5 290.2)"><tspan x="0" y="0">Remove a line</tspan></text>
  <text class="cls-9" transform="translate(364.7 291.6)"><tspan x="0" y="0">Add file 2</tspan></text>
</svg>