<?xml version="1.0" encoding="utf-8"?>
<!-- Generator: Adobe Illustrator 26.0.3, SVG Export Plug-In . SVG Version: 6.00 Build 0)  -->
<svg version="1.1" id="Layer_1" xmlns="http://www.w3.org/2000/svg" xmlns:xlink="http://www.w3.org/1999/xlink" x="0px" y="0px"
	 viewBox="0 0 841.9 438" style="enable-background:new 0 0 841.9 438;" xml:space="preserve">
<style type="text/css">
	.st0{fill:none;stroke:#1D1D1B;stroke-linecap:square;stroke-miterlimit:10;}
	.st1{fill:#1D1D1B;}
	.st2{font-family:'ArialMT';}
	.st3{font-size:12px;}
	.st4{fill:#FFFFFF;stroke:#009640;stroke-miterlimit:10;}
	.st5{fill:none;stroke:#009640;stroke-miterlimit:10;}
	.st6{fill:#FFFFFF;stroke:#1D1D1B;stroke-miterlimit:10;}
	.st7{fill:none;stroke:#1D1D1B;stroke-miterlimit:10;}
	.st8{fill:none;stroke:#E30613;stroke-miterlimit:10;}
	.st9{fill:#FFFFFF;stroke:#E30613;stroke-miterlimit:10;}
</style>
<line class="st0" x1="33.3" y1="101.3" x2="743.2" y2="101.3"/>
<polygon class="st1" points="750.2,101.3 740.3,105.4 742.6,101.3 740.3,97.3 "/>
<line class="st0" x1="33.2" y1="101.3" x2="33.4" y2="92"/>
<text transform="matrix(1 0 0 1 11.6 80.5944)" class="st1 st2 st3">Initialise</text>
<line class="st0" x1="109.1" y1="101.3" x2="109.3" y2="92"/>
<text transform="matrix(1 0 0 1 84.18 80.7244)" class="st1 st2 st3">Add a file</text>
<path class="st4" d="M98.5,118.1h21.3c3.9,0,7.1,3.2,7.1,7.1v33.7c0,3.9-3.2,7.1-7.1,7.1H98.5c-3.9,0-7.1-3.2-7.1-7.1v-33.7
	C91.4,121.2,94.6,118.1,98.5,118.1z"/>
<line class="st5" x1="97.8" y1="126.5" x2="120.6" y2="126.5"/>
<line class="st5" x1="97.8" y1="132.6" x2="120.6" y2="132.6"/>
<path class="st6" d="M167.3,118.1h21.3c3.9,0,7.1,3.2,7.1,7.1v33.7c0,3.9-3.2,7.1-7.1,7.1h-21.3c-3.9,0-7.1-3.2-7.1-7.1v-33.7
	C160.2,121.2,163.4,118.1,167.3,118.1z"/>
<line class="st7" x1="166.5" y1="128.1" x2="189.4" y2="128.1"/>
<line class="st7" x1="166.5" y1="134.2" x2="189.4" y2="134.2"/>
<line class="st5" x1="166.5" y1="140.2" x2="189.4" y2="140.2"/>
<line class="st5" x1="166.5" y1="146.2" x2="189.4" y2="146.2"/>
<path class="st6" d="M245.5,119.6h21.4c3.9,0,7.1,3.2,7.1,7.1v33.7c0,3.9-3.2,7.1-7.1,7.1h-21.4c-3.9,0-7.1-3.2-7.1-7.1v-33.7
	C238.5,122.7,241.6,119.6,245.5,119.6z"/>
<line class="st7" x1="244.8" y1="129.6" x2="267.6" y2="129.6"/>
<line class="st7" x1="244.8" y1="135.7" x2="267.6" y2="135.7"/>
<line class="st8" x1="244.8" y1="141.7" x2="267.6" y2="141.7"/>
<line class="st8" x1="244.8" y1="147.7" x2="267.6" y2="147.7"/>
<line class="st0" x1="177.8" y1="101.5" x2="178.1" y2="92.1"/>
<text transform="matrix(1 0 0 1 153.27 80.8544)" class="st1 st2 st3">Add lines</text>
<line class="st0" x1="256.1" y1="101.3" x2="256.3" y2="92"/>
<text transform="matrix(1 0 0 1 219.86 80.7244)" class="st1 st2 st3">Remove lines</text>
<line class="st0" x1="383.9" y1="101.3" x2="384.1" y2="92"/>
<text transform="matrix(1 0 0 1 373.31 66.8844)" class="st1 st2 st3">Add</text>
<text transform="matrix(1 0 0 1 354.3 81.2844)" class="st1 st2 st3">another file</text>
<path class="st6" d="M372,119.6h21.4c3.9,0,7.1,3.2,7.1,7.1v33.7c0,3.9-3.2,7.1-7.1,7.1H372c-3.9,0-7.1-3.2-7.1-7.1v-33.7
	C364.9,122.7,368.1,119.6,372,119.6z"/>
<line class="st7" x1="371.3" y1="129.6" x2="394.1" y2="129.6"/>
<line class="st7" x1="371.3" y1="135.7" x2="394.1" y2="135.7"/>
<path class="st4" d="M384.7,136.2h21.4c3.9,0,7.1,3.2,7.1,7.1V177c0,3.9-3.2,7.1-7.1,7.1h-21.4c-3.9,0-7.1-3.2-7.1-7.1v-33.7
	C377.6,139.4,380.8,136.2,384.7,136.2z"/>
<line class="st5" x1="384" y1="144.7" x2="406.8" y2="144.7"/>
<line class="st5" x1="384" y1="150.7" x2="406.8" y2="150.7"/>
<line class="st5" x1="384" y1="156.8" x2="406.8" y2="156.8"/>
<line class="st0" x1="511" y1="100" x2="511.3" y2="90.7"/>
<text transform="matrix(1 0 0 1 486.13 36.3745)" class="st1 st2 st3">Add a file</text>
<text transform="matrix(1 0 0 1 474.46 50.7744)" class="st1 st2 st3">Remove a file</text>
<text transform="matrix(1 0 0 1 484.46 65.1744)" class="st1 st2 st3">Add a line</text>
<text transform="matrix(1 0 0 1 472.79 79.5744)" class="st1 st2 st3">Remove a line</text>
<path class="st6" d="M492.5,122.1h21.4c3.9,0,7.1,3.2,7.1,7.1v33.7c0,3.9-3.2,7.1-7.1,7.1h-21.4c-3.9,0-7.1-3.2-7.1-7.1v-33.7
	C485.4,125.3,488.5,122.1,492.5,122.1z"/>
<line class="st8" x1="491.7" y1="132.2" x2="514.5" y2="132.2"/>
<line class="st7" x1="491.7" y1="138.3" x2="514.5" y2="138.3"/>
<line class="st5" x1="491.7" y1="144.3" x2="514.5" y2="144.3"/>
<path class="st9" d="M505.2,138.8h21.3c3.9,0,7.1,3.2,7.1,7.1v33.7c0,3.9-3.2,7.1-7.1,7.1h-21.3c-3.9,0-7.1-3.2-7.1-7.1v-33.7
	C498.1,142,501.3,138.8,505.2,138.8z"/>
<line class="st8" x1="504.4" y1="147.3" x2="527.3" y2="147.3"/>
<line class="st8" x1="504.4" y1="153.3" x2="527.3" y2="153.3"/>
<line class="st8" x1="504.4" y1="159.4" x2="527.3" y2="159.4"/>
<path class="st4" d="M516.6,153.3h21.3c3.9,0,7.1,3.2,7.1,7.1v33.7c0,3.9-3.2,7.1-7.1,7.1h-21.3c-3.9,0-7.1-3.2-7.1-7.1v-33.7
	C509.5,156.5,512.7,153.3,516.6,153.3z"/>
<line class="st5" x1="515.9" y1="161.8" x2="538.7" y2="161.8"/>
<text transform="matrix(1 0 0 1 700.53 85.7144)" class="st1 st2 st3">History of changes</text>
<line class="st0" x1="29" y1="309" x2="738.9" y2="309"/>
<polygon class="st1" points="746,309 736,313.1 738.4,309 736,305 "/>
<line class="st0" x1="28.9" y1="309" x2="29.2" y2="299.7"/>
<text transform="matrix(1 0 0 1 7.36 288.3244)" class="st1 st2 st3">Initialise</text>
<line class="st0" x1="104.8" y1="309" x2="105.1" y2="299.7"/>
<text transform="matrix(1 0 0 1 79.95 288.4544)" class="st1 st2 st3">Add a file</text>
<path class="st6" d="M128.7,328.9H150c3.9,0,7.1,3.2,7.1,7.1v33.7c0,3.9-3.2,7.1-7.1,7.1h-21.3c-3.9,0-7.1-3.2-7.1-7.1V336
	C121.6,332.1,124.8,328.9,128.7,328.9z"/>
<line class="st7" x1="127.9" y1="337.4" x2="150.8" y2="337.4"/>
<line class="st7" x1="127.9" y1="343.4" x2="150.8" y2="343.4"/>
<path class="st6" d="M202.2,328.9h21.3c3.9,0,7.1,3.2,7.1,7.1v33.7c0,3.9-3.2,7.1-7.1,7.1h-21.3c-3.9,0-7.1-3.2-7.1-7.1V336
	C195.1,332.1,198.3,328.9,202.2,328.9z"/>
<line class="st7" x1="201.4" y1="339" x2="224.3" y2="339"/>
<line class="st7" x1="201.4" y1="345" x2="224.3" y2="345"/>
<line class="st7" x1="201.4" y1="351" x2="224.3" y2="351"/>
<line class="st7" x1="201.4" y1="357.1" x2="224.3" y2="357.1"/>
<path class="st6" d="M305.2,330.4h21.4c3.9,0,7.1,3.2,7.1,7.1v33.7c0,3.9-3.2,7.1-7.1,7.1h-21.4c-3.9,0-7.1-3.2-7.1-7.1v-33.7
	C298.1,333.6,301.3,330.4,305.2,330.4z"/>
<line class="st7" x1="304.5" y1="340.5" x2="327.3" y2="340.5"/>
<line class="st7" x1="304.5" y1="346.5" x2="327.3" y2="346.5"/>
<line class="st0" x1="173.6" y1="309.2" x2="173.9" y2="299.9"/>
<text transform="matrix(1 0 0 1 149.04 288.5844)" class="st1 st2 st3">Add lines</text>
<line class="st0" x1="251.9" y1="309" x2="252.1" y2="299.7"/>
<text transform="matrix(1 0 0 1 215.63 288.4544)" class="st1 st2 st3">Remove lines</text>
<line class="st0" x1="379.6" y1="309" x2="379.9" y2="299.7"/>
<text transform="matrix(1 0 0 1 369.07 274.6044)" class="st1 st2 st3">Add</text>
<text transform="matrix(1 0 0 1 350.06 289.0044)" class="st1 st2 st3">another file</text>
<path class="st6" d="M426.3,329.3h21.4c3.9,0,7.1,3.2,7.1,7.1v33.7c0,3.9-3.2,7.1-7.1,7.1h-21.4c-3.9,0-7.1-3.2-7.1-7.1v-33.7
	C419.2,332.5,422.4,329.3,426.3,329.3z"/>
<line class="st7" x1="425.5" y1="339.4" x2="448.4" y2="339.4"/>
<line class="st7" x1="425.5" y1="345.4" x2="448.4" y2="345.4"/>
<path class="st6" d="M439,346h21.4c3.9,0,7.1,3.2,7.1,7.1v33.7c0,3.9-3.2,7.1-7.1,7.1H439c-3.9,0-7.1-3.2-7.1-7.1v-33.7
	C431.9,349.2,435.1,346,439,346z"/>
<line class="st7" x1="438.3" y1="354.5" x2="461.1" y2="354.5"/>
<line class="st7" x1="438.3" y1="360.5" x2="461.1" y2="360.5"/>
<line class="st7" x1="438.3" y1="366.5" x2="461.1" y2="366.5"/>
<line class="st0" x1="506.8" y1="307.7" x2="507" y2="298.4"/>
<text transform="matrix(1 0 0 1 481.9 244.1044)" class="st1 st2 st3">Add a file</text>
<text transform="matrix(1 0 0 1 470.23 258.5044)" class="st1 st2 st3">Remove a file</text>
<text transform="matrix(1 0 0 1 480.23 272.9044)" class="st1 st2 st3">Add a line</text>
<text transform="matrix(1 0 0 1 468.56 287.3044)" class="st1 st2 st3">Remove a line</text>
<path class="st6" d="M603.7,333.2h21.3c3.9,0,7.1,3.2,7.1,7.1v33.7c0,3.9-3.2,7.1-7.1,7.1h-21.3c-3.9,0-7.1-3.2-7.1-7.1v-33.7
	C596.6,336.3,599.8,333.2,603.7,333.2z"/>
<line class="st7" x1="603" y1="343.2" x2="625.8" y2="343.2"/>
<line class="st7" x1="603" y1="349.3" x2="625.8" y2="349.3"/>
<path class="st6" d="M627.9,364.4h21.3c3.9,0,7.1,3.2,7.1,7.1v33.7c0,3.9-3.2,7.1-7.1,7.1h-21.3c-3.9,0-7.1-3.2-7.1-7.1v-33.7
	C620.8,367.5,623.9,364.4,627.9,364.4z"/>
<line class="st7" x1="627.1" y1="372.8" x2="649.9" y2="372.8"/>
<text transform="matrix(1 0 0 1 609.01 293.4344)" class="st1 st2 st3">How the files look like after those changes</text>
</svg>
