<?xml version="1.0" encoding="utf-8"?>
<!-- Generator: Adobe Illustrator 26.0.3, SVG Export Plug-In . SVG Version: 6.00 Build 0)  -->
<svg version="1.1" id="Layer_1" xmlns="http://www.w3.org/2000/svg" xmlns:xlink="http://www.w3.org/1999/xlink" x="0px" y="0px"
	 viewBox="0 0 549.9 162.2" style="enable-background:new 0 0 549.9 162.2;" xml:space="preserve">
<style type="text/css">
	.st0{fill:#1D1D1B;}
	.st1{fill:none;stroke:#1D1D1B;stroke-miterlimit:10;}
	.st2{font-family:'ArialMT';}
	.st3{font-size:20px;}
	.st4{font-size:14px;}
	.st5{fill:#D04544;}
</style>
<circle class="st0" cx="38.1" cy="56.5" r="9.3"/>
<circle class="st0" cx="119.4" cy="56.5" r="9.3"/>
<line class="st1" x1="47.4" y1="56.5" x2="104.1" y2="56.5"/>
<path class="st0" d="M110.1,56.5c-3.1,1.1-6,2.7-8.6,4.8l1.7-4.8l-1.7-4.8C104.1,53.8,107,55.4,110.1,56.5z"/>
<text transform="matrix(1 0 0 1 27.1867 32.778)" class="st0 st2 st3">C1</text>
<text transform="matrix(1 0 0 1 108.5267 32.978)" class="st0 st2 st3">C2</text>
<circle class="st0" cx="205.2" cy="106.6" r="9.3"/>
<g>
	<g>
		<line class="st1" x1="119.4" y1="57.3" x2="192.1" y2="98.8"/>
		<g>
			<polygon class="st0" points="187.8,100.6 191,98.2 191.5,94.2 197.3,101.8 			"/>
		</g>
	</g>
</g>
<text transform="matrix(1 0 0 1 56.1261 75.2478)" class="st0 st2 st4">commit</text>
<text transform="matrix(1 0 0 1 439.3698 52.5703)" class="st2 st4">main branch</text>
<circle class="st0" cx="286.5" cy="104.6" r="9.3"/>
<line class="st1" x1="214.5" y1="104.6" x2="271.2" y2="104.6"/>
<path class="st0" d="M277.2,104.6c-3.1,1.1-6,2.7-8.6,4.8l1.7-4.8l-1.7-4.8C271.2,101.9,274.1,103.5,277.2,104.6z"/>
<text transform="matrix(1 0 0 1 261.6053 150.4958)" class="st0 st2 st3">C3.2</text>
<text transform="matrix(1 0 0 1 178.1285 87.982)" class="st0 st2 st4">commit</text>
<text transform="matrix(1 0 0 1 183.8392 150.4962)" class="st0 st2 st3">C3.1</text>
<circle class="st5" cx="373" cy="56.3" r="9.3"/>
<text transform="matrix(1 3.524545e-03 -3.524545e-03 1 362.1969 32.7329)" class="st0 st2 st3">C3</text>
<g>
	<g>
		<line class="st1" x1="286.5" y1="104.6" x2="359.2" y2="63.1"/>
		<g>
			<polygon class="st0" points="358.6,67.7 358.1,63.7 354.9,61.3 364.4,60.1 			"/>
		</g>
	</g>
</g>
<g>
	<g>
		<line class="st1" x1="128.7" y1="56.3" x2="357.7" y2="56.3"/>
		<g>
			<polygon class="st0" points="354.9,60 356.5,56.3 354.9,52.6 363.7,56.3 			"/>
		</g>
	</g>
</g>
<text transform="matrix(1 0 0 1 305.0564 69.1064)" class="st0 st2 st4">merge</text>
<text transform="matrix(1 0 0 1 153.5619 72.0457)" class="st0 st2 st4">branch</text>
<text transform="matrix(1 0 0 1 220.0862 121.3344)" class="st0 st2 st4">commit</text>
</svg>
