<?xml version="1.0" encoding="utf-8"?>
<!-- Generator: Adobe Illustrator 26.0.3, SVG Export Plug-In . SVG Version: 6.00 Build 0)  -->
<svg version="1.1" id="Layer_1" xmlns="http://www.w3.org/2000/svg" xmlns:xlink="http://www.w3.org/1999/xlink" x="0px" y="0px"
	 viewBox="0 0 183.4 160.1" style="enable-background:new 0 0 183.4 160.1;" xml:space="preserve">
<style type="text/css">
	.st0{fill:#1D1D1B;}
	.st1{fill:#0000FF;}
	.st2{fill:none;stroke:#1D1D1B;stroke-miterlimit:10;}
	.st3{fill:none;stroke:#1D1D1B;stroke-miterlimit:10;stroke-dasharray:3.1588,3.1588;}
	.st4{font-family:'ArialMT';}
	.st5{font-size:20px;}
	.st6{fill:none;stroke:#0000FF;stroke-miterlimit:10;}
</style>
<circle class="st0" cx="47" cy="54.3" r="9.3"/>
<circle class="st1" cx="128.4" cy="54.3" r="9.3"/>
<g>
	<g>
		<line class="st2" x1="56.3" y1="54.3" x2="57.8" y2="54.3"/>
		<line class="st3" x1="61" y1="54.3" x2="110" y2="54.3"/>
		<line class="st2" x1="111.5" y1="54.3" x2="113" y2="54.3"/>
	</g>
</g>
<path class="st0" d="M119.1,54.3c-3.1,1.1-6,2.7-8.5,4.8l1.7-4.8l-1.7-4.8C113.1,51.6,116,53.2,119.1,54.3z"/>
<text transform="matrix(1 0 0 1 36.1373 30.5425)" class="st0 st4 st5">C1</text>
<path class="st6" d="M137,140.5h-17.3c-6.4,0-11.7-5.2-11.7-11.7V97.2c0-6.4,5.2-11.7,11.7-11.7H137c6.4,0,11.7,5.2,11.7,11.7v31.6
	C148.7,135.2,143.5,140.5,137,140.5z"/>
<line class="st6" x1="116.6" y1="99.7" x2="139.5" y2="99.7"/>
<line class="st6" x1="116.6" y1="107.3" x2="139.5" y2="107.3"/>
</svg>
