<?xml version="1.0" encoding="utf-8"?>
<!-- Generator: Adobe Illustrator 28.1.0, SVG Export Plug-In . SVG Version: 6.00 Build 0)  -->
<svg version="1.1" id="Layer_1" xmlns="http://www.w3.org/2000/svg" xmlns:xlink="http://www.w3.org/1999/xlink" x="0px" y="0px"
	 viewBox="0 0 1203.4 595.3" style="enable-background:new 0 0 1203.4 595.3;" xml:space="preserve">
<style type="text/css">
	.st0{fill:none;stroke:#1D1D1B;stroke-miterlimit:10;}
	.st1{fill:#1D1D1B;}
	.st2{fill:#0000FF;}
	.st3{font-family:'ArialMT';}
	.st4{font-size:20px;}
	.st5{fill:#FF0000;}
	.st6{fill:none;stroke:#0000FF;stroke-miterlimit:10;}
	.st7{fill:none;stroke:#FF0000;stroke-miterlimit:10;}
	.st8{fill:none;stroke:#000000;stroke-miterlimit:10;}
	.st9{font-family:'Courier';}
	.st10{font-size:16px;}
	.st11{fill:none;stroke:#1D1D1B;stroke-miterlimit:10;stroke-dasharray:3.1588,3.1588;}
</style>
<g>
	<rect x="455.7" y="26.7" class="st0" width="277.6" height="220"/>
	<circle class="st1" cx="501.4" cy="128.3" r="9.3"/>
	<circle class="st2" cx="582.7" cy="128.3" r="9.3"/>
	<line class="st0" x1="510.7" y1="128.3" x2="567.4" y2="128.3"/>
	<path class="st1" d="M573.4,128.3c-3.1,1.1-6,2.7-8.5,4.8l1.7-4.8l-1.7-4.8C567.5,125.6,570.3,127.2,573.4,128.3z"/>
	<text transform="matrix(1 0 0 1 490.4606 104.5935)" class="st1 st3 st4">C1</text>
	<text transform="matrix(1 0 0 1 571.8006 104.7935)" class="st1 st3 st4">C2</text>
	<circle class="st5" cx="664.1" cy="128.4" r="9.3"/>
	<line class="st0" x1="592" y1="128.4" x2="648.7" y2="128.4"/>
	<path class="st1" d="M654.8,128.4c-3.1,1.1-6,2.7-8.5,4.8l1.7-4.8l-1.7-4.8C648.8,125.7,651.7,127.3,654.8,128.4z"/>
	<text transform="matrix(1 0 0 1 653.1406 104.9237)" class="st5 st3 st4">C3</text>
	<path class="st6" d="M591.4,214.5h-17.3c-6.4,0-11.7-5.2-11.7-11.7v-31.6c0-6.4,5.2-11.7,11.7-11.7h17.3c6.4,0,11.7,5.2,11.7,11.7
		v31.6C603.1,209.2,597.8,214.5,591.4,214.5z"/>
	<line class="st6" x1="570.9" y1="173.7" x2="593.8" y2="173.7"/>
	<line class="st6" x1="570.9" y1="181.3" x2="593.8" y2="181.3"/>
	<path class="st7" d="M671.3,214.9H654c-6.4,0-11.7-5.2-11.7-11.7v-31.6c0-6.4,5.2-11.7,11.7-11.7h17.3c6.4,0,11.7,5.2,11.7,11.7
		v31.6C683,209.7,677.8,214.9,671.3,214.9z"/>
	<line class="st7" x1="650.9" y1="174.2" x2="673.7" y2="174.2"/>
	<line class="st7" x1="650.9" y1="181.8" x2="673.7" y2="181.8"/>
	<path class="st8" d="M510.1,214.9h-17.3c-6.4,0-11.7-5.2-11.7-11.7v-31.6c0-6.4,5.2-11.7,11.7-11.7h17.3c6.4,0,11.7,5.2,11.7,11.7
		v31.6C521.7,209.7,516.5,214.9,510.1,214.9z"/>
	<line class="st8" x1="489.6" y1="174.2" x2="512.5" y2="174.2"/>
	<line class="st8" x1="489.6" y1="181.8" x2="512.5" y2="181.8"/>
</g>
<g>
	<rect x="129.4" y="318.3" class="st0" width="277.6" height="220"/>
	<circle class="st1" cx="175.1" cy="419.9" r="9.3"/>
	<circle class="st2" cx="256.4" cy="419.9" r="9.3"/>
	<line class="st0" x1="184.4" y1="419.9" x2="241.1" y2="419.9"/>
	<path class="st1" d="M247.1,419.9c-3.1,1.1-6,2.7-8.5,4.8l1.7-4.8l-1.7-4.8C241.2,417.2,244,418.8,247.1,419.9z"/>
	<text transform="matrix(1 0 0 1 164.1667 396.161)" class="st1 st3 st4">C1</text>
	<text transform="matrix(1 0 0 1 245.5067 396.361)" class="st1 st3 st4">C2</text>
	<path class="st6" d="M265.1,506h-17.3c-6.4,0-11.7-5.2-11.7-11.7v-31.6c0-6.4,5.2-11.7,11.7-11.7h17.3c6.4,0,11.7,5.2,11.7,11.7
		v31.6C276.8,500.8,271.5,506,265.1,506z"/>
	<line class="st6" x1="244.6" y1="465.3" x2="267.5" y2="465.3"/>
	<line class="st6" x1="244.6" y1="472.9" x2="267.5" y2="472.9"/>
	<path class="st8" d="M183.8,506.5h-17.3c-6.4,0-11.7-5.2-11.7-11.7v-31.6c0-6.4,5.2-11.7,11.7-11.7h17.3c6.4,0,11.7,5.2,11.7,11.7
		v31.6C195.4,501.3,190.2,506.5,183.8,506.5z"/>
	<line class="st8" x1="163.3" y1="465.7" x2="186.2" y2="465.7"/>
	<line class="st8" x1="163.3" y1="473.3" x2="186.2" y2="473.3"/>
</g>
<text transform="matrix(1 0 0 1 149.1407 262.7121)" class="st9 st4">git reset --hard C2</text>
<text transform="matrix(1 0 0 1 96.179 567.4963)" class="st3 st10">Delete C3 AND reset the files to their state at C2</text>
<g>
	<rect x="798.3" y="317.8" class="st0" width="277.6" height="220"/>
	<circle class="st1" cx="843.9" cy="419.4" r="9.3"/>
	<circle class="st2" cx="925.3" cy="419.4" r="9.3"/>
	<line class="st0" x1="853.2" y1="419.4" x2="909.9" y2="419.4"/>
	<path class="st1" d="M916,419.4c-3.1,1.1-6,2.7-8.5,4.8l1.7-4.8l-1.7-4.8C910,416.7,912.9,418.3,916,419.4z"/>
	<text transform="matrix(1 0 0 1 833.001 395.6923)" class="st1 st3 st4">C1</text>
	<text transform="matrix(1 0 0 1 914.341 395.8922)" class="st1 st3 st4">C2</text>
	<path class="st6" d="M933.9,505.6h-17.3c-6.4,0-11.7-5.2-11.7-11.7v-31.6c0-6.4,5.2-11.7,11.7-11.7h17.3c6.4,0,11.7,5.2,11.7,11.7
		v31.6C945.6,500.3,940.4,505.6,933.9,505.6z"/>
	<line class="st6" x1="913.5" y1="464.8" x2="936.4" y2="464.8"/>
	<line class="st6" x1="913.5" y1="472.4" x2="936.4" y2="472.4"/>
	<path class="st7" d="M1013.9,506h-17.3c-6.4,0-11.7-5.2-11.7-11.7v-31.6c0-6.4,5.2-11.7,11.7-11.7h17.3c6.4,0,11.7,5.2,11.7,11.7
		v31.6C1025.5,500.8,1020.3,506,1013.9,506z"/>
	<line class="st7" x1="993.4" y1="465.3" x2="1016.3" y2="465.3"/>
	<line class="st7" x1="993.4" y1="472.9" x2="1016.3" y2="472.9"/>
	<path class="st8" d="M852.6,506h-17.3c-6.4,0-11.7-5.2-11.7-11.7v-31.6c0-6.4,5.2-11.7,11.7-11.7h17.3c6.4,0,11.7,5.2,11.7,11.7
		v31.6C864.3,500.8,859,506,852.6,506z"/>
	<line class="st8" x1="832.1" y1="465.3" x2="855" y2="465.3"/>
	<line class="st8" x1="832.1" y1="472.9" x2="855" y2="472.9"/>
</g>
<text transform="matrix(1 0 0 1 832.1366 262.7121)" class="st9 st4">git reset --soft C2</text>
<text transform="matrix(1 0 0 1 761.0092 573.0445)" class="st3 st10">Delete C3 BUT keep the files in their current state</text>
<g>
	<g>
		<line class="st8" x1="439" y1="222.2" x2="357.2" y2="299.2"/>
		<g>
			<polygon points="356.7,294.5 358.1,298.3 361.8,299.9 352.9,303.3 			"/>
		</g>
	</g>
</g>
<g>
	<g>
		<line class="st8" x1="761.5" y1="222.2" x2="843.4" y2="299.2"/>
		<g>
			<polygon points="838.8,299.9 842.5,298.3 843.9,294.5 847.7,303.3 			"/>
		</g>
	</g>
</g>
<circle class="st5" cx="1006.7" cy="419.5" r="9.3"/>
<g>
	<g>
		<line class="st0" x1="934.6" y1="419.5" x2="936.1" y2="419.5"/>
		<line class="st11" x1="939.3" y1="419.5" x2="988.2" y2="419.5"/>
		<line class="st0" x1="989.8" y1="419.5" x2="991.3" y2="419.5"/>
	</g>
</g>
<path class="st1" d="M997.4,419.5c-3.1,1.1-6,2.7-8.5,4.8l1.7-4.8l-1.7-4.8C991.4,416.8,994.3,418.4,997.4,419.5z"/>
</svg>
