<?xml version="1.0" encoding="utf-8"?>
<!-- Generator: Adobe Illustrator 28.1.0, SVG Export Plug-In . SVG Version: 6.00 Build 0)  -->
<svg version="1.1" id="Layer_1" xmlns="http://www.w3.org/2000/svg" xmlns:xlink="http://www.w3.org/1999/xlink" x="0px" y="0px"
	 viewBox="0 0 659.8 422" style="enable-background:new 0 0 659.8 422;" xml:space="preserve">
<style type="text/css">
	.st0{fill:#1D1D1B;}
	.st1{fill:#E41D14;}
	.st2{font-family:'ArialMT';}
	.st3{font-size:20px;}
	.st4{fill:none;stroke:#1D1D1B;stroke-miterlimit:10;}
	.st5{font-family:'Courier';}
	.st6{font-size:16px;}
	.st7{fill:none;stroke:#FF0000;stroke-miterlimit:10;}
	.st8{fill:#FF0000;}
	.st9{fill:none;stroke:#000000;stroke-miterlimit:10;}
</style>
<circle class="st0" cx="87" cy="153.3" r="9.3"/>
<circle class="st1" cx="168.4" cy="153.3" r="9.3"/>
<text transform="matrix(1 0 0 1 76.1097 129.6157)" class="st0 st2 st3">C1</text>
<text transform="matrix(1 0 0 1 157.4498 129.8157)" class="st1 st2 st3">C2</text>
<rect x="28" y="64.3" class="st4" width="350" height="132"/>
<text transform="matrix(1 0 0 1 446.9214 135.8811)" class="st2 st3">Teaching cluster</text>
<circle class="st0" cx="87" cy="356.8" r="9.3"/>
<text transform="matrix(1 0 0 1 76.1097 333.0553)" class="st0 st2 st3">C1</text>
<rect x="28" y="267.7" class="st4" width="350" height="132"/>
<text transform="matrix(1 0 0 1 489.3071 339.3207)" class="st2 st3">GitHub</text>
<text transform="matrix(1 0 0 1 153.9333 236.8944)" class="st5 st6">git push</text>
<g>
	<g>
		<line class="st7" x1="96.3" y1="153.3" x2="153.1" y2="153.3"/>
		<g>
			<polygon class="st8" points="150.3,157 151.9,153.3 150.3,149.6 159.1,153.3 			"/>
		</g>
	</g>
</g>
<g>
	<g>
		<line class="st9" x1="132.6" y1="211" x2="132.6" y2="243.2"/>
		<g>
			<polygon points="128.9,240.4 132.6,242 136.3,240.4 132.6,249.2 			"/>
		</g>
	</g>
</g>
</svg>
