<?xml version="1.0" encoding="utf-8"?>
<!-- Generator: Adobe Illustrator 26.0.3, SVG Export Plug-In . SVG Version: 6.00 Build 0)  -->
<svg version="1.1" id="Layer_1" xmlns="http://www.w3.org/2000/svg" xmlns:xlink="http://www.w3.org/1999/xlink" x="0px" y="0px"
	 viewBox="0 0 488.2 162.2" style="enable-background:new 0 0 488.2 162.2;" xml:space="preserve">
<style type="text/css">
	.st0{fill:#1D1D1B;}
	.st1{fill:none;stroke:#1D1D1B;stroke-miterlimit:10;}
	.st2{font-family:'ArialMT';}
	.st3{font-size:20px;}
	.st4{font-size:14px;}
	.st5{fill:#D04544;}
</style>
<circle class="st0" cx="38.1" cy="56.5" r="9.3"/>
<circle class="st0" cx="119.4" cy="56.5" r="9.3"/>
<line class="st1" x1="47.4" y1="56.5" x2="104.1" y2="56.5"/>
<path class="st0" d="M110.1,56.5c-3.1,1.1-6,2.7-8.6,4.8l1.7-4.8l-1.7-4.8C104.1,53.8,107,55.4,110.1,56.5z"/>
<text transform="matrix(1 0 0 1 27.1867 32.778)" class="st0 st2 st3">C1</text>
<text transform="matrix(1 0 0 1 108.5267 32.978)" class="st0 st2 st3">C2</text>
<circle class="st0" cx="205.2" cy="106.6" r="9.3"/>
<line class="st1" x1="119.4" y1="57.3" x2="191.9" y2="98.9"/>
<path class="st0" d="M197.1,102c-3.2-0.6-6.5-0.6-9.8-0.1l3.9-3.3l0.9-5C193.3,96.7,195,99.5,197.1,102z"/>
<text transform="matrix(1 0 0 1 56.1261 75.2478)" class="st0 st2 st4">commit</text>
<text transform="matrix(1 0 0 1 381.1266 52.5703)" class="st2 st4">main branch</text>
<text transform="matrix(1 0 0 1 383.4578 107.2903)" class="st2 st4">new branch</text>
<text transform="matrix(1 0 0 1 137.3931 60.8501)" class="st0 st2 st4">branch</text>
<text transform="matrix(1 0 0 1 183.279 89.9536)" class="st0 st2 st4">commit</text>
<text transform="matrix(1 0 0 1 160.3361 75.4017)" class="st0 st2 st4">checkout</text>
<circle class="st5" cx="286.5" cy="104.6" r="9.3"/>
<line class="st1" x1="214.5" y1="104.6" x2="271.2" y2="104.6"/>
<path class="st0" d="M277.2,104.6c-3.1,1.1-6,2.7-8.6,4.8l1.7-4.8l-1.7-4.8C271.2,101.9,274.1,103.5,277.2,104.6z"/>
<text transform="matrix(1 0 0 1 261.6053 150.4958)" class="st0 st2 st3">C3.2</text>
<text transform="matrix(1 0 0 1 223.2261 123.4178)" class="st0 st2 st4">commit</text>
<text transform="matrix(1 0 0 1 183.8392 150.4962)" class="st0 st2 st3">C3.1</text>
</svg>
