<?xml version="1.0" encoding="utf-8"?>
<!-- Generator: Adobe Illustrator 27.0.0, SVG Export Plug-In . SVG Version: 6.00 Build 0)  -->
<svg version="1.1" id="Layer_1" xmlns="http://www.w3.org/2000/svg" xmlns:xlink="http://www.w3.org/1999/xlink" x="0px" y="0px"
	 viewBox="0 0 812 444.3" style="enable-background:new 0 0 812 444.3;" xml:space="preserve">
<style type="text/css">
	.st0{fill:#FFFFFF;stroke:#000000;stroke-miterlimit:10;}
	.st1{fill:none;stroke:#000000;stroke-miterlimit:10;}
	.st2{fill:none;stroke:#009640;stroke-miterlimit:10;}
	.st3{fill:none;stroke:#1E1E1C;stroke-linecap:square;stroke-miterlimit:10;}
	.st4{fill:#1E1E1C;}
	.st5{font-family:'ArialMT';}
	.st6{font-size:14px;}
	.st7{fill:#FFFFFF;stroke:#009741;stroke-miterlimit:10;}
	.st8{fill:none;stroke:#009741;stroke-miterlimit:10;}
	.st9{fill:#FFFFFF;stroke:#1E1E1C;stroke-miterlimit:10;}
	.st10{fill:none;stroke:#1E1E1C;stroke-miterlimit:10;}
	.st11{font-size:16px;}
	.st12{fill:#009640;}
	.st13{font-size:12px;}
	.st14{fill:none;stroke:#1E1E1C;stroke-linecap:square;stroke-miterlimit:10;stroke-dasharray:6.196,6.196;}
</style>
<path class="st0" d="M441.7,82.8h21.4c3.9,0,7.1,3.2,7.1,7.1v33.7c0,3.9-3.2,7.1-7.1,7.1h-21.4c-3.9,0-7.1-3.2-7.1-7.1V89.9
	C434.6,85.9,437.8,82.8,441.7,82.8z"/>
<line class="st1" x1="441" y1="92.8" x2="463.8" y2="92.8"/>
<line class="st1" x1="441" y1="98.9" x2="463.8" y2="98.9"/>
<line class="st2" x1="441" y1="104.8" x2="463.8" y2="104.8"/>
<g>
	<g>
		<line class="st3" x1="451.6" y1="65.4" x2="601.5" y2="65.4"/>
		<g>
			<polygon class="st4" points="598.7,69.1 600.3,65.4 598.7,61.7 607.5,65.4 			"/>
		</g>
	</g>
</g>
<line class="st3" x1="177.9" y1="65.4" x2="178.1" y2="56.1"/>
<text transform="matrix(1 0 0 1 151.2668 30.9163)" class="st4 st5 st6">Initialise</text>
<text transform="matrix(1 0 0 1 134.9669 45.3163)" class="st4 st5 st6">with README</text>
<path class="st7" d="M167.3,83.7h21.3c3.9,0,7.1,3.2,7.1,7.1v33.7c0,3.9-3.2,7.1-7.1,7.1h-21.3c-3.9,0-7.1-3.2-7.1-7.1V90.8
	C160.2,86.8,163.4,83.7,167.3,83.7z"/>
<line class="st8" x1="166.6" y1="92.1" x2="189.4" y2="92.1"/>
<line class="st8" x1="166.6" y1="98.2" x2="189.4" y2="98.2"/>
<path class="st9" d="M297.1,309.4h21.4c3.9,0,7.1,3.2,7.1,7.1v33.7c0,3.9-3.2,7.1-7.1,7.1h-21.4c-3.9,0-7.1-3.2-7.1-7.1v-33.7
	C290,312.5,293.2,309.4,297.1,309.4z"/>
<line class="st10" x1="296.4" y1="319.4" x2="319.2" y2="319.4"/>
<line class="st10" x1="296.4" y1="325.5" x2="319.2" y2="325.5"/>
<path class="st7" d="M309.8,326h21.4c3.9,0,7.1,3.2,7.1,7.1v33.7c0,3.9-3.2,7.1-7.1,7.1h-21.4c-3.9,0-7.1-3.2-7.1-7.1v-33.7
	C302.7,329.2,305.9,326,309.8,326z"/>
<line class="st8" x1="309.1" y1="334.5" x2="331.9" y2="334.5"/>
<line class="st8" x1="309.1" y1="340.5" x2="331.9" y2="340.5"/>
<line class="st8" x1="309.1" y1="346.6" x2="331.9" y2="346.6"/>
<text transform="matrix(1 0 0 1 692.2671 69.1001)" class="st4 st5 st11">GitHub</text>
<g>
	<g>
		<line class="st3" x1="448.8" y1="290.4" x2="601.5" y2="290.4"/>
		<g>
			<polygon class="st4" points="598.7,294.1 600.3,290.4 598.7,286.7 607.5,290.4 			"/>
		</g>
	</g>
</g>
<line class="st3" x1="173.6" y1="290.2" x2="173.9" y2="280.9"/>
<line class="st3" x1="309.6" y1="290.2" x2="309.9" y2="280.9"/>
<text transform="matrix(1 0 0 1 268.532 269.7707)" class="st4 st5 st6">Add .gitignore</text>
<text transform="matrix(1 0 0 1 660.6932 290.3997)" class="st4 st5 st11">Clone repository</text>
<text transform="matrix(1 0 0 1 146.8653 148.1981)" class="st12 st5 st13">README.md</text>
<g>
	<g>
		<line class="st10" x1="173.9" y1="183.4" x2="173.9" y2="240.5"/>
		<g>
			<polygon class="st4" points="170.2,237.7 173.9,239.3 177.6,237.7 173.9,246.5 			"/>
		</g>
	</g>
</g>
<text transform="matrix(1 0 0 1 131.5137 218.1695)" class="st4 st5 st13">Clone</text>
<path class="st0" d="M162.6,309.4h21.3c3.9,0,7.1,3.2,7.1,7.1v33.7c0,3.9-3.2,7.1-7.1,7.1h-21.3c-3.9,0-7.1-3.2-7.1-7.1v-33.7
	C155.5,312.5,158.7,309.4,162.6,309.4z"/>
<line class="st1" x1="161.9" y1="317.8" x2="184.7" y2="317.8"/>
<line class="st1" x1="161.9" y1="323.9" x2="184.7" y2="323.9"/>
<text transform="matrix(1 0 0 1 142.1692 373.9117)" class="st5 st13">README.md</text>
<text transform="matrix(1 0 0 1 296.3899 393.4614)" class="st12 st5 st13">.gitignore</text>
<g>
	<g>
		<line class="st10" x1="311.2" y1="189.4" x2="311.2" y2="246.5"/>
		<g>
			<polygon class="st4" points="307.5,192.2 311.2,190.6 314.9,192.2 311.2,183.4 			"/>
		</g>
	</g>
</g>
<text transform="matrix(1 0 0 1 272.8807 218.1695)" class="st4 st5 st13">Push</text>
<path class="st0" d="M302.1,84.3h21.4c3.9,0,7.1,3.2,7.1,7.1v33.7c0,3.9-3.2,7.1-7.1,7.1h-21.4c-3.9,0-7.1-3.2-7.1-7.1V91.4
	C295,87.4,298.2,84.3,302.1,84.3z"/>
<line class="st1" x1="301.4" y1="94.3" x2="324.2" y2="94.3"/>
<line class="st1" x1="301.4" y1="100.4" x2="324.2" y2="100.4"/>
<path class="st0" d="M314.8,100.9h21.4c3.9,0,7.1,3.2,7.1,7.1v33.7c0,3.9-3.2,7.1-7.1,7.1h-21.4c-3.9,0-7.1-3.2-7.1-7.1V108
	C307.7,104.1,310.9,100.9,314.8,100.9z"/>
<line class="st1" x1="314.1" y1="109.4" x2="336.9" y2="109.4"/>
<line class="st1" x1="314.1" y1="115.4" x2="336.9" y2="115.4"/>
<line class="st1" x1="314.1" y1="121.5" x2="336.9" y2="121.5"/>
<text transform="matrix(1 0 0 1 301.4399 168.3458)" class="st5 st13">.gitignore</text>
<line class="st3" x1="314" y1="65.4" x2="314.2" y2="56.1"/>
<line class="st3" x1="451.6" y1="65.4" x2="451.8" y2="56.1"/>
<text transform="matrix(1 0 0 1 415.0349 45.3168)" class="st4 st5 st6">Edit README</text>
<path class="st0" d="M454.4,99.4h21.4c3.9,0,7.1,3.2,7.1,7.1v33.7c0,3.9-3.2,7.1-7.1,7.1h-21.4c-3.9,0-7.1-3.2-7.1-7.1v-33.7
	C447.3,102.6,450.5,99.4,454.4,99.4z"/>
<line class="st1" x1="453.7" y1="107.9" x2="476.5" y2="107.9"/>
<line class="st1" x1="453.7" y1="113.9" x2="476.5" y2="113.9"/>
<line class="st1" x1="453.7" y1="120" x2="476.5" y2="120"/>
<g>
	<g>
		<line class="st10" x1="446.6" y1="183.4" x2="446.6" y2="240.6"/>
		<g>
			<polygon class="st4" points="442.9,237.8 446.6,239.4 450.3,237.8 446.6,246.6 			"/>
		</g>
	</g>
</g>
<text transform="matrix(1 0 0 1 415.4161 218.1697)" class="st4 st5 st13">Pull</text>
<path class="st0" d="M436.7,309.3h21.4c3.9,0,7.1,3.2,7.1,7.1v33.7c0,3.9-3.2,7.1-7.1,7.1h-21.4c-3.9,0-7.1-3.2-7.1-7.1v-33.7
	C429.6,312.4,432.8,309.3,436.7,309.3z"/>
<line class="st1" x1="436" y1="319.3" x2="458.8" y2="319.3"/>
<line class="st1" x1="436" y1="325.4" x2="458.8" y2="325.4"/>
<line class="st1" x1="436" y1="331.2" x2="458.8" y2="331.2"/>
<path class="st0" d="M449.4,325.9h21.4c3.9,0,7.1,3.2,7.1,7.1v33.7c0,3.9-3.2,7.1-7.1,7.1h-21.4c-3.9,0-7.1-3.2-7.1-7.1V333
	C442.2,329.1,445.5,325.9,449.4,325.9z"/>
<line class="st1" x1="448.7" y1="334.4" x2="471.5" y2="334.4"/>
<line class="st1" x1="448.7" y1="340.4" x2="471.5" y2="340.4"/>
<line class="st1" x1="448.7" y1="346.5" x2="471.5" y2="346.5"/>
<text transform="matrix(1 0 0 1 425.4469 107.9209)" class="st12 st5 st13">+</text>
<line class="st3" x1="448.7" y1="290.4" x2="448.9" y2="281.1"/>
<g>
	<g>
		<line class="st3" x1="177.9" y1="65.4" x2="180.9" y2="65.4"/>
		<line class="st14" x1="187.1" y1="65.4" x2="307.9" y2="65.4"/>
		<line class="st3" x1="311" y1="65.4" x2="314" y2="65.4"/>
	</g>
</g>
<g>
	<g>
		<line class="st3" x1="311.2" y1="290.2" x2="314.2" y2="290.2"/>
		<line class="st14" x1="320.4" y1="290.2" x2="441.2" y2="290.2"/>
		<line class="st3" x1="444.3" y1="290.2" x2="447.3" y2="290.2"/>
	</g>
</g>
<line class="st3" x1="314.2" y1="65.4" x2="450.4" y2="65.4"/>
<line class="st3" x1="173.2" y1="290.4" x2="309.3" y2="290.4"/>
<text transform="matrix(1 0 0 1 489.3708 96.201)" class="st5 st13">README.md</text>
<text transform="matrix(1 0 0 1 489.3709 113.3989)" class="st5 st13">.gitignore</text>
<text transform="matrix(1 0 0 1 490.3184 321.815)" class="st5 st13">README.md</text>
<text transform="matrix(1 0 0 1 490.3186 339.013)" class="st5 st13">.gitignore</text>
</svg>
